<svg width="12" height="15" viewBox="0 0 12 15" fill="none" xmlns="http://www.w3.org/2000/svg">
<path d="M7.4292 1V3.85701C7.4292 4.04644 7.50445 4.22811 7.6384 4.36206C7.77235 4.49601 7.95402 4.57126 8.14345 4.57126H11.0005" stroke="#3366FF" stroke-linecap="round" stroke-linejoin="round"/>
<path d="M9.57103 13.8565H2.42851C2.04964 13.8565 1.6863 13.706 1.4184 13.4381C1.1505 13.1702 1 12.8069 1 12.428V2.42851C1 2.04964 1.1505 1.6863 1.4184 1.4184C1.6863 1.1505 2.04964 1 2.42851 1H7.42827L10.9995 4.57126V12.428C10.9995 12.8069 10.849 13.1702 10.5811 13.4381C10.3132 13.706 9.94989 13.8565 9.57103 13.8565Z" stroke="#3366FF" stroke-linecap="round" stroke-linejoin="round"/>
</svg>
