<svg width="416" height="200" viewBox="0 0 416 200" fill="none" xmlns="http://www.w3.org/2000/svg">
<rect width="416" height="200" rx="4" fill="#FFC8C8"/>
<path d="M45.7656 53H42.1328V38.8906H37.4805V35.8672H50.418V38.8906H45.7656V53ZM50.4297 39.8984H54.3438L56.8164 47.2695C57.0273 47.9102 57.1719 48.668 57.25 49.543H57.3203C57.4062 48.7383 57.5742 47.9805 57.8242 47.2695L60.25 39.8984H64.082L58.5391 54.6758C58.0312 56.043 57.3047 57.0664 56.3594 57.7461C55.4219 58.4258 54.3242 58.7656 53.0664 58.7656C52.4492 58.7656 51.8438 58.6992 51.25 58.5664V55.7305C51.6797 55.832 52.1484 55.8828 52.6562 55.8828C53.2891 55.8828 53.8398 55.6875 54.3086 55.2969C54.7852 54.9141 55.1562 54.332 55.4219 53.5508L55.6328 52.9062L50.4297 39.8984ZM73.1641 53.2344C71.625 53.2344 70.418 52.6758 69.543 51.5586H69.3555C69.4805 52.6523 69.543 53.2852 69.543 53.457V58.7656H65.9688V39.8984H68.875L69.3789 41.5977H69.543C70.3789 40.3008 71.6172 39.6523 73.2578 39.6523C74.8047 39.6523 76.0156 40.25 76.8906 41.4453C77.7656 42.6406 78.2031 44.3008 78.2031 46.4258C78.2031 47.8242 77.9961 49.0391 77.582 50.0703C77.1758 51.1016 76.5938 51.8867 75.8359 52.4258C75.0781 52.9648 74.1875 53.2344 73.1641 53.2344ZM72.1094 42.5117C71.2266 42.5117 70.582 42.7852 70.1758 43.332C69.7695 43.8711 69.5586 44.7656 69.543 46.0156V46.4023C69.543 47.8086 69.75 48.8164 70.1641 49.4258C70.5859 50.0352 71.25 50.3398 72.1562 50.3398C73.7578 50.3398 74.5586 49.0195 74.5586 46.3789C74.5586 45.0898 74.3594 44.125 73.9609 43.4844C73.5703 42.8359 72.9531 42.5117 72.1094 42.5117ZM80.3594 45.1484C80.3594 42.1406 80.9297 39.8594 82.0703 38.3047C83.2188 36.7422 85.0078 35.7539 87.4375 35.3398C88.2891 35.1914 89.1445 35.0703 90.0039 34.9766C90.8711 34.875 91.7773 34.7617 92.7227 34.6367L93.1328 37.7656C91.1484 37.9922 89.6328 38.1758 88.5859 38.3164C87.5469 38.457 86.7812 38.6133 86.2891 38.7852C85.7969 38.9492 85.3906 39.1875 85.0703 39.5C84.7578 39.8125 84.5156 40.2266 84.3438 40.7422C84.1719 41.25 84.0586 41.9297 84.0039 42.7812H84.1797C84.5938 42.1406 85.1406 41.6484 85.8203 41.3047C86.5 40.9609 87.2305 40.7891 88.0117 40.7891C89.6289 40.7891 90.8867 41.2852 91.7852 42.2773C92.6836 43.2617 93.1328 44.6758 93.1328 46.5195C93.1328 48.6445 92.5625 50.2969 91.4219 51.4766C90.2891 52.6484 88.7227 53.2344 86.7227 53.2344C84.7227 53.2344 83.1602 52.5195 82.0352 51.0898C80.918 49.6523 80.3594 47.6719 80.3594 45.1484ZM86.9336 50.3398C88.6289 50.3398 89.4766 49.1719 89.4766 46.8359C89.4766 44.5625 88.7109 43.4258 87.1797 43.4258C86.7578 43.4258 86.3359 43.5234 85.9141 43.7188C85.5 43.9141 85.1172 44.1719 84.7656 44.4922C84.4219 44.8047 84.168 45.1211 84.0039 45.4414C84.0039 47.0273 84.2578 48.2422 84.7656 49.0859C85.2734 49.9219 85.9961 50.3398 86.9336 50.3398ZM98.9336 46.4258C98.9336 47.7227 99.1445 48.7031 99.5664 49.3672C99.9961 50.0312 100.691 50.3633 101.652 50.3633C102.605 50.3633 103.289 50.0352 103.703 49.3789C104.125 48.7148 104.336 47.7305 104.336 46.4258C104.336 45.1289 104.125 44.1562 103.703 43.5078C103.281 42.8594 102.59 42.5352 101.629 42.5352C100.676 42.5352 99.9883 42.8594 99.5664 43.5078C99.1445 44.1484 98.9336 45.1211 98.9336 46.4258ZM107.992 46.4258C107.992 48.5586 107.43 50.2266 106.305 51.4297C105.18 52.6328 103.613 53.2344 101.605 53.2344C100.348 53.2344 99.2383 52.9609 98.2773 52.4141C97.3164 51.8594 96.5781 51.0664 96.0625 50.0352C95.5469 49.0039 95.2891 47.8008 95.2891 46.4258C95.2891 44.2852 95.8477 42.6211 96.9648 41.4336C98.082 40.2461 99.6523 39.6523 101.676 39.6523C102.934 39.6523 104.043 39.9258 105.004 40.4727C105.965 41.0195 106.703 41.8047 107.219 42.8281C107.734 43.8516 107.992 45.0508 107.992 46.4258ZM129.086 39.8984V53H125.5V42.582H120.754V53H117.18V39.8984H129.086ZM140.031 53.2344C138.492 53.2344 137.285 52.6758 136.41 51.5586H136.223C136.348 52.6523 136.41 53.2852 136.41 53.457V58.7656H132.836V39.8984H135.742L136.246 41.5977H136.41C137.246 40.3008 138.484 39.6523 140.125 39.6523C141.672 39.6523 142.883 40.25 143.758 41.4453C144.633 42.6406 145.07 44.3008 145.07 46.4258C145.07 47.8242 144.863 49.0391 144.449 50.0703C144.043 51.1016 143.461 51.8867 142.703 52.4258C141.945 52.9648 141.055 53.2344 140.031 53.2344ZM138.977 42.5117C138.094 42.5117 137.449 42.7852 137.043 43.332C136.637 43.8711 136.426 44.7656 136.41 46.0156V46.4023C136.41 47.8086 136.617 48.8164 137.031 49.4258C137.453 50.0352 138.117 50.3398 139.023 50.3398C140.625 50.3398 141.426 49.0195 141.426 46.3789C141.426 45.0898 141.227 44.125 140.828 43.4844C140.438 42.8359 139.82 42.5117 138.977 42.5117ZM150.871 46.4258C150.871 47.7227 151.082 48.7031 151.504 49.3672C151.934 50.0312 152.629 50.3633 153.59 50.3633C154.543 50.3633 155.227 50.0352 155.641 49.3789C156.062 48.7148 156.273 47.7305 156.273 46.4258C156.273 45.1289 156.062 44.1562 155.641 43.5078C155.219 42.8594 154.527 42.5352 153.566 42.5352C152.613 42.5352 151.926 42.8594 151.504 43.5078C151.082 44.1484 150.871 45.1211 150.871 46.4258ZM159.93 46.4258C159.93 48.5586 159.367 50.2266 158.242 51.4297C157.117 52.6328 155.551 53.2344 153.543 53.2344C152.285 53.2344 151.176 52.9609 150.215 52.4141C149.254 51.8594 148.516 51.0664 148 50.0352C147.484 49.0039 147.227 47.8008 147.227 46.4258C147.227 44.2852 147.785 42.6211 148.902 41.4336C150.02 40.2461 151.59 39.6523 153.613 39.6523C154.871 39.6523 155.98 39.9258 156.941 40.4727C157.902 41.0195 158.641 41.8047 159.156 42.8281C159.672 43.8516 159.93 45.0508 159.93 46.4258ZM171.086 50.3867V42.582H168.402C168.207 44.0352 167.938 45.4141 167.594 46.7188C167.258 48.0234 166.789 49.2461 166.188 50.3867H171.086ZM176.582 57.6992H173.371V53H164.559V57.6992H161.348V50.3867H162.449C163.199 49.2227 163.828 47.7539 164.336 45.9805C164.844 44.207 165.199 42.1797 165.402 39.8984H174.66V50.3867H176.582V57.6992ZM187.141 53L186.449 51.2188H186.355C185.754 51.9766 185.133 52.5039 184.492 52.8008C183.859 53.0898 183.031 53.2344 182.008 53.2344C180.75 53.2344 179.758 52.875 179.031 52.1562C178.312 51.4375 177.953 50.4141 177.953 49.0859C177.953 47.6953 178.438 46.6719 179.406 46.0156C180.383 45.3516 181.852 44.9844 183.812 44.9141L186.086 44.8438V44.2695C186.086 42.9414 185.406 42.2773 184.047 42.2773C183 42.2773 181.77 42.5938 180.355 43.2266L179.172 40.8125C180.68 40.0234 182.352 39.6289 184.188 39.6289C185.945 39.6289 187.293 40.0117 188.23 40.7773C189.168 41.543 189.637 42.707 189.637 44.2695V53H187.141ZM186.086 46.9297L184.703 46.9766C183.664 47.0078 182.891 47.1953 182.383 47.5391C181.875 47.8828 181.621 48.4062 181.621 49.1094C181.621 50.1172 182.199 50.6211 183.355 50.6211C184.184 50.6211 184.844 50.3828 185.336 49.9062C185.836 49.4297 186.086 48.7969 186.086 48.0078V46.9297ZM200.266 46.2617V39.8984H203.594V46.2617L208.258 39.8984H211.949L207.121 46.1797L212.406 53H208.586L203.594 46.3555V53H200.266V46.3555L195.273 53H191.453L196.738 46.1797L191.91 39.8984H195.602L200.266 46.2617ZM222.602 53L221.91 51.2188H221.816C221.215 51.9766 220.594 52.5039 219.953 52.8008C219.32 53.0898 218.492 53.2344 217.469 53.2344C216.211 53.2344 215.219 52.875 214.492 52.1562C213.773 51.4375 213.414 50.4141 213.414 49.0859C213.414 47.6953 213.898 46.6719 214.867 46.0156C215.844 45.3516 217.312 44.9844 219.273 44.9141L221.547 44.8438V44.2695C221.547 42.9414 220.867 42.2773 219.508 42.2773C218.461 42.2773 217.23 42.5938 215.816 43.2266L214.633 40.8125C216.141 40.0234 217.812 39.6289 219.648 39.6289C221.406 39.6289 222.754 40.0117 223.691 40.7773C224.629 41.543 225.098 42.707 225.098 44.2695V53H222.602ZM221.547 46.9297L220.164 46.9766C219.125 47.0078 218.352 47.1953 217.844 47.5391C217.336 47.8828 217.082 48.4062 217.082 49.1094C217.082 50.1172 217.66 50.6211 218.816 50.6211C219.645 50.6211 220.305 50.3828 220.797 49.9062C221.297 49.4297 221.547 48.7969 221.547 48.0078V46.9297Z" fill="#323232"/>
<path d="M38.5547 118.578H41.8125C43.3438 118.578 44.4479 118.807 45.125 119.266C45.8073 119.719 46.1484 120.432 46.1484 121.406C46.1484 122.083 45.9635 122.643 45.5938 123.086C45.224 123.523 44.6849 123.807 43.9766 123.938V124.016C44.8568 124.167 45.5026 124.471 45.9141 124.93C46.3307 125.388 46.5391 125.995 46.5391 126.75C46.5391 127.771 46.1901 128.568 45.4922 129.141C44.7943 129.714 43.8203 130 42.5703 130H38.5547V118.578ZM39.9922 123.438H42.1016C42.9974 123.438 43.6484 123.294 44.0547 123.008C44.4609 122.721 44.6641 122.242 44.6641 121.57C44.6641 120.945 44.4401 120.495 43.9922 120.219C43.5495 119.943 42.8464 119.805 41.8828 119.805H39.9922V123.438ZM39.9922 124.641V128.781H42.2969C43.2135 128.781 43.8932 128.604 44.3359 128.25C44.7786 127.896 45 127.359 45 126.641C45 125.958 44.7656 125.456 44.2969 125.133C43.8281 124.805 43.125 124.641 42.1875 124.641H39.9922ZM57.1172 130H55.7422V122.867C55.7422 122.643 55.7422 122.404 55.7422 122.148C55.7474 121.893 55.7526 121.641 55.7578 121.391C55.7682 121.135 55.776 120.893 55.7812 120.664C55.7917 120.43 55.7995 120.224 55.8047 120.047C55.7161 120.141 55.638 120.221 55.5703 120.289C55.5026 120.357 55.4323 120.422 55.3594 120.484C55.2917 120.547 55.2188 120.615 55.1406 120.688C55.0625 120.755 54.9688 120.836 54.8594 120.93L53.7031 121.875L52.9531 120.914L55.9453 118.578H57.1172V130ZM68.4375 124.273C68.4375 125.195 68.3698 126.021 68.2344 126.75C68.1042 127.479 67.8906 128.096 67.5938 128.602C67.3021 129.107 66.9245 129.492 66.4609 129.758C65.9974 130.023 65.4349 130.156 64.7734 130.156C64.1589 130.156 63.6224 130.023 63.1641 129.758C62.7109 129.492 62.3333 129.107 62.0312 128.602C61.7344 128.096 61.5104 127.479 61.3594 126.75C61.2135 126.021 61.1406 125.195 61.1406 124.273C61.1406 123.352 61.2057 122.526 61.3359 121.797C61.4714 121.068 61.6823 120.453 61.9688 119.953C62.2604 119.448 62.6354 119.062 63.0938 118.797C63.5573 118.531 64.1172 118.398 64.7734 118.398C65.3932 118.398 65.9323 118.531 66.3906 118.797C66.849 119.057 67.2292 119.44 67.5312 119.945C67.8333 120.445 68.0599 121.06 68.2109 121.789C68.362 122.518 68.4375 123.346 68.4375 124.273ZM62.5859 124.273C62.5859 125.055 62.625 125.737 62.7031 126.32C62.7812 126.904 62.9062 127.391 63.0781 127.781C63.25 128.167 63.474 128.458 63.75 128.656C64.0312 128.849 64.3724 128.945 64.7734 128.945C65.1745 128.945 65.5156 128.849 65.7969 128.656C66.0781 128.464 66.3073 128.174 66.4844 127.789C66.6667 127.404 66.7969 126.919 66.875 126.336C66.9583 125.747 67 125.06 67 124.273C67 123.492 66.9583 122.81 66.875 122.227C66.7969 121.643 66.6667 121.159 66.4844 120.773C66.3073 120.388 66.0781 120.099 65.7969 119.906C65.5156 119.714 65.1745 119.617 64.7734 119.617C64.3724 119.617 64.0312 119.714 63.75 119.906C63.474 120.099 63.25 120.388 63.0781 120.773C62.9062 121.159 62.7812 121.643 62.7031 122.227C62.625 122.81 62.5859 123.492 62.5859 124.273ZM78.7656 130.156C77.6146 130.156 76.7292 129.742 76.1094 128.914H76.0156L76.0469 129.234C76.0885 129.641 76.1094 130.003 76.1094 130.32V133.844H74.7031V121.422H75.8594L76.0469 122.594H76.1094C76.4427 122.125 76.8281 121.786 77.2656 121.578C77.7031 121.37 78.2083 121.266 78.7812 121.266C79.8958 121.266 80.7604 121.654 81.375 122.43C81.9948 123.201 82.3047 124.289 82.3047 125.695C82.3047 127.096 81.9948 128.19 81.375 128.977C80.7552 129.763 79.8854 130.156 78.7656 130.156ZM78.5312 122.445C77.6823 122.445 77.0677 122.685 76.6875 123.164C76.3125 123.643 76.1198 124.396 76.1094 125.422V125.695C76.1094 126.857 76.3021 127.698 76.6875 128.219C77.0729 128.734 77.6979 128.992 78.5625 128.992C79.2812 128.992 79.8411 128.701 80.2422 128.117C80.6484 127.534 80.8516 126.721 80.8516 125.68C80.8516 124.633 80.6484 123.833 80.2422 123.281C79.8411 122.724 79.2708 122.445 78.5312 122.445ZM89.8438 130L89.5703 128.781H89.5078C89.0807 129.318 88.6536 129.682 88.2266 129.875C87.8047 130.062 87.2708 130.156 86.625 130.156C85.7812 130.156 85.1198 129.935 84.6406 129.492C84.1615 129.049 83.9219 128.424 83.9219 127.617C83.9219 125.878 85.2943 124.966 88.0391 124.883L89.4922 124.828V124.32C89.4922 123.669 89.3516 123.19 89.0703 122.883C88.7891 122.57 88.3385 122.414 87.7188 122.414C87.2656 122.414 86.8359 122.482 86.4297 122.617C86.0286 122.753 85.651 122.904 85.2969 123.07L84.8672 122.016C85.2995 121.786 85.7708 121.607 86.2812 121.477C86.7917 121.346 87.2969 121.281 87.7969 121.281C88.8333 121.281 89.6042 121.51 90.1094 121.969C90.6146 122.427 90.8672 123.156 90.8672 124.156V130H89.8438ZM86.9453 129.023C87.7318 129.023 88.349 128.812 88.7969 128.391C89.25 127.964 89.4766 127.359 89.4766 126.578V125.805L88.2109 125.859C87.2266 125.896 86.5078 126.052 86.0547 126.328C85.6068 126.604 85.3828 127.039 85.3828 127.633C85.3828 128.081 85.5182 128.424 85.7891 128.664C86.0651 128.904 86.4505 129.023 86.9453 129.023ZM95.2266 124.961C96.8464 124.961 97.6562 124.523 97.6562 123.648C97.6562 122.836 97.0078 122.43 95.7109 122.43C95.2995 122.43 94.9167 122.469 94.5625 122.547C94.2083 122.625 93.7839 122.768 93.2891 122.977L92.7969 121.859C93.6875 121.464 94.6849 121.266 95.7891 121.266C96.7943 121.266 97.5807 121.466 98.1484 121.867C98.7161 122.268 99 122.82 99 123.523C99 124.497 98.4635 125.13 97.3906 125.422V125.484C98.0417 125.672 98.5208 125.943 98.8281 126.297C99.1354 126.651 99.2891 127.096 99.2891 127.633C99.2891 128.419 98.9635 129.036 98.3125 129.484C97.6615 129.932 96.7656 130.156 95.625 130.156C94.3646 130.156 93.3906 129.971 92.7031 129.602V128.336C93.6562 128.784 94.625 129.008 95.6094 129.008C96.3438 129.008 96.9089 128.885 97.3047 128.641C97.7005 128.396 97.8984 128.034 97.8984 127.555C97.8984 127.065 97.6979 126.703 97.2969 126.469C96.8958 126.229 96.2812 126.109 95.4531 126.109H94.2969V124.961H95.2266ZM105.086 124.852C105.086 122.94 105.372 121.469 105.945 120.438C106.523 119.401 107.43 118.747 108.664 118.477C109.826 118.242 111.122 118.003 112.555 117.758L112.797 118.992L111.867 119.141C110.659 119.339 109.688 119.513 108.953 119.664C108.203 119.831 107.638 120.214 107.258 120.812C106.883 121.406 106.669 122.271 106.617 123.406H106.719C107.021 122.984 107.422 122.648 107.922 122.398C108.427 122.143 108.964 122.016 109.531 122.016C110.583 122.016 111.406 122.354 112 123.031C112.594 123.708 112.891 124.656 112.891 125.875C112.891 127.234 112.544 128.289 111.852 129.039C111.159 129.784 110.198 130.156 108.969 130.156C107.75 130.156 106.797 129.69 106.109 128.758C105.427 127.826 105.086 126.523 105.086 124.852ZM109.086 128.992C110.633 128.992 111.406 128 111.406 126.016C111.406 124.13 110.706 123.188 109.305 123.188C108.924 123.188 108.555 123.266 108.195 123.422C107.841 123.578 107.518 123.784 107.227 124.039C106.94 124.294 106.706 124.576 106.523 124.883C106.523 127.622 107.378 128.992 109.086 128.992ZM122.578 125.695C122.578 127.096 122.224 128.19 121.516 128.977C120.807 129.763 119.828 130.156 118.578 130.156C117.802 130.156 117.115 129.977 116.516 129.617C115.917 129.253 115.456 128.732 115.133 128.055C114.81 127.378 114.648 126.591 114.648 125.695C114.648 124.299 114.997 123.214 115.695 122.438C116.393 121.656 117.372 121.266 118.633 121.266C119.841 121.266 120.799 121.664 121.508 122.461C122.221 123.253 122.578 124.331 122.578 125.695ZM116.102 125.695C116.102 126.773 116.312 127.594 116.734 128.156C117.161 128.714 117.789 128.992 118.617 128.992C119.435 128.992 120.057 128.714 120.484 128.156C120.911 127.594 121.125 126.773 121.125 125.695C121.125 124.617 120.909 123.807 120.477 123.266C120.049 122.719 119.422 122.445 118.594 122.445C116.932 122.445 116.102 123.529 116.102 125.695ZM131.344 130H129.914V122.594H127.391C127.245 124.469 127.047 125.943 126.797 127.016C126.552 128.083 126.229 128.867 125.828 129.367C125.432 129.862 124.924 130.109 124.305 130.109C123.966 130.109 123.719 130.073 123.562 130V128.945C123.672 128.987 123.818 129.008 124 129.008C124.573 129.008 125.029 128.404 125.367 127.195C125.711 125.987 125.979 124.062 126.172 121.422H131.344V130ZM135.469 124.945H138.016C140.245 124.945 141.359 125.755 141.359 127.375C141.359 128.229 141.07 128.88 140.492 129.328C139.914 129.776 139.068 130 137.953 130H134.062V121.422H135.469V124.945ZM139.953 127.453C139.953 126.995 139.792 126.656 139.469 126.438C139.146 126.219 138.607 126.109 137.852 126.109H135.469V128.867H137.891C138.552 128.867 139.06 128.747 139.414 128.508C139.773 128.268 139.953 127.917 139.953 127.453ZM150.094 128.812H153.805V121.422H155.211V130H143.578V121.422H144.984V128.812H148.68V121.422H150.094V128.812ZM161.602 130.156C160.315 130.156 159.305 129.768 158.57 128.992C157.841 128.211 157.477 127.138 157.477 125.773C157.477 124.398 157.818 123.305 158.5 122.492C159.182 121.674 160.104 121.266 161.266 121.266C162.344 121.266 163.203 121.615 163.844 122.312C164.484 123.005 164.805 123.945 164.805 125.133V125.984H158.93C158.956 126.958 159.203 127.698 159.672 128.203C160.141 128.708 160.805 128.961 161.664 128.961C162.122 128.961 162.557 128.922 162.969 128.844C163.38 128.76 163.862 128.602 164.414 128.367V129.602C163.94 129.805 163.495 129.948 163.078 130.031C162.661 130.115 162.169 130.156 161.602 130.156ZM161.25 122.414C160.578 122.414 160.047 122.63 159.656 123.062C159.266 123.495 159.034 124.096 158.961 124.867H163.328C163.318 124.065 163.133 123.456 162.773 123.039C162.414 122.622 161.906 122.414 161.25 122.414ZM39.7656 148H38.3594V139.422H45.6094V148H44.2031V140.625H39.7656V148ZM55.7969 143.695C55.7969 145.096 55.4427 146.19 54.7344 146.977C54.026 147.763 53.0469 148.156 51.7969 148.156C51.0208 148.156 50.3333 147.977 49.7344 147.617C49.1354 147.253 48.6745 146.732 48.3516 146.055C48.0286 145.378 47.8672 144.591 47.8672 143.695C47.8672 142.299 48.2161 141.214 48.9141 140.438C49.612 139.656 50.5911 139.266 51.8516 139.266C53.0599 139.266 54.0182 139.664 54.7266 140.461C55.4401 141.253 55.7969 142.331 55.7969 143.695ZM49.3203 143.695C49.3203 144.773 49.5312 145.594 49.9531 146.156C50.3802 146.714 51.0078 146.992 51.8359 146.992C52.6536 146.992 53.276 146.714 53.7031 146.156C54.1302 145.594 54.3438 144.773 54.3438 143.695C54.3438 142.617 54.1276 141.807 53.6953 141.266C53.2682 140.719 52.6406 140.445 51.8125 140.445C50.151 140.445 49.3203 141.529 49.3203 143.695ZM63.1016 139.422H64.6406L60.9766 143.555L64.9453 148H63.3125L59.4375 143.648V148H58.0312V139.422H59.4375V143.586L63.1016 139.422ZM71.7969 148L71.5234 146.781H71.4609C71.0339 147.318 70.6068 147.682 70.1797 147.875C69.7578 148.062 69.224 148.156 68.5781 148.156C67.7344 148.156 67.0729 147.935 66.5938 147.492C66.1146 147.049 65.875 146.424 65.875 145.617C65.875 143.878 67.2474 142.966 69.9922 142.883L71.4453 142.828V142.32C71.4453 141.669 71.3047 141.19 71.0234 140.883C70.7422 140.57 70.2917 140.414 69.6719 140.414C69.2188 140.414 68.7891 140.482 68.3828 140.617C67.9818 140.753 67.6042 140.904 67.25 141.07L66.8203 140.016C67.2526 139.786 67.724 139.607 68.2344 139.477C68.7448 139.346 69.25 139.281 69.75 139.281C70.7865 139.281 71.5573 139.51 72.0625 139.969C72.5677 140.427 72.8203 141.156 72.8203 142.156V148H71.7969ZM68.8984 147.023C69.6849 147.023 70.3021 146.812 70.75 146.391C71.2031 145.964 71.4297 145.359 71.4297 144.578V143.805L70.1641 143.859C69.1797 143.896 68.4609 144.052 68.0078 144.328C67.5599 144.604 67.3359 145.039 67.3359 145.633C67.3359 146.081 67.4714 146.424 67.7422 146.664C68.0182 146.904 68.4036 147.023 68.8984 147.023ZM77.1797 142.961C78.7995 142.961 79.6094 142.523 79.6094 141.648C79.6094 140.836 78.9609 140.43 77.6641 140.43C77.2526 140.43 76.8698 140.469 76.5156 140.547C76.1615 140.625 75.737 140.768 75.2422 140.977L74.75 139.859C75.6406 139.464 76.638 139.266 77.7422 139.266C78.7474 139.266 79.5339 139.466 80.1016 139.867C80.6693 140.268 80.9531 140.82 80.9531 141.523C80.9531 142.497 80.4167 143.13 79.3438 143.422V143.484C79.9948 143.672 80.474 143.943 80.7812 144.297C81.0885 144.651 81.2422 145.096 81.2422 145.633C81.2422 146.419 80.9167 147.036 80.2656 147.484C79.6146 147.932 78.7188 148.156 77.5781 148.156C76.3177 148.156 75.3438 147.971 74.6562 147.602V146.336C75.6094 146.784 76.5781 147.008 77.5625 147.008C78.2969 147.008 78.862 146.885 79.2578 146.641C79.6536 146.396 79.8516 146.034 79.8516 145.555C79.8516 145.065 79.651 144.703 79.25 144.469C78.849 144.229 78.2344 144.109 77.4062 144.109H76.25V142.961H77.1797ZM90.7812 143.695C90.7812 145.096 90.4271 146.19 89.7188 146.977C89.0104 147.763 88.0312 148.156 86.7812 148.156C86.0052 148.156 85.3177 147.977 84.7188 147.617C84.1198 147.253 83.6589 146.732 83.3359 146.055C83.013 145.378 82.8516 144.591 82.8516 143.695C82.8516 142.299 83.2005 141.214 83.8984 140.438C84.5964 139.656 85.5755 139.266 86.8359 139.266C88.0443 139.266 89.0026 139.664 89.7109 140.461C90.4245 141.253 90.7812 142.331 90.7812 143.695ZM84.3047 143.695C84.3047 144.773 84.5156 145.594 84.9375 146.156C85.3646 146.714 85.9922 146.992 86.8203 146.992C87.638 146.992 88.2604 146.714 88.6875 146.156C89.1146 145.594 89.3281 144.773 89.3281 143.695C89.3281 142.617 89.112 141.807 88.6797 141.266C88.2526 140.719 87.625 140.445 86.7969 140.445C85.1354 140.445 84.3047 141.529 84.3047 143.695ZM100.07 141.586C100.07 142.138 99.9141 142.56 99.6016 142.852C99.2891 143.138 98.8438 143.333 98.2656 143.438V143.508C98.9896 143.607 99.5156 143.823 99.8438 144.156C100.177 144.484 100.344 144.927 100.344 145.484C100.344 146.297 100.044 146.919 99.4453 147.352C98.8516 147.784 97.9948 148 96.875 148H93.0156V139.422H96.8594C99 139.422 100.07 140.143 100.07 141.586ZM98.9375 145.406C98.9375 144.927 98.75 144.591 98.375 144.398C98 144.206 97.4505 144.109 96.7266 144.109H94.4219V146.867H96.7578C98.2109 146.867 98.9375 146.38 98.9375 145.406ZM98.6953 141.711C98.6953 141.31 98.5391 141.023 98.2266 140.852C97.9193 140.68 97.4531 140.594 96.8281 140.594H94.4219V142.945H96.5703C97.3359 142.945 97.8802 142.852 98.2031 142.664C98.5312 142.471 98.6953 142.154 98.6953 141.711ZM113.844 143.695C113.844 145.096 113.49 146.19 112.781 146.977C112.073 147.763 111.094 148.156 109.844 148.156C109.068 148.156 108.38 147.977 107.781 147.617C107.182 147.253 106.721 146.732 106.398 146.055C106.076 145.378 105.914 144.591 105.914 143.695C105.914 142.299 106.263 141.214 106.961 140.438C107.659 139.656 108.638 139.266 109.898 139.266C111.107 139.266 112.065 139.664 112.773 140.461C113.487 141.253 113.844 142.331 113.844 143.695ZM107.367 143.695C107.367 144.773 107.578 145.594 108 146.156C108.427 146.714 109.055 146.992 109.883 146.992C110.701 146.992 111.323 146.714 111.75 146.156C112.177 145.594 112.391 144.773 112.391 143.695C112.391 142.617 112.174 141.807 111.742 141.266C111.315 140.719 110.688 140.445 109.859 140.445C108.198 140.445 107.367 141.529 107.367 143.695ZM115.633 142.852C115.633 140.94 115.919 139.469 116.492 138.438C117.07 137.401 117.977 136.747 119.211 136.477C120.372 136.242 121.669 136.003 123.102 135.758L123.344 136.992L122.414 137.141C121.206 137.339 120.234 137.513 119.5 137.664C118.75 137.831 118.185 138.214 117.805 138.812C117.43 139.406 117.216 140.271 117.164 141.406H117.266C117.568 140.984 117.969 140.648 118.469 140.398C118.974 140.143 119.51 140.016 120.078 140.016C121.13 140.016 121.953 140.354 122.547 141.031C123.141 141.708 123.438 142.656 123.438 143.875C123.438 145.234 123.091 146.289 122.398 147.039C121.706 147.784 120.745 148.156 119.516 148.156C118.297 148.156 117.344 147.69 116.656 146.758C115.974 145.826 115.633 144.523 115.633 142.852ZM119.633 146.992C121.18 146.992 121.953 146 121.953 144.016C121.953 142.13 121.253 141.188 119.852 141.188C119.471 141.188 119.102 141.266 118.742 141.422C118.388 141.578 118.065 141.784 117.773 142.039C117.487 142.294 117.253 142.576 117.07 142.883C117.07 145.622 117.924 146.992 119.633 146.992ZM128.742 142.945H131.109C133.427 142.945 134.586 143.755 134.586 145.375C134.586 147.125 133.422 148 131.094 148H127.336V140.609H124.602V139.422H128.742V142.945ZM133.195 145.453C133.195 144.984 133.036 144.646 132.719 144.438C132.406 144.229 131.854 144.125 131.062 144.125H128.742V146.867H131.109C132.5 146.867 133.195 146.396 133.195 145.453ZM137.344 148H135.711L138.156 144.398C137.5 144.232 137.003 143.938 136.664 143.516C136.326 143.094 136.156 142.573 136.156 141.953C136.156 141.161 136.424 140.542 136.961 140.094C137.497 139.646 138.242 139.422 139.195 139.422H143.039V148H141.633V144.594H139.547L137.344 148ZM137.516 141.969C137.516 142.938 138.214 143.422 139.609 143.422H141.633V140.594H139.344C138.745 140.594 138.289 140.711 137.977 140.945C137.669 141.18 137.516 141.521 137.516 141.969ZM152.82 141.586C152.82 142.138 152.664 142.56 152.352 142.852C152.039 143.138 151.594 143.333 151.016 143.438V143.508C151.74 143.607 152.266 143.823 152.594 144.156C152.927 144.484 153.094 144.927 153.094 145.484C153.094 146.297 152.794 146.919 152.195 147.352C151.602 147.784 150.745 148 149.625 148H145.766V139.422H149.609C151.75 139.422 152.82 140.143 152.82 141.586ZM151.688 145.406C151.688 144.927 151.5 144.591 151.125 144.398C150.75 144.206 150.201 144.109 149.477 144.109H147.172V146.867H149.508C150.961 146.867 151.688 146.38 151.688 145.406ZM151.445 141.711C151.445 141.31 151.289 141.023 150.977 140.852C150.669 140.68 150.203 140.594 149.578 140.594H147.172V142.945H149.32C150.086 142.945 150.63 142.852 150.953 142.664C151.281 142.471 151.445 142.154 151.445 141.711ZM161.516 148H160.086V140.594H157.562C157.417 142.469 157.219 143.943 156.969 145.016C156.724 146.083 156.401 146.867 156 147.367C155.604 147.862 155.096 148.109 154.477 148.109C154.138 148.109 153.891 148.073 153.734 148V146.945C153.844 146.987 153.99 147.008 154.172 147.008C154.745 147.008 155.201 146.404 155.539 145.195C155.883 143.987 156.151 142.062 156.344 139.422H161.516V148ZM167.883 148.156C166.596 148.156 165.586 147.768 164.852 146.992C164.122 146.211 163.758 145.138 163.758 143.773C163.758 142.398 164.099 141.305 164.781 140.492C165.464 139.674 166.385 139.266 167.547 139.266C168.625 139.266 169.484 139.615 170.125 140.312C170.766 141.005 171.086 141.945 171.086 143.133V143.984H165.211C165.237 144.958 165.484 145.698 165.953 146.203C166.422 146.708 167.086 146.961 167.945 146.961C168.404 146.961 168.839 146.922 169.25 146.844C169.661 146.76 170.143 146.602 170.695 146.367V147.602C170.221 147.805 169.776 147.948 169.359 148.031C168.943 148.115 168.451 148.156 167.883 148.156ZM167.531 140.414C166.859 140.414 166.328 140.63 165.938 141.062C165.547 141.495 165.315 142.096 165.242 142.867H169.609C169.599 142.065 169.414 141.456 169.055 141.039C168.695 140.622 168.188 140.414 167.531 140.414ZM174.672 139.422V142.992H179.328V139.422H180.734V148H179.328V144.18H174.672V148H173.266V139.422H174.672ZM184.797 139.422V144.656L184.734 146.172L184.703 146.609L189.297 139.422H191.023V148H189.711V142.945L189.734 141.859L189.773 140.828L185.211 148H183.469V139.422H184.797ZM194.297 148H192.664L195.109 144.398C194.453 144.232 193.956 143.938 193.617 143.516C193.279 143.094 193.109 142.573 193.109 141.953C193.109 141.161 193.378 140.542 193.914 140.094C194.451 139.646 195.195 139.422 196.148 139.422H199.992V148H198.586V144.594H196.5L194.297 148ZM194.469 141.969C194.469 142.938 195.167 143.422 196.562 143.422H198.586V140.594H196.297C195.698 140.594 195.242 140.711 194.93 140.945C194.622 141.18 194.469 141.521 194.469 141.969ZM40.0547 160.961C41.6745 160.961 42.4844 160.523 42.4844 159.648C42.4844 158.836 41.8359 158.43 40.5391 158.43C40.1276 158.43 39.7448 158.469 39.3906 158.547C39.0365 158.625 38.612 158.768 38.1172 158.977L37.625 157.859C38.5156 157.464 39.513 157.266 40.6172 157.266C41.6224 157.266 42.4089 157.466 42.9766 157.867C43.5443 158.268 43.8281 158.82 43.8281 159.523C43.8281 160.497 43.2917 161.13 42.2188 161.422V161.484C42.8698 161.672 43.349 161.943 43.6562 162.297C43.9635 162.651 44.1172 163.096 44.1172 163.633C44.1172 164.419 43.7917 165.036 43.1406 165.484C42.4896 165.932 41.5938 166.156 40.4531 166.156C39.1927 166.156 38.2188 165.971 37.5312 165.602V164.336C38.4844 164.784 39.4531 165.008 40.4375 165.008C41.1719 165.008 41.737 164.885 42.1328 164.641C42.5286 164.396 42.7266 164.034 42.7266 163.555C42.7266 163.065 42.526 162.703 42.125 162.469C41.724 162.229 41.1094 162.109 40.2812 162.109H39.125V160.961H40.0547ZM51.5 166L51.2266 164.781H51.1641C50.737 165.318 50.3099 165.682 49.8828 165.875C49.4609 166.062 48.9271 166.156 48.2812 166.156C47.4375 166.156 46.776 165.935 46.2969 165.492C45.8177 165.049 45.5781 164.424 45.5781 163.617C45.5781 161.878 46.9505 160.966 49.6953 160.883L51.1484 160.828V160.32C51.1484 159.669 51.0078 159.19 50.7266 158.883C50.4453 158.57 49.9948 158.414 49.375 158.414C48.9219 158.414 48.4922 158.482 48.0859 158.617C47.6849 158.753 47.3073 158.904 46.9531 159.07L46.5234 158.016C46.9557 157.786 47.4271 157.607 47.9375 157.477C48.4479 157.346 48.9531 157.281 49.4531 157.281C50.4896 157.281 51.2604 157.51 51.7656 157.969C52.2708 158.427 52.5234 159.156 52.5234 160.156V166H51.5ZM48.6016 165.023C49.388 165.023 50.0052 164.812 50.4531 164.391C50.9062 163.964 51.1328 163.359 51.1328 162.578V161.805L49.8672 161.859C48.8828 161.896 48.1641 162.052 47.7109 162.328C47.263 162.604 47.0391 163.039 47.0391 163.633C47.0391 164.081 47.1745 164.424 47.4453 164.664C47.7214 164.904 48.1068 165.023 48.6016 165.023ZM60.75 166H59.3438V157.422H66.5938V166H65.1875V158.625H60.75V166ZM74.625 166L74.3516 164.781H74.2891C73.862 165.318 73.4349 165.682 73.0078 165.875C72.5859 166.062 72.0521 166.156 71.4062 166.156C70.5625 166.156 69.901 165.935 69.4219 165.492C68.9427 165.049 68.7031 164.424 68.7031 163.617C68.7031 161.878 70.0755 160.966 72.8203 160.883L74.2734 160.828V160.32C74.2734 159.669 74.1328 159.19 73.8516 158.883C73.5703 158.57 73.1198 158.414 72.5 158.414C72.0469 158.414 71.6172 158.482 71.2109 158.617C70.8099 158.753 70.4323 158.904 70.0781 159.07L69.6484 158.016C70.0807 157.786 70.5521 157.607 71.0625 157.477C71.5729 157.346 72.0781 157.281 72.5781 157.281C73.6146 157.281 74.3854 157.51 74.8906 157.969C75.3958 158.427 75.6484 159.156 75.6484 160.156V166H74.625ZM71.7266 165.023C72.513 165.023 73.1302 164.812 73.5781 164.391C74.0312 163.964 74.2578 163.359 74.2578 162.578V161.805L72.9922 161.859C72.0078 161.896 71.2891 162.052 70.8359 162.328C70.388 162.604 70.1641 163.039 70.1641 163.633C70.1641 164.081 70.2995 164.424 70.5703 164.664C70.8464 164.904 71.2318 165.023 71.7266 165.023ZM82.375 166.156C81.224 166.156 80.3385 165.742 79.7188 164.914H79.625L79.6562 165.234C79.6979 165.641 79.7188 166.003 79.7188 166.32V169.844H78.3125V157.422H79.4688L79.6562 158.594H79.7188C80.0521 158.125 80.4375 157.786 80.875 157.578C81.3125 157.37 81.8177 157.266 82.3906 157.266C83.5052 157.266 84.3698 157.654 84.9844 158.43C85.6042 159.201 85.9141 160.289 85.9141 161.695C85.9141 163.096 85.6042 164.19 84.9844 164.977C84.3646 165.763 83.4948 166.156 82.375 166.156ZM82.1406 158.445C81.2917 158.445 80.6771 158.685 80.2969 159.164C79.9219 159.643 79.7292 160.396 79.7188 161.422V161.695C79.7188 162.857 79.9115 163.698 80.2969 164.219C80.6823 164.734 81.3073 164.992 82.1719 164.992C82.8906 164.992 83.4505 164.701 83.8516 164.117C84.2578 163.534 84.4609 162.721 84.4609 161.68C84.4609 160.633 84.2578 159.833 83.8516 159.281C83.4505 158.724 82.8802 158.445 82.1406 158.445ZM86.7344 157.422H88.2422L90.0938 162.305C90.4844 163.367 90.724 164.146 90.8125 164.641H90.875C90.9219 164.448 91.0286 164.089 91.1953 163.562C91.362 163.031 91.5026 162.607 91.6172 162.289L93.3594 157.422H94.875L91.1797 167.188C90.8203 168.135 90.3932 168.815 89.8984 169.227C89.4036 169.638 88.7917 169.844 88.0625 169.844C87.6719 169.844 87.2839 169.799 86.8984 169.711V168.594C87.1589 168.656 87.4714 168.688 87.8359 168.688C88.2839 168.688 88.6641 168.562 88.9766 168.312C89.2891 168.068 89.5443 167.688 89.7422 167.172L90.1875 166.031L86.7344 157.422ZM105.461 157.422H107L103.336 161.555L107.305 166H105.672L101.797 161.648V166H100.391V157.422H101.797V161.586L105.461 157.422ZM115.391 166H113.961V158.594H111.438C111.292 160.469 111.094 161.943 110.844 163.016C110.599 164.083 110.276 164.867 109.875 165.367C109.479 165.862 108.971 166.109 108.352 166.109C108.013 166.109 107.766 166.073 107.609 166V164.945C107.719 164.987 107.865 165.008 108.047 165.008C108.62 165.008 109.076 164.404 109.414 163.195C109.758 161.987 110.026 160.062 110.219 157.422H115.391V166ZM119.438 157.422V162.656L119.375 164.172L119.344 164.609L123.938 157.422H125.664V166H124.352V160.945L124.375 159.859L124.414 158.828L119.852 166H118.109V157.422H119.438ZM133.477 157.422H135.016L131.352 161.555L135.32 166H133.688L129.812 161.648V166H128.406V157.422H129.812V161.586L133.477 157.422ZM144.172 161.695C144.172 163.096 143.818 164.19 143.109 164.977C142.401 165.763 141.422 166.156 140.172 166.156C139.396 166.156 138.708 165.977 138.109 165.617C137.51 165.253 137.049 164.732 136.727 164.055C136.404 163.378 136.242 162.591 136.242 161.695C136.242 160.299 136.591 159.214 137.289 158.438C137.987 157.656 138.966 157.266 140.227 157.266C141.435 157.266 142.393 157.664 143.102 158.461C143.815 159.253 144.172 160.331 144.172 161.695ZM137.695 161.695C137.695 162.773 137.906 163.594 138.328 164.156C138.755 164.714 139.383 164.992 140.211 164.992C141.029 164.992 141.651 164.714 142.078 164.156C142.505 163.594 142.719 162.773 142.719 161.695C142.719 160.617 142.503 159.807 142.07 159.266C141.643 158.719 141.016 158.445 140.188 158.445C138.526 158.445 137.695 159.529 137.695 161.695ZM153.461 159.586C153.461 160.138 153.305 160.56 152.992 160.852C152.68 161.138 152.234 161.333 151.656 161.438V161.508C152.38 161.607 152.906 161.823 153.234 162.156C153.568 162.484 153.734 162.927 153.734 163.484C153.734 164.297 153.435 164.919 152.836 165.352C152.242 165.784 151.385 166 150.266 166H146.406V157.422H150.25C152.391 157.422 153.461 158.143 153.461 159.586ZM152.328 163.406C152.328 162.927 152.141 162.591 151.766 162.398C151.391 162.206 150.841 162.109 150.117 162.109H147.812V164.867H150.148C151.602 164.867 152.328 164.38 152.328 163.406ZM152.086 159.711C152.086 159.31 151.93 159.023 151.617 158.852C151.31 158.68 150.844 158.594 150.219 158.594H147.812V160.945H149.961C150.727 160.945 151.271 160.852 151.594 160.664C151.922 160.471 152.086 160.154 152.086 159.711Z" fill="#323232"/>
<mask id="mask0_522_6196" style="mask-type:alpha" maskUnits="userSpaceOnUse" x="208" y="0" width="208" height="200">
<rect x="208" width="208" height="200" rx="4" fill="#FFC8C8"/>
</mask>
<g mask="url(#mask0_522_6196)">
<path fill-rule="evenodd" clip-rule="evenodd" d="M170.594 225.558C170.166 225.469 169.763 225.311 169.327 225.292C169.145 225.284 168.966 225.258 168.789 225.218C168.284 225.105 167.769 225.021 167.255 225.076C166.143 225.193 165.026 225.264 163.932 225.527C163.599 225.607 163.258 225.619 162.945 225.797C162.68 225.947 162.389 226.077 162.093 226.144C161.012 226.385 160.091 226.971 159.207 227.571C156.651 229.306 154.776 231.613 153.752 234.553C153.411 235.531 153.104 236.525 152.985 237.569C152.804 239.149 152.877 240.715 153.115 242.281C153.165 242.604 152.875 242.898 152.549 242.888C152.152 242.875 151.793 242.744 151.433 242.671C149.628 242.308 147.824 242.406 146.035 242.712C144.664 242.947 143.372 243.473 142.139 244.122C141.595 244.408 141.037 244.682 140.539 245.037C138.566 246.442 136.94 248.169 135.79 250.319C135.74 250.411 135.682 250.499 135.621 250.585C135.437 250.842 135.375 251.158 135.307 251.466C135.272 251.626 135.209 251.775 135.119 251.919C134.962 252.172 134.611 252.212 134.408 251.995C134.177 251.749 134.033 251.456 133.916 251.142C133.915 251.141 133.917 251.139 133.918 251.139C133.921 251.139 133.922 251.136 133.92 251.134C133.828 251.078 133.735 251.024 133.643 250.968C133.185 250.619 132.745 250.239 132.262 249.927C131.35 249.338 130.36 248.914 129.304 248.644C128.87 248.533 128.672 248.016 128.776 247.58C128.84 247.313 128.903 247.058 128.977 246.805C129.449 245.177 129.441 243.515 129.144 241.881C128.77 239.822 127.737 238.056 126.294 236.552C125.52 235.745 124.645 235.028 123.631 234.538C122.555 234.017 121.428 233.639 120.229 233.461C118.913 233.266 117.622 233.232 116.339 233.636C115.75 233.822 115.146 233.96 114.558 234.147C114.23 234.251 113.908 234.389 113.603 234.548C112.148 235.311 110.914 236.331 109.938 237.665C109.924 237.684 109.911 237.703 109.897 237.723C109.489 238.303 108.729 238.208 108.203 237.731C106.565 236.234 104.594 235.563 102.422 235.363C101.528 235.281 100.665 235.436 99.7841 235.547C98.6341 235.693 98.1597 236.898 98.4717 238.014C101.475 248.76 104.479 259.506 107.483 270.255C108.078 272.383 110.292 273.622 112.423 273.04C217.503 244.308 319.158 242.299 424.238 213.567C426.369 212.985 427.812 210.73 427.766 208.522C427.57 199.153 428.911 177.787 428.289 171.735C428.223 171.091 427.573 170.605 427.025 170.261C425.799 169.494 424.46 168.993 423.063 168.697C422.05 168.482 421.001 168.377 419.965 168.354C419.086 168.334 418.192 168.445 417.323 168.602C416.53 168.745 415.735 168.962 414.991 169.269C414.141 169.62 413.349 170.112 412.525 170.53C412.201 170.694 411.785 170.585 411.576 170.289C411.441 170.097 411.337 169.884 411.214 169.683C409.253 166.488 406.401 164.889 402.641 164.941C402.258 164.945 401.866 164.958 401.493 165.037C400.007 165.35 398.601 165.857 397.372 166.786C396.9 167.143 396.223 167.024 395.76 166.655C394.186 165.402 392.512 164.431 390.607 163.832C388.139 163.055 385.669 163.136 383.179 163.646C382.492 163.787 381.889 164.146 381.244 164.392C379.887 164.908 378.729 165.715 377.621 166.627C376.381 167.646 375.441 168.907 374.567 170.231C374.361 170.543 373.897 170.542 373.597 170.32C373.022 169.896 372.479 169.477 371.878 169.18C371.134 168.812 370.308 168.609 369.516 168.358C369.365 168.31 369.201 168.23 369.149 168.081C368.616 166.522 367.538 165.37 366.293 164.373C365.788 163.969 365.196 163.602 364.584 163.419C362.374 162.755 360.242 162.831 358.342 164.357C358.022 164.613 357.534 164.388 357.354 164.02C356.991 163.278 356.639 162.562 356.309 161.837C355.784 160.681 355.304 159.506 354.784 158.348C353.998 156.593 353.2 154.843 352.399 153.095C351.87 151.941 351.322 150.797 350.794 149.642C350.298 148.557 349.818 147.465 349.332 146.377C348.955 145.535 348.58 144.692 348.201 143.851C347.522 142.343 346.835 140.837 346.159 139.328C345.624 138.134 345.111 136.931 344.567 135.742C343.866 134.201 343.133 132.675 342.436 131.133C341.897 129.941 341.401 128.729 340.871 127.534C340.388 126.443 339.896 125.356 339.405 124.269C339.226 123.873 338.643 123.912 338.528 124.332C337.603 127.682 336.684 131.034 335.752 134.382C335.706 134.545 335.684 134.723 335.622 134.891C335.51 135.194 335.101 135.169 334.9 134.916C333.166 132.737 331.248 130.725 329.32 128.721C329.294 128.694 329.267 128.667 329.241 128.639C328.75 128.139 328.04 128.337 328.105 129.034C328.262 130.72 328.416 132.407 328.567 134.093C328.678 135.32 328.776 136.549 328.889 137.775C329.12 140.305 329.358 142.833 329.591 145.364C329.714 146.705 329.829 148.048 329.955 149.39C330.181 151.804 330.418 154.218 330.639 156.632C330.727 157.591 330.771 158.554 330.859 159.512C331.047 161.544 331.252 163.573 331.449 165.603C331.556 166.714 331.706 167.824 331.75 168.938C331.765 169.307 331.838 169.679 331.868 170.059C331.921 170.744 331.306 171.19 330.623 171.264C329.859 171.347 329.072 171.352 328.339 171.553C327.607 171.755 326.907 172.116 326.233 172.48C324.599 173.363 323.355 174.652 322.423 176.256C322.01 176.966 321.725 177.717 321.551 178.513C321.421 179.11 321.075 179.767 321.141 180.374C321.152 180.472 321.161 180.571 321.17 180.669C321.219 181.228 321.246 181.787 321.282 182.347C321.347 182.685 321.409 183.024 321.477 183.361C321.523 183.585 321.541 183.825 321.636 184.027C321.999 184.792 322.39 185.541 322.763 186.3C322.862 186.502 322.69 186.742 322.483 186.829C322.355 186.883 322.227 186.933 322.096 186.972C321.168 187.24 320.234 187.49 319.305 187.755C319.008 187.839 318.701 187.914 318.427 188.05C316.825 188.839 315.337 189.791 314.13 191.132C313.846 191.447 313.547 191.75 313.261 192.064C312.948 192.408 312.617 192.532 312.13 192.372C311.141 192.047 310.129 191.791 309.079 191.734C307.609 191.653 306.156 191.697 304.718 192.071C302.927 192.537 301.339 193.395 299.919 194.541C299.143 195.167 298.374 195.866 297.814 196.678C297.074 197.751 296.544 198.969 295.921 200.124C295.754 200.43 295.359 200.536 295.044 200.387C294.9 200.318 294.762 200.25 294.629 200.176C293.371 199.47 292.035 198.994 290.622 198.715C289.022 198.4 287.425 198.283 285.79 198.48C284.354 198.653 282.98 199.039 281.658 199.556C280.292 200.09 279.045 200.892 277.93 201.858C277.024 202.641 276.135 203.469 275.503 204.488C274.487 206.125 273.456 207.772 273.097 209.719C273.006 210.212 272.899 210.701 272.812 211.194C272.692 211.887 272.022 212.338 271.343 212.155C271.072 212.082 270.806 212.011 270.539 211.941C267.645 211.179 264.974 211.731 262.449 213.266C261.264 213.987 260.397 215.01 259.552 216.069C259.312 216.371 258.853 216.382 258.561 216.13C258.395 215.986 258.237 215.848 258.082 215.706C257.33 215.015 256.442 214.516 255.513 214.16C253.481 213.382 251.393 213.24 249.264 213.825C248.507 214.033 247.809 214.356 247.139 214.724C245.977 215.362 244.958 216.227 244.205 217.307C243.436 218.409 242.74 219.587 242.503 220.955C242.417 221.447 242.349 221.943 242.294 222.44C242.2 223.271 241.58 223.792 240.748 223.865C240.37 223.898 239.993 223.942 239.623 224.021C239.027 224.147 238.446 224.347 237.842 224.555C237.351 224.725 236.808 224.577 236.469 224.185C235.479 223.04 234.25 222.256 232.79 221.892C230.831 221.403 228.932 221.619 227.245 222.763C226.29 223.41 225.46 224.238 224.833 225.239C224.581 225.642 224.009 225.703 223.59 225.477C223.365 225.356 223.15 225.236 222.939 225.107C221.948 224.501 220.838 224.346 219.718 224.288C218.375 224.219 217.146 224.742 215.893 225.127C215.821 225.149 215.756 225.198 215.689 225.234C214.44 225.919 213.474 226.914 212.708 228.09C211.86 229.388 211.564 230.864 211.572 232.398C211.575 232.917 211.633 233.436 211.677 233.955C211.689 234.09 211.549 234.292 211.449 234.199C210.71 233.509 209.854 232.988 208.998 232.462C207.569 231.585 206.035 230.961 204.391 230.657C202.278 230.267 200.167 230.389 198.069 230.809C197.843 230.854 197.606 230.905 197.406 231.012C196.352 231.571 195.166 231.855 194.18 232.56C194.081 232.631 193.972 232.69 193.856 232.745C193.552 232.888 193.162 232.777 193.011 232.477C192.357 231.188 191.505 230.068 190.375 229.146C189.768 228.652 189.115 228.249 188.429 227.898C186.353 226.836 184.162 226.647 181.9 227.13C180.636 227.399 179.505 227.97 178.445 228.699C178.326 228.781 178.205 228.86 178.081 228.938C177.711 229.172 177.227 229.147 176.887 228.871C176.468 228.53 176.085 228.134 175.629 227.855C174.046 226.887 172.441 225.959 170.594 225.558Z" fill="#F2F2F2"/>
<path fill-rule="evenodd" clip-rule="evenodd" d="M338.913 122.977C338.888 123.076 338.902 123.16 338.944 123.253C339.587 124.678 340.235 126.102 340.868 127.532C341.398 128.728 341.894 129.939 342.433 131.131C343.13 132.673 343.864 134.199 344.565 135.74C345.107 136.93 345.621 138.133 346.156 139.326C346.832 140.835 347.519 142.341 348.199 143.849C348.578 144.69 348.952 145.533 349.329 146.375C349.816 147.464 350.295 148.556 350.791 149.64C351.319 150.795 351.867 151.94 352.396 153.094C353.198 154.842 353.996 156.591 354.782 158.346C355.301 159.505 355.782 160.68 356.306 161.836C356.636 162.561 356.989 163.276 357.351 164.018C357.531 164.387 358.019 164.612 358.339 164.355C360.24 162.829 362.371 162.753 364.581 163.417C365.193 163.601 365.785 163.968 366.29 164.371C367.535 165.369 368.613 166.52 369.146 168.079C369.198 168.229 369.362 168.309 369.513 168.356C370.306 168.607 371.131 168.811 371.875 169.178C372.477 169.475 373.019 169.894 373.594 170.318C373.894 170.54 374.359 170.541 374.564 170.23C375.438 168.905 376.378 167.645 377.618 166.625C378.727 165.713 379.883 164.907 381.241 164.39C381.886 164.145 382.489 163.785 383.177 163.644C385.667 163.134 388.137 163.053 390.604 163.83C392.509 164.429 394.184 165.4 395.757 166.653C396.22 167.022 396.898 167.141 397.37 166.784C398.598 165.855 400.005 165.348 401.49 165.035C401.863 164.957 402.255 164.944 402.639 164.939C406.398 164.887 409.25 166.486 411.211 169.681C411.334 169.882 411.439 170.095 411.573 170.287C411.782 170.584 412.199 170.693 412.523 170.528C413.347 170.111 414.139 169.619 414.988 169.267C415.732 168.96 416.527 168.743 417.32 168.6C418.189 168.443 419.083 168.332 419.962 168.353C420.998 168.375 422.048 168.481 423.06 168.695C424.457 168.992 425.797 169.493 427.023 170.26C427.561 170.597 427.956 170.082 427.785 169.47C426.727 165.685 425.669 161.899 424.611 158.114C424.126 156.379 422.536 155.14 420.743 155.316C420.337 155.355 419.932 155.405 419.528 155.467C419.148 155.526 418.747 155.586 418.41 155.755C417.31 156.309 416.103 156.63 415.055 157.304C414.934 157.382 414.786 157.42 414.642 157.449C414.457 157.487 414.2 157.492 414.117 157.322C412.447 153.886 409.642 152.096 405.898 151.78C403.747 151.599 401.782 152.252 400.021 153.499C399.832 153.633 399.666 153.798 399.477 153.932C399.226 154.11 398.974 154.088 398.73 153.902C398.119 153.432 397.493 152.981 396.896 152.494C395.701 151.52 394.285 150.998 392.84 150.589C391.199 150.123 389.507 149.931 387.795 150.146C387.031 150.243 386.271 150.368 385.511 150.483C385.434 150.495 385.356 150.513 385.288 150.546C383.904 151.215 382.419 151.666 381.158 152.599C378.318 154.699 376.396 157.403 375.573 160.859C375.465 161.312 375.04 161.645 374.741 161.287C373.905 160.284 372.824 159.609 371.669 159.058C370.378 158.441 369.015 158.281 367.607 158.589C367.545 158.603 367.484 158.615 367.422 158.627C367.114 158.686 366.757 158.646 366.546 158.414C365.696 157.477 364.616 156.857 363.494 156.347C362.132 155.728 360.68 155.547 359.198 155.899C359.086 155.925 358.973 155.953 358.862 155.982C358.131 156.172 357.28 156.151 356.967 155.464C356.459 154.342 355.98 153.207 355.486 152.079C355.253 151.55 355.011 151.026 354.776 150.498C353.927 148.601 353.091 146.698 352.228 144.808C351.509 143.232 350.749 141.674 350.028 140.099C349.516 138.98 349.049 137.839 348.544 136.716C348.008 135.522 347.44 134.342 346.904 133.149C346.368 131.955 345.864 130.745 345.328 129.553C344.65 128.042 343.954 126.54 343.264 125.035C343.053 124.575 342.841 124.115 342.629 123.655C342.435 123.235 342.015 123.271 341.959 123.731C341.921 124.04 341.566 124.168 341.314 123.985C340.723 123.556 340.18 123.088 339.553 122.689C339.306 122.532 338.984 122.694 338.913 122.977Z" fill="#D7EEEE"/>
<path fill-rule="evenodd" clip-rule="evenodd" d="M170.411 224.69C170.181 224.971 170.233 225.481 170.588 225.558C172.435 225.959 174.041 226.887 175.624 227.855C176.08 228.134 176.463 228.531 176.882 228.871C177.221 229.148 177.706 229.173 178.076 228.938C178.2 228.86 178.321 228.781 178.44 228.699C179.5 227.97 180.631 227.399 181.895 227.13C184.157 226.648 186.347 226.837 188.424 227.899C189.11 228.25 189.763 228.652 190.37 229.147C191.5 230.068 192.352 231.188 193.006 232.477C193.157 232.777 193.547 232.888 193.851 232.745C193.967 232.69 194.075 232.632 194.175 232.56C195.161 231.855 196.347 231.572 197.401 231.012C197.601 230.905 197.838 230.854 198.064 230.809C200.162 230.389 202.273 230.267 204.385 230.658C206.03 230.962 207.563 231.586 208.992 232.462C209.849 232.988 210.705 233.508 211.444 234.2C211.543 234.292 211.684 234.091 211.672 233.955C211.628 233.435 211.57 232.917 211.567 232.399C211.559 230.864 211.854 229.389 212.702 228.09C213.469 226.915 214.435 225.919 215.684 225.234C215.751 225.198 215.816 225.149 215.888 225.127C217.14 224.742 218.37 224.219 219.713 224.288C220.833 224.346 221.942 224.502 222.934 225.108C223.145 225.236 223.36 225.356 223.585 225.477C224.003 225.703 224.576 225.642 224.828 225.239C225.455 224.239 226.284 223.411 227.24 222.763C228.927 221.62 230.825 221.404 232.785 221.893C234.245 222.256 235.474 223.04 236.463 224.185C236.803 224.578 237.346 224.725 237.836 224.556C238.441 224.348 239.022 224.147 239.618 224.021C239.988 223.943 240.365 223.898 240.742 223.865C241.575 223.793 242.194 223.271 242.289 222.44C242.344 221.944 242.413 221.447 242.497 220.955C242.736 219.587 243.431 218.409 244.2 217.307C244.953 216.228 245.972 215.362 247.134 214.724C247.803 214.356 248.502 214.034 249.259 213.825C251.388 213.24 253.476 213.383 255.507 214.16C256.437 214.516 257.325 215.015 258.077 215.706C258.232 215.848 258.39 215.987 258.556 216.13C258.848 216.383 259.306 216.371 259.547 216.069C260.392 215.01 261.259 213.987 262.443 213.267C264.969 211.731 267.64 211.179 270.534 211.941C270.8 212.011 271.066 212.082 271.338 212.156C272.016 212.338 272.687 211.887 272.807 211.195C272.894 210.702 273.001 210.212 273.091 209.72C273.451 207.773 274.483 206.126 275.498 204.488C276.13 203.47 277.019 202.641 277.925 201.858C279.04 200.892 280.287 200.089 281.652 199.556C282.975 199.039 284.349 198.653 285.785 198.481C287.42 198.283 289.017 198.4 290.617 198.716C292.03 198.994 293.367 199.471 294.623 200.176C294.757 200.251 294.894 200.319 295.038 200.387C295.354 200.537 295.749 200.431 295.915 200.124C296.539 198.969 297.069 197.752 297.808 196.678C298.369 195.866 299.138 195.168 299.913 194.541C301.334 193.396 302.922 192.538 304.712 192.071C306.152 191.697 307.605 191.653 309.074 191.734C310.124 191.792 311.136 192.047 312.124 192.372C312.612 192.532 312.943 192.408 313.256 192.065C313.542 191.751 313.84 191.448 314.124 191.132C315.332 189.791 316.82 188.839 318.421 188.05C318.696 187.915 319.002 187.84 319.299 187.755C320.228 187.491 321.162 187.241 322.09 186.972C322.222 186.934 322.349 186.883 322.478 186.829C322.685 186.742 322.857 186.502 322.757 186.301C322.385 185.541 321.993 184.792 321.631 184.028C321.535 183.826 321.517 183.585 321.472 183.361C321.442 183.213 321.413 183.064 321.385 182.915C321.327 182.609 321.032 182.488 320.721 182.494C320.286 182.501 319.877 182.553 319.516 182.823C319.426 182.889 319.307 182.928 319.195 182.951C317.998 183.202 316.975 183.837 315.965 184.472C315.314 184.882 314.775 184.858 314.158 184.428C312.345 183.167 310.321 182.487 308.118 182.348C306.57 182.251 305.011 182.288 303.54 182.795C300.784 183.745 298.39 185.241 296.742 187.738C296.608 187.94 296.301 187.966 296.102 187.829C296.039 187.786 295.981 187.74 295.931 187.685C294.222 185.812 292.095 184.551 289.742 183.741C287.765 183.06 285.681 182.795 283.573 183.065C282.811 183.163 282.046 183.217 281.296 183.442C277.972 184.436 275.164 186.226 273.137 189.035C271.222 191.689 270.152 194.688 270.281 198.03C270.292 198.307 270.301 198.584 270.308 198.864C270.331 199.669 269.633 200.285 268.831 200.211C267.513 200.087 266.191 200.167 264.945 200.581C263.854 200.944 262.819 201.49 261.905 202.222C261.754 202.343 261.608 202.469 261.46 202.593C261.128 202.87 260.771 202.92 260.386 202.711C260.216 202.619 260.049 202.52 259.874 202.44C257.691 201.444 255.435 201.392 253.218 202.18C251.359 202.842 249.904 204.123 248.786 205.762C248.539 206.123 248.023 206.311 247.665 206.06C247.652 206.051 247.641 206.042 247.629 206.033C245.408 204.322 242.865 203.579 240.129 203.946C236.838 204.388 234.15 205.946 232.483 208.957C232.054 209.73 231.612 210.484 231.385 211.37C231.113 212.43 230.98 213.485 231.003 214.57C231.004 214.613 231.004 214.655 231.003 214.698C231 215.124 230.523 215.476 230.161 215.251C228.942 214.5 227.578 214.202 226.191 214.091C224.548 213.959 222.978 214.298 221.532 215.154C220.561 215.73 219.654 216.365 218.954 217.265C218.788 217.478 218.594 217.67 218.432 217.886C218.185 218.214 217.902 218.257 217.518 218.12C216.829 217.874 216.137 217.605 215.423 217.477C214.354 217.285 213.28 217.309 212.22 217.665C211.234 217.997 210.209 218.187 209.358 218.866C208.13 219.846 207.097 220.957 206.55 222.463C206.535 222.505 206.517 222.547 206.498 222.588C206.334 222.949 205.868 223.058 205.524 222.863C204.517 222.29 203.51 221.714 202.499 221.147C202.299 221.034 202.085 220.935 201.866 220.865C199.711 220.166 197.503 219.821 195.246 220.088C194.334 220.196 193.45 220.536 192.552 220.766C191.689 220.986 190.848 221.261 190.074 221.715C189.742 221.909 189.408 222.103 189.08 222.306C188.46 222.689 187.687 222.726 187.074 222.329C186.462 221.932 185.86 221.533 185.167 221.279C184.109 220.89 183.05 220.543 181.939 220.388C180.79 220.226 179.634 220.188 178.479 220.371C177.379 220.545 176.299 220.684 175.258 221.205C174.255 221.707 173.265 222.189 172.356 222.858C171.626 223.395 170.976 223.998 170.411 224.69Z" fill="#D7EEEE"/>
<path fill-rule="evenodd" clip-rule="evenodd" d="M338.426 94.9175C338.343 96.2091 338.314 97.5049 338.23 98.7756C338.171 99.6786 337.706 100.437 336.845 100.716C336.787 100.735 336.731 100.756 336.675 100.78C333.992 101.521 331.308 102.264 328.625 103.005C328.31 103.092 327.928 102.948 327.858 102.629C327.352 100.332 326.895 98.0235 326.347 95.7364C325.664 92.8865 324.91 90.0527 324.182 87.2136C323.893 86.0829 323.427 85.0201 322.765 84.0637C322.419 83.5634 321.985 83.1065 321.52 82.7138C321.092 82.3522 320.576 82.1056 319.983 82.3245C319.94 82.3403 319.894 82.3478 319.848 82.3432C319.737 82.3319 319.644 82.2533 319.614 82.1455C317.701 75.2914 315.788 68.4373 313.874 61.5834C313.555 60.4397 314.177 59.3182 315.233 58.7756C320.442 56.1035 321.767 50.5675 320.577 46.5497C319.475 42.822 315.988 39.2858 311.001 39.0648C309.117 38.9816 307.279 38.0291 306.769 36.213C306.289 34.5061 305.81 32.799 305.33 31.092C305.156 30.4714 305.501 29.8066 306.122 29.6321C309.285 28.745 312.45 27.8627 315.613 26.9751C316.365 26.7649 317.173 26.9462 317.705 27.5184C320.496 30.525 322.981 33.7738 325.214 37.2212C326.641 39.4258 327.993 41.6779 329.106 44.0569C329.971 45.9043 330.809 47.7627 331.539 49.677C332.902 53.2531 333.707 56.9813 334.772 60.6373C334.865 60.9571 334.914 61.2875 334.954 61.6181C335.133 63.1008 335.779 64.4934 335.857 65.9957C335.865 66.1485 335.914 66.2998 335.953 66.4489C336.342 67.944 336.511 69.4782 336.787 70.9933C337.222 73.3846 337.48 75.7971 337.79 78.2046C337.82 78.4331 337.88 78.6561 337.876 78.8865C337.873 79.0396 337.873 79.1925 337.884 79.3444C338.022 81.1876 338.188 83.0277 338.306 84.8719C338.518 88.2187 338.504 91.568 338.426 94.9175Z" fill="#F0F0F0"/>
<path fill-rule="evenodd" clip-rule="evenodd" d="M312.56 59.7341C312.986 59.6486 313.407 59.905 313.523 60.3232C315.353 66.8754 317.182 73.4276 319.01 79.9798C319.391 81.344 318.603 82.8677 318.345 84.2603C318.254 84.7498 318.214 85.2556 318.211 85.754C318.203 87.0778 318.471 88.3611 318.848 89.6247C320.228 94.2506 321.654 98.8602 323.33 103.389C323.528 103.927 323.171 104.514 322.619 104.668C320.416 105.284 318.213 105.898 316.012 106.521C315.661 106.62 315.32 106.753 314.975 106.877C314.877 106.913 314.776 106.939 314.673 106.958C314.579 106.976 314.484 106.993 314.388 107.011C313.849 107.11 313.258 106.951 312.938 106.507C312.287 105.603 311.65 104.689 311.008 103.779C310.632 103.247 310.214 102.469 309.841 101.936C309.819 101.905 309.798 101.874 309.778 101.842C307.619 98.4364 305.612 94.9468 303.822 91.3329C303.346 90.3708 302.843 89.4218 302.353 88.4666C301.789 87.2001 301.222 85.9352 300.662 84.667C300.381 84.0325 300.103 83.3962 299.846 82.7526C299.475 81.8221 299.127 80.8822 298.763 79.9483C298.288 78.7279 297.809 77.5097 297.331 76.2893C297.303 76.2175 297.271 76.1474 297.247 76.074C296.698 74.4282 296.111 72.7929 295.609 71.1319C294.919 68.8385 294.299 66.5241 293.639 64.2215C293.085 62.2894 292.756 60.3152 292.434 58.3336C292.161 56.6538 292.008 54.9665 291.881 53.2765C291.682 50.619 291.658 47.9576 291.803 45.2931C291.96 42.3991 292.216 39.5181 292.711 36.6591C292.882 35.6698 292.986 34.6691 293.252 33.7C293.347 33.3526 293.642 33.1151 293.989 33.0181C297.45 32.053 300.911 31.0863 304.37 30.1159C304.564 30.0615 304.751 29.9832 304.941 29.9119C304.979 29.8975 305.02 29.9273 305.018 29.9683C305.017 29.9745 305.018 29.9807 305.02 29.9867C305.718 32.4726 306.417 34.9583 307.115 37.4439C307.437 38.5875 306.829 39.7262 305.769 40.2631C301.964 42.1931 299.641 46.4289 300.284 50.852C301.043 56.0648 304.898 59.0063 308.717 59.7048C309.865 59.9148 311.017 59.8944 312.171 59.782C312.3 59.7658 312.43 59.7499 312.56 59.7341Z" fill="#FEFEFE"/>
<path fill-rule="evenodd" clip-rule="evenodd" d="M320.404 178.671C320.677 179.145 321.391 179.175 321.519 178.643C321.529 178.6 321.539 178.556 321.548 178.512C321.723 177.716 322.007 176.964 322.42 176.255C323.351 174.651 324.596 173.362 326.23 172.479C326.904 172.115 327.603 171.754 328.336 171.552C329.069 171.351 329.856 171.346 330.62 171.263C331.302 171.189 331.918 170.743 331.864 170.058C331.835 169.678 331.762 169.306 331.747 168.937C331.703 167.823 331.553 166.713 331.446 165.602C331.249 163.572 331.044 161.542 330.856 159.511C330.767 158.553 330.723 157.59 330.636 156.631C330.415 154.217 330.178 151.803 329.952 149.389C329.826 148.047 329.711 146.704 329.588 145.363C329.355 142.832 329.117 140.304 328.885 137.774C328.773 136.548 328.674 135.319 328.564 134.093C328.413 132.406 328.259 130.719 328.102 129.033C328.093 128.939 328.083 128.844 328.075 128.749C328.022 128.1 327.931 127.359 327.48 126.888C326.511 125.875 324.81 126.653 324.941 128.049C325.028 128.974 325.114 129.899 325.197 130.824C325.355 132.586 325.478 134.351 325.639 136.114C325.823 138.144 326.039 140.17 326.225 142.199C326.389 144 326.522 145.803 326.686 147.604C326.872 149.633 327.081 151.66 327.269 153.69C327.375 154.838 327.453 155.99 327.555 157.139C327.712 158.9 327.882 160.662 328.04 162.423C328.062 162.659 328.078 162.896 328.094 163.138C328.125 163.631 327.869 164.147 327.397 164.294C326.845 164.466 326.284 164.609 325.726 164.766C323.951 165.264 322.584 166.363 321.408 167.73C319.791 169.609 319.231 171.854 319.21 174.272C319.197 175.846 319.625 177.311 320.404 178.671Z" fill="#D7EEEE"/>
<path fill-rule="evenodd" clip-rule="evenodd" d="M292.437 101.726C292.472 102 292.183 102.244 291.909 102.272C291.89 102.274 291.871 102.275 291.852 102.275C281.081 102.392 270.309 102.503 259.538 102.61C259.308 102.612 259.162 102.339 259.188 102.11C259.253 101.53 259.587 101.046 259.912 100.602C260.315 100.05 260.825 99.5375 261.387 99.1537C261.95 98.7699 262.615 98.4836 263.276 98.3062C263.681 98.198 264.106 98.161 264.553 98.1305C265.087 98.0938 265.585 97.7839 265.78 97.2852C266.232 96.1314 266.949 95.1811 268.044 94.5948C269.753 93.6794 271.499 93.5861 273.231 94.5669C273.395 94.6595 273.554 94.76 273.718 94.8672C274.039 95.0764 274.479 95.0533 274.732 94.7655C275.293 94.1252 275.887 93.5443 276.65 93.1172C279.592 91.4691 283.593 92.7411 284.889 96.1604C284.965 96.361 285.037 96.5628 285.112 96.7728C285.248 97.1555 285.622 97.5023 286.014 97.397C287.662 96.9575 289.158 97.2892 290.496 98.3042C291.623 99.1596 292.249 100.328 292.437 101.726Z" fill="#FEFFFF"/>
<path fill-rule="evenodd" clip-rule="evenodd" d="M301.853 89.2339C302.045 88.8722 302.586 88.9175 302.775 89.2814C303.128 89.963 303.482 90.6446 303.822 91.3326C305.613 94.9465 307.62 98.4361 309.778 101.842C309.816 101.9 309.857 101.958 309.899 102.015C310.305 102.573 309.941 103.212 309.468 103.714C309.392 103.794 309.319 103.876 309.249 103.961C307.459 106.13 306.102 108.542 305.297 111.241C304.834 112.794 304.465 114.374 304.04 115.939C303.828 116.72 303.616 117.505 303.342 118.266C303.202 118.656 302.963 119.027 302.7 119.352C302.441 119.672 301.939 119.656 301.677 119.334C301.436 119.039 301.206 118.711 301.071 118.359C300.741 117.495 300.392 116.627 300.185 115.729C298.793 109.696 298.407 103.601 299.179 97.4465C299.544 94.5402 300.474 91.8119 301.853 89.2339Z" fill="#C64421"/>
<path fill-rule="evenodd" clip-rule="evenodd" d="M341.459 95.9295C339.737 95.1989 338.464 93.5881 338.476 91.7169C338.49 89.4345 338.451 87.1528 338.305 84.8721C338.188 83.0283 338.021 81.1878 337.883 79.3446C337.855 78.9767 338.268 78.7379 338.591 78.9172C340.902 80.2029 342.893 81.8939 344.634 83.8941C346.232 85.7313 347.603 87.7363 348.843 89.8306C350.834 93.1925 352.537 96.6895 353.718 100.423C354.009 101.34 354.216 102.286 354.41 103.229C354.494 103.636 354.49 104.074 354.45 104.492C354.399 105.022 353.947 105.291 353.437 105.096C353.083 104.96 352.732 104.768 352.439 104.528C351.843 104.041 351.277 103.514 350.719 102.983C349.518 101.84 348.366 100.641 347.128 99.5408C345.414 98.0166 343.525 96.8058 341.459 95.9295Z" fill="#AA2B0E"/>
<path fill-rule="evenodd" clip-rule="evenodd" d="M339.651 119.594C339.265 121.334 338.879 123.074 338.493 124.815C338.364 125.297 338.219 125.776 338.11 126.262C337.5 128.975 336.904 131.69 336.551 134.452C336.509 134.773 336.173 135.006 335.92 134.805C335.78 134.694 335.668 134.553 335.546 134.437C333.012 132.059 330.489 129.668 327.961 127.283C327.653 126.991 327.337 126.71 327.024 126.424C326.759 126.161 326.319 126.218 326.16 126.555C326.01 126.875 325.881 127.197 325.756 127.521C325.455 128.299 324.705 128.402 324.152 127.776C324.145 127.767 324.137 127.759 324.129 127.75C324.024 127.635 323.914 127.522 323.83 127.391C323.477 126.841 323.127 126.288 322.763 125.744C321.216 123.433 319.682 121.112 318.375 118.652C318.013 117.971 317.704 117.262 317.386 116.559C316.917 115.523 316.932 114.461 317.235 113.385C317.468 112.558 317.841 111.798 318.298 111.077C318.422 110.881 318.548 110.688 318.674 110.494C318.715 110.432 318.777 110.386 318.849 110.367C319.104 110.299 319.314 110.565 319.187 110.797C319.021 111.1 318.857 111.405 318.711 111.717C318.106 113.01 318.025 114.311 318.712 115.61C318.964 116.087 319.184 116.58 319.441 117.054C320.892 119.74 322.647 122.231 324.368 124.744C324.549 125.009 324.984 124.951 325.129 124.664C325.142 124.639 325.154 124.613 325.166 124.586C325.895 122.971 326.616 121.351 327.343 119.734C327.833 118.643 328.335 117.559 328.821 116.467C329.131 115.77 328.737 115.064 328.015 114.819C327.971 114.804 327.926 114.789 327.882 114.775C327.638 114.697 327.399 114.602 327.174 114.48C326.985 114.377 326.796 114.274 326.608 114.171C326.07 113.876 325.528 113.584 324.995 113.28C324.291 112.877 323.875 112.258 323.648 111.485C323.429 110.738 323.341 109.983 323.403 109.211C323.409 109.141 323.458 109.082 323.527 109.063C323.628 109.035 323.73 109.105 323.741 109.209C323.777 109.561 323.806 109.915 323.863 110.264C324.007 111.157 324.47 111.826 325.292 112.237C325.566 112.374 325.82 112.556 326.101 112.677C327.758 113.394 329.417 114.104 331.082 114.8C331.139 114.824 331.2 114.84 331.265 114.852C331.535 114.902 331.818 114.659 331.771 114.389C331.612 113.481 331.396 112.58 331.289 111.668C331.127 110.297 330.798 108.971 330.395 107.661C330.315 107.401 330.464 107.126 330.726 107.054C330.946 106.994 331.179 107.097 331.289 107.297C331.449 107.588 331.611 107.878 331.703 108.189C331.943 108.999 332.133 109.827 332.292 110.657C332.536 111.942 332.737 113.236 332.956 114.526C333.021 114.906 333.085 115.285 333.153 115.664C333.256 116.242 332.763 116.721 332.214 116.512C331.978 116.423 331.747 116.33 331.512 116.248C331.127 116.115 330.713 116.318 330.56 116.695C330.183 117.622 329.808 118.549 329.437 119.479C329.366 119.657 329.3 119.837 329.234 120.017C329.13 120.303 328.989 120.574 328.836 120.837C328.809 120.884 328.782 120.93 328.756 120.977C328.028 122.282 328.412 123.896 329.477 124.944C331.183 126.623 333.341 128.594 334.363 129.383C334.543 129.522 334.848 129.461 334.88 129.236C335.38 125.602 336.28 122.051 337.074 118.478C337.516 116.484 337.895 114.482 338.023 112.433C338.129 110.747 337.582 109.33 336.51 108.083C336.136 107.646 335.714 107.247 335.293 106.853C335.197 106.763 335.098 106.677 334.998 106.592C334.715 106.355 334.805 105.905 335.16 105.804C335.297 105.766 335.443 105.793 335.557 105.876C335.806 106.059 336.056 106.241 336.305 106.426C337.143 107.049 337.895 107.761 338.571 108.558C339.904 110.129 340.581 111.926 340.383 113.992C340.244 115.445 340.022 116.891 339.833 118.34C339.778 118.759 339.712 119.176 339.651 119.594Z" fill="#EF602F"/>
<path fill-rule="evenodd" clip-rule="evenodd" d="M347.247 51.6057C345.43 51.5898 344.244 49.8408 345.726 48.79C346.454 48.2734 347.268 48.1427 348.116 48.0193C348.589 47.9506 349.008 47.6625 349.212 47.231C349.831 45.9201 350.837 45.1373 352.266 44.8154C353.339 44.5736 354.239 44.9468 355.147 45.387C355.166 45.396 355.184 45.4056 355.202 45.4156C355.551 45.6081 355.991 45.6227 356.242 45.3137C357.865 43.3225 360.927 43.2447 362.724 44.6693C363.354 45.169 363.755 45.8087 364.069 46.5203C364.132 46.6624 364.188 46.8073 364.244 46.9563C364.389 47.3493 364.789 47.6249 365.197 47.5298C366.817 47.1538 368.987 47.9768 369.783 50.1954C369.872 50.443 369.944 50.6922 369.928 50.9543C369.907 51.2958 369.585 51.5456 369.244 51.5653C367.707 51.6515 353.831 51.6636 347.247 51.6057Z" fill="#FDFEFE"/>
<path fill-rule="evenodd" clip-rule="evenodd" d="M316.303 25.9837C316.568 26.2584 316.426 26.7253 316.062 26.8402C315.913 26.8874 315.763 26.933 315.612 26.9751C312.449 27.8628 309.284 28.745 306.121 29.6322C305.777 29.7288 305.439 29.844 305.098 29.9519C305.059 29.9645 305.019 29.9336 305.021 29.8919C305.021 29.8855 305.021 29.879 305.019 29.8727C304.469 27.9167 303.92 25.9598 303.37 24.004C302.502 20.9208 301.632 17.8374 300.764 14.7544C300.717 14.5899 300.791 14.2883 300.949 14.3529C301.376 14.5263 301.8 14.7098 302.21 14.9196C304.476 16.0806 306.576 17.5014 308.596 19.0471C311.35 21.1537 313.907 23.4791 316.303 25.9837Z" fill="#AA2B0D"/>
<path fill-rule="evenodd" clip-rule="evenodd" d="M300.172 15.0771C300.358 14.7925 300.808 14.9081 300.9 15.2355C301.724 18.1584 302.547 21.0815 303.37 24.0045C303.859 25.741 304.347 27.4784 304.835 29.2153C304.94 29.5913 304.746 30.0112 304.37 30.1164C300.91 31.0869 297.449 32.0537 293.989 33.0186C293.715 33.0951 293.436 32.852 293.482 32.5715C293.487 32.5355 293.494 32.4996 293.502 32.464C294.473 28.1326 295.781 23.9101 297.603 19.8549C298.346 18.2014 299.182 16.5971 300.172 15.0771Z" fill="#C64320"/>
<path fill-rule="evenodd" clip-rule="evenodd" d="M263.95 20.2951C263.199 20.2809 262.786 19.6268 263.172 18.9813C263.688 18.1157 264.581 17.6199 266.03 17.3715C266.562 17.2803 267.088 17.0101 267.321 16.5234C268.077 14.9445 270.183 13.9844 272.172 15.1304C272.198 15.1459 272.225 15.1618 272.252 15.178C272.588 15.3808 273.021 15.3575 273.297 15.0786C274.627 13.7311 276.582 13.2867 278.457 14.5414C279.089 14.9643 279.489 15.5723 279.775 16.2603C280.014 16.8312 280.597 17.1522 281.216 17.1419C282.062 17.1279 282.84 17.3673 283.529 17.985C284.116 18.5116 284.535 19.1202 284.681 19.9115C284.739 20.23 284.535 20.5827 284.212 20.6121C283.945 20.6371 283.673 20.6181 283.403 20.6137C276.919 20.5094 270.435 20.4079 263.95 20.2951Z" fill="#FDFEFE"/>
<path fill-rule="evenodd" clip-rule="evenodd" d="M323.72 109.011C323.618 109.039 323.516 109.067 323.413 109.095C322.33 109.396 321.246 109.696 320.163 109.997C319.949 110.06 319.734 110.124 319.52 110.188C319.259 110.258 318.998 110.328 318.738 110.397C318.711 110.403 318.684 110.408 318.657 110.413C317.792 110.586 316.895 110.267 316.42 109.524C316.098 109.02 315.798 108.504 315.492 107.993C315.166 107.447 315.401 106.692 316.013 106.52C317.904 105.985 319.797 105.456 321.69 104.927C322.792 104.619 323.951 105.183 324.387 106.24C324.517 106.555 324.646 106.87 324.776 107.184C325.067 107.889 324.697 108.692 323.974 108.93C323.889 108.958 323.804 108.984 323.72 109.011Z" fill="#2F2E3B"/>
<path fill-rule="evenodd" clip-rule="evenodd" d="M335.376 105.744C335.024 105.844 334.671 105.943 334.318 106.042C334.04 106.119 333.762 106.196 333.483 106.273C332.691 106.499 331.898 106.725 331.106 106.95C330.819 107.029 330.532 107.108 330.245 107.186C329.914 107.275 329.582 107.364 329.25 107.453C328.936 107.511 328.637 107.298 328.587 106.983C328.474 106.272 328.36 105.562 328.259 104.849C328.123 103.877 328.769 102.965 329.715 102.704C331.11 102.318 332.505 101.932 333.901 101.547C335.348 101.146 336.783 102.154 336.74 103.656C336.738 103.725 336.736 103.794 336.734 103.863C336.707 104.707 336.166 105.447 335.376 105.744Z" fill="#2E2E3B"/>
<path fill-rule="evenodd" clip-rule="evenodd" d="M312.171 59.7829C311.017 59.8953 309.866 59.9157 308.718 59.7057C304.899 59.0066 301.043 56.0653 300.285 50.8528C299.641 46.4302 301.964 42.1946 305.77 40.2639C306.272 40.0098 306.799 39.8061 307.321 39.5926C307.559 39.4953 307.804 39.4161 308.056 39.365C309.026 39.1683 310 39.0214 311.002 39.0656C315.989 39.2871 319.475 42.8233 320.578 46.5505C321.767 50.5683 320.443 56.1041 315.234 58.7764C314.73 59.0351 314.195 59.2313 313.665 59.4396C313.432 59.5313 313.192 59.6058 312.947 59.656C312.818 59.6823 312.689 59.7085 312.561 59.7349C312.431 59.7514 312.301 59.7671 312.171 59.7829ZM319.017 47.1531C317.99 42.5356 312.889 39.7381 308.327 40.9652C304.002 42.1279 300.812 46.5814 302.045 51.8981C303.664 56.6955 308.124 59.284 313.011 57.9607C317.903 56.6366 320.444 51.3778 319.017 47.1531Z" fill="#31313E"/>
<path fill-rule="evenodd" clip-rule="evenodd" d="M325.314 108.49C324.75 107.123 324.186 105.754 323.622 104.387C323.526 104.055 323.45 103.713 323.33 103.389C321.655 98.8601 320.228 94.2499 318.848 89.6245C318.471 88.3609 318.204 87.0775 318.211 85.7538C318.214 85.2549 318.254 84.7496 318.345 84.2601C318.494 83.456 318.851 82.7706 319.597 82.3609C319.641 82.3366 319.693 82.3275 319.743 82.3327C319.849 82.3438 319.938 82.4188 319.967 82.522C322.703 92.3168 325.439 102.111 328.175 111.906C328.23 112.101 328.148 112.338 327.948 112.303C327.844 112.285 327.744 112.234 327.646 112.168C327.502 112.069 327.361 111.966 327.218 111.866C327.197 111.85 327.179 111.83 327.167 111.806C327.118 111.704 327.08 111.585 326.922 111.668C326.915 111.671 326.916 111.68 326.922 111.683C326.928 111.686 326.934 111.682 326.935 111.675C326.941 111.604 326.968 111.521 326.939 111.468C326.402 110.473 325.857 109.481 325.314 108.49Z" fill="#C54421"/>
<path fill-rule="evenodd" clip-rule="evenodd" d="M328.332 112.248C328.3 112.238 328.273 112.217 328.263 112.185C328.232 112.092 328.201 112 328.174 111.906C325.578 102.613 322.982 93.3199 320.386 84.0266C320.119 83.0686 320.76 82.0728 321.52 82.7147C321.985 83.1079 322.42 83.5648 322.765 84.0646C323.427 85.0205 323.892 86.0835 324.183 87.2145C324.911 90.0536 325.664 92.8869 326.347 95.7373C326.895 98.0245 327.352 100.333 327.858 102.63C327.939 103.001 328.094 103.35 328.132 103.728C328.169 104.103 328.207 104.478 328.259 104.85C328.387 105.755 328.537 106.657 328.677 107.56C328.727 108.588 328.79 109.616 328.822 110.645C328.839 111.197 328.76 111.739 328.45 112.215C328.425 112.253 328.375 112.262 328.332 112.248Z" fill="#AB2C0F"/>
<path fill-rule="evenodd" clip-rule="evenodd" d="M312.171 59.783C312.301 59.7672 312.431 59.7515 312.561 59.735C312.431 59.7508 312.301 59.7667 312.171 59.783Z" fill="#F0F0F0"/>
<path fill-rule="evenodd" clip-rule="evenodd" d="M333.921 106.76C333.72 106.536 333.824 106.179 334.114 106.099C334.242 106.063 334.379 106.092 334.482 106.175C334.757 106.396 335.037 106.612 335.293 106.853C335.714 107.248 336.136 107.647 336.511 108.083C337.582 109.331 338.129 110.747 338.023 112.433C337.895 114.483 337.517 116.484 337.074 118.479C336.28 122.052 335.38 125.603 334.88 129.236C334.848 129.461 334.543 129.522 334.363 129.384C333.131 128.433 330.248 125.762 328.495 123.958C328.05 123.5 327.914 122.824 328.158 122.234C328.194 122.148 328.23 122.063 328.267 121.977C328.629 121.145 329.683 121.007 330.351 121.622C330.748 121.987 331.136 122.363 331.544 122.715C331.751 122.894 331.937 123.102 332.15 123.295C332.526 123.637 333.071 123.371 333.173 122.872C333.576 120.911 333.973 118.949 334.377 116.987C334.664 115.591 334.978 114.201 335.239 112.801C335.373 112.084 335.439 111.352 335.496 110.623C335.599 109.327 335.171 108.199 334.329 107.222C334.195 107.066 334.058 106.912 333.921 106.76Z" fill="#F8E93C"/>
<path fill-rule="evenodd" clip-rule="evenodd" d="M332.669 106.505C333.167 106.363 333.705 106.516 334.049 106.903C334.143 107.008 334.236 107.114 334.329 107.221C335.171 108.198 335.599 109.326 335.496 110.623C335.438 111.351 335.372 112.083 335.239 112.8C334.978 114.201 334.664 115.591 334.377 116.987C333.974 118.948 333.576 120.911 333.173 122.872C333.07 123.371 332.526 123.637 332.149 123.294C331.937 123.101 331.751 122.894 331.544 122.715C331.136 122.362 330.748 121.987 330.351 121.622C330.18 121.464 330.008 121.306 329.837 121.148C329.377 120.724 329.206 120.06 329.437 119.479C329.808 118.549 330.183 117.622 330.56 116.695C330.713 116.318 331.127 116.115 331.511 116.248C331.747 116.33 331.978 116.423 332.214 116.512C332.763 116.721 333.255 116.242 333.152 115.664C333.085 115.285 333.021 114.906 332.956 114.526C332.737 113.236 332.536 111.943 332.292 110.657C332.133 109.827 331.943 108.999 331.703 108.189C331.5 107.502 331.742 106.769 332.431 106.573C332.51 106.55 332.59 106.528 332.669 106.505Z" fill="#FDFCF7"/>
<path fill-rule="evenodd" clip-rule="evenodd" d="M319.827 110.751C320.037 110.272 320.455 109.916 320.958 109.776C321 109.765 321.042 109.753 321.083 109.741C322.205 109.43 323.321 110.369 323.648 111.486C323.875 112.259 324.29 112.878 324.995 113.281C325.528 113.586 326.069 113.877 326.608 114.172C327.116 114.452 327.326 115.075 327.086 115.603C326.306 117.324 325.526 119.044 324.739 120.762C324.637 120.986 324.277 120.947 324.122 120.756C324.108 120.738 324.094 120.72 324.08 120.701C322.748 118.86 321.501 116.963 320.394 114.977C320.132 114.508 319.915 114.013 319.698 113.521C319.316 112.658 319.377 111.795 319.743 110.943C319.771 110.879 319.799 110.815 319.827 110.751Z" fill="#FEFDFA"/>
<path fill-rule="evenodd" clip-rule="evenodd" d="M319.623 110.157C319.836 110.093 320.024 110.308 319.933 110.511C319.869 110.654 319.806 110.798 319.744 110.943C319.377 111.795 319.316 112.658 319.698 113.52C319.916 114.013 320.133 114.509 320.394 114.977C321.501 116.963 322.748 118.86 324.081 120.701C324.094 120.719 324.108 120.737 324.123 120.755C324.278 120.947 324.638 120.986 324.739 120.762C325.505 119.091 326.264 117.418 327.023 115.744C327.304 115.124 328.018 114.766 328.628 115.069C328.931 115.22 329.148 115.529 329.066 115.857C329.013 116.072 328.91 116.269 328.821 116.468C328.335 117.56 327.834 118.644 327.343 119.735C326.616 121.351 325.896 122.972 325.166 124.587C325.154 124.614 325.142 124.64 325.129 124.665C324.985 124.952 324.55 125.009 324.368 124.745C322.648 122.232 320.892 119.741 319.441 117.055C319.185 116.581 318.964 116.088 318.712 115.611C318.025 114.312 318.106 113.011 318.711 111.718C318.94 111.23 319.212 110.761 319.468 110.284C319.501 110.223 319.557 110.177 319.623 110.157Z" fill="#F8E83D"/>
<path fill-rule="evenodd" clip-rule="evenodd" d="M328.157 112.291C328.24 112.266 328.33 112.236 328.405 112.281C329.164 112.748 329.37 112.851 329.882 112.87C330.065 112.877 330.263 112.735 330.234 112.555C330.094 111.719 329.956 110.884 329.795 110.053C329.659 109.352 329.507 108.655 329.357 107.957C329.297 107.675 329.468 107.396 329.746 107.321C330.026 107.246 330.316 107.403 330.401 107.68C330.801 108.985 331.129 110.305 331.289 111.669C331.397 112.582 331.612 113.483 331.772 114.39C331.819 114.66 331.535 114.903 331.265 114.853C331.201 114.842 331.14 114.825 331.082 114.801C329.418 114.105 327.758 113.396 326.101 112.679C325.82 112.558 325.566 112.376 325.292 112.238C324.47 111.828 324.008 111.158 323.863 110.265C323.802 109.885 323.772 109.5 323.732 109.117C323.725 109.055 323.763 108.998 323.822 108.979C323.9 108.955 323.981 109.009 323.993 109.09C324.151 110.2 324.84 110.885 325.871 111.293C326.223 111.432 326.58 111.557 326.934 111.688L326.906 111.676C326.999 111.732 327.092 111.786 327.185 111.842C327.338 111.951 327.49 112.062 327.646 112.168C327.808 112.278 327.976 112.345 328.157 112.291Z" fill="#F7E73F"/>
<path fill-rule="evenodd" clip-rule="evenodd" d="M326.939 111.469C326.991 111.566 326.828 111.649 326.724 111.612C326.439 111.508 326.153 111.406 325.871 111.294C325.011 110.953 324.389 110.42 324.114 109.607C323.984 109.224 324.246 108.842 324.63 108.715C325.027 108.585 325.46 108.756 325.66 109.122C326.088 109.903 326.516 110.685 326.939 111.469Z" fill="#F8F5E9"/>
<path fill-rule="evenodd" clip-rule="evenodd" d="M328.948 107.509C329.117 107.478 329.278 107.587 329.314 107.755C329.477 108.52 329.646 109.284 329.795 110.052C329.955 110.884 330.094 111.719 330.233 112.554C330.263 112.735 330.065 112.876 329.882 112.869C329.664 112.861 329.502 112.838 329.329 112.778C328.791 112.592 328.697 111.873 328.785 111.311C328.82 111.093 328.829 110.869 328.821 110.644C328.793 109.708 328.738 108.771 328.69 107.835C328.682 107.677 328.793 107.538 328.948 107.509Z" fill="#F8F5E9"/>
<path fill-rule="evenodd" clip-rule="evenodd" d="M319.017 47.153C320.444 51.3771 317.903 56.6367 313.012 57.9605C308.125 59.2843 303.665 56.6953 302.046 51.8979C300.813 46.581 304.003 42.1276 308.328 40.965C312.89 39.7384 317.99 42.5356 319.017 47.153ZM312.722 57.2301C317.082 56.0626 319.5 51.5584 318.385 47.3776C317.197 42.924 312.533 40.5429 308.448 41.6712C304.101 42.8718 301.683 47.4822 302.787 51.5419C303.958 55.843 308.457 58.458 312.722 57.2301Z" fill="#636670"/>
<path fill-rule="evenodd" clip-rule="evenodd" d="M327.067 111.655C327.119 111.687 327.044 111.759 326.992 111.728C326.953 111.705 326.954 111.646 326.999 111.641C327.027 111.638 327.049 111.643 327.067 111.655Z" fill="#F8F5E9"/>
<path fill-rule="evenodd" clip-rule="evenodd" d="M312.722 57.2303C308.457 58.4581 303.958 55.8426 302.787 51.542C301.682 47.4824 304.1 42.8715 308.448 41.6713C312.533 40.543 317.197 42.9241 318.385 47.3778C319.5 51.5585 317.082 56.0627 312.722 57.2303ZM304.417 53.2084C304.489 53.3545 304.738 53.208 304.828 53.072C304.971 52.8549 305.111 52.6454 305.234 52.4273C305.902 51.2527 306.549 50.0657 307.228 48.8983C307.478 48.4684 307.776 48.0604 308.088 47.6711C309.255 46.2181 310.7 45.0532 312.104 43.8471C312.309 43.6711 312.546 43.527 312.719 43.3264C312.92 43.0943 312.656 42.7278 312.359 42.6507C311.316 42.3797 310.32 42.3197 309.302 42.6718C308.902 42.81 308.49 42.924 308.076 43.0151C307.176 43.2123 306.453 43.7045 305.798 44.3233C304.967 45.1056 304.392 46.0661 303.946 47.0956C303.56 47.9874 303.396 48.934 303.474 49.9207C303.565 51.0845 303.898 52.1723 304.417 53.2084Z" fill="#B8DEEB"/>
<path fill-rule="evenodd" clip-rule="evenodd" d="M304.828 53.0721C304.738 53.208 304.489 53.3545 304.417 53.2084C303.897 52.1717 303.565 51.0844 303.474 49.9207C303.396 48.9339 303.56 47.9873 303.946 47.0955C304.392 46.066 304.967 45.1061 305.797 44.3232C306.453 43.7044 307.176 43.2122 308.076 43.015C308.49 42.9239 308.901 42.8101 309.302 42.6717C310.32 42.3195 311.316 42.3799 312.359 42.6508C312.656 42.7278 312.918 43.0933 312.719 43.3263C312.546 43.527 312.309 43.6711 312.104 43.847C310.701 45.0535 309.255 46.218 308.088 47.671C307.776 48.0603 307.478 48.4677 307.228 48.8982C306.549 50.0656 305.902 51.2527 305.234 52.4273C305.111 52.6457 304.971 52.8552 304.828 53.0721Z" fill="#DBEEF6"/>
</g>
</svg>
