<svg width="16" height="16" viewBox="0 0 16 16" fill="none" xmlns="http://www.w3.org/2000/svg">
<path d="M9.76846 6.67071C10.1431 6.41188 10.4563 6.07399 10.686 5.68087C10.9158 5.28775 11.0564 4.849 11.0981 4.39558C11.1397 3.94216 11.0813 3.48513 10.927 3.05675C10.7727 2.62837 10.5262 2.23908 10.205 1.91637C9.8838 1.59365 9.49567 1.34538 9.06801 1.18907C8.64035 1.03276 8.1836 0.972223 7.72999 1.01174C7.27639 1.05125 6.83698 1.18985 6.4428 1.41776C6.04861 1.64566 5.70925 1.95731 5.44868 2.33071M5.02246 5.01637C5.16995 5.4992 5.43244 5.93901 5.78738 6.29802C6.14233 6.65703 6.57912 6.92451 7.06024 7.07748" stroke="#3366FF" stroke-linecap="round" stroke-linejoin="round"/>
<path d="M3.3335 14.9997V13.4441C3.3335 12.619 3.66127 11.8277 4.24472 11.2442C4.82817 10.6608 5.61949 10.333 6.44461 10.333H9.55572C9.85782 10.3328 10.1583 10.3765 10.4478 10.4629M12.5362 12.5481C12.6232 12.8388 12.6672 13.1407 12.6668 13.4441V14.9997" stroke="#3366FF" stroke-linecap="round" stroke-linejoin="round"/>
<path d="M1 1L15 15" stroke="#3366FF" stroke-linecap="round" stroke-linejoin="round"/>
</svg>
