<svg width="15" height="14" viewBox="0 0 15 14" fill="none" xmlns="http://www.w3.org/2000/svg">
<path d="M12.5556 3.55273H2.44444C1.6467 3.55273 1 4.18636 1 4.96798V11.3366C1 12.1182 1.6467 12.7519 2.44444 12.7519H12.5556C13.3533 12.7519 14 12.1182 14 11.3366V4.96798C14 4.18636 13.3533 3.55273 12.5556 3.55273Z" stroke="white" stroke-linecap="round" stroke-linejoin="round"/>
<path d="M4.61133 3.55316V2.13791C4.61133 1.76256 4.76351 1.40258 5.0344 1.13717C5.30528 0.871763 5.67268 0.722656 6.05577 0.722656H8.94466C9.32775 0.722656 9.69515 0.871763 9.96604 1.13717C10.2369 1.40258 10.3891 1.76256 10.3891 2.13791V3.55316" stroke="white" stroke-linecap="round" stroke-linejoin="round"/>
<path d="M7.5 7.09082V7.09852" stroke="white" stroke-linecap="round" stroke-linejoin="round"/>
<path d="M1 7.79883C3.01614 8.79424 5.24235 9.31274 7.5 9.31274C9.75765 9.31274 11.9839 8.79424 14 7.79883" stroke="white" stroke-linecap="round" stroke-linejoin="round"/>
</svg>
