<svg width="220" height="75" viewBox="0 0 220 75" fill="none" xmlns="http://www.w3.org/2000/svg">
<mask id="mask0_749_11252" style="mask-type:alpha" maskUnits="userSpaceOnUse" x="0" y="0" width="220" height="75">
<rect width="220" height="75" rx="6" transform="matrix(-1 0 0 1 220 0)" fill="#D9D9D9"/>
</mask>
<g mask="url(#mask0_749_11252)">
<path fill-rule="evenodd" clip-rule="evenodd" d="M215 22H188V33H169V40H166V28H149V30H139V49H134V36H111V49H97V40H66V59H63V52H48V59H45V49H23V62H11V81H23H26H41H45H48V84H63V81H66H72H92H97H119H123H226V72V49V40H215V22Z" fill="#A4DCFF"/>
<path d="M242.16 76.0296C242.16 79.3495 241.671 83.8787 238.444 84.6811C236.189 85.2393 233.09 85.6985 228.909 85.78C228.072 85.7974 226.863 85.8672 225.398 85.9777C225.363 85.4893 225.316 84.9776 225.264 84.4486C225.194 83.7625 225.083 83.0938 224.926 82.4485C223.217 75.2273 216.351 70.6283 210.275 70.6283C203.658 70.6283 199.245 72.8377 195.175 78.646C193.728 80.7159 192.954 83.1578 192.565 85.437C192.332 86.78 192.233 88.0707 192.204 89.1929L115.765 90.3501H112.353C112.318 89.2221 112.254 87.9139 112.126 86.4138C112.091 86.0243 112.056 85.6173 112.015 85.1986C111.201 76.8378 103.649 71.3784 97.0263 71.3784C90.4099 71.3784 85.9911 73.5819 81.927 79.3902C80.3979 81.5764 79.6246 84.1753 79.2582 86.565C79.0431 87.9313 78.9617 89.2337 78.9559 90.3501C78.9559 90.3501 72.1533 91.2918 68.5776 89.4314C67.845 89.0476 66.7229 87.751 66.1997 86.8558C66.0717 86.629 65.9787 86.4312 65.9438 86.2744C65.5368 84.6114 64.9089 81.4078 65.0135 77.7158C65.0484 76.425 65.1764 75.0704 65.438 73.704C65.6298 72.6517 65.9031 71.5993 66.2753 70.5528C67.2521 67.8027 69.7463 65.7153 73.0138 64.0991C79.3338 60.9769 88.5784 59.6048 95.4449 58.5756C105.864 57.0116 108.829 55.6744 114.556 52.2846C120.289 48.9008 130.911 42.6855 143.156 39.3016C155.401 35.912 180.239 36.3306 195.042 40.1331C209.443 43.8367 221.147 50.4823 221.147 50.4823C221.147 50.4823 232.183 51.6684 236.805 53.0405C237.805 53.337 238.502 53.6394 238.729 53.9416C239.177 54.5406 239.549 55.3313 239.857 56.2267C239.991 56.5987 240.113 56.9941 240.223 57.4011C241.072 60.4884 241.334 64.2444 241.375 65.7095C241.381 65.8549 241.381 65.977 241.381 66.0759L242.16 76.0296Z" fill="#3366FF"/>
<path d="M82.4555 64.1799C77.7635 70.3719 71.5946 73.7966 65.4375 73.7035C65.5886 72.878 65.7922 72.0465 66.0537 71.2208C66.1235 70.9999 66.1933 70.7732 66.2747 70.5522C67.2514 67.8021 69.7457 65.7148 73.0132 64.0985C76.1355 63.5345 79.3101 63.6043 82.4555 64.1799Z" fill="#F2F2F2"/>
<path d="M239.857 56.226C227.978 56.848 149.952 60.9471 134.504 61.4181C117.777 61.9355 80.124 66.9066 80.124 66.9066L82.4555 64.1798C82.4555 64.1798 88.1185 62.8833 101.346 60.5634C114.579 58.2435 142.103 56.447 161.662 56.1387C178.209 55.8714 223.304 53.7026 236.804 53.0398C237.804 53.3363 238.502 53.6387 238.729 53.9409C239.176 54.5399 239.549 55.3306 239.857 56.226Z" fill="#7497FF"/>
<path d="M203.879 53.9414L169.285 55.3426L161.732 55.6508L126.086 57.0985L125.836 55.4822L125.371 52.4472C126.423 51.8192 127.551 51.1796 128.76 50.5227C137.476 45.7958 142.028 44.2841 149.278 41.9701C156.523 39.6618 164.093 39.6501 164.093 39.6501L181.553 40.2142C188.251 40.4293 194.565 43.3596 199.065 48.3249C199.077 48.3424 199.094 48.354 199.106 48.3715C200.914 50.3598 202.676 52.3832 203.879 53.9414Z" fill="#4D4D4D"/>
<path d="M199.106 48.3714C187.483 45.255 175.436 43.6503 163.442 44.3306C150.255 45.0806 137.127 48.6621 125.836 55.4822L125.371 52.4472C126.423 51.8192 127.551 51.1796 128.76 50.5227C137.476 45.7958 142.028 44.2841 149.278 41.9701C156.523 39.6618 164.093 39.6501 164.093 39.6501L181.553 40.2142C188.251 40.4293 194.565 43.3596 199.065 48.3249C199.077 48.3423 199.094 48.3539 199.106 48.3714Z" fill="#999999"/>
<path d="M166.967 39.7409L165.632 55.4895L161.797 55.9698L164.195 39.6514L166.967 39.7409Z" fill="#3366FF"/>
<path d="M157.123 55.836L161.438 56.1431L164.091 39.6482L159.666 39.9159L157.123 55.836Z" fill="#3366FF"/>
<path d="M160.585 86.6643C160.527 86.6643 160.472 86.6416 160.431 86.6009C160.39 86.5598 160.366 86.5039 160.367 86.4451C160.368 86.2305 160.469 64.9177 160.81 61.482C161.155 58.0508 161.442 56.1238 161.445 56.1048L161.514 55.6179L163.875 39.6164C163.891 39.5068 163.975 39.425 164.098 39.4302L181.558 39.9939C188.268 40.2097 194.707 43.1921 199.224 48.1764C201.337 50.5047 202.96 52.3988 204.049 53.806C204.974 54.9961 205.511 55.843 205.645 56.3225C206.089 57.9379 204.641 61.8298 203.348 64.8107C202.644 66.4318 201.375 67.7746 199.772 68.5916C198.971 69.0004 198.045 69.5299 197.021 70.1658C193.311 72.4748 185.991 86.075 185.917 86.2121C185.88 86.2819 185.808 86.3259 185.728 86.327L160.588 86.6643C160.587 86.6643 160.586 86.6643 160.585 86.6643ZM164.278 39.8724L161.876 56.1681C161.873 56.1885 161.588 58.1065 161.244 61.5255C160.924 64.7519 160.816 83.935 160.804 86.2255L185.594 85.8927C186.359 84.4764 193.123 72.0779 196.791 69.7956C197.825 69.1532 198.762 68.6174 199.574 68.2032C201.087 67.4319 202.285 66.1654 202.948 64.6369C204.736 60.5145 205.545 57.6031 205.225 56.4392C205.143 56.1482 204.813 55.5004 203.705 54.0732C202.622 52.6747 201.006 50.7893 198.901 48.4694C194.463 43.572 188.136 40.6419 181.543 40.4301L164.278 39.8724Z" fill="#073DA3"/>
<path d="M160.585 86.6641H115.938C115.833 86.6641 115.743 86.5895 115.723 86.4864C115.629 85.9837 113.412 74.1316 113.412 70.3177C113.412 66.503 115.185 59.468 115.203 59.3974C115.214 59.356 115.236 59.3185 115.268 59.2899C115.302 59.2583 118.789 56.1139 125.257 52.2575C126.301 51.6346 127.412 51.0038 128.654 50.3287C137.233 45.6759 141.827 44.1162 149.21 41.7599C156.403 39.4683 164.014 39.4299 164.091 39.4299H164.091C164.154 39.4299 164.214 39.4575 164.256 39.5055C164.297 39.5534 164.316 39.617 164.307 39.6798L161.876 56.1678C161.873 56.1883 161.588 58.1062 161.244 61.5252C160.906 64.9402 160.804 86.2323 160.803 86.4472C160.802 86.567 160.705 86.6641 160.585 86.6641ZM116.119 86.2281H160.368C160.379 83.9598 160.488 64.7304 160.81 61.4818C161.155 58.0507 161.442 56.1236 161.445 56.1046L161.514 55.6177L163.838 39.8698C162.463 39.8979 155.734 40.1392 149.342 42.1756C141.773 44.5915 137.424 46.0682 128.862 50.7119C127.625 51.3839 126.519 52.0122 125.48 52.6322C119.462 56.2204 116.05 59.1791 115.61 59.5692C115.431 60.2855 113.848 66.7511 113.848 70.3177C113.848 73.8409 115.836 84.7024 116.119 86.2281Z" fill="#073DA3"/>
<path d="M197.356 56.3653C197.911 56.558 198.455 56.896 198.698 57.4304C199.019 58.1325 198.716 59.0014 198.151 59.5271C197.586 60.0527 196.815 60.2947 196.056 60.4352C195.238 60.5866 194.361 60.6316 193.604 60.2857C192.789 59.9128 191.937 58.6921 192.504 57.8134C193.102 56.8867 194.362 56.3235 195.416 56.1824C196.065 56.0954 196.735 56.1499 197.356 56.3653Z" fill="#073DA3"/>
<path d="M200.606 58.0699V58.1455C200.548 59.0931 199.333 59.4129 198.938 59.4478C197.019 59.6048 192.269 59.9944 191.827 59.8781C191.542 59.8083 191.263 59.6629 191.059 59.4537C190.949 59.3374 190.856 59.1978 190.804 59.0408C190.641 58.564 190.949 57.9245 191.426 57.7617C191.961 57.5699 198.077 57.1512 199.537 57.0931C199.821 57.0814 200.618 57.1919 200.606 58.0699Z" fill="#1C54FF"/>
<path d="M112.351 90.3474L103.443 86.9054L93.4546 85.5856L78.9541 90.3474C78.9832 87.2833 79.5181 82.8238 81.9251 79.3876C85.9893 73.5793 90.4081 71.3757 97.0245 71.3757C103.647 71.3757 111.2 76.8352 112.013 85.1961C112.211 87.2135 112.31 88.9229 112.351 90.3474Z" fill="#4F3707"/>
<path d="M225.395 85.9751L216.22 84.0507L201.569 84.9403L192.202 89.1905C192.284 86.1496 192.871 81.9285 195.173 78.6435C199.243 72.8351 203.656 70.6257 210.273 70.6257C216.895 70.6257 224.447 76.0852 225.262 84.446C225.314 84.9751 225.36 85.4868 225.395 85.9751Z" fill="#4F3707"/>
<path d="M109.501 87.1504C109.501 94.8018 103.298 101 95.6521 101C91.024 101 86.925 98.7321 84.4133 95.2436C82.7737 92.9645 81.8027 90.1737 81.8027 87.1504C81.8027 79.5047 88.0006 73.301 95.6521 73.301C100.867 73.301 105.414 76.1905 107.769 80.4524C108.873 82.435 109.501 84.72 109.501 87.1504Z" fill="#333333"/>
<path opacity="0.11" d="M103.665 76.6614C100.748 74.327 96.7961 73.3374 93.1227 74.0214C89.4492 74.7053 86.1184 77.0507 84.2365 80.2787C82.3544 83.5067 81.9542 87.5606 83.1686 91.0943C83.2783 86.3778 86.1823 82.0347 90.1144 79.4277C94.0464 76.8206 99.02 75.8375 103.665 76.6614Z" fill="white"/>
<path d="M222.649 87.1504C222.649 94.8018 216.445 101 208.799 101C204.171 101 200.072 98.7321 197.561 95.2436C195.921 92.9645 194.95 90.1737 194.95 87.1504C194.95 79.5047 201.148 73.301 208.799 73.301C214.015 73.301 218.561 76.1905 220.916 80.4524C222.021 82.435 222.649 84.72 222.649 87.1504Z" fill="#333333"/>
<path opacity="0.11" d="M216.813 76.6614C213.895 74.327 209.944 73.3374 206.27 74.0214C202.597 74.7053 199.266 77.0507 197.384 80.2787C195.502 83.5067 195.102 87.5606 196.316 91.0943C196.426 86.3778 199.33 82.0347 203.262 79.4277C207.194 76.8206 212.167 75.8375 216.813 76.6614Z" fill="white"/>
<path d="M130.766 57.0253C130.023 54.9539 128.864 53.0322 127.37 51.4153C127.04 51.0576 126.542 50.904 126.074 51.039C124.683 51.4406 123.303 52.0616 122.367 53.1624C121.408 54.2907 121.039 56.0199 121.816 57.2803C124.661 58.3244 127.861 57.8849 130.766 57.0253Z" fill="#073DA3"/>
<path opacity="0.37" d="M200.606 58.0699C197.374 57.7733 194.071 58.2501 191.059 59.4537C190.949 59.3374 190.856 59.1978 190.804 59.0408C190.641 58.564 190.949 57.9245 191.426 57.7617C191.961 57.5699 198.077 57.1512 199.537 57.0931C199.821 57.0814 200.618 57.1919 200.606 58.0699Z" fill="white"/>
<path d="M153.113 58.6598C153.651 58.8938 154.168 59.2721 154.371 59.8233C154.637 60.5476 154.27 61.3911 153.667 61.8727C153.063 62.3541 152.276 62.537 151.509 62.6197C150.681 62.7089 149.804 62.6874 149.075 62.2853C148.29 61.8518 147.534 60.5703 148.165 59.7369C148.832 58.858 150.13 58.3917 151.192 58.3306C151.846 58.293 152.51 58.3981 153.113 58.6598Z" fill="#073DA3"/>
<path d="M156.224 60.6046L156.219 60.6801C156.089 61.6206 154.853 61.8477 154.456 61.8525C152.531 61.8639 147.765 61.8933 147.333 61.7439C147.054 61.6528 146.787 61.4867 146.6 61.2627C146.499 61.1384 146.416 60.9921 146.376 60.8316C146.25 60.344 146.606 59.7295 147.093 59.6032C147.641 59.4523 153.772 59.4974 155.231 59.5498C155.516 59.5597 156.302 59.7301 156.224 60.6046Z" fill="#1C54FF"/>
<path opacity="0.37" d="M156.224 60.6046C153.023 60.0646 149.694 60.2903 146.6 61.2627C146.499 61.1384 146.416 60.9921 146.376 60.8316C146.25 60.344 146.606 59.7295 147.093 59.6032C147.641 59.4523 153.772 59.4974 155.231 59.5498C155.516 59.5597 156.302 59.7301 156.224 60.6046Z" fill="white"/>
<path d="M82.4555 64.1804C77.7635 70.3725 71.5946 73.7971 65.4375 73.704C65.5886 72.8785 65.7922 72.047 66.0537 71.2213C68.8619 70.9946 71.6062 70.14 74.1819 68.9771C77.1762 67.6166 79.6763 65.9363 82.4555 64.1804Z" fill="#CCCCCC"/>
<path d="M124.81 51.8994C125.256 51.7056 125.758 51.5597 126.252 51.627C126.954 51.7225 127.478 52.2168 127.888 52.7085C128.428 53.3547 128.883 54.0518 129.242 54.7829C129.31 54.9234 129.375 55.0862 129.295 55.2223C129.21 55.3672 128.999 55.4173 128.813 55.4522C126.675 55.8538 124.406 56.2505 122.335 55.6464C121.713 55.4646 121.799 55.2255 121.971 54.7632C122.123 54.3566 122.34 53.9678 122.61 53.6088C123.152 52.8907 123.913 52.2889 124.81 51.8994Z" fill="#3366FF"/>
<path opacity="0.33" d="M206.577 66.8237C206.429 66.8929 212.752 65.5084 219.507 69.6612C225.682 73.4579 227.659 81.3544 227.659 81.3544C227.659 81.3544 227.722 75.7174 223.901 70.1431C220.08 64.5689 212.176 64.1932 206.577 66.8237Z" fill="white"/>
<path opacity="0.33" d="M101.039 69.3909C101.177 69.4766 95.0548 67.3764 87.8687 70.7277C81.2988 73.7915 78.4302 81.4093 78.4302 81.4093C78.4302 81.4093 79.014 75.8024 83.4484 70.7027C87.8828 65.6031 95.7778 66.1359 101.039 69.3909Z" fill="white"/>
</g>
</svg>
