<svg width="16" height="18" viewBox="0 0 16 18" fill="none" xmlns="http://www.w3.org/2000/svg">
<path d="M1 4.55566H15.2222" stroke="#3366FF" stroke-linecap="round" stroke-linejoin="round"/>
<path d="M6.3335 8.11133V13.4447" stroke="#3366FF" stroke-linecap="round" stroke-linejoin="round"/>
<path d="M9.88867 8.11133V13.4447" stroke="#3366FF" stroke-linecap="round" stroke-linejoin="round"/>
<path d="M1.88867 4.55566L2.77756 15.2223C2.77756 15.6938 2.96486 16.146 3.29826 16.4794C3.63166 16.8128 4.08384 17.0001 4.55534 17.0001H11.6664C12.1379 17.0001 12.5901 16.8128 12.9235 16.4794C13.2569 16.146 13.4442 15.6938 13.4442 15.2223L14.3331 4.55566" stroke="#3366FF" stroke-linecap="round" stroke-linejoin="round"/>
<path d="M5.44434 4.55556V1.88889C5.44434 1.65314 5.53799 1.42705 5.70469 1.26035C5.87138 1.09365 6.09748 1 6.33322 1H9.88878C10.1245 1 10.3506 1.09365 10.5173 1.26035C10.684 1.42705 10.7777 1.65314 10.7777 1.88889V4.55556" stroke="#3366FF" stroke-linecap="round" stroke-linejoin="round"/>
</svg>
