<svg width="14" height="14" viewBox="0 0 14 14" fill="none" xmlns="http://www.w3.org/2000/svg">
<path d="M12.003 7.47126L7.00555 13.0714L2.00814 7.47126M2.00814 7.47126C1.67852 7.10833 1.41888 6.67211 1.24557 6.19006C1.07226 5.70802 0.989044 5.1906 1.00116 4.67037C1.01327 4.15015 1.12044 3.6384 1.31594 3.16735C1.51143 2.69629 1.79101 2.27614 2.13707 1.93335C2.48312 1.59056 2.88816 1.33255 3.32667 1.17558C3.76518 1.01861 4.22766 0.966067 4.685 1.02127C5.14234 1.07647 5.58462 1.23821 5.984 1.49632C6.38338 1.75443 6.73119 2.1033 7.00555 2.52098C7.2811 2.10633 7.62932 1.76051 8.02842 1.50514C8.42752 1.24977 8.86892 1.09036 9.32497 1.03689C9.78103 0.983412 10.2419 1.03702 10.6788 1.19436C11.1157 1.3517 11.5192 1.60938 11.8641 1.95128C12.2089 2.29318 12.4877 2.71194 12.6829 3.18134C12.8781 3.65074 12.9856 4.16068 12.9987 4.67925C13.0117 5.19782 12.93 5.71385 12.7587 6.19505C12.5873 6.67625 12.3301 7.11226 12.003 7.47578" stroke="#3366FF" stroke-linecap="round" stroke-linejoin="round"/>
</svg>
