<svg width="220" height="75" viewBox="0 0 220 75" fill="none" xmlns="http://www.w3.org/2000/svg">
<rect width="220" height="75" rx="4" fill="#D6EFFF"/>
<mask id="mask0_749_10181" style="mask-type:alpha" maskUnits="userSpaceOnUse" x="0" y="0" width="220" height="75">
<rect width="220" height="75" rx="6" transform="matrix(-1 0 0 1 220 0)" fill="#D9D9D9"/>
</mask>
<g mask="url(#mask0_749_10181)">
<path fill-rule="evenodd" clip-rule="evenodd" d="M226.677 19H203.161V30.5322H186.613V37.8711H184V25.2904H169.193V27.3871H160.484V47.3064H154.032V30H134V47.3064H128V32H101V61H98.0645V44H85V61H79V52H66V81H79V79H105V74.9839H119.548V80.8548H143.064H146.548H236.258V71.4194H236.258V37.8711H226.677V19ZM62 67H49V81H62V67Z" fill="#A4DCFF"/>
<path d="M155.578 16.7939H150.514V94.3755H155.578V16.7939Z" fill="#FF725E"/>
<g opacity="0.3">
<path d="M155.578 16.7939H150.514V94.3755H155.578V16.7939Z" fill="black"/>
</g>
<path d="M172.433 16.7939H155.577V94.3755H172.433V16.7939Z" fill="#FF725E"/>
<path d="M165.507 18.4419H156.757V20.8157H165.507V18.4419Z" fill="#455A64"/>
<g opacity="0.3">
<path d="M165.507 18.4419H156.757V20.8157H165.507V18.4419Z" fill="white"/>
</g>
<path d="M171.306 18.4419H166.931V20.8157H171.306V18.4419Z" fill="#455A64"/>
<g opacity="0.3">
<path d="M171.306 18.4419H166.931V20.8157H171.306V18.4419Z" fill="white"/>
</g>
<g opacity="0.3">
<path d="M156.757 18.8153L165.088 18.8219L165.106 20.8157H165.507V18.4419H156.757V18.8153Z" fill="black"/>
</g>
<g opacity="0.3">
<path d="M166.931 18.4419V18.7867H170.824V20.8157H171.306V18.4419H166.931Z" fill="black"/>
</g>
<path d="M165.507 22.5266H156.757V24.9004H165.507V22.5266Z" fill="#455A64"/>
<g opacity="0.3">
<path d="M165.507 22.5266H156.757V24.9004H165.507V22.5266Z" fill="white"/>
</g>
<path d="M171.306 22.5266H166.931V24.9004H171.306V22.5266Z" fill="#455A64"/>
<g opacity="0.3">
<path d="M171.306 22.5266H166.931V24.9004H171.306V22.5266Z" fill="white"/>
</g>
<g opacity="0.3">
<path d="M156.757 22.9003L165.088 22.9068L165.106 24.9006H165.507V22.5266H156.757V22.9003Z" fill="black"/>
</g>
<g opacity="0.3">
<path d="M166.931 22.5266V22.8716H170.824V24.9006H171.306V22.5266H166.931Z" fill="black"/>
</g>
<path d="M165.507 26.6116H156.757V28.9854H165.507V26.6116Z" fill="#455A64"/>
<g opacity="0.3">
<path d="M165.507 26.6116H156.757V28.9854H165.507V26.6116Z" fill="white"/>
</g>
<path d="M171.306 26.6116H166.931V28.9854H171.306V26.6116Z" fill="#455A64"/>
<g opacity="0.3">
<path d="M171.306 28.9854H170.206L170.197 28.4541L168.775 28.456V28.9854H166.931V26.6116H171.306V28.9854Z" fill="white"/>
</g>
<g opacity="0.3">
<path d="M156.757 26.9852L165.088 26.9916L165.106 28.9854H165.507V26.6116H156.757V26.9852Z" fill="black"/>
</g>
<g opacity="0.3">
<path d="M166.931 26.6116V26.9564H170.824V28.9854H171.306V26.6116H166.931Z" fill="black"/>
</g>
<path d="M165.507 30.6965H156.757V33.0704H165.507V30.6965Z" fill="#455A64"/>
<path d="M171.306 30.6965H166.931V33.0704H171.306V30.6965Z" fill="#455A64"/>
<g opacity="0.3">
<path d="M167.806 33.0706V31.8837H168.688V30.6965H166.931V33.0706H167.806Z" fill="white"/>
</g>
<g opacity="0.3">
<path d="M171.306 30.6965H170.543V33.0704H171.306V30.6965Z" fill="white"/>
</g>
<g opacity="0.3">
<path d="M165.507 30.6965H156.757V33.0704H165.507V30.6965Z" fill="white"/>
</g>
<g opacity="0.3">
<path d="M156.757 31.0702L165.088 31.0768L165.106 33.0706H165.507V30.6965H156.757V31.0702Z" fill="black"/>
</g>
<g opacity="0.3">
<path d="M166.931 30.6965V31.0415H170.824V33.0706H171.306V30.6965H166.931Z" fill="black"/>
</g>
<path d="M165.507 34.7815H156.757V37.1553H165.507V34.7815Z" fill="#455A64"/>
<g opacity="0.3">
<path d="M156.757 36.5063H158.807V35.6217H162.64V37.1553H165.507V34.7815H156.757V36.5063Z" fill="white"/>
</g>
<path d="M171.306 34.7815H166.931V37.1553H171.306V34.7815Z" fill="#455A64"/>
<g opacity="0.3">
<path d="M171.306 34.7815H170.543V37.1553H171.306V34.7815Z" fill="white"/>
</g>
<g opacity="0.3">
<path d="M156.757 35.1551L165.088 35.1615L165.106 37.1553H165.507V34.7815H156.757V35.1551Z" fill="black"/>
</g>
<g opacity="0.3">
<path d="M167.806 34.7815H166.931V37.1553H167.806V34.7815Z" fill="white"/>
</g>
<g opacity="0.3">
<path d="M166.931 34.7815V35.1265H170.824V37.1553H171.306V34.7815H166.931Z" fill="black"/>
</g>
<path d="M165.507 38.8667H156.757V41.2405H165.507V38.8667Z" fill="#455A64"/>
<path d="M171.306 38.8667H166.931V41.2405H171.306V38.8667Z" fill="#455A64"/>
<g opacity="0.3">
<path d="M156.757 39.2403L165.088 39.2467L165.106 41.2405H165.507V38.8667H156.757V39.2403Z" fill="black"/>
</g>
<g opacity="0.3">
<path d="M166.931 38.8667V39.2115H170.824V41.2405H171.306V38.8667H166.931Z" fill="black"/>
</g>
<path d="M165.507 42.9514H156.757V45.3252H165.507V42.9514Z" fill="#455A64"/>
<path d="M171.306 42.9514H166.931V45.3252H171.306V42.9514Z" fill="#455A64"/>
<g opacity="0.3">
<path d="M156.757 43.3251L165.088 43.3316L165.106 45.3255H165.507V42.9514H156.757V43.3251Z" fill="black"/>
</g>
<g opacity="0.3">
<path d="M166.931 42.9514V43.2964H170.824V45.3255H171.306V42.9514H166.931Z" fill="black"/>
</g>
<path d="M165.507 47.0361H156.757V49.41H165.507V47.0361Z" fill="#455A64"/>
<path d="M171.306 47.0361H166.931V49.41H171.306V47.0361Z" fill="#455A64"/>
<g opacity="0.3">
<path d="M156.757 47.4098L165.088 47.4161L165.106 49.41H165.507V47.0361H156.757V47.4098Z" fill="black"/>
</g>
<g opacity="0.3">
<path d="M166.931 47.0361V47.3809H170.824V49.41H171.306V47.0361H166.931Z" fill="black"/>
</g>
<path d="M165.507 51.1211H156.757V53.4949H165.507V51.1211Z" fill="#455A64"/>
<path d="M171.306 51.1211H166.931V53.4949H171.306V51.1211Z" fill="#455A64"/>
<g opacity="0.3">
<path d="M156.757 51.4947L165.088 51.5013L165.106 53.4951H165.507V51.1211H156.757V51.4947Z" fill="black"/>
</g>
<g opacity="0.3">
<path d="M166.931 51.1211V51.4661H170.824V53.4951H171.306V51.1211H166.931Z" fill="black"/>
</g>
<path d="M165.507 55.2061H156.757V57.5799H165.507V55.2061Z" fill="#455A64"/>
<path d="M171.306 55.2061H166.931V57.5799H171.306V55.2061Z" fill="#455A64"/>
<g opacity="0.3">
<path d="M156.757 55.5797L165.088 55.5861L165.106 57.5801H165.507V55.2061H156.757V55.5797Z" fill="black"/>
</g>
<g opacity="0.3">
<path d="M166.931 55.2061V55.5511H170.824V57.5801H171.306V55.2061H166.931Z" fill="black"/>
</g>
<path d="M165.507 59.2913H156.757V61.6651H165.507V59.2913Z" fill="#455A64"/>
<path d="M171.306 59.2913H166.931V61.6651H171.306V59.2913Z" fill="#455A64"/>
<g opacity="0.3">
<path d="M156.757 59.6649L165.088 59.6713L165.106 61.6649H165.507V59.2913H156.757V59.6649Z" fill="black"/>
</g>
<g opacity="0.3">
<path d="M166.931 59.2913V59.636H170.824V61.6649H171.306V59.2913H166.931Z" fill="black"/>
</g>
<path d="M165.507 63.376H156.757V65.7498H165.507V63.376Z" fill="#455A64"/>
<path d="M171.306 63.376H166.931V65.7498H171.306V63.376Z" fill="#455A64"/>
<g opacity="0.3">
<path d="M156.757 63.7496L165.088 63.7562L165.106 65.7498H165.507V63.376H156.757V63.7496Z" fill="black"/>
</g>
<g opacity="0.3">
<path d="M166.931 63.376V63.721H170.824V65.7498H171.306V63.376H166.931Z" fill="black"/>
</g>
<path d="M165.507 67.4609H156.757V69.8348H165.507V67.4609Z" fill="#455A64"/>
<path d="M171.306 67.4609H166.931V69.8348H171.306V67.4609Z" fill="#455A64"/>
<g opacity="0.3">
<path d="M156.757 67.8346L165.088 67.8409L165.106 69.8348H165.507V67.4609H156.757V67.8346Z" fill="black"/>
</g>
<g opacity="0.3">
<path d="M166.931 67.4609V67.8057H170.824V69.8348H171.306V67.4609H166.931Z" fill="black"/>
</g>
<path d="M154.286 18.8767H153.219V20.5854H154.286V18.8767Z" fill="#455A64"/>
<path d="M154.286 22.856H153.219V24.5646H154.286V22.856Z" fill="#455A64"/>
<path d="M154.286 26.8804H153.219V28.589H154.286V26.8804Z" fill="#455A64"/>
<path d="M154.286 30.905H153.219V32.6137H154.286V30.905Z" fill="#455A64"/>
<path d="M154.286 34.9297H153.219V36.6383H154.286V34.9297Z" fill="#455A64"/>
<path d="M154.286 38.9541H153.219V40.6628H154.286V38.9541Z" fill="#455A64"/>
<path d="M154.286 42.9788H153.219V44.6874H154.286V42.9788Z" fill="#455A64"/>
<path d="M154.286 47.0034H153.219V48.7123H154.286V47.0034Z" fill="#455A64"/>
<path d="M154.286 51.0278H153.219V52.7365H154.286V51.0278Z" fill="#455A64"/>
<path d="M154.286 55.0522H153.219V56.7609H154.286V55.0522Z" fill="#455A64"/>
<path d="M154.286 59.0769H153.219V60.7856H154.286V59.0769Z" fill="#455A64"/>
<path d="M154.286 63.1013H153.219V64.8102H154.286V63.1013Z" fill="#455A64"/>
<path d="M152.554 18.8767H151.487V20.5854H152.554V18.8767Z" fill="#455A64"/>
<path d="M152.554 22.856H151.487V24.5646H152.554V22.856Z" fill="#455A64"/>
<path d="M152.554 26.8804H151.487V28.589H152.554V26.8804Z" fill="#455A64"/>
<path d="M152.554 30.905H151.487V32.6137H152.554V30.905Z" fill="#455A64"/>
<path d="M152.554 34.9297H151.487V36.6383H152.554V34.9297Z" fill="#455A64"/>
<path d="M152.554 38.9541H151.487V40.6628H152.554V38.9541Z" fill="#455A64"/>
<path d="M152.554 42.9788H151.487V44.6874H152.554V42.9788Z" fill="#455A64"/>
<path d="M152.554 47.0034H151.487V48.7123H152.554V47.0034Z" fill="#455A64"/>
<path d="M152.554 51.0278H151.487V52.7365H152.554V51.0278Z" fill="#455A64"/>
<path d="M152.554 55.0522H151.487V56.7609H152.554V55.0522Z" fill="#455A64"/>
<path d="M152.554 59.0769H151.487V60.7856H152.554V59.0769Z" fill="#455A64"/>
<path d="M152.554 63.1013H151.487V64.8102H152.554V63.1013Z" fill="#455A64"/>
<path d="M161.039 49.4655C163.403 49.4655 165.32 49.4407 165.32 49.4101C165.32 49.3795 163.403 49.3547 161.039 49.3547C158.675 49.3547 156.759 49.3795 156.759 49.4101C156.759 49.4407 158.675 49.4655 161.039 49.4655Z" fill="white"/>
<path d="M168.998 49.4655C170.073 49.4655 170.944 49.4407 170.944 49.4101C170.944 49.3795 170.073 49.3547 168.998 49.3547C167.924 49.3547 167.053 49.3795 167.053 49.4101C167.053 49.4407 167.924 49.4655 168.998 49.4655Z" fill="white"/>
<path d="M161.039 53.5937C163.403 53.5937 165.32 53.5689 165.32 53.5383C165.32 53.5077 163.403 53.4829 161.039 53.4829C158.675 53.4829 156.759 53.5077 156.759 53.5383C156.759 53.5689 158.675 53.5937 161.039 53.5937Z" fill="white"/>
<path d="M168.998 53.5937C170.073 53.5937 170.944 53.5689 170.944 53.5383C170.944 53.5077 170.073 53.4829 168.998 53.4829C167.924 53.4829 167.053 53.5077 167.053 53.5383C167.053 53.5689 167.924 53.5937 168.998 53.5937Z" fill="white"/>
<path d="M161.039 57.7218C163.403 57.7218 165.32 57.697 165.32 57.6665C165.32 57.6359 163.403 57.6111 161.039 57.6111C158.675 57.6111 156.759 57.6359 156.759 57.6665C156.759 57.697 158.675 57.7218 161.039 57.7218Z" fill="white"/>
<path d="M168.998 57.7218C170.073 57.7218 170.944 57.697 170.944 57.6665C170.944 57.6359 170.073 57.6111 168.998 57.6111C167.924 57.6111 167.053 57.6359 167.053 57.6665C167.053 57.697 167.924 57.7218 168.998 57.7218Z" fill="white"/>
<path d="M161.039 61.85C163.403 61.85 165.32 61.8252 165.32 61.7946C165.32 61.764 163.403 61.7393 161.039 61.7393C158.675 61.7393 156.759 61.764 156.759 61.7946C156.759 61.8252 158.675 61.85 161.039 61.85Z" fill="white"/>
<path d="M168.998 61.85C170.073 61.85 170.944 61.8252 170.944 61.7946C170.944 61.764 170.073 61.7393 168.998 61.7393C167.924 61.7393 167.053 61.764 167.053 61.7946C167.053 61.8252 167.924 61.85 168.998 61.85Z" fill="white"/>
<path d="M161.039 65.9779C163.403 65.9779 165.32 65.9531 165.32 65.9226C165.32 65.892 163.403 65.8672 161.039 65.8672C158.675 65.8672 156.759 65.892 156.759 65.9226C156.759 65.9531 158.675 65.9779 161.039 65.9779Z" fill="white"/>
<path d="M168.998 65.9779C170.073 65.9779 170.944 65.9531 170.944 65.9226C170.944 65.892 170.073 65.8672 168.998 65.8672C167.924 65.8672 167.053 65.892 167.053 65.9226C167.053 65.9531 167.924 65.9779 168.998 65.9779Z" fill="white"/>
<path d="M161.039 70.1059C163.403 70.1059 165.32 70.0811 165.32 70.0505C165.32 70.0199 163.403 69.9951 161.039 69.9951C158.675 69.9951 156.759 70.0199 156.759 70.0505C156.759 70.0811 158.675 70.1059 161.039 70.1059Z" fill="white"/>
<path d="M168.998 70.1059C170.073 70.1059 170.944 70.0811 170.944 70.0505C170.944 70.0199 170.073 69.9951 168.998 69.9951C167.924 69.9951 167.053 70.0199 167.053 70.0505C167.053 70.0811 167.924 70.1059 168.998 70.1059Z" fill="white"/>
<path d="M161.039 33.1723C163.403 33.1723 165.32 33.1476 165.32 33.1172C165.32 33.0867 163.403 33.062 161.039 33.062C158.675 33.062 156.759 33.0867 156.759 33.1172C156.759 33.1476 158.675 33.1723 161.039 33.1723Z" fill="white"/>
<path d="M161.039 29.0409C163.403 29.0409 165.32 29.0161 165.32 28.9856C165.32 28.955 163.403 28.9302 161.039 28.9302C158.675 28.9302 156.759 28.955 156.759 28.9856C156.759 29.0161 158.675 29.0409 161.039 29.0409Z" fill="white"/>
<path d="M161.039 24.9096C163.403 24.9096 165.32 24.8848 165.32 24.8542C165.32 24.8236 163.403 24.7988 161.039 24.7988C158.675 24.7988 156.759 24.8236 156.759 24.8542C156.759 24.8848 158.675 24.9096 161.039 24.9096Z" fill="white"/>
<path d="M161.039 37.2104C163.403 37.2104 165.32 37.1857 165.32 37.1553C165.32 37.1248 163.403 37.1001 161.039 37.1001C158.675 37.1001 156.759 37.1248 156.759 37.1553C156.759 37.1857 158.675 37.2104 161.039 37.2104Z" fill="white"/>
<path d="M161.039 41.249C163.403 41.249 165.32 41.2243 165.32 41.1938C165.32 41.1634 163.403 41.1387 161.039 41.1387C158.675 41.1387 156.759 41.1634 156.759 41.1938C156.759 41.2243 158.675 41.249 161.039 41.249Z" fill="white"/>
<path d="M161.039 45.2873C163.403 45.2873 165.32 45.2625 165.32 45.2319C165.32 45.2013 163.403 45.1765 161.039 45.1765C158.675 45.1765 156.759 45.2013 156.759 45.2319C156.759 45.2625 158.675 45.2873 161.039 45.2873Z" fill="white"/>
<path d="M160.891 20.8612C163.245 20.8612 165.153 20.8365 165.153 20.8059C165.153 20.7753 163.245 20.7505 160.891 20.7505C158.538 20.7505 156.63 20.7753 156.63 20.8059C156.63 20.8365 158.538 20.8612 160.891 20.8612Z" fill="white"/>
<path d="M168.998 20.8612C170.073 20.8612 170.944 20.8365 170.944 20.8059C170.944 20.7753 170.073 20.7505 168.998 20.7505C167.924 20.7505 167.053 20.7753 167.053 20.8059C167.053 20.8365 167.924 20.8612 168.998 20.8612Z" fill="white"/>
<path d="M168.998 24.9094C170.073 24.9094 170.944 24.8847 170.944 24.8542C170.944 24.8238 170.073 24.7991 168.998 24.7991C167.924 24.7991 167.053 24.8238 167.053 24.8542C167.053 24.8847 167.924 24.9094 168.998 24.9094Z" fill="white"/>
<path d="M168.998 28.9582C170.073 28.9582 170.944 28.9334 170.944 28.9028C170.944 28.8722 170.073 28.8474 168.998 28.8474C167.924 28.8474 167.053 28.8722 167.053 28.9028C167.053 28.9334 167.924 28.9582 168.998 28.9582Z" fill="white"/>
<path d="M168.998 33.1723C170.073 33.1723 170.944 33.1476 170.944 33.1172C170.944 33.0867 170.073 33.062 168.998 33.062C167.924 33.062 167.053 33.0867 167.053 33.1172C167.053 33.1476 167.924 33.1723 168.998 33.1723Z" fill="white"/>
<path d="M168.998 37.2104C170.073 37.2104 170.944 37.1857 170.944 37.1553C170.944 37.1248 170.073 37.1001 168.998 37.1001C167.924 37.1001 167.053 37.1248 167.053 37.1553C167.053 37.1857 167.924 37.2104 168.998 37.2104Z" fill="white"/>
<path d="M168.998 41.2638C170.073 41.2638 170.944 41.239 170.944 41.2085C170.944 41.1779 170.073 41.1531 168.998 41.1531C167.924 41.1531 167.053 41.1779 167.053 41.2085C167.053 41.239 167.924 41.2638 168.998 41.2638Z" fill="white"/>
<path d="M168.998 45.3171C170.073 45.3171 170.944 45.2924 170.944 45.262C170.944 45.2315 170.073 45.2068 168.998 45.2068C167.924 45.2068 167.053 45.2315 167.053 45.262C167.053 45.2924 167.924 45.3171 168.998 45.3171Z" fill="white"/>
<path d="M145.933 38.2532H123.053V94.1551H145.933V38.2532Z" fill="#FF725E"/>
<path d="M133.988 40.5498H132.197V91.9317H133.988V40.5498Z" fill="#455A64"/>
<path d="M136.509 40.5498H134.718V91.9317H136.509V40.5498Z" fill="#455A64"/>
<path d="M139.03 40.5498H137.239V91.9317H139.03V40.5498Z" fill="#455A64"/>
<path d="M126.404 40.5498H124.613V91.9317H126.404V40.5498Z" fill="#455A64"/>
<path d="M128.925 40.5498H127.134V91.9317H128.925V40.5498Z" fill="#455A64"/>
<path d="M141.551 40.5498H139.76V91.9317H141.551V40.5498Z" fill="#455A64"/>
<path d="M144.072 40.5498H142.281V91.9317H144.072V40.5498Z" fill="#455A64"/>
<g opacity="0.3">
<path d="M130.39 38.2532H123.053V94.1551H130.39V38.2532Z" fill="black"/>
</g>
<path d="M138.317 46.8319C138.626 46.5237 138.858 46.2563 138.836 46.2348C138.815 46.2133 138.547 46.4457 138.239 46.7539C137.931 47.0621 137.699 47.3295 137.72 47.351C137.742 47.3726 138.009 47.1402 138.317 46.8319Z" fill="white"/>
<path d="M140.711 48.1601C140.929 47.9515 141.088 47.7645 141.067 47.7425C141.046 47.7204 140.852 47.8716 140.635 48.0801C140.417 48.2887 140.258 48.4757 140.279 48.4977C140.3 48.5198 140.494 48.3686 140.711 48.1601Z" fill="white"/>
<path d="M142.99 44.9577C143.198 44.7583 143.35 44.5788 143.329 44.5567C143.308 44.5346 143.122 44.6783 142.913 44.8777C142.705 45.0771 142.553 45.2567 142.574 45.2788C142.595 45.3009 142.781 45.1571 142.99 44.9577Z" fill="white"/>
<path d="M188.511 30.6953H176.964V33.753H188.511V30.6953Z" fill="#263238"/>
<path d="M188.025 31.0801H177.45V33.0603H188.025V31.0801Z" fill="#455A64"/>
<g opacity="0.3">
<path d="M188.025 31.0801H177.45V33.0603H188.025V31.0801Z" fill="white"/>
</g>
<path d="M190.034 33.3042H175.2V70.8756H190.034V33.3042Z" fill="#263238"/>
<path d="M189.146 34.1738H175.996V70.8757H189.146V34.1738Z" fill="#455A64"/>
<g opacity="0.3">
<path d="M175.996 51.3859H178.66V47.2477H180.805V43.9027H185.095V54.4514H187.24V39.4939H189.146V34.1738H175.996V51.3859Z" fill="white"/>
</g>
<path d="M189.752 38.0351C189.752 38.0657 186.599 38.0905 182.711 38.0905C178.822 38.0905 175.67 38.0657 175.67 38.0351C175.67 38.0046 178.822 37.98 182.711 37.98C186.599 37.98 189.752 38.0048 189.752 38.0351Z" fill="#263238"/>
<path d="M189.752 41.8005C189.752 41.8311 186.599 41.8557 182.711 41.8557C178.822 41.8557 175.67 41.8309 175.67 41.8005C175.67 41.77 178.822 41.7454 182.711 41.7454C186.599 41.7454 189.752 41.77 189.752 41.8005Z" fill="#263238"/>
<path d="M189.752 45.5656C189.752 45.5962 186.599 45.6208 182.711 45.6208C178.822 45.6208 175.67 45.5962 175.67 45.5656C175.67 45.5351 178.822 45.5103 182.711 45.5103C186.599 45.5105 189.752 45.5353 189.752 45.5656Z" fill="#263238"/>
<path d="M189.752 49.3313C189.752 49.3618 186.599 49.3866 182.711 49.3866C178.822 49.3866 175.67 49.3618 175.67 49.3313C175.67 49.3007 178.822 49.2759 182.711 49.2759C186.599 49.2759 189.752 49.3007 189.752 49.3313Z" fill="#263238"/>
<path d="M189.752 53.0967C189.752 53.1274 186.599 53.152 182.711 53.152C178.822 53.152 175.67 53.1274 175.67 53.0967C175.67 53.0661 178.822 53.0415 182.711 53.0415C186.599 53.0415 189.752 53.0661 189.752 53.0967Z" fill="#263238"/>
<path d="M189.752 56.8618C189.752 56.8926 186.599 56.9172 182.711 56.9172C178.822 56.9172 175.67 56.8926 175.67 56.8618C175.67 56.8313 178.822 56.8066 182.711 56.8066C186.599 56.8066 189.752 56.8313 189.752 56.8618Z" fill="#263238"/>
<path d="M189.752 60.6274C189.752 60.6579 186.599 60.6826 182.711 60.6826C178.822 60.6826 175.67 60.6579 175.67 60.6274C175.67 60.5968 178.822 60.572 182.711 60.572C186.599 60.572 189.752 60.5968 189.752 60.6274Z" fill="#263238"/>
<path d="M189.752 64.3923C189.752 64.4228 186.599 64.4477 182.711 64.4477C178.822 64.4477 175.67 64.4228 175.67 64.3923C175.67 64.3617 178.822 64.3369 182.711 64.3369C186.599 64.3369 189.752 64.3617 189.752 64.3923Z" fill="#263238"/>
<path d="M189.752 68.1577C189.752 68.1885 186.599 68.2131 182.711 68.2131C178.822 68.2131 175.67 68.1885 175.67 68.1577C175.67 68.1272 178.822 68.1025 182.711 68.1025C186.599 68.1025 189.752 68.1272 189.752 68.1577Z" fill="#263238"/>
<path d="M178.989 71.6591C178.959 71.6591 178.934 62.5387 178.934 51.2904C178.934 40.0381 178.959 30.9197 178.989 30.9197C179.02 30.9197 179.045 40.0383 179.045 51.2904C179.045 62.5387 179.02 71.6591 178.989 71.6591Z" fill="#263238"/>
<path d="M182.806 71.6591C182.775 71.6591 182.751 62.5387 182.751 51.2904C182.751 40.0381 182.775 30.9197 182.806 30.9197C182.837 30.9197 182.861 40.0383 182.861 51.2904C182.861 62.5387 182.837 71.6591 182.806 71.6591Z" fill="#263238"/>
<path d="M186.623 71.6591C186.592 71.6591 186.568 62.5387 186.568 51.2904C186.568 40.0381 186.592 30.9197 186.623 30.9197C186.653 30.9197 186.678 40.0383 186.678 51.2904C186.678 62.5387 186.653 71.6591 186.623 71.6591Z" fill="#263238"/>
<path d="M176.964 30.6953H175.294V33.3042H176.964V30.6953Z" fill="#263238"/>
<g opacity="0.3">
<path d="M176.964 30.6953H175.294V33.3042H176.964V30.6953Z" fill="black"/>
</g>
<path d="M175.273 33.3279H173.603V64.9478H175.273V33.3279Z" fill="#263238"/>
<g opacity="0.3">
<path d="M175.273 33.3279H173.603V64.9478H175.273V33.3279Z" fill="black"/>
</g>
<path d="M181.165 39.8201C181.788 39.2333 182.276 38.7396 182.255 38.7173C182.234 38.695 181.712 39.1527 181.089 39.7395C180.466 40.3263 179.978 40.82 179.999 40.8423C180.02 40.8646 180.542 40.4069 181.165 39.8201Z" fill="white"/>
<path d="M184.698 39.7535C185.321 39.1667 185.809 38.6729 185.788 38.6506C185.767 38.6284 185.245 39.086 184.622 39.6728C183.999 40.2597 183.511 40.7534 183.532 40.7757C183.553 40.7979 184.075 40.3403 184.698 39.7535Z" fill="white"/>
<path d="M184.758 36.7605C185.38 36.1737 185.868 35.68 185.848 35.6578C185.827 35.6356 185.305 36.0934 184.682 36.6802C184.059 37.267 183.571 37.7607 183.592 37.7828C183.613 37.805 184.135 37.3473 184.758 36.7605Z" fill="white"/>
<path d="M214.426 84.7807H194.76V49.7634L214.426 40.1812V84.7807Z" fill="#455A64"/>
<path d="M204.413 64.9277H202.644V67.4694H204.413V64.9277Z" fill="#EBEBEB"/>
<g opacity="0.3">
<path d="M202.644 64.9277V65.243H204.115V67.4696H204.413V64.9277H202.644Z" fill="black"/>
</g>
<path d="M204.413 69.8469H202.644V72.3886H204.413V69.8469Z" fill="#EBEBEB"/>
<g opacity="0.3">
<path d="M202.644 69.8469V70.162H204.115V72.3886H204.413V69.8469H202.644Z" fill="black"/>
</g>
<path d="M204.413 74.7664H202.644V77.308H204.413V74.7664Z" fill="#EBEBEB"/>
<g opacity="0.3">
<path d="M202.644 74.7664V75.0814H204.115V77.308H204.413V74.7664H202.644Z" fill="black"/>
</g>
<path d="M204.413 59.8894H202.644V62.4311H204.413V59.8894Z" fill="#EBEBEB"/>
<g opacity="0.3">
<path d="M202.644 59.8894V60.2047H204.115V62.4313H204.413V59.8894H202.644Z" fill="black"/>
</g>
<path d="M204.413 54.8513H202.644V57.393H204.413V54.8513Z" fill="#EBEBEB"/>
<g opacity="0.3">
<path d="M202.644 54.8513V55.1666H204.115V57.3932H204.413V54.8513H202.644Z" fill="black"/>
</g>
<path d="M204.413 49.813H202.644V52.3546H204.413V49.813Z" fill="#EBEBEB"/>
<g opacity="0.3">
<path d="M202.644 49.813V50.1281H204.115V52.3549H204.413V49.813H202.644Z" fill="black"/>
</g>
<path d="M208.42 64.8169H206.651V67.3585H208.42V64.8169Z" fill="#EBEBEB"/>
<g opacity="0.3">
<path d="M206.651 64.8169V65.132H208.121V67.3585H208.42V64.8169H206.651Z" fill="black"/>
</g>
<path d="M208.42 69.7363H206.651V72.278H208.42V69.7363Z" fill="#EBEBEB"/>
<g opacity="0.3">
<path d="M206.651 69.7363V70.0516H208.121V72.2782H208.42V69.7363H206.651Z" fill="black"/>
</g>
<path d="M208.42 74.6555H206.651V77.1972H208.42V74.6555Z" fill="#EBEBEB"/>
<g opacity="0.3">
<path d="M206.651 74.6555V74.9706H208.121V77.1974H208.42V74.6555H206.651Z" fill="black"/>
</g>
<path d="M208.42 59.7788H206.651V62.3205H208.42V59.7788Z" fill="#EBEBEB"/>
<g opacity="0.3">
<path d="M206.651 59.7788V60.0939H208.121V62.3205H208.42V59.7788H206.651Z" fill="black"/>
</g>
<path d="M208.42 54.7405H206.651V57.2821H208.42V54.7405Z" fill="#EBEBEB"/>
<g opacity="0.3">
<path d="M206.651 54.7405V55.0556H208.121V57.2821H208.42V54.7405H206.651Z" fill="black"/>
</g>
<path d="M208.42 49.7021H206.651V52.2438H208.42V49.7021Z" fill="#EBEBEB"/>
<g opacity="0.3">
<path d="M206.651 49.7021V50.0172H208.121V52.2438H208.42V49.7021H206.651Z" fill="black"/>
</g>
<path d="M212.427 64.9006H210.658V67.4423H212.427V64.9006Z" fill="#EBEBEB"/>
<g opacity="0.3">
<path d="M210.658 64.9006V65.2159H212.128V67.4425H212.427V64.9006H210.658Z" fill="black"/>
</g>
<path d="M212.427 69.8198H210.658V72.3615H212.427V69.8198Z" fill="#EBEBEB"/>
<g opacity="0.3">
<path d="M210.658 69.8198V70.1349H212.128V72.3617H212.427V69.8198H210.658Z" fill="black"/>
</g>
<path d="M212.427 74.7393H210.658V77.2809H212.427V74.7393Z" fill="#EBEBEB"/>
<g opacity="0.3">
<path d="M210.658 74.7393V75.0541H212.128V77.2809H212.427V74.7393H210.658Z" fill="black"/>
</g>
<path d="M212.427 59.8621H210.658V62.4037H212.427V59.8621Z" fill="#EBEBEB"/>
<g opacity="0.3">
<path d="M210.658 59.8621V60.1774H212.128V62.4039H212.427V59.8621H210.658Z" fill="black"/>
</g>
<path d="M212.427 54.8242H210.658V57.3659H212.427V54.8242Z" fill="#EBEBEB"/>
<g opacity="0.3">
<path d="M210.658 54.8242V55.1393H212.128V57.3659H212.427V54.8242H210.658Z" fill="black"/>
</g>
<path d="M212.427 49.7856H210.658V52.3273H212.427V49.7856Z" fill="#EBEBEB"/>
<g opacity="0.3">
<path d="M210.658 49.7856V50.1009H212.128V52.3275H212.427V49.7856H210.658Z" fill="black"/>
</g>
<path d="M212.427 45.4907H210.658V48.0326H212.427V45.4907Z" fill="#EBEBEB"/>
<g opacity="0.3">
<path d="M210.658 45.4907V45.8058H212.128V48.0326H212.427V45.4907H210.658Z" fill="black"/>
</g>
<path d="M198.777 50.5964H198.157V53.1381H198.777V50.5964Z" fill="#263238"/>
<path d="M198.865 53.1384H197.733V53.5216H198.865V53.1384Z" fill="white"/>
<path d="M198.777 55.439H198.157V57.9806H198.777V55.439Z" fill="#263238"/>
<path d="M198.865 57.981H197.733V58.3641H198.865V57.981Z" fill="white"/>
<path d="M198.777 60.2815H198.157V62.8231H198.777V60.2815Z" fill="#263238"/>
<path d="M198.865 62.8232H197.733V63.2064H198.865V62.8232Z" fill="white"/>
<path d="M198.777 65.124H198.157V67.6659H198.777V65.124Z" fill="#263238"/>
<path d="M198.865 67.6663H197.733V68.0492H198.865V67.6663Z" fill="white"/>
<path d="M198.839 69.8408H198.219V72.3825H198.839V69.8408Z" fill="#263238"/>
<path d="M198.926 72.3826H197.795V72.7655H198.926V72.3826Z" fill="white"/>
<path d="M198.9 74.5571H198.281V77.0988H198.9V74.5571Z" fill="#263238"/>
<path d="M196.883 50.5964H196.263V53.1381H196.883V50.5964Z" fill="#263238"/>
<path d="M196.97 53.1384H195.839V53.5216H196.97V53.1384Z" fill="white"/>
<path d="M196.883 55.439H196.263V57.9806H196.883V55.439Z" fill="#263238"/>
<path d="M196.97 57.981H195.839V58.3641H196.97V57.981Z" fill="white"/>
<path d="M196.883 60.2815H196.263V62.8231H196.883V60.2815Z" fill="#263238"/>
<path d="M196.97 62.8232H195.839V63.2064H196.97V62.8232Z" fill="white"/>
<path d="M196.883 65.124H196.263V67.6659H196.883V65.124Z" fill="#263238"/>
<path d="M196.97 67.6663H195.839V68.0492H196.97V67.6663Z" fill="white"/>
<path d="M196.944 69.8408H196.324V72.3825H196.944V69.8408Z" fill="#263238"/>
<path d="M197.032 72.3826H195.9V72.7655H197.032V72.3826Z" fill="white"/>
<path d="M197.006 74.5571H196.386V77.0988H197.006V74.5571Z" fill="#263238"/>
<g opacity="0.3">
<path d="M200.326 84.8008H194.761V49.7634L200.454 46.989L200.326 84.8008Z" fill="black"/>
</g>
<path d="M163.98 48.9468H147.174V94.2357H163.98V48.9468Z" fill="#E0E0E0"/>
<path d="M154.808 50.6702H153.704V52.2566H154.808V50.6702Z" fill="#455A64"/>
<g opacity="0.3">
<path d="M153.704 50.6702V50.8671H154.622V52.2566H154.808V50.6702H153.704Z" fill="black"/>
</g>
<path d="M156.501 50.6702H155.397V52.2566H156.501V50.6702Z" fill="#455A64"/>
<g opacity="0.3">
<path d="M155.397 50.6702V50.8671H156.315V52.2566H156.501V50.6702H155.397Z" fill="black"/>
</g>
<path d="M158.195 50.6702H157.091V52.2566H158.195V50.6702Z" fill="#455A64"/>
<g opacity="0.3">
<path d="M157.091 50.6702V50.8671H158.008V52.2566H158.195V50.6702H157.091Z" fill="black"/>
</g>
<path d="M159.888 50.6702H158.784V52.2566H159.888V50.6702Z" fill="#455A64"/>
<g opacity="0.3">
<path d="M158.784 50.6702V50.8671H159.702V52.2566H159.888V50.6702H158.784Z" fill="black"/>
</g>
<path d="M161.581 50.6702H160.477V52.2566H161.581V50.6702Z" fill="#455A64"/>
<g opacity="0.3">
<path d="M160.477 50.6702V50.8671H161.395V52.2566H161.581V50.6702H160.477Z" fill="black"/>
</g>
<path d="M163.275 50.6702H162.171V52.2566H163.275V50.6702Z" fill="#455A64"/>
<g opacity="0.3">
<path d="M162.171 50.6702V50.8671H163.089V52.2566H163.275V50.6702H162.171Z" fill="black"/>
</g>
<path d="M148.982 50.6702H147.878V52.2566H148.982V50.6702Z" fill="#455A64"/>
<g opacity="0.3">
<path d="M147.878 50.6702V50.8671H148.796V52.2566H148.982V50.6702H147.878Z" fill="black"/>
</g>
<path d="M150.676 50.6702H149.572V52.2566H150.676V50.6702Z" fill="#455A64"/>
<g opacity="0.3">
<path d="M149.572 50.6702V50.8671H150.49V52.2566H150.676V50.6702H149.572Z" fill="black"/>
</g>
<path d="M152.369 50.6702H151.265V52.2566H152.369V50.6702Z" fill="#455A64"/>
<g opacity="0.3">
<path d="M151.265 50.6702V50.8671H152.183V52.2566H152.369V50.6702H151.265Z" fill="black"/>
</g>
<path d="M154.808 53.0254H153.704V54.6116H154.808V53.0254Z" fill="#455A64"/>
<g opacity="0.3">
<path d="M153.704 53.0254V53.2219H154.622V54.6114H154.808V53.0254H153.704Z" fill="black"/>
</g>
<path d="M156.501 53.0254H155.397V54.6116H156.501V53.0254Z" fill="#455A64"/>
<g opacity="0.3">
<path d="M155.397 53.0254V53.2219H156.315V54.6114H156.501V53.0254H155.397Z" fill="black"/>
</g>
<path d="M158.195 53.0254H157.091V54.6116H158.195V53.0254Z" fill="#455A64"/>
<g opacity="0.3">
<path d="M157.091 53.0254V53.2219H158.008V54.6114H158.195V53.0254H157.091Z" fill="black"/>
</g>
<path d="M159.888 53.0254H158.784V54.6116H159.888V53.0254Z" fill="#455A64"/>
<g opacity="0.3">
<path d="M158.784 53.0254V53.2219H159.702V54.6114H159.888V53.0254H158.784Z" fill="black"/>
</g>
<path d="M161.581 53.0254H160.477V54.6116H161.581V53.0254Z" fill="#455A64"/>
<g opacity="0.3">
<path d="M160.477 53.0254V53.2219H161.395V54.6114H161.581V53.0254H160.477Z" fill="black"/>
</g>
<path d="M163.275 53.0254H162.171V54.6116H163.275V53.0254Z" fill="#455A64"/>
<g opacity="0.3">
<path d="M162.171 53.0254V53.2219H163.089V54.6114H163.275V53.0254H162.171Z" fill="black"/>
</g>
<path d="M148.982 53.0254H147.878V54.6116H148.982V53.0254Z" fill="#455A64"/>
<g opacity="0.3">
<path d="M147.878 53.0254V53.2219H148.796V54.6114H148.982V53.0254H147.878Z" fill="black"/>
</g>
<path d="M150.676 53.0254H149.572V54.6116H150.676V53.0254Z" fill="#455A64"/>
<g opacity="0.3">
<path d="M149.572 53.0254V53.2219H150.49V54.6114H150.676V53.0254H149.572Z" fill="black"/>
</g>
<path d="M152.369 53.0254H151.265V54.6116H152.369V53.0254Z" fill="#455A64"/>
<g opacity="0.3">
<path d="M151.265 53.0254V53.2219H152.183V54.6114H152.369V53.0254H151.265Z" fill="black"/>
</g>
<path d="M154.808 55.3804H153.704V56.9666H154.808V55.3804Z" fill="#455A64"/>
<g opacity="0.3">
<path d="M153.704 55.3804V55.5771H154.622V56.9666H154.808V55.3804H153.704Z" fill="black"/>
</g>
<path d="M156.501 55.3804H155.397V56.9666H156.501V55.3804Z" fill="#455A64"/>
<g opacity="0.3">
<path d="M155.397 55.3804V55.5771H156.315V56.9666H156.501V55.3804H155.397Z" fill="black"/>
</g>
<path d="M158.195 55.3804H157.091V56.9666H158.195V55.3804Z" fill="#455A64"/>
<g opacity="0.3">
<path d="M157.091 55.3804V55.5771H158.008V56.9666H158.195V55.3804H157.091Z" fill="black"/>
</g>
<path d="M159.888 55.3804H158.784V56.9666H159.888V55.3804Z" fill="#455A64"/>
<g opacity="0.3">
<path d="M158.784 55.3804V55.5771H159.702V56.9666H159.888V55.3804H158.784Z" fill="black"/>
</g>
<path d="M161.581 55.3804H160.477V56.9666H161.581V55.3804Z" fill="#455A64"/>
<g opacity="0.3">
<path d="M160.477 55.3804V55.5771H161.395V56.9666H161.581V55.3804H160.477Z" fill="black"/>
</g>
<path d="M163.275 55.3804H162.171V56.9666H163.275V55.3804Z" fill="#455A64"/>
<g opacity="0.3">
<path d="M162.171 55.3804V55.5771H163.089V56.9666H163.275V55.3804H162.171Z" fill="black"/>
</g>
<path d="M148.982 55.3804H147.878V56.9666H148.982V55.3804Z" fill="#455A64"/>
<g opacity="0.3">
<path d="M147.878 55.3804V55.5771H148.796V56.9666H148.982V55.3804H147.878Z" fill="black"/>
</g>
<path d="M150.676 55.3804H149.572V56.9666H150.676V55.3804Z" fill="#455A64"/>
<g opacity="0.3">
<path d="M149.572 55.3804V55.5771H150.49V56.9666H150.676V55.3804H149.572Z" fill="black"/>
</g>
<path d="M152.369 55.3804H151.265V56.9666H152.369V55.3804Z" fill="#455A64"/>
<g opacity="0.3">
<path d="M151.265 55.3804V55.5771H152.183V56.9666H152.369V55.3804H151.265Z" fill="black"/>
</g>
<g opacity="0.4">
<path d="M148.982 50.6702H147.878V52.2566H148.982V50.6702Z" fill="white"/>
<g opacity="0.3">
<path d="M147.878 50.6702V50.8671H148.796V52.2566H148.982V50.6702H147.878Z" fill="white"/>
</g>
</g>
<g opacity="0.4">
<path d="M150.676 50.6702H149.572V52.2566H150.676V50.6702Z" fill="white"/>
<g opacity="0.3">
<path d="M149.572 50.6702V50.8671H150.49V52.2566H150.676V50.6702H149.572Z" fill="white"/>
</g>
</g>
<g opacity="0.4">
<path d="M152.369 50.6702H151.265V52.2566H152.369V50.6702Z" fill="white"/>
<g opacity="0.3">
<path d="M151.265 50.6702V50.8671H152.183V52.2566H152.369V50.6702H151.265Z" fill="white"/>
</g>
</g>
<g opacity="0.4">
<path d="M148.982 53.0254H147.878V54.6116H148.982V53.0254Z" fill="white"/>
<g opacity="0.3">
<path d="M147.878 53.0254V53.2219H148.796V54.6114H148.982V53.0254H147.878Z" fill="white"/>
</g>
</g>
<g opacity="0.4">
<path d="M150.676 53.0254H149.572V54.6116H150.676V53.0254Z" fill="white"/>
<g opacity="0.3">
<path d="M149.572 53.0254V53.2219H150.49V54.6114H150.676V53.0254H149.572Z" fill="white"/>
</g>
</g>
<g opacity="0.4">
<path d="M152.369 53.0254H151.265V54.6116H152.369V53.0254Z" fill="white"/>
<g opacity="0.3">
<path d="M151.265 53.0254V53.2219H152.183V54.6114H152.369V53.0254H151.265Z" fill="white"/>
</g>
</g>
<g opacity="0.4">
<path d="M148.982 55.3804H147.878V56.9666H148.982V55.3804Z" fill="white"/>
<g opacity="0.3">
<path d="M147.878 55.3804V55.5771H148.796V56.9666H148.982V55.3804H147.878Z" fill="white"/>
</g>
</g>
<g opacity="0.4">
<path d="M152.369 55.3804H151.265V56.9666H152.369V55.3804Z" fill="white"/>
<g opacity="0.3">
<path d="M151.265 55.3804V55.5771H152.183V56.9666H152.369V55.3804H151.265Z" fill="white"/>
</g>
</g>
<path d="M154.808 57.7358H153.704V59.3221H154.808V57.7358Z" fill="#455A64"/>
<g opacity="0.3">
<path d="M153.704 57.7358V57.9325H154.622V59.3219H154.808V57.7358H153.704Z" fill="black"/>
</g>
<path d="M156.501 57.7358H155.397V59.3221H156.501V57.7358Z" fill="#455A64"/>
<g opacity="0.3">
<path d="M155.397 57.7358V57.9325H156.315V59.3219H156.501V57.7358H155.397Z" fill="black"/>
</g>
<path d="M158.195 57.7358H157.091V59.3221H158.195V57.7358Z" fill="#455A64"/>
<g opacity="0.3">
<path d="M157.091 57.7358V57.9325H158.008V59.3219H158.195V57.7358H157.091Z" fill="black"/>
</g>
<path d="M159.888 57.7358H158.784V59.3221H159.888V57.7358Z" fill="#455A64"/>
<g opacity="0.3">
<path d="M158.784 57.7358V57.9325H159.702V59.3219H159.888V57.7358H158.784Z" fill="black"/>
</g>
<path d="M161.581 57.7358H160.477V59.3221H161.581V57.7358Z" fill="#455A64"/>
<g opacity="0.3">
<path d="M160.477 57.7358V57.9325H161.395V59.3219H161.581V57.7358H160.477Z" fill="black"/>
</g>
<path d="M163.275 57.7358H162.171V59.3221H163.275V57.7358Z" fill="#455A64"/>
<g opacity="0.3">
<path d="M162.171 57.7358V57.9325H163.089V59.3219H163.275V57.7358H162.171Z" fill="black"/>
</g>
<path d="M148.982 57.7358H147.878V59.3221H148.982V57.7358Z" fill="#455A64"/>
<g opacity="0.3">
<path d="M147.878 57.7358V57.9325H148.796V59.3219H148.982V57.7358H147.878Z" fill="black"/>
</g>
<path d="M150.676 57.7358H149.572V59.3221H150.676V57.7358Z" fill="#455A64"/>
<g opacity="0.3">
<path d="M149.572 57.7358V57.9325H150.49V59.3219H150.676V57.7358H149.572Z" fill="black"/>
</g>
<path d="M152.369 57.7358H151.265V59.3221H152.369V57.7358Z" fill="#455A64"/>
<g opacity="0.3">
<path d="M151.265 57.7358V57.9325H152.183V59.3219H152.369V57.7358H151.265Z" fill="black"/>
</g>
<path d="M154.808 60.0908H153.704V61.677H154.808V60.0908Z" fill="#455A64"/>
<g opacity="0.3">
<path d="M153.704 60.0908V60.2873H154.622V61.6768H154.808V60.0908H153.704Z" fill="black"/>
</g>
<path d="M156.501 60.0908H155.397V61.677H156.501V60.0908Z" fill="#455A64"/>
<g opacity="0.3">
<path d="M155.397 60.0908V60.2873H156.315V61.6768H156.501V60.0908H155.397Z" fill="black"/>
</g>
<path d="M158.195 60.0908H157.091V61.677H158.195V60.0908Z" fill="#455A64"/>
<g opacity="0.3">
<path d="M157.091 60.0908V60.2873H158.008V61.6768H158.195V60.0908H157.091Z" fill="black"/>
</g>
<path d="M159.888 60.0908H158.784V61.677H159.888V60.0908Z" fill="#455A64"/>
<g opacity="0.3">
<path d="M158.784 60.0908V60.2873H159.702V61.6768H159.888V60.0908H158.784Z" fill="black"/>
</g>
<path d="M161.581 60.0908H160.477V61.677H161.581V60.0908Z" fill="#455A64"/>
<g opacity="0.3">
<path d="M160.477 60.0908V60.2873H161.395V61.6768H161.581V60.0908H160.477Z" fill="black"/>
</g>
<path d="M163.275 60.0908H162.171V61.677H163.275V60.0908Z" fill="#455A64"/>
<g opacity="0.3">
<path d="M162.171 60.0908V60.2873H163.089V61.6768H163.275V60.0908H162.171Z" fill="black"/>
</g>
<path d="M148.982 60.0908H147.878V61.677H148.982V60.0908Z" fill="#455A64"/>
<g opacity="0.3">
<path d="M147.878 60.0908V60.2873H148.796V61.6768H148.982V60.0908H147.878Z" fill="black"/>
</g>
<path d="M150.676 60.0908H149.572V61.677H150.676V60.0908Z" fill="#455A64"/>
<g opacity="0.3">
<path d="M149.572 60.0908V60.2873H150.49V61.6768H150.676V60.0908H149.572Z" fill="black"/>
</g>
<path d="M152.369 60.0908H151.265V61.677H152.369V60.0908Z" fill="#455A64"/>
<g opacity="0.3">
<path d="M151.265 60.0908V60.2873H152.183V61.6768H152.369V60.0908H151.265Z" fill="black"/>
</g>
<path d="M154.808 62.4458H153.704V64.0322H154.808V62.4458Z" fill="#455A64"/>
<g opacity="0.3">
<path d="M153.704 62.4458V62.6427H154.622V64.0322H154.808V62.4458H153.704Z" fill="black"/>
</g>
<path d="M156.501 62.4458H155.397V64.0322H156.501V62.4458Z" fill="#455A64"/>
<g opacity="0.3">
<path d="M155.397 62.4458V62.6427H156.315V64.0322H156.501V62.4458H155.397Z" fill="black"/>
</g>
<path d="M158.195 62.4458H157.091V64.0322H158.195V62.4458Z" fill="#455A64"/>
<g opacity="0.3">
<path d="M157.091 62.4458V62.6427H158.008V64.0322H158.195V62.4458H157.091Z" fill="black"/>
</g>
<path d="M159.888 62.4458H158.784V64.0322H159.888V62.4458Z" fill="#455A64"/>
<g opacity="0.3">
<path d="M158.784 62.4458V62.6427H159.702V64.0322H159.888V62.4458H158.784Z" fill="black"/>
</g>
<path d="M161.581 62.4458H160.477V64.0322H161.581V62.4458Z" fill="#455A64"/>
<g opacity="0.3">
<path d="M160.477 62.4458V62.6427H161.395V64.0322H161.581V62.4458H160.477Z" fill="black"/>
</g>
<path d="M163.275 62.4458H162.171V64.0322H163.275V62.4458Z" fill="#455A64"/>
<g opacity="0.3">
<path d="M162.171 62.4458V62.6427H163.089V64.0322H163.275V62.4458H162.171Z" fill="black"/>
</g>
<path d="M148.982 62.4458H147.878V64.0322H148.982V62.4458Z" fill="#455A64"/>
<g opacity="0.3">
<path d="M147.878 62.4458V62.6427H148.796V64.0322H148.982V62.4458H147.878Z" fill="black"/>
</g>
<path d="M150.676 62.4458H149.572V64.0322H150.676V62.4458Z" fill="#455A64"/>
<g opacity="0.3">
<path d="M149.572 62.4458V62.6427H150.49V64.0322H150.676V62.4458H149.572Z" fill="black"/>
</g>
<path d="M152.369 62.4458H151.265V64.0322H152.369V62.4458Z" fill="#455A64"/>
<g opacity="0.3">
<path d="M151.265 62.4458V62.6427H152.183V64.0322H152.369V62.4458H151.265Z" fill="black"/>
</g>
<path d="M154.808 65.9275H153.704V67.5137H154.808V65.9275Z" fill="#455A64"/>
<g opacity="0.3">
<path d="M153.704 65.9275V66.1242H154.622V67.5137H154.808V65.9275H153.704Z" fill="black"/>
</g>
<path d="M156.501 65.9275H155.397V67.5137H156.501V65.9275Z" fill="#455A64"/>
<g opacity="0.3">
<path d="M155.397 65.9275V66.1242H156.315V67.5137H156.501V65.9275H155.397Z" fill="black"/>
</g>
<path d="M158.195 65.9275H157.091V67.5137H158.195V65.9275Z" fill="#455A64"/>
<g opacity="0.3">
<path d="M157.091 65.9275V66.1242H158.008V67.5137H158.195V65.9275H157.091Z" fill="black"/>
</g>
<path d="M159.888 65.9275H158.784V67.5137H159.888V65.9275Z" fill="#455A64"/>
<g opacity="0.3">
<path d="M158.784 65.9275V66.1242H159.702V67.5137H159.888V65.9275H158.784Z" fill="black"/>
</g>
<path d="M161.581 65.9275H160.477V67.5137H161.581V65.9275Z" fill="#455A64"/>
<g opacity="0.3">
<path d="M160.477 65.9275V66.1242H161.395V67.5137H161.581V65.9275H160.477Z" fill="black"/>
</g>
<path d="M163.275 65.9275H162.171V67.5137H163.275V65.9275Z" fill="#455A64"/>
<g opacity="0.3">
<path d="M162.171 65.9275V66.1242H163.089V67.5137H163.275V65.9275H162.171Z" fill="black"/>
</g>
<path d="M148.982 65.9275H147.878V67.5137H148.982V65.9275Z" fill="#455A64"/>
<g opacity="0.3">
<path d="M147.878 65.9275V66.1242H148.796V67.5137H148.982V65.9275H147.878Z" fill="black"/>
</g>
<path d="M150.676 65.9275H149.572V67.5137H150.676V65.9275Z" fill="#455A64"/>
<g opacity="0.3">
<path d="M149.572 65.9275V66.1242H150.49V67.5137H150.676V65.9275H149.572Z" fill="black"/>
</g>
<path d="M152.369 65.9275H151.265V67.5137H152.369V65.9275Z" fill="#455A64"/>
<g opacity="0.3">
<path d="M151.265 65.9275V66.1242H152.183V67.5137H152.369V65.9275H151.265Z" fill="black"/>
</g>
<path d="M154.808 68.2019H153.704V69.7881H154.808V68.2019Z" fill="#455A64"/>
<g opacity="0.3">
<path d="M153.704 68.2019V68.3986H154.622V69.7881H154.808V68.2019H153.704Z" fill="black"/>
</g>
<path d="M156.501 68.2019H155.397V69.7881H156.501V68.2019Z" fill="#455A64"/>
<g opacity="0.3">
<path d="M155.397 68.2019V68.3986H156.315V69.7881H156.501V68.2019H155.397Z" fill="black"/>
</g>
<path d="M158.195 68.2019H157.091V69.7881H158.195V68.2019Z" fill="#455A64"/>
<g opacity="0.3">
<path d="M157.091 68.2019V68.3986H158.008V69.7881H158.195V68.2019H157.091Z" fill="black"/>
</g>
<path d="M159.888 68.2019H158.784V69.7881H159.888V68.2019Z" fill="#455A64"/>
<g opacity="0.3">
<path d="M158.784 68.2019V68.3986H159.702V69.7881H159.888V68.2019H158.784Z" fill="black"/>
</g>
<path d="M161.581 68.2019H160.477V69.7881H161.581V68.2019Z" fill="#455A64"/>
<g opacity="0.3">
<path d="M160.477 68.2019V68.3986H161.395V69.7881H161.581V68.2019H160.477Z" fill="black"/>
</g>
<path d="M163.275 68.2019H162.171V69.7881H163.275V68.2019Z" fill="#455A64"/>
<g opacity="0.3">
<path d="M162.171 68.2019V68.3986H163.089V69.7881H163.275V68.2019H162.171Z" fill="black"/>
</g>
<path d="M148.982 68.2019H147.878V69.7881H148.982V68.2019Z" fill="#455A64"/>
<g opacity="0.3">
<path d="M147.878 68.2019V68.3986H148.796V69.7881H148.982V68.2019H147.878Z" fill="black"/>
</g>
<path d="M150.676 68.2019H149.572V69.7881H150.676V68.2019Z" fill="#455A64"/>
<g opacity="0.3">
<path d="M149.572 68.2019V68.3986H150.49V69.7881H150.676V68.2019H149.572Z" fill="black"/>
</g>
<path d="M152.369 68.2019H151.265V69.7881H152.369V68.2019Z" fill="#455A64"/>
<g opacity="0.3">
<path d="M151.265 68.2019V68.3986H152.183V69.7881H152.369V68.2019H151.265Z" fill="black"/>
</g>
<path d="M154.808 70.4761H153.704V72.0623H154.808V70.4761Z" fill="#455A64"/>
<g opacity="0.3">
<path d="M153.704 70.4761V70.6728H154.622V72.0621H154.808V70.4761H153.704Z" fill="black"/>
</g>
<path d="M156.501 70.4761H155.397V72.0623H156.501V70.4761Z" fill="#455A64"/>
<g opacity="0.3">
<path d="M155.397 70.4761V70.6728H156.315V72.0621H156.501V70.4761H155.397Z" fill="black"/>
</g>
<path d="M158.195 70.4761H157.091V72.0623H158.195V70.4761Z" fill="#455A64"/>
<g opacity="0.3">
<path d="M157.091 70.4761V70.6728H158.008V72.0621H158.195V70.4761H157.091Z" fill="black"/>
</g>
<path d="M159.888 70.4761H158.784V72.0623H159.888V70.4761Z" fill="#455A64"/>
<g opacity="0.3">
<path d="M158.784 70.4761V70.6728H159.702V72.0621H159.888V70.4761H158.784Z" fill="black"/>
</g>
<path d="M161.581 70.4761H160.477V72.0623H161.581V70.4761Z" fill="#455A64"/>
<g opacity="0.3">
<path d="M160.477 70.4761V70.6728H161.395V72.0621H161.581V70.4761H160.477Z" fill="black"/>
</g>
<path d="M163.275 70.4761H162.171V72.0623H163.275V70.4761Z" fill="#455A64"/>
<g opacity="0.3">
<path d="M162.171 70.4761V70.6728H163.089V72.0621H163.275V70.4761H162.171Z" fill="black"/>
</g>
<path d="M148.982 70.4761H147.878V72.0623H148.982V70.4761Z" fill="#455A64"/>
<g opacity="0.3">
<path d="M147.878 70.4761V70.6728H148.796V72.0621H148.982V70.4761H147.878Z" fill="black"/>
</g>
<path d="M150.676 70.4761H149.572V72.0623H150.676V70.4761Z" fill="#455A64"/>
<g opacity="0.3">
<path d="M149.572 70.4761V70.6728H150.49V72.0621H150.676V70.4761H149.572Z" fill="black"/>
</g>
<path d="M152.369 70.4761H151.265V72.0623H152.369V70.4761Z" fill="#455A64"/>
<g opacity="0.3">
<path d="M151.265 70.4761V70.6728H152.183V72.0621H152.369V70.4761H151.265Z" fill="black"/>
</g>
<path d="M154.808 72.7505H153.704V74.3367H154.808V72.7505Z" fill="#455A64"/>
<g opacity="0.3">
<path d="M153.704 72.7505V72.947H154.622V74.3365H154.808V72.7505H153.704Z" fill="black"/>
</g>
<path d="M156.501 72.7505H155.397V74.3367H156.501V72.7505Z" fill="#455A64"/>
<g opacity="0.3">
<path d="M155.397 72.7505V72.947H156.315V74.3365H156.501V72.7505H155.397Z" fill="black"/>
</g>
<path d="M158.195 72.7505H157.091V74.3367H158.195V72.7505Z" fill="#455A64"/>
<g opacity="0.3">
<path d="M157.091 72.7505V72.947H158.008V74.3365H158.195V72.7505H157.091Z" fill="black"/>
</g>
<path d="M159.888 72.7505H158.784V74.3367H159.888V72.7505Z" fill="#455A64"/>
<g opacity="0.3">
<path d="M158.784 72.7505V72.947H159.702V74.3365H159.888V72.7505H158.784Z" fill="black"/>
</g>
<path d="M161.581 72.7505H160.477V74.3367H161.581V72.7505Z" fill="#455A64"/>
<g opacity="0.3">
<path d="M160.477 72.7505V72.947H161.395V74.3365H161.581V72.7505H160.477Z" fill="black"/>
</g>
<path d="M163.275 72.7505H162.171V74.3367H163.275V72.7505Z" fill="#455A64"/>
<g opacity="0.3">
<path d="M162.171 72.7505V72.947H163.089V74.3365H163.275V72.7505H162.171Z" fill="black"/>
</g>
<path d="M148.982 72.7505H147.878V74.3367H148.982V72.7505Z" fill="#455A64"/>
<g opacity="0.3">
<path d="M147.878 72.7505V72.947H148.796V74.3365H148.982V72.7505H147.878Z" fill="black"/>
</g>
<path d="M150.676 72.7505H149.572V74.3367H150.676V72.7505Z" fill="#455A64"/>
<g opacity="0.3">
<path d="M149.572 72.7505V72.947H150.49V74.3365H150.676V72.7505H149.572Z" fill="black"/>
</g>
<path d="M152.369 72.7505H151.265V74.3367H152.369V72.7505Z" fill="#455A64"/>
<g opacity="0.3">
<path d="M151.265 72.7505V72.947H152.183V74.3365H152.369V72.7505H151.265Z" fill="black"/>
</g>
<g opacity="0.4">
<path d="M154.808 50.6702H153.704V52.2566H154.808V50.6702Z" fill="white"/>
</g>
<g opacity="0.4">
<path d="M156.501 50.6702H155.397V52.2566H156.501V50.6702Z" fill="white"/>
</g>
<g opacity="0.4">
<path d="M158.195 50.6702H157.091V52.2566H158.195V50.6702Z" fill="white"/>
</g>
<g opacity="0.4">
<path d="M159.888 50.6702H158.784V52.2566H159.888V50.6702Z" fill="white"/>
</g>
<g opacity="0.4">
<path d="M161.581 50.6702H160.477V52.2566H161.581V50.6702Z" fill="white"/>
</g>
<g opacity="0.4">
<path d="M163.275 50.6702H162.171V52.2566H163.275V50.6702Z" fill="white"/>
</g>
<g opacity="0.4">
<path d="M154.808 53.0254H153.704V54.6116H154.808V53.0254Z" fill="white"/>
</g>
<g opacity="0.4">
<path d="M156.501 53.0254H155.397V54.6116H156.501V53.0254Z" fill="white"/>
</g>
<g opacity="0.4">
<path d="M158.195 53.0254H157.091V54.6116H158.195V53.0254Z" fill="white"/>
</g>
<g opacity="0.4">
<path d="M159.888 53.0254H158.784V54.6116H159.888V53.0254Z" fill="white"/>
</g>
<g opacity="0.4">
<path d="M161.581 53.0254H160.477V54.6116H161.581V53.0254Z" fill="white"/>
</g>
<g opacity="0.4">
<path d="M163.275 53.0254H162.171V54.6116H163.275V53.0254Z" fill="white"/>
</g>
<g opacity="0.4">
<path d="M154.808 55.3804H153.704V56.9666H154.808V55.3804Z" fill="white"/>
</g>
<g opacity="0.4">
<path d="M156.501 55.3804H155.397V56.9666H156.501V55.3804Z" fill="white"/>
</g>
<g opacity="0.4">
<path d="M161.581 55.3804H160.477V56.9666H161.581V55.3804Z" fill="white"/>
</g>
<g opacity="0.4">
<path d="M154.808 57.7358H153.704V59.3221H154.808V57.7358Z" fill="white"/>
</g>
<g opacity="0.4">
<path d="M161.581 57.7358H160.477V59.3221H161.581V57.7358Z" fill="white"/>
</g>
<g opacity="0.3">
<path d="M152.92 48.9468H147.174V94.2397H152.92V48.9468Z" fill="black"/>
</g>
<path d="M153.753 67.8506H144.101V94.1941H153.753V67.8506Z" fill="#FF725E"/>
<path d="M144.101 67.8508H139.171V94.1943H144.101V67.8508Z" fill="#FF725E"/>
<path d="M147.511 70.4084H145.526V73.0948H147.511V70.4084Z" fill="#455A64"/>
<g opacity="0.3">
<path d="M145.526 70.4084V70.7418H147.176V73.095H147.511V70.4084H145.526Z" fill="black"/>
</g>
<path d="M147.627 73.0952H145.526V73.6414H147.627V73.0952Z" fill="white"/>
<path d="M147.627 69.8464H145.526V70.3924H147.627V69.8464Z" fill="white"/>
<path d="M152.088 73.0952H149.986V73.6414H152.088V73.0952Z" fill="white"/>
<path d="M152.088 69.8464H149.986V70.3924H152.088V69.8464Z" fill="white"/>
<path d="M151.971 70.4084H149.986V73.0948H151.971V70.4084Z" fill="#455A64"/>
<g opacity="0.3">
<path d="M149.986 70.4084V70.7418H151.636V73.095H151.971V70.4084H149.986Z" fill="black"/>
</g>
<path d="M147.627 74.8291H145.526V75.3752H147.627V74.8291Z" fill="white"/>
<path d="M152.088 74.8291H149.986V75.3752H152.088V74.8291Z" fill="white"/>
<path d="M142.808 70.3203H142.113V73.0067H142.808V70.3203Z" fill="#263238"/>
<path d="M142.906 73.0068H141.636V73.4117H142.906V73.0068Z" fill="white"/>
<path d="M140.946 70.3203H140.25V73.0067H140.946V70.3203Z" fill="#263238"/>
<path d="M141.044 73.0068H139.774V73.4117H141.044V73.0068Z" fill="white"/>
<g opacity="0.3">
<path d="M144.1 67.8506H139.03V94.1941H144.1V67.8506Z" fill="black"/>
</g>
<path d="M195.553 61.4451H171.269V94.2394H195.553V61.4451Z" fill="#FF725E"/>
<path d="M178.387 63.7825H176.604V66.3449H178.387V63.7825Z" fill="#455A64"/>
<g opacity="0.3">
<path d="M176.604 63.7825V64.1003H178.086V66.3449H178.387V63.7825H176.604Z" fill="black"/>
</g>
<path d="M181.662 63.7825H179.879V66.3449H181.662V63.7825Z" fill="#455A64"/>
<g opacity="0.3">
<path d="M179.879 63.7825V64.1003H181.362V66.3449H181.663V63.7825H179.879Z" fill="black"/>
</g>
<path d="M184.938 63.7825H183.154V66.3449H184.938V63.7825Z" fill="#455A64"/>
<g opacity="0.3">
<path d="M183.154 63.7825V64.1003H184.637V66.3449H184.938V63.7825H183.154Z" fill="black"/>
</g>
<path d="M188.213 63.7825H186.43V66.3449H188.213V63.7825Z" fill="#455A64"/>
<g opacity="0.3">
<path d="M186.43 63.7825V64.1003H187.912V66.3449H188.213V63.7825H186.43Z" fill="black"/>
</g>
<path d="M191.488 63.7825H189.705V66.3449H191.488V63.7825Z" fill="#455A64"/>
<g opacity="0.3">
<path d="M189.705 63.7825V64.1003H191.188V66.3449H191.488V63.7825H189.705Z" fill="black"/>
</g>
<path d="M194.763 63.7825H192.98V66.3449H194.763V63.7825Z" fill="#455A64"/>
<g opacity="0.3">
<path d="M192.98 63.7825V64.1003H194.463V66.3449H194.764V63.7825H192.98Z" fill="black"/>
</g>
<path d="M178.543 70.009H176.759V72.5715H178.543V70.009Z" fill="#455A64"/>
<g opacity="0.3">
<path d="M176.759 70.009V70.3269H178.242V72.5715H178.543V70.009H176.759Z" fill="black"/>
</g>
<path d="M181.818 70.009H180.034V72.5715H181.818V70.009Z" fill="#455A64"/>
<g opacity="0.3">
<path d="M180.034 70.009V70.3269H181.517V72.5715H181.818V70.009H180.034Z" fill="black"/>
</g>
<path d="M185.093 70.009H183.31V72.5715H185.093V70.009Z" fill="#455A64"/>
<g opacity="0.3">
<path d="M183.31 70.009V70.3269H184.792V72.5715H185.093V70.009H183.31Z" fill="black"/>
</g>
<path d="M188.369 70.009H186.585V72.5715H188.369V70.009Z" fill="#455A64"/>
<g opacity="0.3">
<path d="M186.585 70.009V70.3269H188.068V72.5715H188.369V70.009H186.585Z" fill="black"/>
</g>
<path d="M191.643 70.009H189.86V72.5715H191.643V70.009Z" fill="#455A64"/>
<g opacity="0.3">
<path d="M189.86 70.009V70.3269H191.343V72.5715H191.644V70.009H189.86Z" fill="black"/>
</g>
<path d="M194.919 70.009H193.135V72.5715H194.919V70.009Z" fill="#455A64"/>
<g opacity="0.3">
<path d="M193.135 70.009V70.3269H194.618V72.5715H194.919V70.009H193.135Z" fill="black"/>
</g>
<path d="M195.553 60.895H171.269V61.996H195.553V60.895Z" fill="#FFBF9D"/>
<path d="M195.553 67.386H171.269V68.487H195.553V67.386Z" fill="#FFBF9D"/>
<path d="M195.553 73.5935H171.269V74.6947H195.553V73.5935Z" fill="#FFBF9D"/>
<path d="M172.96 63.5823H172.311V66.2432H172.96V63.5823Z" fill="#263238"/>
<path d="M174.865 63.5823H174.216V66.2432H174.865V63.5823Z" fill="#263238"/>
<path d="M172.996 69.5095H172.347V72.1704H172.996V69.5095Z" fill="#263238"/>
<path d="M174.928 69.5095H174.279V72.1704H174.928V69.5095Z" fill="#263238"/>
<g opacity="0.3">
<path d="M175.519 60.895H171.269V94.2399H175.519V60.895Z" fill="black"/>
</g>
<g opacity="0.3">
<path d="M195.553 74.7522H175.52V75.2162H195.553V74.7522Z" fill="black"/>
</g>
<g opacity="0.3">
<path d="M195.553 68.4871H175.52V68.9513H195.553V68.4871Z" fill="black"/>
</g>
<g opacity="0.3">
<path d="M195.553 61.9958H175.52V62.4601H195.553V61.9958Z" fill="black"/>
</g>
<path d="M182.325 58.3076H177.461V60.8947H182.325V58.3076Z" fill="#FFBF9D"/>
<g opacity="0.3">
<path d="M179.004 58.3076H177.461V60.8947H179.004V58.3076Z" fill="black"/>
</g>
<path d="M177.549 72.6266C178.052 72.6266 178.459 72.6018 178.459 72.5712C178.459 72.5407 178.052 72.5159 177.549 72.5159C177.047 72.5159 176.639 72.5407 176.639 72.5712C176.639 72.6018 177.047 72.6266 177.549 72.6266Z" fill="white"/>
<path d="M180.791 72.6266C181.293 72.6266 181.7 72.6018 181.7 72.5712C181.7 72.5407 181.293 72.5159 180.791 72.5159C180.288 72.5159 179.881 72.5407 179.881 72.5712C179.881 72.6018 180.288 72.6266 180.791 72.6266Z" fill="white"/>
<path d="M184.032 72.6266C184.534 72.6266 184.942 72.6018 184.942 72.5712C184.942 72.5407 184.534 72.5159 184.032 72.5159C183.529 72.5159 183.122 72.5407 183.122 72.5712C183.122 72.6018 183.529 72.6266 184.032 72.6266Z" fill="white"/>
<path d="M187.375 72.6266C187.877 72.6266 188.285 72.6018 188.285 72.5712C188.285 72.5407 187.877 72.5159 187.375 72.5159C186.872 72.5159 186.465 72.5407 186.465 72.5712C186.465 72.6018 186.872 72.6266 187.375 72.6266Z" fill="white"/>
<path d="M190.665 72.6266C191.167 72.6266 191.575 72.6018 191.575 72.5712C191.575 72.5407 191.167 72.5159 190.665 72.5159C190.162 72.5159 189.755 72.5407 189.755 72.5712C189.755 72.6018 190.162 72.6266 190.665 72.6266Z" fill="white"/>
<path d="M193.955 72.6266C194.458 72.6266 194.865 72.6018 194.865 72.5712C194.865 72.5407 194.458 72.5159 193.955 72.5159C193.453 72.5159 193.046 72.5407 193.046 72.5712C193.046 72.6018 193.453 72.6266 193.955 72.6266Z" fill="white"/>
<path d="M177.549 66.4003C178.052 66.4003 178.459 66.3755 178.459 66.3449C178.459 66.3143 178.052 66.2896 177.549 66.2896C177.047 66.2896 176.639 66.3143 176.639 66.3449C176.639 66.3755 177.047 66.4003 177.549 66.4003Z" fill="white"/>
<path d="M180.791 66.4003C181.293 66.4003 181.7 66.3755 181.7 66.3449C181.7 66.3143 181.293 66.2896 180.791 66.2896C180.288 66.2896 179.881 66.3143 179.881 66.3449C179.881 66.3755 180.288 66.4003 180.791 66.4003Z" fill="white"/>
<path d="M184.032 66.4003C184.534 66.4003 184.942 66.3755 184.942 66.3449C184.942 66.3143 184.534 66.2896 184.032 66.2896C183.529 66.2896 183.122 66.3143 183.122 66.3449C183.122 66.3755 183.529 66.4003 184.032 66.4003Z" fill="white"/>
<path d="M187.375 66.4003C187.877 66.4003 188.285 66.3755 188.285 66.3449C188.285 66.3143 187.877 66.2896 187.375 66.2896C186.872 66.2896 186.465 66.3143 186.465 66.3449C186.465 66.3755 186.872 66.4003 187.375 66.4003Z" fill="white"/>
<path d="M190.665 66.4003C191.167 66.4003 191.575 66.3755 191.575 66.3449C191.575 66.3143 191.167 66.2896 190.665 66.2896C190.162 66.2896 189.755 66.3143 189.755 66.3449C189.755 66.3755 190.162 66.4003 190.665 66.4003Z" fill="white"/>
<path d="M193.955 66.4003C194.458 66.4003 194.865 66.3755 194.865 66.3449C194.865 66.3143 194.458 66.2896 193.955 66.2896C193.453 66.2896 193.046 66.3143 193.046 66.3449C193.046 66.3755 193.453 66.4003 193.955 66.4003Z" fill="white"/>
<path d="M171.239 71.9077H155.109V94.2133H171.239V71.9077Z" fill="#FF9A6C"/>
<path d="M157.121 74.9946H156.472V77.6555H157.121V74.9946Z" fill="#263238"/>
<path d="M171.667 70.7881H154.811V71.908H171.667V70.7881Z" fill="#EBEBEB"/>
<path d="M171.225 72.3831H155.085V72.7136H171.225V72.3831Z" fill="#E0E0E0"/>
<g opacity="0.3">
<path d="M158.976 71.9077H155.109V94.2396H158.976V71.9077Z" fill="black"/>
</g>
<g opacity="0.3">
<path d="M157.879 70.7881H154.811V71.908H157.879V70.7881Z" fill="black"/>
</g>
<path d="M138.513 63.6943H114.369V94.2396H138.513V63.6943Z" fill="#FFBF9D"/>
<path d="M138.821 63.177H114V64.2114H138.821V63.177Z" fill="#FF9A6C"/>
<path d="M138.513 65.9758H114.369V66.8275H138.513V65.9758Z" fill="#FF9A6C"/>
<path d="M138.513 64.8809H114.369V65.3067H138.513V64.8809Z" fill="#FF9A6C"/>
<path d="M136.51 66.6951H130.913V88.6682H136.51V66.6951Z" fill="#FF9A6C"/>
<path d="M125.128 66.6951H119.531V88.6682H125.128V66.6951Z" fill="#FF9A6C"/>
<path d="M128.946 73.9722H127.094V76.6331H128.946V73.9722Z" fill="#455A64"/>
<g opacity="0.3">
<path d="M127.094 73.9722V74.3023H128.634V76.6331H128.946V73.9722H127.094Z" fill="black"/>
</g>
<path d="M128.946 68.698H127.094V71.3589H128.946V68.698Z" fill="#455A64"/>
<g opacity="0.3">
<path d="M128.946 68.698H127.094V71.3589H128.946V68.698Z" fill="white"/>
</g>
<g opacity="0.3">
<path d="M127.094 68.698V69.0279H128.634V71.3589H128.946V68.698H127.094Z" fill="black"/>
</g>
<path d="M123.255 74.0222H121.403V76.6831H123.255V74.0222Z" fill="#455A64"/>
<g opacity="0.3">
<path d="M123.255 74.0222H121.403V76.6831H123.255V74.0222Z" fill="white"/>
</g>
<g opacity="0.3">
<path d="M121.403 74.0222V74.3519H122.943V76.6831H123.255V74.0222H121.403Z" fill="black"/>
</g>
<path d="M123.255 68.7478H121.403V71.4087H123.255V68.7478Z" fill="#455A64"/>
<g opacity="0.3">
<path d="M123.255 68.7478H121.403V71.4087H123.255V68.7478Z" fill="white"/>
</g>
<g opacity="0.3">
<path d="M121.403 68.7478V69.0777H122.943V71.4087H123.255V68.7478H121.403Z" fill="black"/>
</g>
<path d="M134.873 74.0203H133.021V76.6812H134.873V74.0203Z" fill="#455A64"/>
<g opacity="0.3">
<path d="M134.873 74.0203H133.021V76.6812H134.873V74.0203Z" fill="white"/>
</g>
<g opacity="0.3">
<path d="M133.021 74.0203V74.3502H134.561V76.6812H134.873V74.0203H133.021Z" fill="black"/>
</g>
<path d="M134.873 68.7458H133.021V71.4067H134.873V68.7458Z" fill="#455A64"/>
<g opacity="0.3">
<path d="M134.873 68.7458H133.021V71.4067H134.873V68.7458Z" fill="white"/>
</g>
<g opacity="0.3">
<path d="M133.021 68.7458V69.0756H134.561V71.4067H134.873V68.7458H133.021Z" fill="black"/>
</g>
<path d="M116.536 68.9026H115.886V71.5635H116.536V68.9026Z" fill="#263238"/>
<path d="M116.627 71.5637H115.442V71.9649H116.627V71.5637Z" fill="white"/>
<path d="M116.536 73.9724H115.886V76.6333H116.536V73.9724Z" fill="#263238"/>
<g opacity="0.3">
<path d="M118.77 64.2114H114.369V94.2394H118.77V64.2114Z" fill="black"/>
</g>
<g opacity="0.3">
<path d="M118.053 63.177H114V64.2114H118.053V63.177Z" fill="black"/>
</g>
<path d="M122.294 71.5259C122.796 71.5259 123.204 71.5012 123.204 71.4707C123.204 71.4402 122.796 71.4155 122.294 71.4155C121.791 71.4155 121.384 71.4402 121.384 71.4707C121.384 71.5012 121.791 71.5259 122.294 71.5259Z" fill="white"/>
<path d="M128.071 71.4638C128.574 71.4638 128.981 71.4391 128.981 71.4087C128.981 71.3782 128.574 71.3535 128.071 71.3535C127.569 71.3535 127.162 71.3782 127.162 71.4087C127.162 71.4391 127.569 71.4638 128.071 71.4638Z" fill="white"/>
<path d="M133.998 71.5119C134.501 71.5119 134.908 71.4872 134.908 71.4568C134.908 71.4263 134.501 71.4016 133.998 71.4016C133.496 71.4016 133.088 71.4263 133.088 71.4568C133.088 71.4872 133.496 71.5119 133.998 71.5119Z" fill="white"/>
</g>
<path d="M23.7969 25H21.3828V20.0703H16.8594V25H14.4375V13.5781H16.8594V18.0547H21.3828V13.5781H23.7969V25ZM30.1172 17.7969C29.612 17.7969 29.2161 17.9583 28.9297 18.2812C28.6432 18.599 28.4792 19.0521 28.4375 19.6406H31.7812C31.7708 19.0521 31.6172 18.599 31.3203 18.2812C31.0234 17.9583 30.6224 17.7969 30.1172 17.7969ZM30.4531 25.1562C29.0469 25.1562 27.9479 24.7682 27.1562 23.9922C26.3646 23.2161 25.9688 22.1172 25.9688 20.6953C25.9688 19.2318 26.3333 18.1016 27.0625 17.3047C27.7969 16.5026 28.8099 16.1016 30.1016 16.1016C31.3359 16.1016 32.2969 16.4531 32.9844 17.1562C33.6719 17.8594 34.0156 18.8307 34.0156 20.0703V21.2266H28.3828C28.4089 21.9036 28.6094 22.4323 28.9844 22.8125C29.3594 23.1927 29.8854 23.3828 30.5625 23.3828C31.0885 23.3828 31.5859 23.3281 32.0547 23.2188C32.5234 23.1094 33.013 22.9349 33.5234 22.6953V24.5391C33.1068 24.7474 32.6615 24.901 32.1875 25C31.7135 25.1042 31.1354 25.1562 30.4531 25.1562ZM41.4219 23.2578V18.0547H39.6328C39.5026 19.0234 39.3229 19.9427 39.0938 20.8125C38.8698 21.6823 38.5573 22.4974 38.1562 23.2578H41.4219ZM45.0859 28.1328H42.9453V25H37.0703V28.1328H34.9297V23.2578H35.6641C36.1641 22.4818 36.5833 21.5026 36.9219 20.3203C37.2604 19.138 37.4974 17.7865 37.6328 16.2656H43.8047V23.2578H45.0859V28.1328ZM54.6406 18.5547C54.6406 19.0234 54.4922 19.4245 54.1953 19.7578C53.9036 20.0859 53.4714 20.2969 52.8984 20.3906V20.4531C53.5182 20.526 54.0078 20.7396 54.3672 21.0938C54.7318 21.4427 54.9141 21.875 54.9141 22.3906C54.9141 23.2396 54.5807 23.888 53.9141 24.3359C53.2474 24.7786 52.2943 25 51.0547 25H46.5781V16.2656H51.0547C52.2526 16.2656 53.1484 16.4609 53.7422 16.8516C54.3411 17.237 54.6406 17.8047 54.6406 18.5547ZM52.4453 22.2656C52.4453 21.9219 52.3125 21.6745 52.0469 21.5234C51.7812 21.3672 51.3828 21.2891 50.8516 21.2891H48.9609V23.3516H50.8984C51.4036 23.3516 51.7865 23.2578 52.0469 23.0703C52.3125 22.8776 52.4453 22.6094 52.4453 22.2656ZM52.2266 18.7422C52.2266 18.2109 51.8047 17.9453 50.9609 17.9453H48.9609V19.6719H50.6875C51.1927 19.6719 51.5755 19.599 51.8359 19.4531C52.0964 19.3073 52.2266 19.0703 52.2266 18.7422ZM59.1172 16.2656V19.7188C59.1172 20.0833 59.0573 20.974 58.9375 22.3906L62.9688 16.2656H65.8359V25H63.5312V21.5156C63.5312 20.8958 63.5833 20.0208 63.6875 18.8906L59.6719 25H56.8125V16.2656H59.1172ZM72.9688 20.5078V16.2656H75.1875V20.5078L78.2969 16.2656H80.7578L77.5391 20.4531L81.0625 25H78.5156L75.1875 20.5703V25H72.9688V20.5703L69.6406 25H67.0938L70.6172 20.4531L67.3984 16.2656H69.8594L72.9688 20.5078ZM84.6172 16.2656V19.7188C84.6172 20.0833 84.5573 20.974 84.4375 22.3906L88.4688 16.2656H91.3359V25H89.0312V21.5156C89.0312 20.8958 89.0833 20.0208 89.1875 18.8906L85.1719 25H82.3125V16.2656H84.6172ZM104.852 25H102.625V18.1172L102.5 18.6016C102.219 19.7005 101.966 20.5312 101.742 21.0938L100.195 25H98.5L96.9297 21.0625C96.7057 20.4896 96.4661 19.6849 96.2109 18.6484L96.0625 18.1172V25H93.8438V16.2656H97.125L98.625 19.9922C98.7812 20.3932 98.9245 20.8542 99.0547 21.375C99.1901 21.8958 99.2812 22.3411 99.3281 22.7109C99.5 21.9297 99.6328 21.3698 99.7266 21.0312C99.8255 20.6875 99.9323 20.3724 100.047 20.0859C100.161 19.7995 100.68 18.526 101.602 16.2656H104.852V25ZM109.258 20.6172C109.258 21.4818 109.398 22.1354 109.68 22.5781C109.966 23.0208 110.43 23.2422 111.07 23.2422C111.706 23.2422 112.161 23.0234 112.438 22.5859C112.719 22.1432 112.859 21.487 112.859 20.6172C112.859 19.7526 112.719 19.1042 112.438 18.6719C112.156 18.2396 111.695 18.0234 111.055 18.0234C110.419 18.0234 109.961 18.2396 109.68 18.6719C109.398 19.099 109.258 19.7474 109.258 20.6172ZM115.297 20.6172C115.297 22.0391 114.922 23.151 114.172 23.9531C113.422 24.7552 112.378 25.1562 111.039 25.1562C110.201 25.1562 109.461 24.974 108.82 24.6094C108.18 24.2396 107.688 23.7109 107.344 23.0234C107 22.3359 106.828 21.5339 106.828 20.6172C106.828 19.1901 107.201 18.0807 107.945 17.2891C108.69 16.4974 109.737 16.1016 111.086 16.1016C111.924 16.1016 112.664 16.2839 113.305 16.6484C113.945 17.013 114.438 17.5365 114.781 18.2188C115.125 18.901 115.297 19.7005 115.297 20.6172ZM120.812 25.1562C118.094 25.1562 116.734 23.6641 116.734 20.6797C116.734 19.1953 117.104 18.0625 117.844 17.2812C118.583 16.4948 119.643 16.1016 121.023 16.1016C122.034 16.1016 122.94 16.2995 123.742 16.6953L123.039 18.5391C122.664 18.388 122.315 18.2656 121.992 18.1719C121.669 18.0729 121.346 18.0234 121.023 18.0234C119.784 18.0234 119.164 18.9036 119.164 20.6641C119.164 22.3724 119.784 23.2266 121.023 23.2266C121.482 23.2266 121.906 23.1667 122.297 23.0469C122.688 22.9219 123.078 22.7292 123.469 22.4688V24.5078C123.083 24.7526 122.693 24.9219 122.297 25.0156C121.906 25.1094 121.411 25.1562 120.812 25.1562ZM132.727 16.2656V18.0547H129.867V25H127.484V18.0547H124.617V16.2656H132.727ZM136.742 19.6406H138.422C139.766 19.6406 140.76 19.8542 141.406 20.2812C142.052 20.7083 142.375 21.3542 142.375 22.2188C142.375 24.0729 141.089 25 138.516 25H134.359V16.2656H136.742V19.6406ZM139.992 22.25C139.992 21.9115 139.857 21.6667 139.586 21.5156C139.315 21.3646 138.911 21.2891 138.375 21.2891H136.742V23.3516H138.406C139.464 23.3516 139.992 22.9844 139.992 22.25Z" fill="#3366FF"/>
</svg>
