<svg width="16" height="18" viewBox="0 0 16 18" fill="none" xmlns="http://www.w3.org/2000/svg">
    <path d="M5.32812 7.92437C5.32812 8.61306 5.60171 9.27355 6.08869 9.76053C6.57567 10.2475 7.23616 10.5211 7.92486 10.5211C8.61355 10.5211 9.27404 10.2475 9.76102 9.76053C10.248 9.27355 10.5216 8.61306 10.5216 7.92437C10.5216 7.23567 10.248 6.57518 9.76102 6.0882C9.27404 5.60122 8.61355 5.32764 7.92486 5.32764C7.23616 5.32764 6.57567 5.60122 6.08869 6.0882C5.60171 6.57518 5.32812 7.23567 5.32812 7.92437Z" stroke="#3366FF" stroke-linecap="round" stroke-linejoin="round"/>
    <path d="M12.8212 12.8209L9.14854 16.4936C8.82394 16.8179 8.38388 17 7.92505 17C7.46622 17 7.02616 16.8179 6.70156 16.4936L3.02805 12.8209C2.05966 11.8525 1.40019 10.6186 1.13303 9.27541C0.865873 7.93218 1.00302 6.53988 1.52714 5.2746C2.05126 4.00931 2.93881 2.92785 4.07755 2.16698C5.21628 1.40611 6.55507 1 7.92462 1C9.29416 1 10.633 1.40611 11.7717 2.16698C12.9104 2.92785 13.798 4.00931 14.3221 5.2746C14.8462 6.53988 14.9834 7.93218 14.7162 9.27541C14.449 10.6186 13.7896 11.8525 12.8212 12.8209Z" stroke="#3366FF" stroke-linecap="round" stroke-linejoin="round"/>
</svg>
