<svg width="223" height="87" viewBox="0 0 223 87" fill="none" xmlns="http://www.w3.org/2000/svg">
<path d="M9.01814 10.1253L3.13214 1.65335H6.95624L12.6265 10.1977V1.65335H16.0909V10.1977L21.7611 1.65335H25.5972L19.6993 10.1253L25.9329 19.2971H21.953L16.0909 10.3546V19.2971H12.6265V10.3546L6.76444 19.2971H2.78449L9.01814 10.1253Z" fill="#2464C5"/>
<path d="M31.3993 5.80483V11.139C31.3993 11.7022 31.3074 13.078 31.1236 15.2663L37.3093 5.80483H41.7088V19.2971H38.1724V13.9147C38.1724 12.9573 38.2523 11.6056 38.4122 9.85976L32.2505 19.2971H27.8629V5.80483H31.3993Z" fill="#2464C5"/>
<path d="M57.5567 19.2971H53.9004V8.56846H50.5318C50.2761 11.5855 49.9644 13.8383 49.5968 15.3267C49.2291 16.807 48.7376 17.8811 48.1223 18.5489C47.5149 19.2086 46.7157 19.5385 45.7247 19.5385C44.8776 19.5385 44.1823 19.4098 43.6388 19.1523V16.2077C44.0304 16.3686 44.422 16.449 44.8136 16.449C45.2692 16.449 45.6488 16.1192 45.9525 15.4594C46.2642 14.7997 46.5399 13.7015 46.7796 12.1648C47.0274 10.6201 47.2392 8.50007 47.415 5.80483H57.5567V19.2971Z" fill="#2464C5"/>
<path d="M64.3178 12.5268C64.3178 13.8624 64.5335 14.8721 64.9651 15.556C65.4047 16.2398 66.1159 16.5818 67.0989 16.5818C68.0739 16.5818 68.7732 16.2439 69.1968 15.568C69.6283 14.8842 69.8441 13.8704 69.8441 12.5268C69.8441 11.1913 69.6283 10.1896 69.1968 9.52185C68.7652 8.85407 68.058 8.52018 67.075 8.52018C66.0999 8.52018 65.3967 8.85407 64.9651 9.52185C64.5335 10.1816 64.3178 11.1832 64.3178 12.5268ZM73.5843 12.5268C73.5843 14.7233 73.0089 16.441 71.8581 17.68C70.7073 18.919 69.1049 19.5385 67.051 19.5385C65.7643 19.5385 64.6294 19.2569 63.6465 18.6937C62.6635 18.1225 61.9082 17.3059 61.3808 16.2439C60.8533 15.1819 60.5896 13.9429 60.5896 12.5268C60.5896 10.3224 61.161 8.60868 62.3038 7.38577C63.4467 6.16285 65.053 5.55139 67.1229 5.55139C68.4096 5.55139 69.5444 5.83299 70.5274 6.39617C71.5104 6.95936 72.2657 7.76793 72.7931 8.82189C73.3206 9.87585 73.5843 11.1108 73.5843 12.5268Z" fill="#2464C5"/>
<path d="M80.1416 5.80483V11.139C80.1416 11.7022 80.0497 13.078 79.8659 15.2663L86.0516 5.80483H90.4511V19.2971H86.9147V13.9147C86.9147 12.9573 86.9946 11.6056 87.1545 9.85976L80.9928 19.2971H76.6052V5.80483H80.1416ZM89.3722 0C89.2204 1.50451 88.657 2.60272 87.6819 3.29463C86.7069 3.9785 85.3004 4.32043 83.4622 4.32043C81.5682 4.32043 80.1656 3.99057 79.2545 3.33084C78.3515 2.67111 77.844 1.56083 77.7321 0H81.0048C81.0607 0.828686 81.2645 1.41199 81.6161 1.7499C81.9758 2.07976 82.6151 2.24469 83.5342 2.24469C84.3413 2.24469 84.9407 2.06367 85.3323 1.70162C85.7319 1.33153 85.9757 0.764322 86.0636 0H89.3722Z" fill="#2464C5"/>
<path d="M109.464 5.80483H113.492L108.181 12.2734L113.959 19.2971H109.811L104.333 12.4544V19.2971H100.677V5.80483H104.333V12.3579L109.464 5.80483Z" fill="#2464C5"/>
<path d="M118.55 12.5268C118.55 13.8624 118.766 14.8721 119.198 15.556C119.637 16.2398 120.349 16.5818 121.332 16.5818C122.307 16.5818 123.006 16.2439 123.43 15.568C123.861 14.8842 124.077 13.8704 124.077 12.5268C124.077 11.1913 123.861 10.1896 123.43 9.52185C122.998 8.85407 122.291 8.52018 121.308 8.52018C120.333 8.52018 119.629 8.85407 119.198 9.52185C118.766 10.1816 118.55 11.1832 118.55 12.5268ZM127.817 12.5268C127.817 14.7233 127.242 16.441 126.091 17.68C124.94 18.919 123.338 19.5385 121.284 19.5385C119.997 19.5385 118.862 19.2569 117.879 18.6937C116.896 18.1225 116.141 17.3059 115.613 16.2439C115.086 15.1819 114.822 13.9429 114.822 12.5268C114.822 10.3224 115.394 8.60868 116.537 7.38577C117.679 6.16285 119.286 5.55139 121.356 5.55139C122.642 5.55139 123.777 5.83299 124.76 6.39617C125.743 6.95936 126.498 7.76793 127.026 8.82189C127.553 9.87585 127.817 11.1108 127.817 12.5268Z" fill="#2464C5"/>
<path d="M147.729 19.2971H144.312V8.665L144.12 9.41323C143.689 11.1108 143.301 12.3941 142.958 13.263L140.584 19.2971H137.983L135.573 13.2147C135.229 12.3297 134.862 11.0867 134.47 9.48564L134.242 8.665V19.2971H130.838V5.80483H135.873L138.174 11.5614C138.414 12.1809 138.634 12.8929 138.834 13.6975C139.042 14.502 139.181 15.1899 139.253 15.7611C139.517 14.5543 139.721 13.6894 139.865 13.1665C140.017 12.6355 140.18 12.1487 140.356 11.7062C140.532 11.2637 141.327 9.29657 142.742 5.80483H147.729V19.2971Z" fill="#2464C5"/>
<path d="M163.756 5.80483V19.2971H160.088V8.56846H155.233V19.2971H151.577V5.80483H163.756Z" fill="#2464C5"/>
<path d="M179.592 19.2971H175.936V8.56846H172.567C172.312 11.5855 172 13.8383 171.632 15.3267C171.265 16.807 170.773 17.8811 170.158 18.5489C169.55 19.2086 168.751 19.5385 167.76 19.5385C166.913 19.5385 166.218 19.4098 165.674 19.1523V16.2077C166.066 16.3686 166.458 16.449 166.849 16.449C167.305 16.449 167.684 16.1192 167.988 15.4594C168.3 14.7997 168.575 13.7015 168.815 12.1648C169.063 10.6201 169.275 8.50007 169.451 5.80483H179.592V19.2971Z" fill="#2464C5"/>
<path d="M188.991 8.1702C188.215 8.1702 187.608 8.41961 187.169 8.91844C186.729 9.40921 186.477 10.1092 186.413 11.0183H191.544C191.528 10.1092 191.292 9.40921 190.837 8.91844C190.381 8.41961 189.766 8.1702 188.991 8.1702ZM189.506 19.5385C187.348 19.5385 185.662 18.9391 184.447 17.7403C183.233 16.5415 182.625 14.8439 182.625 12.6475C182.625 10.3867 183.185 8.64087 184.303 7.4099C185.43 6.1709 186.985 5.55139 188.967 5.55139C190.861 5.55139 192.335 6.09447 193.39 7.18061C194.445 8.26675 194.973 9.76723 194.973 11.6821V13.4682H186.329C186.369 14.5141 186.677 15.3307 187.252 15.918C187.828 16.5053 188.635 16.799 189.674 16.799C190.481 16.799 191.244 16.7145 191.964 16.5456C192.683 16.3766 193.434 16.1071 194.217 15.737V18.5851C193.578 18.9069 192.895 19.1443 192.167 19.2971C191.44 19.458 190.553 19.5385 189.506 19.5385Z" fill="#2464C5"/>
<path d="M206.733 5.80483H210.76L205.45 12.2734L211.228 19.2971H207.08L201.602 12.4544V19.2971H197.946V5.80483H201.602V12.3579L206.733 5.80483Z" fill="#2464C5"/>
<path d="M218.349 19.5385C214.177 19.5385 212.091 17.2335 212.091 12.6234C212.091 10.3304 212.659 8.58052 213.793 7.3737C214.928 6.15883 216.555 5.55139 218.672 5.55139C220.223 5.55139 221.613 5.85712 222.844 6.46858L221.765 9.31669C221.19 9.08337 220.654 8.8943 220.159 8.74948C219.663 8.59662 219.168 8.52018 218.672 8.52018C216.77 8.52018 215.819 9.87987 215.819 12.5993C215.819 15.2382 216.77 16.5576 218.672 16.5576C219.376 16.5576 220.027 16.4651 220.626 16.2801C221.226 16.087 221.825 15.7893 222.425 15.387V18.5368C221.833 18.915 221.234 19.1764 220.626 19.3213C220.027 19.4661 219.268 19.5385 218.349 19.5385Z" fill="#2464C5"/>
<path d="M19.0439 76.9673H0V71.8932L5.09747 69.5292V42.2563L0 39.8923V34.8182H19.0439V39.8923L13.9464 42.2563V69.5292L19.0439 71.8932V76.9673Z" fill="#2464C5"/>
<path d="M64.2338 55.8351C64.2338 60.7938 63.3556 64.9549 61.5992 68.3184C59.8619 71.6626 57.3036 74.1131 53.9244 75.6699L64.0048 87H52.6357L44.9608 77.5439H44.3022C37.8874 77.5439 32.9617 75.6699 29.5252 71.9221C26.0887 68.1742 24.3705 62.7927 24.3705 55.7774C24.3705 48.7622 26.0887 43.4095 29.5252 39.7193C32.9808 36.0099 37.9256 34.1552 44.3594 34.1552C50.7933 34.1552 55.7094 36.0195 59.1077 39.7481C62.5251 43.4768 64.2338 48.8391 64.2338 55.8351ZM33.6777 55.8351C33.6777 60.5439 34.5654 64.09 36.341 66.4733C38.1165 68.8565 40.7702 70.0481 44.3022 70.0481C51.3852 70.0481 54.9267 65.3105 54.9267 55.8351C54.9267 46.3405 51.4043 41.5932 44.3594 41.5932C40.8275 41.5932 38.1642 42.7945 36.3696 45.1969C34.575 47.5802 33.6777 51.1262 33.6777 55.8351Z" fill="#2464C5"/>
<path d="M122.883 55.4891C122.883 62.4275 120.917 67.7418 116.984 71.432C113.07 75.1222 107.41 76.9673 100.002 76.9673H88.1461V34.8182H101.291C108.126 34.8182 113.433 36.6345 117.213 40.2671C120.993 43.8996 122.883 48.9736 122.883 55.4891ZM113.662 55.7198C113.662 46.6672 109.691 42.141 101.749 42.141H97.0238V69.5869H100.833C109.386 69.5869 113.662 64.9645 113.662 55.7198Z" fill="#2464C5"/>
<path d="M169.562 55.8351C169.562 62.8119 167.844 68.1742 164.408 71.9221C160.971 75.6699 156.046 77.5439 149.631 77.5439C143.216 77.5439 138.29 75.6699 134.854 71.9221C131.417 68.1742 129.699 62.7927 129.699 55.7774C129.699 48.7622 131.417 43.4095 134.854 39.7193C138.309 36.0099 143.254 34.1552 149.688 34.1552C156.122 34.1552 161.038 36.0195 164.436 39.7481C167.854 43.4768 169.562 48.8391 169.562 55.8351ZM139.006 55.8351C139.006 60.5439 139.894 64.09 141.67 66.4733C143.445 68.8565 146.099 70.0481 149.631 70.0481C156.714 70.0481 160.255 65.3105 160.255 55.8351C160.255 46.3405 156.733 41.5932 149.688 41.5932C146.156 41.5932 143.493 42.7945 141.698 45.1969C139.904 47.5802 139.006 51.1262 139.006 55.8351Z" fill="#2464C5"/>
<path d="M195.966 76.9673L185.886 43.8996H185.628C185.991 50.6265 186.172 55.1143 186.172 57.3631V76.9673H178.24V34.8182H190.325L200.233 67.0499H200.405L210.915 34.8182H223V76.9673H214.724V57.0171C214.724 56.0753 214.733 54.9894 214.752 53.7594C214.791 52.5293 214.924 49.2619 215.153 43.9573H214.896L204.099 76.9673H195.966Z" fill="#2464C5"/>
</svg>
