<svg width="174" height="58" viewBox="0 0 174 58" fill="none" xmlns="http://www.w3.org/2000/svg">
<path d="M5.35156 57.9619H4.66406V56.458H0.734375V57.9619H0.046875V55.8174H0.488281C0.873698 55.1611 1.20703 54.3656 1.48828 53.4307C1.76953 52.4958 1.9349 51.6012 1.98438 50.7471H4.625V55.8174H5.35156V57.9619ZM3.91016 55.8174V51.3955H2.61719C2.56771 52.0439 2.40885 52.8005 2.14062 53.665C1.875 54.5296 1.57682 55.2471 1.24609 55.8174H3.91016ZM11.62 56.458H8.42859V50.7471H11.62V51.3799H9.14734V53.1611H11.4755V53.7861H9.14734V55.8252H11.62V56.458ZM19.1111 56.458H18.3923V51.3799H16.5837L16.4627 52.3096C16.2986 53.5908 16.1554 54.5088 16.033 55.0635C15.9106 55.6182 15.7504 56.0049 15.5525 56.2236C15.3572 56.4398 15.0903 56.5479 14.7517 56.5479C14.559 56.5479 14.3858 56.5153 14.2322 56.4502V55.8486C14.3676 55.9137 14.5147 55.9463 14.6736 55.9463C14.8793 55.9463 15.0421 55.8174 15.1619 55.5596C15.2843 55.2992 15.4158 54.7119 15.5564 53.7979C15.6996 52.8838 15.8429 51.8669 15.9861 50.7471H19.1111V56.458ZM26.3678 56.458L25.6803 54.6885H23.4147L22.735 56.458H22.0084L24.2389 50.7236H24.8873L27.1139 56.458H26.3678ZM25.4655 54.0518L24.8248 52.3213L24.5514 51.4658C24.4733 51.7783 24.3913 52.0635 24.3053 52.3213L23.6569 54.0518H25.4655ZM33.2144 56.458H30.023V50.7471H33.2144V51.3799H30.7417V53.1611H33.0698V53.7861H30.7417V55.8252H33.2144V56.458ZM39.1156 56.458L37.2328 51.4502H37.2016C37.2406 51.8669 37.2602 52.3812 37.2602 52.9932V56.458H36.5961V50.7471H37.6586L39.4203 55.4268H39.4516L41.2445 50.7471H42.2992V56.458H41.5883V52.9463C41.5883 52.5557 41.6065 52.0596 41.643 51.458H41.6117L39.7055 56.458H39.1156ZM53.3947 50.7471V51.3877H50.8908V56.458H50.172V50.7471H53.3947ZM60.1436 52.4268C60.1436 53.0101 59.9444 53.458 59.5459 53.7705C59.1475 54.0804 58.5863 54.2354 57.8623 54.2354H57.2061V56.458H56.4873V50.7471H57.9991C59.4287 50.7471 60.1436 51.307 60.1436 52.4268ZM57.2061 53.6182H57.7803C58.348 53.6182 58.7595 53.527 59.0147 53.3447C59.2699 53.1598 59.3975 52.8643 59.3975 52.458C59.3975 52.0908 59.279 51.8161 59.042 51.6338C58.8051 51.4515 58.4353 51.3604 57.9327 51.3604H57.2061V53.6182ZM63.8183 56.5361C63.524 56.5361 63.2649 56.4971 63.0409 56.4189V55.7393C63.2779 55.846 63.5292 55.8994 63.7948 55.8994C64.0735 55.8994 64.2974 55.8343 64.4667 55.7041C64.6386 55.5739 64.804 55.3369 64.9628 54.9932L62.7636 50.7471H63.5527L65.1855 53.9229C65.2506 54.0452 65.3066 54.1807 65.3534 54.3291H65.3847L65.4159 54.2354L65.537 53.915L66.9042 50.7471H67.6659L65.8417 54.833C65.6256 55.3174 65.429 55.6702 65.2519 55.8916C65.0748 56.113 64.8717 56.2757 64.6425 56.3799C64.4159 56.484 64.1412 56.5361 63.8183 56.5361ZM73.9383 52.083C73.9383 52.4528 73.8198 52.7562 73.5828 52.9932C73.3458 53.2275 73.0138 53.3773 72.5867 53.4424V53.4736C73.0711 53.5387 73.437 53.6885 73.6844 53.9229C73.9344 54.1572 74.0594 54.4632 74.0594 54.8408C74.0594 55.3747 73.8575 55.7913 73.4539 56.0908C73.0503 56.3877 72.4839 56.5361 71.7547 56.5361C71.0698 56.5361 70.5151 56.4333 70.0906 56.2275V55.5713C70.3484 55.6937 70.6245 55.7874 70.9187 55.8525C71.2156 55.915 71.4917 55.9463 71.7469 55.9463C72.2625 55.9463 72.6505 55.8512 72.9109 55.6611C73.174 55.471 73.3055 55.1976 73.3055 54.8408C73.3055 54.4997 73.1583 54.2419 72.8641 54.0674C72.5698 53.8903 72.131 53.8018 71.5477 53.8018H70.7312V53.2002H71.5047C72.0698 53.2002 72.4917 53.1064 72.7703 52.9189C73.0516 52.7288 73.1922 52.4736 73.1922 52.1533C73.1922 51.8773 73.088 51.6598 72.8797 51.501C72.674 51.3395 72.3953 51.2588 72.0437 51.2588C71.7469 51.2588 71.4786 51.2939 71.2391 51.3643C71.0021 51.4346 70.7417 51.5622 70.4578 51.7471L70.1141 51.2588C70.6635 50.863 71.3094 50.665 72.0516 50.665C72.6375 50.665 73.0984 50.7926 73.4344 51.0479C73.7703 51.3031 73.9383 51.6481 73.9383 52.083ZM77.3942 50.7471H78.0661V53.8838C78.0661 54.1051 78.0596 54.3981 78.0466 54.7627C78.0335 55.1273 78.0205 55.3643 78.0075 55.4736H78.0427L81.1833 50.7471H81.9841V56.458H81.3122V53.3525C81.3122 53.0817 81.3213 52.7666 81.3395 52.4072C81.3578 52.0452 81.3708 51.8109 81.3786 51.7041H81.3434L78.195 56.458H77.3942V50.7471ZM92.7994 53.5947C92.7994 54.5166 92.578 55.238 92.1353 55.7588C91.6926 56.277 91.0728 56.5361 90.2759 56.5361C89.4947 56.5361 88.8814 56.2979 88.4361 55.8213C87.9934 55.3447 87.7564 54.6689 87.7252 53.7939H86.3736V56.458H85.6548V50.7471H86.3736V53.1611H87.7408C87.8007 52.3564 88.0494 51.738 88.4869 51.3057C88.9244 50.8734 89.5155 50.6572 90.2603 50.6572C91.0572 50.6572 91.6796 50.9163 92.1275 51.4346C92.5754 51.9528 92.7994 52.6729 92.7994 53.5947ZM88.4791 53.5947C88.4791 54.3499 88.6275 54.9255 88.9244 55.3213C89.2239 55.7171 89.6666 55.915 90.2525 55.915C90.841 55.915 91.2864 55.7197 91.5884 55.3291C91.8931 54.9385 92.0455 54.3604 92.0455 53.5947C92.0455 52.8317 91.8957 52.2575 91.5963 51.8721C91.2994 51.484 90.8567 51.29 90.2681 51.29C89.677 51.29 89.2304 51.4867 88.9283 51.8799C88.6288 52.2705 88.4791 52.8421 88.4791 53.5947ZM102.907 56.458L101.024 51.4502H100.993C101.032 51.8669 101.051 52.3812 101.051 52.9932V56.458H100.387V50.7471H101.45L103.211 55.4268H103.243L105.035 50.7471H106.09V56.458H105.379V52.9463C105.379 52.5557 105.397 52.0596 105.434 51.458H105.403L103.496 56.458H102.907ZM114.749 53.5947C114.749 54.5088 114.517 55.2275 114.054 55.751C113.593 56.2744 112.947 56.5361 112.116 56.5361C111.275 56.5361 110.624 56.2796 110.163 55.7666C109.705 55.251 109.476 54.5244 109.476 53.5869C109.476 52.6572 109.704 51.9372 110.159 51.4268C110.618 50.9137 111.273 50.6572 112.124 50.6572C112.952 50.6572 113.597 50.9176 114.058 51.4385C114.519 51.9567 114.749 52.6755 114.749 53.5947ZM110.234 53.5947C110.234 54.3499 110.394 54.9255 110.714 55.3213C111.034 55.7171 111.502 55.915 112.116 55.915C112.728 55.915 113.193 55.7197 113.511 55.3291C113.829 54.9385 113.987 54.3604 113.987 53.5947C113.987 52.8317 113.83 52.2575 113.515 51.8721C113.2 51.484 112.736 51.29 112.124 51.29C111.504 51.29 111.034 51.4867 110.714 51.8799C110.394 52.2705 110.234 52.8421 110.234 53.5947ZM121.869 54.7861C121.869 55.3486 121.7 55.7679 121.361 56.0439C121.023 56.32 120.505 56.458 119.807 56.458H118.135V50.7471H121.525V51.3799H118.854V53.1611H119.701C120.43 53.1611 120.973 53.29 121.33 53.5479C121.69 53.8057 121.869 54.2184 121.869 54.7861ZM118.854 55.8408H119.732C120.222 55.8408 120.576 55.7588 120.795 55.5947C121.016 55.4281 121.127 55.1585 121.127 54.7861C121.127 54.4215 121.012 54.1637 120.783 54.0127C120.554 53.8617 120.165 53.7861 119.615 53.7861H118.854V55.8408ZM125.185 50.7471H125.856V53.8838C125.856 54.1051 125.85 54.3981 125.837 54.7627C125.824 55.1273 125.811 55.3643 125.798 55.4736H125.833L128.974 50.7471H129.774V56.458H129.103V53.3525C129.103 53.0817 129.112 52.7666 129.13 52.4072C129.148 52.0452 129.161 51.8109 129.169 51.7041H129.134L125.985 56.458H125.185V50.7471ZM137.555 56.458H136.836V51.3799H135.027L134.906 52.3096C134.742 53.5908 134.599 54.5088 134.476 55.0635C134.354 55.6182 134.194 56.0049 133.996 56.2236C133.801 56.4398 133.534 56.5479 133.195 56.5479C133.002 56.5479 132.829 56.5153 132.676 56.4502V55.8486C132.811 55.9137 132.958 55.9463 133.117 55.9463C133.323 55.9463 133.486 55.8174 133.605 55.5596C133.728 55.2992 133.859 54.7119 134 53.7979C134.143 52.8838 134.286 51.8669 134.43 50.7471H137.555V56.458ZM145.178 54.7861C145.178 55.3226 144.999 55.7354 144.639 56.0244C144.28 56.3135 143.77 56.458 143.108 56.458H141.229V50.7471H141.948V53.1611H143.018C143.719 53.1611 144.254 53.3005 144.624 53.5791C144.994 53.8551 145.178 54.2575 145.178 54.7861ZM141.948 55.8408H143.038C143.97 55.8408 144.436 55.4893 144.436 54.7861C144.436 54.4398 144.316 54.1872 144.077 54.0283C143.84 53.8669 143.458 53.7861 142.932 53.7861H141.948V55.8408ZM152.857 56.458H152.138V53.7939H149.209V56.458H148.49V50.7471H149.209V53.1611H152.138V50.7471H152.857V56.458ZM159.731 56.458H156.54V50.7471H159.731V51.3799H157.258V53.1611H159.586V53.7861H157.258V55.8252H159.731V56.458ZM166.304 56.458H163.113V50.7471H166.304V51.3799H163.831V53.1611H166.16V53.7861H163.831V55.8252H166.304V56.458Z" fill="#003BCE"/>
<path d="M34.6067 0V45.748H23.071V34.3109H11.5357V45.748H0V11.4367L11.5357 0H34.6067ZM23.0718 22.8742V11.4371H11.2639L11.5357 22.8742H23.0718Z" fill="#3366FF"/>
<path d="M75.1344 34.3109V45.748H40.5273V0H52.063V34.3109H75.1344Z" fill="#3366FF"/>
<path d="M92.4389 45.7484H81.0566V0H92.4389V45.7484Z" fill="#3366FF"/>
<path d="M109.741 34.3105H121.277V22.8738H132.813V45.7484H98.2051V0H132.813V11.4375H109.741V34.3105Z" fill="#3366FF"/>
<path d="M161.346 45.7484H138.428V0H173.034L173.035 34.3109L161.346 45.7484ZM161.499 11.4379H149.963V34.3109H161.482L161.499 11.4379Z" fill="#F567F9"/>
</svg>
