<svg width="129" height="35" viewBox="0 0 129 35" fill="none" xmlns="http://www.w3.org/2000/svg">
<path d="M25.7996 0V34.3996H17.1997V25.7996H8.59998V34.3996H0V8.59968L8.59998 0H25.7996ZM17.2003 17.2V8.59999H8.39738L8.59998 17.2H17.2003Z" fill="#3366FF"/>
<path d="M56.0138 25.7996V34.3996H30.2139V0H38.8138V25.7996H56.0138Z" fill="#3366FF"/>
<path d="M68.9134 34.3999H60.4277V0H68.9134V34.3999Z" fill="#3366FF"/>
<path d="M81.8137 25.7994H90.4136V17.1997H99.0136V34.3999H73.2134V0H99.0136V8.60028H81.8137V25.7994Z" fill="#3366FF"/>
<path d="M120.285 34.3999H103.2V0H128.999L129 25.7996L120.285 34.3999ZM120.4 8.6006H111.8V25.7996H120.387L120.4 8.6006Z" fill="#F567F9"/>
</svg>
