<svg width="220" height="75" viewBox="0 0 220 75" fill="none" xmlns="http://www.w3.org/2000/svg">
<rect width="220" height="75" rx="4" fill="#D6EFFF"/>
<mask id="mask0_749_10175" style="mask-type:alpha" maskUnits="userSpaceOnUse" x="0" y="0" width="220" height="75">
<rect width="220" height="75" rx="6" transform="matrix(-1 0 0 1 220 0)" fill="#D9D9D9"/>
</mask>
<g mask="url(#mask0_749_10175)">
<path d="M56.8799 59.0516C32.3937 58.1862 17 67.3373 9.5 65C2 62.6627 -6.84229 61.2302 -6.84229 62.1627C-6.84229 64.9095 -7.90408 67.7549 -8.4534 70.4405C-9.38496 74.9948 -9.0012 77.7392 -8.23118 82.2738C-7.93126 84.04 -7.91339 85.6628 -7.84229 87.4405C-7.80055 88.484 -5.83423 88.0516 -5.09229 88.0516C4.38702 88.0516 14.1829 88.8451 23.6855 89.5238C41.4697 90.7941 59.5462 90.5516 77.3799 90.5516C87.2204 90.5516 97.0214 90.4816 106.824 90.5516C124.15 90.6754 141.716 90.4371 158.991 89.1627C169.228 88.4076 179.24 89.0516 189.491 89.0516C196.4 89.0516 203.26 88.5516 210.185 88.5516C213.262 88.5516 216.381 88.7144 219.435 88.3016C220.157 88.2041 225.145 88.5734 225.602 87.7738C226.105 86.8943 225.628 84.6969 225.408 83.7738C224.932 81.7752 225.158 79.5908 225.158 77.5516C225.158 72.8655 224.658 68.3038 224.658 63.6072C224.658 60.6794 224.128 57.9363 223.908 55.0238C223.8 53.6077 223.185 51.5517 223.547 49.0516C223.908 46.5515 218.158 45.1627 218.158 45.1627C218.158 45.1627 207.403 42.2088 202.324 41.0516C194.427 39.2521 186.44 37.839 178.324 37.1627C174.141 36.8141 170.331 36.9569 166.38 38.2738C159.763 40.4794 153.504 44.0559 147.443 47.5194L147.435 47.5238C140.104 51.7133 132.12 53.7702 124.158 56.3294C113.601 59.7225 102 60 102 60C102 60 80.9085 56.5 78 56.5C69.6677 56.5 66.6664 59.3975 56.8799 59.0516Z" fill="#A4DCFF"/>
<path d="M125.266 80.4723C125.266 91.8096 116.075 101 104.738 101C93.401 101 84.2105 91.8096 84.2105 80.4723C84.2105 69.1353 93.401 59.9448 104.738 59.9448C116.075 59.9447 125.266 69.1353 125.266 80.4723ZM118.374 80.4722C118.374 72.9412 112.269 66.8363 104.738 66.8363C97.2073 66.8363 91.1021 72.9412 91.1021 80.4722C91.1021 88.0031 97.2073 94.1085 104.738 94.1085C112.269 94.1083 118.374 88.0031 118.374 80.4722Z" fill="#323232"/>
<path d="M118.912 80.4721C118.912 88.2998 112.566 94.6455 104.738 94.6455C96.9105 94.6455 90.5649 88.2998 90.5649 80.4721C90.5649 72.6447 96.9107 66.2988 104.738 66.2988C112.566 66.2988 118.912 72.6444 118.912 80.4721ZM117.477 80.4721C117.477 73.437 111.774 67.7338 104.738 67.7338C97.7031 67.7338 91.9998 73.437 91.9998 80.4721C91.9998 87.5074 97.7031 93.2107 104.738 93.2107C111.774 93.2107 117.477 87.5074 117.477 80.4721Z" fill="#808285"/>
<path d="M104.738 87.7147C100.738 87.7147 97.4958 84.4722 97.4958 80.4723C97.4958 76.4725 100.738 73.23 104.738 73.23C108.738 73.23 111.98 76.4725 111.98 80.4723C111.98 84.4722 108.738 87.7147 104.738 87.7147Z" fill="#808285"/>
<path d="M104.738 86.2612C101.541 86.2612 98.9493 83.6693 98.9493 80.4721C98.9493 77.2749 101.541 74.6831 104.738 74.6831C107.936 74.6831 110.527 77.2749 110.527 80.4721C110.527 83.6693 107.936 86.2612 104.738 86.2612Z" fill="#323232"/>
<path d="M202.255 59.9446C213.592 59.9446 222.783 69.1351 222.783 80.472C222.783 91.8093 213.592 101 202.255 101C190.918 101 181.728 91.8093 181.728 80.472C181.727 69.1352 190.918 59.9446 202.255 59.9446ZM202.255 94.1084C209.786 94.1084 215.891 88.003 215.891 80.472C215.891 72.9411 209.786 66.8362 202.255 66.8362C194.724 66.8362 188.619 72.9411 188.619 80.472C188.619 88.003 194.724 94.1084 202.255 94.1084Z" fill="#323232"/>
<path d="M216.429 80.4721C216.429 88.2998 210.083 94.6455 202.255 94.6455C194.428 94.6455 188.082 88.2998 188.082 80.4721C188.082 72.6447 194.428 66.2988 202.255 66.2988C210.083 66.2988 216.429 72.6444 216.429 80.4721ZM214.994 80.4721C214.994 73.437 209.291 67.7338 202.255 67.7338C195.22 67.7338 189.517 73.437 189.517 80.4721C189.517 87.5074 195.22 93.2107 202.255 93.2107C209.291 93.2107 214.994 87.5074 214.994 80.4721Z" fill="#808285"/>
<path d="M202.255 87.7147C198.255 87.7147 195.012 84.4722 195.012 80.4723C195.012 76.4725 198.255 73.23 202.255 73.23C206.255 73.23 209.497 76.4725 209.497 80.4723C209.497 84.4722 206.255 87.7147 202.255 87.7147Z" fill="#808285"/>
<path d="M202.255 86.2612C199.058 86.2612 196.466 83.6693 196.466 80.4721C196.466 77.2749 199.058 74.6831 202.255 74.6831C205.452 74.6831 208.044 77.2749 208.044 80.4721C208.044 83.6693 205.452 86.2612 202.255 86.2612Z" fill="#323232"/>
<path d="M123.876 46.8088H143.095V49.4681H123.876V46.8088Z" fill="#323232"/>
<path d="M123.876 46.8088H143.095V47.8363H123.876V46.8088Z" fill="#808285"/>
<path d="M174.404 89.236C174.404 88.5338 173.835 87.9642 173.132 87.9642H136.991C135.426 87.9642 134.152 86.6911 134.152 85.1263V72.6987C134.152 71.1333 135.426 69.8601 136.991 69.8601H144.319C145.022 69.8601 145.591 69.2909 145.591 68.5884C145.591 67.8859 145.022 67.3167 144.319 67.3167H136.991C134.023 67.3167 131.609 69.7309 131.609 72.6985V85.1261C131.609 88.0934 134.023 90.5077 136.991 90.5077H173.132C173.835 90.5079 174.404 89.9383 174.404 89.236Z" fill="#323232"/>
<path d="M182.073 67.8037C182.073 70.7031 178.436 73.0541 175.536 73.0541H164.674V84.6313C164.674 85.9801 163.581 87.0735 162.232 87.0735H143.693C139.135 87.0735 135.44 83.3785 135.44 78.8207V62.0365C135.44 60.7756 136.462 59.7534 137.723 59.7534H159.924C161.851 59.7534 163.507 60.9034 164.252 62.5531H176.823C179.722 62.5531 182.073 64.9038 182.073 67.8037Z" fill="#323232"/>
<path d="M185.24 69.4725C183.575 72.8127 180.389 75.2053 176.718 75.8731L170.971 76.919C171.001 77.4543 171.02 77.9903 171.02 78.5268V87.1374C171.02 90.866 167.986 93.8998 164.257 93.8998H145.652C142.768 93.8998 140.047 92.6354 138.186 90.4313L132.425 83.6052C129.638 80.3033 128.104 76.1056 128.104 71.7851V53.878C128.104 52.5312 127.008 51.4358 125.661 51.4358H122.237C121.534 51.4358 120.965 50.8666 120.965 50.1641C120.965 49.4616 121.535 48.8923 122.237 48.8923H125.661C128.41 48.8923 130.647 51.1288 130.647 53.8778V71.7854C130.647 75.5062 131.969 79.1215 134.369 81.9651L140.13 88.7911C141.506 90.4212 143.519 91.3562 145.652 91.3562H164.257C166.583 91.3562 168.476 89.4636 168.476 87.1372V78.5267C168.476 76.093 168.141 73.6714 167.48 71.3296L163.606 57.5977L126.93 42.3647C126.281 42.0955 125.974 41.3514 126.243 40.7025C126.513 40.0533 127.256 39.7447 127.906 40.0159L182.746 62.7937C183.99 63.3098 184.973 64.3297 185.444 65.5911C185.915 66.8522 185.841 68.2671 185.24 69.4725ZM183.061 66.4806C182.833 65.8681 182.374 65.3933 181.771 65.1425L166.599 58.8411L169.928 70.6391C170.275 71.8683 170.538 73.1179 170.72 74.3789L176.262 73.3704C179.15 72.8454 181.654 70.9642 182.963 68.3378C183.255 67.7524 183.29 67.0932 183.061 66.4806Z" fill="#323232"/>
<path d="M185.718 67.804C185.676 67.3984 185.589 66.9963 185.444 66.609C184.973 65.3479 183.99 64.3278 182.747 63.8118L127.906 41.0341C127.264 40.7659 126.532 41.0655 126.255 41.6995C126.121 41.3931 126.105 41.0358 126.244 40.7025C126.513 40.0533 127.256 39.7447 127.906 40.0159L182.747 62.7937C183.99 63.3098 184.973 64.3297 185.444 65.5911C185.71 66.3016 185.796 67.0604 185.718 67.804ZM168.476 87.1372V88.1552C168.476 90.4816 166.584 92.3745 164.257 92.3745H145.653C143.519 92.3745 141.507 91.4392 140.131 89.8091L134.369 82.9831C131.969 80.1396 130.647 76.5241 130.647 72.8034V71.7852C130.647 75.5062 131.969 79.1215 134.369 81.965L140.131 88.7911C141.507 90.4212 143.519 91.3562 145.653 91.3562H164.258C166.584 91.3562 168.476 89.4636 168.476 87.1372ZM171.002 77.9311C171.007 78.1297 171.02 78.3276 171.02 78.5266V79.5445C171.02 79.008 171.001 78.472 170.971 77.937L171.002 77.9311ZM130.647 54.8959C130.647 52.1468 128.41 49.9103 125.661 49.9103H122.237C121.716 49.9103 121.269 50.2244 121.073 50.673C121.004 50.5171 120.965 50.3454 120.965 50.1641C120.965 49.4616 121.535 48.8923 122.237 48.8923H125.661C128.41 48.8923 130.647 51.1288 130.647 53.8778V54.8959ZM183.145 67.8176C183.26 68.3357 183.205 68.8704 182.964 69.3555C181.655 71.9821 179.15 73.8631 176.263 74.3882L170.72 75.3968C170.538 74.1357 170.275 72.8861 169.929 71.6571L166.6 59.859L166.925 59.994L169.929 70.639C170.276 71.8681 170.538 73.1178 170.72 74.3788L176.263 73.3702C179.15 72.8452 181.655 70.9641 182.964 68.3377C183.047 68.1696 183.104 67.9948 183.145 67.8176Z" fill="#808285"/>
<path d="M210.767 80.4719C210.767 85.0456 206.879 88.6545 202.318 88.3144L164.693 85.5091C162.057 85.3126 160.017 83.1161 160.017 80.4722C160.017 77.8285 162.057 75.632 164.693 75.4353L202.318 72.6299C206.879 72.2897 210.767 75.8985 210.767 80.4719ZM208.044 80.4719C208.044 77.5282 205.542 75.2055 202.606 75.4243L178.39 77.2301C176.693 77.3565 175.38 78.7705 175.38 80.4719C175.38 82.1737 176.693 83.5876 178.39 83.7141L202.606 85.5197C205.542 85.7387 208.044 83.4159 208.044 80.4719Z" fill="#323232"/>
<path d="M210.767 80.4722C210.767 80.6444 210.751 80.812 210.74 80.9812C210.463 76.6535 206.707 73.3205 202.318 73.6477L164.693 76.453C162.228 76.6368 160.286 78.5693 160.044 80.9809C160.027 80.8134 160.018 80.6438 160.018 80.4719C160.018 77.8282 162.057 75.6317 164.693 75.435L202.318 72.6296C206.879 72.2897 210.767 75.8986 210.767 80.4722ZM208.017 80.9809C208.034 81.1483 208.044 81.3177 208.044 81.4899C208.044 84.4338 205.542 86.7565 202.606 86.5376L178.39 84.732C176.693 84.6054 175.38 83.1914 175.38 81.4899C175.38 81.3167 175.397 81.1472 175.424 80.9809C175.655 82.4474 176.866 83.6003 178.39 83.7141L202.606 85.5197C205.37 85.7258 207.748 83.6782 208.017 80.9809Z" fill="#808285"/>
<path d="M142.597 55.8548L146.005 57.413C146.655 57.71 147.158 58.2552 147.403 58.9264L147.964 60.4695C148.075 60.7723 148.129 61.0926 148.125 61.4147L148.006 71.0869C147.993 72.1961 147.294 73.1811 146.251 73.5606L144.357 74.2501C143.314 74.6296 142.146 74.3243 141.423 73.4832L135.114 66.1502C134.904 65.9062 134.74 65.6258 134.63 65.323L134.068 63.7801C133.824 63.1087 133.859 62.3674 134.166 61.7222L135.775 58.3381C136.076 57.7054 136.613 57.2165 137.272 56.9768L140.576 55.7743C141.234 55.5349 141.96 55.5638 142.597 55.8548Z" fill="#323232"/>
<path d="M147.535 61.3569C147.639 61.6435 147.491 61.9607 147.204 62.065L135.892 66.1825C135.909 66.2032 135.924 66.2254 135.942 66.2457L136.874 67.3301L146.534 63.8144C146.821 63.7101 147.138 63.858 147.242 64.1446C147.346 64.4315 147.199 64.7484 146.912 64.8525L137.645 68.2257L138.631 69.3722L146.617 66.4656C146.904 66.3613 147.221 66.5092 147.325 66.7959C147.429 67.0826 147.281 67.3997 146.995 67.504L139.401 70.2677L140.388 71.4141L146.672 69.1266C146.959 69.0222 147.276 69.1702 147.381 69.457C147.485 69.7437 147.337 70.0608 147.05 70.1652L141.158 72.3097L142.249 73.5785C142.603 73.9899 143.064 74.2707 143.564 74.4084C142.761 74.4444 141.966 74.1152 141.423 73.4834L135.114 66.1504C134.904 65.9063 134.74 65.6259 134.63 65.3231L134.068 63.7801C133.824 63.1087 133.859 62.3674 134.166 61.7223L135.775 58.3382C136.076 57.7055 136.613 57.2166 137.272 56.9771L140.576 55.7744C141.1 55.5835 141.667 55.5661 142.198 55.7127C141.928 55.7246 141.66 55.7757 141.403 55.8696L138.098 57.0722C137.44 57.3118 136.903 57.8007 136.602 58.4334L134.993 61.8178C134.853 62.1108 134.773 62.4242 134.746 62.7416L145.964 58.6586C146.251 58.5543 146.568 58.7021 146.672 58.9889C146.777 59.2757 146.629 59.5927 146.342 59.6972L134.892 63.8647C134.893 63.8681 134.894 63.8718 134.895 63.8752L135.375 65.1938L146.826 61.0263C147.113 60.922 147.43 61.0699 147.535 61.3569Z" fill="#808285"/>
<path d="M161.836 58.3386L163.445 61.7228C163.752 62.3679 163.787 63.1093 163.543 63.7808L162.981 65.3236C162.871 65.6263 162.707 65.9068 162.497 66.1509L156.188 73.4839C155.465 74.3248 154.297 74.6303 153.254 74.2508L151.36 73.5613C150.317 73.1817 149.619 72.1965 149.605 71.0874L149.486 61.4153C149.482 61.0931 149.536 60.7729 149.647 60.4702L150.209 58.9271C150.453 58.2559 150.956 57.7108 151.606 57.4138L155.014 55.8556C155.651 55.5643 156.377 55.5353 157.035 55.7749L160.339 56.9776C160.998 57.217 161.536 57.7059 161.836 58.3386Z" fill="#323232"/>
<path d="M162.082 65.7265C161.978 66.0132 161.66 66.1611 161.374 66.0568L150.061 61.9393C150.061 61.9662 150.058 61.993 150.058 62.0198L150.076 63.4501L159.736 66.9659C160.022 67.0702 160.17 67.3872 160.066 67.674C159.961 67.9606 159.644 68.1087 159.358 68.0042L150.091 64.6314L150.109 66.1435L158.095 69.0501C158.382 69.1546 158.53 69.4716 158.426 69.7582C158.321 70.045 158.004 70.1927 157.717 70.0885L150.124 67.3248L150.143 68.8371L156.428 71.1246C156.714 71.2289 156.862 71.5461 156.758 71.8328C156.654 72.1194 156.337 72.2674 156.05 72.1631L150.158 70.0185L150.178 71.692C150.185 72.2345 150.357 72.7459 150.652 73.1728C150.013 72.6836 149.616 71.9208 149.606 71.0876L149.487 61.4153C149.483 61.0932 149.537 60.773 149.648 60.4703L150.209 58.9271C150.453 58.2559 150.957 57.7107 151.607 57.4137L155.015 55.8556C155.652 55.5642 156.378 55.5353 157.036 55.7748L160.34 56.9775C160.865 57.1684 161.31 57.5191 161.623 57.9729C161.409 57.8091 161.17 57.676 160.913 57.5822L157.608 56.3796C156.95 56.1401 156.224 56.169 155.587 56.4603L152.179 58.0185C151.884 58.1534 151.621 58.3417 151.397 58.5677L162.614 62.6505C162.901 62.7548 163.049 63.072 162.945 63.3588C162.84 63.6455 162.523 63.7934 162.236 63.6891L150.786 59.5216C150.785 59.5249 150.783 59.5282 150.782 59.5316L150.302 60.8504L161.753 65.0179C162.039 65.1224 162.186 65.4397 162.082 65.7265Z" fill="#808285"/>
<path d="M144.32 90.3753C139.271 90.3753 135.178 86.2823 135.178 81.2333C135.178 76.1843 139.271 72.0913 144.32 72.0913C149.369 72.0913 153.462 76.1843 153.462 81.2333C153.462 86.2823 149.369 90.3753 144.32 90.3753Z" fill="#323232"/>
<path d="M135.903 77.6597C137.294 74.3864 140.539 72.0911 144.32 72.0911C148.1 72.0911 151.344 74.3864 152.736 77.6596C150.76 75.1922 147.727 73.6081 144.32 73.6081C140.912 73.6081 137.88 75.1924 135.903 77.6597Z" fill="#808285"/>
<path d="M161.878 90.3753C156.829 90.3753 152.736 86.2823 152.736 81.2333C152.736 76.1843 156.829 72.0913 161.878 72.0913C166.927 72.0913 171.02 76.1843 171.02 81.2333C171.02 86.2823 166.927 90.3753 161.878 90.3753Z" fill="#323232"/>
<path d="M153.461 77.6597C154.853 74.3864 158.097 72.0911 161.878 72.0911C165.659 72.0911 168.903 74.3864 170.294 77.6596C168.318 75.1922 165.285 73.6081 161.878 73.6081C158.47 73.6081 155.438 75.1924 153.461 77.6597Z" fill="#808285"/>
<path d="M132.431 23.5763V22.0022H129.149C128.714 22.0022 128.362 22.3546 128.362 22.7893C128.362 23.2239 128.714 23.5763 129.149 23.5763H132.431Z" fill="#323232"/>
<path d="M132.431 26.265V19.3137C131.577 19.3552 130.89 20.8936 130.89 22.7893C130.89 24.6849 131.577 26.2235 132.431 26.265Z" fill="#323232"/>
<path d="M132.431 21.0946V20.4675C131.577 20.4967 130.89 21.5824 130.89 22.9199C130.89 23.0265 130.896 23.1307 130.904 23.2335C131.002 22.0439 131.645 21.1215 132.431 21.0946Z" fill="white"/>
<path d="M132.326 19H132.933V26.5786H132.326V19Z" fill="#323232"/>
<path d="M132.326 19.8252H132.933V20.8733H132.326V19.8252Z" fill="white"/>
<path d="M129.51 22.7893H130.009V37.2141H129.51V22.7893Z" fill="#323232"/>
<path d="M120.315 44.7204V31.3589C125.137 31.4385 129.015 34.3959 129.015 38.0397C129.015 41.6835 125.137 44.6408 120.315 44.7204Z" fill="#323232"/>
<path d="M120.316 34.7822V33.5769C125.137 33.633 129.015 35.7199 129.015 38.291C129.015 38.4958 128.982 38.6959 128.935 38.8937C128.383 36.6073 124.753 34.834 120.316 34.7822Z" fill="white"/>
<path d="M117.477 30.7561H120.905V45.3234H117.477V30.7561Z" fill="#323232"/>
<path d="M117.477 32.3423H120.905V34.3568H117.477V32.3423Z" fill="white"/>
<path d="M193.695 63.6128C189.771 65.5509 185.499 66.6834 181.122 66.6834C179.982 66.6834 179.318 65.3812 179.997 64.4664C185.048 57.6701 193.136 53.2659 202.255 53.2659C212.33 53.2659 221.148 58.643 226 66.6831H223.388C219.011 66.6831 214.739 65.5506 210.814 63.6125C208.234 62.3379 205.328 61.6215 202.255 61.6215C199.182 61.6215 196.276 62.3381 193.695 63.6128Z" fill="#323232"/>
<path opacity="0.5" d="M204.291 54.7931C201.975 54.7931 199.728 55.0819 197.579 55.6193C196.579 55.8693 195.616 55.0974 195.616 54.0672C197.743 53.544 199.967 53.2659 202.255 53.2659C208.946 53.2659 215.08 55.6392 219.869 59.5869C215.429 56.5632 210.068 54.7929 204.291 54.7931Z" fill="white"/>
<path d="M218.948 64.481V60.635C217.561 60.658 216.444 61.5092 216.444 62.5582C216.444 63.6069 217.561 64.4581 218.948 64.481Z" fill="#323232"/>
<path d="M218.948 61.6206V61.2737C217.561 61.2899 216.444 61.8906 216.444 62.6307C216.444 62.6896 216.454 62.7472 216.468 62.8041C216.626 62.1462 217.671 61.6356 218.948 61.6206Z" fill="white"/>
<path d="M219.272 64.481V60.635C220.66 60.658 221.776 61.5092 221.776 62.5582C221.776 63.6069 220.66 64.4581 219.272 64.481Z" fill="#F7941D"/>
<path opacity="0.5" d="M219.272 61.6206V61.2737C220.66 61.2899 221.776 61.8906 221.776 62.6307C221.776 62.6896 221.767 62.7472 221.753 62.8041C221.594 62.1462 220.549 61.6356 219.272 61.6206Z" fill="white"/>
<path d="M218.778 60.4614H219.765V64.6545H218.778V60.4614Z" fill="#323232"/>
<path d="M218.778 60.9185H219.765V61.4983H218.778V60.9185Z" fill="white"/>
<path d="M212.921 55.7049V49.7605C211.642 49.7959 210.613 51.1116 210.613 52.7327C210.613 54.3538 211.642 55.6695 212.921 55.7049Z" fill="#323232"/>
<path d="M212.92 51.2838V50.7476C211.641 50.7725 210.612 51.7008 210.612 52.8447C210.612 52.9358 210.621 53.0247 210.634 53.1129C210.78 52.0957 211.743 51.3067 212.92 51.2838Z" fill="white"/>
<path d="M213.421 55.7046V49.7603C215.088 49.7956 216.428 51.1114 216.428 52.7324C216.428 54.3535 215.088 55.6693 213.421 55.7046Z" fill="#ED1C24"/>
<path opacity="0.5" d="M213.422 51.2831V50.7468C215.088 50.7718 216.428 51.7002 216.428 52.8441C216.428 52.9352 216.417 53.0243 216.4 53.1123C216.21 52.0951 214.955 51.3062 213.422 51.2831Z" fill="white"/>
<path d="M212.659 49.4922H214.184V57.1993H212.659V49.4922Z" fill="#323232"/>
<path d="M212.659 50.198H214.184V51.0942H212.659V50.198Z" fill="white"/>
<path d="M127.273 78.3326L127.226 78.3549C124.951 79.4168 122.288 78.1115 121.606 75.6952C119.527 68.335 112.764 62.9409 104.738 62.9409C103.196 62.9409 101.7 63.1408 100.275 63.5156C97.8567 64.1518 95.3851 62.5714 95.1393 60.0826C95.1356 60.0462 95.1321 60.0097 95.1287 59.9735C98.0461 58.603 101.302 57.8337 104.738 57.8337C116.519 57.8337 126.195 66.8336 127.273 78.3326Z" fill="#6D6E71"/>
<path opacity="0.5" d="M95.6459 61.6501C95.3774 61.1866 95.1962 60.6604 95.1388 60.0826C95.1354 60.0461 95.1319 60.0098 95.1285 59.9735C98.0459 58.603 101.302 57.8337 104.738 57.8337C115.952 57.8337 125.253 65.9902 127.052 76.6925C124.587 66.8608 115.697 59.5783 105.101 59.5783C101.724 59.5782 98.5242 60.3244 95.6459 61.6501Z" fill="white"/>
<path d="M105.399 80.8534L132.807 33.3804C133.658 31.9059 135.033 30.8513 136.677 30.4108C138.321 29.9702 140.038 30.1968 141.513 31.0477L151.907 37.048C152.272 37.2596 152.738 37.134 152.949 36.7689C153.16 36.4038 153.035 35.9373 152.67 35.7267L142.276 29.7263C140.449 28.6706 138.32 28.3904 136.282 28.9369C134.244 29.4829 132.541 30.7903 131.486 32.6174L104.077 80.0903C103.867 80.4556 103.992 80.9219 104.357 81.1327C104.477 81.2023 104.608 81.235 104.737 81.235C105.001 81.2349 105.257 81.0982 105.399 80.8534Z" fill="#323232"/>
<path d="M104.959 80.599L132.368 33.1261C133.287 31.534 134.771 30.3953 136.546 29.9195C138.322 29.4456 140.176 29.688 141.768 30.6071L152.162 36.6074C152.283 36.6779 152.439 36.6357 152.509 36.5145C152.579 36.3928 152.538 36.2373 152.416 36.1673L142.023 30.1669C140.313 29.1794 138.321 28.9176 136.414 29.4282C134.508 29.9395 132.914 31.1621 131.927 32.8718L104.518 80.3447C104.448 80.4662 104.49 80.6218 104.611 80.6919C104.652 80.7152 104.695 80.7262 104.738 80.7262C104.826 80.7262 104.912 80.6805 104.959 80.599Z" fill="#D1D3D4"/>
<path d="M153.168 37.0365C153.559 36.3572 153.327 35.4886 152.648 35.0964L146.629 31.6217C145.95 31.2295 145.081 31.4622 144.689 32.1416C144.297 32.8208 144.53 33.6895 145.209 34.0817L151.227 37.5565C151.907 37.9487 152.775 37.716 153.168 37.0365Z" fill="#808285"/>
<path d="M153.174 37.0225C153.171 37.0271 153.17 37.0319 153.168 37.0364C152.775 37.7158 151.907 37.9484 151.227 37.5562L145.209 34.0814C144.53 33.6892 144.297 32.8207 144.689 32.1413C144.692 32.1368 144.695 32.1334 144.698 32.1289L153.174 37.0225Z" fill="#323232"/>
<path d="M151.938 37.7464C151.153 37.7464 150.517 37.1105 150.517 36.3261C150.517 35.5417 151.153 34.9058 151.938 34.9058C152.722 34.9058 153.358 35.5417 153.358 36.3261C153.358 37.1105 152.722 37.7464 151.938 37.7464Z" fill="#414042"/>
<path d="M151.938 37.2139C151.448 37.2139 151.05 36.8165 151.05 36.3262C151.05 35.8359 151.448 35.4385 151.938 35.4385C152.428 35.4385 152.826 35.8359 152.826 36.3262C152.826 36.8165 152.428 37.2139 151.938 37.2139Z" fill="#808285"/>
<path d="M106.06 81.2356L132.912 34.7265C133.333 33.9967 133.083 33.0633 132.353 32.6421C131.624 32.2199 130.69 32.4708 130.269 33.2005L103.417 79.7098C102.995 80.4395 103.245 81.3729 103.975 81.794C104.215 81.933 104.478 81.9991 104.737 81.9991C105.264 81.9991 105.777 81.7249 106.06 81.2356Z" fill="#939598"/>
<path d="M130.268 33.2025L132.911 34.7285L121.424 54.6249L118.781 53.0989L130.268 33.2025Z" fill="#323232"/>
<path opacity="0.5" d="M103.416 79.7094L130.268 33.2004C130.645 32.5479 131.43 32.2822 132.114 32.5341L103.763 81.6406C103.203 81.1741 103.04 80.3617 103.416 79.7094Z" fill="white"/>
<path d="M203.018 81.7938C202.778 81.9328 202.515 81.9989 202.257 81.9989C201.729 81.9989 201.216 81.7254 200.933 81.2354L190.612 63.3579C190.18 62.6104 190.454 61.654 191.216 61.2481C191.942 60.8613 192.844 61.1195 193.255 61.8319L203.577 79.7093C203.998 80.439 203.748 81.3724 203.018 81.7938Z" fill="#939598"/>
<path d="M194.366 69.8606L191.037 64.0931L193.685 62.5757L197.01 68.3345L194.366 69.8606Z" fill="#F7941D"/>
<path opacity="0.5" d="M191.512 61.1294C192.172 60.9389 192.898 61.2138 193.255 61.8317L203.577 79.7093C203.935 80.3289 203.804 81.0918 203.312 81.5669L191.512 61.1294Z" fill="white"/>
<path d="M193.878 53.6945V52.2866C193.878 51.3277 192.865 50.708 192.011 51.1453L185.168 54.6515C182.964 55.7805 180.435 56.1015 178.019 55.5588L165.851 52.825C165.076 52.6507 164.339 53.2404 164.339 54.0351C164.339 56.9301 181.24 62.4574 181.24 62.4574C183.498 63.5094 193.878 56.0509 193.878 53.6945Z" fill="#323232"/>
<path opacity="0.5" d="M192.193 51.0682C193.234 50.7192 193.817 52.2807 192.84 52.7813L187.203 55.6692C185 56.7981 182.471 57.1191 180.055 56.5764L168.056 53.32L178.019 55.5584C180.435 56.1011 182.964 55.78 185.168 54.6511L192.011 51.145C192.071 51.1143 192.132 51.0886 192.193 51.0682Z" fill="white"/>
<path d="M164.309 54.9824C150.159 37.7978 132.114 36.5046 132.114 44.1861V46.8835C132.114 52.2397 136.255 56.5818 141.364 56.5818H162.783C163.626 56.5818 164.309 55.8658 164.309 54.9824Z" fill="#323232"/>
<path d="M162.858 53.2706C149.683 38.01 132.881 36.8616 132.881 43.683V46.0785C132.881 50.835 136.737 54.6909 141.493 54.6909H161.438C162.222 54.6909 162.858 54.055 162.858 53.2706Z" fill="#939598"/>
<path opacity="0.5" d="M135.437 52.1995C133.86 50.6385 132.881 48.4733 132.881 46.0785V43.683C132.881 36.8616 149.683 38.01 162.858 53.2706C162.858 53.3793 162.843 53.4842 162.82 53.586C149.918 39.976 134.408 39.1649 134.408 45.7191V48.1146C134.408 49.593 134.781 50.9838 135.437 52.1995Z" fill="white"/>
</g>
<path d="M17.2734 25L14.5234 16.0391H14.4531C14.5521 17.862 14.6016 19.0781 14.6016 19.6875V25H12.4375V13.5781H15.7344L18.4375 22.3125H18.4844L21.3516 13.5781H24.6484V25H22.3906V19.5938C22.3906 19.3385 22.3932 19.0443 22.3984 18.7109C22.4089 18.3776 22.4453 17.4922 22.5078 16.0547H22.4375L19.4922 25H17.2734ZM29.2422 20.6172C29.2422 21.4818 29.3828 22.1354 29.6641 22.5781C29.9505 23.0208 30.4141 23.2422 31.0547 23.2422C31.6901 23.2422 32.1458 23.0234 32.4219 22.5859C32.7031 22.1432 32.8438 21.487 32.8438 20.6172C32.8438 19.7526 32.7031 19.1042 32.4219 18.6719C32.1406 18.2396 31.6797 18.0234 31.0391 18.0234C30.4036 18.0234 29.9453 18.2396 29.6641 18.6719C29.3828 19.099 29.2422 19.7474 29.2422 20.6172ZM35.2812 20.6172C35.2812 22.0391 34.9062 23.151 34.1562 23.9531C33.4062 24.7552 32.362 25.1562 31.0234 25.1562C30.1849 25.1562 29.4453 24.974 28.8047 24.6094C28.1641 24.2396 27.6719 23.7109 27.3281 23.0234C26.9844 22.3359 26.8125 21.5339 26.8125 20.6172C26.8125 19.1901 27.1849 18.0807 27.9297 17.2891C28.6745 16.4974 29.7214 16.1016 31.0703 16.1016C31.9089 16.1016 32.6484 16.2839 33.2891 16.6484C33.9297 17.013 34.4219 17.5365 34.7656 18.2188C35.1094 18.901 35.2812 19.7005 35.2812 20.6172ZM44.3984 16.2656V18.0547H41.5391V25H39.1562V18.0547H36.2891V16.2656H44.3984ZM47.8516 20.6172C47.8516 21.4818 47.9922 22.1354 48.2734 22.5781C48.5599 23.0208 49.0234 23.2422 49.6641 23.2422C50.2995 23.2422 50.7552 23.0234 51.0312 22.5859C51.3125 22.1432 51.4531 21.487 51.4531 20.6172C51.4531 19.7526 51.3125 19.1042 51.0312 18.6719C50.75 18.2396 50.2891 18.0234 49.6484 18.0234C49.013 18.0234 48.5547 18.2396 48.2734 18.6719C47.9922 19.099 47.8516 19.7474 47.8516 20.6172ZM53.8906 20.6172C53.8906 22.0391 53.5156 23.151 52.7656 23.9531C52.0156 24.7552 50.9714 25.1562 49.6328 25.1562C48.7943 25.1562 48.0547 24.974 47.4141 24.6094C46.7734 24.2396 46.2812 23.7109 45.9375 23.0234C45.5938 22.3359 45.4219 21.5339 45.4219 20.6172C45.4219 19.1901 45.7943 18.0807 46.5391 17.2891C47.2839 16.4974 48.3307 16.1016 49.6797 16.1016C50.5182 16.1016 51.2578 16.2839 51.8984 16.6484C52.5391 17.013 53.0312 17.5365 53.375 18.2188C53.7188 18.901 53.8906 19.7005 53.8906 20.6172ZM63.0078 16.2656V18.0547H60.1484V25H57.7656V18.0547H54.8984V16.2656H63.0078ZM68.1797 17.7969C67.6745 17.7969 67.2786 17.9583 66.9922 18.2812C66.7057 18.599 66.5417 19.0521 66.5 19.6406H69.8438C69.8333 19.0521 69.6797 18.599 69.3828 18.2812C69.0859 17.9583 68.6849 17.7969 68.1797 17.7969ZM68.5156 25.1562C67.1094 25.1562 66.0104 24.7682 65.2188 23.9922C64.4271 23.2161 64.0312 22.1172 64.0312 20.6953C64.0312 19.2318 64.3958 18.1016 65.125 17.3047C65.8594 16.5026 66.8724 16.1016 68.1641 16.1016C69.3984 16.1016 70.3594 16.4531 71.0469 17.1562C71.7344 17.8594 72.0781 18.8307 72.0781 20.0703V21.2266H66.4453C66.4714 21.9036 66.6719 22.4323 67.0469 22.8125C67.4219 23.1927 67.9479 23.3828 68.625 23.3828C69.151 23.3828 69.6484 23.3281 70.1172 23.2188C70.5859 23.1094 71.0755 22.9349 71.5859 22.6953V24.5391C71.1693 24.7474 70.724 24.901 70.25 25C69.776 25.1042 69.1979 25.1562 68.5156 25.1562ZM75.8047 20.5391L72.9922 16.2656H75.6953L77.3906 19.0469L79.1016 16.2656H81.8047L78.9609 20.5391L81.9375 25H79.2266L77.3906 22.0078L75.5469 25H72.8438L75.8047 20.5391ZM85.6484 16.2656V19.625H88.9766V16.2656H91.3594V25H88.9766V21.3984H85.6484V25H83.2656V16.2656H85.6484ZM96.1641 16.2656V19.7188C96.1641 20.0833 96.1042 20.974 95.9844 22.3906L100.016 16.2656H102.883V25H100.578V21.5156C100.578 20.8958 100.63 20.0208 100.734 18.8906L96.7188 25H93.8594V16.2656H96.1641ZM111.117 16.2656H113.742L110.281 20.4531L114.047 25H111.344L107.773 20.5703V25H105.391V16.2656H107.773V20.5078L111.117 16.2656ZM120.844 25L120.383 23.8125H120.32C119.919 24.3177 119.505 24.6693 119.078 24.8672C118.656 25.0599 118.104 25.1562 117.422 25.1562C116.583 25.1562 115.922 24.9167 115.438 24.4375C114.958 23.9583 114.719 23.276 114.719 22.3906C114.719 21.4635 115.042 20.7812 115.688 20.3438C116.339 19.901 117.318 19.6562 118.625 19.6094L120.141 19.5625V19.1797C120.141 18.2943 119.688 17.8516 118.781 17.8516C118.083 17.8516 117.263 18.0625 116.32 18.4844L115.531 16.875C116.536 16.349 117.651 16.0859 118.875 16.0859C120.047 16.0859 120.945 16.3411 121.57 16.8516C122.195 17.362 122.508 18.138 122.508 19.1797V25H120.844ZM120.141 20.9531L119.219 20.9844C118.526 21.0052 118.01 21.1302 117.672 21.3594C117.333 21.5885 117.164 21.9375 117.164 22.4062C117.164 23.0781 117.549 23.4141 118.32 23.4141C118.872 23.4141 119.312 23.2552 119.641 22.9375C119.974 22.6198 120.141 22.1979 120.141 21.6719V20.9531Z" fill="#3366FF"/>
</svg>
