<svg width="18" height="16" viewBox="0 0 18 16" fill="none" xmlns="http://www.w3.org/2000/svg">
<path d="M1.77734 1L15.7773 15" stroke="#3366FF" stroke-linecap="round" stroke-linejoin="round"/>
<path d="M7.6768 6.90088C7.38491 7.19256 7.22085 7.58824 7.2207 8.00088C7.22056 8.41353 7.38434 8.80933 7.67602 9.10121C7.9677 9.3931 8.36338 9.55716 8.77602 9.55731C9.18867 9.55745 9.58447 9.39367 9.87635 9.10199" stroke="#3366FF" stroke-linecap="round" stroke-linejoin="round"/>
<path d="M6.72678 2.83935C7.39366 2.64858 8.08415 2.55301 8.77778 2.55547C11.8889 2.55547 14.4812 4.37002 16.5556 7.99991C15.9504 9.05847 15.3018 9.96302 14.6088 10.7128M12.9443 12.1602C11.6758 13.0158 10.2882 13.4444 8.77778 13.4444C5.66667 13.4444 3.07433 11.6298 1 7.99991C2.06478 6.13713 3.26567 4.75269 4.60267 3.8458" stroke="#3366FF" stroke-linecap="round" stroke-linejoin="round"/>
</svg>
