<svg width="16" height="16" viewBox="0 0 16 16" fill="none" xmlns="http://www.w3.org/2000/svg">
<path d="M5.66579 7.22221C7.38401 7.22221 8.7769 5.82932 8.7769 4.11111C8.7769 2.39289 7.38401 1 5.66579 1C3.94758 1 2.55469 2.39289 2.55469 4.11111C2.55469 5.82932 3.94758 7.22221 5.66579 7.22221Z" stroke="#3366FF" stroke-linecap="round" stroke-linejoin="round"/>
<path d="M1 14.9997V13.4441C1 12.619 1.32778 11.8277 1.91122 11.2442C2.49467 10.6608 3.28599 10.333 4.11111 10.333H7.22221C8.04733 10.333 8.83865 10.6608 9.4221 11.2442C10.0055 11.8277 10.3333 12.619 10.3333 13.4441V14.9997" stroke="#3366FF" stroke-linecap="round" stroke-linejoin="round"/>
<path d="M11.1113 1.10156C11.7805 1.27291 12.3737 1.66211 12.7973 2.2078C13.2208 2.7535 13.4508 3.42465 13.4508 4.11545C13.4508 4.80625 13.2208 5.4774 12.7973 6.02309C12.3737 6.56879 11.7805 6.95799 11.1113 7.12933" stroke="#3366FF" stroke-linecap="round" stroke-linejoin="round"/>
<path d="M15.0013 15.0002V13.4446C14.9974 12.758 14.7663 12.0919 14.3443 11.5503C13.9222 11.0086 13.3328 10.6219 12.668 10.4502" stroke="#3366FF" stroke-linecap="round" stroke-linejoin="round"/>
</svg>
