<svg width="220" height="75" viewBox="0 0 220 75" fill="none" xmlns="http://www.w3.org/2000/svg">
<rect width="220" height="75" rx="4" fill="#D6EFFF"/>
<mask id="mask0_749_10199" style="mask-type:alpha" maskUnits="userSpaceOnUse" x="0" y="0" width="220" height="75">
<rect width="220" height="75" rx="6" transform="matrix(-1 0 0 1 220 0)" fill="#D9D9D9"/>
</mask>
<g mask="url(#mask0_749_10199)">
<path fill-rule="evenodd" clip-rule="evenodd" d="M189.669 20.2368C188.037 18.861 187 16.8016 187 14.5C187 10.3579 190.358 7 194.5 7C196.97 7 199.16 8.19355 200.527 10.0353C203.416 8.72786 206.623 8 210 8C222.703 8 233 18.2975 233 31C233 39.5491 228.336 47.0089 221.413 50.9731C224.894 55.0038 227 60.256 227 66C227 78.7026 216.703 89 204 89C196.404 89 189.668 85.3175 185.479 79.6402C180.02 83.6389 173.286 86 166 86C155.821 86 146.718 81.3912 140.665 74.1466C137.003 85.6594 126.226 94 113.5 94C104.357 94 96.2187 89.6942 91.0036 82.9996C86.823 93.5437 76.5322 101 64.5 101C50.4408 101 38.7593 90.8199 36.4247 77.4288C34.2271 80.213 30.8222 82 27 82C20.3726 82 15 76.6274 15 70C15 63.3726 20.3726 58 27 58C31.3931 58 35.2349 60.3607 37.3259 63.8828C40.9783 52.3548 51.7635 44 64.5 44C73.6435 44 81.7813 48.3058 86.9964 55.0004C91.177 44.4563 101.468 37 113.5 37C113.667 37 113.834 37.0014 114 37.0043L114 37C114 34.2386 116.239 32 119 32C121.761 32 124 34.2386 124 37C124 37.6566 123.873 38.2835 123.643 38.8579C127.521 40.3351 130.993 42.6344 133.846 45.5429C135.675 37.6237 140.355 30.7953 146.746 26.1962C146.266 25.0601 146 23.8111 146 22.5C146 17.2533 150.253 13 155.5 13C159.891 13 163.586 15.979 164.675 20.0261C165.114 20.0088 165.556 20 166 20C174.085 20 181.492 22.9078 187.23 27.7347C187.61 25.0596 188.451 22.5327 189.669 20.2368ZM81 42C81 44.2091 82.7909 46 85 46C87.2091 46 89 44.2091 89 42C89 39.7909 87.2091 38 85 38C82.7909 38 81 39.7909 81 42Z" fill="#A4DCFF"/>
<path d="M103.411 48.0257C102.878 47.7817 102.467 47.3328 102.271 46.7807L101.33 44.1335L84.0605 50.2693L85.001 52.9165C85.197 53.4686 85.1615 54.0763 84.9022 54.6016C84.2898 55.8427 84.2053 57.2788 84.6688 58.5827L89.5108 72.2113L89.7449 72.8705C90.3473 74.5659 92.2099 75.4517 93.9051 74.8496L109.201 69.4151C110.896 68.8128 111.782 66.9504 111.18 65.255L110.946 64.5958L106.104 50.9674C105.64 49.6631 104.669 48.602 103.411 48.0257Z" fill="#D9DBDD"/>
<path d="M104.838 50.5705C104.121 49.7005 102.335 47.5879 101.052 48.7465C100.115 49.5926 100.08 51.276 100.197 52.6976C100.1 52.572 100.001 52.4476 99.8999 52.3247C99.1826 51.455 97.3966 49.3424 96.1136 50.5008C95.1766 51.3469 95.1412 53.0302 95.2586 54.4518C95.1616 54.3262 95.0629 54.2019 94.9617 54.079C94.2443 53.2093 92.4583 51.0967 91.1751 52.2553C90.2381 53.1012 90.2027 54.7848 90.3201 56.2063C90.2231 56.0805 90.1243 55.9564 90.0231 55.8335C89.3058 54.9638 87.5198 52.8512 86.2366 54.0098C84.9627 55.16 85.3543 57.8594 85.5318 59.3423C85.7746 61.3682 86.3299 63.3434 87.0113 65.2619C87.8207 67.5402 88.6163 69.9042 90.0584 71.8746C90.8734 72.9889 93.6166 75.7304 94.7585 73.5531C95.2278 72.658 95.4221 71.6769 95.447 70.6698C96.5536 71.9094 98.7157 73.6693 99.697 71.7986C100.166 70.9034 100.361 69.9224 100.386 68.9152C101.492 70.1546 103.654 71.9148 104.636 70.044C105.105 69.1489 105.299 68.1679 105.324 67.1607C106.431 68.4001 108.593 70.16 109.574 68.2895C110.908 65.7463 110.052 62.5125 109.252 59.9417C109.013 59.1722 108.766 58.3975 108.499 57.6279C107.625 55.1059 106.542 52.637 104.838 50.5705Z" fill="#42703C"/>
<path opacity="0.5" d="M88.7646 70.1086L88.7646 70.1118L89.5105 72.2114L89.5529 72.3305L110.988 64.7151L110.945 64.5959L110.2 62.4964L110.198 62.4939L88.7646 70.1086Z" fill="#808285"/>
<path d="M84.6758 52.0538L101.978 45.9064C102.101 45.8631 102.164 45.7291 102.121 45.6072C102.078 45.4851 101.944 45.4216 101.822 45.4647L84.519 51.612C84.3971 51.6554 84.3333 51.7893 84.3766 51.9114C84.42 52.0333 84.5539 52.0971 84.6758 52.0538Z" fill="#D9DBDD"/>
<path d="M102.04 46.0784L84.737 52.2258C84.6151 52.2691 84.5513 52.4031 84.5946 52.525C84.638 52.6471 84.7719 52.7106 84.8938 52.6673L102.196 46.5199C102.319 46.4766 102.382 46.3426 102.339 46.2205C102.296 46.0986 102.162 46.0348 102.04 46.0784Z" fill="#D9DBDD"/>
<path d="M84.6687 58.5827L89.2288 71.4179L110.664 63.8024L106.104 50.9672C106.102 50.9615 106.099 50.9563 106.097 50.9507L84.6636 58.5654C84.6655 58.5711 84.6668 58.577 84.6687 58.5827Z" fill="#D9DBDD"/>
<path d="M85.0271 59.5917L88.8696 70.4064L110.305 62.7909L106.462 51.9762C106.461 51.9713 106.458 51.9668 106.456 51.9622L85.0232 59.5769C85.0247 59.5816 85.0254 59.587 85.0271 59.5917Z" fill="#53804D"/>
<path opacity="0.5" d="M102.039 46.0782L102.023 46.0838L101.962 45.912L101.978 45.9063C102.1 45.8629 102.164 45.729 102.121 45.6071C102.078 45.485 101.944 45.4214 101.821 45.4645L101.805 45.4702L101.33 44.1335L84.0603 50.2693L84.5353 51.6062L84.5188 51.6119C84.3969 51.6552 84.3331 51.7892 84.3765 51.9113C84.4198 52.0332 84.5538 52.097 84.6757 52.0536L84.6922 52.048L84.7532 52.2196L84.737 52.2255C84.7042 52.2371 84.6767 52.2558 84.6535 52.2785L102.138 46.0666C102.105 46.0636 102.072 46.0664 102.039 46.0782Z" fill="#808285"/>
<path d="M101.069 42.9984L83.5476 49.2233C83.123 49.3743 82.9012 49.8407 83.0519 50.265L83.4498 51.3851C83.537 51.6304 83.8064 51.7585 84.0514 51.6715L102.222 45.2159C102.467 45.1287 102.595 44.8596 102.508 44.6143L102.11 43.4939C101.96 43.0696 101.493 42.8477 101.069 42.9984Z" fill="#53804D"/>
<g opacity="0.26">
<path d="M96.1276 45.2452L84.545 49.3602C84.4573 49.3913 84.4115 49.4876 84.4426 49.5755C84.4736 49.6629 84.5699 49.7089 84.6578 49.6777L96.2403 45.5626C96.328 45.5316 96.3738 45.435 96.3428 45.3474C96.3117 45.2597 96.2152 45.2139 96.1276 45.2452Z" fill="white"/>
<path d="M100.381 43.7338L97.8029 44.6499C97.7155 44.6809 97.6695 44.7774 97.7007 44.8651C97.7318 44.9525 97.8283 44.9986 97.9157 44.9675L100.494 44.0515C100.582 44.0205 100.628 43.9239 100.596 43.8365C100.565 43.7486 100.469 43.7028 100.381 43.7338Z" fill="white"/>
</g>
<path d="M97.649 65.8312C100.237 65.8312 102.336 63.733 102.336 61.1446C102.336 58.5563 100.237 56.458 97.649 56.458C95.0607 56.458 92.9624 58.5563 92.9624 61.1446C92.9624 63.733 95.0607 65.8312 97.649 65.8312Z" fill="#D9DBDD"/>
<path opacity="0.4" d="M87.8652 52.6694C87.4473 52.6874 87.1227 53.0407 87.1404 53.4589C87.1705 54.1656 87.023 54.8699 86.7139 55.4963C86.3453 56.243 86.2936 57.1216 86.5726 57.9066L91.6488 72.1942C91.7889 72.5887 92.2223 72.7946 92.6165 72.6544C93.0108 72.5143 93.2169 72.0814 93.077 71.6869L88.0008 57.3993C87.8583 56.998 87.8846 56.5488 88.0727 56.1674C88.4943 55.3136 88.6955 54.355 88.6546 53.3946C88.6367 52.976 88.2835 52.6517 87.8652 52.6694Z" fill="white"/>
<path d="M94.3751 63.439C94.7951 63.6389 95.7835 62.4389 96.5828 60.7589C97.3821 59.0789 97.6895 57.555 97.2695 57.3552C96.8495 57.1554 95.8611 58.3553 95.0618 60.0353C94.2626 61.7153 93.9551 63.2392 94.3751 63.439Z" fill="#42703C"/>
<path d="M96.3839 64.3929C96.8039 64.5928 97.7923 63.3929 98.5915 61.713C99.3907 60.0332 99.6981 58.5094 99.2781 58.3095C98.8581 58.1097 97.8697 59.3096 97.0705 60.9894C96.2713 62.6693 95.9639 64.1931 96.3839 64.3929Z" fill="#42703C"/>
<path d="M98.39 65.347C98.81 65.5469 99.7984 64.347 100.598 62.6671C101.397 60.9873 101.704 59.4635 101.284 59.2637C100.864 59.0638 99.8758 60.2637 99.0766 61.9435C98.2774 63.6234 97.97 65.1472 98.39 65.347Z" fill="#42703C"/>
<path d="M79.7165 75.8228C79.7158 75.7767 79.7143 75.7312 79.7082 75.6864C79.5823 74.7504 79.5631 73.8035 79.8108 72.8924L84.195 56.7698C84.4356 55.8853 85.0237 54.5119 85.643 53.8362C85.6679 53.8091 85.6861 53.7764 85.7065 53.7456C85.7186 53.7269 85.7319 53.7097 85.7427 53.6905C85.759 53.6629 85.7723 53.6333 85.7866 53.604C85.7957 53.5853 85.8063 53.5671 85.8144 53.5474C85.8284 53.5141 85.8392 53.4792 85.8503 53.4445C85.856 53.4272 85.8634 53.4107 85.8683 53.393C85.8821 53.3425 85.8929 53.2901 85.9008 53.2366C85.9011 53.2332 85.902 53.2307 85.9025 53.2278C85.9025 53.2275 85.9025 53.2275 85.9025 53.2275C85.9082 53.1886 85.9057 53.1502 85.9072 53.1113C85.9089 53.0711 85.9146 53.0303 85.9121 52.9906C85.9087 52.9303 85.8966 52.8717 85.8841 52.8133C85.8804 52.7966 85.8801 52.7786 85.8759 52.7623C85.8466 52.6493 85.7971 52.5439 85.738 52.4439C85.7196 52.4127 85.7041 52.3797 85.6834 52.3499C85.1099 51.5331 84.5009 50.7416 84.134 49.8135L83.8831 49.1782C83.6932 48.6978 83.6639 48.1686 83.7996 47.6699L84.098 46.5721C84.2337 46.5916 84.3659 46.5123 84.4029 46.3764C84.4282 46.2833 84.3984 46.191 84.3386 46.1242C84.4241 46.0964 84.4965 46.0324 84.5218 45.939C84.5617 45.7923 84.475 45.6408 84.3283 45.6009L70.514 41.8444C70.3672 41.8045 70.216 41.8912 70.1759 42.038C70.1505 42.1311 70.1803 42.2234 70.2401 42.2901C70.1547 42.318 70.0823 42.3822 70.0569 42.4753C70.02 42.6112 70.0941 42.7467 70.2212 42.7986L69.9227 43.8964C69.787 44.3951 69.4935 44.8363 69.0865 45.1545L68.5484 45.5751C67.7619 46.1895 66.836 46.5638 65.9278 46.9775C65.8948 46.9927 65.865 47.0134 65.8333 47.0312C65.7316 47.0875 65.6353 47.1533 65.553 47.2358C65.541 47.2476 65.5319 47.2629 65.5203 47.2754C65.4799 47.3195 65.44 47.3638 65.406 47.4138C65.3839 47.4471 65.3681 47.485 65.3492 47.5207C65.3309 47.5549 65.3095 47.5867 65.2945 47.6231C65.2945 47.6231 65.2945 47.6231 65.2945 47.6234C65.2933 47.6261 65.2928 47.6288 65.2918 47.6318C65.2713 47.6822 65.2541 47.7325 65.2406 47.7832C65.2356 47.8009 65.2337 47.8189 65.2297 47.8366C65.2218 47.8723 65.2135 47.908 65.2088 47.9438C65.2061 47.9649 65.2061 47.9859 65.2044 48.007C65.2016 48.0391 65.1982 48.0716 65.1982 48.1033C65.1982 48.1255 65.2007 48.1472 65.2017 48.1693C65.2036 48.2063 65.2029 48.2439 65.2105 48.2799C65.4026 49.1762 65.2142 50.6582 64.9739 51.5427L60.5894 67.6653C60.3417 68.5762 59.8455 69.3834 59.2626 70.1263C59.2348 70.162 59.2104 70.2004 59.1865 70.2398C59.1814 70.248 59.1752 70.2556 59.17 70.2645C59.072 70.4346 59.011 70.6338 59.0011 70.8542C58.975 71.4509 59.4114 71.9712 59.9876 72.1278L59.9878 72.1281C62.9364 72.9301 75.1191 76.2429 78.0691 77.0452C78.4557 77.1503 78.8657 77.0774 79.1797 76.8649C79.1817 76.8634 79.1839 76.8629 79.1861 76.8615C79.3572 76.744 79.4956 76.5817 79.5895 76.3864C79.5993 76.366 79.6124 76.3485 79.621 76.3276C79.621 76.3276 79.621 76.3276 79.621 76.3271C79.686 76.1697 79.7168 76.0092 79.718 75.8523C79.7182 75.8422 79.717 75.8326 79.7165 75.8228Z" fill="#D9DBDD"/>
<path d="M78.2737 76.2953C78.4352 76.3392 78.6115 76.3113 78.7445 76.221L78.7502 76.2173C78.8159 76.1678 78.8575 76.1151 78.8888 76.0501L78.9144 75.9998C78.9294 75.957 78.9386 75.911 78.9403 75.8642L78.939 75.8334C78.939 75.8176 78.9391 75.8019 78.9376 75.7866C78.775 74.5805 78.8142 73.5947 79.0607 72.6885L83.4449 56.5659C83.6724 55.7292 84.2834 54.1906 85.0428 53.3408L85.1187 53.1891C85.1233 53.1716 85.127 53.1534 85.13 53.1352L85.1342 53.0246C85.1315 53.0079 85.1275 52.9914 85.1238 52.9751L85.115 52.9298C85.1076 52.9116 85.0933 52.8806 85.0684 52.838L85.0354 52.7798L84.8153 52.4686C84.2982 51.7414 83.7633 50.9891 83.4117 50.0994L83.1602 49.4646C82.9105 48.8317 82.8711 48.1223 83.0494 47.4663L83.3868 46.2259L83.2974 46.1262L71.1367 42.8196L71.0106 42.86L70.673 44.1008C70.4947 44.7568 70.1014 45.3483 69.5656 45.7674L69.0275 46.1883C68.2735 46.7775 67.4314 47.1553 66.6173 47.5202L66.2097 47.7118C66.1681 47.7352 66.14 47.7542 66.1216 47.7694C66.1129 47.7795 66.1043 47.7896 66.0955 47.7995C66.0829 47.8133 66.0713 47.8251 66.0607 47.8371L66.0068 47.9379C66.0016 47.9516 65.9965 47.9684 65.9918 47.9849L65.9783 48.1299L65.9736 48.1304C66.2078 49.2486 65.9529 50.9039 65.7236 51.7471L61.3394 67.8695C61.0929 68.7757 60.6275 69.6456 59.8747 70.6055C59.8659 70.6181 59.857 70.6334 59.8481 70.6479L59.8353 70.6686C59.7994 70.7388 59.7812 70.8099 59.778 70.8882C59.7684 71.101 59.9464 71.3113 60.1919 71.378L78.2737 76.2953Z" fill="#990D0D"/>
<path d="M84.8223 43.8622L70.9694 40.0951C70.6241 40.0013 70.2681 40.2049 70.1742 40.5502L69.9265 41.4613C69.8723 41.6608 69.99 41.8664 70.1895 41.9206L84.5704 45.8312C84.7701 45.8856 84.9755 45.7677 85.0297 45.5685L85.2774 44.6574C85.3712 44.3121 85.1676 43.956 84.8223 43.8622Z" fill="#53804D"/>
<g opacity="0.26">
<path d="M81.9572 43.4645L71.5577 40.6366C71.4865 40.6171 71.4131 40.6592 71.3937 40.7304C71.3742 40.8018 71.4163 40.8752 71.4875 40.8947L81.8871 43.7226C81.9585 43.742 82.0318 43.6997 82.0513 43.6285C82.0705 43.5573 82.0284 43.484 81.9572 43.4645Z" fill="white"/>
<path d="M84.557 44.1714L83.3201 43.835C83.2487 43.8158 83.1753 43.8576 83.1559 43.9288C83.1364 44.0005 83.1785 44.0741 83.2497 44.0933L84.4866 44.4297C84.558 44.4491 84.6314 44.4068 84.6508 44.3356C84.6703 44.2642 84.6282 44.1908 84.557 44.1714Z" fill="white"/>
</g>
<path opacity="0.4" d="M84.2461 51.9595C82.9021 51.6563 81.5662 51.3222 80.2315 50.9833C78.8971 50.6452 77.569 50.282 76.2373 49.9324C74.912 49.56 73.5833 49.2 72.2609 48.8164C70.9386 48.4327 69.6177 48.0441 68.3052 47.6243C69.6494 47.9272 70.9851 48.2616 72.3198 48.6001C73.6544 48.9387 74.9824 49.3015 76.3139 49.6516C77.6392 50.0245 78.9682 50.3837 80.2901 50.7679C81.6124 51.1518 82.9336 51.5404 84.2461 51.9595Z" fill="white"/>
<path opacity="0.4" d="M60.7004 70.5176C61.99 70.8059 63.2713 71.1251 64.5513 71.4486C65.8315 71.7722 67.1046 72.1207 68.3817 72.4553C69.6526 72.8126 70.9266 73.1581 72.1946 73.527C73.462 73.8959 74.7287 74.2697 75.9863 74.6745C74.6967 74.3864 73.4155 74.067 72.1355 73.7434C70.8555 73.4194 69.5819 73.0719 68.3051 72.7363C67.0347 72.378 65.7604 72.0337 64.4927 71.6644C63.225 71.2955 61.9585 70.9222 60.7004 70.5176Z" fill="white"/>
<path d="M84.5493 55.748L65.1861 50.4822C65.1294 50.8732 65.0553 51.2436 64.974 51.5433L60.5896 67.6659C60.5039 67.9808 60.3869 68.2827 60.2485 68.5743L79.645 73.8487C79.6734 73.5271 79.7256 73.2077 79.811 72.8928L84.1952 56.7701C84.277 56.4704 84.4006 56.1136 84.5493 55.748Z" fill="#F1F2F2"/>
<path d="M83.9585 57.6416L84.1954 56.7703C84.2003 56.7521 84.2067 56.7324 84.2118 56.7137L64.9885 51.4861C64.9835 51.5048 64.9791 51.525 64.9742 51.5432L64.7373 52.4144L60.8301 66.7828L60.6042 67.6134L79.8257 72.8405L80.0515 72.0099L83.9585 57.6416Z" fill="#53804D"/>
<path d="M73.764 58.6553C69.9513 57.6183 66.3623 57.0492 63.5051 56.9443L61.7737 63.3113C64.2903 64.6677 67.6733 65.9945 71.486 67.0309C74.9524 67.9736 78.2349 68.5306 80.95 68.7032L82.7713 62.0062C80.343 60.7801 77.2305 59.5982 73.764 58.6553Z" fill="#414042"/>
<path d="M69.8931 62.4302C69.8515 62.4189 69.8101 62.4051 69.7685 62.3879C68.9524 62.0523 68.6968 60.6706 68.9689 59.9808C69.3876 58.9207 70.5772 59.2374 71.0852 59.3728L71.1667 59.3943C71.3886 59.4531 71.6215 59.5309 71.8244 59.7099C72.261 60.0961 72.3418 60.8099 72.0126 61.3714C71.7483 61.8218 71.3169 62.0774 70.9707 62.2497C70.7963 62.3369 70.3558 62.5558 69.8931 62.4302ZM70.8963 60.4248L70.8111 60.4024C70.2346 60.249 70.012 60.2409 69.9603 60.3719C69.8576 60.6319 70.0244 61.3076 70.1802 61.4051C70.1802 61.4036 70.2526 61.4172 70.4957 61.296C70.7102 61.1892 70.9714 61.0404 71.0936 60.8323C71.1706 60.7006 71.1559 60.5413 71.1189 60.5088C71.0783 60.4726 70.9466 60.4386 70.8963 60.4248Z" fill="#D3312D"/>
<path d="M70.325 63.8468C70.0228 63.7646 69.7446 63.5993 69.5301 63.3346C69.2082 62.9369 69.0839 62.3723 69.1787 61.7446C69.3333 60.7239 70.2533 59.2407 71.5781 59.109C72.1962 59.0479 72.753 59.2875 73.1064 59.7672C73.4986 60.2989 73.5762 61.0583 73.3046 61.7012C73.0152 62.387 72.6579 63.0837 72.0098 63.5365C71.5451 63.8613 70.8933 64.0012 70.325 63.8468ZM70.2324 61.9044C70.1834 62.2277 70.2294 62.5047 70.3585 62.6643C70.5734 62.9303 71.0854 62.8827 71.3994 62.6631C71.8263 62.3651 72.0957 61.8256 72.323 61.2868C72.4496 60.9876 72.4196 60.6308 72.2489 60.3993C72.1184 60.2223 71.9278 60.1449 71.6838 60.1693C71.0339 60.2341 70.3427 61.1772 70.2324 61.9044Z" fill="#B21B1B"/>
<path d="M69.561 64.8976C69.0594 64.7612 68.6063 64.4711 68.2926 64.0677C67.7796 63.4078 67.6661 62.6373 67.9739 61.8978C68.3679 60.951 69.4485 60.1672 70.5426 60.0337C71.4229 59.9266 72.1964 60.3351 72.611 61.1265C73.0999 62.0591 72.9642 63.2467 72.2816 64.015C71.7652 64.5959 71.0508 64.9483 70.3207 64.9823C70.0631 64.9944 69.8065 64.9643 69.561 64.8976ZM69.1338 63.4137C69.3916 63.7454 69.8275 63.9392 70.2717 63.9183C70.7098 63.8981 71.1636 63.6695 71.4854 63.3078C71.9257 62.8124 71.9105 62.0844 71.6677 61.6212C71.5212 61.3422 71.2301 61.0229 70.6716 61.0918C69.9582 61.1787 69.2054 61.7126 68.9579 62.3078C68.7971 62.6929 68.8545 63.0549 69.1338 63.4137Z" fill="#B21B1B"/>
<path d="M74.5362 64.2984C74.4345 64.2706 74.3323 64.2283 74.2333 64.1647C73.7925 63.882 73.6945 63.3629 73.6415 63.0839C73.5928 62.8271 73.5256 62.4752 73.6359 62.112C73.773 61.6587 74.187 61.2674 74.7718 61.0381C75.2542 60.849 75.9516 60.753 76.4596 61.0512C76.8982 61.3083 77.1521 61.786 77.157 62.3622C77.1627 63.0433 76.8253 63.7089 76.3175 64.018C75.958 64.2371 75.5645 64.2832 75.2486 64.3204C75.0705 64.3408 74.8061 64.3716 74.5362 64.2984ZM75.858 61.9455C75.7226 61.9089 75.4606 61.9125 75.1604 62.0305C74.8723 62.1435 74.6883 62.3127 74.6553 62.4213C74.6211 62.5338 74.6566 62.7207 74.6881 62.8857C74.7406 63.163 74.7829 63.247 74.8093 63.2691C74.8583 63.2925 75.0587 63.2696 75.1245 63.262C75.3594 63.2347 75.6024 63.2061 75.7632 63.1086C75.9467 62.9965 76.0937 62.6661 76.0915 62.3713C76.0905 62.2585 76.0668 62.0566 75.9206 61.9707C75.9048 61.9606 75.8836 61.9524 75.858 61.9455Z" fill="#B21B1B"/>
<path d="M73.3547 63.7326C72.8292 63.5898 72.3545 63.2664 72.0346 62.8087C71.6069 62.197 71.5729 61.3302 71.9524 60.7005C72.271 60.1716 72.8339 59.9022 73.4574 59.98C73.7152 60.0118 73.9504 60.0945 74.1578 60.1671C74.3168 60.2235 74.4675 60.2753 74.6047 60.2984C74.665 60.3085 74.7286 60.3166 74.7943 60.3255C75.2376 60.3838 76.0642 60.4932 76.2883 61.3228C76.3629 61.5993 76.3366 61.9076 76.2107 62.2396C75.8977 63.0635 75.1415 63.6732 74.2841 63.7932C73.9704 63.8367 73.6542 63.8138 73.3547 63.7326ZM73.5 61.0733C73.4395 61.0571 73.3811 61.0443 73.3254 61.0374C73.1146 61.011 72.9681 61.0788 72.8647 61.2504C72.7012 61.5223 72.7199 61.9293 72.9076 62.1985C73.1789 62.5861 73.6726 62.803 74.1363 62.7377C74.6072 62.672 75.0398 62.3201 75.2142 61.8616C75.2765 61.6966 75.2646 61.6203 75.2592 61.6003C75.2284 61.4873 75.0987 61.4405 74.6539 61.3819C74.5764 61.3713 74.501 61.3612 74.4296 61.3494C74.2021 61.3115 73.9908 61.2381 73.8051 61.1726C73.6992 61.1354 73.5968 61.0997 73.5 61.0733Z" fill="#D3312D"/>
<path d="M73.8606 66.7278C73.8579 66.7271 73.8552 66.7263 73.8522 66.7256C73.4999 66.6276 73.2137 66.4074 73.0468 66.1055C72.5395 65.1895 73 64.006 73.7483 63.4749C74.4226 62.9964 75.2273 63.1016 75.7986 63.7418C75.988 63.9541 76.1859 64.3478 76.0525 65.0179C75.9111 65.7288 75.5514 66.2823 75.0394 66.5774C74.6912 66.778 74.2512 66.8339 73.8606 66.7278ZM74.724 64.2523C74.6099 64.2215 74.4937 64.2528 74.3649 64.3439C74.0153 64.5919 73.7651 65.2026 73.9791 65.5894C74.015 65.6544 74.0867 65.6916 74.1404 65.6995C74.2595 65.7322 74.4031 65.7145 74.5078 65.6542C74.7424 65.5185 74.9293 65.203 75.0076 64.81C75.0554 64.569 75.017 64.4658 75.0039 64.4512C74.9077 64.3436 74.8165 64.2776 74.724 64.2523Z" fill="#D3312D"/>
<path d="M73.069 65.3883C72.7814 65.3103 72.5172 65.1874 72.2702 65.0616C71.9259 64.8857 71.5787 64.6708 71.3733 64.2891C71.1813 63.934 71.151 63.4787 71.2876 63.0086C71.4297 62.5191 71.7127 62.128 72.0847 61.9071C72.5317 61.6419 72.8998 61.7412 73.1436 61.8089C73.1906 61.8217 73.2406 61.8355 73.2938 61.8465C73.4268 61.8749 73.5832 61.8665 73.7644 61.8571C73.9141 61.8495 74.0833 61.8406 74.2628 61.8527C74.8543 61.8919 75.3365 62.2063 75.5199 62.6717C75.6984 63.1243 75.5509 63.5885 75.463 63.8655C75.3453 64.2361 75.1838 64.7434 74.7708 65.0911C74.4157 65.3898 73.9144 65.5226 73.3955 65.4548C73.2835 65.4398 73.1746 65.4172 73.069 65.3883ZM72.838 62.8298C72.6871 62.7889 72.6844 62.7907 72.6287 62.8237C72.492 62.9044 72.3763 63.0805 72.311 63.3056C72.2547 63.5004 72.2547 63.6789 72.311 63.7835C72.3783 63.9081 72.5637 64.0153 72.7543 64.1125C73.0064 64.2408 73.2751 64.3647 73.5332 64.3982C73.7533 64.4267 73.9594 64.3814 74.0848 64.2755C74.2618 64.1268 74.3648 63.8032 74.4475 63.543C74.4896 63.4102 74.5679 63.1632 74.5285 63.0628C74.5041 63.0015 74.3682 62.9278 74.1909 62.9158C74.0754 62.9081 73.9508 62.9143 73.8196 62.9212C73.596 62.933 73.3428 62.9461 73.0742 62.8892C72.9991 62.8737 72.9308 62.8549 72.8631 62.8365C72.8543 62.8343 72.8459 62.832 72.838 62.8298Z" fill="#B21B1B"/>
<path d="M68.843 64.1428C68.7364 64.1137 68.6327 64.0728 68.5342 64.0201C68.139 63.8081 67.8442 63.4247 67.7253 62.9679C67.5837 62.4249 67.6935 61.8128 68.0346 61.2442C68.4862 60.4914 68.9553 60.0486 69.4289 59.9277C70.1523 59.743 71.0657 60.2365 71.2737 60.9233C71.3794 61.2722 71.3136 61.6064 71.2358 61.8876C71.1083 62.3464 70.9233 62.7881 70.6862 63.2011C70.5276 63.4767 70.2976 63.8192 69.9231 64.0236C69.5965 64.2014 69.2045 64.2408 68.843 64.1428ZM69.8829 60.9728C69.812 60.9533 69.7438 60.9472 69.6921 60.9602C69.5921 60.9858 69.3084 61.192 68.9487 61.7923C68.7588 62.1085 68.6886 62.4392 68.7563 62.6995C68.7994 62.865 68.9071 63.0112 69.0371 63.0809C69.155 63.1435 69.3057 63.1469 69.4131 63.0881C69.5535 63.0112 69.6736 62.8241 69.7623 62.6697C69.9551 62.3346 70.1053 61.9753 70.209 61.6025C70.2297 61.5283 70.2841 61.3321 70.2538 61.2321C70.223 61.1292 70.0457 61.0169 69.8829 60.9728Z" fill="#D3312D"/>
<path d="M71.5247 65.7558C71.3026 65.6955 71.0861 65.6037 70.8827 65.4803C70.3464 65.156 69.9706 64.6536 69.8519 64.1018C69.7074 63.4317 69.9369 62.3623 70.5084 61.8378C71.1777 61.2239 72.2662 61.5369 72.8562 61.7797C73.6264 62.0953 74.181 62.7339 74.3036 63.446C74.4477 64.2835 73.9825 65.1877 73.1962 65.5955C72.6897 65.8583 72.0898 65.9095 71.5247 65.7558ZM72.0411 62.6243C71.6274 62.512 71.3314 62.5288 71.2285 62.6231C70.9874 62.8442 70.8121 63.5009 70.8933 63.8779C70.9505 64.1439 71.1477 64.3956 71.4343 64.5692C71.835 64.8117 72.3334 64.8432 72.7052 64.6499C73.0783 64.4561 73.3191 64.007 73.2534 63.627C73.1805 63.2045 72.7917 62.905 72.4516 62.7656C72.3051 62.7056 72.1677 62.6585 72.0411 62.6243Z" fill="#D3312D"/>
<g opacity="0.4">
<path d="M62.4992 68.7893C62.1884 68.7049 62.0052 68.3843 62.0897 68.0737L66.4739 51.9514C66.6408 51.3377 66.8253 50.3278 66.8433 49.3347C66.8551 48.6878 67.2215 48.1121 67.7997 47.8314C68.4968 47.4933 69.039 47.1658 69.5064 46.8006L70.0447 46.3797C70.7108 45.8589 71.2001 45.1226 71.4225 44.3068C71.5072 43.996 71.8273 43.8131 72.1381 43.8975L72.1383 43.8975C72.4491 43.9823 72.6323 44.3029 72.5476 44.6136C72.2597 45.67 71.6259 46.6235 70.763 47.2985L70.2242 47.7196C69.6906 48.1365 69.0819 48.5054 68.3087 48.8806C68.1279 48.9681 68.0132 49.1505 68.0095 49.3559C67.9898 50.4559 67.7847 51.5761 67.5995 52.2574L63.2153 68.3798C63.1306 68.6903 62.8099 68.874 62.4992 68.7893Z" fill="white"/>
</g>
<path d="M121.537 71.6255C121.537 71.6255 112.163 75.9255 100.034 82.5493C90.7479 87.6213 81.3481 89.1512 78.9636 87.5235C77.8452 86.7602 78.5406 85.2581 79.5955 84.5863C82.5618 82.6971 121.537 71.6255 121.537 71.6255Z" fill="#FF751D"/>
<path d="M102.643 60.2585C101.61 60.6522 96.3997 62.275 94.9737 65.4561C93.5481 68.6373 95.8057 71.6921 91.7414 74.8793C87.6771 78.0665 79.5967 84.5874 79.5967 84.5874C79.5967 84.5874 83.7189 82.4871 90.5006 81.1768C97.2825 79.8665 120.285 79.5654 126.325 77.2637C132.365 74.962 136.633 72.7893 137.034 69.5423C137.034 69.5423 122.682 69.6135 117.687 69.1648C117.687 69.1648 116.454 68.5568 115.515 66.0931C114.577 63.6291 114.777 62.0056 110.881 60.2595C106.984 58.5133 102.643 60.2585 102.643 60.2585Z" fill="#FF951D"/>
<path d="M99.5614 62.837C99.5614 62.837 95.2062 63.8831 95.238 66.779C95.27 69.6749 95.5276 69.599 98.4124 69.7608C101.297 69.9226 105.015 67.8699 104.669 65.2751C104.323 62.6807 100.591 62.4448 99.5614 62.837Z" fill="#FFBD1D"/>
<path d="M79.5955 84.5865C93.4543 77.4384 117.7 80.5717 126.571 76.943C129.618 75.8171 134.597 73.8994 136.334 71.2992C136.679 70.769 136.929 70.1756 137.034 69.5422C136.736 72.0734 134.24 73.741 131.98 74.9764C130.107 75.9767 127.157 77.287 124.876 77.9366L123.934 78.1533C110.743 81.2511 93.4922 78.4525 79.5955 84.5865Z" fill="#CC3403"/>
<path d="M116.807 69.3836C117.063 69.2721 117.3 69.1655 117.525 69.0638C117.282 68.8941 116.796 68.4841 116.281 67.6611C114.249 68.5607 111.608 69.5671 109.364 70.0414C103.258 71.3312 99.95 70.3189 94.2183 71.1323C94.0893 71.7791 93.8595 72.4268 93.4399 73.0781C102.1 71.5868 105.641 74.2704 116.807 69.3836Z" fill="#FF1932"/>
<path d="M116.281 67.6611C114.967 68.2425 113.4 68.8668 111.849 69.3647C111.9 70.0525 111.763 70.7023 111.52 71.3305C113.091 70.8747 114.896 70.4295 116.875 69.5629C117.13 69.4514 117.462 69.2667 117.687 69.1647C117.443 68.9951 116.795 68.4841 116.281 67.6611Z" fill="#D81809"/>
<path opacity="0.33" d="M137.034 69.5423C137.034 69.5423 122.682 69.6135 117.687 69.1648C117.687 69.1648 116.454 68.5568 115.515 66.0931C114.577 63.6291 114.777 62.0056 110.881 60.2595C106.984 58.5133 102.644 60.2585 102.644 60.2585C102.609 60.2718 102.568 60.2868 102.523 60.3031C105.193 61.5786 108.115 63.2775 109.784 65.2009C113.413 69.3815 110.482 73.498 110.482 73.498C110.482 73.498 120.939 74.0728 124.098 75.4885C125.018 75.9014 125.787 76.5365 126.416 77.2294C132.407 74.9406 136.636 72.7736 137.034 69.5423Z" fill="#FF891D"/>
<path d="M88.7358 78.572C88.7358 78.572 91.2983 76.0516 94.3963 75.5884C97.4942 75.1255 103.605 74.9937 102.649 77.1258C101.694 79.2575 87.2024 81.1044 88.7358 78.572Z" fill="#FFBD1D"/>
<path d="M110.249 70.6402C109.632 67.9787 107.778 63.5255 105.601 62.3325C104.138 61.526 102.933 62.8838 103.014 64.1508C103.112 66.7768 107.677 69.4476 110.107 70.3858C110.155 70.471 110.202 70.555 110.249 70.6402ZM104.276 63.7317C104.485 63.316 104.638 63.1545 105.053 63.3849C106.671 64.1569 109.223 68.7972 110.088 70.3518C108.41 69.057 103.642 65.5766 104.276 63.7317Z" fill="#FF4304"/>
<path d="M117.619 64.9723C118.886 62.0331 115.435 61.6676 115.4 61.6489C111.727 61.2456 110.749 66.6786 111.041 70.0728C111.751 66.6495 112.957 61.5561 116.051 63.058C117.522 63.678 116.206 65.3734 115.118 66.5453C113.9 67.8162 112.473 68.9362 111.041 70.0728C112.729 69.3637 114.34 68.4471 115.765 67.2233C116.503 66.5865 117.196 65.8531 117.619 64.9723Z" fill="#FF4304"/>
<path d="M113.607 75.2928C111.919 74.7885 111.025 72.6306 110.447 70.9805C110.45 70.9645 110.473 71.6227 110.759 72.2984C112.654 76.8501 115.183 76.4371 118.777 73.1758L118.104 72.5757C117.14 73.8267 115.135 75.6851 113.607 75.2928Z" fill="#FF4304"/>
<path d="M118.921 67.7224L118.378 68.4419C119.875 69.5634 119.57 70.5134 119.574 70.5466C119.529 70.6508 119.519 70.8842 119.187 71.2681C117.996 72.7506 112.831 71.2746 111.011 70.6599L111.007 70.6698C113.062 71.5277 118.123 73.3529 119.643 71.6927C120.138 71.1953 120.184 70.8335 120.247 70.7104C120.237 70.6715 120.765 69.2762 118.921 67.7224Z" fill="#FF4304"/>
<path d="M110.98 71.1699C111.537 70.9574 111.834 70.3772 111.643 69.874C111.451 69.3709 110.843 69.1353 110.285 69.3478C109.727 69.5604 109.431 70.1406 109.622 70.6437C109.814 71.1469 110.422 71.3824 110.98 71.1699Z" fill="#FF4304"/>
<path d="M166.265 57.2642C166.265 57.2642 167.746 57.9141 170.076 54.5392C172.406 51.1644 175.501 48.0833 175.171 47.7533C173.322 45.9043 166.885 49.1141 165.817 52.0482C164.75 54.9822 166.265 57.2642 166.265 57.2642Z" fill="#12826D"/>
<path d="M110.509 46.7937C110.325 47.004 112.088 51.2181 114.445 53.5749C116.802 55.9322 118.466 57.1748 119.224 56.5553C120.028 55.898 118.46 51.0843 115.088 48.3089C111.715 45.5329 110.509 46.7937 110.509 46.7937Z" fill="#1EBCA0"/>
<path d="M136.194 26.9583C136.194 26.9583 143.82 29.0474 150.912 27.5805C150.912 27.5805 145.979 41.2072 147.102 50.6887C148.226 60.1703 147.046 87.5053 147.046 87.5053L132.496 87.5053L136.194 26.9583Z" fill="#1EBCA0"/>
<path opacity="0.47" d="M147.546 59.0139C144.011 68.5413 138.903 79.4678 132.738 83.5435L132.496 87.5056L147.046 87.5056C147.046 87.5056 147.766 70.8334 147.546 59.0139Z" fill="#3EA486"/>
<path d="M110.51 46.7936C110.51 46.7936 119.224 51.0106 119.224 56.5552L122.805 53.8499C122.805 53.8499 128.564 40.6453 128.213 36.7883C127.861 32.9313 124.185 32.3154 124.185 32.3154L110.51 46.7936Z" fill="#3CDDD5"/>
<path opacity="0.24" d="M127.78 40.0623C124.938 44.1199 122.159 42.0042 120.096 46.8255C119.484 48.2577 118.08 49.6694 116.406 50.9556C117.965 52.5249 119.224 54.4442 119.224 56.555L122.805 53.8497C122.805 53.8497 126.482 45.4184 127.78 40.0623Z" fill="#58B1AF"/>
<path d="M140.503 57.2778C139.565 64.0273 137.318 92.633 137.318 92.633C129.639 91.3471 120.839 85.9894 120.839 85.9894L122.806 53.8483C122.806 53.8483 122.62 53.2059 124.185 45.3858C125.753 37.5659 124.185 32.3141 124.185 32.3141L132.918 28.4219L136.196 26.9595L136.524 27.6344C136.469 29.6625 136.566 31.9896 137.131 33.3875C138.301 36.2805 140.503 35.8498 140.503 35.8498C140.503 35.8498 141.439 50.5282 140.503 57.2778Z" fill="#26EFCB"/>
<path d="M140.503 35.8494C140.785 41.4646 141.108 51.5576 140.379 57.1651C139.417 64.3526 137.735 85.3069 137.209 92.4902C131.801 91.5244 125.364 88.6283 120.839 85.9895C122.112 86.7607 123.419 87.4749 124.742 88.1565C132.693 92.2336 137.08 92.6545 137.426 92.7749C138.155 83.9663 139.854 63.2802 140.648 57.2016C141.354 51.3305 140.89 41.7226 140.503 35.8494Z" fill="#1EA58B"/>
<path d="M163.972 86.6417C163.972 86.6417 155.05 91.7297 147.346 92.7841C147.346 92.7841 145.758 64.1206 144.977 57.3453C144.199 50.5698 145.472 35.9263 145.472 35.9263C149.171 33.6089 150.001 29.9191 150.03 27.1904L152.794 28.5209L161.864 32.8825C161.864 32.8825 160.176 38.0827 161.562 45.9509C162.95 53.816 163.972 86.6417 163.972 86.6417Z" fill="#26EFCB"/>
<path d="M136.522 29.101L136.194 26.9584L136.803 23.637C136.803 23.637 145.932 24.387 149.63 23.637L151.394 26.9589L151.956 28.9064L136.522 29.101Z" fill="#4ED1AA"/>
<path d="M140.503 35.8492L134.557 39.4939C134.557 39.4939 131.982 32.9693 132.497 29.8033C132.573 29.3371 132.721 28.8712 132.918 28.4213C134.049 25.8146 136.804 23.6355 136.804 23.6355C136.804 23.6355 136.578 25.4644 136.524 27.6338C136.469 29.6619 136.566 31.989 137.132 33.3869C138.301 36.2799 140.503 35.8492 140.503 35.8492Z" fill="#A6F2EA"/>
<path d="M152.755 30.8031C151.842 34.9814 149.805 38.7579 149.805 38.7579L145.472 35.9263C149.172 33.6088 150.001 29.919 150.03 27.1903C150.052 25.146 149.631 23.6355 149.631 23.6355C149.631 23.6355 152.257 25.5799 152.794 28.5208C152.923 29.228 152.932 29.9929 152.755 30.8031Z" fill="#A6F2EA"/>
<path opacity="0.24" d="M124.218 87.8496C125.834 80.6151 127.78 69.8203 127.78 59.7958C127.78 42.662 124.617 42.7268 124.616 42.7268C124.51 43.5744 124.37 44.4614 124.185 45.3853C122.619 53.2054 122.806 53.8479 122.806 53.8479L120.839 85.989C120.839 85.989 122.159 86.792 124.218 87.8496Z" fill="#4ED1AA"/>
<path opacity="0.24" d="M161.562 45.9511C161.157 43.6514 161.015 41.5819 161.017 39.8013C160.544 40.3753 159.704 42.0143 158.61 46.6847C157.483 51.5013 160.073 73.0909 162.033 87.6698C163.246 87.0551 163.972 86.6414 163.972 86.6414C163.972 86.6414 162.95 53.816 161.562 45.9511Z" fill="#4ED1AA"/>
<path d="M161.863 32.8833L175.171 47.7533C175.171 47.7533 166.392 51.7218 166.264 57.2641L162.17 51.3399C162.17 51.3399 157.635 48.5193 158.127 42.9751C158.619 37.4308 161.863 32.8833 161.863 32.8833Z" fill="#26D1CB"/>
<path d="M162.194 51.3657C159.148 49.4218 157.541 46.2154 158.015 42.5646C158.429 39.0294 159.989 35.4428 161.863 32.8833C158.653 38.0324 158.342 42.5665 158.334 42.6003C157.827 46.1169 159.373 49.2758 162.194 51.3657Z" fill="#43A895"/>
<path d="M135.509 53.8125L130.769 56.2333L125.78 53.1631L126.429 43.4338L136.159 44.0829L135.509 53.8125Z" fill="#6FF2DA"/>
<path d="M135.377 53.7233L130.776 56.0506L125.924 53.0875C126.032 51.414 126.287 46.8417 126.429 43.4338C126.066 47.3972 125.819 50.8036 125.635 53.2375C128.483 55.0033 127.926 54.6581 130.761 56.4163C132.126 55.7133 133.907 54.7948 135.643 53.8999C135.866 49.9722 135.999 47.8996 136.159 44.0829C136.011 45.7018 135.487 52.1239 135.377 53.7233Z" fill="#43A895"/>
<path d="M157.941 54.222L153.531 57.2028L148.206 54.7643L147.663 45.0283L157.399 44.4861L157.941 54.222Z" fill="#6FF2DA"/>
<path opacity="0.53" d="M134.076 27.5393C133.476 27.8124 132.868 33.2838 134.076 35.6505C135.284 38.0172 137.034 36.3658 137.034 35.6505C137.034 34.9659 134.987 27.1246 134.076 27.5393Z" fill="#A6F2EA"/>
<path d="M151.752 44.8008L151.889 45.9146L157.441 45.6713L157.399 44.4861L151.752 44.8008Z" fill="#EF5826"/>
<path d="M157.798 54.1501L153.516 57.0209L148.339 54.6717C148.242 52.9972 147.937 48.4283 147.663 45.0283C147.786 49.0062 147.956 52.4175 148.071 54.8556C151.112 56.2609 150.517 55.9861 153.546 57.3853C154.815 56.521 156.471 55.3927 158.085 54.2927C157.827 50.3672 157.706 48.2936 157.399 44.4861C157.449 46.1111 157.714 52.549 157.798 54.1501Z" fill="#43A895"/>
<path d="M138.604 40.4503C138.929 40.4503 139.193 40.1866 139.193 39.8612C139.193 39.5359 138.929 39.2722 138.604 39.2722C138.279 39.2722 138.015 39.5359 138.015 39.8612C138.015 40.1866 138.279 40.4503 138.604 40.4503Z" fill="#43A895"/>
<path d="M139.452 49.4869C139.778 49.4869 140.042 49.2231 140.042 48.8976C140.042 48.5722 139.778 48.3083 139.452 48.3083C139.127 48.3083 138.863 48.5722 138.863 48.8976C138.863 49.2231 139.127 49.4869 139.452 49.4869Z" fill="#43A895"/>
<path d="M138.676 59.3436C139.001 59.3436 139.265 59.0798 139.265 58.7543C139.265 58.4289 139.001 58.165 138.676 58.165C138.35 58.165 138.087 58.4289 138.087 58.7543C138.087 59.0798 138.35 59.3436 138.676 59.3436Z" fill="#43A895"/>
<path d="M137.497 69.5216C137.823 69.5216 138.087 69.2577 138.087 68.9323C138.087 68.6068 137.823 68.343 137.497 68.343C137.172 68.343 136.908 68.6068 136.908 68.9323C136.908 69.2577 137.172 69.5216 137.497 69.5216Z" fill="#43A895"/>
<path d="M161.155 50.4805L161.517 59.4737C162.632 84.5541 163.826 85.3249 163.973 86.6416C161.838 78.8077 161.14 58.5732 161.155 50.4805Z" fill="#43A895"/>
<path d="M161.155 35.9404C161.155 35.9404 161.264 40.9651 163.086 45.0738C164.907 49.1822 172.383 52.6922 171.228 47.3745C170.073 42.0565 161.292 32.08 161.155 35.9404Z" fill="#3CDDD5"/>
<path d="M168.362 19.626C168.362 19.626 166.028 23.7415 170.466 25.9233C170.466 25.9233 169.102 28.7721 172.778 31.1443C172.778 31.1443 172.483 34.573 175.433 36.0845C175.433 36.0845 174.838 38.7841 177.783 40.8652C177.783 40.8652 177.78 43.4618 180.772 44.5966C180.772 44.5966 181.085 47.5624 184.165 48.5011C187.245 49.4398 185.239 42.647 185.239 42.647L175.511 21.513L168.362 19.626Z" fill="white"/>
<path d="M168.362 19.626L178.604 12.4038L197.456 14.1711L214.751 23.812L219.556 39.3998L219.412 42.0679L185.963 49.839L168.362 19.626Z" fill="#FF5B7E"/>
<path d="M207.961 69.0016L166.492 79.6659C156.109 82.3359 145.527 76.0837 142.857 65.6999L141.699 61.2009L220.768 40.8672L221.926 45.3664C224.596 55.75 218.343 66.332 207.961 69.0016Z" fill="#FF5B7E"/>
<path opacity="0.5" d="M212.032 43.1139C212.169 52.8267 205.678 61.7357 195.854 64.262L158.511 73.8655C154.639 74.861 150.743 74.7377 147.163 73.6987C152.373 78.9049 160.12 81.3046 167.77 79.3369L205.114 69.7339C216.636 66.7703 223.575 55.0279 220.612 43.5052L219.985 41.0686L212.032 43.1139Z" fill="#E03268"/>
<path opacity="0.5" d="M186.654 48.1263L214.751 23.812L219.556 39.3998L203.703 45.2595L186.654 48.1263Z" fill="#FF85A5"/>
<path d="M220.461 42.7671L141.13 63.168C140.29 63.384 139.434 62.8779 139.218 62.038L139.132 61.7041C138.916 60.8636 139.422 60.0072 140.262 59.791L219.592 39.3902C220.433 39.174 221.29 39.6803 221.506 40.5203L221.591 40.8542C221.807 41.6946 221.301 42.5508 220.461 42.7671Z" fill="#E03268"/>
<path d="M191.586 74.0742L172.16 111.791C171.648 112.792 172.046 114.018 173.047 114.53C174.049 115.042 175.276 114.645 175.787 113.643L196.546 73.6868C194.95 73.4738 191.93 75.0476 191.586 74.0742Z" fill="white"/>
<path d="M214.168 69.2235L162.614 82.4815C161.765 82.6999 160.9 82.1887 160.681 81.3396L160.595 81.0028C160.376 80.1537 160.887 79.2886 161.737 79.0699L213.291 65.8122C214.14 65.5938 215.005 66.1047 215.223 66.954L215.31 67.2909C215.528 68.14 215.017 69.0058 214.168 69.2235Z" fill="white"/>
<path d="M234.501 97.202L139.644 48.9663C138.643 48.4546 138.245 47.2278 138.757 46.2263C139.269 45.2246 140.495 44.8271 141.497 45.3388L236.353 93.5742C237.355 94.0854 237.752 95.3127 237.241 96.3142C236.729 97.316 235.502 97.7137 234.501 97.202Z" fill="white"/>
<path opacity="0.5" d="M178.604 12.4038L185.759 47.6334L186.912 47.3371L187.76 43.9069L197.456 14.1711L178.604 12.4038Z" fill="#FF85A5"/>
<path d="M206.51 77.3482L182.991 65.3886C182.233 65.003 181.307 65.2916 180.903 66.0394L179.725 68.2165C179.306 68.9917 179.607 69.9592 180.393 70.3589L190.067 75.2779L185.216 84.6957C184.822 85.4596 185.118 86.398 185.878 86.7987L188.211 88.0292C188.98 88.4345 189.932 88.1368 190.332 87.3655L195.244 77.9108L203.864 82.2943C204.61 82.6733 205.521 82.4002 205.935 81.6733L207.162 79.5203C207.604 78.7434 207.307 77.7537 206.51 77.3482Z" fill="#333333"/>
<path d="M215.355 23.1979C215.101 22.9671 214.716 22.9622 214.457 23.1878C211.579 25.6978 195.282 40.0098 187.338 46.6383L198.09 14.3172C198.204 13.9616 198.008 13.5806 197.653 13.4661L197.649 13.4647C197.293 13.3504 196.912 13.5462 196.797 13.9017L186.121 47.1268L179.317 12.5462C179.244 12.1797 178.889 11.9409 178.522 12.0128L178.518 12.014C178.151 12.0859 177.912 12.4415 177.985 12.8084L185.298 49.9791C185.433 50.6647 186.392 50.7203 186.606 50.0552L187.305 47.8786C187.344 47.7577 187.415 47.6511 187.513 47.5701C191.06 44.6121 211.634 27.4481 215.347 24.207C215.652 23.9408 215.655 23.4695 215.355 23.1979Z" fill="#E03268"/>
<path d="M186.216 52.8298C188.104 52.8298 189.635 51.2989 189.635 49.4104C189.635 47.5219 188.104 45.991 186.216 45.991C184.327 45.991 182.796 47.5219 182.796 49.4104C182.796 51.2989 184.327 52.8298 186.216 52.8298Z" fill="#333333"/>
<path d="M186.216 51.8283C187.551 51.8283 188.634 50.7457 188.634 49.4103C188.634 48.075 187.551 46.9924 186.216 46.9924C184.881 46.9924 183.798 48.075 183.798 49.4103C183.798 50.7457 184.881 51.8283 186.216 51.8283Z" fill="#DBE0F0"/>
<path d="M138.823 49.3619L163.637 61.9809C164.489 62.4136 165.53 62.0752 165.965 61.2244L166.762 59.661C167.198 58.8085 166.858 57.7644 166.005 57.331L141.196 44.7152C139.912 44.0599 138.341 44.5687 137.686 45.8524C137.031 47.1351 137.54 48.7066 138.823 49.3619Z" fill="#333333"/>
</g>
<path d="M16.8438 25H14.4219V15.5938H11.3203V13.5781H19.9453V15.5938H16.8438V25ZM22.8672 20.6172C22.8672 21.4818 23.0078 22.1354 23.2891 22.5781C23.5755 23.0208 24.0391 23.2422 24.6797 23.2422C25.3151 23.2422 25.7708 23.0234 26.0469 22.5859C26.3281 22.1432 26.4688 21.487 26.4688 20.6172C26.4688 19.7526 26.3281 19.1042 26.0469 18.6719C25.7656 18.2396 25.3047 18.0234 24.6641 18.0234C24.0286 18.0234 23.5703 18.2396 23.2891 18.6719C23.0078 19.099 22.8672 19.7474 22.8672 20.6172ZM28.9062 20.6172C28.9062 22.0391 28.5312 23.151 27.7812 23.9531C27.0312 24.7552 25.987 25.1562 24.6484 25.1562C23.8099 25.1562 23.0703 24.974 22.4297 24.6094C21.7891 24.2396 21.2969 23.7109 20.9531 23.0234C20.6094 22.3359 20.4375 21.5339 20.4375 20.6172C20.4375 19.1901 20.8099 18.0807 21.5547 17.2891C22.2995 16.4974 23.3464 16.1016 24.6953 16.1016C25.5339 16.1016 26.2734 16.2839 26.9141 16.6484C27.5547 17.013 28.0469 17.5365 28.3906 18.2188C28.7344 18.901 28.9062 19.7005 28.9062 20.6172ZM38.9375 18.5547C38.9375 19.0234 38.7891 19.4245 38.4922 19.7578C38.2005 20.0859 37.7682 20.2969 37.1953 20.3906V20.4531C37.8151 20.526 38.3047 20.7396 38.6641 21.0938C39.0286 21.4427 39.2109 21.875 39.2109 22.3906C39.2109 23.2396 38.8776 23.888 38.2109 24.3359C37.5443 24.7786 36.5911 25 35.3516 25H30.875V16.2656H35.3516C36.5495 16.2656 37.4453 16.4609 38.0391 16.8516C38.638 17.237 38.9375 17.8047 38.9375 18.5547ZM36.7422 22.2656C36.7422 21.9219 36.6094 21.6745 36.3438 21.5234C36.0781 21.3672 35.6797 21.2891 35.1484 21.2891H33.2578V23.3516H35.1953C35.7005 23.3516 36.0833 23.2578 36.3438 23.0703C36.6094 22.8776 36.7422 22.6094 36.7422 22.2656ZM36.5234 18.7422C36.5234 18.2109 36.1016 17.9453 35.2578 17.9453H33.2578V19.6719H34.9844C35.4896 19.6719 35.8724 19.599 36.1328 19.4531C36.3932 19.3073 36.5234 19.0703 36.5234 18.7422ZM46.6562 25L46.1953 23.8125H46.1328C45.7318 24.3177 45.3177 24.6693 44.8906 24.8672C44.4688 25.0599 43.9167 25.1562 43.2344 25.1562C42.3958 25.1562 41.7344 24.9167 41.25 24.4375C40.7708 23.9583 40.5312 23.276 40.5312 22.3906C40.5312 21.4635 40.8542 20.7812 41.5 20.3438C42.151 19.901 43.1302 19.6562 44.4375 19.6094L45.9531 19.5625V19.1797C45.9531 18.2943 45.5 17.8516 44.5938 17.8516C43.8958 17.8516 43.0755 18.0625 42.1328 18.4844L41.3438 16.875C42.349 16.349 43.4635 16.0859 44.6875 16.0859C45.8594 16.0859 46.7578 16.3411 47.3828 16.8516C48.0078 17.362 48.3203 18.138 48.3203 19.1797V25H46.6562ZM45.9531 20.9531L45.0312 20.9844C44.3385 21.0052 43.8229 21.1302 43.4844 21.3594C43.1458 21.5885 42.9766 21.9375 42.9766 22.4062C42.9766 23.0781 43.362 23.4141 44.1328 23.4141C44.6849 23.4141 45.125 23.2552 45.4531 22.9375C45.7865 22.6198 45.9531 22.1979 45.9531 21.6719V20.9531ZM55.5781 25.1562C54.5521 25.1562 53.7474 24.7839 53.1641 24.0391H53.0391C53.1224 24.7682 53.1641 25.1901 53.1641 25.3047V28.8438H50.7812V16.2656H52.7188L53.0547 17.3984H53.1641C53.7214 16.5339 54.5469 16.1016 55.6406 16.1016C56.6719 16.1016 57.4792 16.5 58.0625 17.2969C58.6458 18.0938 58.9375 19.2005 58.9375 20.6172C58.9375 21.5495 58.7995 22.3594 58.5234 23.0469C58.2526 23.7344 57.8646 24.2578 57.3594 24.6172C56.8542 24.9766 56.2604 25.1562 55.5781 25.1562ZM54.875 18.0078C54.2865 18.0078 53.8568 18.1901 53.5859 18.5547C53.3151 18.9141 53.1745 19.5104 53.1641 20.3438V20.6016C53.1641 21.5391 53.3021 22.2109 53.5781 22.6172C53.8594 23.0234 54.3021 23.2266 54.9062 23.2266C55.974 23.2266 56.5078 22.3464 56.5078 20.5859C56.5078 19.7266 56.375 19.0833 56.1094 18.6562C55.849 18.224 55.4375 18.0078 54.875 18.0078ZM63.2891 19.6406H64.4375C65.7708 19.6406 66.7578 19.8542 67.3984 20.2812C68.0391 20.7083 68.3594 21.3542 68.3594 22.2188C68.3594 23.1406 68.0391 23.8359 67.3984 24.3047C66.7578 24.7682 65.7995 25 64.5234 25H60.9062V16.2656H63.2891V19.6406ZM65.9766 22.25C65.9766 21.9115 65.8411 21.6667 65.5703 21.5156C65.2995 21.3646 64.8958 21.2891 64.3594 21.2891H63.2891V23.3516H64.3906C65.4479 23.3516 65.9766 22.9844 65.9766 22.25ZM72.0078 25H69.625V16.2656H72.0078V25Z" fill="#3366FF"/>
</svg>
