<svg width="220" height="75" viewBox="0 0 220 75" fill="none" xmlns="http://www.w3.org/2000/svg">
<rect width="220" height="75" rx="4" fill="#D6EFFF"/>
<mask id="mask0_749_10193" style="mask-type:alpha" maskUnits="userSpaceOnUse" x="0" y="0" width="220" height="75">
<rect width="220" height="75" rx="6" transform="matrix(-1 0 0 1 220 0)" fill="#D9D9D9"/>
</mask>
<g mask="url(#mask0_749_10193)">
<path d="M45 59.9998L49 79.4998L244.5 83.4998L244.5 50.4998L244.5 13.9998L229 41.4998L215 13.9998L206 37.4998L190.5 20.4998L193 41.4998L164.5 20.4998L162.5 44.9998L120.5 22.4998L132 50.4998L97 30.9998L100.5 50.4998L72 33.9998L78 59.9998L60.5 50.4998L60.5 68.9998L45 59.9998Z" fill="#A4DCFF"/>
<path d="M176.386 10.7306L173.915 13.7836L177.43 14.8371L175.122 17.6843L178.637 18.7384L176.329 21.5854L179.841 22.6348L177.535 25.4857L181.048 26.5357L178.742 29.3875L182.252 30.4321L179.946 33.2839L183.463 34.3303L181.15 37.1802L184.667 38.2275L182.359 41.0745L185.871 42.1235L183.563 44.9709L187.076 46.0198L184.768 48.8676L188.28 49.917L185.974 52.7682L189.488 53.8107L187.178 56.665L190.695 57.7118L188.387 60.5582L191.899 61.608L189.591 64.4552L193.101 65.5L190.795 68.352L194.312 69.3984L191.999 72.2484L195.513 73.2907L193.765 75.4527L203.692 78.0621L217.901 61.0921L186.191 6.77088L176.386 10.7306ZM182.422 12.4073C183.086 12.0204 183.937 12.2437 184.324 12.9066L185.668 15.2097C186.055 15.8723 185.831 16.7238 185.168 17.1107C184.505 17.4975 183.654 17.2739 183.267 16.6111L181.923 14.3082C181.536 13.6454 181.76 12.7945 182.422 12.4073Z" fill="#999999"/>
<path d="M201.02 64.0404L197.841 74.088L208.538 92.4136C208.825 92.9037 209.363 93.1961 209.934 93.1641C210.358 93.1448 210.752 92.9428 211.018 92.6259C211.104 92.5255 211.185 92.4056 211.243 92.2771L213.934 86.3735C214.246 85.6963 214.722 85.1006 215.318 84.6519L220.328 80.881C220.994 80.3698 221.795 80.0636 222.633 79.9923L228.467 79.472C228.516 79.4706 228.571 79.4609 228.616 79.4512C229.071 79.3634 229.475 79.0724 229.687 78.6536C229.924 78.1914 229.912 77.6368 229.648 77.1839L218.312 57.7661L201.02 64.0404ZM219.717 69.4542C220.812 70.9094 220.523 72.9822 219.064 74.0787L210.852 80.2648C209.397 81.359 207.329 81.0684 206.227 79.6119C206.15 79.5069 206.08 79.3968 206.015 79.2849C205.183 77.8604 205.533 76.0076 206.883 74.9915L215.095 68.8056C216.552 67.7044 218.623 67.9991 219.717 69.4542Z" fill="#F7B10D"/>
<path d="M214.02 67.7175L205.282 74.2998C203.315 75.7763 202.769 78.4955 204.008 80.6175L211.018 92.6258C211.104 92.5254 211.185 92.4055 211.243 92.2771L213.934 86.3734C214.246 85.6962 214.722 85.1006 215.318 84.6519L220.328 80.881C220.994 80.3698 221.795 80.0636 222.633 79.9922L228.467 79.472C228.516 79.4705 228.571 79.4608 228.616 79.4512L222.796 69.4826C221.936 68.0084 220.482 66.969 218.81 66.6309C217.13 66.292 215.39 66.6887 214.02 67.7175ZM219.717 69.4541C220.812 70.9094 220.523 72.9822 219.064 74.0787L210.852 80.2648C209.397 81.359 207.328 81.0684 206.227 79.6118C206.149 79.5069 206.08 79.3968 206.015 79.2849C205.183 77.8604 205.533 76.0075 206.883 74.9915L215.095 68.8056C216.552 67.7044 218.623 67.9991 219.717 69.4541Z" fill="#363636"/>
<path d="M216.074 64.5111C215.347 64.9353 214.414 64.6909 213.99 63.964C213.565 63.2366 213.811 62.3037 214.537 61.8792C215.264 61.4551 216.198 61.7007 216.622 62.4273C217.046 63.1539 216.801 64.087 216.074 64.5111Z" fill="#F3DE9C"/>
<path d="M215.747 64.2683C216.446 64.2062 216.962 63.5896 216.9 62.8909C216.837 62.1922 216.221 61.6761 215.522 61.7382C214.823 61.8003 214.307 62.417 214.369 63.1156C214.432 63.8143 215.048 64.3304 215.747 64.2683Z" fill="#4D4D4D"/>
<path d="M206.287 68.166C205.56 68.5902 204.627 68.3451 204.203 67.6179C203.778 66.8917 204.024 65.9584 204.75 65.5341C205.477 65.1099 206.411 65.355 206.834 66.0818C207.259 66.8086 207.014 67.7415 206.287 68.166Z" fill="#F3DE9C"/>
<path d="M205.96 67.9229C206.659 67.8609 207.175 67.2443 207.113 66.5457C207.05 65.8472 206.434 65.3312 205.735 65.3933C205.037 65.4553 204.521 66.0719 204.583 66.7705C204.645 67.469 205.261 67.985 205.96 67.9229Z" fill="#4D4D4D"/>
<path d="M202.482 74.9245C203.32 74.85 203.94 74.1101 203.865 73.2718C203.791 72.4336 203.051 71.8144 202.212 71.8888C201.374 71.9633 200.755 72.7032 200.829 73.5415C200.904 74.3798 201.644 74.9989 202.482 74.9245Z" fill="#F3DE9C"/>
<path d="M203.316 74.311C202.711 74.6643 201.934 74.4603 201.58 73.8543C201.226 73.2489 201.431 72.471 202.037 72.1178C202.642 71.7645 203.42 71.9685 203.773 72.5743C204.127 73.1803 203.923 73.9573 203.316 74.311Z" fill="#4D4D4D"/>
<path d="M213.176 57.5328L196.026 28.1539L187.085 40.2494L195.42 66.913L199.61 61.3296L213.176 57.5328Z" fill="#CCCCCC"/>
<path d="M188.316 50.6655L189.783 51.7988L201.851 36.1755L200.384 35.0422L188.316 50.6655Z" fill="#999999"/>
<path d="M189.42 56.2224L191.62 57.9211L205.289 40.2142L203.088 38.5155L189.42 56.2224Z" fill="#999999"/>
<path d="M136.847 18.088L155.428 38.638L156.894 37.3126L138.313 16.7629L136.669 16.4175L136.847 18.088Z" fill="#808080"/>
<mask id="mask1_749_10193" style="mask-type:luminance" maskUnits="userSpaceOnUse" x="136" y="16" width="21" height="23">
<path d="M136.847 18.088L155.428 38.638L156.894 37.3126L138.313 16.7629L136.669 16.4175L136.847 18.088Z" fill="white"/>
</mask>
<g mask="url(#mask1_749_10193)">
<path d="M148.228 35.4532L149.512 35.7485L151.473 27.2237L150.19 26.9284L148.228 35.4532Z" fill="#CCCCCC"/>
<path d="M145.447 32.3691L146.731 32.6648L148.695 24.1407L147.411 23.845L145.447 32.3691Z" fill="#CCCCCC"/>
<path d="M142.655 29.2913L143.939 29.5872L145.904 21.063L144.62 20.7671L142.655 29.2913Z" fill="#CCCCCC"/>
<path d="M139.876 26.2117L141.159 26.5076L143.124 17.9838L141.841 17.6879L139.876 26.2117Z" fill="#CCCCCC"/>
<path d="M137.092 23.1267L138.375 23.4226L140.34 14.899L139.057 14.6031L137.092 23.1267Z" fill="#CCCCCC"/>
</g>
<path d="M157.293 55.656L159.501 58.0987L161.63 56.1742L163.838 58.6171L161.71 60.5416L163.919 62.984L162.8 63.9949L161.739 62.8206C161.551 62.6133 161.284 62.495 161.004 62.4954C160.723 62.4964 160.457 62.6161 160.269 62.8249C158.153 65.1859 156.282 67.0034 154.352 68.7479C152.169 70.7218 149.901 72.6128 146.826 74.7876L147.956 76.0379L146.368 77.4735L141.114 71.6626L142.702 70.2268L143.832 71.4769C146.305 68.6356 148.414 66.5687 150.597 64.5948C152.526 62.8506 154.523 61.1701 157.084 59.3017C157.31 59.1368 157.456 58.8837 157.485 58.6047C157.514 58.326 157.423 58.0477 157.235 57.8398L156.174 56.666L157.293 55.656Z" fill="#363636"/>
<path d="M146.42 70.5736C146.542 70.7084 146.75 70.7192 146.885 70.5972L157.285 61.1933C157.421 61.071 157.431 60.863 157.309 60.728C157.187 60.5931 156.979 60.5823 156.844 60.7045L146.444 70.1086C146.308 70.2306 146.298 70.4387 146.42 70.5736Z" fill="#808080"/>
<path d="M159.501 58.1004L161.71 60.5432L163.838 58.6189L161.628 56.1762L159.501 58.1004Z" fill="#808080"/>
<path d="M159.829 58.4573L160.335 59.0173L162.463 57.0936L161.957 56.5336L159.829 58.4573Z" fill="#CCCCCC"/>
<path d="M173.454 97.7348L173.366 97.6369C172.47 96.6457 172.458 95.1396 173.337 94.1343L181.913 84.3366C182.532 83.6293 183.424 83.2204 184.365 83.2127C185.305 83.205 186.203 83.5997 186.834 84.2973L187.406 84.9305C190.486 88.3371 195.745 88.6017 199.152 85.5215C202.558 82.4415 202.823 77.1829 199.742 73.7762L176.884 48.4955L172.982 44.1798L160.648 55.3327L164.548 59.6496L174.004 70.1073C174.372 71.1923 174.093 72.439 173.188 73.2568C172.461 73.9148 171.496 74.1408 170.603 73.9583L172.422 75.9694C172.982 76.5891 172.99 77.53 172.44 78.1583L166.183 85.307C165.688 85.8732 164.974 86.2001 164.222 86.206C163.47 86.2121 162.75 85.8967 162.246 85.3386L173.454 97.7348Z" fill="#363636"/>
<path d="M172.422 75.127C172.511 75.2246 172.653 75.2635 172.783 75.2139C173.299 75.0177 173.769 74.7295 174.183 74.3559C174.634 73.9479 174.99 73.4633 175.242 72.9146C175.318 72.7492 175.245 72.5535 175.08 72.4779C174.914 72.4017 174.72 72.4743 174.643 72.6396C174.429 73.107 174.125 73.5198 173.741 73.8675C173.389 74.1853 172.988 74.4316 172.55 74.5985C172.38 74.6628 172.294 74.8534 172.359 75.023C172.374 75.0627 172.396 75.0977 172.422 75.127Z" fill="#808080"/>
<path d="M169.639 44.5376L164.78 39.1638L156.474 46.6734L161.333 52.0472L169.639 44.5376Z" fill="#363636"/>
<mask id="mask2_749_10193" style="mask-type:luminance" maskUnits="userSpaceOnUse" x="156" y="39" width="14" height="14">
<path d="M169.639 44.5376L164.78 39.1638L156.474 46.6734L161.333 52.0472L169.639 44.5376Z" fill="white"/>
</mask>
<g mask="url(#mask2_749_10193)">
<path d="M161.83 40.2769L164.922 43.6969C165.227 44.0344 165.747 44.0607 166.085 43.7554C166.422 43.4503 166.448 42.93 166.143 42.5927L163.051 39.1731C162.746 38.8356 162.225 38.8093 161.888 39.1146C161.551 39.4196 161.525 39.9401 161.83 40.2769Z" fill="#4D4D4D"/>
<path d="M159.367 42.5038L162.46 45.9238C162.764 46.2611 163.285 46.2873 163.622 45.9824C163.959 45.6773 163.986 45.1569 163.68 44.8196L160.588 41.3996C160.283 41.0624 159.763 41.0358 159.426 41.3411C159.088 41.6462 159.062 42.1668 159.367 42.5038Z" fill="#4D4D4D"/>
<path d="M156.905 44.7307L159.997 48.1503C160.302 48.4876 160.822 48.5137 161.159 48.2089C161.497 47.9039 161.524 47.3833 161.219 47.0461L158.126 43.6258C157.821 43.2888 157.301 43.2625 156.964 43.5676C156.626 43.8725 156.6 44.393 156.905 44.7307Z" fill="#4D4D4D"/>
</g>
<path d="M164.781 39.162L156.476 46.6716L154.754 41.1239L154.108 39.0445L157.43 36.0406L159.435 36.892L164.781 39.162Z" fill="#363636"/>
<path d="M161.828 51.6025L163.153 53.0681L170.481 46.4424L169.156 44.9768L161.828 51.6025Z" fill="#999999"/>
<path d="M159.435 36.8919L158.492 37.7445L156.5 36.8819L157.431 36.0405L159.435 36.8919Z" fill="#999999"/>
<path d="M156.011 37.3232L157.803 38.3673L154.754 41.1235L154.108 39.0441L156.011 37.3232Z" fill="#999999"/>
<path d="M156.862 36.5497L155.758 35.3286L154.903 36.1019L156.007 37.3229L156.862 36.5497Z" fill="#999999"/>
<path d="M154.416 36.5468L153.561 37.3198L154.666 38.5407L155.52 37.7677L154.416 36.5468Z" fill="#999999"/>
<path d="M170.657 94.6415C170.097 94.022 170.09 93.0812 170.64 92.4526L181.013 80.6011C181.322 80.2477 181.768 80.0429 182.239 80.0388C182.709 80.0351 183.159 80.2324 183.474 80.5811L187.406 84.9305L199.742 73.7764L176.884 48.4957L164.548 59.6498L179.693 76.3997C180.253 77.0192 180.261 77.9604 179.71 78.5886L169.337 90.4404C169.027 90.7942 168.582 90.9989 168.111 91.0026C167.641 91.0063 167.192 90.8092 166.877 90.4601L162.144 85.2258C161.168 84.1466 159.502 84.0627 158.423 85.0389L158.445 85.0187L171.522 99.482L173.454 97.7353L170.657 94.6415Z" fill="#F7B10D"/>
<path d="M196.915 83.0477C194.621 85.1215 191.081 84.9433 189.007 82.6502C186.934 80.357 187.111 76.8163 189.405 74.7423C191.699 72.6692 195.239 72.8472 197.313 75.1402C199.387 77.4335 199.209 80.9741 196.915 83.0477Z" fill="#F7B10D"/>
<path d="M176.566 51.3359C176.363 51.5184 176.347 51.8312 176.53 52.0333L196.777 74.4256C196.961 74.6279 197.273 74.6434 197.475 74.4608C197.678 74.2781 197.693 73.9654 197.51 73.7632L177.263 51.3707C177.08 51.1684 176.768 51.1531 176.566 51.3359Z" fill="#F3DE9C"/>
<path d="M178.362 54.5779C178.905 54.5296 179.307 54.0499 179.259 53.5065C179.21 52.963 178.731 52.5616 178.187 52.6099C177.644 52.6581 177.242 53.1378 177.291 53.6813C177.339 54.2247 177.819 54.6262 178.362 54.5779Z" fill="#F3DE9C"/>
<path d="M178.53 54.2478C178.983 54.2076 179.318 53.8078 179.278 53.355C179.237 52.9021 178.838 52.5676 178.385 52.6078C177.932 52.6481 177.597 53.0478 177.638 53.5006C177.678 53.9535 178.077 54.288 178.53 54.2478Z" fill="#363636"/>
<path d="M195.892 73.9653C196.435 73.917 196.837 73.4372 196.788 72.8936C196.74 72.35 196.26 71.9485 195.717 71.9968C195.173 72.0451 194.772 72.5249 194.82 73.0685C194.868 73.612 195.348 74.0135 195.892 73.9653Z" fill="#F3DE9C"/>
<path d="M196.061 73.635C196.514 73.5948 196.848 73.195 196.808 72.7422C196.768 72.2893 196.368 71.9548 195.915 71.995C195.462 72.0353 195.128 72.435 195.168 72.8879C195.208 73.3407 195.608 73.6752 196.061 73.635Z" fill="#363636"/>
<path d="M194.43 75.1103L174.899 53.5081L169.485 58.4025L189.017 80.0048L194.43 75.1103Z" fill="#D18B00"/>
<path d="M176.985 72.0302L178.862 74.1065C179.167 74.4438 179.688 74.4699 180.025 74.1648C180.362 73.8599 180.389 73.3393 180.084 73.0021L178.206 70.9259C177.901 70.5885 177.38 70.5623 177.044 70.8674C176.706 71.1723 176.68 71.6929 176.985 72.0302Z" fill="#F3DE9C"/>
<path d="M177.229 71.8095L179.106 73.8859C179.411 74.2231 179.932 74.2492 180.269 73.9444C180.606 73.6395 180.632 73.1189 180.328 72.7816L178.45 70.7053C178.145 70.3681 177.625 70.3419 177.287 70.6468C176.95 70.9519 176.924 71.4721 177.229 71.8095Z" fill="#363636"/>
<path d="M169.749 47.1054L168.424 45.6396L167.447 46.5231L168.772 47.9888L169.749 47.1054Z" fill="#CCCCCC"/>
<path d="M168.139 48.5601L166.814 47.0942L166.081 47.7571L167.406 49.2229L168.139 48.5601Z" fill="#CCCCCC"/>
<path d="M158.491 37.7443L157.803 38.3674L156.011 37.3234L156.499 36.8817L158.491 37.7443Z" fill="#CCCCCC"/>
<path d="M163.803 40.0452L162.582 41.1497L157.803 38.3678L158.491 37.7447L163.803 40.0452Z" fill="#999999"/>
<path d="M155.387 40.5521L156.237 39.7837L154.911 38.3175L154.729 38.4835L155.387 40.5521Z" fill="#CCCCCC"/>
<path d="M157.143 46.0681L159.77 43.6918L156.237 39.7836L155.387 40.552L157.143 46.0681Z" fill="#4D4D4D"/>
<path d="M172.369 54.2454L193.388 77.4932L193.876 77.0516L172.857 53.8039L172.369 54.2454Z" fill="#F7B10D"/>
<path d="M159.347 70.7985C158.864 68.4989 157.755 66.1967 156.295 64.2904C151.658 58.2348 145.794 55.3115 142.038 50.4063L134.787 40.9363C134.487 40.5451 133.929 40.471 133.537 40.7703L125.809 46.6877C125.419 46.9872 125.345 47.5463 125.644 47.9373L132.895 57.4074C134.614 59.6511 138.35 67.6285 137.903 70.9792C137.341 75.2188 124.33 75.7348 117.747 80.7757C116.509 81.7234 114.641 83.2278 114.641 83.2278L119.15 86.0363L122.033 87.8341L139.544 79.5735C140.975 78.8983 142.563 78.6908 144.081 78.9568C144.893 79.0949 145.682 79.3684 146.416 79.7777C146.592 79.8748 146.774 79.973 146.963 80.0652C151.525 78.7193 156.98 74.4356 159.347 70.7985Z" fill="#A2A6A7"/>
<path d="M136.026 73.9475L135.173 72.8339C135.027 72.6434 135.063 72.3718 135.254 72.2259L136.195 71.5053C136.385 71.3595 136.657 71.3956 136.803 71.5861L137.656 72.6996L136.026 73.9475Z" fill="#4D4D4D"/>
<path d="M158.099 72.4454C157.236 69.9839 155.895 67.4194 154.461 65.5472C151.555 61.7509 142.466 54.0142 140.84 51.8912L132.774 41.3556L129.299 44.0159L154 76.274C155.561 75.0859 156.98 73.7589 158.099 72.4454Z" fill="#D1D1CF"/>
<path d="M133.513 74.43C133.513 74.43 132.867 73.7982 132.514 73.6937C132.327 73.8711 130.282 75.1315 129.164 75.2046C128.97 75.285 128.791 75.8258 128.801 75.9734C128.803 76.1103 133.513 74.43 133.513 74.43Z" fill="#4D4D4D"/>
<path d="M157.71 72.8952C156.849 70.3967 155.488 67.779 154.031 65.876C151.125 62.0801 142.037 54.3428 140.411 52.2199L132.344 41.6844L131.914 42.0131L139.982 52.5486C141.607 54.6717 150.696 62.4086 153.602 66.2045C155.078 68.1316 156.453 70.7907 157.313 73.3175C157.446 73.1775 157.583 73.0363 157.71 72.8952Z" fill="#808080"/>
<path d="M150.96 78.2918C148.475 76.023 146.019 73.3143 145.193 72.2358C143.715 70.3059 136.956 57.2131 135.527 55.3477L127.755 45.1979L126.947 45.8168C128.902 48.2307 133.728 54.1979 134.899 55.7265C136.376 57.6566 141.154 68.6941 144.406 72.9402C145.848 74.8245 148.091 76.9528 150.142 78.7403C150.415 78.5979 150.688 78.4483 150.96 78.2918Z" fill="#E7E8EB"/>
<path d="M133.859 40.5242C130.153 35.7277 125.329 33.2539 123.052 34.9976C120.775 36.7411 121.905 42.0441 125.569 46.8726L133.859 40.5242Z" fill="#4D4D4D"/>
<path d="M125.021 40.5303L119.328 33.7668L122.834 31.0818L127.879 38.3413C128.424 39.1245 128.257 40.1973 127.499 40.7775L127.472 40.7984C126.714 41.3781 125.635 41.26 125.021 40.5303Z" fill="#666666"/>
<path d="M150.339 80.4135C150.228 80.2684 150.256 80.0611 150.401 79.9501L150.406 79.9459C150.551 79.835 150.759 79.8623 150.869 80.0072L151.848 81.2856C152.118 81.2807 152.39 81.2607 152.665 81.2274L151.743 80.0242C151.632 79.8796 151.66 79.6721 151.805 79.5608L151.81 79.5566C151.955 79.4458 152.163 79.4739 152.273 79.6184L153.414 81.1072C153.651 81.055 153.889 80.9938 154.129 80.9172L153.147 79.636C153.036 79.4911 153.064 79.2834 153.209 79.1724L153.214 79.1684C153.359 79.0572 153.567 79.0851 153.677 79.23L154.784 80.6747C154.993 80.5859 155.204 80.4844 155.414 80.3738L154.392 79.0394C154.281 78.8943 154.309 78.6868 154.454 78.576L154.459 78.5718C154.604 78.4612 154.811 78.4885 154.923 78.6333L155.996 80.0361C156.19 79.9139 156.383 79.7819 156.576 79.6384C156.622 79.6075 156.662 79.5758 156.707 79.5425C156.767 79.4969 156.821 79.4486 156.878 79.4017L155.785 77.9724C155.674 77.8279 155.701 77.6204 155.846 77.5098L155.852 77.5054C155.997 77.3945 156.204 77.4219 156.315 77.5667L157.38 78.9573C157.547 78.7943 157.706 78.6263 157.854 78.452L156.685 76.926C156.574 76.7813 156.601 76.5738 156.747 76.4628L156.752 76.4586C156.896 76.3478 157.104 76.3753 157.215 76.5197L158.273 77.9019C158.413 77.7007 158.543 77.4942 158.659 77.282L157.426 75.672C157.315 75.527 157.343 75.3195 157.488 75.2082L157.493 75.2044C157.638 75.0932 157.845 75.1209 157.956 75.266L158.983 76.6068C159.002 76.5617 159.023 76.5174 159.042 76.4725C159.123 76.2658 159.195 76.056 159.259 75.8424L158.167 74.4177C158.056 74.2728 158.084 74.0649 158.228 73.9543L158.234 73.9499C158.379 73.839 158.586 73.8666 158.697 74.0115L159.457 75.0046C159.708 73.6686 159.652 72.2346 159.346 70.7973C156.979 74.4347 151.523 78.7182 146.961 80.0645C148.119 80.649 149.501 81.1335 150.985 81.2577L150.339 80.4135Z" fill="#4D4D4D"/>
<path d="M106.163 56.8655L94.4843 39.2667L94.796 38.9134L107.584 56.9112L106.163 56.8655Z" fill="#E6E6E6"/>
<path d="M106.084 55.7411C106.227 55.9919 106.15 56.3108 105.909 56.4694L105.777 56.5555C105.479 56.7508 105.382 57.1431 105.556 57.4546L113.862 72.3766C114.186 72.9596 113.957 73.6713 113.384 74.0135C112.355 74.6285 111.572 75.6587 111.313 76.9532C110.909 78.9712 111.999 81.066 113.889 81.8805C114.693 82.2271 115.525 82.3166 116.311 82.2004L117.282 86.4467C117.319 86.6113 117.486 86.7103 117.649 86.6643L118.348 86.4672C118.51 86.4218 118.601 86.2493 118.547 86.0897L117.164 81.9841C118.611 81.4635 119.767 80.2072 120.048 78.5252C120.289 77.0765 119.721 75.5947 118.657 74.5818C118.245 74.1896 117.817 73.9129 117.383 73.7244C116.213 73.2177 115.261 72.3151 114.641 71.2007L112.107 66.6483L112.545 62.2902C112.594 61.8063 112.493 61.3194 112.256 60.8939L108.832 54.7414L96.0297 39.0466C95.858 38.8033 95.5508 38.6954 95.2647 38.7783L94.7965 38.9134L106.084 55.7411ZM116.568 74.6505C118.315 75.1485 119.327 76.9681 118.83 78.7143C118.332 80.4617 116.513 81.4744 114.766 80.9772C113.019 80.4789 112.006 78.6597 112.504 76.9125C113.001 75.1657 114.821 74.1531 116.568 74.6505Z" fill="#9AA1A3"/>
<path d="M112.062 76.8662C111.564 78.613 112.577 80.4326 114.324 80.93C114.578 81.0023 114.833 81.0398 115.085 81.0498C114.979 81.0309 114.872 81.0065 114.766 80.9767C113.019 80.4784 112.006 78.6593 112.504 76.912C112.929 75.4191 114.32 74.4662 115.806 74.5303C114.162 74.2327 112.529 75.2261 112.062 76.8662Z" fill="#7A8082"/>
<path d="M111.815 60.8476C112.051 61.2724 112.152 61.7595 112.103 62.244L111.666 66.6017L114.2 71.155C114.82 72.2681 115.771 73.1708 116.941 73.6781C117.375 73.8666 117.804 74.143 118.216 74.5354C119.28 75.5481 119.848 77.0297 119.606 78.4791C119.326 80.1604 118.169 81.4172 116.722 81.9377L118.106 86.0434C118.159 86.2031 118.069 86.3748 117.906 86.4209L117.355 86.5761C117.427 86.6556 117.538 86.6955 117.649 86.6641L118.349 86.4671C118.51 86.4217 118.601 86.2491 118.548 86.0896L117.164 81.9839C118.611 81.4634 119.768 80.2062 120.048 78.5251C120.29 77.0763 119.721 75.5945 118.657 74.5816C118.245 74.1894 117.817 73.9128 117.383 73.7243C116.214 73.2176 115.262 72.3149 114.642 71.2006L112.108 66.6481L112.545 62.29C112.594 61.8061 112.493 61.3193 112.257 60.8938L111.815 60.8476Z" fill="#7A8082"/>
<path d="M114.103 72.1027L105.797 57.1803C105.683 56.9748 105.696 56.7386 105.797 56.5423L105.777 56.5555C105.479 56.7508 105.382 57.1431 105.556 57.4547L113.861 72.3766C114.088 72.7837 114.04 73.2494 113.799 73.6121C114.24 73.2402 114.392 72.6223 114.103 72.1027Z" fill="#E1E9EB"/>
<path d="M118.561 86.2014L117.89 86.3903C117.728 86.4355 117.561 86.3364 117.523 86.1721L116.553 81.9262C115.767 82.0417 114.935 81.9524 114.131 81.6065C112.24 80.7919 111.151 78.6974 111.555 76.679C111.703 75.9407 112.025 75.2921 112.462 74.7539C111.9 75.3387 111.487 76.0846 111.313 76.9531C110.909 78.9711 111.999 81.0659 113.889 81.8804C114.693 82.227 115.526 82.3165 116.311 82.2003L117.282 86.4466C117.319 86.6112 117.487 86.7102 117.649 86.6642L118.348 86.4671C118.473 86.4317 118.553 86.3222 118.561 86.2014Z" fill="#E1E9EB"/>
<path d="M119.072 78.4401C119.569 76.6931 118.556 74.8736 116.809 74.3764C115.466 73.9941 114.086 74.5099 113.291 75.5605C114.107 74.7017 115.35 74.303 116.568 74.6501C118.315 75.1481 119.327 76.9677 118.83 78.7139C118.715 79.1182 118.523 79.4767 118.284 79.7924C118.639 79.4196 118.921 78.9691 119.072 78.4401Z" fill="#E1E9EB"/>
<path d="M119.808 75.343C120.244 75.3043 120.565 74.9198 120.527 74.4841C120.488 74.0485 120.103 73.7267 119.668 73.7654C119.232 73.8041 118.91 74.1886 118.949 74.6243C118.988 75.0599 119.372 75.3817 119.808 75.343Z" fill="#B8C1C4"/>
<path d="M120.849 73.4433L120.016 74.0759L120.384 74.559L121.216 73.9264L120.849 73.4433Z" fill="#B8C1C4"/>
<path d="M107.907 54.7759L94.7986 38.9819L94.5295 39.141L106.797 55.4402L107.907 54.7759Z" fill="#7A8082"/>
<path d="M94.5295 39.1411L94.2383 39.5315C94.0601 39.7703 94.0528 40.0958 94.2199 40.3421L104.945 56.8312L109.496 62.204C109.811 62.5752 110.231 62.8412 110.701 62.9663L114.934 64.092L118.302 68.0683C119.126 69.0408 119.636 70.2498 119.697 71.5226C119.721 71.9958 119.829 72.494 120.051 73.0177C120.623 74.3704 121.81 75.424 123.251 75.7088C126.096 76.2698 128.698 74.0389 128.561 71.1274C128.465 69.0715 126.889 67.3139 124.857 66.9804C123.555 66.767 122.315 67.1368 121.377 67.8825C120.854 68.2983 120.108 68.2623 119.677 67.7532L108.638 54.7217C108.408 54.45 108.007 54.402 107.719 54.6121L107.592 54.7046C107.359 54.8749 107.033 54.8344 106.849 54.6116L94.5295 39.1411ZM124.401 68.0802C126.21 68.2303 127.557 69.8192 127.406 71.6295C127.257 73.4401 125.668 74.7856 123.857 74.6357C122.047 74.4858 120.701 72.8969 120.851 71.087C121.001 69.2766 122.59 67.9303 124.401 68.0802Z" fill="#B8C1C4"/>
<path d="M127.941 71.0422C128.068 73.7538 125.82 75.8726 123.212 75.6975C123.226 75.7009 123.238 75.7054 123.251 75.7084C126.096 76.2694 128.698 74.0385 128.562 71.1271C128.465 69.0711 126.889 67.3135 124.858 66.98C124.69 66.9531 124.524 66.9357 124.36 66.9272C126.329 67.3108 127.847 69.0294 127.941 71.0422Z" fill="#7A8082"/>
<path d="M108.018 54.6369L119.057 67.6686C119.329 67.9906 119.728 68.1218 120.116 68.0705C119.953 68.002 119.801 67.8996 119.677 67.753L108.638 54.7215C108.45 54.4987 108.15 54.4357 107.888 54.5322C107.933 54.5644 107.98 54.593 108.018 54.6369Z" fill="#7A8082"/>
<path d="M120.527 70.3951C120.032 72.146 121.05 73.9722 122.8 74.4747C123.055 74.5478 123.31 74.5848 123.563 74.5963C123.456 74.5768 123.349 74.552 123.242 74.5218C121.492 74.0192 120.474 72.1926 120.969 70.4427C121.392 68.9465 122.784 67.9935 124.271 68.0604C122.625 67.7591 120.992 68.751 120.527 70.3951Z" fill="#7A8082"/>
<path d="M108.281 57.9975C108.564 57.9723 108.773 57.7226 108.748 57.4396C108.723 57.1567 108.473 56.9477 108.19 56.9728C107.907 56.9979 107.698 57.2477 107.723 57.5306C107.748 57.8136 107.998 58.0226 108.281 57.9975Z" fill="#7A8082"/>
<path d="M127.518 71.9795C128.016 70.2329 127.003 68.4135 125.256 67.9155C123.913 67.5332 122.533 68.049 121.738 69.0998C122.554 68.2414 123.797 67.8429 125.015 68.1894C126.762 68.6874 127.775 70.5066 127.277 72.2538C127.162 72.6573 126.97 73.016 126.731 73.3313C127.086 72.9589 127.368 72.5084 127.518 71.9795Z" fill="#E1E9EB"/>
<path d="M98.6549 76.7551L102.988 69.4871C103.078 69.3365 103.039 69.1427 102.899 69.0375L102.561 68.7836C102.414 68.673 102.205 68.699 102.089 68.8422L97.5331 74.4627C97.4399 74.5777 97.2727 74.5983 97.1541 74.5093L97.1499 74.5057C97.0318 74.4172 97.0049 74.2505 97.089 74.1293L101.215 68.1853C101.32 68.0339 101.286 67.8265 101.139 67.7162L101.134 67.7121C100.986 67.6015 100.778 67.6271 100.662 67.7703L96.1056 73.3908C96.0125 73.5058 95.8452 73.5266 95.7269 73.4379L95.7225 73.4344C95.6041 73.3455 95.5775 73.1792 95.6618 73.0578L99.7876 67.114C99.8929 66.9626 99.8593 66.7554 99.7116 66.6449L99.7063 66.6408C99.559 66.5302 99.3504 66.5558 99.2348 66.6992L94.6782 72.3197C94.5853 72.4344 94.4178 72.4551 94.2997 72.3666L94.2954 72.3627C94.1771 72.2738 94.1503 72.1075 94.2348 71.9862L98.3606 66.0425C98.4655 65.8909 98.4324 65.6842 98.2846 65.5732L98.2795 65.5691C98.132 65.4587 97.9234 65.4843 97.8078 65.6274L93.2514 71.2479C93.1583 71.3629 92.9911 71.384 92.8727 71.2949L92.8683 71.2916C92.7499 71.2025 92.7233 71.0364 92.8078 70.9147L96.9334 64.9712C97.0385 64.8194 97.0053 64.6125 96.8576 64.5015L96.8523 64.4978C96.7052 64.3873 96.4968 64.4127 96.3806 64.5557L91.8242 70.1766C91.7311 70.2916 91.5636 70.3119 91.4455 70.2232L91.4411 70.22C91.3227 70.1311 91.2959 69.9645 91.3804 69.8434L95.5062 63.8995C95.6111 63.7479 95.5777 63.5408 95.4304 63.4304L95.4251 63.4263C95.278 63.3156 95.0694 63.3412 94.9536 63.4844L90.3973 69.1053C90.3043 69.2203 90.1367 69.241 90.0183 69.1519L90.0143 69.1487C89.896 69.0598 89.8691 68.8933 89.9534 68.7719L94.0792 62.8281C94.1843 62.677 94.1507 62.4693 94.0036 62.3586L93.9983 62.3547C93.8508 62.2439 93.6426 62.2699 93.5263 62.4127L88.9702 68.0336C88.8771 68.1487 88.7096 68.169 88.5913 68.0803L88.5871 68.0768C88.4688 67.9883 88.4419 67.8218 88.5262 67.7003L92.6522 61.7564C92.7573 61.6052 92.7239 61.3977 92.5766 61.2873L92.5711 61.283C92.4233 61.1724 92.2154 61.1979 92.0992 61.3413L87.543 66.9619C87.4501 67.0768 87.2829 67.0977 87.1643 67.0088L87.1601 67.0054C87.0415 66.9164 87.0149 66.7503 87.0992 66.6288L91.2252 60.6849C91.3303 60.5333 91.2967 60.3262 91.1492 60.2152L91.1443 60.2114C90.9965 60.1006 90.7879 60.126 90.6719 60.2694L86.1158 65.8899C86.0224 66.0049 85.8552 66.0258 85.7373 65.9371L85.7326 65.9335C85.6145 65.8448 85.5875 65.6784 85.6719 65.5571L89.798 59.6131C89.9027 59.4618 89.8697 59.2545 89.7218 59.1437L89.7168 59.1397C89.5694 59.0293 89.3607 59.0547 89.2451 59.1981L84.6888 64.8188C84.5956 64.9336 84.4284 64.9544 84.3103 64.8657L84.3059 64.8622C84.1875 64.7735 84.1607 64.607 84.2454 64.4855L88.371 58.5418C88.4761 58.3902 88.4429 58.1833 88.2954 58.0723L88.2901 58.0684C88.1425 57.9576 87.9344 57.9831 87.8182 58.1265L83.262 63.7471C83.1689 63.8622 83.0016 63.8827 82.8833 63.794L82.8789 63.7907C82.7605 63.7018 82.7337 63.5353 82.8181 63.4138L86.944 57.4703C87.0491 57.3187 87.0157 57.1114 86.868 57.0008L86.8627 56.9969C86.7153 56.886 86.5069 56.9116 86.3909 57.0548L81.8346 62.6758C81.7417 62.7907 81.5742 62.8114 81.4561 62.7227L81.4519 62.7193C81.3333 62.6304 81.3067 62.4642 81.391 62.3427L85.517 56.399C85.6219 56.2476 85.5887 56.0401 85.441 55.9295L85.4359 55.9256C85.2884 55.8151 85.08 55.8407 84.9642 55.9837L80.4078 61.6044C80.3147 61.7194 80.1472 61.7401 80.0291 61.6512L80.0247 61.6478C79.9066 61.5591 79.8797 61.3926 79.964 61.2716L84.0898 55.3274C84.1949 55.1763 84.1613 54.9688 84.014 54.8584L84.0087 54.8543C83.8612 54.7436 83.653 54.7692 83.537 54.9122L78.9807 60.5331C78.8873 60.6479 78.7203 60.6687 78.602 60.5801L78.5977 60.5767C78.4792 60.4878 78.4525 60.3209 78.5368 60.1999L82.6628 54.2561C82.7679 54.1045 82.7343 53.8973 82.587 53.7866L82.5817 53.7827C82.4344 53.6721 82.226 53.6974 82.1098 53.8407L77.5536 59.4614C77.4603 59.5761 77.293 59.597 77.1747 59.5083L77.1705 59.505C77.0522 59.4163 77.0251 59.2496 77.1096 59.1281L81.2354 53.1846C81.3407 53.033 81.3069 52.826 81.1596 52.7151L80.8214 52.4613C80.6812 52.3562 80.4846 52.3737 80.3651 52.5016L74.5945 58.6911C73.317 60.0611 73.5094 62.2362 75.0074 63.3608L94.0546 77.6605C95.5533 78.7873 97.6958 78.3646 98.6549 76.7551Z" fill="#E2AA7B"/>
<path d="M74.4075 58.9426L80.1782 52.7533C80.2977 52.6254 80.4943 52.608 80.6345 52.7132L80.9725 52.9669C81.1198 53.0775 81.1534 53.2848 81.0485 53.4361L76.9224 59.3801C76.838 59.5014 76.865 59.668 76.9834 59.7569L76.9876 59.7601C77.1059 59.8486 77.2733 59.8279 77.3663 59.7131L81.9228 54.0924C82.0389 53.9494 82.2472 53.9236 82.3947 54.0342L82.3999 54.0382C82.5472 54.1488 82.5808 54.3563 82.4757 54.5075L78.3498 60.4512C78.2654 60.5726 78.2922 60.7391 78.4105 60.828L78.4148 60.8314C78.5331 60.9201 78.7003 60.8994 78.7935 60.7844L83.3496 55.1635C83.4658 55.0205 83.6742 54.9947 83.8215 55.1054L83.8268 55.1093C83.9741 55.2197 84.0075 55.4274 83.9024 55.5786L79.7766 61.5225C79.6921 61.644 79.719 61.8105 79.8371 61.8992L79.8415 61.9025C79.9601 61.9914 80.1275 61.9705 80.2205 61.8558L84.7768 56.2348C84.8928 56.0916 85.101 56.0661 85.2487 56.1767L85.2538 56.1806C85.4011 56.2913 85.4347 56.4987 85.3298 56.6499L81.2038 62.5942C81.1193 62.7151 81.1464 62.8816 81.2645 62.9707L81.2689 62.9738C81.387 63.0625 81.5547 63.042 81.6476 62.9269L86.204 57.3061C86.32 57.1634 86.5284 57.1378 86.6756 57.2478L86.681 57.2521C86.8285 57.363 86.8617 57.5703 86.7568 57.7216L82.6308 63.6654C82.5465 63.7868 82.5734 63.9533 82.6917 64.0422L82.6961 64.0453C82.8142 64.134 82.9817 64.1131 83.0748 63.9984L87.6312 58.3779C87.7472 58.2345 87.9556 58.2087 88.1029 58.3195L88.1082 58.3236C88.2557 58.4343 88.2889 58.6418 88.184 58.7929L84.0584 64.7371C83.9739 64.8581 84.0005 65.0244 84.1189 65.1133L84.1231 65.1167C84.2414 65.2056 84.4089 65.1849 84.5021 65.0701L89.0582 59.4494C89.1742 59.3062 89.3826 59.2802 89.5299 59.3911L89.5352 59.395C89.6829 59.506 89.7161 59.7135 89.6114 59.8646L85.4854 65.8084C85.4009 65.9298 85.4275 66.0959 85.5461 66.185L85.5506 66.1886C85.6687 66.2773 85.8359 66.256 85.929 66.1414L90.4856 60.5209C90.6014 60.3775 90.81 60.3521 90.9575 60.4627L90.9626 60.4667C91.1099 60.5771 91.1435 60.7846 91.0384 60.9362L86.9124 66.8801C86.8281 67.0014 86.855 67.1676 86.9731 67.2565L86.9775 67.2599C87.0959 67.349 87.2631 67.3281 87.3561 67.2134L91.9124 61.5922C92.0284 61.4494 92.2366 61.4237 92.3843 61.5343L92.3899 61.5386C92.5371 61.6488 92.5705 61.8559 92.4654 62.0075L88.3394 67.9514C88.2551 68.0729 88.2822 68.2394 88.4001 68.3281L88.4046 68.3316C88.5229 68.4203 88.6903 68.3994 88.7835 68.2847L93.3398 62.6641C93.4558 62.5209 93.6642 62.4949 93.8115 62.6058L93.8169 62.6099C93.9641 62.7202 93.9975 62.9276 93.8926 63.079L89.7666 69.0232C89.6823 69.1444 89.7094 69.3107 89.8275 69.3998L89.8317 69.4029C89.9503 69.4918 90.1175 69.4711 90.2105 69.3562L94.767 63.7354C94.8831 63.5927 95.0917 63.5671 95.2387 63.6775L95.244 63.6812C95.3916 63.7921 95.4247 63.9994 95.3203 64.1509L91.1942 70.0946C91.1097 70.2159 91.1366 70.3824 91.2549 70.4713L91.2592 70.4746C91.3775 70.5635 91.5449 70.5426 91.6381 70.4281L96.1945 64.8076C96.3103 64.6642 96.5186 64.6384 96.6659 64.7488L96.6713 64.7529C96.8188 64.864 96.8522 65.0711 96.7471 65.2222L92.6212 71.1662C92.5368 71.2876 92.5634 71.4537 92.6817 71.5428L92.686 71.5464C92.8045 71.6351 92.9715 71.614 93.0649 71.4994L97.6212 65.8789C97.737 65.7355 97.9455 65.7104 98.0931 65.8206L98.0982 65.8243C98.246 65.9355 98.279 66.1428 98.1743 66.2942L94.0482 72.2379C93.9638 72.3592 93.9904 72.5253 94.1087 72.6144L94.1134 72.6179C94.2315 72.7068 94.3989 72.6857 94.4919 72.5712L99.0482 66.9502C99.1642 66.807 99.3726 66.7817 99.5199 66.8923L99.5253 66.8962C99.6728 67.007 99.7059 67.2139 99.6013 67.3653L95.4752 73.3092C95.391 73.4305 95.4178 73.5972 95.5359 73.6857L95.5406 73.6896C95.6589 73.7781 95.8261 73.7572 95.9191 73.6427L100.475 68.022C100.592 67.8787 100.8 67.853 100.947 67.9636L100.953 67.9679C101.1 68.0782 101.133 68.2856 101.028 68.4368L96.9022 74.3808C96.8182 74.5022 96.8452 74.6685 96.9631 74.7574L96.9674 74.7608C97.0857 74.8497 97.2531 74.829 97.3463 74.7138L101.903 69.0933C102.019 68.9501 102.227 68.9243 102.374 69.0349L102.713 69.2892C102.853 69.3944 102.891 69.5882 102.801 69.7386L98.4682 77.007C98.4376 77.0588 98.4053 77.1097 98.372 77.1586C98.4754 77.0342 98.5706 76.9003 98.6562 76.7565L102.989 69.4886C103.079 69.3379 103.041 69.1442 102.901 69.0389L102.562 68.7851C102.415 68.6745 102.207 68.7002 102.091 68.8436L97.5344 74.4642C97.4412 74.5791 97.274 74.5998 97.1554 74.5107L97.1511 74.5071C97.0331 74.4186 97.0062 74.252 97.0903 74.1307L101.216 68.1868C101.321 68.0354 101.288 67.8279 101.141 67.7177L101.135 67.7136C100.987 67.603 100.779 67.6285 100.663 67.7717L96.1069 73.3923C96.0138 73.5072 95.8465 73.5281 95.7282 73.4394L95.7238 73.4359C95.6054 73.347 95.5788 73.1807 95.6631 73.0592L99.7889 67.1155C99.8942 66.9641 99.8606 66.7568 99.7129 66.6464L99.7076 66.6423C99.5603 66.5317 99.3521 66.5572 99.2361 66.7006L94.6795 72.3212C94.5866 72.4359 94.4191 72.4566 94.301 72.3681L94.2967 72.3641C94.1784 72.2752 94.1516 72.1089 94.2361 71.9877L98.3619 66.044C98.467 65.8924 98.4337 65.6857 98.2859 65.5747L98.2808 65.5706C98.1333 65.4601 97.9251 65.4855 97.8091 65.6289L93.2527 71.2494C93.1596 71.3644 92.9924 71.3855 92.874 71.2964L92.8696 71.293C92.7512 71.2039 92.7246 71.0378 92.8091 70.9161L96.9347 64.9726C97.0398 64.8209 97.0066 64.614 96.8589 64.5029L96.8536 64.4992C96.7065 64.3888 96.4981 64.4142 96.3819 64.5572L91.8255 70.1781C91.7324 70.2931 91.5649 70.3134 91.4468 70.2246L91.4424 70.2215C91.324 70.1326 91.2972 69.9659 91.3817 69.8449L95.5075 63.9009C95.6124 63.7494 95.579 63.5423 95.4317 63.4318L95.4264 63.4277C95.2793 63.3171 95.0707 63.3427 94.9549 63.4858L90.3986 69.1068C90.3056 69.2217 90.138 69.2424 90.0196 69.1533L90.0156 69.1502C89.8973 69.0613 89.8704 68.8948 89.9547 68.7733L94.0805 62.8296C94.1858 62.678 94.152 62.4707 94.0049 62.3601L93.9996 62.3562C93.8521 62.2453 93.6441 62.2713 93.5277 62.4141L88.9715 68.035C88.8784 68.1502 88.7109 68.1705 88.5926 68.0818L88.5884 68.0782C88.4701 67.9897 88.4432 67.8233 88.5275 67.7018L92.6535 61.7579C92.7588 61.6065 92.7252 61.3992 92.5779 61.2887L92.5724 61.2845C92.4246 61.1738 92.2167 61.1994 92.1005 61.3428L87.5443 66.9633C87.4514 67.0783 87.2842 67.0991 87.1656 67.0103L87.1614 67.0069C87.0428 66.9178 87.0162 66.7517 87.1005 66.6303L91.2265 60.6863C91.3316 60.5347 91.298 60.3277 91.1505 60.2166L91.1456 60.2129C90.9978 60.1021 90.7892 60.1275 90.6732 60.2709L86.1171 65.8914C86.0237 66.0064 85.8565 66.0273 85.7386 65.9385L85.7339 65.935C85.6156 65.8461 85.5888 65.6798 85.6732 65.5586L89.7993 59.6146C89.9042 59.463 89.871 59.2559 89.7231 59.1451L89.7181 59.1412C89.5707 59.0308 89.3624 59.0561 89.2465 59.1995L84.6901 64.8203C84.597 64.935 84.4297 64.9559 84.3116 64.8672L84.3072 64.8636C84.1888 64.775 84.162 64.6085 84.2467 64.487L88.3723 58.5433C88.4776 58.3917 88.4442 58.1848 88.2967 58.0738L88.2914 58.0699C88.1438 57.959 87.9357 57.9846 87.8195 58.128L83.2633 63.7485C83.1702 63.8637 83.0029 63.8841 82.8846 63.7955L82.8802 63.7921C82.7618 63.7032 82.735 63.5367 82.8194 63.4153L86.9453 57.4717C87.0504 57.3202 87.017 57.1129 86.8693 57.0023L86.8639 56.9984C86.7166 56.8875 86.5082 56.9131 86.3922 57.0563L81.8359 62.6772C81.743 62.7922 81.5755 62.8129 81.4574 62.7242L81.4532 62.7208C81.3346 62.6319 81.308 62.4656 81.3923 62.3442L85.5183 56.4004C85.6236 56.249 85.59 56.0416 85.4423 55.9309L85.4372 55.927C85.2897 55.8166 85.0815 55.8419 84.9655 55.9851L80.4091 61.6059C80.316 61.7208 80.1485 61.7415 80.0304 61.6526L80.026 61.6493C79.9079 61.5606 79.881 61.3941 79.9653 61.273L84.0911 55.3289C84.1962 55.1775 84.1626 54.9703 84.0153 54.8598L84.01 54.8557C83.8625 54.7451 83.6545 54.7704 83.5383 54.9136L78.982 60.5346C78.8886 60.6493 78.7216 60.6702 78.6033 60.5815L78.599 60.5782C78.4805 60.4893 78.4538 60.3224 78.5381 60.2013L82.6641 54.2576C82.7692 54.106 82.7356 53.8987 82.5883 53.7881L82.583 53.7842C82.4357 53.6735 82.2273 53.6989 82.1111 53.8421L77.5549 59.4628C77.4616 59.5776 77.2943 59.5985 77.176 59.5098L77.1718 59.5064C77.0535 59.4177 77.0264 59.2511 77.1109 59.1296L81.2367 53.1861C81.342 53.0345 81.3082 52.8274 81.1609 52.7166L80.8227 52.4628C80.6825 52.3577 80.4859 52.3752 80.3664 52.5031L74.5958 58.6925C74.4816 58.8146 74.3799 58.9432 74.2891 59.0773C74.3266 59.0315 74.3661 58.9866 74.4075 58.9426Z" fill="#997353"/>
<path d="M94.3369 77.2865L75.29 62.9868C73.9485 61.9796 73.655 60.1311 74.525 58.7717C73.3266 60.1449 73.5383 62.2592 75.0078 63.3625L94.055 77.6622C95.5248 78.7657 97.6138 78.379 98.598 76.8448C97.5355 78.0597 95.6783 78.2937 94.3369 77.2865Z" fill="#FEDEAF"/>
</g>
<path d="M22.6094 14.5781L19.0703 22.6562C18.6276 23.6667 18.2135 24.3958 17.8281 24.8438C17.4427 25.2865 16.9844 25.6172 16.4531 25.8359C15.9271 26.0495 15.2812 26.1562 14.5156 26.1562C13.8594 26.1562 13.25 26.0781 12.6875 25.9219V23.8438C13.1562 24.0312 13.7266 24.125 14.3984 24.125C14.8203 24.125 15.1641 24.0286 15.4297 23.8359C15.6953 23.6432 15.9219 23.2917 16.1094 22.7812L12.1562 14.5781H14.7188L17.5391 20.9453H17.6172C17.6953 20.6536 17.8724 20.1875 18.1484 19.5469L20.1094 14.5781H22.6094ZM27.25 26.1562C24.5312 26.1562 23.1719 24.6641 23.1719 21.6797C23.1719 20.1953 23.5417 19.0625 24.2812 18.2812C25.0208 17.4948 26.0807 17.1016 27.4609 17.1016C28.4714 17.1016 29.3776 17.2995 30.1797 17.6953L29.4766 19.5391C29.1016 19.388 28.7526 19.2656 28.4297 19.1719C28.1068 19.0729 27.7839 19.0234 27.4609 19.0234C26.2214 19.0234 25.6016 19.9036 25.6016 21.6641C25.6016 23.3724 26.2214 24.2266 27.4609 24.2266C27.9193 24.2266 28.3438 24.1667 28.7344 24.0469C29.125 23.9219 29.5156 23.7292 29.9062 23.4688V25.5078C29.5208 25.7526 29.1302 25.9219 28.7344 26.0156C28.3438 26.1094 27.849 26.1562 27.25 26.1562ZM39.7578 26H37.375V19.0547H35.1797C35.013 21.0078 34.8099 22.4661 34.5703 23.4297C34.3307 24.388 34.0104 25.0833 33.6094 25.5156C33.2135 25.9427 32.6927 26.1562 32.0469 26.1562C31.4948 26.1562 31.0417 26.0729 30.6875 25.9062V24C30.9427 24.1042 31.1979 24.1562 31.4531 24.1562C31.75 24.1562 31.9974 23.9427 32.1953 23.5156C32.3984 23.0885 32.5781 22.3776 32.7344 21.3828C32.8958 20.3828 33.0339 19.0104 33.1484 17.2656H39.7578V26ZM41.0156 17.2656H43.625L45.2734 22.1797C45.4141 22.6068 45.5104 23.112 45.5625 23.6953H45.6094C45.6667 23.1589 45.7786 22.6536 45.9453 22.1797L47.5625 17.2656H50.1172L46.4219 27.1172C46.0833 28.0286 45.599 28.7109 44.9688 29.1641C44.3438 29.6172 43.612 29.8438 42.7734 29.8438C42.362 29.8438 41.9583 29.7995 41.5625 29.7109V27.8203C41.849 27.888 42.1615 27.9219 42.5 27.9219C42.9219 27.9219 43.2891 27.7917 43.6016 27.5312C43.9193 27.276 44.1667 26.888 44.3438 26.3672L44.4844 25.9375L41.0156 17.2656ZM57.4062 17.2656V19.0547H53.7578V26H51.375V17.2656H57.4062ZM61.3359 17.2656V20.7188C61.3359 21.0833 61.276 21.974 61.1562 23.3906L65.1875 17.2656H68.0547V26H65.75V22.5156C65.75 21.8958 65.8021 21.0208 65.9062 19.8906L61.8906 26H59.0312V17.2656H61.3359Z" fill="#3366FF"/>
</svg>
