<svg width="220" height="75" viewBox="0 0 220 75" fill="none" xmlns="http://www.w3.org/2000/svg">
<rect width="220" height="75" rx="4" fill="#D6EFFF"/>
<mask id="mask0_749_10187" style="mask-type:alpha" maskUnits="userSpaceOnUse" x="0" y="0" width="220" height="75">
<rect width="220" height="75" rx="6" transform="matrix(-1 0 0 1 220 0)" fill="#D9D9D9"/>
</mask>
<g mask="url(#mask0_749_10187)">
<path fill-rule="evenodd" clip-rule="evenodd" d="M159.594 34.0627C156.361 25.2712 147.913 19 138 19C128.716 19 120.717 24.5002 117.084 32.4197C112.681 30.853 107.94 30 103 30C85.9684 30 71.3046 40.1376 64.7136 54.7079C62.0261 53.607 59.0839 53 56 53C43.2975 53 33 63.2975 33 76C33 88.7026 43.2975 99 56 99C60.4773 99 64.6558 97.7207 68.1899 95.5076C75.7397 106.666 88.5134 114 103 114C121.909 114 137.9 101.504 143.164 84.3194C148.12 88.4885 154.517 91 161.5 91C171.699 91 180.647 85.6424 185.683 77.588C190.231 87.2848 200.081 94 211.5 94C227.24 94 240 81.2401 240 65.5C240 49.7599 227.24 37 211.5 37C201.301 37 192.353 42.3576 187.317 50.412C182.769 40.7152 172.919 34 161.5 34C160.859 34 160.224 34.0211 159.594 34.0627Z" fill="#A4DCFF"/>
<path d="M132.665 48.2149C131.616 45.0294 133.348 41.5964 136.533 40.547L185.584 24.3897C188.29 23.4984 191.22 24.8838 192.247 27.5413L219.293 97.4626C220.098 99.542 219.021 101.874 216.916 102.61L161.035 122.15C159.057 122.842 156.897 121.777 156.242 119.787L132.665 48.2149Z" fill="url(#paint0_linear_749_10187)"/>
<path d="M135.145 42.218C134.803 41.201 135.44 40.1169 136.495 39.9212C143.492 38.623 167.451 33.8452 186.014 26.1101C186.86 25.7574 187.831 26.1669 188.163 27.0217L215.489 97.202C215.864 98.1643 215.392 99.2483 214.432 99.6285C206.579 102.741 174.196 115.439 162.025 118.082C161.284 118.243 160.542 117.819 160.301 117.101L135.145 42.218Z" fill="#91B3FA"/>
<path opacity="0.6" d="M136.524 43.7486C136.195 42.7696 136.807 41.7264 137.823 41.5379C144.557 40.2889 167.614 35.6906 185.477 28.2469C186.291 27.9075 187.226 28.3018 187.546 29.1242L213.843 96.6619C214.203 97.588 213.749 98.6309 212.825 98.9973C205.267 101.992 174.105 114.212 162.392 116.756C161.679 116.911 160.965 116.503 160.732 115.811L136.524 43.7486Z" fill="white"/>
<path opacity="0.78" d="M144.237 47.0826L149.776 61.5946C149.96 62.0771 150.484 62.3366 150.979 62.1889C153.734 61.3666 162.307 58.7726 167.027 56.9404C167.561 56.7333 167.846 56.1523 167.685 55.6027C166.866 52.8087 164.417 44.6984 162.679 41.5429C162.399 41.0333 161.8 40.789 161.242 40.9515L144.924 45.7014C144.335 45.8729 144.018 46.5099 144.237 47.0826Z" fill="white"/>
<path d="M155.4 52.626C157.24 52.5464 158.667 50.9898 158.588 49.1494C158.508 47.309 156.952 45.8816 155.111 45.9612C153.271 46.0409 151.843 47.5974 151.923 49.4379C152.003 51.2783 153.559 52.7057 155.4 52.626Z" fill="url(#paint1_linear_749_10187)"/>
<path d="M153.507 60.1802L163.6 56.8554C164.219 56.6516 164.365 55.8461 163.86 55.4345C162.561 54.3756 160.118 52.9954 157.041 54.1077C154.075 55.1796 152.887 57.5444 152.415 59.1148C152.215 59.7815 152.846 60.398 153.507 60.1802Z" fill="url(#paint2_linear_749_10187)"/>
<g opacity="0.6">
<path d="M185.02 35.0706C185.336 34.9662 185.515 34.661 185.417 34.3916C185.32 34.1223 184.98 33.9825 184.662 34.0808L166.868 39.5931C166.55 39.6916 166.456 39.9877 166.659 40.2513L166.823 40.4637C167.026 40.7272 167.451 40.8577 167.767 40.7537L185.02 35.0706Z" fill="white"/>
</g>
<g opacity="0.6">
<path d="M167.772 42.3403C167.455 42.4387 167.361 42.735 167.564 42.9985L167.728 43.2111C167.931 43.4747 168.356 43.605 168.672 43.5007L185.925 37.8177C186.241 37.7135 186.42 37.4082 186.322 37.1388C186.224 36.8694 185.885 36.7299 185.567 36.8281L167.772 42.3403Z" fill="white"/>
</g>
<g opacity="0.6">
<path d="M168.691 45.1276C168.373 45.2262 168.279 45.5223 168.483 45.786L168.647 45.9985C168.85 46.2619 169.275 46.3925 169.591 46.2885L186.843 40.6054C187.16 40.5012 187.338 40.1957 187.241 39.9263C187.143 39.6569 186.803 39.5172 186.486 39.6154L168.691 45.1276Z" fill="white"/>
</g>
<g opacity="0.6">
<path d="M192.989 53.4807C193.305 53.3767 193.476 53.074 193.369 52.8078C193.261 52.5417 192.914 52.4073 192.597 52.509L151.045 65.834C150.728 65.9357 150.696 66.1681 150.975 66.3507L151.454 66.6644C151.732 66.8467 152.218 66.9108 152.534 66.8067L192.989 53.4807Z" fill="white"/>
</g>
<g opacity="0.6">
<path d="M151.95 68.5819C151.633 68.6836 151.602 68.9159 151.88 69.0985L152.359 69.4121C152.637 69.5946 153.124 69.6587 153.44 69.5546L193.895 56.2286C194.211 56.1244 194.382 55.8217 194.274 55.5555C194.166 55.2896 193.819 55.1552 193.502 55.2567L151.95 68.5819Z" fill="white"/>
</g>
<path d="M153.274 73.2308C154.245 72.8261 156.1 72.1759 157.122 71.8233C157.555 71.6736 158.034 71.843 158.276 72.2324C158.745 72.9891 159.488 74.3259 159.952 75.8493C160.091 76.3054 159.839 76.7892 159.384 76.9334L155.58 78.1412C155.112 78.2898 154.608 78.061 154.412 77.6111L152.904 74.1547C152.748 73.7975 152.914 73.3806 153.274 73.2308Z" fill="url(#paint3_linear_749_10187)"/>
<g opacity="0.6">
<path d="M160.767 72.3857C160.447 72.4766 160.307 72.7941 160.457 73.091L160.75 73.6722C160.9 73.969 161.282 74.1271 161.598 74.023L170.804 70.9903C171.12 70.8861 171.29 70.5437 171.182 70.2287L171.129 70.0738C171.021 69.7589 170.671 69.5758 170.351 69.6668L160.767 72.3857Z" fill="white"/>
</g>
<path d="M173.925 66.4282C174.897 66.0235 176.751 65.3735 177.774 65.0207C178.207 64.8712 178.686 65.0404 178.927 65.4301C179.396 66.1866 180.14 67.5236 180.603 69.0469C180.742 69.5031 180.49 69.9868 180.036 70.1311L176.232 71.3388C175.764 71.4874 175.26 71.2586 175.063 70.8087L173.555 67.3525C173.399 66.9951 173.565 66.5783 173.925 66.4282Z" fill="url(#paint4_linear_749_10187)"/>
<g opacity="0.6">
<path d="M181.417 65.5833C181.097 65.6741 180.958 65.9917 181.108 66.2887L181.401 66.8697C181.551 67.1668 181.932 67.325 182.248 67.2206L191.455 64.1881C191.771 64.084 191.941 63.7414 191.833 63.4264L191.78 63.2715C191.672 62.9568 191.321 62.7736 191.001 62.8646L181.417 65.5833Z" fill="white"/>
</g>
<g opacity="0.6">
<path d="M165.713 82.6564C165.941 83.0071 166.378 83.1587 166.774 83.0243L199.046 72.0878C199.412 71.9641 199.605 71.5656 199.476 71.2021C199.351 70.849 198.968 70.6595 198.611 70.7751L166.198 81.2884C165.626 81.4742 165.386 82.1522 165.713 82.6564Z" fill="white"/>
</g>
<path d="M160.907 21.7702C158.729 21.1213 157.197 21.6533 156.218 22.3304C155.325 22.9483 154.998 24.1145 155.43 25.1107L157.58 30.0616L163.308 28.7223C163.308 28.7223 165.178 23.043 160.907 21.7702ZM159.816 26.695C159.05 26.9475 158.224 26.5308 157.972 25.7643C157.719 24.9979 158.136 24.1719 158.902 23.9195C159.668 23.6672 160.494 24.0837 160.747 24.8502C160.999 25.6166 160.583 26.4425 159.816 26.695Z" fill="url(#paint5_linear_749_10187)"/>
<path d="M157.428 27.7314C157.359 27.754 157.284 27.721 157.254 27.6533L156.912 26.865C156.881 26.7933 156.914 26.7101 156.985 26.6789C157.058 26.647 157.14 26.6807 157.171 26.7526L157.514 27.5409C157.545 27.6124 157.512 27.6959 157.44 27.7268C157.436 27.7284 157.432 27.7299 157.428 27.7314ZM156.757 26.1861C156.688 26.2088 156.613 26.1757 156.583 26.1081L156.324 25.5096C155.911 24.5606 156.227 23.4468 157.074 22.861C157.673 22.4461 158.349 22.1925 159.081 22.1072C159.158 22.0981 159.228 22.1539 159.237 22.2313C159.246 22.3089 159.191 22.3783 159.113 22.3881C158.428 22.4684 157.796 22.7053 157.235 23.0933C156.498 23.6024 156.224 24.5714 156.583 25.3969L156.843 25.9954C156.874 26.0671 156.841 26.1503 156.769 26.1815C156.765 26.1833 156.761 26.1848 156.757 26.1861Z" fill="white"/>
<path d="M151.07 35.8627L150.225 33.2963C149.933 32.4102 150.434 31.4588 151.329 31.1976L169.224 25.9747C170.018 25.7429 170.858 26.1532 171.164 26.9224L172.124 29.3397L151.07 35.8627Z" fill="url(#paint6_linear_749_10187)"/>
<path d="M156.626 30.5244L155.865 30.7752C155.791 30.7997 155.711 30.7594 155.686 30.6849C155.662 30.6106 155.702 30.5309 155.776 30.5065L156.537 30.2558C156.612 30.2315 156.691 30.2717 156.716 30.3462C156.74 30.4201 156.7 30.5 156.626 30.5244Z" fill="white"/>
<path d="M151.762 34.7413C151.688 34.7658 151.608 34.7252 151.584 34.6511L151.242 33.6129C150.978 32.8106 151.416 31.9431 152.218 31.6788L155.015 30.7574C155.09 30.7329 155.169 30.7732 155.194 30.8475C155.218 30.9218 155.178 31.0015 155.104 31.026L152.306 31.9476C151.652 32.163 151.295 32.8704 151.51 33.5245L151.852 34.5629C151.877 34.637 151.836 34.7169 151.762 34.7413Z" fill="white"/>
<path d="M182.209 44.1895L176.925 42.1652L173.878 46.934C173.158 43.6296 172.138 40.0141 170.688 36.2038C170.226 34.9902 169.747 33.8256 169.256 32.7096C169.193 32.5662 169.194 32.4031 169.258 32.2601C169.322 32.1171 169.443 32.0078 169.592 31.9588C172.008 31.1631 174.424 30.3672 176.84 29.5713C177.12 29.4791 177.424 29.622 177.531 29.897C178.207 31.6363 178.87 33.4479 179.512 35.3306C180.56 38.4018 181.451 41.3632 182.209 44.1895Z" fill="url(#paint7_linear_749_10187)"/>
<path d="M144.074 38.886C143.824 37.9831 144.326 37.043 145.216 36.7498L176.16 26.5561C177.272 26.1895 178.487 26.6768 179.038 27.7107L179.114 27.8532C179.718 28.9858 179.155 30.3886 177.936 30.7901L146.19 41.2474C145.461 41.4875 144.678 41.0693 144.473 40.3293L144.074 38.886Z" fill="url(#paint8_linear_749_10187)"/>
<path d="M94.512 85.7717C95.1975 86.1171 95.7205 86.1932 96.1936 86.1879C96.6649 86.178 97.0647 86.0505 97.4137 85.8389L99.5069 84.5683C100.906 83.7258 102.293 82.8649 103.682 82.0063C105.073 81.1516 106.448 80.2711 107.833 79.405C109.207 78.5218 110.588 77.6516 111.954 76.7547C114.695 74.9769 117.414 73.1629 120.108 71.3082C121.455 70.3803 122.797 69.4447 124.128 68.4892C124.932 67.908 126.049 68.0481 126.684 68.811C134.995 78.8047 149.579 81.5046 161.044 74.5803C173.687 66.946 177.747 50.5071 170.113 37.8645C162.477 25.2204 146.038 21.1603 133.395 28.7948C121.93 35.7185 117.53 49.8819 122.505 61.8905C122.885 62.8077 122.489 63.8616 121.6 64.3029L121.6 64.3031C120.135 65.0364 118.682 65.788 117.233 66.5482C114.338 68.0691 111.467 69.6319 108.618 71.2297C107.188 72.0212 105.774 72.8386 104.353 73.6432C102.942 74.4646 101.522 75.2726 100.118 76.1054C98.7119 76.9351 97.3039 77.762 95.9074 78.6075L93.8084 79.8688C93.4589 80.0792 93.1599 80.3741 92.9319 80.7862C92.7064 81.2021 92.531 81.701 92.517 82.4684C92.4959 83.8154 93.2284 85.125 94.512 85.7717ZM136.311 33.624C146.288 27.5992 159.258 30.8042 165.284 40.7812C171.307 50.7558 168.106 63.7269 158.129 69.752C148.152 75.7767 135.182 72.5716 129.158 62.5971C123.133 52.62 126.335 39.6487 136.311 33.624Z" fill="#39B54A"/>
</g>
<path d="M16.8594 18.9531H17.6562C18.401 18.9531 18.9583 18.8073 19.3281 18.5156C19.6979 18.2188 19.8828 17.7891 19.8828 17.2266C19.8828 16.6589 19.7266 16.2396 19.4141 15.9688C19.1068 15.6979 18.6224 15.5625 17.9609 15.5625H16.8594V18.9531ZM22.3281 17.1406C22.3281 18.3698 21.9427 19.3099 21.1719 19.9609C20.4062 20.612 19.3151 20.9375 17.8984 20.9375H16.8594V25H14.4375V13.5781H18.0859C19.4714 13.5781 20.5234 13.8776 21.2422 14.4766C21.9661 15.0703 22.3281 15.9583 22.3281 17.1406ZM29.8438 25L29.3828 23.8125H29.3203C28.9193 24.3177 28.5052 24.6693 28.0781 24.8672C27.6562 25.0599 27.1042 25.1562 26.4219 25.1562C25.5833 25.1562 24.9219 24.9167 24.4375 24.4375C23.9583 23.9583 23.7188 23.276 23.7188 22.3906C23.7188 21.4635 24.0417 20.7812 24.6875 20.3438C25.3385 19.901 26.3177 19.6562 27.625 19.6094L29.1406 19.5625V19.1797C29.1406 18.2943 28.6875 17.8516 27.7812 17.8516C27.0833 17.8516 26.263 18.0625 25.3203 18.4844L24.5312 16.875C25.5365 16.349 26.651 16.0859 27.875 16.0859C29.0469 16.0859 29.9453 16.3411 30.5703 16.8516C31.1953 17.362 31.5078 18.138 31.5078 19.1797V25H29.8438ZM29.1406 20.9531L28.2188 20.9844C27.526 21.0052 27.0104 21.1302 26.6719 21.3594C26.3333 21.5885 26.1641 21.9375 26.1641 22.4062C26.1641 23.0781 26.5495 23.4141 27.3203 23.4141C27.8724 23.4141 28.3125 23.2552 28.6406 22.9375C28.974 22.6198 29.1406 22.1979 29.1406 21.6719V20.9531ZM33.4375 19.7656C33.4375 17.7604 33.8177 16.2396 34.5781 15.2031C35.3438 14.1615 36.5365 13.5026 38.1562 13.2266C38.724 13.1276 39.2943 13.0469 39.8672 12.9844C40.4453 12.9167 41.0495 12.8411 41.6797 12.7578L41.9531 14.8438C40.6302 14.9948 39.6198 15.1172 38.9219 15.2109C38.2292 15.3047 37.7188 15.4089 37.3906 15.5234C37.0625 15.6328 36.7917 15.7917 36.5781 16C36.3698 16.2083 36.2083 16.4844 36.0938 16.8281C35.9792 17.1667 35.9036 17.6198 35.8672 18.1875H35.9844C36.2604 17.7604 36.625 17.4323 37.0781 17.2031C37.5312 16.974 38.0182 16.8594 38.5391 16.8594C39.6172 16.8594 40.4557 17.1901 41.0547 17.8516C41.6536 18.5078 41.9531 19.4505 41.9531 20.6797C41.9531 22.0964 41.5729 23.1979 40.8125 23.9844C40.0573 24.7656 39.013 25.1562 37.6797 25.1562C36.3464 25.1562 35.3047 24.6797 34.5547 23.7266C33.8099 22.7682 33.4375 21.4479 33.4375 19.7656ZM37.8203 23.2266C38.9505 23.2266 39.5156 22.4479 39.5156 20.8906C39.5156 19.375 39.0052 18.6172 37.9844 18.6172C37.7031 18.6172 37.4219 18.6823 37.1406 18.8125C36.8646 18.9427 36.6094 19.1146 36.375 19.3281C36.1458 19.5365 35.9766 19.7474 35.8672 19.9609C35.8672 21.0182 36.0365 21.8281 36.375 22.3906C36.7135 22.9479 37.1953 23.2266 37.8203 23.2266ZM45.8203 20.6172C45.8203 21.4818 45.9609 22.1354 46.2422 22.5781C46.5286 23.0208 46.9922 23.2422 47.6328 23.2422C48.2682 23.2422 48.724 23.0234 49 22.5859C49.2812 22.1432 49.4219 21.487 49.4219 20.6172C49.4219 19.7526 49.2812 19.1042 49 18.6719C48.7188 18.2396 48.2578 18.0234 47.6172 18.0234C46.9818 18.0234 46.5234 18.2396 46.2422 18.6719C45.9609 19.099 45.8203 19.7474 45.8203 20.6172ZM51.8594 20.6172C51.8594 22.0391 51.4844 23.151 50.7344 23.9531C49.9844 24.7552 48.9401 25.1562 47.6016 25.1562C46.763 25.1562 46.0234 24.974 45.3828 24.6094C44.7422 24.2396 44.25 23.7109 43.9062 23.0234C43.5625 22.3359 43.3906 21.5339 43.3906 20.6172C43.3906 19.1901 43.763 18.0807 44.5078 17.2891C45.2526 16.4974 46.2995 16.1016 47.6484 16.1016C48.487 16.1016 49.2266 16.2839 49.8672 16.6484C50.5078 17.013 51 17.5365 51.3438 18.2188C51.6875 18.901 51.8594 19.7005 51.8594 20.6172ZM60.9766 16.2656V18.0547H58.1172V25H55.7344V18.0547H52.8672V16.2656H60.9766ZM68.1562 25L67.6953 23.8125H67.6328C67.2318 24.3177 66.8177 24.6693 66.3906 24.8672C65.9688 25.0599 65.4167 25.1562 64.7344 25.1562C63.8958 25.1562 63.2344 24.9167 62.75 24.4375C62.2708 23.9583 62.0312 23.276 62.0312 22.3906C62.0312 21.4635 62.3542 20.7812 63 20.3438C63.651 19.901 64.6302 19.6562 65.9375 19.6094L67.4531 19.5625V19.1797C67.4531 18.2943 67 17.8516 66.0938 17.8516C65.3958 17.8516 64.5755 18.0625 63.6328 18.4844L62.8438 16.875C63.849 16.349 64.9635 16.0859 66.1875 16.0859C67.3594 16.0859 68.2578 16.3411 68.8828 16.8516C69.5078 17.362 69.8203 18.138 69.8203 19.1797V25H68.1562ZM67.4531 20.9531L66.5312 20.9844C65.8385 21.0052 65.3229 21.1302 64.9844 21.3594C64.6458 21.5885 64.4766 21.9375 64.4766 22.4062C64.4766 23.0781 64.862 23.4141 65.6328 23.4141C66.1849 23.4141 66.625 23.2552 66.9531 22.9375C67.2865 22.6198 67.4531 22.1979 67.4531 21.6719V20.9531Z" fill="#3366FF"/>
<defs>
<linearGradient id="paint0_linear_749_10187" x1="187.574" y1="108.108" x2="139.076" y2="-23.9361" gradientUnits="userSpaceOnUse">
<stop stop-color="#09005D"/>
<stop offset="1" stop-color="#1A0F91"/>
</linearGradient>
<linearGradient id="paint1_linear_749_10187" x1="148.31" y1="43.0688" x2="171.967" y2="64.2802" gradientUnits="userSpaceOnUse">
<stop stop-color="#FF928E"/>
<stop offset="1" stop-color="#FE7062"/>
</linearGradient>
<linearGradient id="paint2_linear_749_10187" x1="145.463" y1="46.2444" x2="169.119" y2="67.456" gradientUnits="userSpaceOnUse">
<stop stop-color="#FF928E"/>
<stop offset="1" stop-color="#FE7062"/>
</linearGradient>
<linearGradient id="paint3_linear_749_10187" x1="146.08" y1="71.15" x2="205.73" y2="93.3396" gradientUnits="userSpaceOnUse">
<stop stop-color="#4F52FF"/>
<stop offset="1" stop-color="#4042E2"/>
</linearGradient>
<linearGradient id="paint4_linear_749_10187" x1="150.815" y1="58.427" x2="210.463" y2="80.6161" gradientUnits="userSpaceOnUse">
<stop stop-color="#4F52FF"/>
<stop offset="1" stop-color="#4042E2"/>
</linearGradient>
<linearGradient id="paint5_linear_749_10187" x1="163.964" y1="12.6465" x2="151.179" y2="49.7563" gradientUnits="userSpaceOnUse">
<stop stop-color="#2B3582"/>
<stop offset="1" stop-color="#150E42"/>
</linearGradient>
<linearGradient id="paint6_linear_749_10187" x1="167.058" y1="13.7125" x2="154.273" y2="50.8223" gradientUnits="userSpaceOnUse">
<stop stop-color="#2B3582"/>
<stop offset="1" stop-color="#150E42"/>
</linearGradient>
<linearGradient id="paint7_linear_749_10187" x1="172.111" y1="50.2172" x2="182.555" y2="15.576" gradientUnits="userSpaceOnUse">
<stop stop-color="#FF928E"/>
<stop offset="1" stop-color="#FE7062"/>
</linearGradient>
<linearGradient id="paint8_linear_749_10187" x1="164.813" y1="16.4645" x2="158.658" y2="50.1996" gradientUnits="userSpaceOnUse">
<stop stop-color="#4F52FF"/>
<stop offset="1" stop-color="#4042E2"/>
</linearGradient>
</defs>
</svg>
