<svg width="200" height="75" viewBox="0 0 200 75" fill="none" xmlns="http://www.w3.org/2000/svg">
<mask id="mask0_1282_10139" style="mask-type:alpha" maskUnits="userSpaceOnUse" x="0" y="0" width="200" height="75">
<rect width="200" height="75" rx="6" transform="matrix(-1 0 0 1 200 0)" fill="#D9D9D9"/>
</mask>
<g mask="url(#mask0_1282_10139)">
<path fill-rule="evenodd" clip-rule="evenodd" d="M226.677 19H203.161V30.5322H186.613V37.8711H184V25.2904H169.193V27.3871H160.484V47.3064H154.032V30H134V47.3064H128V32H101V61H98.0645V44H85V61H79V52H66V81H79V79H105V74.9839H119.548V80.8548H143.064H146.548H236.258V71.4194H236.258V37.8711H226.677V19ZM62 67H49V81H62V67Z" fill="#A4DCFF"/>
<path d="M155.577 16.7939H150.514V94.3755H155.577V16.7939Z" fill="#FFC658"/>
<g opacity="0.3">
<path d="M155.577 16.7939H150.514V94.3755H155.577V16.7939Z" fill="black"/>
</g>
<path d="M172.433 16.7939H155.577V94.3755H172.433V16.7939Z" fill="#FFC658"/>
<path d="M165.507 18.4419H156.757V20.8157H165.507V18.4419Z" fill="#455A64"/>
<g opacity="0.3">
<path d="M165.507 18.4419H156.757V20.8157H165.507V18.4419Z" fill="white"/>
</g>
<path d="M171.306 18.4419H166.931V20.8157H171.306V18.4419Z" fill="#455A64"/>
<g opacity="0.3">
<path d="M171.306 18.4419H166.931V20.8157H171.306V18.4419Z" fill="white"/>
</g>
<g opacity="0.3">
<path d="M156.757 18.8153L165.088 18.8219L165.106 20.8157H165.507V18.4419H156.757V18.8153Z" fill="black"/>
</g>
<g opacity="0.3">
<path d="M166.931 18.4419V18.7867H170.824V20.8157H171.306V18.4419H166.931Z" fill="black"/>
</g>
<path d="M165.507 22.5266H156.757V24.9004H165.507V22.5266Z" fill="#455A64"/>
<g opacity="0.3">
<path d="M165.507 22.5266H156.757V24.9004H165.507V22.5266Z" fill="white"/>
</g>
<path d="M171.306 22.5266H166.931V24.9004H171.306V22.5266Z" fill="#455A64"/>
<g opacity="0.3">
<path d="M171.306 22.5266H166.931V24.9004H171.306V22.5266Z" fill="white"/>
</g>
<g opacity="0.3">
<path d="M156.757 22.9003L165.088 22.9068L165.106 24.9006H165.507V22.5266H156.757V22.9003Z" fill="black"/>
</g>
<g opacity="0.3">
<path d="M166.931 22.5266V22.8716H170.824V24.9006H171.306V22.5266H166.931Z" fill="black"/>
</g>
<path d="M165.507 26.6116H156.757V28.9854H165.507V26.6116Z" fill="#455A64"/>
<g opacity="0.3">
<path d="M165.507 26.6116H156.757V28.9854H165.507V26.6116Z" fill="white"/>
</g>
<path d="M171.306 26.6116H166.931V28.9854H171.306V26.6116Z" fill="#455A64"/>
<g opacity="0.3">
<path d="M171.306 28.9854H170.206L170.197 28.4541L168.775 28.456V28.9854H166.931V26.6116H171.306V28.9854Z" fill="white"/>
</g>
<g opacity="0.3">
<path d="M156.757 26.9852L165.088 26.9916L165.106 28.9854H165.507V26.6116H156.757V26.9852Z" fill="black"/>
</g>
<g opacity="0.3">
<path d="M166.931 26.6116V26.9564H170.824V28.9854H171.306V26.6116H166.931Z" fill="black"/>
</g>
<path d="M165.507 30.6965H156.757V33.0704H165.507V30.6965Z" fill="#455A64"/>
<path d="M171.306 30.6965H166.931V33.0704H171.306V30.6965Z" fill="#455A64"/>
<g opacity="0.3">
<path d="M167.806 33.0706V31.8837H168.688V30.6965H166.931V33.0706H167.806Z" fill="white"/>
</g>
<g opacity="0.3">
<path d="M171.306 30.6965H170.543V33.0704H171.306V30.6965Z" fill="white"/>
</g>
<g opacity="0.3">
<path d="M165.507 30.6965H156.757V33.0704H165.507V30.6965Z" fill="white"/>
</g>
<g opacity="0.3">
<path d="M156.757 31.0702L165.088 31.0768L165.106 33.0706H165.507V30.6965H156.757V31.0702Z" fill="black"/>
</g>
<g opacity="0.3">
<path d="M166.931 30.6965V31.0415H170.824V33.0706H171.306V30.6965H166.931Z" fill="black"/>
</g>
<path d="M165.507 34.7815H156.757V37.1553H165.507V34.7815Z" fill="#455A64"/>
<g opacity="0.3">
<path d="M156.757 36.5063H158.807V35.6217H162.64V37.1553H165.507V34.7815H156.757V36.5063Z" fill="white"/>
</g>
<path d="M171.306 34.7815H166.931V37.1553H171.306V34.7815Z" fill="#455A64"/>
<g opacity="0.3">
<path d="M171.306 34.7815H170.543V37.1553H171.306V34.7815Z" fill="white"/>
</g>
<g opacity="0.3">
<path d="M156.757 35.1551L165.088 35.1615L165.106 37.1553H165.507V34.7815H156.757V35.1551Z" fill="black"/>
</g>
<g opacity="0.3">
<path d="M167.806 34.7815H166.931V37.1553H167.806V34.7815Z" fill="white"/>
</g>
<g opacity="0.3">
<path d="M166.931 34.7815V35.1265H170.824V37.1553H171.306V34.7815H166.931Z" fill="black"/>
</g>
<path d="M165.507 38.8666H156.757V41.2404H165.507V38.8666Z" fill="#455A64"/>
<path d="M171.306 38.8666H166.931V41.2404H171.306V38.8666Z" fill="#455A64"/>
<g opacity="0.3">
<path d="M156.757 39.2402L165.088 39.2466L165.106 41.2404H165.507V38.8666H156.757V39.2402Z" fill="black"/>
</g>
<g opacity="0.3">
<path d="M166.931 38.8666V39.2114H170.824V41.2404H171.306V38.8666H166.931Z" fill="black"/>
</g>
<path d="M165.507 42.9513H156.757V45.3251H165.507V42.9513Z" fill="#455A64"/>
<path d="M171.306 42.9513H166.931V45.3251H171.306V42.9513Z" fill="#455A64"/>
<g opacity="0.3">
<path d="M156.757 43.3249L165.088 43.3315L165.106 45.3253H165.507V42.9513H156.757V43.3249Z" fill="black"/>
</g>
<g opacity="0.3">
<path d="M166.931 42.9513V43.2963H170.824V45.3253H171.306V42.9513H166.931Z" fill="black"/>
</g>
<path d="M165.507 47.0363H156.757V49.4101H165.507V47.0363Z" fill="#455A64"/>
<path d="M171.306 47.0363H166.931V49.4101H171.306V47.0363Z" fill="#455A64"/>
<g opacity="0.3">
<path d="M156.757 47.4099L165.088 47.4163L165.106 49.4101H165.507V47.0363H156.757V47.4099Z" fill="black"/>
</g>
<g opacity="0.3">
<path d="M166.931 47.0363V47.381H170.824V49.4101H171.306V47.0363H166.931Z" fill="black"/>
</g>
<path d="M165.507 51.1212H156.757V53.495H165.507V51.1212Z" fill="#455A64"/>
<path d="M171.306 51.1212H166.931V53.495H171.306V51.1212Z" fill="#455A64"/>
<g opacity="0.3">
<path d="M156.757 51.4949L165.088 51.5014L165.106 53.4952H165.507V51.1212H156.757V51.4949Z" fill="black"/>
</g>
<g opacity="0.3">
<path d="M166.931 51.1212V51.4662H170.824V53.4952H171.306V51.1212H166.931Z" fill="black"/>
</g>
<path d="M165.507 55.2061H156.757V57.5799H165.507V55.2061Z" fill="#455A64"/>
<path d="M171.306 55.2061H166.931V57.5799H171.306V55.2061Z" fill="#455A64"/>
<g opacity="0.3">
<path d="M156.757 55.5797L165.088 55.5861L165.106 57.5801H165.507V55.2061H156.757V55.5797Z" fill="black"/>
</g>
<g opacity="0.3">
<path d="M166.931 55.2061V55.5511H170.824V57.5801H171.306V55.2061H166.931Z" fill="black"/>
</g>
<path d="M165.507 59.2913H156.757V61.6651H165.507V59.2913Z" fill="#455A64"/>
<path d="M171.306 59.2913H166.931V61.6651H171.306V59.2913Z" fill="#455A64"/>
<g opacity="0.3">
<path d="M156.757 59.6649L165.088 59.6713L165.106 61.6649H165.507V59.2913H156.757V59.6649Z" fill="black"/>
</g>
<g opacity="0.3">
<path d="M166.931 59.2913V59.636H170.824V61.6649H171.306V59.2913H166.931Z" fill="black"/>
</g>
<path d="M165.507 63.376H156.757V65.7498H165.507V63.376Z" fill="#455A64"/>
<path d="M171.306 63.376H166.931V65.7498H171.306V63.376Z" fill="#455A64"/>
<g opacity="0.3">
<path d="M156.757 63.7496L165.088 63.7562L165.106 65.7498H165.507V63.376H156.757V63.7496Z" fill="black"/>
</g>
<g opacity="0.3">
<path d="M166.931 63.376V63.721H170.824V65.7498H171.306V63.376H166.931Z" fill="black"/>
</g>
<path d="M165.507 67.4609H156.757V69.8348H165.507V67.4609Z" fill="#455A64"/>
<path d="M171.306 67.4609H166.931V69.8348H171.306V67.4609Z" fill="#455A64"/>
<g opacity="0.3">
<path d="M156.757 67.8346L165.088 67.8409L165.106 69.8348H165.507V67.4609H156.757V67.8346Z" fill="black"/>
</g>
<g opacity="0.3">
<path d="M166.931 67.4609V67.8057H170.824V69.8348H171.306V67.4609H166.931Z" fill="black"/>
</g>
<path d="M154.286 18.8767H153.219V20.5854H154.286V18.8767Z" fill="#455A64"/>
<path d="M154.286 22.8561H153.219V24.5647H154.286V22.8561Z" fill="#455A64"/>
<path d="M154.286 26.8804H153.219V28.589H154.286V26.8804Z" fill="#455A64"/>
<path d="M154.286 30.905H153.219V32.6137H154.286V30.905Z" fill="#455A64"/>
<path d="M154.286 34.9296H153.219V36.6382H154.286V34.9296Z" fill="#455A64"/>
<path d="M154.286 38.9542H153.219V40.6629H154.286V38.9542Z" fill="#455A64"/>
<path d="M154.286 42.9788H153.219V44.6874H154.286V42.9788Z" fill="#455A64"/>
<path d="M154.286 47.0033H153.219V48.7122H154.286V47.0033Z" fill="#455A64"/>
<path d="M154.286 51.028H153.219V52.7366H154.286V51.028Z" fill="#455A64"/>
<path d="M154.286 55.0522H153.219V56.7609H154.286V55.0522Z" fill="#455A64"/>
<path d="M154.286 59.0769H153.219V60.7856H154.286V59.0769Z" fill="#455A64"/>
<path d="M154.286 63.1014H153.219V64.8103H154.286V63.1014Z" fill="#455A64"/>
<path d="M152.554 18.8767H151.487V20.5854H152.554V18.8767Z" fill="#455A64"/>
<path d="M152.554 22.8561H151.487V24.5647H152.554V22.8561Z" fill="#455A64"/>
<path d="M152.554 26.8804H151.487V28.589H152.554V26.8804Z" fill="#455A64"/>
<path d="M152.554 30.905H151.487V32.6137H152.554V30.905Z" fill="#455A64"/>
<path d="M152.554 34.9296H151.487V36.6382H152.554V34.9296Z" fill="#455A64"/>
<path d="M152.554 38.9542H151.487V40.6629H152.554V38.9542Z" fill="#455A64"/>
<path d="M152.554 42.9788H151.487V44.6874H152.554V42.9788Z" fill="#455A64"/>
<path d="M152.554 47.0033H151.487V48.7122H152.554V47.0033Z" fill="#455A64"/>
<path d="M152.554 51.028H151.487V52.7366H152.554V51.028Z" fill="#455A64"/>
<path d="M152.554 55.0522H151.487V56.7609H152.554V55.0522Z" fill="#455A64"/>
<path d="M152.554 59.0769H151.487V60.7856H152.554V59.0769Z" fill="#455A64"/>
<path d="M152.554 63.1014H151.487V64.8103H152.554V63.1014Z" fill="#455A64"/>
<path d="M161.039 49.4655C163.403 49.4655 165.32 49.4407 165.32 49.4101C165.32 49.3795 163.403 49.3547 161.039 49.3547C158.675 49.3547 156.759 49.3795 156.759 49.4101C156.759 49.4407 158.675 49.4655 161.039 49.4655Z" fill="white"/>
<path d="M168.998 49.4655C170.073 49.4655 170.944 49.4407 170.944 49.4101C170.944 49.3795 170.073 49.3547 168.998 49.3547C167.924 49.3547 167.053 49.3795 167.053 49.4101C167.053 49.4407 167.924 49.4655 168.998 49.4655Z" fill="white"/>
<path d="M161.039 53.5937C163.403 53.5937 165.32 53.5689 165.32 53.5383C165.32 53.5077 163.403 53.4829 161.039 53.4829C158.675 53.4829 156.759 53.5077 156.759 53.5383C156.759 53.5689 158.675 53.5937 161.039 53.5937Z" fill="white"/>
<path d="M168.998 53.5937C170.073 53.5937 170.944 53.5689 170.944 53.5383C170.944 53.5077 170.073 53.4829 168.998 53.4829C167.924 53.4829 167.053 53.5077 167.053 53.5383C167.053 53.5689 167.924 53.5937 168.998 53.5937Z" fill="white"/>
<path d="M161.039 57.7218C163.403 57.7218 165.32 57.697 165.32 57.6665C165.32 57.6359 163.403 57.6111 161.039 57.6111C158.675 57.6111 156.759 57.6359 156.759 57.6665C156.759 57.697 158.675 57.7218 161.039 57.7218Z" fill="white"/>
<path d="M168.998 57.7218C170.073 57.7218 170.944 57.697 170.944 57.6665C170.944 57.6359 170.073 57.6111 168.998 57.6111C167.924 57.6111 167.053 57.6359 167.053 57.6665C167.053 57.697 167.924 57.7218 168.998 57.7218Z" fill="white"/>
<path d="M161.039 61.8499C163.403 61.8499 165.32 61.8251 165.32 61.7945C165.32 61.7639 163.403 61.7391 161.039 61.7391C158.675 61.7391 156.759 61.7639 156.759 61.7945C156.759 61.8251 158.675 61.8499 161.039 61.8499Z" fill="white"/>
<path d="M168.998 61.8499C170.073 61.8499 170.944 61.8251 170.944 61.7945C170.944 61.7639 170.073 61.7391 168.998 61.7391C167.924 61.7391 167.053 61.7639 167.053 61.7945C167.053 61.8251 167.924 61.8499 168.998 61.8499Z" fill="white"/>
<path d="M161.039 65.9778C163.403 65.9778 165.32 65.953 165.32 65.9224C165.32 65.8919 163.403 65.8671 161.039 65.8671C158.675 65.8671 156.759 65.8919 156.759 65.9224C156.759 65.953 158.675 65.9778 161.039 65.9778Z" fill="white"/>
<path d="M168.998 65.9778C170.073 65.9778 170.944 65.953 170.944 65.9224C170.944 65.8919 170.073 65.8671 168.998 65.8671C167.924 65.8671 167.053 65.8919 167.053 65.9224C167.053 65.953 167.924 65.9778 168.998 65.9778Z" fill="white"/>
<path d="M161.039 70.106C163.403 70.106 165.32 70.0812 165.32 70.0506C165.32 70.02 163.403 69.9952 161.039 69.9952C158.675 69.9952 156.759 70.02 156.759 70.0506C156.759 70.0812 158.675 70.106 161.039 70.106Z" fill="white"/>
<path d="M168.998 70.106C170.073 70.106 170.944 70.0812 170.944 70.0506C170.944 70.02 170.073 69.9952 168.998 69.9952C167.924 69.9952 167.053 70.02 167.053 70.0506C167.053 70.0812 167.924 70.106 168.998 70.106Z" fill="white"/>
<path d="M161.039 33.1722C163.403 33.1722 165.32 33.1475 165.32 33.1171C165.32 33.0866 163.403 33.0619 161.039 33.0619C158.675 33.0619 156.759 33.0866 156.759 33.1171C156.759 33.1475 158.675 33.1722 161.039 33.1722Z" fill="white"/>
<path d="M161.039 29.0408C163.403 29.0408 165.32 29.016 165.32 28.9854C165.32 28.9548 163.403 28.9301 161.039 28.9301C158.675 28.9301 156.759 28.9548 156.759 28.9854C156.759 29.016 158.675 29.0408 161.039 29.0408Z" fill="white"/>
<path d="M161.039 24.9095C163.403 24.9095 165.32 24.8847 165.32 24.8541C165.32 24.8235 163.403 24.7987 161.039 24.7987C158.675 24.7987 156.759 24.8235 156.759 24.8541C156.759 24.8847 158.675 24.9095 161.039 24.9095Z" fill="white"/>
<path d="M161.039 37.2106C163.403 37.2106 165.32 37.1859 165.32 37.1554C165.32 37.1249 163.403 37.1002 161.039 37.1002C158.675 37.1002 156.759 37.1249 156.759 37.1554C156.759 37.1859 158.675 37.2106 161.039 37.2106Z" fill="white"/>
<path d="M161.039 41.249C163.403 41.249 165.32 41.2243 165.32 41.1938C165.32 41.1634 163.403 41.1387 161.039 41.1387C158.675 41.1387 156.759 41.1634 156.759 41.1938C156.759 41.2243 158.675 41.249 161.039 41.249Z" fill="white"/>
<path d="M161.039 45.2873C163.403 45.2873 165.32 45.2625 165.32 45.2319C165.32 45.2013 163.403 45.1765 161.039 45.1765C158.675 45.1765 156.759 45.2013 156.759 45.2319C156.759 45.2625 158.675 45.2873 161.039 45.2873Z" fill="white"/>
<path d="M160.891 20.8611C163.245 20.8611 165.153 20.8363 165.153 20.8057C165.153 20.7752 163.245 20.7504 160.891 20.7504C158.538 20.7504 156.63 20.7752 156.63 20.8057C156.63 20.8363 158.538 20.8611 160.891 20.8611Z" fill="white"/>
<path d="M168.998 20.8611C170.073 20.8611 170.944 20.8363 170.944 20.8057C170.944 20.7752 170.073 20.7504 168.998 20.7504C167.924 20.7504 167.053 20.7752 167.053 20.8057C167.053 20.8363 167.924 20.8611 168.998 20.8611Z" fill="white"/>
<path d="M168.998 24.9093C170.073 24.9093 170.944 24.8846 170.944 24.8541C170.944 24.8236 170.073 24.799 168.998 24.799C167.924 24.799 167.053 24.8236 167.053 24.8541C167.053 24.8846 167.924 24.9093 168.998 24.9093Z" fill="white"/>
<path d="M168.998 28.958C170.073 28.958 170.944 28.9333 170.944 28.9027C170.944 28.8721 170.073 28.8473 168.998 28.8473C167.924 28.8473 167.053 28.8721 167.053 28.9027C167.053 28.9333 167.924 28.958 168.998 28.958Z" fill="white"/>
<path d="M168.998 33.1722C170.073 33.1722 170.944 33.1475 170.944 33.1171C170.944 33.0866 170.073 33.0619 168.998 33.0619C167.924 33.0619 167.053 33.0866 167.053 33.1171C167.053 33.1475 167.924 33.1722 168.998 33.1722Z" fill="white"/>
<path d="M168.998 37.2106C170.073 37.2106 170.944 37.1859 170.944 37.1554C170.944 37.1249 170.073 37.1002 168.998 37.1002C167.924 37.1002 167.053 37.1249 167.053 37.1554C167.053 37.1859 167.924 37.2106 168.998 37.2106Z" fill="white"/>
<path d="M168.998 41.2638C170.073 41.2638 170.944 41.239 170.944 41.2085C170.944 41.1779 170.073 41.1531 168.998 41.1531C167.924 41.1531 167.053 41.1779 167.053 41.2085C167.053 41.239 167.924 41.2638 168.998 41.2638Z" fill="white"/>
<path d="M168.998 45.3171C170.073 45.3171 170.944 45.2924 170.944 45.262C170.944 45.2315 170.073 45.2068 168.998 45.2068C167.924 45.2068 167.053 45.2315 167.053 45.262C167.053 45.2924 167.924 45.3171 168.998 45.3171Z" fill="white"/>
<path d="M145.933 38.2533H123.053V94.1552H145.933V38.2533Z" fill="#FFC658"/>
<path d="M133.988 40.5499H132.197V91.9319H133.988V40.5499Z" fill="#455A64"/>
<path d="M136.509 40.5499H134.718V91.9319H136.509V40.5499Z" fill="#455A64"/>
<path d="M139.03 40.5499H137.239V91.9319H139.03V40.5499Z" fill="#455A64"/>
<path d="M126.404 40.5499H124.613V91.9319H126.404V40.5499Z" fill="#455A64"/>
<path d="M128.925 40.5499H127.134V91.9319H128.925V40.5499Z" fill="#455A64"/>
<path d="M141.551 40.5499H139.76V91.9319H141.551V40.5499Z" fill="#455A64"/>
<path d="M144.072 40.5499H142.281V91.9319H144.072V40.5499Z" fill="#455A64"/>
<g opacity="0.3">
<path d="M130.39 38.2533H123.053V94.1552H130.39V38.2533Z" fill="black"/>
</g>
<path d="M138.317 46.832C138.625 46.5238 138.858 46.2565 138.836 46.2349C138.815 46.2134 138.547 46.4458 138.239 46.754C137.931 47.0623 137.699 47.3296 137.72 47.3511C137.742 47.3727 138.009 47.1403 138.317 46.832Z" fill="white"/>
<path d="M140.711 48.1602C140.929 47.9516 141.088 47.7647 141.067 47.7426C141.046 47.7205 140.852 47.8717 140.635 48.0803C140.417 48.2888 140.258 48.4758 140.279 48.4979C140.3 48.5199 140.494 48.3688 140.711 48.1602Z" fill="white"/>
<path d="M142.99 44.9579C143.198 44.7584 143.35 44.5789 143.329 44.5568C143.308 44.5347 143.121 44.6784 142.913 44.8778C142.704 45.0772 142.553 45.2568 142.574 45.2789C142.595 45.301 142.781 45.1573 142.99 44.9579Z" fill="white"/>
<path d="M188.511 30.6957H176.964V33.7533H188.511V30.6957Z" fill="#263238"/>
<path d="M188.025 31.0803H177.45V33.0606H188.025V31.0803Z" fill="#455A64"/>
<g opacity="0.3">
<path d="M188.025 31.0803H177.45V33.0606H188.025V31.0803Z" fill="white"/>
</g>
<path d="M190.034 33.3044H175.2V70.8759H190.034V33.3044Z" fill="#263238"/>
<path d="M189.146 34.1741H175.996V70.876H189.146V34.1741Z" fill="#455A64"/>
<g opacity="0.3">
<path d="M175.996 51.3862H178.66V47.2479H180.805V43.903H185.094V54.4517H187.24V39.4942H189.146V34.1741H175.996V51.3862Z" fill="white"/>
</g>
<path d="M189.752 38.0353C189.752 38.0658 186.599 38.0906 182.711 38.0906C178.822 38.0906 175.67 38.0658 175.67 38.0353C175.67 38.0047 178.822 37.9801 182.711 37.9801C186.599 37.9801 189.752 38.0049 189.752 38.0353Z" fill="#263238"/>
<path d="M189.752 41.8009C189.752 41.8314 186.599 41.8561 182.711 41.8561C178.822 41.8561 175.67 41.8312 175.67 41.8009C175.67 41.7703 178.822 41.7457 182.711 41.7457C186.599 41.7457 189.752 41.7703 189.752 41.8009Z" fill="#263238"/>
<path d="M189.752 45.566C189.752 45.5966 186.599 45.6212 182.711 45.6212C178.822 45.6212 175.67 45.5966 175.67 45.566C175.67 45.5354 178.822 45.5106 182.711 45.5106C186.599 45.5108 189.752 45.5357 189.752 45.566Z" fill="#263238"/>
<path d="M189.752 49.3315C189.752 49.3621 186.599 49.3869 182.711 49.3869C178.822 49.3869 175.67 49.3621 175.67 49.3315C175.67 49.301 178.822 49.2761 182.711 49.2761C186.599 49.2761 189.752 49.301 189.752 49.3315Z" fill="#263238"/>
<path d="M189.752 53.0969C189.752 53.1277 186.599 53.1523 182.711 53.1523C178.822 53.1523 175.67 53.1277 175.67 53.0969C175.67 53.0664 178.822 53.0417 182.711 53.0417C186.599 53.0417 189.752 53.0664 189.752 53.0969Z" fill="#263238"/>
<path d="M189.752 56.8619C189.752 56.8927 186.599 56.9173 182.711 56.9173C178.822 56.9173 175.67 56.8927 175.67 56.8619C175.67 56.8314 178.822 56.8068 182.711 56.8068C186.599 56.8068 189.752 56.8314 189.752 56.8619Z" fill="#263238"/>
<path d="M189.752 60.6275C189.752 60.6581 186.599 60.6827 182.711 60.6827C178.822 60.6827 175.67 60.6581 175.67 60.6275C175.67 60.597 178.822 60.5721 182.711 60.5721C186.599 60.5721 189.752 60.597 189.752 60.6275Z" fill="#263238"/>
<path d="M189.752 64.3927C189.752 64.4232 186.599 64.448 182.711 64.448C178.822 64.448 175.67 64.4232 175.67 64.3927C175.67 64.3621 178.822 64.3373 182.711 64.3373C186.599 64.3373 189.752 64.3621 189.752 64.3927Z" fill="#263238"/>
<path d="M189.752 68.1581C189.752 68.1888 186.599 68.2135 182.711 68.2135C178.822 68.2135 175.67 68.1888 175.67 68.1581C175.67 68.1275 178.822 68.1029 182.711 68.1029C186.599 68.1029 189.752 68.1275 189.752 68.1581Z" fill="#263238"/>
<path d="M178.989 71.6593C178.959 71.6593 178.934 62.539 178.934 51.2907C178.934 40.0384 178.959 30.9199 178.989 30.9199C179.02 30.9199 179.045 40.0386 179.045 51.2907C179.045 62.539 179.02 71.6593 178.989 71.6593Z" fill="#263238"/>
<path d="M182.806 71.6593C182.775 71.6593 182.751 62.539 182.751 51.2907C182.751 40.0384 182.775 30.9199 182.806 30.9199C182.837 30.9199 182.861 40.0386 182.861 51.2907C182.861 62.539 182.837 71.6593 182.806 71.6593Z" fill="#263238"/>
<path d="M186.623 71.6593C186.592 71.6593 186.567 62.539 186.567 51.2907C186.567 40.0384 186.592 30.9199 186.623 30.9199C186.653 30.9199 186.678 40.0386 186.678 51.2907C186.678 62.539 186.653 71.6593 186.623 71.6593Z" fill="#263238"/>
<path d="M176.964 30.6956H175.294V33.3045H176.964V30.6956Z" fill="#263238"/>
<g opacity="0.3">
<path d="M176.964 30.6956H175.294V33.3045H176.964V30.6956Z" fill="black"/>
</g>
<path d="M175.273 33.3281H173.602V64.948H175.273V33.3281Z" fill="#263238"/>
<g opacity="0.3">
<path d="M175.273 33.3281H173.602V64.948H175.273V33.3281Z" fill="black"/>
</g>
<path d="M181.165 39.8204C181.788 39.2336 182.276 38.7398 182.255 38.7175C182.234 38.6953 181.712 39.1529 181.089 39.7397C180.466 40.3265 179.978 40.8203 179.999 40.8426C180.02 40.8648 180.542 40.4072 181.165 39.8204Z" fill="white"/>
<path d="M184.698 39.7537C185.321 39.1669 185.809 38.6732 185.788 38.6509C185.767 38.6286 185.245 39.0863 184.622 39.6731C183.999 40.2599 183.511 40.7536 183.532 40.7759C183.553 40.7982 184.075 40.3405 184.698 39.7537Z" fill="white"/>
<path d="M184.757 36.7607C185.38 36.1739 185.868 35.6802 185.847 35.6581C185.826 35.6359 185.304 36.0936 184.682 36.6804C184.059 37.2672 183.571 37.7609 183.591 37.7831C183.612 37.8053 184.134 37.3475 184.757 36.7607Z" fill="white"/>
<path d="M214.426 84.7805H194.76V49.7633L214.426 40.181V84.7805Z" fill="#455A64"/>
<path d="M198.777 50.5966H198.158V53.1382H198.777V50.5966Z" fill="#263238"/>
<path d="M198.865 53.1384H197.733V53.5216H198.865V53.1384Z" fill="white"/>
<path d="M198.777 55.4391H198.158V57.9807H198.777V55.4391Z" fill="#263238"/>
<path d="M198.865 57.981H197.733V58.3641H198.865V57.981Z" fill="white"/>
<path d="M198.777 60.2816H198.158V62.8233H198.777V60.2816Z" fill="#263238"/>
<path d="M198.865 62.8232H197.733V63.2064H198.865V62.8232Z" fill="white"/>
<path d="M198.777 65.1241H198.158V67.666H198.777V65.1241Z" fill="#263238"/>
<path d="M198.865 67.6661H197.733V68.0491H198.865V67.6661Z" fill="white"/>
<path d="M198.839 69.8409H198.219V72.3826H198.839V69.8409Z" fill="#263238"/>
<path d="M198.926 72.3826H197.795V72.7655H198.926V72.3826Z" fill="white"/>
<path d="M198.9 74.5568H198.28V77.0984H198.9V74.5568Z" fill="#263238"/>
<path d="M196.883 50.5966H196.263V53.1382H196.883V50.5966Z" fill="#263238"/>
<path d="M196.97 53.1384H195.838V53.5216H196.97V53.1384Z" fill="white"/>
<path d="M196.883 55.4391H196.263V57.9807H196.883V55.4391Z" fill="#263238"/>
<path d="M196.97 57.981H195.838V58.3641H196.97V57.981Z" fill="white"/>
<path d="M196.883 60.2816H196.263V62.8233H196.883V60.2816Z" fill="#263238"/>
<path d="M196.97 62.8232H195.838V63.2064H196.97V62.8232Z" fill="white"/>
<path d="M196.883 65.1241H196.263V67.666H196.883V65.1241Z" fill="#263238"/>
<path d="M196.97 67.6661H195.838V68.0491H196.97V67.6661Z" fill="white"/>
<path d="M196.944 69.8409H196.324V72.3826H196.944V69.8409Z" fill="#263238"/>
<path d="M197.031 72.3826H195.9V72.7655H197.031V72.3826Z" fill="white"/>
<path d="M197.006 74.5568H196.386V77.0984H197.006V74.5568Z" fill="#263238"/>
<g opacity="0.3">
<path d="M200.326 84.8006H194.761V49.7632L200.454 46.9888L200.326 84.8006Z" fill="black"/>
</g>
<path d="M163.98 48.9467H147.174V94.2355H163.98V48.9467Z" fill="#E0E0E0"/>
<path d="M154.808 50.67H153.704V52.2565H154.808V50.67Z" fill="#455A64"/>
<g opacity="0.3">
<path d="M153.704 50.67V50.8669H154.622V52.2565H154.808V50.67H153.704Z" fill="black"/>
</g>
<path d="M156.501 50.67H155.397V52.2565H156.501V50.67Z" fill="#455A64"/>
<g opacity="0.3">
<path d="M155.397 50.67V50.8669H156.315V52.2565H156.501V50.67H155.397Z" fill="black"/>
</g>
<path d="M158.195 50.67H157.091V52.2565H158.195V50.67Z" fill="#455A64"/>
<g opacity="0.3">
<path d="M157.091 50.67V50.8669H158.009V52.2565H158.195V50.67H157.091Z" fill="black"/>
</g>
<path d="M159.888 50.67H158.784V52.2565H159.888V50.67Z" fill="#455A64"/>
<g opacity="0.3">
<path d="M158.784 50.67V50.8669H159.702V52.2565H159.888V50.67H158.784Z" fill="black"/>
</g>
<path d="M161.581 50.67H160.477V52.2565H161.581V50.67Z" fill="#455A64"/>
<g opacity="0.3">
<path d="M160.477 50.67V50.8669H161.395V52.2565H161.581V50.67H160.477Z" fill="black"/>
</g>
<path d="M163.275 50.67H162.171V52.2565H163.275V50.67Z" fill="#455A64"/>
<g opacity="0.3">
<path d="M162.171 50.67V50.8669H163.089V52.2565H163.275V50.67H162.171Z" fill="black"/>
</g>
<path d="M148.983 50.67H147.879V52.2565H148.983V50.67Z" fill="#455A64"/>
<g opacity="0.3">
<path d="M147.879 50.67V50.8669H148.796V52.2565H148.983V50.67H147.879Z" fill="black"/>
</g>
<path d="M150.676 50.67H149.572V52.2565H150.676V50.67Z" fill="#455A64"/>
<g opacity="0.3">
<path d="M149.572 50.67V50.8669H150.49V52.2565H150.676V50.67H149.572Z" fill="black"/>
</g>
<path d="M152.37 50.67H151.266V52.2565H152.37V50.67Z" fill="#455A64"/>
<g opacity="0.3">
<path d="M151.266 50.67V50.8669H152.183V52.2565H152.37V50.67H151.266Z" fill="black"/>
</g>
<path d="M154.808 53.0254H153.704V54.6116H154.808V53.0254Z" fill="#455A64"/>
<g opacity="0.3">
<path d="M153.704 53.0254V53.2219H154.622V54.6114H154.808V53.0254H153.704Z" fill="black"/>
</g>
<path d="M156.501 53.0254H155.397V54.6116H156.501V53.0254Z" fill="#455A64"/>
<g opacity="0.3">
<path d="M155.397 53.0254V53.2219H156.315V54.6114H156.501V53.0254H155.397Z" fill="black"/>
</g>
<path d="M158.195 53.0254H157.091V54.6116H158.195V53.0254Z" fill="#455A64"/>
<g opacity="0.3">
<path d="M157.091 53.0254V53.2219H158.009V54.6114H158.195V53.0254H157.091Z" fill="black"/>
</g>
<path d="M159.888 53.0254H158.784V54.6116H159.888V53.0254Z" fill="#455A64"/>
<g opacity="0.3">
<path d="M158.784 53.0254V53.2219H159.702V54.6114H159.888V53.0254H158.784Z" fill="black"/>
</g>
<path d="M161.581 53.0254H160.477V54.6116H161.581V53.0254Z" fill="#455A64"/>
<g opacity="0.3">
<path d="M160.477 53.0254V53.2219H161.395V54.6114H161.581V53.0254H160.477Z" fill="black"/>
</g>
<path d="M163.275 53.0254H162.171V54.6116H163.275V53.0254Z" fill="#455A64"/>
<g opacity="0.3">
<path d="M162.171 53.0254V53.2219H163.089V54.6114H163.275V53.0254H162.171Z" fill="black"/>
</g>
<path d="M148.983 53.0254H147.879V54.6116H148.983V53.0254Z" fill="#455A64"/>
<g opacity="0.3">
<path d="M147.879 53.0254V53.2219H148.796V54.6114H148.983V53.0254H147.879Z" fill="black"/>
</g>
<path d="M150.676 53.0254H149.572V54.6116H150.676V53.0254Z" fill="#455A64"/>
<g opacity="0.3">
<path d="M149.572 53.0254V53.2219H150.49V54.6114H150.676V53.0254H149.572Z" fill="black"/>
</g>
<path d="M152.37 53.0254H151.266V54.6116H152.37V53.0254Z" fill="#455A64"/>
<g opacity="0.3">
<path d="M151.266 53.0254V53.2219H152.183V54.6114H152.37V53.0254H151.266Z" fill="black"/>
</g>
<path d="M154.808 55.3802H153.704V56.9665H154.808V55.3802Z" fill="#455A64"/>
<g opacity="0.3">
<path d="M153.704 55.3802V55.5769H154.622V56.9665H154.808V55.3802H153.704Z" fill="black"/>
</g>
<path d="M156.501 55.3802H155.397V56.9665H156.501V55.3802Z" fill="#455A64"/>
<g opacity="0.3">
<path d="M155.397 55.3802V55.5769H156.315V56.9665H156.501V55.3802H155.397Z" fill="black"/>
</g>
<path d="M158.195 55.3802H157.091V56.9665H158.195V55.3802Z" fill="#455A64"/>
<g opacity="0.3">
<path d="M157.091 55.3802V55.5769H158.009V56.9665H158.195V55.3802H157.091Z" fill="black"/>
</g>
<path d="M159.888 55.3802H158.784V56.9665H159.888V55.3802Z" fill="#455A64"/>
<g opacity="0.3">
<path d="M158.784 55.3802V55.5769H159.702V56.9665H159.888V55.3802H158.784Z" fill="black"/>
</g>
<path d="M161.581 55.3802H160.477V56.9665H161.581V55.3802Z" fill="#455A64"/>
<g opacity="0.3">
<path d="M160.477 55.3802V55.5769H161.395V56.9665H161.581V55.3802H160.477Z" fill="black"/>
</g>
<path d="M163.275 55.3802H162.171V56.9665H163.275V55.3802Z" fill="#455A64"/>
<g opacity="0.3">
<path d="M162.171 55.3802V55.5769H163.089V56.9665H163.275V55.3802H162.171Z" fill="black"/>
</g>
<path d="M148.983 55.3802H147.879V56.9665H148.983V55.3802Z" fill="#455A64"/>
<g opacity="0.3">
<path d="M147.879 55.3802V55.5769H148.796V56.9665H148.983V55.3802H147.879Z" fill="black"/>
</g>
<path d="M150.676 55.3802H149.572V56.9665H150.676V55.3802Z" fill="#455A64"/>
<g opacity="0.3">
<path d="M149.572 55.3802V55.5769H150.49V56.9665H150.676V55.3802H149.572Z" fill="black"/>
</g>
<path d="M152.37 55.3802H151.266V56.9665H152.37V55.3802Z" fill="#455A64"/>
<g opacity="0.3">
<path d="M151.266 55.3802V55.5769H152.183V56.9665H152.37V55.3802H151.266Z" fill="black"/>
</g>
<g opacity="0.4">
<path d="M148.983 50.67H147.879V52.2565H148.983V50.67Z" fill="white"/>
<g opacity="0.3">
<path d="M147.879 50.67V50.8669H148.796V52.2565H148.983V50.67H147.879Z" fill="white"/>
</g>
</g>
<g opacity="0.4">
<path d="M150.676 50.67H149.572V52.2565H150.676V50.67Z" fill="white"/>
<g opacity="0.3">
<path d="M149.572 50.67V50.8669H150.49V52.2565H150.676V50.67H149.572Z" fill="white"/>
</g>
</g>
<g opacity="0.4">
<path d="M152.37 50.67H151.266V52.2565H152.37V50.67Z" fill="white"/>
<g opacity="0.3">
<path d="M151.266 50.67V50.8669H152.183V52.2565H152.37V50.67H151.266Z" fill="white"/>
</g>
</g>
<g opacity="0.4">
<path d="M148.983 53.0254H147.879V54.6116H148.983V53.0254Z" fill="white"/>
<g opacity="0.3">
<path d="M147.879 53.0254V53.2219H148.796V54.6114H148.983V53.0254H147.879Z" fill="white"/>
</g>
</g>
<g opacity="0.4">
<path d="M150.676 53.0254H149.572V54.6116H150.676V53.0254Z" fill="white"/>
<g opacity="0.3">
<path d="M149.572 53.0254V53.2219H150.49V54.6114H150.676V53.0254H149.572Z" fill="white"/>
</g>
</g>
<g opacity="0.4">
<path d="M152.37 53.0254H151.266V54.6116H152.37V53.0254Z" fill="white"/>
<g opacity="0.3">
<path d="M151.266 53.0254V53.2219H152.183V54.6114H152.37V53.0254H151.266Z" fill="white"/>
</g>
</g>
<g opacity="0.4">
<path d="M148.983 55.3802H147.879V56.9665H148.983V55.3802Z" fill="white"/>
<g opacity="0.3">
<path d="M147.879 55.3802V55.5769H148.796V56.9665H148.983V55.3802H147.879Z" fill="white"/>
</g>
</g>
<g opacity="0.4">
<path d="M152.37 55.3802H151.266V56.9665H152.37V55.3802Z" fill="white"/>
<g opacity="0.3">
<path d="M151.266 55.3802V55.5769H152.183V56.9665H152.37V55.3802H151.266Z" fill="white"/>
</g>
</g>
<path d="M154.808 57.7357H153.704V59.3219H154.808V57.7357Z" fill="#455A64"/>
<g opacity="0.3">
<path d="M153.704 57.7357V57.9324H154.622V59.3217H154.808V57.7357H153.704Z" fill="black"/>
</g>
<path d="M156.501 57.7357H155.397V59.3219H156.501V57.7357Z" fill="#455A64"/>
<g opacity="0.3">
<path d="M155.397 57.7357V57.9324H156.315V59.3217H156.501V57.7357H155.397Z" fill="black"/>
</g>
<path d="M158.195 57.7357H157.091V59.3219H158.195V57.7357Z" fill="#455A64"/>
<g opacity="0.3">
<path d="M157.091 57.7357V57.9324H158.009V59.3217H158.195V57.7357H157.091Z" fill="black"/>
</g>
<path d="M159.888 57.7357H158.784V59.3219H159.888V57.7357Z" fill="#455A64"/>
<g opacity="0.3">
<path d="M158.784 57.7357V57.9324H159.702V59.3217H159.888V57.7357H158.784Z" fill="black"/>
</g>
<path d="M161.581 57.7357H160.477V59.3219H161.581V57.7357Z" fill="#455A64"/>
<g opacity="0.3">
<path d="M160.477 57.7357V57.9324H161.395V59.3217H161.581V57.7357H160.477Z" fill="black"/>
</g>
<path d="M163.275 57.7357H162.171V59.3219H163.275V57.7357Z" fill="#455A64"/>
<g opacity="0.3">
<path d="M162.171 57.7357V57.9324H163.089V59.3217H163.275V57.7357H162.171Z" fill="black"/>
</g>
<path d="M148.983 57.7357H147.879V59.3219H148.983V57.7357Z" fill="#455A64"/>
<g opacity="0.3">
<path d="M147.879 57.7357V57.9324H148.796V59.3217H148.983V57.7357H147.879Z" fill="black"/>
</g>
<path d="M150.676 57.7357H149.572V59.3219H150.676V57.7357Z" fill="#455A64"/>
<g opacity="0.3">
<path d="M149.572 57.7357V57.9324H150.49V59.3217H150.676V57.7357H149.572Z" fill="black"/>
</g>
<path d="M152.37 57.7357H151.266V59.3219H152.37V57.7357Z" fill="#455A64"/>
<g opacity="0.3">
<path d="M151.266 57.7357V57.9324H152.183V59.3217H152.37V57.7357H151.266Z" fill="black"/>
</g>
<path d="M154.808 60.0908H153.704V61.677H154.808V60.0908Z" fill="#455A64"/>
<g opacity="0.3">
<path d="M153.704 60.0908V60.2873H154.622V61.6768H154.808V60.0908H153.704Z" fill="black"/>
</g>
<path d="M156.501 60.0908H155.397V61.677H156.501V60.0908Z" fill="#455A64"/>
<g opacity="0.3">
<path d="M155.397 60.0908V60.2873H156.315V61.6768H156.501V60.0908H155.397Z" fill="black"/>
</g>
<path d="M158.195 60.0908H157.091V61.677H158.195V60.0908Z" fill="#455A64"/>
<g opacity="0.3">
<path d="M157.091 60.0908V60.2873H158.009V61.6768H158.195V60.0908H157.091Z" fill="black"/>
</g>
<path d="M159.888 60.0908H158.784V61.677H159.888V60.0908Z" fill="#455A64"/>
<g opacity="0.3">
<path d="M158.784 60.0908V60.2873H159.702V61.6768H159.888V60.0908H158.784Z" fill="black"/>
</g>
<path d="M161.581 60.0908H160.477V61.677H161.581V60.0908Z" fill="#455A64"/>
<g opacity="0.3">
<path d="M160.477 60.0908V60.2873H161.395V61.6768H161.581V60.0908H160.477Z" fill="black"/>
</g>
<path d="M163.275 60.0908H162.171V61.677H163.275V60.0908Z" fill="#455A64"/>
<g opacity="0.3">
<path d="M162.171 60.0908V60.2873H163.089V61.6768H163.275V60.0908H162.171Z" fill="black"/>
</g>
<path d="M148.983 60.0908H147.879V61.677H148.983V60.0908Z" fill="#455A64"/>
<g opacity="0.3">
<path d="M147.879 60.0908V60.2873H148.796V61.6768H148.983V60.0908H147.879Z" fill="black"/>
</g>
<path d="M150.676 60.0908H149.572V61.677H150.676V60.0908Z" fill="#455A64"/>
<g opacity="0.3">
<path d="M149.572 60.0908V60.2873H150.49V61.6768H150.676V60.0908H149.572Z" fill="black"/>
</g>
<path d="M152.37 60.0908H151.266V61.677H152.37V60.0908Z" fill="#455A64"/>
<g opacity="0.3">
<path d="M151.266 60.0908V60.2873H152.183V61.6768H152.37V60.0908H151.266Z" fill="black"/>
</g>
<path d="M154.808 62.4457H153.704V64.0321H154.808V62.4457Z" fill="#455A64"/>
<g opacity="0.3">
<path d="M153.704 62.4457V62.6426H154.622V64.0321H154.808V62.4457H153.704Z" fill="black"/>
</g>
<path d="M156.501 62.4457H155.397V64.0321H156.501V62.4457Z" fill="#455A64"/>
<g opacity="0.3">
<path d="M155.397 62.4457V62.6426H156.315V64.0321H156.501V62.4457H155.397Z" fill="black"/>
</g>
<path d="M158.195 62.4457H157.091V64.0321H158.195V62.4457Z" fill="#455A64"/>
<g opacity="0.3">
<path d="M157.091 62.4457V62.6426H158.009V64.0321H158.195V62.4457H157.091Z" fill="black"/>
</g>
<path d="M159.888 62.4457H158.784V64.0321H159.888V62.4457Z" fill="#455A64"/>
<g opacity="0.3">
<path d="M158.784 62.4457V62.6426H159.702V64.0321H159.888V62.4457H158.784Z" fill="black"/>
</g>
<path d="M161.581 62.4457H160.477V64.0321H161.581V62.4457Z" fill="#455A64"/>
<g opacity="0.3">
<path d="M160.477 62.4457V62.6426H161.395V64.0321H161.581V62.4457H160.477Z" fill="black"/>
</g>
<path d="M163.275 62.4457H162.171V64.0321H163.275V62.4457Z" fill="#455A64"/>
<g opacity="0.3">
<path d="M162.171 62.4457V62.6426H163.089V64.0321H163.275V62.4457H162.171Z" fill="black"/>
</g>
<path d="M148.983 62.4457H147.879V64.0321H148.983V62.4457Z" fill="#455A64"/>
<g opacity="0.3">
<path d="M147.879 62.4457V62.6426H148.796V64.0321H148.983V62.4457H147.879Z" fill="black"/>
</g>
<path d="M150.676 62.4457H149.572V64.0321H150.676V62.4457Z" fill="#455A64"/>
<g opacity="0.3">
<path d="M149.572 62.4457V62.6426H150.49V64.0321H150.676V62.4457H149.572Z" fill="black"/>
</g>
<path d="M152.37 62.4457H151.266V64.0321H152.37V62.4457Z" fill="#455A64"/>
<g opacity="0.3">
<path d="M151.266 62.4457V62.6426H152.183V64.0321H152.37V62.4457H151.266Z" fill="black"/>
</g>
<path d="M154.808 65.9274H153.704V67.5136H154.808V65.9274Z" fill="#455A64"/>
<g opacity="0.3">
<path d="M153.704 65.9274V66.1241H154.622V67.5136H154.808V65.9274H153.704Z" fill="black"/>
</g>
<path d="M156.501 65.9274H155.397V67.5136H156.501V65.9274Z" fill="#455A64"/>
<g opacity="0.3">
<path d="M155.397 65.9274V66.1241H156.315V67.5136H156.501V65.9274H155.397Z" fill="black"/>
</g>
<path d="M158.195 65.9274H157.091V67.5136H158.195V65.9274Z" fill="#455A64"/>
<g opacity="0.3">
<path d="M157.091 65.9274V66.1241H158.009V67.5136H158.195V65.9274H157.091Z" fill="black"/>
</g>
<path d="M159.888 65.9274H158.784V67.5136H159.888V65.9274Z" fill="#455A64"/>
<g opacity="0.3">
<path d="M158.784 65.9274V66.1241H159.702V67.5136H159.888V65.9274H158.784Z" fill="black"/>
</g>
<path d="M161.581 65.9274H160.477V67.5136H161.581V65.9274Z" fill="#455A64"/>
<g opacity="0.3">
<path d="M160.477 65.9274V66.1241H161.395V67.5136H161.581V65.9274H160.477Z" fill="black"/>
</g>
<path d="M163.275 65.9274H162.171V67.5136H163.275V65.9274Z" fill="#455A64"/>
<g opacity="0.3">
<path d="M162.171 65.9274V66.1241H163.089V67.5136H163.275V65.9274H162.171Z" fill="black"/>
</g>
<path d="M148.983 65.9274H147.879V67.5136H148.983V65.9274Z" fill="#455A64"/>
<g opacity="0.3">
<path d="M147.879 65.9274V66.1241H148.796V67.5136H148.983V65.9274H147.879Z" fill="black"/>
</g>
<path d="M150.676 65.9274H149.572V67.5136H150.676V65.9274Z" fill="#455A64"/>
<g opacity="0.3">
<path d="M149.572 65.9274V66.1241H150.49V67.5136H150.676V65.9274H149.572Z" fill="black"/>
</g>
<path d="M152.37 65.9274H151.266V67.5136H152.37V65.9274Z" fill="#455A64"/>
<g opacity="0.3">
<path d="M151.266 65.9274V66.1241H152.183V67.5136H152.37V65.9274H151.266Z" fill="black"/>
</g>
<path d="M154.808 68.2017H153.704V69.7879H154.808V68.2017Z" fill="#455A64"/>
<g opacity="0.3">
<path d="M153.704 68.2017V68.3983H154.622V69.7879H154.808V68.2017H153.704Z" fill="black"/>
</g>
<path d="M156.501 68.2017H155.397V69.7879H156.501V68.2017Z" fill="#455A64"/>
<g opacity="0.3">
<path d="M155.397 68.2017V68.3983H156.315V69.7879H156.501V68.2017H155.397Z" fill="black"/>
</g>
<path d="M158.195 68.2017H157.091V69.7879H158.195V68.2017Z" fill="#455A64"/>
<g opacity="0.3">
<path d="M157.091 68.2017V68.3983H158.009V69.7879H158.195V68.2017H157.091Z" fill="black"/>
</g>
<path d="M159.888 68.2017H158.784V69.7879H159.888V68.2017Z" fill="#455A64"/>
<g opacity="0.3">
<path d="M158.784 68.2017V68.3983H159.702V69.7879H159.888V68.2017H158.784Z" fill="black"/>
</g>
<path d="M161.581 68.2017H160.477V69.7879H161.581V68.2017Z" fill="#455A64"/>
<g opacity="0.3">
<path d="M160.477 68.2017V68.3983H161.395V69.7879H161.581V68.2017H160.477Z" fill="black"/>
</g>
<path d="M163.275 68.2017H162.171V69.7879H163.275V68.2017Z" fill="#455A64"/>
<g opacity="0.3">
<path d="M162.171 68.2017V68.3983H163.089V69.7879H163.275V68.2017H162.171Z" fill="black"/>
</g>
<path d="M148.983 68.2017H147.879V69.7879H148.983V68.2017Z" fill="#455A64"/>
<g opacity="0.3">
<path d="M147.879 68.2017V68.3983H148.796V69.7879H148.983V68.2017H147.879Z" fill="black"/>
</g>
<path d="M150.676 68.2017H149.572V69.7879H150.676V68.2017Z" fill="#455A64"/>
<g opacity="0.3">
<path d="M149.572 68.2017V68.3983H150.49V69.7879H150.676V68.2017H149.572Z" fill="black"/>
</g>
<path d="M152.37 68.2017H151.266V69.7879H152.37V68.2017Z" fill="#455A64"/>
<g opacity="0.3">
<path d="M151.266 68.2017V68.3983H152.183V69.7879H152.37V68.2017H151.266Z" fill="black"/>
</g>
<path d="M154.808 70.4758H153.704V72.0621H154.808V70.4758Z" fill="#455A64"/>
<g opacity="0.3">
<path d="M153.704 70.4758V70.6725H154.622V72.0618H154.808V70.4758H153.704Z" fill="black"/>
</g>
<path d="M156.501 70.4758H155.397V72.0621H156.501V70.4758Z" fill="#455A64"/>
<g opacity="0.3">
<path d="M155.397 70.4758V70.6725H156.315V72.0618H156.501V70.4758H155.397Z" fill="black"/>
</g>
<path d="M158.195 70.4758H157.091V72.0621H158.195V70.4758Z" fill="#455A64"/>
<g opacity="0.3">
<path d="M157.091 70.4758V70.6725H158.009V72.0618H158.195V70.4758H157.091Z" fill="black"/>
</g>
<path d="M159.888 70.4758H158.784V72.0621H159.888V70.4758Z" fill="#455A64"/>
<g opacity="0.3">
<path d="M158.784 70.4758V70.6725H159.702V72.0618H159.888V70.4758H158.784Z" fill="black"/>
</g>
<path d="M161.581 70.4758H160.477V72.0621H161.581V70.4758Z" fill="#455A64"/>
<g opacity="0.3">
<path d="M160.477 70.4758V70.6725H161.395V72.0618H161.581V70.4758H160.477Z" fill="black"/>
</g>
<path d="M163.275 70.4758H162.171V72.0621H163.275V70.4758Z" fill="#455A64"/>
<g opacity="0.3">
<path d="M162.171 70.4758V70.6725H163.089V72.0618H163.275V70.4758H162.171Z" fill="black"/>
</g>
<path d="M148.983 70.4758H147.879V72.0621H148.983V70.4758Z" fill="#455A64"/>
<g opacity="0.3">
<path d="M147.879 70.4758V70.6725H148.796V72.0618H148.983V70.4758H147.879Z" fill="black"/>
</g>
<path d="M150.676 70.4758H149.572V72.0621H150.676V70.4758Z" fill="#455A64"/>
<g opacity="0.3">
<path d="M149.572 70.4758V70.6725H150.49V72.0618H150.676V70.4758H149.572Z" fill="black"/>
</g>
<path d="M152.37 70.4758H151.266V72.0621H152.37V70.4758Z" fill="#455A64"/>
<g opacity="0.3">
<path d="M151.266 70.4758V70.6725H152.183V72.0618H152.37V70.4758H151.266Z" fill="black"/>
</g>
<path d="M154.808 72.7505H153.704V74.3367H154.808V72.7505Z" fill="#455A64"/>
<g opacity="0.3">
<path d="M153.704 72.7505V72.947H154.622V74.3365H154.808V72.7505H153.704Z" fill="black"/>
</g>
<path d="M156.501 72.7505H155.397V74.3367H156.501V72.7505Z" fill="#455A64"/>
<g opacity="0.3">
<path d="M155.397 72.7505V72.947H156.315V74.3365H156.501V72.7505H155.397Z" fill="black"/>
</g>
<path d="M158.195 72.7505H157.091V74.3367H158.195V72.7505Z" fill="#455A64"/>
<g opacity="0.3">
<path d="M157.091 72.7505V72.947H158.009V74.3365H158.195V72.7505H157.091Z" fill="black"/>
</g>
<path d="M159.888 72.7505H158.784V74.3367H159.888V72.7505Z" fill="#455A64"/>
<g opacity="0.3">
<path d="M158.784 72.7505V72.947H159.702V74.3365H159.888V72.7505H158.784Z" fill="black"/>
</g>
<path d="M161.581 72.7505H160.477V74.3367H161.581V72.7505Z" fill="#455A64"/>
<g opacity="0.3">
<path d="M160.477 72.7505V72.947H161.395V74.3365H161.581V72.7505H160.477Z" fill="black"/>
</g>
<path d="M163.275 72.7505H162.171V74.3367H163.275V72.7505Z" fill="#455A64"/>
<g opacity="0.3">
<path d="M162.171 72.7505V72.947H163.089V74.3365H163.275V72.7505H162.171Z" fill="black"/>
</g>
<path d="M148.983 72.7505H147.879V74.3367H148.983V72.7505Z" fill="#455A64"/>
<g opacity="0.3">
<path d="M147.879 72.7505V72.947H148.796V74.3365H148.983V72.7505H147.879Z" fill="black"/>
</g>
<path d="M150.676 72.7505H149.572V74.3367H150.676V72.7505Z" fill="#455A64"/>
<g opacity="0.3">
<path d="M149.572 72.7505V72.947H150.49V74.3365H150.676V72.7505H149.572Z" fill="black"/>
</g>
<path d="M152.37 72.7505H151.266V74.3367H152.37V72.7505Z" fill="#455A64"/>
<g opacity="0.3">
<path d="M151.266 72.7505V72.947H152.183V74.3365H152.37V72.7505H151.266Z" fill="black"/>
</g>
<g opacity="0.4">
<path d="M154.808 50.67H153.704V52.2565H154.808V50.67Z" fill="white"/>
</g>
<g opacity="0.4">
<path d="M156.501 50.67H155.397V52.2565H156.501V50.67Z" fill="white"/>
</g>
<g opacity="0.4">
<path d="M158.195 50.67H157.091V52.2565H158.195V50.67Z" fill="white"/>
</g>
<g opacity="0.4">
<path d="M159.888 50.67H158.784V52.2565H159.888V50.67Z" fill="white"/>
</g>
<g opacity="0.4">
<path d="M161.581 50.67H160.477V52.2565H161.581V50.67Z" fill="white"/>
</g>
<g opacity="0.4">
<path d="M163.275 50.67H162.171V52.2565H163.275V50.67Z" fill="white"/>
</g>
<g opacity="0.4">
<path d="M154.808 53.0254H153.704V54.6116H154.808V53.0254Z" fill="white"/>
</g>
<g opacity="0.4">
<path d="M156.501 53.0254H155.397V54.6116H156.501V53.0254Z" fill="white"/>
</g>
<g opacity="0.4">
<path d="M158.195 53.0254H157.091V54.6116H158.195V53.0254Z" fill="white"/>
</g>
<g opacity="0.4">
<path d="M159.888 53.0254H158.784V54.6116H159.888V53.0254Z" fill="white"/>
</g>
<g opacity="0.4">
<path d="M161.581 53.0254H160.477V54.6116H161.581V53.0254Z" fill="white"/>
</g>
<g opacity="0.4">
<path d="M163.275 53.0254H162.171V54.6116H163.275V53.0254Z" fill="white"/>
</g>
<g opacity="0.4">
<path d="M154.808 55.3802H153.704V56.9665H154.808V55.3802Z" fill="white"/>
</g>
<g opacity="0.4">
<path d="M156.501 55.3802H155.397V56.9665H156.501V55.3802Z" fill="white"/>
</g>
<g opacity="0.4">
<path d="M161.581 55.3802H160.477V56.9665H161.581V55.3802Z" fill="white"/>
</g>
<g opacity="0.4">
<path d="M154.808 57.7357H153.704V59.3219H154.808V57.7357Z" fill="white"/>
</g>
<g opacity="0.4">
<path d="M161.581 57.7357H160.477V59.3219H161.581V57.7357Z" fill="white"/>
</g>
<g opacity="0.3">
<path d="M152.921 48.9467H147.174V94.2396H152.921V48.9467Z" fill="black"/>
</g>
<path d="M153.753 67.8508H144.101V94.1943H153.753V67.8508Z" fill="#FFC658"/>
<path d="M144.101 67.851H139.171V94.1945H144.101V67.851Z" fill="#FFC658"/>
<path d="M147.511 70.4087H145.526V73.095H147.511V70.4087Z" fill="#455A64"/>
<g opacity="0.3">
<path d="M145.526 70.4087V70.742H147.176V73.0953H147.511V70.4087H145.526Z" fill="black"/>
</g>
<path d="M147.627 73.0952H145.526V73.6414H147.627V73.0952Z" fill="white"/>
<path d="M147.627 69.8466H145.526V70.3925H147.627V69.8466Z" fill="white"/>
<path d="M152.088 73.0952H149.987V73.6414H152.088V73.0952Z" fill="white"/>
<path d="M152.088 69.8466H149.987V70.3925H152.088V69.8466Z" fill="white"/>
<path d="M151.971 70.4087H149.986V73.095H151.971V70.4087Z" fill="#455A64"/>
<g opacity="0.3">
<path d="M149.986 70.4087V70.742H151.636V73.0953H151.971V70.4087H149.986Z" fill="black"/>
</g>
<path d="M147.627 74.8292H145.526V75.3754H147.627V74.8292Z" fill="white"/>
<path d="M152.088 74.8292H149.987V75.3754H152.088V74.8292Z" fill="white"/>
<path d="M142.808 70.3204H142.113V73.0068H142.808V70.3204Z" fill="#263238"/>
<path d="M142.906 73.007H141.637V73.4118H142.906V73.007Z" fill="white"/>
<path d="M140.946 70.3204H140.251V73.0068H140.946V70.3204Z" fill="#263238"/>
<path d="M141.044 73.007H139.775V73.4118H141.044V73.007Z" fill="white"/>
<g opacity="0.3">
<path d="M144.1 67.8507H139.03V94.1942H144.1V67.8507Z" fill="black"/>
</g>
<path d="M195.553 61.4451H171.269V94.2394H195.553V61.4451Z" fill="#FFC658"/>
<path d="M178.387 63.7823H176.604V66.3448H178.387V63.7823Z" fill="#455A64"/>
<g opacity="0.3">
<path d="M176.604 63.7823V64.1002H178.086V66.3448H178.387V63.7823H176.604Z" fill="black"/>
</g>
<path d="M181.663 63.7823H179.879V66.3448H181.663V63.7823Z" fill="#455A64"/>
<g opacity="0.3">
<path d="M179.879 63.7823V64.1002H181.362V66.3448H181.663V63.7823H179.879Z" fill="black"/>
</g>
<path d="M184.938 63.7823H183.154V66.3448H184.938V63.7823Z" fill="#455A64"/>
<g opacity="0.3">
<path d="M183.154 63.7823V64.1002H184.637V66.3448H184.938V63.7823H183.154Z" fill="black"/>
</g>
<path d="M188.213 63.7823H186.43V66.3448H188.213V63.7823Z" fill="#455A64"/>
<g opacity="0.3">
<path d="M186.43 63.7823V64.1002H187.912V66.3448H188.213V63.7823H186.43Z" fill="black"/>
</g>
<path d="M191.488 63.7823H189.705V66.3448H191.488V63.7823Z" fill="#455A64"/>
<g opacity="0.3">
<path d="M189.705 63.7823V64.1002H191.188V66.3448H191.488V63.7823H189.705Z" fill="black"/>
</g>
<path d="M194.763 63.7823H192.98V66.3448H194.763V63.7823Z" fill="#455A64"/>
<g opacity="0.3">
<path d="M192.98 63.7823V64.1002H194.463V66.3448H194.764V63.7823H192.98Z" fill="black"/>
</g>
<path d="M178.543 70.0088H176.759V72.5712H178.543V70.0088Z" fill="#455A64"/>
<g opacity="0.3">
<path d="M176.759 70.0088V70.3266H178.242V72.5712H178.543V70.0088H176.759Z" fill="black"/>
</g>
<path d="M181.818 70.0088H180.034V72.5712H181.818V70.0088Z" fill="#455A64"/>
<g opacity="0.3">
<path d="M180.034 70.0088V70.3266H181.517V72.5712H181.818V70.0088H180.034Z" fill="black"/>
</g>
<path d="M185.093 70.0088H183.31V72.5712H185.093V70.0088Z" fill="#455A64"/>
<g opacity="0.3">
<path d="M183.31 70.0088V70.3266H184.793V72.5712H185.093V70.0088H183.31Z" fill="black"/>
</g>
<path d="M188.368 70.0088H186.585V72.5712H188.368V70.0088Z" fill="#455A64"/>
<g opacity="0.3">
<path d="M186.585 70.0088V70.3266H188.068V72.5712H188.368V70.0088H186.585Z" fill="black"/>
</g>
<path d="M191.643 70.0088H189.86V72.5712H191.643V70.0088Z" fill="#455A64"/>
<g opacity="0.3">
<path d="M189.86 70.0088V70.3266H191.343V72.5712H191.644V70.0088H189.86Z" fill="black"/>
</g>
<path d="M194.919 70.0088H193.136V72.5712H194.919V70.0088Z" fill="#455A64"/>
<g opacity="0.3">
<path d="M193.136 70.0088V70.3266H194.618V72.5712H194.919V70.0088H193.136Z" fill="black"/>
</g>
<path d="M195.553 60.8949H171.269V61.9959H195.553V60.8949Z" fill="#FFBF9D"/>
<path d="M195.553 67.3859H171.269V68.4868H195.553V67.3859Z" fill="#FFBF9D"/>
<path d="M195.553 73.5934H171.269V74.6946H195.553V73.5934Z" fill="#FFBF9D"/>
<path d="M172.96 63.582H172.311V66.2429H172.96V63.582Z" fill="#263238"/>
<path d="M174.865 63.582H174.216V66.2429H174.865V63.582Z" fill="#263238"/>
<path d="M172.996 69.5093H172.347V72.1702H172.996V69.5093Z" fill="#263238"/>
<path d="M174.928 69.5093H174.279V72.1702H174.928V69.5093Z" fill="#263238"/>
<g opacity="0.3">
<path d="M175.519 60.8949H171.269V94.2398H175.519V60.8949Z" fill="black"/>
</g>
<g opacity="0.3">
<path d="M195.553 74.7521H175.52V75.2161H195.553V74.7521Z" fill="black"/>
</g>
<g opacity="0.3">
<path d="M195.553 68.4869H175.52V68.9512H195.553V68.4869Z" fill="black"/>
</g>
<g opacity="0.3">
<path d="M195.553 61.9957H175.52V62.46H195.553V61.9957Z" fill="black"/>
</g>
<path d="M182.325 58.3076H177.462V60.8947H182.325V58.3076Z" fill="#FFBF9D"/>
<g opacity="0.3">
<path d="M179.004 58.3076H177.462V60.8947H179.004V58.3076Z" fill="black"/>
</g>
<path d="M177.549 72.6266C178.052 72.6266 178.459 72.6018 178.459 72.5712C178.459 72.5407 178.052 72.5159 177.549 72.5159C177.047 72.5159 176.639 72.5407 176.639 72.5712C176.639 72.6018 177.047 72.6266 177.549 72.6266Z" fill="white"/>
<path d="M180.791 72.6266C181.293 72.6266 181.7 72.6018 181.7 72.5712C181.7 72.5407 181.293 72.5159 180.791 72.5159C180.288 72.5159 179.881 72.5407 179.881 72.5712C179.881 72.6018 180.288 72.6266 180.791 72.6266Z" fill="white"/>
<path d="M184.032 72.6266C184.534 72.6266 184.942 72.6018 184.942 72.5712C184.942 72.5407 184.534 72.5159 184.032 72.5159C183.529 72.5159 183.122 72.5407 183.122 72.5712C183.122 72.6018 183.529 72.6266 184.032 72.6266Z" fill="white"/>
<path d="M187.375 72.6266C187.877 72.6266 188.285 72.6018 188.285 72.5712C188.285 72.5407 187.877 72.5159 187.375 72.5159C186.872 72.5159 186.465 72.5407 186.465 72.5712C186.465 72.6018 186.872 72.6266 187.375 72.6266Z" fill="white"/>
<path d="M190.665 72.6266C191.167 72.6266 191.575 72.6018 191.575 72.5712C191.575 72.5407 191.167 72.5159 190.665 72.5159C190.163 72.5159 189.755 72.5407 189.755 72.5712C189.755 72.6018 190.163 72.6266 190.665 72.6266Z" fill="white"/>
<path d="M193.956 72.6266C194.458 72.6266 194.865 72.6018 194.865 72.5712C194.865 72.5407 194.458 72.5159 193.956 72.5159C193.453 72.5159 193.046 72.5407 193.046 72.5712C193.046 72.6018 193.453 72.6266 193.956 72.6266Z" fill="white"/>
<path d="M177.549 66.4003C178.052 66.4003 178.459 66.3755 178.459 66.3449C178.459 66.3143 178.052 66.2896 177.549 66.2896C177.047 66.2896 176.639 66.3143 176.639 66.3449C176.639 66.3755 177.047 66.4003 177.549 66.4003Z" fill="white"/>
<path d="M180.791 66.4003C181.293 66.4003 181.7 66.3755 181.7 66.3449C181.7 66.3143 181.293 66.2896 180.791 66.2896C180.288 66.2896 179.881 66.3143 179.881 66.3449C179.881 66.3755 180.288 66.4003 180.791 66.4003Z" fill="white"/>
<path d="M184.032 66.4003C184.534 66.4003 184.942 66.3755 184.942 66.3449C184.942 66.3143 184.534 66.2896 184.032 66.2896C183.529 66.2896 183.122 66.3143 183.122 66.3449C183.122 66.3755 183.529 66.4003 184.032 66.4003Z" fill="white"/>
<path d="M187.375 66.4003C187.877 66.4003 188.285 66.3755 188.285 66.3449C188.285 66.3143 187.877 66.2896 187.375 66.2896C186.872 66.2896 186.465 66.3143 186.465 66.3449C186.465 66.3755 186.872 66.4003 187.375 66.4003Z" fill="white"/>
<path d="M190.665 66.4003C191.167 66.4003 191.575 66.3755 191.575 66.3449C191.575 66.3143 191.167 66.2896 190.665 66.2896C190.163 66.2896 189.755 66.3143 189.755 66.3449C189.755 66.3755 190.163 66.4003 190.665 66.4003Z" fill="white"/>
<path d="M193.956 66.4003C194.458 66.4003 194.865 66.3755 194.865 66.3449C194.865 66.3143 194.458 66.2896 193.956 66.2896C193.453 66.2896 193.046 66.3143 193.046 66.3449C193.046 66.3755 193.453 66.4003 193.956 66.4003Z" fill="white"/>
<path d="M171.239 71.9076H155.109V94.2132H171.239V71.9076Z" fill="#FF9A6C"/>
<path d="M157.121 74.9945H156.472V77.6554H157.121V74.9945Z" fill="#263238"/>
<path d="M171.667 70.788H154.81V71.9078H171.667V70.788Z" fill="#EBEBEB"/>
<path d="M171.225 72.3828H155.085V72.7134H171.225V72.3828Z" fill="#E0E0E0"/>
<g opacity="0.3">
<path d="M158.976 71.9076H155.109V94.2395H158.976V71.9076Z" fill="black"/>
</g>
<g opacity="0.3">
<path d="M157.879 70.788H154.81V71.9078H157.879V70.788Z" fill="black"/>
</g>
<path d="M138.513 63.6946H114.369V94.2398H138.513V63.6946Z" fill="#FFBF9D"/>
<path d="M138.821 63.1771H114V64.2115H138.821V63.1771Z" fill="#FF9A6C"/>
<path d="M138.513 65.9761H114.369V66.8277H138.513V65.9761Z" fill="#FF9A6C"/>
<path d="M138.513 64.881H114.369V65.3068H138.513V64.881Z" fill="#FF9A6C"/>
<path d="M136.51 66.6952H130.913V88.6683H136.51V66.6952Z" fill="#FF9A6C"/>
<path d="M125.127 66.6952H119.53V88.6683H125.127V66.6952Z" fill="#FF9A6C"/>
<path d="M128.946 73.9724H127.094V76.6333H128.946V73.9724Z" fill="#455A64"/>
<g opacity="0.3">
<path d="M127.094 73.9724V74.3026H128.634V76.6333H128.946V73.9724H127.094Z" fill="black"/>
</g>
<path d="M128.946 68.698H127.094V71.3589H128.946V68.698Z" fill="#455A64"/>
<g opacity="0.3">
<path d="M128.946 68.698H127.094V71.3589H128.946V68.698Z" fill="white"/>
</g>
<g opacity="0.3">
<path d="M127.094 68.698V69.0279H128.634V71.3589H128.946V68.698H127.094Z" fill="black"/>
</g>
<path d="M123.255 74.0225H121.403V76.6834H123.255V74.0225Z" fill="#455A64"/>
<g opacity="0.3">
<path d="M123.255 74.0225H121.403V76.6834H123.255V74.0225Z" fill="white"/>
</g>
<g opacity="0.3">
<path d="M121.403 74.0225V74.3522H122.943V76.6834H123.255V74.0225H121.403Z" fill="black"/>
</g>
<path d="M123.255 68.7478H121.403V71.4087H123.255V68.7478Z" fill="#455A64"/>
<g opacity="0.3">
<path d="M123.255 68.7478H121.403V71.4087H123.255V68.7478Z" fill="white"/>
</g>
<g opacity="0.3">
<path d="M121.403 68.7478V69.0777H122.943V71.4087H123.255V68.7478H121.403Z" fill="black"/>
</g>
<path d="M134.873 74.0204H133.021V76.6813H134.873V74.0204Z" fill="#455A64"/>
<g opacity="0.3">
<path d="M134.873 74.0204H133.021V76.6813H134.873V74.0204Z" fill="white"/>
</g>
<g opacity="0.3">
<path d="M133.021 74.0204V74.3503H134.561V76.6813H134.873V74.0204H133.021Z" fill="black"/>
</g>
<path d="M134.873 68.746H133.021V71.4069H134.873V68.746Z" fill="#455A64"/>
<g opacity="0.3">
<path d="M134.873 68.746H133.021V71.4069H134.873V68.746Z" fill="white"/>
</g>
<g opacity="0.3">
<path d="M133.021 68.746V69.0757H134.561V71.4069H134.873V68.746H133.021Z" fill="black"/>
</g>
<path d="M116.535 68.9026H115.886V71.5635H116.535V68.9026Z" fill="#263238"/>
<path d="M116.627 71.5637H115.442V71.9649H116.627V71.5637Z" fill="white"/>
<path d="M116.535 73.9725H115.886V76.6334H116.535V73.9725Z" fill="#263238"/>
<g opacity="0.3">
<path d="M118.77 64.2117H114.369V94.2396H118.77V64.2117Z" fill="black"/>
</g>
<g opacity="0.3">
<path d="M118.053 63.1771H114V64.2115H118.053V63.1771Z" fill="black"/>
</g>
<path d="M122.294 71.526C122.796 71.526 123.204 71.5013 123.204 71.4708C123.204 71.4403 122.796 71.4156 122.294 71.4156C121.791 71.4156 121.384 71.4403 121.384 71.4708C121.384 71.5013 121.791 71.526 122.294 71.526Z" fill="white"/>
<path d="M128.071 71.4641C128.574 71.4641 128.981 71.4394 128.981 71.4089C128.981 71.3785 128.574 71.3538 128.071 71.3538C127.569 71.3538 127.162 71.3785 127.162 71.4089C127.162 71.4394 127.569 71.4641 128.071 71.4641Z" fill="white"/>
<path d="M133.998 71.5121C134.501 71.5121 134.908 71.4874 134.908 71.4569C134.908 71.4264 134.501 71.4017 133.998 71.4017C133.496 71.4017 133.088 71.4264 133.088 71.4569C133.088 71.4874 133.496 71.5121 133.998 71.5121Z" fill="white"/>
</g>
</svg>
