<svg width="200" height="75" viewBox="0 0 200 75" fill="none" xmlns="http://www.w3.org/2000/svg">
<mask id="mask0_1282_12551" style="mask-type:alpha" maskUnits="userSpaceOnUse" x="0" y="0" width="200" height="75">
<rect width="200" height="75" rx="6" transform="matrix(-1 0 0 1 200 0)" fill="#D9D9D9"/>
</mask>
<g mask="url(#mask0_1282_12551)">
<path fill-rule="evenodd" clip-rule="evenodd" d="M189.669 20.2368C188.037 18.861 187 16.8016 187 14.5C187 10.3579 190.358 7 194.5 7C196.97 7 199.16 8.19355 200.527 10.0353C203.416 8.72786 206.623 8 210 8C222.703 8 233 18.2975 233 31C233 39.5491 228.336 47.0089 221.413 50.9731C224.894 55.0038 227 60.256 227 66C227 78.7026 216.703 89 204 89C196.404 89 189.668 85.3175 185.479 79.6402C180.02 83.6389 173.286 86 166 86C155.821 86 146.718 81.3912 140.665 74.1466C137.003 85.6594 126.226 94 113.5 94C104.357 94 96.2187 89.6942 91.0036 82.9996C86.823 93.5437 76.5322 101 64.5 101C50.4408 101 38.7593 90.8199 36.4247 77.4288C34.2271 80.213 30.8222 82 27 82C20.3726 82 15 76.6274 15 70C15 63.3726 20.3726 58 27 58C31.3931 58 35.2349 60.3607 37.3259 63.8828C40.9783 52.3548 51.7635 44 64.5 44C73.6435 44 81.7813 48.3058 86.9964 55.0004C91.177 44.4563 101.468 37 113.5 37C113.667 37 113.834 37.0014 114 37.0043L114 37C114 34.2386 116.239 32 119 32C121.761 32 124 34.2386 124 37C124 37.6566 123.873 38.2835 123.643 38.8579C127.521 40.3351 130.993 42.6344 133.846 45.5429C135.675 37.6237 140.355 30.7953 146.746 26.1962C146.266 25.0601 146 23.8111 146 22.5C146 17.2533 150.253 13 155.5 13C159.891 13 163.586 15.979 164.675 20.0261C165.114 20.0088 165.556 20 166 20C174.085 20 181.492 22.9078 187.23 27.7347C187.61 25.0596 188.451 22.5327 189.669 20.2368ZM81 42C81 44.2091 82.7909 46 85 46C87.2091 46 89 44.2091 89 42C89 39.7909 87.2091 38 85 38C82.7909 38 81 39.7909 81 42Z" fill="#A4DCFF"/>
<path d="M103.411 48.0257C102.878 47.7817 102.467 47.3328 102.271 46.7807L101.331 44.1335L84.0607 50.2693L85.0012 52.9165C85.1972 53.4686 85.1617 54.0763 84.9024 54.6016C84.29 55.8427 84.2055 57.2788 84.669 58.5827L89.5109 72.2113L89.7451 72.8705C90.3475 74.5659 92.2101 75.4517 93.9053 74.8496L109.201 69.4151C110.897 68.8128 111.782 66.9504 111.18 65.255L110.946 64.5958L106.104 50.9674C105.64 49.6631 104.669 48.602 103.411 48.0257Z" fill="#D9DBDD"/>
<path d="M104.838 50.5703C104.121 49.7003 102.335 47.5878 101.052 48.7464C100.115 49.5925 100.08 51.2758 100.197 52.6974C100.1 52.5718 100.001 52.4475 99.8999 52.3246C99.1826 51.4549 97.3966 49.3423 96.1136 50.5007C95.1766 51.3468 95.1412 53.0301 95.2586 54.4517C95.1616 54.3261 95.0629 54.2018 94.9617 54.0789C94.2443 53.2091 92.4583 51.0966 91.1751 52.2552C90.2381 53.101 90.2027 54.7846 90.3201 56.2062C90.2231 56.0804 90.1243 55.9563 90.0231 55.8334C89.3058 54.9637 87.5198 52.8511 86.2366 54.0097C84.9627 55.1599 85.3543 57.8593 85.5318 59.3422C85.7746 61.3681 86.3299 63.3433 87.0113 65.2618C87.8207 67.5401 88.6163 69.904 90.0584 71.8745C90.8734 72.9888 93.6166 75.7303 94.7585 73.553C95.2278 72.6578 95.4221 71.6768 95.447 70.6696C96.5536 71.9093 98.7157 73.6692 99.697 71.7984C100.166 70.9033 100.361 69.9223 100.386 68.9151C101.492 70.1545 103.654 71.9147 104.636 70.0439C105.105 69.1488 105.299 68.1678 105.324 67.1606C106.431 68.4 108.593 70.1599 109.574 68.2894C110.908 65.7461 110.052 62.5124 109.252 59.9416C109.013 59.172 108.766 58.3974 108.499 57.6278C107.625 55.1057 106.542 52.6369 104.838 50.5703Z" fill="#42703C"/>
<path opacity="0.5" d="M88.7647 70.1084L88.7647 70.1116L89.5106 72.2111L89.5529 72.3303L110.988 64.7148L110.946 64.5956L110.2 62.4961L110.198 62.4937L88.7647 70.1084Z" fill="#808285"/>
<path d="M84.6759 52.0538L101.979 45.9064C102.101 45.8631 102.164 45.7291 102.121 45.6072C102.078 45.4851 101.944 45.4216 101.822 45.4647L84.5191 51.612C84.3972 51.6554 84.3334 51.7893 84.3767 51.9114C84.4201 52.0333 84.554 52.0971 84.6759 52.0538Z" fill="#D9DBDD"/>
<path d="M102.04 46.0784L84.7371 52.2258C84.6152 52.2691 84.5514 52.4031 84.5948 52.525C84.6381 52.6471 84.7721 52.7106 84.894 52.6673L102.197 46.5199C102.319 46.4766 102.383 46.3426 102.339 46.2205C102.296 46.0986 102.162 46.0348 102.04 46.0784Z" fill="#D9DBDD"/>
<path d="M84.6689 58.5827L89.2289 71.4179L110.664 63.8024L106.104 50.9672C106.102 50.9615 106.099 50.9563 106.097 50.9507L84.6637 58.5654C84.6657 58.5711 84.6669 58.577 84.6689 58.5827Z" fill="#D9DBDD"/>
<path d="M85.0272 59.5916L88.8697 70.4063L110.305 62.7908L106.462 51.9761C106.461 51.9711 106.458 51.9667 106.456 51.962L85.0233 59.5768C85.0247 59.5815 85.0255 59.5869 85.0272 59.5916Z" fill="#53804D"/>
<path opacity="0.5" d="M102.04 46.0782L102.023 46.0838L101.962 45.912L101.978 45.9063C102.101 45.8629 102.164 45.729 102.121 45.6071C102.078 45.485 101.944 45.4214 101.822 45.4645L101.805 45.4702L101.33 44.1335L84.0604 50.2693L84.5354 51.6062L84.5189 51.6119C84.397 51.6552 84.3333 51.7892 84.3766 51.9113C84.4199 52.0332 84.5539 52.097 84.6758 52.0536L84.6923 52.048L84.7534 52.2196L84.7371 52.2255C84.7044 52.2371 84.6768 52.2558 84.6536 52.2785L102.138 46.0666C102.105 46.0636 102.072 46.0664 102.04 46.0782Z" fill="#808285"/>
<path d="M101.069 42.9983L83.5477 49.2232C83.1232 49.3741 82.9013 49.8405 83.052 50.2648L83.4499 51.385C83.5371 51.6303 83.8065 51.7583 84.0515 51.6714L102.222 45.2158C102.467 45.1286 102.596 44.8594 102.508 44.6142L102.11 43.4937C101.96 43.0694 101.493 42.8476 101.069 42.9983Z" fill="#53804D"/>
<g opacity="0.26">
<path d="M96.1276 45.2452L84.545 49.3602C84.4573 49.3913 84.4115 49.4876 84.4426 49.5755C84.4736 49.6629 84.5699 49.7089 84.6578 49.6777L96.2403 45.5626C96.328 45.5316 96.3738 45.435 96.3428 45.3474C96.3117 45.2597 96.2152 45.2139 96.1276 45.2452Z" fill="white"/>
<path d="M100.382 43.7337L97.8031 44.6497C97.7157 44.6808 97.6696 44.7773 97.7009 44.865C97.7319 44.9524 97.8285 44.9984 97.9159 44.9674L100.494 44.0514C100.582 44.0203 100.628 43.9238 100.597 43.8364C100.566 43.7485 100.469 43.7027 100.382 43.7337Z" fill="white"/>
</g>
<path d="M97.6491 65.8311C100.237 65.8311 102.336 63.7328 102.336 61.1445C102.336 58.5562 100.237 56.4579 97.6491 56.4579C95.0608 56.4579 92.9625 58.5562 92.9625 61.1445C92.9625 63.7328 95.0608 65.8311 97.6491 65.8311Z" fill="#D9DBDD"/>
<path opacity="0.4" d="M87.8652 52.6693C87.4473 52.6872 87.1228 53.0406 87.1405 53.4588C87.1706 54.1655 87.023 54.8698 86.714 55.4962C86.3454 56.2428 86.2937 57.1214 86.5727 57.9065L91.6488 72.1941C91.7889 72.5886 92.2223 72.7944 92.6166 72.6543C93.0108 72.5142 93.2169 72.0813 93.0771 71.6868L88.0009 57.3992C87.8583 56.9978 87.8847 56.5487 88.0728 56.1672C88.4944 55.3135 88.6956 54.3548 88.6547 53.3945C88.6367 52.9759 88.2836 52.6515 87.8652 52.6693Z" fill="white"/>
<path d="M94.3754 63.4387C94.7954 63.6385 95.7839 62.4386 96.5831 60.7586C97.3824 59.0786 97.6898 57.5547 97.2698 57.3548C96.8498 57.155 95.8614 58.355 95.0622 60.035C94.2629 61.715 93.9554 63.2389 94.3754 63.4387Z" fill="#42703C"/>
<path d="M96.3841 64.3927C96.8041 64.5925 97.7924 63.3927 98.5916 61.7128C99.3908 60.0329 99.6982 58.5091 99.2782 58.3093C98.8582 58.1095 97.8699 59.3093 97.0707 60.9892C96.2715 62.6691 95.9641 64.1929 96.3841 64.3927Z" fill="#42703C"/>
<path d="M98.3904 65.3468C98.8104 65.5466 99.7987 64.3468 100.598 62.6669C101.397 60.987 101.705 59.4632 101.285 59.2634C100.865 59.0636 99.8762 60.2634 99.077 61.9433C98.2778 63.6232 97.9704 65.147 98.3904 65.3468Z" fill="#42703C"/>
<path d="M79.7165 75.8229C79.7158 75.7769 79.7143 75.7313 79.7082 75.6865C79.5823 74.7505 79.5631 73.8037 79.8108 72.8925L84.195 56.7699C84.4356 55.8854 85.0237 54.5121 85.643 53.8364C85.6679 53.8093 85.6861 53.7765 85.7065 53.7457C85.7186 53.727 85.7319 53.7098 85.7427 53.6906C85.759 53.663 85.7723 53.6334 85.7866 53.6041C85.7957 53.5854 85.8063 53.5672 85.8144 53.5475C85.8284 53.5143 85.8392 53.4793 85.8503 53.4446C85.856 53.4273 85.8634 53.4108 85.8683 53.3931C85.8821 53.3426 85.8929 53.2902 85.9008 53.2367C85.9011 53.2333 85.902 53.2308 85.9025 53.2279C85.9025 53.2276 85.9025 53.2276 85.9025 53.2276C85.9082 53.1887 85.9057 53.1503 85.9072 53.1114C85.9089 53.0713 85.9146 53.0304 85.9121 52.9907C85.9087 52.9304 85.8966 52.8718 85.8841 52.8134C85.8804 52.7967 85.8801 52.7787 85.8759 52.7625C85.8466 52.6494 85.7971 52.544 85.738 52.4441C85.7196 52.4128 85.7041 52.3798 85.6834 52.35C85.1099 51.5332 84.5009 50.7418 84.134 49.8136L83.8831 49.1783C83.6932 48.6979 83.6639 48.1687 83.7996 47.67L84.098 46.5723C84.2337 46.5917 84.3659 46.5124 84.4029 46.3765C84.4282 46.2834 84.3984 46.1911 84.3386 46.1243C84.4241 46.0965 84.4965 46.0325 84.5218 45.9392C84.5617 45.7924 84.475 45.641 84.3283 45.6011L70.514 41.8445C70.3672 41.8047 70.216 41.8913 70.1759 42.0381C70.1505 42.1312 70.1803 42.2235 70.2401 42.2903C70.1547 42.3181 70.0823 42.3824 70.0569 42.4754C70.02 42.6114 70.0941 42.7468 70.2212 42.7988L69.9227 43.8965C69.787 44.3952 69.4935 44.8365 69.0865 45.1546L68.5484 45.5752C67.7619 46.1896 66.836 46.5639 65.9278 46.9776C65.8948 46.9929 65.865 47.0135 65.8333 47.0313C65.7316 47.0877 65.6353 47.1534 65.553 47.2359C65.541 47.2477 65.5319 47.263 65.5203 47.2756C65.4799 47.3196 65.44 47.364 65.406 47.4139C65.3839 47.4472 65.3681 47.4851 65.3492 47.5208C65.3309 47.555 65.3095 47.5868 65.2945 47.6233C65.2945 47.6233 65.2945 47.6233 65.2945 47.6235C65.2933 47.6262 65.2928 47.6289 65.2918 47.6319C65.2713 47.6824 65.2541 47.7326 65.2406 47.7833C65.2356 47.801 65.2337 47.819 65.2297 47.8368C65.2218 47.8725 65.2135 47.9082 65.2088 47.9439C65.2061 47.9651 65.2061 47.986 65.2044 48.0072C65.2016 48.0392 65.1982 48.0717 65.1982 48.1034C65.1982 48.1256 65.2007 48.1473 65.2017 48.1694C65.2036 48.2064 65.2029 48.2441 65.2105 48.28C65.4026 49.1764 65.2142 50.6583 64.9739 51.5428L60.5894 67.6654C60.3417 68.5763 59.8455 69.3835 59.2626 70.1264C59.2348 70.1621 59.2104 70.2006 59.1865 70.24C59.1814 70.2481 59.1752 70.2557 59.17 70.2646C59.072 70.4347 59.011 70.634 59.0011 70.8543C58.975 71.451 59.4114 71.9713 59.9876 72.1279L59.9878 72.1282C62.9364 72.9302 75.1191 76.243 78.0691 77.0453C78.4557 77.1504 78.8657 77.0775 79.1797 76.865C79.1817 76.8635 79.1839 76.8631 79.1861 76.8616C79.3572 76.7441 79.4956 76.5818 79.5895 76.3866C79.5993 76.3661 79.6124 76.3486 79.621 76.3277C79.621 76.3277 79.621 76.3277 79.621 76.3272C79.686 76.1699 79.7168 76.0093 79.718 75.8525C79.7182 75.8424 79.717 75.8328 79.7165 75.8229Z" fill="#D9DBDD"/>
<path d="M78.2736 76.2955C78.4351 76.3393 78.6114 76.3115 78.7444 76.2211L78.7501 76.2174C78.8158 76.1679 78.8574 76.1152 78.8887 76.0502L78.9143 76C78.9293 75.9571 78.9384 75.9111 78.9402 75.8643L78.9389 75.8335C78.9389 75.8177 78.9389 75.802 78.9375 75.7867C78.7749 74.5806 78.8141 73.5949 79.0606 72.6887L83.4448 56.566C83.6723 55.7293 84.2833 54.1907 85.0427 53.3409L85.1185 53.1892C85.1232 53.1717 85.1269 53.1535 85.1299 53.1353L85.134 53.0247C85.1313 53.008 85.1274 52.9915 85.1237 52.9752L85.1148 52.9299C85.1075 52.9117 85.0932 52.8807 85.0683 52.8381L85.0353 52.78L84.8152 52.4687C84.298 51.7415 83.7632 50.9892 83.4115 50.0996L83.1601 49.4647C82.9104 48.8319 82.871 48.1224 83.0493 47.4664L83.3867 46.2261L83.2973 46.1263L71.1365 42.8197L71.0105 42.8601L70.6729 44.1009C70.4946 44.7569 70.1013 45.3484 69.5655 45.7675L69.0274 46.1884C68.2734 46.7777 67.4312 47.1554 66.6171 47.5203L66.2096 47.7119C66.168 47.7353 66.1399 47.7543 66.1214 47.7695C66.1128 47.7796 66.1042 47.7897 66.0953 47.7996C66.0828 47.8134 66.0712 47.8252 66.0606 47.8373L66.0067 47.938C66.0015 47.9518 65.9964 47.9685 65.9917 47.985L65.9781 48.1301L65.9734 48.1305C66.2076 49.2488 65.9528 50.904 65.7235 51.7472L61.3393 67.8696C61.0928 68.7758 60.6274 69.6458 59.8746 70.6056C59.8657 70.6182 59.8569 70.6335 59.848 70.648L59.8352 70.6687C59.7993 70.7389 59.781 70.81 59.7778 70.8883C59.7682 71.1011 59.9463 71.3114 60.1918 71.3781L78.2736 76.2955Z" fill="#990D0D"/>
<path d="M84.8224 43.8622L70.9694 40.0951C70.6242 40.0013 70.2681 40.2049 70.1743 40.5502L69.9266 41.4613C69.8724 41.6608 69.9901 41.8664 70.1896 41.9206L84.5705 45.8312C84.7702 45.8856 84.9756 45.7677 85.0297 45.5685L85.2775 44.6574C85.3713 44.3121 85.1676 43.956 84.8224 43.8622Z" fill="#53804D"/>
<g opacity="0.26">
<path d="M81.9572 43.4644L71.5576 40.6365C71.4864 40.617 71.4131 40.6591 71.3936 40.7303C71.3741 40.8017 71.4163 40.8751 71.4874 40.8945L81.887 43.7224C81.9584 43.7419 82.0318 43.6995 82.0512 43.6284C82.0704 43.5572 82.0283 43.4838 81.9572 43.4644Z" fill="white"/>
<path d="M84.557 44.1711L83.3201 43.8347C83.2486 43.8155 83.1753 43.8574 83.1558 43.9286C83.1364 44.0002 83.1785 44.0738 83.2496 44.0931L84.4865 44.4294C84.5579 44.4489 84.6313 44.4065 84.6508 44.3354C84.6702 44.264 84.6281 44.1906 84.557 44.1711Z" fill="white"/>
</g>
<path opacity="0.4" d="M84.246 51.9595C82.902 51.6563 81.5661 51.3222 80.2314 50.9833C78.897 50.6452 77.569 50.282 76.2373 49.9324C74.912 49.56 73.5832 49.2 72.2608 48.8164C70.9385 48.4327 69.6176 48.0441 68.3051 47.6243C69.6494 47.9272 70.985 48.2616 72.3197 48.6001C73.6544 48.9387 74.9824 49.3015 76.3139 49.6516C77.6392 50.0245 78.9682 50.3837 80.29 50.7679C81.6124 51.1518 82.9335 51.5404 84.246 51.9595Z" fill="white"/>
<path opacity="0.4" d="M60.7003 70.5177C61.9899 70.8061 63.2712 71.1252 64.5512 71.4488C65.8314 71.7723 67.1045 72.1208 68.3815 72.4554C69.6524 72.8127 70.9265 73.1582 72.1945 73.5271C73.4619 73.896 74.7286 74.2698 75.9862 74.6746C74.6966 74.3865 73.4154 74.0671 72.1354 73.7436C70.8554 73.4195 69.5818 73.072 68.305 72.7364C67.0346 72.3781 65.7602 72.0338 64.4925 71.6645C63.2249 71.2956 61.9584 70.9223 60.7003 70.5177Z" fill="white"/>
<path d="M84.5492 55.748L65.1859 50.4822C65.1293 50.8732 65.0552 51.2436 64.9739 51.5433L60.5895 67.6659C60.5038 67.9808 60.3868 68.2827 60.2484 68.5743L79.6449 73.8487C79.6732 73.5271 79.7254 73.2077 79.8109 72.8928L84.1951 56.7701C84.2769 56.4704 84.4005 56.1136 84.5492 55.748Z" fill="#F1F2F2"/>
<path d="M83.9584 57.6414L84.1953 56.7702C84.2002 56.752 84.2066 56.7323 84.2118 56.7136L64.9884 51.486C64.9835 51.5047 64.979 51.5249 64.9741 51.5431L64.7372 52.4143L60.83 66.7827L60.6042 67.6133L79.8256 72.8404L80.0514 72.0098L83.9584 57.6414Z" fill="#53804D"/>
<path d="M73.7639 58.6554C69.9512 57.6184 66.3622 57.0494 63.5049 56.9445L61.7736 63.3115C64.2902 64.6678 67.6732 65.9946 71.4858 67.031C74.9523 67.9737 78.2348 68.5307 80.9499 68.7033L82.7712 62.0063C80.3429 60.7803 77.2303 59.5983 73.7639 58.6554Z" fill="#414042"/>
<path d="M69.893 62.4301C69.8514 62.4188 69.81 62.405 69.7684 62.3878C68.9523 62.0521 68.6967 60.6704 68.9688 59.9807C69.3874 58.9206 70.5771 59.2373 71.0851 59.3727L71.1666 59.3941C71.3884 59.453 71.6214 59.5308 71.8243 59.7098C72.2609 60.0959 72.3417 60.8098 72.0124 61.3713C71.7482 61.8216 71.3168 62.0772 70.9706 62.2496C70.7962 62.3368 70.3557 62.5557 69.893 62.4301ZM70.8962 60.4247L70.811 60.4023C70.2345 60.2489 70.0119 60.2407 69.9602 60.3717C69.8575 60.6318 70.0242 61.3075 70.1801 61.405C70.1801 61.4035 70.2525 61.4171 70.4956 61.2959C70.71 61.189 70.9713 61.0403 71.0934 60.8322C71.1705 60.7005 71.1557 60.5412 71.1188 60.5086C71.0782 60.4725 70.9464 60.4385 70.8962 60.4247Z" fill="#D3312D"/>
<path d="M70.3248 63.8468C70.0226 63.7646 69.7444 63.5993 69.5299 63.3346C69.2081 62.9369 69.0837 62.3723 69.1785 61.7446C69.3331 60.7239 70.2531 59.2407 71.5779 59.109C72.196 59.0479 72.7528 59.2875 73.1062 59.7672C73.4984 60.2989 73.576 61.0583 73.3044 61.7012C73.0151 62.387 72.6577 63.0837 72.0096 63.5365C71.545 63.8613 70.8931 64.0012 70.3248 63.8468ZM70.2322 61.9044C70.1832 62.2277 70.2292 62.5047 70.3583 62.6643C70.5733 62.9303 71.0852 62.8827 71.3992 62.6631C71.8262 62.3651 72.0956 61.8256 72.3228 61.2868C72.4494 60.9876 72.4194 60.6308 72.2487 60.3993C72.1182 60.2223 71.9276 60.1449 71.6836 60.1693C71.0337 60.2341 70.3425 61.1772 70.2322 61.9044Z" fill="#B21B1B"/>
<path d="M69.561 64.8976C69.0594 64.7612 68.6063 64.4711 68.2926 64.0677C67.7796 63.4078 67.6661 62.6373 67.9739 61.8978C68.3679 60.951 69.4485 60.1672 70.5426 60.0337C71.4229 59.9266 72.1964 60.3351 72.611 61.1265C73.0999 62.0591 72.9642 63.2467 72.2816 64.015C71.7652 64.5959 71.0508 64.9483 70.3207 64.9823C70.0631 64.9944 69.8065 64.9643 69.561 64.8976ZM69.1338 63.4137C69.3916 63.7454 69.8275 63.9392 70.2717 63.9183C70.7098 63.8981 71.1636 63.6695 71.4854 63.3078C71.9257 62.8124 71.9105 62.0844 71.6677 61.6212C71.5212 61.3422 71.2301 61.0229 70.6716 61.0918C69.9582 61.1787 69.2054 61.7126 68.9579 62.3078C68.7971 62.6929 68.8545 63.0549 69.1338 63.4137Z" fill="#B21B1B"/>
<path d="M74.536 64.2984C74.4343 64.2706 74.3321 64.2283 74.2332 64.1647C73.7924 63.882 73.6944 63.3629 73.6414 63.0839C73.5927 62.8271 73.5254 62.4752 73.6358 62.112C73.7729 61.6587 74.1869 61.2674 74.7717 61.0381C75.2541 60.849 75.9515 60.753 76.4595 61.0512C76.8981 61.3083 77.1519 61.786 77.1569 62.3622C77.1625 63.0433 76.8252 63.7089 76.3174 64.018C75.9579 64.2371 75.5644 64.2832 75.2484 64.3204C75.0704 64.3408 74.8059 64.3716 74.536 64.2984ZM75.8579 61.9455C75.7225 61.9089 75.4605 61.9125 75.1603 62.0305C74.8722 62.1435 74.6882 62.3127 74.6552 62.4213C74.621 62.5338 74.6565 62.7207 74.688 62.8857C74.7404 63.163 74.7828 63.247 74.8091 63.2691C74.8581 63.2925 75.0586 63.2696 75.1243 63.262C75.3593 63.2347 75.6023 63.2061 75.7631 63.1086C75.9466 62.9965 76.0936 62.6661 76.0913 62.3713C76.0904 62.2585 76.0667 62.0566 75.9205 61.9707C75.9047 61.9606 75.8835 61.9524 75.8579 61.9455Z" fill="#B21B1B"/>
<path d="M73.3547 63.7326C72.8292 63.5898 72.3544 63.2664 72.0345 62.8087C71.6068 62.197 71.5728 61.3302 71.9523 60.7005C72.2709 60.1716 72.8339 59.9022 73.4574 59.98C73.7152 60.0118 73.9504 60.0945 74.1577 60.1671C74.3168 60.2235 74.4675 60.2753 74.6046 60.2984C74.665 60.3085 74.7285 60.3166 74.7942 60.3255C75.2375 60.3838 76.0642 60.4932 76.2882 61.3228C76.3629 61.5993 76.3365 61.9076 76.2107 62.2396C75.8977 63.0635 75.1415 63.6732 74.284 63.7932C73.9703 63.8367 73.6541 63.8138 73.3547 63.7326ZM73.5 61.0733C73.4394 61.0571 73.381 61.0443 73.3254 61.0374C73.1146 61.011 72.9681 61.0788 72.8646 61.2504C72.7011 61.5223 72.7198 61.9293 72.9075 62.1985C73.1789 62.5861 73.6726 62.803 74.1363 62.7377C74.6071 62.672 75.0398 62.3201 75.2141 61.8616C75.2764 61.6966 75.2646 61.6203 75.2592 61.6003C75.2284 61.4873 75.0986 61.4405 74.6539 61.3819C74.5763 61.3713 74.501 61.3612 74.4296 61.3494C74.202 61.3115 73.9907 61.2381 73.8051 61.1726C73.6992 61.1354 73.5967 61.0997 73.5 61.0733Z" fill="#D3312D"/>
<path d="M73.8604 66.7279C73.8577 66.7272 73.855 66.7265 73.8521 66.7257C73.4997 66.6277 73.2135 66.4076 73.0466 66.1057C72.5393 65.1896 72.9998 64.0062 73.7481 63.475C74.4224 62.9965 75.2271 63.1017 75.7984 63.7419C75.9878 63.9542 76.1858 64.3479 76.0523 65.018C75.9109 65.7289 75.5512 66.2825 75.0392 66.5775C74.691 66.7782 74.251 66.8341 73.8604 66.7279ZM74.7238 64.2524C74.6098 64.2216 74.4935 64.2529 74.3647 64.344C74.0151 64.592 73.7649 65.2027 73.9789 65.5895C74.0148 65.6545 74.0865 65.6917 74.1402 65.6996C74.2594 65.7324 74.4029 65.7146 74.5076 65.6543C74.7422 65.5186 74.9291 65.2032 75.0075 64.8102C75.0552 64.5691 75.0168 64.4659 75.0038 64.4514C74.9075 64.3438 74.8164 64.2778 74.7238 64.2524Z" fill="#D3312D"/>
<path d="M73.0689 65.3883C72.7813 65.3103 72.517 65.1874 72.27 65.0616C71.9258 64.8857 71.5786 64.6708 71.3732 64.2891C71.1811 63.934 71.1508 63.4787 71.2875 63.0086C71.4296 62.5191 71.7125 62.128 72.0846 61.9071C72.5316 61.6419 72.8997 61.7412 73.1435 61.8089C73.1905 61.8217 73.2405 61.8355 73.2937 61.8465C73.4267 61.8749 73.583 61.8665 73.7643 61.8571C73.914 61.8495 74.0832 61.8406 74.2627 61.8527C74.8542 61.8919 75.3363 62.2063 75.5198 62.6717C75.6983 63.1243 75.5508 63.5885 75.4629 63.8655C75.3452 64.2361 75.1837 64.7434 74.7707 65.0911C74.4156 65.3898 73.9142 65.5226 73.3954 65.4548C73.2834 65.4398 73.1745 65.4172 73.0689 65.3883ZM72.8379 62.8298C72.6869 62.7889 72.6842 62.7907 72.6286 62.8237C72.4919 62.9044 72.3762 63.0805 72.3109 63.3056C72.2545 63.5004 72.2545 63.6789 72.3109 63.7835C72.3781 63.9081 72.5636 64.0153 72.7542 64.1125C73.0063 64.2408 73.275 64.3647 73.5331 64.3982C73.7532 64.4267 73.9593 64.3814 74.0846 64.2755C74.2617 64.1268 74.3646 63.8032 74.4474 63.543C74.4895 63.4102 74.5678 63.1632 74.5284 63.0628C74.504 63.0015 74.3681 62.9278 74.1908 62.9158C74.0753 62.9081 73.9507 62.9143 73.8194 62.9212C73.5958 62.933 73.3427 62.9461 73.074 62.8892C72.9989 62.8737 72.9307 62.8549 72.863 62.8365C72.8541 62.8343 72.8458 62.832 72.8379 62.8298Z" fill="#B21B1B"/>
<path d="M68.8429 64.1429C68.7363 64.1138 68.6326 64.0729 68.5341 64.0202C68.1389 63.8082 67.8441 63.4248 67.7252 62.968C67.5836 62.425 67.6934 61.8129 68.0345 61.2443C68.4861 60.4915 68.9552 60.0487 69.4287 59.9278C70.1522 59.7432 71.0655 60.2366 71.2736 60.9234C71.3793 61.2724 71.3135 61.6065 71.2357 61.8877C71.1081 62.3465 70.9232 62.7883 70.6861 63.2012C70.5275 63.4768 70.2975 63.8193 69.923 64.0237C69.5964 64.2015 69.2044 64.2409 68.8429 64.1429ZM69.8828 60.9729C69.8119 60.9535 69.7437 60.9473 69.692 60.9604C69.592 60.986 69.3083 61.1921 68.9485 61.7924C68.7587 62.1086 68.6885 62.4393 68.7562 62.6996C68.7993 62.8651 68.9069 63.0114 69.0369 63.081C69.1549 63.1436 69.3056 63.147 69.413 63.0882C69.5533 63.0114 69.6735 62.8242 69.7622 62.6698C69.955 62.3347 70.1052 61.9754 70.2088 61.6026C70.2295 61.5285 70.2839 61.3322 70.2537 61.2322C70.2229 61.1293 70.0456 61.017 69.8828 60.9729Z" fill="#D3312D"/>
<path d="M71.5247 65.7558C71.3026 65.6955 71.0861 65.6037 70.8827 65.4803C70.3464 65.156 69.9706 64.6536 69.8519 64.1018C69.7074 63.4317 69.9369 62.3623 70.5084 61.8378C71.1777 61.2239 72.2662 61.5369 72.8562 61.7797C73.6264 62.0953 74.181 62.7339 74.3036 63.446C74.4477 64.2835 73.9825 65.1877 73.1962 65.5955C72.6897 65.8583 72.0898 65.9095 71.5247 65.7558ZM72.0411 62.6243C71.6274 62.512 71.3314 62.5288 71.2285 62.6231C70.9874 62.8442 70.8121 63.5009 70.8933 63.8779C70.9505 64.1439 71.1477 64.3956 71.4343 64.5692C71.835 64.8117 72.3334 64.8432 72.7052 64.6499C73.0783 64.4561 73.3191 64.007 73.2534 63.627C73.1805 63.2045 72.7917 62.905 72.4516 62.7656C72.3051 62.7056 72.1677 62.6585 72.0411 62.6243Z" fill="#D3312D"/>
<g opacity="0.4">
<path d="M62.4991 68.7893C62.1884 68.7049 62.0051 68.3843 62.0896 68.0737L66.4738 51.9514C66.6408 51.3377 66.8252 50.3278 66.8432 49.3347C66.855 48.6878 67.2214 48.1121 67.7996 47.8314C68.4967 47.4933 69.039 47.1658 69.5064 46.8006L70.0447 46.3797C70.7108 45.8589 71.2001 45.1226 71.4224 44.3068C71.5071 43.996 71.8273 43.8131 72.138 43.8975L72.1383 43.8975C72.449 43.9823 72.6322 44.3029 72.5475 44.6136C72.2597 45.67 71.6258 46.6235 70.763 47.2985L70.2242 47.7196C69.6906 48.1365 69.0818 48.5054 68.3086 48.8806C68.1279 48.9681 68.0131 49.1505 68.0094 49.3559C67.9897 50.4559 67.7846 51.5761 67.5994 52.2574L63.2152 68.3798C63.1305 68.6903 62.8099 68.874 62.4991 68.7893Z" fill="white"/>
</g>
<path d="M121.537 71.6255C121.537 71.6255 112.163 75.9255 100.034 82.5493C90.7479 87.6213 81.3481 89.1512 78.9636 87.5235C77.8452 86.7602 78.5406 85.2581 79.5955 84.5863C82.5618 82.6971 121.537 71.6255 121.537 71.6255Z" fill="#FF751D"/>
<path d="M102.643 60.2585C101.61 60.6522 96.3998 62.275 94.9737 65.4561C93.5482 68.6373 95.8058 71.6921 91.7415 74.8793C87.6771 78.0665 79.5967 84.5874 79.5967 84.5874C79.5967 84.5874 83.7189 82.4871 90.5006 81.1768C97.2826 79.8665 120.285 79.5654 126.325 77.2637C132.365 74.962 136.634 72.7893 137.034 69.5423C137.034 69.5423 122.682 69.6135 117.687 69.1648C117.687 69.1648 116.454 68.5568 115.515 66.0931C114.577 63.6291 114.777 62.0056 110.881 60.2595C106.984 58.5133 102.643 60.2585 102.643 60.2585Z" fill="#FF951D"/>
<path d="M99.5615 62.8369C99.5615 62.8369 95.2063 63.883 95.2381 66.7789C95.2701 69.6747 95.5277 69.5989 98.4125 69.7607C101.297 69.9225 105.015 67.8697 104.669 65.275C104.323 62.6805 100.591 62.4446 99.5615 62.8369Z" fill="#FFBD1D"/>
<path d="M79.5955 84.5867C93.4543 77.4386 117.7 80.5718 126.571 76.9431C129.618 75.8173 134.597 73.8995 136.334 71.2993C136.679 70.7692 136.929 70.1757 137.034 69.5424C136.736 72.0735 134.24 73.7411 131.98 74.9766C130.107 75.9768 127.157 77.2871 124.876 77.9367L123.934 78.1534C110.743 81.2512 93.4922 78.4526 79.5955 84.5867Z" fill="#CC3403"/>
<path d="M116.807 69.3838C117.062 69.2722 117.3 69.1656 117.525 69.0639C117.282 68.8942 116.796 68.4842 116.281 67.6613C114.249 68.5608 111.608 69.5672 109.364 70.0415C103.258 71.3313 99.9499 70.319 94.2182 71.1324C94.0892 71.7793 93.8594 72.4269 93.4398 73.0782C102.1 71.5869 105.641 74.2706 116.807 69.3838Z" fill="#FF1932"/>
<path d="M116.281 67.6613C114.967 68.2426 113.4 68.8669 111.849 69.3648C111.9 70.0526 111.763 70.7024 111.52 71.3306C113.091 70.8748 114.896 70.4296 116.875 69.563C117.13 69.4515 117.462 69.2668 117.687 69.1648C117.443 68.9952 116.795 68.4842 116.281 67.6613Z" fill="#D81809"/>
<path opacity="0.33" d="M137.034 69.5423C137.034 69.5423 122.682 69.6135 117.687 69.1648C117.687 69.1648 116.454 68.5568 115.515 66.0931C114.577 63.6291 114.777 62.0056 110.881 60.2595C106.984 58.5133 102.644 60.2585 102.644 60.2585C102.609 60.2718 102.568 60.2868 102.523 60.3031C105.193 61.5786 108.115 63.2775 109.784 65.2009C113.413 69.3815 110.482 73.498 110.482 73.498C110.482 73.498 120.939 74.0728 124.098 75.4885C125.018 75.9014 125.787 76.5365 126.416 77.2294C132.407 74.9406 136.636 72.7736 137.034 69.5423Z" fill="#FF891D"/>
<path d="M88.7358 78.5721C88.7358 78.5721 91.2982 76.0517 94.3963 75.5885C97.4941 75.1256 103.605 74.9939 102.649 77.1259C101.694 79.2577 87.2024 81.1045 88.7358 78.5721Z" fill="#FFBD1D"/>
<path d="M110.25 70.64C109.632 67.9786 107.778 63.5254 105.601 62.3323C104.138 61.5259 102.933 62.8837 103.014 64.1506C103.112 66.7766 107.677 69.4475 110.107 70.3857C110.155 70.4709 110.202 70.5548 110.25 70.64ZM104.277 63.7315C104.485 63.3159 104.638 63.1543 105.053 63.3848C106.671 64.1568 109.223 68.7971 110.088 70.3517C108.41 69.0569 103.642 65.5764 104.277 63.7315Z" fill="#FF4304"/>
<path d="M117.619 64.9721C118.886 62.0328 115.435 61.6674 115.4 61.6487C111.727 61.2453 110.749 66.6783 111.041 70.0726C111.751 66.6493 112.957 61.5559 116.051 63.0577C117.522 63.6778 116.206 65.3732 115.118 66.5451C113.9 67.816 112.473 68.9359 111.041 70.0726C112.729 69.3634 114.34 68.4469 115.765 67.223C116.503 66.5862 117.196 65.8529 117.619 64.9721Z" fill="#FF4304"/>
<path d="M113.607 75.2928C111.919 74.7885 111.026 72.6306 110.447 70.9805C110.45 70.9645 110.473 71.6227 110.759 72.2984C112.654 76.8501 115.183 76.4371 118.777 73.1758L118.104 72.5757C117.14 73.8267 115.135 75.6851 113.607 75.2928Z" fill="#FF4304"/>
<path d="M118.921 67.7222L118.378 68.4417C119.875 69.5631 119.57 70.5132 119.574 70.5464C119.53 70.6506 119.52 70.884 119.188 71.2679C117.996 72.7503 112.831 71.2743 111.011 70.6597L111.007 70.6695C113.062 71.5275 118.123 73.3526 119.643 71.6924C120.138 71.195 120.184 70.8333 120.247 70.7101C120.237 70.6712 120.765 69.276 118.921 67.7222Z" fill="#FF4304"/>
<path d="M110.98 71.1699C111.537 70.9574 111.834 70.3772 111.643 69.874C111.451 69.3709 110.843 69.1353 110.285 69.3478C109.728 69.5604 109.431 70.1406 109.622 70.6437C109.814 71.1469 110.422 71.3824 110.98 71.1699Z" fill="#FF4304"/>
<path d="M166.265 57.2641C166.265 57.2641 167.746 57.9139 170.076 54.5391C172.406 51.1643 175.501 48.0832 175.171 47.7532C173.322 45.9041 166.885 49.114 165.817 52.048C164.75 54.9821 166.265 57.2641 166.265 57.2641Z" fill="#12826D"/>
<path d="M110.51 46.7936C110.326 47.0039 112.088 51.2179 114.445 53.5748C116.802 55.9321 118.466 57.1747 119.224 56.5551C120.028 55.8979 118.46 51.0842 115.088 48.3088C111.715 45.5328 110.51 46.7936 110.51 46.7936Z" fill="#1EBCA0"/>
<path d="M136.195 26.9583C136.195 26.9583 143.82 29.0474 150.912 27.5805C150.912 27.5805 145.979 41.2072 147.102 50.6887C148.226 60.1703 147.046 87.5053 147.046 87.5053L132.496 87.5053L136.195 26.9583Z" fill="#1EBCA0"/>
<path opacity="0.47" d="M147.546 59.014C144.011 68.5414 138.903 79.4679 132.738 83.5436L132.496 87.5057L147.046 87.5057C147.046 87.5057 147.766 70.8335 147.546 59.014Z" fill="#3EA486"/>
<path d="M110.51 46.7936C110.51 46.7936 119.224 51.0106 119.224 56.5552L122.805 53.8499C122.805 53.8499 128.564 40.6453 128.213 36.7883C127.861 32.9313 124.186 32.3154 124.186 32.3154L110.51 46.7936Z" fill="#3CDDD5"/>
<path opacity="0.24" d="M127.78 40.0623C124.938 44.1199 122.159 42.0042 120.096 46.8255C119.484 48.2577 118.08 49.6694 116.406 50.9556C117.965 52.5249 119.224 54.4442 119.224 56.555L122.805 53.8497C122.805 53.8497 126.482 45.4184 127.78 40.0623Z" fill="#58B1AF"/>
<path d="M140.503 57.2777C139.565 64.0271 137.318 92.6328 137.318 92.6328C129.639 91.3469 120.839 85.9893 120.839 85.9893L122.806 53.8482C122.806 53.8482 122.62 53.2057 124.185 45.3856C125.754 37.5658 124.185 32.314 124.185 32.314L132.918 28.4218L136.196 26.9594L136.524 27.6343C136.469 29.6624 136.566 31.9895 137.132 33.3874C138.301 36.2803 140.503 35.8497 140.503 35.8497C140.503 35.8497 141.439 50.528 140.503 57.2777Z" fill="#26EFCB"/>
<path d="M140.503 35.8492C140.785 41.4644 141.108 51.5574 140.38 57.165C139.417 64.3525 137.735 85.3068 137.209 92.4901C131.801 91.5243 125.364 88.6282 120.839 85.9894C122.112 86.7606 123.419 87.4748 124.742 88.1564C132.693 92.2335 137.08 92.6543 137.426 92.7748C138.155 83.9662 139.854 63.2801 140.648 57.2015C141.354 51.3304 140.891 41.7225 140.503 35.8492Z" fill="#1EA58B"/>
<path d="M163.973 86.6417C163.973 86.6417 155.05 91.7297 147.346 92.7841C147.346 92.7841 145.758 64.1206 144.977 57.3453C144.2 50.5698 145.472 35.9263 145.472 35.9263C149.172 33.6089 150.001 29.9191 150.03 27.1904L152.794 28.5209L161.864 32.8825C161.864 32.8825 160.177 38.0827 161.562 45.9509C162.951 53.816 163.973 86.6417 163.973 86.6417Z" fill="#26EFCB"/>
<path d="M136.522 29.101L136.194 26.9584L136.803 23.637C136.803 23.637 145.932 24.387 149.63 23.637L151.394 26.9589L151.957 28.9064L136.522 29.101Z" fill="#4ED1AA"/>
<path d="M140.503 35.8492L134.557 39.4939C134.557 39.4939 131.983 32.9693 132.497 29.8033C132.574 29.3371 132.722 28.8712 132.918 28.4213C134.049 25.8146 136.804 23.6355 136.804 23.6355C136.804 23.6355 136.579 25.4644 136.524 27.6338C136.469 29.6619 136.566 31.989 137.132 33.3869C138.301 36.2799 140.503 35.8492 140.503 35.8492Z" fill="#A6F2EA"/>
<path d="M152.755 30.8031C151.842 34.9814 149.805 38.7579 149.805 38.7579L145.472 35.9263C149.172 33.6088 150.001 29.919 150.03 27.1903C150.052 25.146 149.631 23.6355 149.631 23.6355C149.631 23.6355 152.257 25.5799 152.794 28.5208C152.923 29.228 152.932 29.9929 152.755 30.8031Z" fill="#A6F2EA"/>
<path opacity="0.24" d="M124.218 87.8496C125.834 80.6151 127.78 69.8203 127.78 59.7958C127.78 42.662 124.617 42.7268 124.616 42.7268C124.51 43.5744 124.37 44.4614 124.185 45.3853C122.62 53.2054 122.806 53.8479 122.806 53.8479L120.839 85.989C120.839 85.989 122.16 86.792 124.218 87.8496Z" fill="#4ED1AA"/>
<path opacity="0.24" d="M161.562 45.9511C161.157 43.6514 161.015 41.5819 161.017 39.8013C160.544 40.3753 159.704 42.0143 158.611 46.6847C157.483 51.5013 160.074 73.0909 162.033 87.6698C163.247 87.0551 163.972 86.6414 163.972 86.6414C163.972 86.6414 162.95 53.816 161.562 45.9511Z" fill="#4ED1AA"/>
<path d="M161.863 32.8833L175.171 47.7533C175.171 47.7533 166.393 51.7218 166.265 57.2641L162.171 51.3399C162.171 51.3399 157.636 48.5193 158.127 42.9751C158.619 37.4308 161.863 32.8833 161.863 32.8833Z" fill="#26D1CB"/>
<path d="M162.194 51.3657C159.148 49.4218 157.541 46.2154 158.015 42.5646C158.429 39.0294 159.99 35.4428 161.864 32.8833C158.653 38.0324 158.342 42.5665 158.334 42.6003C157.827 46.1169 159.373 49.2758 162.194 51.3657Z" fill="#43A895"/>
<path d="M135.51 53.8125L130.769 56.2333L125.78 53.1631L126.43 43.4338L136.159 44.0829L135.51 53.8125Z" fill="#6FF2DA"/>
<path d="M135.377 53.7233L130.777 56.0506L125.925 53.0875C126.033 51.414 126.287 46.8417 126.43 43.4338C126.066 47.3972 125.819 50.8036 125.635 53.2375C128.483 55.0033 127.926 54.6581 130.762 56.4163C132.126 55.7133 133.907 54.7948 135.644 53.8999C135.866 49.9722 135.999 47.8996 136.159 44.0829C136.011 45.7018 135.488 52.1239 135.377 53.7233Z" fill="#43A895"/>
<path d="M157.942 54.222L153.531 57.2028L148.206 54.7643L147.663 45.0283L157.399 44.4861L157.942 54.222Z" fill="#6FF2DA"/>
<path opacity="0.53" d="M134.076 27.5393C133.476 27.8124 132.868 33.2838 134.076 35.6505C135.284 38.0172 137.034 36.3658 137.034 35.6505C137.034 34.9659 134.987 27.1246 134.076 27.5393Z" fill="#A6F2EA"/>
<path d="M151.752 44.8008L151.89 45.9146L157.441 45.6713L157.399 44.4861L151.752 44.8008Z" fill="#EF5826"/>
<path d="M157.798 54.1501L153.516 57.0209L148.339 54.6717C148.242 52.9972 147.937 48.4283 147.663 45.0283C147.786 49.0062 147.956 52.4175 148.071 54.8556C151.112 56.2609 150.517 55.9861 153.547 57.3853C154.815 56.521 156.471 55.3927 158.085 54.2927C157.827 50.3672 157.706 48.2936 157.399 44.4861C157.449 46.1111 157.714 52.549 157.798 54.1501Z" fill="#43A895"/>
<path d="M138.604 40.4503C138.93 40.4503 139.193 40.1866 139.193 39.8612C139.193 39.5359 138.93 39.2722 138.604 39.2722C138.279 39.2722 138.015 39.5359 138.015 39.8612C138.015 40.1866 138.279 40.4503 138.604 40.4503Z" fill="#43A895"/>
<path d="M139.453 49.487C139.778 49.487 140.042 49.2232 140.042 48.8977C140.042 48.5723 139.778 48.3085 139.453 48.3085C139.127 48.3085 138.863 48.5723 138.863 48.8977C138.863 49.2232 139.127 49.487 139.453 49.487Z" fill="#43A895"/>
<path d="M138.676 59.3436C139.001 59.3436 139.265 59.0798 139.265 58.7543C139.265 58.4289 139.001 58.165 138.676 58.165C138.351 58.165 138.087 58.4289 138.087 58.7543C138.087 59.0798 138.351 59.3436 138.676 59.3436Z" fill="#43A895"/>
<path d="M137.497 69.5216C137.823 69.5216 138.087 69.2577 138.087 68.9323C138.087 68.6068 137.823 68.343 137.497 68.343C137.172 68.343 136.908 68.6068 136.908 68.9323C136.908 69.2577 137.172 69.5216 137.497 69.5216Z" fill="#43A895"/>
<path d="M161.155 50.4805L161.517 59.4737C162.632 84.5541 163.826 85.3249 163.973 86.6416C161.838 78.8077 161.141 58.5732 161.155 50.4805Z" fill="#43A895"/>
<path d="M161.155 35.9405C161.155 35.9405 161.264 40.9653 163.086 45.0739C164.907 49.1823 172.383 52.6923 171.228 47.3746C170.073 42.0566 161.292 32.0801 161.155 35.9405Z" fill="#3CDDD5"/>
<path d="M168.362 19.6261C168.362 19.6261 166.028 23.7417 170.466 25.9234C170.466 25.9234 169.102 28.7723 172.778 31.1444C172.778 31.1444 172.483 34.5731 175.433 36.0846C175.433 36.0846 174.838 38.7842 177.783 40.8653C177.783 40.8653 177.78 43.462 180.772 44.5967C180.772 44.5967 181.085 47.5625 184.165 48.5012C187.245 49.4399 185.239 42.6471 185.239 42.6471L175.511 21.5131L168.362 19.6261Z" fill="white"/>
<path d="M168.362 19.626L178.604 12.4038L197.456 14.1711L214.751 23.812L219.555 39.3998L219.411 42.0679L185.963 49.839L168.362 19.626Z" fill="#FF5B7E"/>
<path d="M207.96 69.0016L166.492 79.6659C156.109 82.3359 145.527 76.0837 142.856 65.6999L141.699 61.2009L220.768 40.8672L221.925 45.3664C224.595 55.75 218.343 66.332 207.96 69.0016Z" fill="#FF5B7E"/>
<path opacity="0.5" d="M212.032 43.1139C212.169 52.8267 205.678 61.7357 195.854 64.262L158.511 73.8655C154.639 74.861 150.743 74.7377 147.163 73.6987C152.373 78.9049 160.12 81.3046 167.77 79.3369L205.114 69.7339C216.636 66.7703 223.575 55.0279 220.612 43.5052L219.985 41.0686L212.032 43.1139Z" fill="#E03268"/>
<path opacity="0.5" d="M186.654 48.1263L214.751 23.812L219.555 39.3998L203.703 45.2595L186.654 48.1263Z" fill="#FF85A5"/>
<path d="M220.461 42.7671L141.13 63.168C140.29 63.384 139.433 62.8779 139.218 62.038L139.132 61.7041C138.916 60.8636 139.422 60.0072 140.262 59.791L219.592 39.3902C220.433 39.174 221.289 39.6803 221.506 40.5203L221.591 40.8542C221.807 41.6946 221.301 42.5508 220.461 42.7671Z" fill="#E03268"/>
<path d="M191.586 74.0741L172.16 111.79C171.648 112.791 172.046 114.018 173.047 114.53C174.049 115.042 175.276 114.644 175.787 113.643L196.546 73.6867C194.95 73.4737 191.93 75.0475 191.586 74.0741Z" fill="white"/>
<path d="M214.168 69.2236L162.614 82.4816C161.765 82.7 160.9 82.1888 160.681 81.3397L160.595 81.0029C160.376 80.1538 160.887 79.2887 161.737 79.0701L213.291 65.8123C214.14 65.5939 215.005 66.1048 215.223 66.9541L215.31 67.291C215.528 68.1401 215.017 69.0059 214.168 69.2236Z" fill="white"/>
<path d="M234.501 97.202L139.644 48.9663C138.642 48.4546 138.245 47.2278 138.756 46.2263C139.268 45.2246 140.495 44.8271 141.497 45.3388L236.353 93.5742C237.355 94.0854 237.752 95.3127 237.24 96.3142C236.729 97.316 235.502 97.7137 234.501 97.202Z" fill="white"/>
<path opacity="0.5" d="M178.604 12.4038L185.759 47.6334L186.912 47.3371L187.76 43.9069L197.456 14.1711L178.604 12.4038Z" fill="#FF85A5"/>
<path d="M206.51 77.3483L182.991 65.3887C182.233 65.0031 181.307 65.2917 180.903 66.0396L179.725 68.2166C179.305 68.9918 179.607 69.9593 180.393 70.359L190.066 75.2781L185.216 84.6958C184.822 85.4597 185.118 86.3982 185.878 86.7988L188.211 88.0293C188.98 88.4346 189.932 88.1369 190.332 87.3657L195.244 77.9109L203.863 82.2944C204.609 82.6734 205.521 82.4003 205.935 81.6734L207.162 79.5204C207.604 78.7435 207.307 77.7538 206.51 77.3483Z" fill="#333333"/>
<path d="M215.355 23.1979C215.101 22.9671 214.716 22.9622 214.457 23.1878C211.579 25.6978 195.282 40.0098 187.337 46.6383L198.09 14.3172C198.204 13.9616 198.008 13.5806 197.653 13.4661L197.649 13.4647C197.293 13.3504 196.912 13.5462 196.797 13.9017L186.121 47.1268L179.317 12.5462C179.244 12.1797 178.889 11.9409 178.522 12.0128L178.518 12.014C178.151 12.0859 177.912 12.4415 177.984 12.8084L185.298 49.9791C185.433 50.6647 186.392 50.7203 186.606 50.0552L187.305 47.8786C187.344 47.7577 187.415 47.6511 187.513 47.5701C191.06 44.6121 211.634 27.4481 215.347 24.207C215.652 23.9408 215.655 23.4695 215.355 23.1979Z" fill="#E03268"/>
<path d="M186.216 52.8297C188.104 52.8297 189.635 51.2987 189.635 49.4103C189.635 47.5218 188.104 45.9908 186.216 45.9908C184.327 45.9908 182.796 47.5218 182.796 49.4103C182.796 51.2987 184.327 52.8297 186.216 52.8297Z" fill="#333333"/>
<path d="M186.216 51.8283C187.551 51.8283 188.634 50.7457 188.634 49.4103C188.634 48.075 187.551 46.9924 186.216 46.9924C184.881 46.9924 183.798 48.075 183.798 49.4103C183.798 50.7457 184.881 51.8283 186.216 51.8283Z" fill="#DBE0F0"/>
<path d="M138.823 49.3618L163.637 61.9808C164.489 62.4135 165.53 62.0751 165.964 61.2243L166.762 59.6609C167.197 58.8084 166.858 57.7643 166.005 57.3309L141.195 44.7151C139.912 44.0598 138.341 44.5686 137.685 45.8523C137.031 47.135 137.539 48.7065 138.823 49.3618Z" fill="#333333"/>
</g>
</svg>
