<svg width="174" height="46" viewBox="0 0 174 46" fill="none" xmlns="http://www.w3.org/2000/svg">
<path d="M34.6067 0V45.748H23.071V34.3109H11.5357V45.748H0V11.4367L11.5357 0H34.6067ZM23.0718 22.8742V11.4371H11.2639L11.5357 22.8742H23.0718Z" fill="#3366FF"/>
<path d="M75.1344 34.3109V45.748H40.5273V0H52.063V34.3109H75.1344Z" fill="#3366FF"/>
<path d="M92.4389 45.7484H81.0566V0H92.4389V45.7484Z" fill="#3366FF"/>
<path d="M109.741 34.3105H121.277V22.8738H132.813V45.7484H98.2051V0H132.813V11.4375H109.741V34.3105Z" fill="#3366FF"/>
<path d="M161.346 45.7484H138.428V0H173.034L173.035 34.3109L161.346 45.7484ZM161.499 11.4379H149.963V34.3109H161.482L161.499 11.4379Z" fill="#F567F9"/>
</svg>
