<svg width="170" height="46" viewBox="0 0 170 46" fill="none" xmlns="http://www.w3.org/2000/svg">
<path d="M33.9995 0V45.9996H22.6662V34.4996H11.3333V45.9996H0V11.4996L11.3333 0H33.9995ZM22.667 23V11.5H11.0663L11.3333 23H22.667Z" fill="white"/>
<path d="M73.8168 34.4996V45.9996H39.8169V0H51.1502V34.4996H73.8168Z" fill="white"/>
<path d="M90.8164 46H79.6338V0H90.8164V46Z" fill="white"/>
<path d="M107.817 34.4992H119.15V22.9996H130.483V46H96.483V0H130.483V11.5004H107.817V34.4992Z" fill="white"/>
<path d="M158.516 46H136V0H169.999L170 34.4996L158.516 46ZM158.666 11.5008H147.333V34.4996H158.65L158.666 11.5008Z" fill="#F567F9"/>
</svg>
