<svg width="200" height="75" viewBox="0 0 200 75" fill="none" xmlns="http://www.w3.org/2000/svg">
<mask id="mask0_1282_12408" style="mask-type:alpha" maskUnits="userSpaceOnUse" x="0" y="0" width="200" height="75">
<rect width="200" height="75" rx="6" transform="matrix(-1 0 0 1 200 0)" fill="#D9D9D9"/>
</mask>
<g mask="url(#mask0_1282_12408)">
<path d="M45.0001 59.9999L49.0001 79.4999L244.5 83.4999L244.5 50.4999L244.5 13.9999L229 41.4999L215 13.9999L206 37.4999L190.5 20.4999L193 41.4999L164.5 20.4999L162.5 44.9999L120.5 22.4999L132 50.4999L97.0001 30.9999L100.5 50.4999L72.0001 33.9999L78.0001 59.9999L60.5001 50.4999L60.5001 68.9999L45.0001 59.9999Z" fill="#A4DCFF"/>
<path d="M176.386 10.7308L173.915 13.7838L177.43 14.8373L175.122 17.6845L178.637 18.7386L176.329 21.5857L179.841 22.635L177.535 25.486L181.048 26.5359L178.743 29.3877L182.252 30.4323L179.946 33.2841L183.463 34.3305L181.151 37.1805L184.667 38.2278L182.359 41.0748L185.871 42.1237L183.563 44.9711L187.076 46.02L184.768 48.8679L188.28 49.9172L185.974 52.7684L189.488 53.811L187.178 56.6652L190.695 57.7121L188.387 60.5585L191.899 61.6082L189.591 64.4555L193.101 65.5002L190.795 68.3522L194.312 69.3987L191.999 72.2486L195.514 73.2909L193.765 75.4529L203.692 78.0624L217.901 61.0923L186.191 6.77113L176.386 10.7308ZM182.422 12.4075C183.086 12.0206 183.937 12.2439 184.324 12.9068L185.669 15.21C186.055 15.8725 185.832 16.724 185.168 17.1109C184.505 17.4978 183.654 17.2741 183.268 16.6114L181.923 14.3084C181.536 13.6457 181.76 12.7948 182.422 12.4075Z" fill="#999999"/>
<path d="M201.02 64.0406L197.841 74.0882L208.539 92.4138C208.825 92.9039 209.363 93.1963 209.934 93.1643C210.358 93.145 210.752 92.943 211.018 92.6261C211.104 92.5257 211.185 92.4058 211.243 92.2774L213.934 86.3737C214.246 85.6965 214.722 85.1008 215.318 84.6521L220.328 80.8813C220.994 80.37 221.795 80.0639 222.633 79.9925L228.467 79.4722C228.516 79.4708 228.571 79.4611 228.616 79.4515C229.072 79.3636 229.475 79.0726 229.687 78.6539C229.924 78.1917 229.912 77.6371 229.648 77.1841L218.313 57.7664L201.02 64.0406ZM219.717 69.4544C220.812 70.9096 220.524 72.9825 219.064 74.0789L210.852 80.265C209.397 81.3593 207.329 81.0686 206.228 79.6121C206.15 79.5071 206.081 79.397 206.015 79.2852C205.183 77.8607 205.533 76.0078 206.883 74.9917L215.095 68.8059C216.552 67.7046 218.623 67.9994 219.717 69.4544Z" fill="#F7B10D"/>
<path d="M213.177 57.533L196.026 28.1542L187.085 40.2496L195.42 66.9133L199.61 61.3298L213.177 57.533Z" fill="#CCCCCC"/>
<path d="M188.316 50.6659L189.784 51.7992L201.851 36.1759L200.384 35.0426L188.316 50.6659Z" fill="#999999"/>
<path d="M189.42 56.2226L191.62 57.9213L205.289 40.2143L203.089 38.5156L189.42 56.2226Z" fill="#999999"/>
<path d="M136.847 18.088L155.428 38.638L156.894 37.3126L138.313 16.7629L136.669 16.4175L136.847 18.088Z" fill="#808080"/>
<mask id="mask1_1282_12408" style="mask-type:luminance" maskUnits="userSpaceOnUse" x="136" y="16" width="21" height="23">
<path d="M136.847 18.088L155.428 38.638L156.894 37.3126L138.313 16.7629L136.669 16.4175L136.847 18.088Z" fill="white"/>
</mask>
<g mask="url(#mask1_1282_12408)">
<path d="M148.229 35.4534L149.512 35.7487L151.473 27.2238L150.19 26.9285L148.229 35.4534Z" fill="#CCCCCC"/>
<path d="M145.447 32.3692L146.731 32.6649L148.695 24.1408L147.411 23.8451L145.447 32.3692Z" fill="#CCCCCC"/>
<path d="M142.655 29.2913L143.94 29.5872L145.904 21.063L144.62 20.7671L142.655 29.2913Z" fill="#CCCCCC"/>
<path d="M139.876 26.2118L141.159 26.5077L143.124 17.9839L141.841 17.688L139.876 26.2118Z" fill="#CCCCCC"/>
<path d="M137.092 23.1268L138.375 23.4227L140.341 14.8991L139.057 14.6032L137.092 23.1268Z" fill="#CCCCCC"/>
</g>
<path d="M157.293 55.6559L159.501 58.0986L161.63 56.174L163.838 58.617L161.71 60.5414L163.919 62.9839L162.8 63.9948L161.739 62.8205C161.551 62.6132 161.284 62.4949 161.004 62.4952C160.723 62.4962 160.457 62.616 160.269 62.8248C158.153 65.1858 156.282 67.0033 154.352 68.7478C152.169 70.7217 149.901 72.6127 146.826 74.7875L147.956 76.0378L146.368 77.4734L141.114 71.6625L142.702 70.2267L143.832 71.4768C146.305 68.6355 148.414 66.5686 150.597 64.5947C152.526 62.8504 154.523 61.1699 157.084 59.3015C157.31 59.1367 157.456 58.8836 157.485 58.6046C157.514 58.3259 157.423 58.0476 157.235 57.8396L156.174 56.6659L157.293 55.6559Z" fill="#363636"/>
<path d="M146.42 70.5734C146.542 70.7081 146.75 70.719 146.885 70.597L157.285 61.1931C157.421 61.0708 157.431 60.8627 157.309 60.7278C157.187 60.5929 156.979 60.582 156.844 60.7043L146.444 70.1084C146.308 70.2304 146.298 70.4385 146.42 70.5734Z" fill="#808080"/>
<path d="M159.501 58.1004L161.71 60.5432L163.838 58.6189L161.628 56.1762L159.501 58.1004Z" fill="#808080"/>
<path d="M159.828 58.4573L160.335 59.0173L162.463 57.0936L161.957 56.5336L159.828 58.4573Z" fill="#CCCCCC"/>
<path d="M173.455 97.7348L173.366 97.6369C172.47 96.6457 172.458 95.1396 173.337 94.1343L181.914 84.3366C182.532 83.6293 183.424 83.2204 184.365 83.2127C185.305 83.205 186.203 83.5997 186.834 84.2973L187.406 84.9305C190.486 88.3371 195.745 88.6017 199.152 85.5215C202.558 82.4415 202.823 77.1829 199.742 73.7762L176.884 48.4955L172.982 44.1798L160.648 55.3327L164.548 59.6496L174.004 70.1073C174.372 71.1923 174.093 72.439 173.188 73.2568C172.461 73.9148 171.496 74.1408 170.604 73.9583L172.422 75.9694C172.982 76.5891 172.99 77.53 172.44 78.1583L166.183 85.307C165.688 85.8732 164.974 86.2001 164.222 86.206C163.47 86.2121 162.75 85.8967 162.246 85.3386L173.455 97.7348Z" fill="#363636"/>
<path d="M172.422 75.1269C172.511 75.2245 172.653 75.2634 172.783 75.2138C173.299 75.0176 173.769 74.7294 174.183 74.3557C174.634 73.9478 174.99 73.4632 175.242 72.9144C175.318 72.749 175.245 72.5533 175.08 72.4778C174.914 72.4016 174.72 72.4742 174.643 72.6394C174.429 73.1069 174.125 73.5196 173.741 73.8674C173.389 74.1852 172.988 74.4315 172.55 74.5983C172.38 74.6627 172.294 74.8533 172.359 75.0229C172.374 75.0625 172.396 75.0976 172.422 75.1269Z" fill="#808080"/>
<path d="M169.639 44.5378L164.78 39.1639L156.474 46.6735L161.333 52.0473L169.639 44.5378Z" fill="#363636"/>
<mask id="mask2_1282_12408" style="mask-type:luminance" maskUnits="userSpaceOnUse" x="156" y="39" width="14" height="14">
<path d="M169.639 44.5378L164.78 39.1639L156.474 46.6735L161.333 52.0473L169.639 44.5378Z" fill="white"/>
</mask>
<g mask="url(#mask2_1282_12408)">
<path d="M161.83 40.2773L164.922 43.6973C165.227 44.0348 165.747 44.0611 166.085 43.7558C166.422 43.4507 166.448 42.9303 166.143 42.5931L163.051 39.1735C162.746 38.836 162.226 38.8096 161.888 39.115C161.551 39.42 161.525 39.9404 161.83 40.2773Z" fill="#4D4D4D"/>
<path d="M159.367 42.5041L162.46 45.9241C162.765 46.2614 163.285 46.2875 163.622 45.9826C163.959 45.6775 163.986 45.1571 163.681 44.8199L160.588 41.3999C160.283 41.0626 159.763 41.036 159.426 41.3413C159.089 41.6464 159.063 42.167 159.367 42.5041Z" fill="#4D4D4D"/>
<path d="M156.905 44.731L159.997 48.1506C160.302 48.4879 160.823 48.514 161.16 48.2091C161.497 47.9042 161.524 47.3836 161.219 47.0463L158.127 43.6261C157.822 43.289 157.301 43.2627 156.964 43.5678C156.626 43.8727 156.6 44.3933 156.905 44.731Z" fill="#4D4D4D"/>
</g>
<path d="M164.781 39.162L156.476 46.6716L154.755 41.1239L154.108 39.0445L157.431 36.0406L159.435 36.892L164.781 39.162Z" fill="#363636"/>
<path d="M161.828 51.6027L163.153 53.0682L170.481 46.4425L169.156 44.9769L161.828 51.6027Z" fill="#999999"/>
<path d="M159.435 36.8919L158.492 37.7445L156.5 36.8819L157.431 36.0405L159.435 36.8919Z" fill="#999999"/>
<path d="M156.011 37.3235L157.803 38.3675L154.754 41.1238L154.108 39.0443L156.011 37.3235Z" fill="#999999"/>
<path d="M156.862 36.5498L155.758 35.3287L154.903 36.102L156.007 37.3231L156.862 36.5498Z" fill="#999999"/>
<path d="M154.416 36.547L153.561 37.3201L154.666 38.541L155.521 37.7679L154.416 36.547Z" fill="#999999"/>
<path d="M170.657 94.6415C170.097 94.022 170.09 93.0812 170.64 92.4526L181.013 80.6011C181.323 80.2477 181.769 80.0429 182.239 80.0388C182.709 80.0351 183.159 80.2324 183.474 80.5811L187.406 84.9305L199.742 73.7764L176.884 48.4957L164.548 59.6498L179.693 76.3997C180.253 77.0192 180.261 77.9604 179.71 78.5886L169.337 90.4404C169.027 90.7942 168.582 90.9989 168.111 91.0026C167.641 91.0063 167.192 90.8092 166.877 90.4601L162.144 85.2258C161.168 84.1466 159.502 84.0627 158.423 85.0389L158.445 85.0187L171.522 99.482L173.454 97.7353L170.657 94.6415Z" fill="#F7B10D"/>
<path d="M196.915 83.048C194.622 85.1217 191.081 84.9435 189.008 82.6505C186.934 80.3572 187.112 76.8166 189.406 74.7426C191.699 72.6695 195.239 72.8474 197.313 75.1405C199.387 77.4338 199.209 80.9744 196.915 83.048Z" fill="#F7B10D"/>
<path d="M176.566 51.3361C176.364 51.5185 176.347 51.8313 176.531 52.0334L196.778 74.4257C196.961 74.628 197.273 74.6436 197.475 74.4609C197.678 74.2782 197.693 73.9655 197.51 73.7634L177.263 51.3708C177.08 51.1685 176.768 51.1532 176.566 51.3361Z" fill="#F3DE9C"/>
<path d="M178.362 54.578C178.905 54.5297 179.307 54.05 179.259 53.5066C179.21 52.9631 178.731 52.5617 178.187 52.61C177.644 52.6583 177.242 53.1379 177.291 53.6814C177.339 54.2249 177.819 54.6263 178.362 54.578Z" fill="#F3DE9C"/>
<path d="M178.53 54.248C178.983 54.2078 179.318 53.8081 179.278 53.3552C179.237 52.9023 178.838 52.5678 178.385 52.6081C177.932 52.6483 177.597 53.048 177.638 53.5009C177.678 53.9538 178.077 54.2883 178.53 54.248Z" fill="#363636"/>
<path d="M195.892 73.9654C196.435 73.9171 196.837 73.4373 196.788 72.8937C196.74 72.3501 196.26 71.9486 195.717 71.9969C195.173 72.0452 194.772 72.525 194.82 73.0686C194.868 73.6122 195.348 74.0137 195.892 73.9654Z" fill="#F3DE9C"/>
<path d="M196.061 73.6351C196.514 73.5949 196.848 73.1952 196.808 72.7423C196.768 72.2894 196.368 71.9549 195.915 71.9952C195.462 72.0354 195.128 72.4351 195.168 72.888C195.208 73.3408 195.608 73.6753 196.061 73.6351Z" fill="#363636"/>
<path d="M194.43 75.1103L174.899 53.5081L169.485 58.4025L189.017 80.0048L194.43 75.1103Z" fill="#D18B00"/>
<path d="M176.985 72.0303L178.863 74.1066C179.167 74.4439 179.688 74.47 180.025 74.1649C180.362 73.86 180.389 73.3394 180.084 73.0022L178.207 70.926C177.901 70.5886 177.381 70.5625 177.044 70.8675C176.706 71.1724 176.68 71.693 176.985 72.0303Z" fill="#F3DE9C"/>
<path d="M177.229 71.8095L179.106 73.8859C179.412 74.2231 179.932 74.2492 180.269 73.9444C180.607 73.6395 180.633 73.1189 180.328 72.7816L178.45 70.7053C178.145 70.3681 177.625 70.3419 177.287 70.6468C176.951 70.9519 176.924 71.4721 177.229 71.8095Z" fill="#363636"/>
<path d="M169.749 47.1056L168.424 45.6399L167.447 46.5233L168.772 47.9891L169.749 47.1056Z" fill="#CCCCCC"/>
<path d="M168.139 48.5601L166.814 47.0942L166.081 47.7571L167.406 49.2229L168.139 48.5601Z" fill="#CCCCCC"/>
<path d="M158.492 37.7445L157.803 38.3676L156.011 37.3235L156.5 36.8818L158.492 37.7445Z" fill="#CCCCCC"/>
<path d="M163.804 40.0451L162.583 41.1495L157.803 38.3677L158.492 37.7446L163.804 40.0451Z" fill="#999999"/>
<path d="M155.387 40.5521L156.237 39.7837L154.912 38.3175L154.729 38.4835L155.387 40.5521Z" fill="#CCCCCC"/>
<path d="M157.143 46.0681L159.771 43.6918L156.237 39.7836L155.387 40.552L157.143 46.0681Z" fill="#4D4D4D"/>
<path d="M172.369 54.2456L193.388 77.4934L193.877 77.0519L172.857 53.8041L172.369 54.2456Z" fill="#F7B10D"/>
<path d="M159.347 70.7987C158.864 68.4991 157.755 66.1969 156.295 64.2906C151.658 58.235 145.795 55.3118 142.039 50.4065L134.787 40.9365C134.487 40.5454 133.929 40.4712 133.538 40.7705L125.81 46.688C125.419 46.9874 125.345 47.5466 125.644 47.9376L132.895 57.4076C134.614 59.6513 138.35 67.6287 137.903 70.9794C137.341 75.219 124.33 75.7351 117.748 80.7759C116.509 81.7236 114.641 83.2281 114.641 83.2281L119.15 86.0366L122.034 87.8343L139.545 79.5738C140.975 78.8985 142.563 78.6911 144.081 78.957C144.893 79.0951 145.682 79.3686 146.416 79.7779C146.593 79.875 146.774 79.9732 146.963 80.0654C151.525 78.7196 156.98 74.4358 159.347 70.7987Z" fill="#A2A6A7"/>
<path d="M136.026 73.9476L135.173 72.834C135.027 72.6436 135.063 72.3719 135.254 72.226L136.195 71.5054C136.385 71.3596 136.657 71.3957 136.803 71.5862L137.656 72.6997L136.026 73.9476Z" fill="#4D4D4D"/>
<path d="M158.099 72.4455C157.236 69.984 155.895 67.4195 154.461 65.5473C151.555 61.751 142.466 54.0143 140.84 51.8913L132.774 41.3557L129.299 44.016L154 76.2741C155.561 75.0861 156.98 73.759 158.099 72.4455Z" fill="#D1D1CF"/>
<path d="M133.513 74.4304C133.513 74.4304 132.867 73.7986 132.515 73.694C132.327 73.8714 130.282 75.1319 129.164 75.205C128.97 75.2854 128.792 75.8262 128.801 75.9738C128.803 76.1107 133.513 74.4304 133.513 74.4304Z" fill="#4D4D4D"/>
<path d="M157.71 72.8954C156.849 70.3969 155.489 67.7793 154.031 65.8763C151.125 62.0804 142.037 54.343 140.411 52.2202L132.344 41.6847L131.914 42.0134L139.982 52.5489C141.607 54.6719 150.696 62.4088 153.602 66.2047C155.078 68.1319 156.454 70.791 157.313 73.3178C157.447 73.1778 157.583 73.0365 157.71 72.8954Z" fill="#808080"/>
<path d="M150.96 78.2921C148.475 76.0233 146.019 73.3146 145.193 72.236C143.715 70.3061 136.956 57.2133 135.527 55.3479L127.755 45.1981L126.948 45.817C128.902 48.2309 133.728 54.1982 134.899 55.7267C136.377 57.6568 141.155 68.6944 144.406 72.9404C145.849 74.8248 148.092 76.9531 150.142 78.7405C150.415 78.5982 150.688 78.4486 150.96 78.2921Z" fill="#E7E8EB"/>
<path d="M133.859 40.5243C130.154 35.7278 125.329 33.254 123.052 34.9977C120.775 36.7412 121.905 42.0442 125.569 46.8727L133.859 40.5243Z" fill="#4D4D4D"/>
<path d="M125.021 40.5306L119.328 33.767L122.835 31.082L127.88 38.3415C128.424 39.1248 128.257 40.1976 127.499 40.7777L127.472 40.7986C126.714 41.3784 125.635 41.2603 125.021 40.5306Z" fill="#666666"/>
<path d="M150.34 80.4138C150.229 80.2688 150.256 80.0615 150.401 79.9505L150.406 79.9462C150.551 79.8354 150.759 79.8627 150.87 80.0076L151.848 81.286C152.118 81.2811 152.39 81.2611 152.665 81.2278L151.743 80.0246C151.633 79.8799 151.66 79.6724 151.805 79.5612L151.81 79.557C151.955 79.4462 152.163 79.4743 152.274 79.6188L153.414 81.1076C153.651 81.0553 153.889 80.9942 154.129 80.9176L153.147 79.6364C153.037 79.4915 153.064 79.2838 153.209 79.1727L153.214 79.1688C153.359 79.0575 153.567 79.0855 153.678 79.2303L154.785 80.6751C154.994 80.5862 155.204 80.4848 155.415 80.3742L154.393 79.0398C154.282 78.8947 154.309 78.6872 154.454 78.5763L154.459 78.5722C154.604 78.4615 154.812 78.4889 154.923 78.6337L155.997 80.0365C156.19 79.9143 156.384 79.7823 156.576 79.6387C156.622 79.6079 156.663 79.5762 156.707 79.5429C156.767 79.4973 156.821 79.4489 156.879 79.4021L155.785 77.9727C155.674 77.8283 155.702 77.6208 155.847 77.5102L155.852 77.5057C155.997 77.3949 156.204 77.4222 156.315 77.5671L157.38 78.9576C157.547 78.7946 157.706 78.6266 157.854 78.4524L156.685 76.9264C156.574 76.7817 156.602 76.5742 156.747 76.4632L156.752 76.459C156.897 76.3482 157.105 76.3756 157.215 76.5201L158.274 77.9022C158.413 77.701 158.543 77.4946 158.659 77.2823L157.427 75.6724C157.315 75.5273 157.343 75.3198 157.488 75.2086L157.493 75.2048C157.638 75.0936 157.846 75.1213 157.956 75.2664L158.983 76.6072C159.002 76.5621 159.024 76.5177 159.042 76.4728C159.124 76.2661 159.195 76.0564 159.259 75.8428L158.168 74.418C158.056 74.2732 158.084 74.0653 158.229 73.9547L158.234 73.9502C158.379 73.8394 158.587 73.8669 158.697 74.0118L159.457 75.0049C159.708 73.669 159.652 72.235 159.346 70.7977C156.979 74.435 151.523 78.7186 146.962 80.0649C148.119 80.6493 149.501 81.1338 150.985 81.2581L150.34 80.4138Z" fill="#4D4D4D"/>
<path d="M106.163 56.8658L94.4843 39.2671L94.796 38.9137L107.584 56.9116L106.163 56.8658Z" fill="#E6E6E6"/>
<path d="M106.084 55.7412C106.227 55.992 106.15 56.311 105.909 56.4695L105.777 56.5556C105.479 56.7509 105.382 57.1432 105.556 57.4547L113.862 72.3767C114.186 72.9597 113.957 73.6714 113.384 74.0136C112.356 74.6286 111.572 75.6588 111.313 76.9533C110.909 78.9713 111.999 81.0661 113.889 81.8806C114.693 82.2272 115.526 82.3167 116.311 82.2005L117.282 86.4469C117.319 86.6114 117.487 86.7105 117.649 86.6644L118.348 86.4673C118.51 86.422 118.601 86.2494 118.547 86.0899L117.164 81.9842C118.611 81.4636 119.767 80.2073 120.048 78.5253C120.29 77.0766 119.721 75.5948 118.657 74.5819C118.245 74.1897 117.817 73.9131 117.383 73.7245C116.213 73.2178 115.261 72.3152 114.641 71.2009L112.107 66.6484L112.545 62.2903C112.594 61.8064 112.493 61.3195 112.256 60.8941L108.832 54.7416L96.0298 39.0467C95.8581 38.8035 95.5509 38.6956 95.2648 38.7784L94.7966 38.9136L106.084 55.7412ZM116.568 74.6506C118.315 75.1486 119.327 76.9682 118.83 78.7144C118.332 80.4619 116.513 81.4745 114.766 80.9773C113.019 80.4791 112.007 78.6599 112.504 76.9126C113.002 75.1658 114.821 74.1532 116.568 74.6506Z" fill="#9AA1A3"/>
<path d="M112.062 76.8667C111.564 78.6135 112.577 80.4331 114.324 80.9305C114.578 81.0028 114.833 81.0403 115.085 81.0503C114.979 81.0314 114.872 81.007 114.766 80.9772C113.019 80.4789 112.006 78.6597 112.504 76.9125C112.929 75.4196 114.32 74.4667 115.806 74.5308C114.162 74.2332 112.529 75.2266 112.062 76.8667Z" fill="#7A8082"/>
<path d="M111.815 60.8479C112.052 61.2728 112.152 61.7599 112.103 62.2444L111.666 66.6021L114.2 71.1554C114.82 72.2684 115.771 73.1711 116.941 73.6784C117.376 73.8669 117.804 74.1433 118.216 74.5358C119.28 75.5485 119.848 77.0301 119.606 78.4794C119.326 80.1608 118.169 81.4175 116.722 81.9381L118.106 86.0438C118.159 86.2035 118.069 86.3752 117.907 86.4212L117.355 86.5765C117.427 86.656 117.538 86.6958 117.649 86.6645L118.349 86.4674C118.511 86.4221 118.602 86.2495 118.548 86.0899L117.164 81.9843C118.611 81.4637 119.768 80.2066 120.048 78.5254C120.29 77.0767 119.722 75.5949 118.658 74.582C118.245 74.1898 117.817 73.9132 117.383 73.7246C116.214 73.2179 115.262 72.3153 114.642 71.201L112.108 66.6485L112.546 62.2904C112.594 61.8065 112.493 61.3196 112.257 60.8941L111.815 60.8479Z" fill="#7A8082"/>
<path d="M114.103 72.1029L105.797 57.1806C105.683 56.975 105.696 56.7389 105.797 56.5426L105.777 56.5558C105.479 56.7511 105.382 57.1434 105.556 57.4549L113.862 72.3769C114.088 72.7839 114.04 73.2497 113.799 73.6123C114.24 73.2404 114.392 72.6225 114.103 72.1029Z" fill="#E1E9EB"/>
<path d="M118.561 86.2018L117.89 86.3907C117.728 86.4358 117.561 86.3368 117.523 86.1724L116.553 81.9266C115.767 82.0421 114.935 81.9528 114.131 81.6068C112.24 80.7923 111.151 78.6977 111.555 76.6793C111.703 75.941 112.025 75.2924 112.462 74.7543C111.9 75.3391 111.487 76.085 111.313 76.9535C110.909 78.9715 111.999 81.0662 113.889 81.8808C114.693 82.2274 115.525 82.3169 116.311 82.2007L117.282 86.447C117.319 86.6115 117.487 86.7106 117.649 86.6646L118.348 86.4675C118.473 86.4321 118.553 86.3226 118.561 86.2018Z" fill="#E1E9EB"/>
<path d="M119.072 78.4404C119.569 76.6934 118.556 74.8738 116.809 74.3766C115.466 73.9943 114.086 74.5102 113.291 75.5607C114.107 74.702 115.35 74.3033 116.568 74.6503C118.315 75.1484 119.327 76.968 118.83 78.7142C118.715 79.1184 118.523 79.477 118.284 79.7927C118.639 79.4199 118.921 78.9693 119.072 78.4404Z" fill="#E1E9EB"/>
<path d="M119.808 75.3432C120.244 75.3045 120.565 74.9199 120.527 74.4843C120.488 74.0486 120.103 73.7268 119.668 73.7655C119.232 73.8042 118.91 74.1887 118.949 74.6244C118.988 75.0601 119.372 75.3819 119.808 75.3432Z" fill="#B8C1C4"/>
<path d="M120.849 73.4436L120.016 74.0763L120.383 74.5594L121.216 73.9267L120.849 73.4436Z" fill="#B8C1C4"/>
<path d="M107.907 54.7762L94.7988 38.9821L94.5296 39.1412L106.798 55.4404L107.907 54.7762Z" fill="#7A8082"/>
<path d="M94.5295 39.1413L94.2383 39.5317C94.0601 39.7705 94.0528 40.096 94.2199 40.3424L104.945 56.8315L109.496 62.2043C109.811 62.5754 110.231 62.8415 110.701 62.9665L114.934 64.0922L118.302 68.0686C119.126 69.041 119.636 70.25 119.697 71.5229C119.721 71.996 119.829 72.4943 120.051 73.018C120.623 74.3707 121.81 75.4242 123.251 75.709C126.096 76.27 128.698 74.0391 128.561 71.1277C128.465 69.0718 126.889 67.3141 124.857 66.9807C123.555 66.7672 122.315 67.1371 121.377 67.8828C120.854 68.2985 120.108 68.2625 119.677 67.7535L108.638 54.722C108.408 54.4502 108.007 54.4023 107.719 54.6123L107.592 54.7049C107.359 54.8751 107.033 54.8346 106.849 54.6118L94.5295 39.1413ZM124.401 68.0804C126.21 68.2306 127.557 69.8194 127.406 71.6298C127.257 73.4403 125.668 74.7858 123.857 74.6359C122.047 74.486 120.701 72.8972 120.851 71.0872C121.001 69.2769 122.59 67.9306 124.401 68.0804Z" fill="#B8C1C4"/>
<path d="M127.941 71.0424C128.068 73.7541 125.82 75.8729 123.212 75.6977C123.226 75.7011 123.238 75.7056 123.251 75.7086C126.096 76.2696 128.698 74.0387 128.561 71.1273C128.465 69.0714 126.889 67.3137 124.857 66.9803C124.69 66.9533 124.524 66.9359 124.359 66.9274C126.329 67.311 127.847 69.0296 127.941 71.0424Z" fill="#7A8082"/>
<path d="M108.018 54.637L119.057 67.6687C119.329 67.9908 119.727 68.122 120.116 68.0706C119.953 68.0021 119.801 67.8998 119.677 67.7531L108.638 54.7217C108.45 54.4988 108.15 54.4359 107.888 54.5323C107.933 54.5645 107.98 54.5932 108.018 54.637Z" fill="#7A8082"/>
<path d="M120.526 70.3952C120.032 72.1461 121.05 73.9724 122.8 74.4749C123.054 74.5479 123.31 74.5849 123.562 74.5964C123.456 74.577 123.349 74.5521 123.242 74.5219C121.492 74.0194 120.474 72.1927 120.969 70.4428C121.392 68.9466 122.783 67.9936 124.271 68.0605C122.625 67.7592 120.991 68.7511 120.526 70.3952Z" fill="#7A8082"/>
<path d="M108.281 57.9977C108.564 57.9726 108.773 57.7228 108.748 57.4399C108.723 57.1569 108.473 56.9479 108.19 56.973C107.907 56.9982 107.698 57.2479 107.723 57.5309C107.748 57.8138 107.998 58.0228 108.281 57.9977Z" fill="#7A8082"/>
<path d="M127.518 71.9798C128.016 70.2332 127.003 68.4139 125.256 67.9158C123.913 67.5336 122.533 68.0494 121.738 69.1001C122.554 68.2418 123.797 67.8433 125.015 68.1898C126.762 68.6878 127.775 70.5069 127.277 72.2542C127.162 72.6577 126.97 73.0164 126.731 73.3316C127.086 72.9593 127.368 72.5088 127.518 71.9798Z" fill="#E1E9EB"/>
<path d="M98.6549 76.7552L102.988 69.4872C103.078 69.3366 103.04 69.1428 102.899 69.0376L102.561 68.7838C102.414 68.6731 102.205 68.6991 102.089 68.8423L97.5331 74.4628C97.44 74.5778 97.2727 74.5985 97.1542 74.5094L97.1499 74.5058C97.0318 74.4173 97.005 74.2506 97.089 74.1294L101.215 68.1854C101.32 68.0341 101.287 67.8266 101.139 67.7163L101.134 67.7122C100.986 67.6016 100.778 67.6272 100.662 67.7704L96.1057 73.3909C96.0125 73.5059 95.8453 73.5268 95.727 73.4381L95.7225 73.4345C95.6042 73.3456 95.5776 73.1793 95.6618 73.0579L99.7877 67.1141C99.893 66.9627 99.8594 66.7555 99.7117 66.6451L99.7063 66.641C99.559 66.5303 99.3504 66.5559 99.2349 66.6993L94.6783 72.3198C94.5853 72.4346 94.4179 72.4553 94.2998 72.3668L94.2955 72.3628C94.1772 72.2739 94.1503 72.1076 94.2348 71.9863L98.3607 66.0426C98.4655 65.891 98.4324 65.6844 98.2847 65.5733L98.2795 65.5692C98.132 65.4588 97.9234 65.4844 97.8078 65.6275L93.2515 71.2481C93.1583 71.363 92.9911 71.3841 92.8728 71.295L92.8683 71.2917C92.75 71.2026 92.7234 71.0365 92.8078 70.9148L96.9335 64.9713C97.0385 64.8195 97.0054 64.6126 96.8577 64.5016L96.8523 64.4979C96.7053 64.3874 96.4968 64.4128 96.3806 64.5558L91.8243 70.1768C91.7312 70.2917 91.5637 70.312 91.4456 70.2233L91.4411 70.2202C91.3228 70.1313 91.2959 69.9646 91.3804 69.8435L95.5063 63.8996C95.6111 63.748 95.5778 63.5409 95.4305 63.4305L95.4251 63.4264C95.278 63.3157 95.0694 63.3413 94.9536 63.4845L90.3973 69.1054C90.3044 69.2204 90.1367 69.2411 90.0184 69.152L90.0144 69.1488C89.896 69.0599 89.8692 68.8934 89.9534 68.772L94.0793 62.8283C94.1844 62.6771 94.1508 62.4694 94.0037 62.3587L93.9983 62.3548C93.8508 62.244 93.6427 62.27 93.5264 62.4128L88.9703 68.0337C88.8772 68.1489 88.7097 68.1692 88.5914 68.0805L88.5871 68.0769C88.4688 67.9884 88.442 67.8219 88.5262 67.7005L92.6523 61.7565C92.7574 61.6053 92.724 61.3979 92.5767 61.2874L92.5711 61.2831C92.4234 61.1725 92.2154 61.198 92.0992 61.3415L87.5431 66.962C87.4501 67.0769 87.2829 67.0978 87.1644 67.0089L87.1601 67.0056C87.0416 66.9165 87.015 66.7504 87.0992 66.6289L91.2253 60.685C91.3303 60.5334 91.2968 60.3263 91.1492 60.2153L91.1443 60.2116C90.9966 60.1007 90.788 60.1261 90.672 60.2695L86.1158 65.8901C86.0225 66.005 85.8553 66.0259 85.7374 65.9372L85.7327 65.9337C85.6146 65.8449 85.5875 65.6785 85.672 65.5572L89.798 59.6133C89.9027 59.4619 89.8698 59.2546 89.7218 59.1438L89.7169 59.1399C89.5694 59.0294 89.3608 59.0548 89.2452 59.1982L84.6889 64.8189C84.5957 64.9337 84.4285 64.9546 84.3104 64.8659L84.3059 64.8623C84.1876 64.7736 84.1608 64.6071 84.2454 64.4857L88.3711 58.5419C88.4761 58.3904 88.443 58.1835 88.2955 58.0724L88.2901 58.0685C88.1426 57.9577 87.9344 57.9832 87.8182 58.1267L83.2621 63.7472C83.1689 63.8623 83.0017 63.8828 82.8834 63.7941L82.8789 63.7908C82.7606 63.7019 82.7337 63.5354 82.8182 63.4139L86.9441 57.4704C87.0491 57.3188 87.0158 57.1115 86.868 57.0009L86.8627 56.997C86.7154 56.8862 86.507 56.9117 86.391 57.0549L81.8347 62.6759C81.7417 62.7908 81.5743 62.8115 81.4562 62.7228L81.4519 62.7194C81.3334 62.6306 81.3068 62.4643 81.391 62.3428L85.5171 56.3991C85.622 56.2477 85.5888 56.0402 85.4411 55.9296L85.4359 55.9257C85.2885 55.8153 85.0801 55.8408 84.9642 55.9838L80.4079 61.6045C80.3148 61.7195 80.1473 61.7402 80.0292 61.6513L80.0247 61.6479C79.9066 61.5592 79.8798 61.3927 79.9641 61.2717L84.0899 55.3276C84.195 55.1764 84.1614 54.9689 84.0141 54.8585L84.0087 54.8544C83.8612 54.7437 83.6531 54.7693 83.537 54.9123L78.9807 60.5332C78.8873 60.648 78.7203 60.6689 78.602 60.5802L78.5978 60.5768C78.4792 60.4879 78.4526 60.321 78.5368 60.2L82.6629 54.2562C82.768 54.1047 82.7344 53.8974 82.5871 53.7867L82.5818 53.7828C82.4345 53.6722 82.226 53.6976 82.1098 53.8408L77.5537 59.4615C77.4603 59.5763 77.2931 59.5972 77.1748 59.5085L77.1705 59.5051C77.0522 59.4164 77.0252 59.2497 77.1096 59.1283L81.2355 53.1847C81.3408 53.0331 81.307 52.8261 81.1597 52.7152L80.8214 52.4614C80.6813 52.3564 80.4847 52.3738 80.3652 52.5017L74.5946 58.6912C73.3171 60.0612 73.5094 62.2363 75.0075 63.361L94.0547 77.6607C95.5533 78.7874 97.6959 78.3648 98.6549 76.7552Z" fill="#E2AA7B"/>
<path d="M74.4076 58.9427L80.1783 52.7535C80.2977 52.6256 80.4943 52.6081 80.6345 52.7133L80.9725 52.967C81.1198 53.0776 81.1534 53.2849 81.0485 53.4363L76.9225 59.3802C76.838 59.5015 76.8651 59.6681 76.9834 59.757L76.9876 59.7602C77.1059 59.8487 77.2734 59.828 77.3663 59.7133L81.9229 54.0925C82.0389 53.9495 82.2473 53.9237 82.3948 54.0344L82.3999 54.0383C82.5472 54.1489 82.5808 54.3564 82.4757 54.5076L78.3498 60.4513C78.2654 60.5728 78.2922 60.7393 78.4106 60.8281L78.4148 60.8315C78.5331 60.9202 78.7004 60.8995 78.7935 60.7846L83.3496 55.1636C83.4659 55.0206 83.6742 54.9948 83.8215 55.1055L83.8269 55.1094C83.9741 55.2198 84.0076 55.4275 83.9025 55.5787L79.7766 61.5226C79.6922 61.6441 79.719 61.8106 79.8371 61.8993L79.8416 61.9027C79.9601 61.9915 80.1275 61.9706 80.2205 61.8559L84.7768 56.235C84.8928 56.0918 85.101 56.0662 85.2487 56.1768L85.2538 56.1807C85.4011 56.2914 85.4348 56.4988 85.3298 56.65L81.2038 62.5944C81.1193 62.7152 81.1464 62.8817 81.2645 62.9708L81.269 62.9739C81.3871 63.0626 81.5547 63.0421 81.6477 62.927L86.204 57.3063C86.32 57.1635 86.5284 57.1379 86.6757 57.2479L86.6811 57.2522C86.8286 57.3631 86.8618 57.5704 86.7569 57.7217L82.6308 63.6655C82.5466 63.7869 82.5734 63.9534 82.6917 64.0423L82.6962 64.0455C82.8143 64.1342 82.9817 64.1133 83.0749 63.9985L87.6312 58.378C87.7472 58.2346 87.9556 58.2088 88.1029 58.3196L88.1083 58.3237C88.2558 58.4344 88.289 58.6419 88.1841 58.793L84.0584 64.7372C83.9739 64.8582 84.0006 65.0245 84.1189 65.1134L84.1231 65.1168C84.2415 65.2057 84.4089 65.185 84.5021 65.0702L89.0582 59.4495C89.1742 59.3063 89.3826 59.2803 89.5299 59.3912L89.5352 59.3951C89.683 59.5061 89.7162 59.7136 89.6115 59.8647L85.4854 65.8085C85.401 65.93 85.4276 66.0961 85.5461 66.1851L85.5506 66.1887C85.6687 66.2774 85.8359 66.2561 85.9291 66.1416L90.4856 60.521C90.6014 60.3776 90.81 60.3522 90.9575 60.4629L90.9627 60.4668C91.1099 60.5772 91.1436 60.7847 91.0385 60.9363L86.9124 66.8802C86.8282 67.0015 86.855 67.1678 86.9731 67.2567L86.9776 67.26C87.0959 67.3491 87.2631 67.3282 87.3561 67.2135L91.9124 61.5924C92.0284 61.4496 92.2366 61.4238 92.3843 61.5344L92.3899 61.5387C92.5372 61.6489 92.5705 61.856 92.4655 62.0076L88.3394 67.9516C88.2552 68.073 88.2822 68.2395 88.4001 68.3282L88.4046 68.3318C88.5229 68.4204 88.6903 68.3995 88.7835 68.2848L93.3398 62.6643C93.4559 62.5211 93.6642 62.4951 93.8115 62.6059L93.8169 62.61C93.9641 62.7203 93.9975 62.9278 93.8927 63.0791L89.7666 69.0233C89.6824 69.1445 89.7094 69.3108 89.8275 69.3999L89.8318 69.4031C89.9503 69.4919 90.1176 69.4713 90.2105 69.3563L94.767 63.7356C94.8831 63.5928 95.0917 63.5672 95.2388 63.6777L95.2441 63.6813C95.3916 63.7922 95.4248 63.9995 95.3203 64.151L91.1943 70.0948C91.1098 70.216 91.1366 70.3825 91.255 70.4714L91.2592 70.4748C91.3775 70.5637 91.545 70.5428 91.6381 70.4282L96.1945 64.8077C96.3103 64.6643 96.5187 64.6385 96.6659 64.749L96.6713 64.7531C96.8188 64.8641 96.8522 65.0712 96.7471 65.2224L92.6213 71.1663C92.5368 71.2878 92.5634 71.4539 92.6818 71.543L92.686 71.5465C92.8045 71.6352 92.9715 71.6141 93.0649 71.4996L97.6213 65.879C97.7371 65.7356 97.9455 65.7105 98.0932 65.8207L98.0983 65.8244C98.246 65.9356 98.279 66.1429 98.1743 66.2943L94.0483 72.238C93.9638 72.3593 93.9904 72.5254 94.1087 72.6145L94.1134 72.618C94.2315 72.7069 94.399 72.6858 94.4919 72.5713L99.0483 66.9504C99.1643 66.8072 99.3727 66.7818 99.52 66.8924L99.5253 66.8963C99.6728 67.0072 99.706 67.2141 99.6013 67.3654L95.4753 73.3094C95.391 73.4306 95.4179 73.5973 95.5359 73.6858L95.5407 73.6897C95.6589 73.7782 95.8262 73.7573 95.9191 73.6428L100.475 68.0221C100.592 67.8789 100.8 67.8531 100.947 67.9637L100.953 67.968C101.1 68.0783 101.133 68.2858 101.028 68.4369L96.9023 74.3809C96.8182 74.5023 96.8452 74.6686 96.9632 74.7575L96.9674 74.7609C97.0857 74.8498 97.2532 74.8291 97.3463 74.7139L101.903 69.0934C102.019 68.9502 102.227 68.9244 102.374 69.0351L102.713 69.2893C102.853 69.3946 102.891 69.5883 102.801 69.7387L98.4682 77.0071C98.4376 77.0589 98.4054 77.1098 98.3721 77.1587C98.4754 77.0343 98.5706 76.9005 98.6562 76.7567L102.989 69.4887C103.079 69.3381 103.041 69.1443 102.901 69.039L102.562 68.7852C102.415 68.6746 102.207 68.7003 102.091 68.8438L97.5344 74.4643C97.4412 74.5792 97.274 74.5999 97.1554 74.5108L97.1512 74.5073C97.0331 74.4188 97.0062 74.2521 97.0903 74.1309L101.216 68.1869C101.321 68.0355 101.288 67.828 101.141 67.7178L101.135 67.7137C100.987 67.6031 100.779 67.6287 100.663 67.7719L96.1069 73.3924C96.0138 73.5073 95.8466 73.5282 95.7283 73.4395L95.7238 73.436C95.6055 73.3471 95.5788 73.1808 95.6631 73.0593L99.7889 67.1156C99.8942 66.9642 99.8606 66.7569 99.713 66.6465L99.7076 66.6424C99.5603 66.5318 99.3521 66.5573 99.2361 66.7007L94.6796 72.3213C94.5866 72.436 94.4192 72.4567 94.3011 72.3682L94.2968 72.3642C94.1784 72.2753 94.1516 72.1091 94.2361 71.9878L98.3619 66.0441C98.467 65.8925 98.4337 65.6858 98.2859 65.5748L98.2808 65.5707C98.1333 65.4602 97.9251 65.4856 97.8091 65.629L93.2528 71.2495C93.1596 71.3645 92.9924 71.3856 92.8741 71.2965L92.8696 71.2931C92.7513 71.204 92.7246 71.0379 92.8091 70.9163L96.9348 64.9728C97.0398 64.821 97.0067 64.6141 96.8589 64.5031L96.8536 64.4994C96.7065 64.3889 96.4981 64.4143 96.3819 64.5573L91.8256 70.1782C91.7324 70.2932 91.5649 70.3135 91.4468 70.2248L91.4424 70.2216C91.3241 70.1327 91.2972 69.966 91.3817 69.845L95.5075 63.901C95.6124 63.7495 95.579 63.5424 95.4318 63.432L95.4264 63.4279C95.2793 63.3172 95.0707 63.3428 94.9549 63.486L90.3986 69.1069C90.3056 69.2218 90.138 69.2426 90.0197 69.1535L90.0156 69.1503C89.8973 69.0614 89.8704 68.8949 89.9547 68.7735L94.0806 62.8297C94.1858 62.6781 94.152 62.4709 94.0049 62.3602L93.9996 62.3563C93.8521 62.2455 93.6441 62.2714 93.5277 62.4142L88.9716 68.0352C88.8784 68.1503 88.711 68.1706 88.5927 68.0819L88.5884 68.0784C88.4701 67.9899 88.4432 67.8234 88.5275 67.7019L92.6535 61.758C92.7588 61.6066 92.7252 61.3993 92.578 61.2889L92.5724 61.2846C92.4247 61.174 92.2167 61.1995 92.1005 61.3429L87.5443 66.9634C87.4514 67.0784 87.2842 67.0993 87.1657 67.0104L87.1614 67.007C87.0429 66.9179 87.0162 66.7518 87.1005 66.6304L91.2265 60.6864C91.3316 60.5349 91.298 60.3278 91.1505 60.2168L91.1456 60.213C90.9979 60.1022 90.7892 60.1276 90.6733 60.271L86.1171 65.8915C86.0238 66.0065 85.8565 66.0274 85.7386 65.9387L85.734 65.9351C85.6156 65.8462 85.5888 65.6799 85.6733 65.5587L89.7993 59.6147C89.9042 59.4632 89.871 59.2561 89.7231 59.1453L89.7182 59.1413C89.5707 59.0309 89.3625 59.0563 89.2465 59.1997L84.6901 64.8204C84.597 64.9351 84.4298 64.956 84.3117 64.8673L84.3072 64.8638C84.1889 64.7751 84.162 64.6086 84.2467 64.4871L88.3723 58.5434C88.4776 58.3918 88.4443 58.1849 88.2967 58.0739L88.2914 58.07C88.1439 57.9591 87.9357 57.9847 87.8195 58.1281L83.2633 63.7486C83.1702 63.8638 83.003 63.8843 82.8846 63.7956L82.8802 63.7922C82.7619 63.7033 82.735 63.5369 82.8195 63.4154L86.9453 57.4719C87.0504 57.3203 87.017 57.113 86.8693 57.0024L86.864 56.9985C86.7167 56.8876 86.5083 56.9132 86.3923 57.0564L81.8359 62.6773C81.743 62.7923 81.5756 62.813 81.4575 62.7243L81.4532 62.7209C81.3347 62.632 81.308 62.4657 81.3923 62.3443L85.5184 56.4005C85.6237 56.2491 85.59 56.0417 85.4423 55.9311L85.4372 55.9271C85.2897 55.8167 85.0815 55.8421 84.9655 55.9853L80.4092 61.606C80.316 61.721 80.1486 61.7417 80.0305 61.6527L80.026 61.6494C79.9079 61.5607 79.881 61.3942 79.9653 61.2732L84.0912 55.329C84.1962 55.1777 84.1627 54.9704 84.0154 54.8599L84.01 54.8558C83.8625 54.7452 83.6545 54.7705 83.5383 54.9138L78.982 60.5347C78.8886 60.6495 78.7216 60.6703 78.6033 60.5816L78.599 60.5783C78.4805 60.4894 78.4538 60.3225 78.5381 60.2014L82.6642 54.2577C82.7692 54.1061 82.7357 53.8989 82.5884 53.7882L82.583 53.7843C82.4357 53.6736 82.2273 53.699 82.1111 53.8422L77.555 59.463C77.4616 59.5777 77.2944 59.5986 77.1761 59.5099L77.1718 59.5066C77.0535 59.4179 77.0264 59.2512 77.1109 59.1297L81.2368 53.1862C81.342 53.0346 81.3083 52.8276 81.1609 52.7167L80.8227 52.4629C80.6826 52.3578 80.4859 52.3753 80.3665 52.5032L74.5958 58.6926C74.4817 58.8147 74.38 58.9433 74.2891 59.0774C74.3267 59.0316 74.3661 58.9867 74.4076 58.9427Z" fill="#997353"/>
<path d="M94.337 77.2867L75.29 62.9869C73.9486 61.9798 73.6551 60.1312 74.525 58.7719C73.3267 60.145 73.5384 62.2593 75.0079 63.3626L94.0551 77.6623C95.5249 78.7658 97.6139 78.3792 98.5981 76.8449C97.5356 78.0598 95.6784 78.2938 94.337 77.2867Z" fill="#FEDEAF"/>
</g>
</svg>
