<svg width="200" height="75" viewBox="0 0 200 75" fill="none" xmlns="http://www.w3.org/2000/svg">
<mask id="mask0_1282_12340" style="mask-type:alpha" maskUnits="userSpaceOnUse" x="0" y="0" width="200" height="75">
<rect width="200" height="75" rx="6" transform="matrix(-1 0 0 1 200 0)" fill="#D9D9D9"/>
</mask>
<g mask="url(#mask0_1282_12340)">
<path fill-rule="evenodd" clip-rule="evenodd" d="M159.594 34.0627C156.361 25.2712 147.913 19 138 19C128.717 19 120.718 24.5002 117.084 32.4197C112.682 30.853 107.94 30 103 30C85.9685 30 71.3047 40.1376 64.7136 54.7079C62.0262 53.607 59.084 53 56.0001 53C43.2975 53 33.0001 63.2975 33.0001 76C33.0001 88.7026 43.2975 99 56.0001 99C60.4774 99 64.6559 97.7207 68.19 95.5076C75.7398 106.666 88.5135 114 103 114C121.909 114 137.9 101.504 143.164 84.3194C148.12 88.4885 154.517 91 161.5 91C171.699 91 180.647 85.6424 185.683 77.588C190.231 87.2848 200.081 94 211.5 94C227.24 94 240 81.2401 240 65.5C240 49.7599 227.24 37 211.5 37C201.301 37 192.353 42.3576 187.317 50.412C182.769 40.7152 172.919 34 161.5 34C160.859 34 160.224 34.0211 159.594 34.0627Z" fill="#A4DCFF"/>
<path d="M132.665 48.2151C131.616 45.0295 133.348 41.5965 136.533 40.5472L185.584 24.3898C188.29 23.4985 191.22 24.884 192.247 27.5414L219.294 97.4627C220.098 99.5421 219.021 101.874 216.916 102.61L161.035 122.15C159.057 122.842 156.897 121.777 156.242 119.787L132.665 48.2151Z" fill="url(#paint0_linear_1282_12340)"/>
<path d="M135.145 42.2181C134.803 41.2011 135.44 40.117 136.495 39.9213C143.492 38.6231 167.451 33.8453 186.014 26.1102C186.86 25.7575 187.831 26.167 188.163 27.0218L215.489 97.2021C215.864 98.1644 215.392 99.2484 214.432 99.6286C206.578 102.741 174.196 115.439 162.025 118.082C161.284 118.243 160.542 117.819 160.301 117.101L135.145 42.2181Z" fill="#91B3FA"/>
<path opacity="0.6" d="M136.523 43.7487C136.195 42.7697 136.807 41.7265 137.822 41.5381C144.556 40.2891 167.613 35.6907 185.477 28.247C186.291 27.9076 187.225 28.3019 187.546 29.1243L213.842 96.662C214.203 97.5881 213.749 98.6311 212.825 98.9974C205.267 101.993 174.105 114.212 162.391 116.756C161.679 116.911 160.965 116.503 160.732 115.811L136.523 43.7487Z" fill="white"/>
<path opacity="0.78" d="M144.237 47.0828L149.776 61.5948C149.96 62.0773 150.485 62.3369 150.98 62.1891C153.734 61.3668 162.308 58.7729 167.027 56.9406C167.561 56.7335 167.846 56.1526 167.685 55.6029C166.866 52.809 164.417 44.6987 162.679 41.5431C162.399 41.0336 161.801 40.7893 161.242 40.9517L144.924 45.7017C144.335 45.8731 144.018 46.5102 144.237 47.0828Z" fill="white"/>
<path d="M155.4 52.6263C157.24 52.5466 158.667 50.9901 158.588 49.1497C158.508 47.3092 156.952 45.8818 155.111 45.9615C153.271 46.0411 151.843 47.5977 151.923 49.4381C152.003 51.2785 153.559 52.7059 155.4 52.6263Z" fill="url(#paint1_linear_1282_12340)"/>
<path d="M153.507 60.1805L163.6 56.8556C164.219 56.6518 164.365 55.8463 163.86 55.4347C162.561 54.3759 160.118 52.9957 157.041 54.108C154.075 55.1798 152.887 57.5447 152.415 59.1151C152.215 59.7817 152.846 60.3982 153.507 60.1805Z" fill="url(#paint2_linear_1282_12340)"/>
<g opacity="0.6">
<path d="M185.02 35.0707C185.336 34.9663 185.515 34.6611 185.417 34.3917C185.32 34.1224 184.98 33.9826 184.662 34.0809L166.868 39.5933C166.55 39.6917 166.456 39.9878 166.659 40.2514L166.823 40.4638C167.026 40.7273 167.451 40.8578 167.767 40.7538L185.02 35.0707Z" fill="white"/>
</g>
<g opacity="0.6">
<path d="M167.773 42.3405C167.455 42.439 167.361 42.7352 167.564 42.9987L167.728 43.2113C167.931 43.4749 168.356 43.6053 168.672 43.5009L185.925 37.818C186.241 37.7138 186.42 37.4084 186.322 37.139C186.224 36.8697 185.885 36.7301 185.567 36.8284L167.773 42.3405Z" fill="white"/>
</g>
<g opacity="0.6">
<path d="M168.691 45.1278C168.373 45.2263 168.279 45.5225 168.483 45.7861L168.647 45.9987C168.85 46.262 169.275 46.3927 169.591 46.2886L186.843 40.6055C187.16 40.5013 187.338 40.1958 187.241 39.9264C187.143 39.6571 186.803 39.5173 186.486 39.6156L168.691 45.1278Z" fill="white"/>
</g>
<g opacity="0.6">
<path d="M192.989 53.481C193.305 53.3769 193.476 53.0742 193.369 52.8081C193.261 52.5419 192.914 52.4076 192.597 52.5092L151.045 65.8343C150.728 65.9359 150.696 66.1684 150.975 66.351L151.454 66.6646C151.732 66.8469 152.218 66.911 152.534 66.807L192.989 53.481Z" fill="white"/>
</g>
<g opacity="0.6">
<path d="M151.95 68.582C151.633 68.6837 151.602 68.916 151.88 69.0986L152.359 69.4123C152.637 69.5947 153.123 69.6588 153.44 69.5547L193.895 56.2288C194.211 56.1245 194.382 55.8218 194.274 55.5557C194.166 55.2897 193.819 55.1553 193.502 55.2568L151.95 68.582Z" fill="white"/>
</g>
<path d="M153.274 73.231C154.245 72.8263 156.1 72.1762 157.122 71.8235C157.555 71.6739 158.034 71.8432 158.276 72.2327C158.745 72.9894 159.488 74.3261 159.952 75.8495C160.091 76.3057 159.839 76.7894 159.384 76.9336L155.58 78.1414C155.112 78.29 154.608 78.0613 154.412 77.6113L152.904 74.1549C152.748 73.7977 152.914 73.3808 153.274 73.231Z" fill="url(#paint3_linear_1282_12340)"/>
<g opacity="0.6">
<path d="M160.767 72.3859C160.447 72.4767 160.307 72.7942 160.457 73.0911L160.75 73.6723C160.9 73.9691 161.282 74.1272 161.598 74.0231L170.804 70.9905C171.12 70.8862 171.29 70.5438 171.182 70.2288L171.129 70.0739C171.021 69.759 170.671 69.576 170.351 69.667L160.767 72.3859Z" fill="white"/>
</g>
<path d="M173.925 66.4284C174.897 66.0236 176.751 65.3737 177.774 65.0209C178.207 64.8714 178.686 65.0405 178.927 65.4302C179.396 66.1867 180.14 67.5237 180.603 69.047C180.742 69.5032 180.49 69.9869 180.036 70.1313L176.232 71.3389C175.764 71.4875 175.26 71.2588 175.063 70.8088L173.555 67.3526C173.399 66.9952 173.565 66.5784 173.925 66.4284Z" fill="url(#paint4_linear_1282_12340)"/>
<g opacity="0.6">
<path d="M181.417 65.5834C181.097 65.6743 180.958 65.9918 181.108 66.2888L181.401 66.8699C181.551 67.1669 181.932 67.3251 182.248 67.2207L191.455 64.1882C191.771 64.0841 191.941 63.7416 191.833 63.4266L191.78 63.2716C191.672 62.957 191.322 62.7737 191.001 62.8647L181.417 65.5834Z" fill="white"/>
</g>
<g opacity="0.6">
<path d="M165.713 82.6564C165.941 83.0071 166.378 83.1587 166.773 83.0243L199.046 72.0878C199.411 71.9641 199.605 71.5656 199.476 71.2021C199.351 70.849 198.967 70.6595 198.611 70.7751L166.198 81.2884C165.626 81.4742 165.386 82.1522 165.713 82.6564Z" fill="white"/>
</g>
<path d="M160.907 21.7703C158.729 21.1214 157.197 21.6534 156.218 22.3306C155.325 22.9484 154.998 24.1146 155.43 25.1108L157.58 30.0617L163.308 28.7224C163.308 28.7224 165.178 23.0431 160.907 21.7703ZM159.816 26.6951C159.05 26.9476 158.224 26.5309 157.971 25.7644C157.719 24.998 158.136 24.172 158.902 23.9197C159.668 23.6673 160.494 24.0838 160.747 24.8503C160.999 25.6167 160.583 26.4426 159.816 26.6951Z" fill="url(#paint5_linear_1282_12340)"/>
<path d="M157.428 27.7313C157.359 27.7539 157.284 27.7209 157.254 27.6532L156.912 26.8649C156.881 26.7932 156.914 26.71 156.985 26.6788C157.059 26.6469 157.14 26.6806 157.171 26.7525L157.514 27.5408C157.545 27.6123 157.512 27.6958 157.44 27.7267C157.436 27.7283 157.432 27.7298 157.428 27.7313ZM156.757 26.186C156.688 26.2087 156.613 26.1755 156.583 26.108L156.324 25.5095C155.912 24.5604 156.227 23.4467 157.074 22.8609C157.673 22.446 158.349 22.1924 159.081 22.1071C159.158 22.098 159.228 22.1538 159.238 22.2312C159.246 22.3088 159.191 22.3782 159.113 22.3879C158.428 22.4683 157.796 22.7051 157.235 23.0932C156.499 23.6023 156.225 24.5712 156.583 25.3968L156.843 25.9953C156.874 26.067 156.841 26.1501 156.77 26.1813C156.765 26.1832 156.761 26.1846 156.757 26.186Z" fill="white"/>
<path d="M151.07 35.8627L150.225 33.2963C149.933 32.4102 150.434 31.4588 151.329 31.1976L169.224 25.9747C170.019 25.7429 170.859 26.1532 171.164 26.9224L172.124 29.3397L151.07 35.8627Z" fill="url(#paint6_linear_1282_12340)"/>
<path d="M156.626 30.5246L155.865 30.7754C155.791 30.7998 155.711 30.7595 155.686 30.685C155.662 30.6107 155.702 30.531 155.776 30.5066L156.538 30.2559C156.612 30.2317 156.692 30.2718 156.716 30.3463C156.74 30.4202 156.7 30.5001 156.626 30.5246Z" fill="white"/>
<path d="M151.763 34.7413C151.688 34.7658 151.609 34.7252 151.584 34.6511L151.242 33.6129C150.978 32.8106 151.416 31.9431 152.218 31.6788L155.016 30.7574C155.09 30.7329 155.17 30.7732 155.194 30.8475C155.218 30.9218 155.178 31.0015 155.104 31.026L152.306 31.9476C151.652 32.163 151.295 32.8704 151.511 33.5245L151.852 34.5629C151.877 34.637 151.837 34.7169 151.763 34.7413Z" fill="white"/>
<path d="M182.209 44.1895L176.925 42.1652L173.878 46.934C173.158 43.6296 172.138 40.0141 170.688 36.2038C170.226 34.9902 169.747 33.8256 169.256 32.7096C169.194 32.5662 169.194 32.4031 169.258 32.2601C169.322 32.1171 169.443 32.0078 169.592 31.9588C172.008 31.1631 174.424 30.3672 176.84 29.5713C177.12 29.4791 177.424 29.622 177.531 29.897C178.207 31.6363 178.87 33.4479 179.512 35.3306C180.56 38.4018 181.451 41.3632 182.209 44.1895Z" fill="url(#paint7_linear_1282_12340)"/>
<path d="M144.074 38.886C143.824 37.9831 144.326 37.043 145.216 36.7498L176.16 26.5561C177.272 26.1895 178.487 26.6768 179.038 27.7107L179.115 27.8532C179.718 28.9858 179.155 30.3886 177.936 30.7901L146.19 41.2474C145.461 41.4875 144.678 41.0693 144.473 40.3293L144.074 38.886Z" fill="url(#paint8_linear_1282_12340)"/>
<path d="M94.512 85.7718C95.1975 86.1172 95.7205 86.1933 96.1936 86.188C96.6648 86.1781 97.0646 86.0506 97.4137 85.8391L99.5069 84.5685C100.906 83.7259 102.293 82.865 103.682 82.0064C105.073 81.1517 106.448 80.2713 107.833 79.4051C109.207 78.5219 110.588 77.6517 111.954 76.7548C114.695 74.977 117.414 73.163 120.108 71.3083C121.455 70.3804 122.797 69.4448 124.128 68.4893C124.932 67.9082 126.049 68.0482 126.684 68.8111C134.995 78.8048 149.579 81.5047 161.044 74.5805C173.687 66.9461 177.747 50.5072 170.113 37.8646C162.477 25.2205 146.037 21.1604 133.395 28.7949C121.93 35.7187 117.53 49.882 122.505 61.8906C122.885 62.8079 122.489 63.8617 121.6 64.303L121.6 64.3032C120.135 65.0365 118.682 65.7881 117.233 66.5483C114.338 68.0692 111.467 69.632 108.617 71.2298C107.188 72.0213 105.774 72.8387 104.353 73.6433C102.942 74.4647 101.522 75.2727 100.118 76.1055C98.7119 76.9352 97.3039 77.7622 95.9073 78.6076L93.8084 79.8689C93.4589 80.0794 93.1598 80.3742 92.9319 80.7863C92.7063 81.2022 92.531 81.7011 92.517 82.4685C92.4958 83.8155 93.2283 85.1251 94.512 85.7718ZM136.311 33.6242C146.288 27.5993 159.258 30.8043 165.284 40.7814C171.307 50.7559 168.106 63.727 158.129 69.7522C148.152 75.7768 135.181 72.5717 129.158 62.5972C123.133 52.6201 126.335 39.6488 136.311 33.6242Z" fill="#39B54A"/>
</g>
<defs>
<linearGradient id="paint0_linear_1282_12340" x1="187.574" y1="108.108" x2="139.076" y2="-23.936" gradientUnits="userSpaceOnUse">
<stop stop-color="#073DA3"/>
<stop offset="1" stop-color="#3366FF"/>
</linearGradient>
<linearGradient id="paint1_linear_1282_12340" x1="148.31" y1="43.0691" x2="171.966" y2="64.2804" gradientUnits="userSpaceOnUse">
<stop stop-color="#FF928E"/>
<stop offset="1" stop-color="#FE7062"/>
</linearGradient>
<linearGradient id="paint2_linear_1282_12340" x1="145.463" y1="46.2446" x2="169.119" y2="67.4562" gradientUnits="userSpaceOnUse">
<stop stop-color="#FF928E"/>
<stop offset="1" stop-color="#FE7062"/>
</linearGradient>
<linearGradient id="paint3_linear_1282_12340" x1="146.08" y1="71.1502" x2="205.73" y2="93.3398" gradientUnits="userSpaceOnUse">
<stop stop-color="#4F52FF"/>
<stop offset="1" stop-color="#4042E2"/>
</linearGradient>
<linearGradient id="paint4_linear_1282_12340" x1="150.815" y1="58.4271" x2="210.463" y2="80.6163" gradientUnits="userSpaceOnUse">
<stop stop-color="#4F52FF"/>
<stop offset="1" stop-color="#4042E2"/>
</linearGradient>
<linearGradient id="paint5_linear_1282_12340" x1="163.964" y1="12.6466" x2="151.179" y2="49.7564" gradientUnits="userSpaceOnUse">
<stop stop-color="#2B3582"/>
<stop offset="1" stop-color="#150E42"/>
</linearGradient>
<linearGradient id="paint6_linear_1282_12340" x1="167.058" y1="13.7125" x2="154.274" y2="50.8223" gradientUnits="userSpaceOnUse">
<stop stop-color="#2B3582"/>
<stop offset="1" stop-color="#150E42"/>
</linearGradient>
<linearGradient id="paint7_linear_1282_12340" x1="172.111" y1="50.2172" x2="182.555" y2="15.576" gradientUnits="userSpaceOnUse">
<stop stop-color="#FF928E"/>
<stop offset="1" stop-color="#FE7062"/>
</linearGradient>
<linearGradient id="paint8_linear_1282_12340" x1="164.813" y1="16.4645" x2="158.658" y2="50.1996" gradientUnits="userSpaceOnUse">
<stop stop-color="#4F52FF"/>
<stop offset="1" stop-color="#4042E2"/>
</linearGradient>
</defs>
</svg>
