<svg width="16" height="16" viewBox="0 0 16 16" fill="none" xmlns="http://www.w3.org/2000/svg">
<path d="M5.76389 1H1.68056C1.3047 1 1 1.7835 1 2.75V4.5C1 5.4665 1.3047 6.25 1.68056 6.25H5.76389C6.13975 6.25 6.44444 5.4665 6.44444 4.5V2.75C6.44444 1.7835 6.13975 1 5.76389 1Z" stroke="#3366FF" stroke-linecap="round" stroke-linejoin="round"/>
<path d="M5.76389 9.75H1.68056C1.3047 9.75 1 10.5335 1 11.5V13.25C1 14.2165 1.3047 15 1.68056 15H5.76389C6.13975 15 6.44444 14.2165 6.44444 13.25V11.5C6.44444 10.5335 6.13975 9.75 5.76389 9.75Z" stroke="#3366FF" stroke-linecap="round" stroke-linejoin="round"/>
<path d="M14.3196 1H10.2362C9.86036 1 9.55566 1.7835 9.55566 2.75V4.5C9.55566 5.4665 9.86036 6.25 10.2362 6.25H14.3196C14.6954 6.25 15.0001 5.4665 15.0001 4.5V2.75C15.0001 1.7835 14.6954 1 14.3196 1Z" stroke="#3366FF" stroke-linecap="round" stroke-linejoin="round"/>
<path d="M14.3196 9.75H10.2362C9.86036 9.75 9.55566 10.5335 9.55566 11.5V13.25C9.55566 14.2165 9.86036 15 10.2362 15H14.3196C14.6954 15 15.0001 14.2165 15.0001 13.25V11.5C15.0001 10.5335 14.6954 9.75 14.3196 9.75Z" stroke="#3366FF" stroke-linecap="round" stroke-linejoin="round"/>
</svg>
