<svg width="16" height="16" viewBox="0 0 16 16" fill="none" xmlns="http://www.w3.org/2000/svg">
<path d="M13.5781 0.5625H2.42188C1.39497 0.5625 0.5625 1.39497 0.5625 2.42188V4.28125C0.5625 5.30815 1.39497 6.14062 2.42188 6.14062H13.5781C14.605 6.14062 15.4375 5.30815 15.4375 4.28125V2.42188C15.4375 1.39497 14.605 0.5625 13.5781 0.5625Z" stroke="#3366FF" stroke-linecap="round" stroke-linejoin="round"/>
<path d="M13.5781 9.85938H2.42188C1.39497 9.85938 0.5625 10.6918 0.5625 11.7188V13.5781C0.5625 14.605 1.39497 15.4375 2.42188 15.4375H13.5781C14.605 15.4375 15.4375 14.605 15.4375 13.5781V11.7188C15.4375 10.6918 14.605 9.85938 13.5781 9.85938Z" stroke="#3366FF" stroke-linecap="round" stroke-linejoin="round"/>
</svg>
