<svg width="153" height="32" viewBox="0 0 153 32" fill="none" xmlns="http://www.w3.org/2000/svg">
<path d="M135.566 32H127.773V29.9375L129.859 28.9766V17.8906L127.773 16.9297V14.8672H135.566V16.9297L133.48 17.8906V28.9766L135.566 29.9375V32ZM152.723 23.2695C152.723 26.0898 151.918 28.25 150.309 29.75C148.707 31.25 146.391 32 143.359 32H138.508V14.8672H143.887C146.684 14.8672 148.855 15.6055 150.402 17.082C151.949 18.5586 152.723 20.6211 152.723 23.2695ZM148.949 23.3633C148.949 19.6836 147.324 17.8438 144.074 17.8438H142.141V29H143.699C147.199 29 148.949 27.1211 148.949 23.3633Z" fill="#3366FF"/>
<path d="M23.9997 0V31.9997H15.9997V23.9997H8V31.9997H0V7.99972L8 0H23.9997ZM16.0003 16V8.00001H7.81153L8 16H16.0003Z" fill="#3366FF"/>
<path d="M52.1055 23.9997V31.9997H28.1055V0H36.1055V23.9997H52.1055Z" fill="#3366FF"/>
<path d="M64.1046 32H56.2109V0H64.1046V32Z" fill="#3366FF"/>
<path d="M76.1057 23.9994H84.1057V15.9997H92.1057V32H68.1055V0H92.1057V8.00028H76.1057V23.9994Z" fill="#3366FF"/>
<path d="M111.894 32H96V0H120L120 23.9997L111.894 32ZM112 8.00057H104V23.9997H111.988L112 8.00057Z" fill="#F567F9"/>
</svg>
