<svg width="45" height="57" viewBox="0 0 45 57" fill="none" xmlns="http://www.w3.org/2000/svg">
<path fill-rule="evenodd" clip-rule="evenodd" d="M5.80573 6.30573C6.41659 5.69486 7.2451 5.35168 8.10899 5.35168H25.5756V14.2921C25.5756 15.6891 26.1305 17.0289 27.1184 18.0168C28.1062 19.0046 29.446 19.5595 30.843 19.5595H39.782V48.391C39.782 49.2549 39.4388 50.0834 38.828 50.6943C38.2171 51.3051 37.3886 51.6483 36.5247 51.6483H8.10899C7.2451 51.6483 6.41659 51.3051 5.80573 50.6943C5.19486 50.0834 4.85168 49.2549 4.85168 48.391V8.60899C4.85168 7.7451 5.19486 6.91659 5.80573 6.30573ZM44.6337 17.2172C44.6346 17.1895 44.6351 17.1617 44.6351 17.1337C44.6351 16.4387 44.3429 15.812 43.8745 15.3697L29.7654 1.2606C29.3231 0.792267 28.6964 0.5 28.0014 0.5C28.0012 0.5 28.0009 0.5 28.0007 0.5C28.0005 0.5 28.0002 0.5 28 0.5H8.10899C5.95835 0.5 3.8958 1.35434 2.37507 2.87507C0.854337 4.3958 0 6.45835 0 8.60899V48.391C0 50.5416 0.854337 52.6042 2.37507 54.1249C3.8958 55.6457 5.95835 56.5 8.10899 56.5H36.5247C38.6754 56.5 40.7379 55.6457 42.2586 54.1249C43.7794 52.6042 44.6337 50.5417 44.6337 48.391V17.2172ZM30.4273 8.78376L36.3514 14.7079H30.843C30.7327 14.7079 30.627 14.6641 30.549 14.5861C30.4711 14.5081 30.4273 14.4024 30.4273 14.2921V8.78376Z" fill="#D6D6D6"/>
<path fill-rule="evenodd" clip-rule="evenodd" d="M12.1612 24C13.9072 24 15.3225 25.4082 15.3225 27.1452V27.1773C15.3225 28.9143 13.9072 30.3225 12.1612 30.3225C10.4153 30.3225 9 28.9143 9 27.1773V27.1452C9 25.4082 10.4153 24 12.1612 24ZM20.6448 38.5899C17.7797 39.0866 15.2085 40.8334 13.7557 42.3043C12.8834 43.1873 11.4673 43.1892 10.5927 42.3085C9.71814 41.4279 9.71625 39.9981 10.5885 39.1151C12.5021 37.1778 15.8717 34.835 19.8879 34.1388C24.0758 33.4129 28.7719 34.5256 32.8616 39.2179C33.6776 40.1541 33.5873 41.581 32.6601 42.4049C31.7328 43.2288 30.3196 43.1377 29.5036 42.2014C26.4643 38.7144 23.3383 38.123 20.6448 38.5899ZM34.2893 27.1453C34.2893 25.4083 32.874 24.0001 31.128 24.0001C29.3821 24.0001 27.9668 25.4083 27.9668 27.1453V27.1774C27.9668 28.9145 29.3821 30.3226 31.128 30.3226C32.874 30.3226 34.2893 28.9145 34.2893 27.1774V27.1453Z" fill="#D6D6D6"/>
</svg>
