<svg width="14" height="17" viewBox="0 0 14 17" fill="none" xmlns="http://www.w3.org/2000/svg">
<path d="M8.71484 1V4.42857C8.71484 4.6559 8.80515 4.87392 8.9659 5.03466C9.12664 5.19541 9.34466 5.28571 9.57199 5.28571H13.0006" stroke="#3366FF" stroke-linecap="round" stroke-linejoin="round"/>
<path d="M11.2857 16.4286H2.71429C2.25963 16.4286 1.82359 16.248 1.5021 15.9265C1.18061 15.605 1 15.1689 1 14.7143V2.71429C1 2.25963 1.18061 1.82359 1.5021 1.5021C1.82359 1.18061 2.25963 1 2.71429 1H8.71429L13 5.28571V14.7143C13 15.1689 12.8194 15.605 12.4979 15.9265C12.1764 16.248 11.7404 16.4286 11.2857 16.4286Z" stroke="#3366FF" stroke-linecap="round" stroke-linejoin="round"/>
</svg>
