<svg width="14" height="14" viewBox="0 0 14 14" fill="none" xmlns="http://www.w3.org/2000/svg">
<path d="M12.9465 7.78126C12.8049 8.861 12.3721 9.88183 11.6944 10.7343C11.0167 11.5867 10.1198 12.2386 9.09981 12.62C8.07981 13.0014 6.97523 13.098 5.90451 12.8994C4.8338 12.7007 3.83736 12.2144 3.02205 11.4925C2.20674 10.7705 1.60332 9.84032 1.27651 8.80153C0.949697 7.76275 0.911822 6.65459 1.16694 5.59592C1.42207 4.53724 1.96056 3.56798 2.72468 2.79209C3.48879 2.0162 4.44971 1.46295 5.50436 1.19167C8.42798 0.441825 11.4543 1.94675 12.5716 4.75116" stroke="#3366FF" stroke-linecap="round" stroke-linejoin="round"/>
<path d="M12.9968 1.00171V4.75091H9.24756" stroke="#3366FF" stroke-linecap="round" stroke-linejoin="round"/>
</svg>
