<svg width="24" height="24" viewBox="0 0 24 24" fill="none" xmlns="http://www.w3.org/2000/svg" stroke="#3366FF" stroke-width="2" stroke-linecap="round" stroke-linejoin="round">
  <path d="M16.5 3C15.5 3.8 15 4.8 15 6C15 7.2 15.8 8.2 16.5 8.9C17.5 8.9 18.3 8.4 19 7.6C19.5 6.8 20 5.8 20 4.6C20 3.4 19.3 2.6 18.5 2.1C17.6 2.1 17 2.6 16.5 3ZM12 8C10 8 8 9 7 10.6C6 12 5 14.2 5 16C5 18.8 6.8 21 9 21C10.3 21 11.3 20.1 12.5 20.1C13.8 20.1 14.5 21 16 21C18.5 21 20 17.7 20 16C20 14.2 19 12 18 10.6C17 9 14.7 8 12 8Z" />
</svg>
