<svg width="831" height="187" viewBox="0 0 831 187" fill="none" xmlns="http://www.w3.org/2000/svg">
<path d="M120.547 145.867C120.733 145.867 120.838 145.867 120.855 145.867C120.857 145.867 120.87 145.867 120.87 145.867" stroke="#3366FF" stroke-width="2" stroke-miterlimit="10"/>
<path d="M235.366 48.0101C235.366 38.9982 225.934 40.2346 225.934 40.2346C225.211 40.2346 223.524 40.2346 219.9 40.2346C210.88 40.2346 209.348 47.945 209.338 48.0054C206.889 40.9409 196.888 13.3724 188.022 7.79089C177.837 1.37758 120.87 1 120.87 1C120.87 1 63.904 1.37719 53.7181 7.79089C44.8523 13.3732 34.8462 40.9548 32.4012 48.0101H27.3097C27.3097 48.0101 25.8009 40.2346 16.7469 40.2346C13.122 40.2346 11.4338 40.2346 10.7112 40.2346C10.7112 40.2346 1.27925 38.9982 1.27925 48.0101C1.27925 48.0101 -0.796846 56.4571 6.37242 56.4571C9.92906 56.4571 17.2448 56.4571 23.7149 56.4571C19.0362 61.2096 14.8618 67.7924 14.8618 78.3381C14.8618 97.2 14.8618 120.59 14.8618 120.59C14.8618 120.59 10.8994 145.867 48.4379 145.867C87.2949 145.867 120.871 145.867 120.871 145.867C120.871 145.867 154.446 145.867 193.304 145.867C230.842 145.867 226.881 120.59 226.881 120.59C226.881 120.59 226.881 97.2 226.881 78.3381C226.881 67.7924 222.704 61.2096 218.028 56.4571C222.924 56.4571 227.635 56.4571 230.273 56.4571C236.263 56.4571 235.366 48.0101 235.366 48.0101ZM211.942 79.6594C211.942 79.6594 213.639 94.3715 200.624 96.2102C187.609 98.0504 174.874 98.8997 174.874 98.8997C174.874 98.8997 176.007 86.4495 184.919 83.3363C193.833 80.2236 211.942 79.6594 211.942 79.6594ZM41.9658 38.3912C41.9658 38.3912 41.9658 38.3912 47.1011 24.6692C52.2347 10.9481 59.1828 10.0333 71.5668 8.50872C83.9495 6.98411 121.177 6.37427 121.177 6.37427C121.177 6.37427 158.407 6.98411 170.789 8.50872C183.174 10.0333 190.121 10.9485 195.254 24.6692C200.39 38.3912 200.39 38.3912 200.39 38.3912C200.39 38.3912 204.921 50.8934 190.121 50.8934C189.242 50.8934 188.221 50.8934 187.084 50.8934C186.479 50.9498 185.844 50.9859 185.151 50.9859C171.418 50.9859 121.177 50.9859 121.177 50.9859C121.177 50.9859 70.9402 50.9859 57.206 50.9859C56.5132 50.9859 55.8783 50.9494 55.274 50.8934C54.1365 50.8934 53.1146 50.8934 52.2355 50.8934C37.4349 50.893 41.9658 38.3912 41.9658 38.3912ZM29.7999 79.6594C29.7999 79.6594 47.9078 80.224 56.8205 83.3363C65.7335 86.4495 66.8647 98.8997 66.8647 98.8997C66.8647 98.8997 54.1329 98.05 41.1177 96.2102C28.1021 94.3711 29.7999 79.6594 29.7999 79.6594ZM65.3202 134.077C57.9635 134.077 40.6564 134.077 40.6564 134.077C40.6564 134.077 26.0852 135.822 26.0852 119.175H74.1852C74.1852 119.175 72.6761 134.077 65.3202 134.077ZM154.636 123.232C154.636 123.232 153.316 130.21 142.751 130.21C132.188 130.21 120.87 130.21 120.87 130.21C120.87 130.21 109.553 130.21 98.9888 130.21C88.4245 130.21 87.1051 123.232 87.1051 123.232C87.1051 123.232 86.6418 122.01 85.9462 120.025H155.795C155.098 122.01 154.636 123.232 154.636 123.232ZM160.381 104.934H81.3604C79.3475 96.8339 78.2532 88.6709 81.2584 86.6373C87.6729 82.2973 120.87 82.6765 120.87 82.6765C120.87 82.6765 154.069 82.2973 160.483 86.6373C163.487 88.6709 162.394 96.8335 160.381 104.934ZM206.792 134.077C199.435 134.077 182.127 134.077 182.127 134.077C182.127 134.077 167.557 135.822 167.557 119.175H215.656C215.656 119.175 214.148 134.077 206.792 134.077Z" stroke="#3366FF" stroke-width="2" stroke-miterlimit="10"/>
<path d="M16.1221 130.566V140.362C16.1221 152.863 23.2036 155.077 31.938 155.077H36.2883C43.415 155.077 49.4377 153.597 51.4145 146.265" stroke="#3366FF" stroke-width="2" stroke-miterlimit="10"/>
<path d="M190.183 146.263C192.16 153.596 198.182 155.075 205.307 155.075H209.658C218.395 155.075 225.474 152.862 225.474 140.36V130.939" stroke="#3366FF" stroke-width="2" stroke-miterlimit="10"/>
<path d="M41.4663 43.3691C41.2845 45.0236 40.1359 49.1206 38.9273 53.1167C37.7108 57.1395 39.3902 61.4485 43.0688 63.691C54.9584 70.9369 77.7605 84.7473 79.7592 83.6241C85.756 80.2549 112.637 79.9432 121.37 79.9329C130.105 79.9428 156.986 80.2549 162.982 83.6241C164.98 84.7473 187.782 70.9373 199.673 63.691C203.352 61.4485 205.032 57.1395 203.815 53.1167C202.605 49.1206 201.458 45.0236 201.275 43.3691" stroke="#3366FF" stroke-width="2" stroke-miterlimit="10"/>
<path d="M429.054 84.1758C448.607 84.1758 464.456 100.026 464.456 119.577C464.456 139.13 448.607 154.978 429.054 154.978C409.503 154.978 393.653 139.13 393.653 119.577C393.653 100.026 409.503 84.1758 429.054 84.1758Z" stroke="#3366FF" stroke-width="2" stroke-miterlimit="10"/>
<path d="M736.377 84.1758C755.929 84.1758 771.778 100.026 771.778 119.577C771.778 139.128 755.929 154.978 736.377 154.978C716.824 154.978 700.975 139.128 700.975 119.577C700.975 100.026 716.824 84.1758 736.377 84.1758Z" stroke="#3366FF" stroke-width="2" stroke-miterlimit="10"/>
<path d="M736.377 147.588C751.848 147.588 764.389 135.047 764.389 119.576C764.389 104.106 751.848 91.5645 736.377 91.5645C720.906 91.5645 708.365 104.106 708.365 119.576C708.365 135.047 720.906 147.588 736.377 147.588Z" stroke="#3366FF" stroke-width="2" stroke-miterlimit="10"/>
<path d="M429.023 91.5645C444.493 91.5645 457.033 104.107 457.033 119.578C457.033 135.048 444.493 147.589 429.023 147.589C413.552 147.589 401.012 135.048 401.012 119.578C401.012 104.107 413.552 91.5645 429.023 91.5645Z" stroke="#3366FF" stroke-width="2" stroke-miterlimit="10"/>
<path d="M739.472 94.8379V110.472C740.968 110.985 742.286 111.842 743.353 112.962L757.677 106.61C753.816 100.272 747.194 95.792 739.472 94.8379Z" stroke="#3366FF" stroke-width="2" stroke-miterlimit="10"/>
<path d="M744.984 123.855L756.034 134.915C759.34 130.676 761.318 125.362 761.318 119.575C761.318 117.032 760.931 114.573 760.221 112.262L745.948 118.581C745.98 118.905 746 119.239 746 119.575C746 121.113 745.622 122.567 744.984 123.855Z" stroke="#3366FF" stroke-width="2" stroke-miterlimit="10"/>
<path d="M711.44 119.575C711.44 125.33 713.395 130.634 716.67 134.851L727.741 123.792C727.116 122.515 726.757 121.093 726.757 119.575C726.757 119.239 726.779 118.905 726.811 118.581L712.539 112.262C711.826 114.573 711.44 117.032 711.44 119.575Z" stroke="#3366FF" stroke-width="2" stroke-miterlimit="10"/>
<path d="M715.069 106.61L729.405 112.962C730.462 111.843 731.791 110.985 733.285 110.472V94.8379C725.565 95.7924 718.942 100.272 715.069 106.61Z" stroke="#3366FF" stroke-width="2" stroke-miterlimit="10"/>
<path d="M721.043 139.237C725.27 142.544 730.598 144.52 736.373 144.52C742.139 144.52 747.434 142.565 751.649 139.279L740.59 128.219C739.314 128.837 737.892 129.202 736.373 129.202C734.836 129.202 733.391 128.826 732.095 128.188L721.043 139.237Z" stroke="#3366FF" stroke-width="2" stroke-miterlimit="10"/>
<path d="M432.146 94.8379V110.472C433.643 110.985 434.972 111.842 436.028 112.962L450.363 106.61C446.492 100.272 439.868 95.792 432.146 94.8379Z" stroke="#3366FF" stroke-width="2" stroke-miterlimit="10"/>
<path d="M437.661 123.855L448.711 134.915C452.017 130.676 453.994 125.362 453.994 119.575C453.994 117.032 453.607 114.573 452.896 112.262L438.623 118.581C438.655 118.905 438.676 119.239 438.676 119.575C438.676 121.113 438.299 122.567 437.661 123.855Z" stroke="#3366FF" stroke-width="2" stroke-miterlimit="10"/>
<path d="M407.747 106.61L422.08 112.962C423.138 111.843 424.468 110.985 425.962 110.472V94.8379C418.241 95.7924 411.617 100.272 407.747 106.61Z" stroke="#3366FF" stroke-width="2" stroke-miterlimit="10"/>
<path d="M413.72 139.237C417.947 142.544 423.274 144.52 429.049 144.52C434.815 144.52 440.109 142.565 444.326 139.279L433.267 128.219C431.989 128.837 430.567 129.202 429.05 129.202C427.513 129.202 426.067 128.826 424.771 128.188L413.72 139.237Z" stroke="#3366FF" stroke-width="2" stroke-miterlimit="10"/>
<path d="M404.114 119.575C404.114 125.33 406.071 130.634 409.347 134.851L420.418 123.792C419.789 122.515 419.433 121.093 419.433 119.575C419.433 119.239 419.454 118.905 419.485 118.581L405.213 112.262C404.503 114.573 404.114 117.032 404.114 119.575Z" stroke="#3366FF" stroke-width="2" stroke-miterlimit="10"/>
<path d="M564.425 67.5415C564.425 64.7964 566.653 62.5702 569.398 62.5702H575.676C578.418 62.5702 580.646 64.796 580.646 67.5415C580.646 70.287 578.418 72.5104 575.676 72.5104H569.398C566.653 72.51 564.425 70.287 564.425 67.5415ZM463.105 64.1088C463.105 61.366 465.33 59.1387 468.075 59.1387H474.353C477.098 59.1387 479.324 61.3656 479.324 64.1088C479.324 66.8539 477.098 69.0796 474.353 69.0796H468.075C465.331 69.0796 463.105 66.8539 463.105 64.1088Z" stroke="#3366FF" stroke-width="2" stroke-miterlimit="10"/>
<path d="M328.649 69.0802C324.811 63.8747 326.905 55.8022 326.905 55.8022V55.4512C328.483 55.4512 328.559 55.4512 339.308 55.4512C352.001 55.4512 348.521 60.3367 348.521 60.3367C348.521 60.3367 344.457 69.8302 339.9 69.8302H329.049C328.778 69.3593 328.649 69.0802 328.649 69.0802Z" stroke="#3366FF" stroke-width="2" stroke-miterlimit="10"/>
<path d="M731.32 119.577C731.32 122.37 733.583 124.633 736.376 124.633C739.17 124.633 741.432 122.37 741.432 119.577C741.432 116.783 739.17 114.52 736.376 114.52C733.583 114.52 731.32 116.783 731.32 119.577Z" stroke="#3366FF" stroke-width="2" stroke-miterlimit="10"/>
<path d="M423.966 119.577C423.966 122.37 426.231 124.633 429.023 124.633C431.815 124.633 434.079 122.37 434.079 119.577C434.079 116.783 431.815 114.52 429.023 114.52C426.231 114.52 423.966 116.783 423.966 119.577Z" stroke="#3366FF" stroke-width="2" stroke-miterlimit="10"/>
<path d="M461.729 94.8379H461.73C487.289 120.399 508.637 119.139 508.637 119.139L694.872 119.577" stroke="#3366FF" stroke-width="2" stroke-miterlimit="10"/>
<path d="M314 93.1213C314 83.0052 326.799 101.58 339.308 107.235C355.097 114.07 384.851 116.834 384.851 116.834" stroke="#3366FF" stroke-width="2" stroke-miterlimit="10"/>
<path d="M777.562 124.631C777.565 124.631 777.568 124.632 777.568 124.632C830.067 134.249 828.371 122.198 829.227 115.588C829.411 117.833 829.503 119.903 829.503 121.719" stroke="#3366FF" stroke-width="2" stroke-miterlimit="10"/>
<path d="M494.326 100.876L664.965 104.017L479.521 89.9668L494.326 100.876Z" stroke="#3366FF" stroke-width="2" stroke-miterlimit="10"/>
<path d="M336.672 121.72C359.69 126.952 384.454 129.044 384.454 129.044L388.008 129.11C387.288 126.049 386.895 122.858 386.895 119.577C386.895 96.6542 405.476 78.0698 428.4 78.0698C451.325 78.0698 469.906 96.6542 469.906 119.577C469.906 123.397 469.379 127.094 468.411 130.609L697.798 134.884C695.917 130.146 694.871 124.984 694.871 119.577C694.871 96.6542 713.453 78.0726 736.377 78.0726C759.301 78.0726 777.882 96.6542 777.882 119.577C777.882 125.533 776.617 131.19 774.361 136.31L777.534 136.37H808.575C808.575 136.37 829.503 136.019 829.503 121.72C829.503 115.942 829.89 100.048 826.608 99.1809C826.106 97.0504 825.534 94.914 824.892 92.8153C823.969 82.301 817.034 73.3621 810.32 69.4033C796.716 61.3832 699.407 47.7784 699.407 47.7784C699.407 47.7784 692.43 47.0824 674.991 40.4539C657.552 33.8262 617.093 7.42851 583.261 3.83296C549.43 0.234629 465.025 -0.701971 412.01 19.1776C358.993 39.0595 326.905 44.2904 326.905 44.2904V55.8017C326.905 55.8017 324.812 63.8742 328.649 69.0797C328.649 69.0797 328.301 82.6555 320.977 82.6555C320.977 82.6555 314.001 83.0049 314.001 93.121C314 103.235 313.651 116.488 336.672 121.72ZM797.24 108.51L825.621 111.126C825.621 111.126 825.621 116.779 824.837 119.577C824.052 122.374 823.006 124.074 820.13 124.729C817.252 125.383 805.48 124.729 805.48 124.729C805.48 124.729 800.902 123.813 799.593 120.152C798.286 116.488 797.24 108.51 797.24 108.51ZM790.09 76.3792C790.09 76.3792 808.748 77.6001 813.284 80.0414C817.818 82.4832 820.259 92.5969 820.259 92.5969C795.669 90.3306 790.09 76.3792 790.09 76.3792ZM560.868 50.5874L551.659 11.1884C617.554 14.6168 642.258 34.999 675.495 51.6173C675.495 51.6173 619.936 52.058 560.868 50.5874ZM449.548 43.8882L443.587 23.9233C460.514 17.5013 488.607 10.6846 531.617 10.6846C536.282 10.6846 540.757 10.7628 545.072 10.9073L551.262 50.3321C512.977 49.245 474.403 47.3083 449.548 43.8882ZM422.297 35.0467C422.297 35.0467 427.344 30.6598 439.363 25.6095L442.825 42.869C430.403 40.7862 422.731 38.2158 422.297 35.0467Z" stroke="#3366FF" stroke-width="2" stroke-miterlimit="10"/>
<path d="M108.97 183H107.766V176.014C107.766 175.743 107.766 175.515 107.766 175.328C107.775 175.141 107.785 174.969 107.794 174.81C107.803 174.642 107.813 174.469 107.822 174.292C107.673 174.441 107.537 174.567 107.416 174.67C107.295 174.773 107.141 174.903 106.954 175.062L105.89 175.93L105.246 175.104L107.948 173.004H108.97V183ZM116.002 172.864C116.59 172.864 117.108 172.957 117.556 173.144C118.004 173.321 118.354 173.587 118.606 173.942C118.867 174.297 118.998 174.735 118.998 175.258C118.998 175.659 118.909 176.009 118.732 176.308C118.564 176.607 118.335 176.873 118.046 177.106C117.756 177.33 117.439 177.531 117.094 177.708C117.504 177.904 117.878 178.128 118.214 178.38C118.55 178.623 118.816 178.907 119.012 179.234C119.217 179.561 119.32 179.953 119.32 180.41C119.32 180.97 119.184 181.455 118.914 181.866C118.643 182.267 118.26 182.58 117.766 182.804C117.28 183.028 116.706 183.14 116.044 183.14C115.325 183.14 114.714 183.033 114.21 182.818C113.715 182.603 113.337 182.3 113.076 181.908C112.824 181.507 112.698 181.021 112.698 180.452C112.698 179.995 112.791 179.598 112.978 179.262C113.174 178.926 113.43 178.637 113.748 178.394C114.065 178.151 114.406 177.946 114.77 177.778C114.443 177.591 114.144 177.381 113.874 177.148C113.612 176.905 113.402 176.63 113.244 176.322C113.094 176.014 113.02 175.655 113.02 175.244C113.02 174.731 113.15 174.301 113.412 173.956C113.673 173.601 114.028 173.331 114.476 173.144C114.924 172.957 115.432 172.864 116.002 172.864ZM113.902 180.466C113.902 180.951 114.074 181.357 114.42 181.684C114.765 182.001 115.297 182.16 116.016 182.16C116.473 182.16 116.856 182.085 117.164 181.936C117.472 181.787 117.705 181.581 117.864 181.32C118.032 181.059 118.116 180.76 118.116 180.424C118.116 180.097 118.027 179.813 117.85 179.57C117.682 179.318 117.439 179.094 117.122 178.898C116.814 178.702 116.445 178.525 116.016 178.366L115.792 178.282C115.381 178.459 115.036 178.651 114.756 178.856C114.476 179.061 114.261 179.295 114.112 179.556C113.972 179.817 113.902 180.121 113.902 180.466ZM115.988 173.858C115.474 173.858 115.05 173.984 114.714 174.236C114.387 174.479 114.224 174.833 114.224 175.3C114.224 175.645 114.303 175.935 114.462 176.168C114.63 176.401 114.854 176.602 115.134 176.77C115.414 176.929 115.722 177.083 116.058 177.232C116.384 177.092 116.674 176.938 116.926 176.77C117.187 176.602 117.392 176.401 117.542 176.168C117.7 175.925 117.78 175.636 117.78 175.3C117.78 174.833 117.616 174.479 117.29 174.236C116.963 173.984 116.529 173.858 115.988 173.858ZM123.873 176.868C124.555 176.868 125.147 176.985 125.651 177.218C126.155 177.451 126.543 177.787 126.813 178.226C127.093 178.655 127.233 179.183 127.233 179.808C127.233 180.499 127.084 181.096 126.785 181.6C126.487 182.095 126.057 182.477 125.497 182.748C124.947 183.009 124.279 183.14 123.495 183.14C122.982 183.14 122.497 183.093 122.039 183C121.591 182.907 121.213 182.771 120.905 182.594V181.432C121.241 181.637 121.647 181.801 122.123 181.922C122.609 182.034 123.071 182.09 123.509 182.09C124.004 182.09 124.433 182.015 124.797 181.866C125.171 181.707 125.46 181.469 125.665 181.152C125.871 180.825 125.973 180.419 125.973 179.934C125.973 179.281 125.773 178.781 125.371 178.436C124.97 178.081 124.335 177.904 123.467 177.904C123.206 177.904 122.907 177.927 122.571 177.974C122.235 178.021 121.965 178.067 121.759 178.114L121.143 177.722L121.521 173.004H126.533V174.124H122.571L122.333 177.022C122.492 176.994 122.707 176.961 122.977 176.924C123.248 176.887 123.547 176.868 123.873 176.868ZM135.357 177.988C135.357 178.8 135.296 179.523 135.175 180.158C135.054 180.793 134.858 181.334 134.587 181.782C134.326 182.221 133.98 182.557 133.551 182.79C133.131 183.023 132.622 183.14 132.025 183.14C131.278 183.14 130.658 182.935 130.163 182.524C129.678 182.113 129.314 181.525 129.071 180.76C128.838 179.985 128.721 179.061 128.721 177.988C128.721 176.905 128.828 175.981 129.043 175.216C129.267 174.451 129.622 173.867 130.107 173.466C130.592 173.055 131.232 172.85 132.025 172.85C132.772 172.85 133.392 173.055 133.887 173.466C134.382 173.867 134.75 174.451 134.993 175.216C135.236 175.981 135.357 176.905 135.357 177.988ZM129.953 177.988C129.953 178.903 130.018 179.663 130.149 180.27C130.289 180.877 130.508 181.334 130.807 181.642C131.115 181.941 131.521 182.09 132.025 182.09C132.529 182.09 132.93 181.941 133.229 181.642C133.537 181.343 133.761 180.891 133.901 180.284C134.041 179.668 134.111 178.903 134.111 177.988C134.111 177.073 134.041 176.317 133.901 175.72C133.761 175.113 133.537 174.661 133.229 174.362C132.93 174.054 132.529 173.9 132.025 173.9C131.521 173.9 131.115 174.054 130.807 174.362C130.508 174.661 130.289 175.113 130.149 175.72C130.018 176.317 129.953 177.073 129.953 177.988Z" fill="#323232"/>
<path d="M1 177.5L99 177.5M235 177.5L142 177.5" stroke="#D6D6D6"/>
<line x1="0.5" y1="182" x2="0.5" y2="178" stroke="#D6D6D6"/>
<line x1="234.5" y1="182" x2="234.5" y2="178" stroke="#D6D6D6"/>
<path d="M562.728 180.732H561.272V183H560.082V180.732H555.294V179.682L559.998 172.948H561.272V179.626H562.728V180.732ZM560.082 176.476C560.082 176.233 560.082 176.014 560.082 175.818C560.091 175.613 560.101 175.421 560.11 175.244C560.119 175.067 560.124 174.899 560.124 174.74C560.133 174.572 560.143 174.413 560.152 174.264H560.096C560.021 174.441 559.928 174.633 559.816 174.838C559.704 175.043 559.597 175.216 559.494 175.356L556.498 179.626H560.082V176.476ZM570.292 177.274C570.292 177.843 570.25 178.413 570.166 178.982C570.091 179.542 569.956 180.074 569.76 180.578C569.564 181.073 569.293 181.516 568.948 181.908C568.602 182.291 568.164 182.594 567.632 182.818C567.1 183.033 566.456 183.14 565.7 183.14C565.513 183.14 565.294 183.126 565.042 183.098C564.799 183.079 564.598 183.047 564.44 183V181.95C564.608 182.006 564.804 182.053 565.028 182.09C565.252 182.118 565.466 182.132 565.672 182.132C566.325 182.132 566.862 182.025 567.282 181.81C567.711 181.595 568.052 181.306 568.304 180.942C568.556 180.569 568.738 180.139 568.85 179.654C568.962 179.159 569.027 178.641 569.046 178.1H568.962C568.822 178.315 568.644 178.511 568.43 178.688C568.215 178.865 567.954 179.005 567.646 179.108C567.347 179.211 566.992 179.262 566.582 179.262C566.012 179.262 565.508 179.145 565.07 178.912C564.64 178.669 564.304 178.324 564.062 177.876C563.828 177.428 563.712 176.882 563.712 176.238C563.712 175.538 563.842 174.936 564.104 174.432C564.374 173.928 564.748 173.541 565.224 173.27C565.7 172.999 566.26 172.864 566.904 172.864C567.38 172.864 567.823 172.957 568.234 173.144C568.644 173.321 569.004 173.592 569.312 173.956C569.62 174.32 569.858 174.777 570.026 175.328C570.203 175.879 570.292 176.527 570.292 177.274ZM566.904 173.9C566.325 173.9 565.849 174.091 565.476 174.474C565.112 174.857 564.93 175.44 564.93 176.224C564.93 176.868 565.084 177.377 565.392 177.75C565.709 178.114 566.194 178.296 566.848 178.296C567.296 178.296 567.683 178.207 568.01 178.03C568.336 177.843 568.588 177.61 568.766 177.33C568.952 177.05 569.046 176.761 569.046 176.462C569.046 176.163 568.999 175.865 568.906 175.566C568.822 175.258 568.691 174.978 568.514 174.726C568.336 174.474 568.112 174.273 567.842 174.124C567.571 173.975 567.258 173.9 566.904 173.9ZM577.925 175.342C577.925 175.79 577.841 176.177 577.673 176.504C577.505 176.831 577.263 177.097 576.945 177.302C576.637 177.507 576.273 177.652 575.853 177.736V177.792C576.656 177.885 577.253 178.137 577.645 178.548C578.037 178.959 578.233 179.495 578.233 180.158C578.233 180.737 578.098 181.255 577.827 181.712C577.557 182.16 577.137 182.51 576.567 182.762C576.007 183.014 575.284 183.14 574.397 183.14C573.875 183.14 573.389 183.098 572.941 183.014C572.493 182.939 572.064 182.799 571.653 182.594V181.446C572.073 181.651 572.526 181.815 573.011 181.936C573.497 182.048 573.963 182.104 574.411 182.104C575.307 182.104 575.951 181.931 576.343 181.586C576.745 181.231 576.945 180.746 576.945 180.13C576.945 179.71 576.833 179.374 576.609 179.122C576.395 178.861 576.077 178.669 575.657 178.548C575.237 178.427 574.733 178.366 574.145 178.366H573.179V177.316H574.159C574.71 177.316 575.167 177.237 575.531 177.078C575.905 176.919 576.185 176.7 576.371 176.42C576.567 176.131 576.665 175.799 576.665 175.426C576.665 174.941 576.502 174.567 576.175 174.306C575.849 174.035 575.405 173.9 574.845 173.9C574.491 173.9 574.169 173.937 573.879 174.012C573.59 174.077 573.319 174.175 573.067 174.306C572.825 174.427 572.577 174.572 572.325 174.74L571.709 173.9C571.952 173.713 572.227 173.541 572.535 173.382C572.853 173.223 573.203 173.097 573.585 173.004C573.968 172.911 574.383 172.864 574.831 172.864C575.877 172.864 576.651 173.097 577.155 173.564C577.669 174.031 577.925 174.623 577.925 175.342ZM586.315 177.274C586.315 177.843 586.273 178.413 586.189 178.982C586.114 179.542 585.979 180.074 585.783 180.578C585.587 181.073 585.316 181.516 584.971 181.908C584.626 182.291 584.187 182.594 583.655 182.818C583.123 183.033 582.479 183.14 581.723 183.14C581.536 183.14 581.317 183.126 581.065 183.098C580.822 183.079 580.622 183.047 580.463 183V181.95C580.631 182.006 580.827 182.053 581.051 182.09C581.275 182.118 581.49 182.132 581.695 182.132C582.348 182.132 582.885 182.025 583.305 181.81C583.734 181.595 584.075 181.306 584.327 180.942C584.579 180.569 584.761 180.139 584.873 179.654C584.985 179.159 585.05 178.641 585.069 178.1H584.985C584.845 178.315 584.668 178.511 584.453 178.688C584.238 178.865 583.977 179.005 583.669 179.108C583.37 179.211 583.016 179.262 582.605 179.262C582.036 179.262 581.532 179.145 581.093 178.912C580.664 178.669 580.328 178.324 580.085 177.876C579.852 177.428 579.735 176.882 579.735 176.238C579.735 175.538 579.866 174.936 580.127 174.432C580.398 173.928 580.771 173.541 581.247 173.27C581.723 172.999 582.283 172.864 582.927 172.864C583.403 172.864 583.846 172.957 584.257 173.144C584.668 173.321 585.027 173.592 585.335 173.956C585.643 174.32 585.881 174.777 586.049 175.328C586.226 175.879 586.315 176.527 586.315 177.274ZM582.927 173.9C582.348 173.9 581.872 174.091 581.499 174.474C581.135 174.857 580.953 175.44 580.953 176.224C580.953 176.868 581.107 177.377 581.415 177.75C581.732 178.114 582.218 178.296 582.871 178.296C583.319 178.296 583.706 178.207 584.033 178.03C584.36 177.843 584.612 177.61 584.789 177.33C584.976 177.05 585.069 176.761 585.069 176.462C585.069 176.163 585.022 175.865 584.929 175.566C584.845 175.258 584.714 174.978 584.537 174.726C584.36 174.474 584.136 174.273 583.865 174.124C583.594 173.975 583.282 173.9 582.927 173.9Z" fill="#323232"/>
<path d="M314 177.5L548 177.5M830 177.5L593 177.5" stroke="#D6D6D6"/>
<line x1="313.5" y1="182" x2="313.5" y2="178" stroke="#D6D6D6"/>
<line x1="829.5" y1="182" x2="829.5" y2="178" stroke="#D6D6D6"/>
<path d="M264.97 84H263.766V77.014C263.766 76.7433 263.766 76.5147 263.766 76.328C263.775 76.1413 263.785 75.9687 263.794 75.81C263.803 75.642 263.813 75.4693 263.822 75.292C263.673 75.4413 263.537 75.5673 263.416 75.67C263.295 75.7727 263.141 75.9033 262.954 76.062L261.89 76.93L261.246 76.104L263.948 74.004H264.97V84ZM275.74 81.732H274.284V84H273.094V81.732H268.306V80.682L273.01 73.948H274.284V80.626H275.74V81.732ZM273.094 77.476C273.094 77.2333 273.094 77.014 273.094 76.818C273.103 76.6127 273.112 76.4213 273.122 76.244C273.131 76.0667 273.136 75.8987 273.136 75.74C273.145 75.572 273.154 75.4133 273.164 75.264H273.108C273.033 75.4413 272.94 75.6327 272.828 75.838C272.716 76.0433 272.608 76.216 272.506 76.356L269.51 80.626H273.094V77.476ZM280.013 73.864C280.601 73.864 281.119 73.9573 281.567 74.144C282.015 74.3213 282.365 74.5873 282.617 74.942C282.879 75.2967 283.009 75.7353 283.009 76.258C283.009 76.6593 282.921 77.0093 282.743 77.308C282.575 77.6067 282.347 77.8727 282.057 78.106C281.768 78.33 281.451 78.5307 281.105 78.708C281.516 78.904 281.889 79.128 282.225 79.38C282.561 79.6227 282.827 79.9073 283.023 80.234C283.229 80.5607 283.331 80.9527 283.331 81.41C283.331 81.97 283.196 82.4553 282.925 82.866C282.655 83.2673 282.272 83.58 281.777 83.804C281.292 84.028 280.718 84.14 280.055 84.14C279.337 84.14 278.725 84.0327 278.221 83.818C277.727 83.6033 277.349 83.3 277.087 82.908C276.835 82.5067 276.709 82.0213 276.709 81.452C276.709 80.9947 276.803 80.598 276.989 80.262C277.185 79.926 277.442 79.6367 277.759 79.394C278.077 79.1513 278.417 78.946 278.781 78.778C278.455 78.5913 278.156 78.3813 277.885 78.148C277.624 77.9053 277.414 77.63 277.255 77.322C277.106 77.014 277.031 76.6547 277.031 76.244C277.031 75.7307 277.162 75.3013 277.423 74.956C277.685 74.6013 278.039 74.3307 278.487 74.144C278.935 73.9573 279.444 73.864 280.013 73.864ZM277.913 81.466C277.913 81.9513 278.086 82.3573 278.431 82.684C278.777 83.0013 279.309 83.16 280.027 83.16C280.485 83.16 280.867 83.0853 281.175 82.936C281.483 82.7867 281.717 82.5813 281.875 82.32C282.043 82.0587 282.127 81.76 282.127 81.424C282.127 81.0973 282.039 80.8127 281.861 80.57C281.693 80.318 281.451 80.094 281.133 79.898C280.825 79.702 280.457 79.5247 280.027 79.366L279.803 79.282C279.393 79.4593 279.047 79.6507 278.767 79.856C278.487 80.0613 278.273 80.2947 278.123 80.556C277.983 80.8173 277.913 81.1207 277.913 81.466ZM279.999 74.858C279.486 74.858 279.061 74.984 278.725 75.236C278.399 75.4787 278.235 75.8333 278.235 76.3C278.235 76.6453 278.315 76.9347 278.473 77.168C278.641 77.4013 278.865 77.602 279.145 77.77C279.425 77.9287 279.733 78.0827 280.069 78.232C280.396 78.092 280.685 77.938 280.937 77.77C281.199 77.602 281.404 77.4013 281.553 77.168C281.712 76.9253 281.791 76.636 281.791 76.3C281.791 75.8333 281.628 75.4787 281.301 75.236C280.975 74.984 280.541 74.858 279.999 74.858ZM291.357 78.988C291.357 79.8 291.296 80.5233 291.175 81.158C291.054 81.7927 290.858 82.334 290.587 82.782C290.326 83.2207 289.98 83.5567 289.551 83.79C289.131 84.0233 288.622 84.14 288.025 84.14C287.278 84.14 286.658 83.9347 286.163 83.524C285.678 83.1133 285.314 82.5253 285.071 81.76C284.838 80.9853 284.721 80.0613 284.721 78.988C284.721 77.9053 284.828 76.9813 285.043 76.216C285.267 75.4507 285.622 74.8673 286.107 74.466C286.592 74.0553 287.232 73.85 288.025 73.85C288.772 73.85 289.392 74.0553 289.887 74.466C290.382 74.8673 290.75 75.4507 290.993 76.216C291.236 76.9813 291.357 77.9053 291.357 78.988ZM285.953 78.988C285.953 79.9027 286.018 80.6633 286.149 81.27C286.289 81.8767 286.508 82.334 286.807 82.642C287.115 82.9407 287.521 83.09 288.025 83.09C288.529 83.09 288.93 82.9407 289.229 82.642C289.537 82.3433 289.761 81.8907 289.901 81.284C290.041 80.668 290.111 79.9027 290.111 78.988C290.111 78.0733 290.041 77.3173 289.901 76.72C289.761 76.1133 289.537 75.6607 289.229 75.362C288.93 75.054 288.529 74.9 288.025 74.9C287.521 74.9 287.115 75.054 286.807 75.362C286.508 75.6607 286.289 76.1133 286.149 76.72C286.018 77.3173 285.953 78.0733 285.953 78.988Z" fill="#323232"/>
<path d="M275 1L275 66.5M275 155L275 90.5" stroke="#D6D6D6"/>
<line x1="273" y1="0.5" x2="277" y2="0.5" stroke="#D6D6D6"/>
<line x1="273" y1="154.5" x2="277" y2="154.5" stroke="#D6D6D6"/>
</svg>
