<svg width="24" height="24" viewBox="0 0 24 24" fill="none" xmlns="http://www.w3.org/2000/svg">
<circle cx="12" cy="12" r="12" fill="#3366FF"/>
<path d="M15.4298 9.99611C15.7571 10.2644 15.7695 10.6107 15.7026 10.9668C15.6679 11.1473 15.6059 11.3253 15.5364 11.496C15.4596 11.6765 15.3282 11.8155 15.1323 11.8863C15.0951 11.9009 15.053 11.9472 15.043 11.9887C14.8695 12.7179 14.4802 13.3228 13.9347 13.8398C13.9025 13.8715 13.8802 13.9276 13.8802 13.9715C13.8752 14.3642 13.8603 14.7568 13.8827 15.1471C13.9025 15.4812 14.1157 15.7251 14.3711 15.9275C14.6637 16.1616 15.0158 16.286 15.3703 16.3982C15.9778 16.5885 16.5976 16.7494 17.1927 16.9738C18.3308 17.4006 19.0672 18.2201 19.4788 19.3346C19.5234 19.4542 19.4961 19.52 19.4118 19.598C18.6159 20.3443 17.7159 20.9419 16.7315 21.415C15.5736 21.9711 14.3562 22.3247 13.0694 22.4467C10.6743 22.6759 8.4502 22.1638 6.38979 20.9516C5.74513 20.5712 5.14759 20.1273 4.60211 19.62C4.48805 19.5127 4.47814 19.4249 4.5302 19.2859C5.00874 18.0079 5.93605 17.2031 7.24023 16.8006C7.80803 16.625 8.38326 16.4689 8.94857 16.2787C9.40975 16.1251 9.81637 15.8787 10.0271 15.4178C10.0792 15.3056 10.1089 15.1739 10.1114 15.0495C10.1238 14.7032 10.1213 14.3593 10.1114 14.013C10.1089 13.9422 10.0693 13.8569 10.0197 13.8081C9.49653 13.2935 9.11717 12.7033 8.95105 11.9863C8.94361 11.9521 8.9213 11.9009 8.89402 11.8936C8.56674 11.7911 8.44276 11.5277 8.35846 11.2375C8.27664 10.9595 8.20226 10.6766 8.30143 10.3888C8.33863 10.279 8.39813 10.1693 8.47748 10.0839C8.5469 10.0083 8.5469 9.95221 8.51467 9.86685C8.02374 8.52058 8.16507 7.22553 8.8965 6.00364C9.3552 5.23539 10.0842 4.79882 10.9619 4.61347C11.4652 4.50616 11.976 4.45494 12.4917 4.55006C13.0595 4.65493 13.5132 4.92808 13.8331 5.41099C13.8628 5.45489 13.9223 5.50854 13.9694 5.51098C14.567 5.54025 14.9736 5.8573 15.2687 6.34021C15.5786 6.85237 15.6926 7.42064 15.7472 8.00597C15.8042 8.6913 15.7199 9.35468 15.4298 9.99611Z" fill="white"/>
</svg>
