<svg width="22" height="22" viewBox="0 0 22 22" fill="none" xmlns="http://www.w3.org/2000/svg">
<circle cx="11" cy="11" r="10" stroke="#A8A8A8" stroke-width="2"/>
<path d="M17.2325 16.2788C16.8895 15.35 16.2759 14.6671 15.3275 14.3115C14.8316 14.1245 14.315 13.9903 13.8088 13.8318C13.5134 13.7383 13.22 13.6347 12.9761 13.4396C12.7633 13.2709 12.5856 13.0676 12.5691 12.7892C12.5505 12.464 12.5629 12.1368 12.567 11.8096C12.567 11.773 12.5856 11.7262 12.6125 11.6998C13.0671 11.2689 13.3914 10.7649 13.5361 10.1572C13.5443 10.1227 13.5795 10.084 13.6105 10.0718C13.7737 10.0129 13.8832 9.89705 13.9473 9.74665C14.0051 9.60438 14.0568 9.45602 14.0857 9.30562C14.1415 9.00889 14.1311 8.72029 13.8584 8.49672C14.1002 7.96219 14.1704 7.40938 14.1229 6.83827C14.0774 6.35049 13.9824 5.87694 13.7241 5.45013C13.4782 5.04771 13.1394 4.7835 12.6414 4.75911C12.6022 4.75708 12.5526 4.71236 12.5278 4.67578C12.2612 4.27336 11.8831 4.04573 11.41 3.95834C10.9802 3.87908 10.5546 3.92176 10.1351 4.01118C9.40368 4.16565 8.79622 4.52945 8.41397 5.16966C7.80444 6.1879 7.68667 7.26711 8.09577 8.389C8.12264 8.46014 8.12264 8.50688 8.06478 8.56989C7.99866 8.64102 7.94908 8.73248 7.91808 8.82394C7.83543 9.06376 7.89742 9.29952 7.96561 9.53122C8.03586 9.77307 8.13917 9.99258 8.4119 10.0779C8.43463 10.084 8.45323 10.1267 8.45943 10.1552C8.59786 10.7527 8.91399 11.2445 9.34996 11.6734C9.39128 11.714 9.42434 11.7852 9.42641 11.8441C9.43467 12.1327 9.43674 12.4193 9.42641 12.7079C9.42434 12.8115 9.39955 12.9213 9.35616 13.0148C9.18053 13.3989 8.84167 13.6042 8.45736 13.7322C7.98627 13.8907 7.50691 14.0208 7.03375 14.1672C5.94693 14.5025 5.17417 15.1732 4.77539 16.2382" stroke="#A8A8A8" stroke-width="2" stroke-linecap="round"/>
</svg>
