<svg width="16" height="16" viewBox="0 0 16 16" fill="none" xmlns="http://www.w3.org/2000/svg">
<path d="M9.76944 6.6708C10.144 6.41197 10.4573 6.07408 10.687 5.68096C10.9168 5.28784 11.0574 4.84909 11.099 4.39567C11.1407 3.94225 11.0823 3.48522 10.928 3.05684C10.7737 2.62846 10.5272 2.23917 10.206 1.91646C9.88477 1.59374 9.49664 1.34547 9.06899 1.18916C8.64133 1.03285 8.18458 0.972315 7.73097 1.01183C7.27736 1.05135 6.83796 1.18995 6.44377 1.41785C6.04959 1.64575 5.71023 1.9574 5.44966 2.3308M5.02344 5.01646C5.17092 5.49929 5.43341 5.9391 5.78836 6.29811C6.14331 6.65712 6.5801 6.9246 7.06121 7.07758" stroke="#3366FF" stroke-linecap="round" stroke-linejoin="round"/>
<path d="M3.33398 15V13.4444C3.33398 12.6193 3.66176 11.828 4.24521 11.2445C4.82865 10.6611 5.61998 10.3333 6.4451 10.3333H9.55621C9.85831 10.3331 10.1588 10.3768 10.4483 10.4632M12.5367 12.5484C12.6237 12.8391 12.6677 13.141 12.6673 13.4444V15" stroke="#3366FF" stroke-linecap="round" stroke-linejoin="round"/>
<path d="M1 1L15 15" stroke="#3366FF" stroke-linecap="round" stroke-linejoin="round"/>
</svg>
