<svg width="15" height="14" viewBox="0 0 15 14" fill="none" xmlns="http://www.w3.org/2000/svg">
<path d="M12.5556 3.7215H2.44444C1.6467 3.7215 1 4.36059 1 5.14895V11.5725C1 12.3608 1.6467 12.9999 2.44444 12.9999H12.5556C13.3533 12.9999 14 12.3608 14 11.5725V5.14895C14 4.36059 13.3533 3.7215 12.5556 3.7215Z" stroke="#3366FF" stroke-linecap="round" stroke-linejoin="round"/>
<path d="M4.61133 3.72154V2.29409C4.61133 1.91551 4.76351 1.55243 5.0344 1.28473C5.30528 1.01703 5.67268 0.866638 6.05577 0.866638H8.94466C9.32775 0.866638 9.69515 1.01703 9.96604 1.28473C10.2369 1.55243 10.3891 1.91551 10.3891 2.29409V3.72154" stroke="#3366FF" stroke-linecap="round" stroke-linejoin="round"/>
<path d="M7.5 7.29016V7.29787" stroke="#3366FF" stroke-linecap="round" stroke-linejoin="round"/>
<path d="M1 8.00388C3.01614 9.00786 5.24235 9.53084 7.5 9.53084C9.75765 9.53084 11.9839 9.00786 14 8.00388" stroke="#3366FF" stroke-linecap="round" stroke-linejoin="round"/>
</svg>
