<svg width="15" height="14" viewBox="0 0 15 14" fill="none" xmlns="http://www.w3.org/2000/svg">
<path d="M12.5556 3.55298H2.44444C1.6467 3.55298 1 4.18661 1 4.96823V11.3369C1 12.1185 1.6467 12.7521 2.44444 12.7521H12.5556C13.3533 12.7521 14 12.1185 14 11.3369V4.96823C14 4.18661 13.3533 3.55298 12.5556 3.55298Z" stroke="white" stroke-linecap="round" stroke-linejoin="round"/>
<path d="M4.61133 3.55291V2.13766C4.61133 1.76231 4.76351 1.40234 5.0344 1.13693C5.30528 0.871518 5.67268 0.722412 6.05577 0.722412H8.94466C9.32775 0.722412 9.69515 0.871518 9.96604 1.13693C10.2369 1.40234 10.3891 1.76231 10.3891 2.13766V3.55291" stroke="white" stroke-linecap="round" stroke-linejoin="round"/>
<path d="M7.5 7.09106V7.09877" stroke="white" stroke-linecap="round" stroke-linejoin="round"/>
<path d="M1 7.79858C3.01614 8.79399 5.24235 9.3125 7.5 9.3125C9.75765 9.3125 11.9839 8.79399 14 7.79858" stroke="white" stroke-linecap="round" stroke-linejoin="round"/>
</svg>
