<svg width="284" height="194" viewBox="0 0 284 194" fill="none" xmlns="http://www.w3.org/2000/svg">
<path d="M37.67 76.3048C37.669 76.3048 37.669 76.3048 37.67 76.3048C36.258 76.2218 35.43 76.3958 34.902 76.8888C34.188 77.5558 34.173 78.6648 34.152 80.3438C34.149 80.5728 34.146 80.8128 34.141 81.0658C34.059 85.2108 33.903 94.1058 33.903 98.1008C33.903 102.096 34.058 110.991 34.141 115.136C34.146 115.388 34.149 115.629 34.152 115.858C34.174 117.537 34.188 118.646 34.902 119.313C35.346 119.728 36.003 119.917 37.041 119.917C37.236 119.917 37.446 119.91 37.669 119.897C41.46 119.673 42.354 117.856 42.922 113.865C43.509 109.746 43.579 98.5758 43.581 98.0978C43.578 97.6248 43.508 86.4548 42.922 82.3358C42.354 78.3468 41.461 76.5288 37.67 76.3048ZM42.204 113.763C41.618 117.879 40.677 118.991 37.627 119.171C36.448 119.241 35.759 119.12 35.396 118.78C34.909 118.325 34.896 117.34 34.877 115.848C34.874 115.617 34.871 115.375 34.866 115.121C34.784 110.978 34.629 102.09 34.629 98.0998C34.629 94.1108 34.784 85.2218 34.866 81.0798C34.871 80.8258 34.874 80.5838 34.877 80.3528C34.896 78.8608 34.909 77.8758 35.396 77.4208C35.694 77.1428 36.2099 77.0108 37.0359 77.0108C37.2179 77.0108 37.415 77.0168 37.627 77.0298C40.677 77.2098 41.618 78.3218 42.204 82.4378C42.783 86.5078 42.8549 97.9858 42.8559 98.0968C42.8559 98.2138 42.784 109.693 42.204 113.763Z" fill="#3366FF"/>
<path d="M46.127 77.9877C46.125 77.9807 46.126 77.9737 46.124 77.9667C45.966 77.4897 45.803 77.0847 45.63 76.7397C45.627 76.7337 45.624 76.7287 45.622 76.7227C45.589 76.6577 45.556 76.5937 45.522 76.5327C45.515 76.5197 45.507 76.5057 45.5 76.4917C45.462 76.4237 45.423 76.3587 45.384 76.2957C43.895 73.9287 41.27 72.9277 38.232 71.7687C36.683 71.1777 35.081 70.5657 33.472 69.7157V69.2157C33.931 69.1977 34.69 69.0877 35.222 68.6007C35.614 68.2417 35.813 67.7537 35.813 67.1507C35.813 67.0217 35.814 66.8827 35.815 66.7337C35.829 65.0917 35.85 62.6117 34.589 61.3357C34.084 60.8247 33.426 60.5657 32.647 60.5657C32.604 60.5637 31.611 60.5317 30.881 61.2347C30.392 61.7057 30.144 62.3787 30.144 63.2347V67.5307C30.1 67.4957 30.057 67.4637 30.013 67.4287C29.919 67.3547 29.825 67.2817 29.731 67.2097C29.667 67.1607 29.603 67.1137 29.54 67.0667C29.446 66.9967 29.353 66.9287 29.26 66.8617C29.2 66.8187 29.141 66.7767 29.081 66.7347C28.984 66.6667 28.888 66.6007 28.792 66.5347C28.738 66.4977 28.684 66.4617 28.63 66.4257C28.53 66.3597 28.431 66.2957 28.331 66.2317C28.282 66.2007 28.232 66.1687 28.183 66.1387C28.083 66.0767 27.983 66.0157 27.883 65.9567C27.836 65.9287 27.788 65.8997 27.741 65.8727C27.645 65.8167 27.55 65.7627 27.454 65.7097C27.403 65.6817 27.351 65.6527 27.301 65.6247C27.216 65.5787 27.131 65.5347 27.047 65.4907C26.985 65.4587 26.922 65.4257 26.861 65.3957C26.793 65.3617 26.725 65.3287 26.658 65.2967C26.577 65.2577 26.497 65.2197 26.417 65.1827C26.371 65.1617 26.324 65.1407 26.278 65.1207C26.171 65.0727 26.066 65.0277 25.961 64.9847C25.941 64.9767 25.922 64.9687 25.902 64.9607C23.408 63.9407 21.688 64.1467 20.997 64.3097C20.683 64.2807 20.37 64.2657 20.066 64.2657H4.873C0.578999 64.2657 0 66.9087 0 69.4927V70.8307C0 73.4157 0.578999 76.0587 4.873 76.0587H5.972V120.156H4.873C0.578999 120.156 0 122.799 0 125.384V126.722C0 129.307 0.578999 131.95 4.873 131.95H20.064C20.385 131.95 20.711 131.933 21.035 131.902C21.469 132 22.264 132.105 23.369 131.95C23.386 131.95 23.402 131.949 23.419 131.946C25.246 131.675 27.165 130.827 29.139 129.425C29.158 129.411 29.177 129.398 29.196 129.384C29.323 129.293 29.45 129.2 29.577 129.105C29.618 129.075 29.658 129.044 29.699 129.013C29.806 128.931 29.914 128.848 30.022 128.763C30.062 128.731 30.101 128.702 30.141 128.67V131.897C30.141 132.753 30.389 133.426 30.878 133.897C31.533 134.528 32.401 134.567 32.602 134.567C32.616 134.567 32.627 134.567 32.634 134.567C33.426 134.566 34.083 134.307 34.587 133.797C35.848 132.521 35.827 130.04 35.813 128.398C35.812 128.25 35.811 128.11 35.811 127.981C35.811 127.377 35.612 126.889 35.22 126.531C34.96 126.293 34.645 126.146 34.338 126.055C35.648 125.427 36.948 124.929 38.213 124.446C40.308 123.647 42.205 122.923 43.67 121.775C44.337 121.255 44.916 120.648 45.382 119.906C48.057 115.653 48.002 98.8157 47.999 98.1037C48.003 97.4617 48.047 83.8567 46.127 77.9877ZM24.854 69.6357C24.857 69.6357 24.859 69.6357 24.862 69.6357C24.917 69.6377 24.978 69.6397 25.043 69.6427C25.047 69.6427 25.052 69.6427 25.056 69.6437C25.265 69.6547 25.522 69.6767 25.803 69.7167C25.805 69.7167 25.808 69.7177 25.81 69.7177C25.903 69.7307 25.999 69.7467 26.096 69.7647C26.099 69.7657 26.103 69.7657 26.106 69.7667C26.605 69.8577 27.151 70.0107 27.637 70.2647C27.64 70.2657 27.642 70.2677 27.645 70.2687C27.741 70.3187 27.834 70.3737 27.925 70.4317C27.926 70.4327 27.927 70.4327 27.928 70.4337C28.11 70.5527 28.28 70.6887 28.429 70.8457C28.43 70.8467 28.431 70.8477 28.431 70.8477C28.5 70.9207 28.564 70.9987 28.624 71.0807C28.632 71.0917 28.64 71.1017 28.647 71.1117C28.771 71.2877 28.872 71.4827 28.944 71.7017C29.017 71.9267 29.08 72.2047 29.134 72.5227C29.17 72.7347 29.202 72.9647 29.23 73.2097C29.301 73.8217 29.349 74.5237 29.38 75.2627C29.518 78.5147 29.334 82.4787 29.331 82.5357C29.33 82.5497 29.332 82.5647 29.333 82.5787C29.334 82.5877 29.333 82.5957 29.334 82.6047V82.6057C29.336 82.6217 29.537 84.0827 28.571 84.8897L24.851 79.4807V69.6357H24.854ZM29.196 70.6257C28.033 69.0577 25.535 68.9087 24.728 68.9037C24.236 67.7017 23.934 65.9257 23.809 65.0747C23.897 65.0927 23.988 65.1137 24.081 65.1357C24.167 65.1567 24.255 65.1797 24.346 65.2037C24.36 65.2077 24.373 65.2107 24.387 65.2147C24.471 65.2377 24.557 65.2627 24.645 65.2897C24.665 65.2957 24.686 65.3027 24.706 65.3087C24.792 65.3357 24.879 65.3637 24.968 65.3937C24.991 65.4017 25.014 65.4097 25.037 65.4177C25.127 65.4487 25.218 65.4807 25.31 65.5157C25.329 65.5227 25.349 65.5307 25.368 65.5377C25.686 65.6587 26.022 65.8027 26.375 65.9727C26.383 65.9767 26.391 65.9807 26.4 65.9847C26.485 66.0257 26.572 66.0707 26.659 66.1157C26.71 66.1417 26.761 66.1667 26.812 66.1947C26.891 66.2357 26.971 66.2807 27.052 66.3247C27.115 66.3587 27.177 66.3927 27.24 66.4287C27.317 66.4727 27.395 66.5177 27.473 66.5637C27.543 66.6047 27.613 66.6467 27.684 66.6897C27.76 66.7357 27.836 66.7827 27.913 66.8317C27.99 66.8797 28.067 66.9297 28.145 66.9807C28.219 67.0287 28.293 67.0777 28.368 67.1277C28.453 67.1847 28.539 67.2447 28.626 67.3057C28.696 67.3547 28.766 67.4027 28.837 67.4537C28.937 67.5257 29.039 67.6007 29.14 67.6767C29.2 67.7217 29.259 67.7637 29.319 67.8097C29.482 67.9347 29.647 68.0627 29.815 68.1987C29.972 68.3257 30.13 68.4467 30.288 68.5657C30.296 68.5717 30.304 68.5767 30.312 68.5827L32.849 70.1907C32.85 70.1917 32.852 70.1927 32.853 70.1937C32.873 70.2137 32.896 70.2307 32.921 70.2457C32.926 70.2487 32.929 70.2527 32.934 70.2557C32.935 70.2557 32.935 70.2567 32.936 70.2567C32.957 70.2687 32.979 70.2787 33 70.2897L33.035 70.3087C33.043 70.3137 33.053 70.3177 33.062 70.3217C34.733 71.2117 36.381 71.8407 37.975 72.4487C39.061 72.8627 40.092 73.2557 41.028 73.6977C41.051 73.7087 41.073 73.7197 41.095 73.7297C41.222 73.7907 41.348 73.8517 41.471 73.9147C41.51 73.9347 41.548 73.9547 41.587 73.9747C41.693 74.0297 41.799 74.0857 41.902 74.1427C41.949 74.1687 41.995 74.1957 42.042 74.2217C42.135 74.2747 42.227 74.3277 42.318 74.3827C42.37 74.4137 42.42 74.4457 42.471 74.4777C42.554 74.5297 42.636 74.5827 42.717 74.6367C42.77 74.6727 42.823 74.7087 42.875 74.7457C42.95 74.7987 43.024 74.8517 43.097 74.9067C43.15 74.9467 43.203 74.9877 43.255 75.0287C43.324 75.0827 43.391 75.1377 43.458 75.1937C43.51 75.2377 43.562 75.2827 43.613 75.3277C43.676 75.3837 43.738 75.4417 43.799 75.5007C43.849 75.5487 43.898 75.5967 43.947 75.6457C44.005 75.7057 44.062 75.7667 44.118 75.8287C44.165 75.8807 44.212 75.9327 44.257 75.9857C44.311 76.0487 44.362 76.1147 44.414 76.1807C44.457 76.2357 44.501 76.2917 44.542 76.3487C44.555 76.3667 44.567 76.3857 44.58 76.4037C41.084 73.6607 34.89 72.0777 30.188 70.8767C29.847 70.7927 29.516 70.7087 29.196 70.6257ZM31.377 61.7657C31.88 61.2767 32.609 61.2937 32.63 61.2947C33.232 61.2947 33.704 61.4757 34.073 61.8497C35.121 62.9107 35.101 65.3007 35.089 66.7297C35.088 66.8807 35.087 67.0227 35.087 67.1527C35.087 67.5477 34.972 67.8457 34.735 68.0637C34.181 68.5727 33.152 68.4877 33.143 68.4867C33.041 68.4767 32.941 68.5117 32.865 68.5797C32.79 68.6487 32.747 68.7467 32.747 68.8487V69.2677L30.869 68.0777V63.2367C30.868 62.5887 31.039 62.0937 31.377 61.7657ZM6.698 120.419V117.949H8.418C9.525 117.949 10.426 118.853 10.426 119.963C10.426 121.073 9.525 121.978 8.418 121.978H6.714V120.52C6.714 120.484 6.707 120.451 6.698 120.419ZM6.698 75.6947V74.2247H8.418C9.525 74.2247 10.426 75.1287 10.426 76.2387C10.426 77.3497 9.525 78.2537 8.418 78.2537H6.698V75.6947ZM21.177 131.186C21.171 131.184 21.167 131.181 21.162 131.179C21.02 131.146 20.943 131.117 20.938 131.115C20.892 131.097 20.842 131.088 20.793 131.091C20.792 131.091 20.785 131.091 20.783 131.091C20.781 131.091 20.779 131.091 20.777 131.091C20.758 131.092 20.325 131.107 19.622 131.095C17.088 131.049 11.098 130.638 8.258 127.901C7.234 126.914 6.715 125.7 6.715 124.291V122.705H8.419C9.926 122.705 11.152 121.475 11.152 119.963C11.152 118.451 9.926 117.221 8.419 117.221H6.699V78.9807H8.419C9.926 78.9807 11.152 77.7507 11.152 76.2387C11.152 74.7267 9.926 73.4967 8.419 73.4967H6.699V71.9107C6.699 70.5027 7.218 69.2877 8.242 68.3007C11.312 65.3417 18.063 65.1017 20.151 65.1017C20.228 65.1017 20.299 65.1017 20.363 65.1027C20.427 65.1037 20.484 65.1037 20.534 65.1047C20.634 65.1067 20.705 65.1077 20.744 65.1097C20.763 65.1107 20.775 65.1107 20.777 65.1107C20.828 65.1117 20.876 65.1037 20.922 65.0867C20.924 65.0857 20.929 65.0837 20.934 65.0827C21.036 65.0477 21.792 64.8107 23.061 64.9537C23.172 65.7717 23.516 67.9577 24.129 69.3477V79.3097C23.125 79.5357 20.139 80.5517 20.139 84.6587V97.8267C20.138 97.8347 20.138 97.8427 20.138 97.8517V111.543C20.138 115.652 23.125 116.667 24.129 116.893V126.831C23.508 128.213 23.16 130.418 23.046 131.252C22.145 131.351 21.505 131.259 21.177 131.186ZM44.027 120.466C44.013 120.481 44 120.495 43.986 120.51C43.907 120.593 43.824 120.673 43.741 120.752C43.706 120.785 43.671 120.818 43.636 120.85C43.57 120.91 43.501 120.969 43.432 121.027C43.373 121.076 43.314 121.125 43.253 121.173C43.203 121.212 43.153 121.251 43.102 121.289C43.015 121.354 42.926 121.419 42.836 121.482C42.809 121.501 42.782 121.52 42.754 121.538C41.434 122.431 39.782 123.062 37.976 123.75C36.342 124.373 34.652 125.017 32.938 125.942C32.924 125.95 32.913 125.962 32.9 125.972C32.879 125.986 32.857 126 32.839 126.018L30.298 127.629C30.295 127.631 30.291 127.632 30.288 127.634C30.13 127.753 29.973 127.874 29.816 128.001C29.64 128.143 29.467 128.279 29.296 128.409C29.287 128.416 29.277 128.423 29.268 128.43C29.107 128.552 28.948 128.669 28.791 128.781C28.779 128.79 28.767 128.798 28.754 128.807C28.597 128.918 28.443 129.025 28.29 129.127C28.284 129.131 28.279 129.134 28.273 129.138C26.44 130.357 24.913 130.9 23.795 131.131C23.92 130.278 24.221 128.511 24.712 127.311C25.232 127.307 26.455 127.241 27.571 126.775C27.585 126.769 27.598 126.763 27.611 126.758C27.692 126.723 27.772 126.688 27.852 126.649C27.931 126.611 28.008 126.571 28.085 126.528C28.092 126.524 28.1 126.52 28.107 126.516C28.519 126.283 28.895 125.98 29.188 125.588C29.506 125.506 29.834 125.422 30.172 125.336C34.878 124.134 41.08 122.549 44.573 119.801C44.406 120.036 44.223 120.257 44.027 120.466ZM29.337 113.593C29.334 113.616 29.332 113.64 29.333 113.663C29.336 113.716 29.488 116.996 29.412 120.035C29.408 120.187 29.404 120.338 29.399 120.489C29.389 120.79 29.377 121.086 29.361 121.375C29.292 122.675 29.165 123.821 28.946 124.497C28.879 124.704 28.783 124.887 28.669 125.055C28.666 125.059 28.662 125.061 28.659 125.065C28.63 125.108 28.599 125.149 28.568 125.189C28.545 125.218 28.522 125.246 28.498 125.274C28.463 125.315 28.426 125.355 28.388 125.394C28.328 125.454 28.266 125.513 28.2 125.568C28.196 125.571 28.193 125.574 28.19 125.577C27.178 126.403 25.56 126.545 24.854 126.566V116.718L28.574 111.309C29.533 112.107 29.346 113.529 29.337 113.593ZM35.086 127.981C35.086 128.112 35.087 128.253 35.088 128.404C35.1 129.832 35.12 132.223 34.072 133.284C33.703 133.657 33.231 133.839 32.629 133.839C32.625 133.839 32.62 133.839 32.616 133.839C32.609 133.84 31.879 133.856 31.376 133.367C31.038 133.038 30.867 132.544 30.867 131.896V128.127L33.208 126.642C33.445 126.633 34.26 126.635 34.733 127.069C34.971 127.288 35.086 127.586 35.086 127.981ZM45.464 117.925C42.697 121.383 35.054 123.336 29.993 124.629C29.872 124.66 29.755 124.69 29.637 124.72C30.439 122.241 30.091 114.319 30.06 113.661C30.069 113.584 30.086 113.405 30.081 113.166C30.069 112.567 29.923 111.588 29.182 110.878C29.034 110.736 28.862 110.605 28.663 110.489C28.622 110.465 28.579 110.451 28.534 110.444C28.401 110.425 28.264 110.48 28.183 110.597L24.333 116.195C23.566 116.047 20.864 115.263 20.864 111.541V97.8747C20.865 97.8667 20.865 97.8587 20.865 97.8497V84.6577C20.865 80.9377 23.565 80.1517 24.332 80.0037L28.183 85.6037C28.253 85.7057 28.366 85.7607 28.482 85.7607C28.544 85.7607 28.606 85.7447 28.663 85.7117C28.862 85.5967 29.034 85.4647 29.182 85.3227C29.923 84.6127 30.069 83.6337 30.081 83.0337C30.086 82.7937 30.069 82.6147 30.06 82.5387C30.091 81.8807 30.439 73.9787 29.64 71.4897C29.762 71.5207 29.884 71.5517 30.008 71.5837C35.058 72.8737 42.677 74.8207 45.461 78.2637C47.322 84.0117 47.276 97.9417 47.275 98.1027C47.275 98.2597 47.322 112.17 45.464 117.925Z" fill="#3366FF"/>
<path d="M197.626 173.102C197.513 173.088 197.401 173.123 197.315 173.199C197.23 173.275 197.181 173.383 197.181 173.497V178.723C197.181 178.893 197.289 179.045 197.448 179.1C197.881 179.249 198.261 179.495 198.579 179.83C198.655 179.911 198.76 179.953 198.866 179.953C198.92 179.953 198.975 179.942 199.026 179.919L203.783 177.796C203.887 177.75 203.966 177.66 204 177.551C204.034 177.442 204.019 177.323 203.96 177.225C202.574 174.933 200.265 173.43 197.626 173.102ZM198.95 179.082C198.66 178.82 198.329 178.606 197.973 178.451V173.961C200.037 174.337 201.846 175.514 203.04 177.258L198.95 179.082Z" fill="#3366FF"/>
<path d="M199.335 181.472C199.344 181.568 199.35 181.666 199.35 181.765C199.35 182.197 199.25 182.619 199.054 183.019C198.979 183.172 199.009 183.356 199.129 183.477L202.799 187.174C202.873 187.249 202.974 187.291 203.079 187.291C203.087 187.291 203.095 187.291 203.103 187.29C203.216 187.283 203.321 187.228 203.391 187.138C204.594 185.586 205.229 183.728 205.229 181.766C205.229 180.896 205.101 180.035 204.847 179.205C204.814 179.096 204.736 179.007 204.633 178.96C204.53 178.912 204.412 178.912 204.309 178.958L199.569 181.07C199.412 181.139 199.318 181.301 199.335 181.472ZM200.14 181.685L204.209 179.872C204.36 180.491 204.437 181.126 204.437 181.765C204.437 183.397 203.953 184.95 203.032 186.283L199.88 183.108C200.053 182.676 200.141 182.226 200.141 181.765C200.141 181.739 200.141 181.712 200.14 181.685Z" fill="#3366FF"/>
<path d="M194.037 183C193.847 182.609 193.75 182.193 193.75 181.765C193.75 181.666 193.757 181.567 193.766 181.472C193.783 181.301 193.688 181.139 193.533 181.069L188.793 178.957C188.69 178.911 188.572 178.911 188.469 178.959C188.366 179.006 188.288 179.095 188.255 179.204C188.001 180.033 187.873 180.895 187.873 181.765C187.873 183.722 188.502 185.572 189.693 187.115C189.763 187.205 189.867 187.261 189.981 187.268C189.989 187.269 189.998 187.269 190.006 187.269C190.111 187.269 190.211 187.227 190.286 187.153L193.963 183.457C194.081 183.337 194.111 183.153 194.037 183ZM190.051 186.262C189.142 184.937 188.663 183.392 188.663 181.765C188.663 181.125 188.74 180.489 188.891 179.872L192.96 181.685C192.959 181.712 192.959 181.739 192.959 181.766C192.959 182.221 193.043 182.664 193.21 183.087L190.051 186.262Z" fill="#3366FF"/>
<path d="M189.312 177.796L194.073 179.919C194.125 179.942 194.179 179.953 194.233 179.953C194.34 179.953 194.444 179.91 194.521 179.828C194.829 179.5 195.22 179.248 195.65 179.099C195.81 179.044 195.917 178.892 195.917 178.722V173.496C195.917 173.382 195.868 173.273 195.783 173.198C195.698 173.123 195.585 173.086 195.472 173.101C192.835 173.429 190.525 174.931 189.133 177.223C189.074 177.321 189.059 177.44 189.093 177.549C189.129 177.66 189.208 177.75 189.312 177.796ZM195.127 173.96V178.45C194.769 178.607 194.438 178.82 194.15 179.081L190.058 177.256C191.254 175.514 193.064 174.336 195.127 173.96Z" fill="#3366FF"/>
<path d="M198.228 184.373C198.109 184.254 197.928 184.222 197.776 184.296C196.983 184.682 196.095 184.68 195.302 184.287C195.15 184.212 194.967 184.242 194.848 184.363L191.178 188.056C191.098 188.137 191.056 188.248 191.063 188.362C191.07 188.476 191.125 188.581 191.214 188.652C192.751 189.862 194.596 190.502 196.549 190.502C198.496 190.502 200.335 189.867 201.866 188.666C201.955 188.596 202.011 188.491 202.018 188.377C202.025 188.263 201.983 188.152 201.903 188.071L198.228 184.373ZM196.548 189.705C194.924 189.705 193.382 189.218 192.061 188.292L195.214 185.119C196.067 185.465 197.006 185.467 197.859 185.128L201.016 188.305C199.702 189.222 198.167 189.705 196.548 189.705Z" fill="#3366FF"/>
<path d="M95.559 173.102C95.446 173.088 95.333 173.123 95.248 173.199C95.163 173.275 95.114 173.383 95.114 173.497V178.723C95.114 178.893 95.222 179.045 95.382 179.1C95.814 179.249 96.204 179.501 96.511 179.829C96.587 179.91 96.692 179.954 96.799 179.954C96.853 179.954 96.908 179.943 96.959 179.92L101.72 177.797C101.824 177.751 101.904 177.661 101.937 177.552C101.971 177.443 101.956 177.324 101.897 177.226C100.508 174.933 98.197 173.43 95.559 173.102ZM96.885 179.082C96.597 178.821 96.266 178.607 95.907 178.451V173.961C97.97 174.337 99.781 175.514 100.977 177.258L96.885 179.082Z" fill="#3366FF"/>
<path d="M97.2679 181.472C97.2769 181.568 97.2839 181.666 97.2839 181.765C97.2839 182.198 97.1839 182.62 96.9879 183.019C96.9129 183.172 96.9429 183.356 97.0629 183.477L100.733 187.174C100.807 187.249 100.908 187.291 101.013 187.291C101.021 187.291 101.029 187.291 101.037 187.29C101.15 187.283 101.255 187.228 101.325 187.138C102.528 185.586 103.163 183.729 103.163 181.766C103.163 180.896 103.034 180.034 102.781 179.205C102.748 179.096 102.67 179.007 102.567 178.96C102.464 178.913 102.346 178.913 102.243 178.958L97.5029 181.07C97.3459 181.139 97.2519 181.301 97.2679 181.472ZM98.0739 181.685L102.143 179.872C102.294 180.49 102.371 181.125 102.371 181.765C102.371 183.398 101.887 184.951 100.967 186.283L97.8149 183.108C97.9879 182.677 98.0749 182.226 98.0749 181.765C98.0749 181.739 98.0749 181.712 98.0739 181.685Z" fill="#3366FF"/>
<path d="M87.2471 177.796L92.0081 179.919C92.0601 179.942 92.1141 179.953 92.1681 179.953C92.2751 179.953 92.3791 179.91 92.4561 179.828C92.7641 179.5 93.1541 179.248 93.5861 179.099C93.7461 179.044 93.8531 178.892 93.8531 178.722V173.496C93.8531 173.382 93.8041 173.273 93.7191 173.198C93.6341 173.123 93.5211 173.086 93.4081 173.101C90.7701 173.429 88.4601 174.932 87.0691 177.223C87.0101 177.321 86.9951 177.44 87.0291 177.549C87.0641 177.66 87.1431 177.75 87.2471 177.796ZM93.0611 173.96V178.45C92.7021 178.607 92.3711 178.821 92.0831 179.081L87.9911 177.256C89.1881 175.514 90.9981 174.336 93.0611 173.96Z" fill="#3366FF"/>
<path d="M96.1631 184.373C96.0441 184.254 95.8631 184.222 95.7111 184.296C94.9161 184.683 94.0291 184.68 93.2361 184.287C93.0841 184.212 92.9011 184.242 92.7821 184.363L89.1121 188.056C89.0321 188.137 88.9901 188.248 88.9971 188.362C89.0041 188.476 89.0591 188.581 89.1481 188.652C90.6851 189.862 92.5301 190.502 94.4831 190.502C96.4301 190.502 98.2681 189.867 99.8001 188.666C99.8901 188.596 99.9451 188.49 99.9521 188.376C99.9591 188.262 99.9171 188.151 99.8371 188.07L96.1631 184.373ZM94.4821 189.705C92.8581 189.705 91.3161 189.218 89.9951 188.292L93.1481 185.119C94.0011 185.465 94.9391 185.468 95.7931 185.128L98.9501 188.305C97.6361 189.222 96.1001 189.705 94.4821 189.705Z" fill="#3366FF"/>
<path d="M91.9709 182.999C91.7809 182.61 91.6839 182.195 91.6839 181.765C91.6839 181.666 91.6899 181.567 91.6999 181.471C91.7159 181.3 91.6219 181.138 91.4659 181.068L86.7259 178.956C86.6219 178.91 86.5049 178.91 86.4019 178.958C86.2989 179.005 86.2209 179.094 86.1879 179.203C85.9339 180.034 85.8059 180.896 85.8059 181.764C85.8059 183.721 86.4359 185.571 87.6269 187.114C87.6969 187.204 87.8009 187.26 87.9149 187.267C87.9229 187.268 87.9319 187.268 87.9399 187.268C88.0449 187.268 88.1449 187.226 88.2199 187.152L91.8969 183.456C92.0149 183.336 92.0449 183.152 91.9709 182.999ZM87.9849 186.262C87.0749 184.937 86.5969 183.392 86.5969 181.765C86.5969 181.126 86.6739 180.491 86.8249 179.872L90.8939 181.685C90.8929 181.712 90.8929 181.739 90.8929 181.765C90.8929 182.221 90.9769 182.665 91.1439 183.086L87.9849 186.262Z" fill="#3366FF"/>
<path d="M141.094 162.314C139.965 162.314 139.047 163.238 139.047 164.374C139.047 165.509 139.965 166.433 141.094 166.433H143.179C144.307 166.433 145.225 165.509 145.225 164.374C145.225 163.238 144.307 162.314 143.179 162.314H141.094ZM144.434 164.374C144.434 165.07 143.871 165.637 143.179 165.637H141.094C140.401 165.637 139.838 165.071 139.838 164.374C139.838 163.677 140.401 163.111 141.094 163.111H143.179C143.871 163.11 144.434 163.677 144.434 164.374Z" fill="#3366FF"/>
<path d="M107.443 161.167C106.315 161.167 105.397 162.091 105.397 163.226C105.397 164.361 106.315 165.285 107.443 165.285H109.528C110.657 165.285 111.575 164.361 111.575 163.226C111.575 162.091 110.657 161.167 109.528 161.167H107.443ZM110.783 163.227C110.783 163.923 110.22 164.49 109.527 164.49H107.442C106.75 164.49 106.187 163.923 106.187 163.227C106.187 162.531 106.75 161.964 107.442 161.964H109.527C110.22 161.964 110.783 162.53 110.783 163.227Z" fill="#3366FF"/>
<path d="M194.475 181.766C194.475 182.918 195.406 183.854 196.55 183.854C197.694 183.854 198.625 182.917 198.625 181.766C198.625 180.615 197.694 179.678 196.55 179.678C195.405 179.678 194.475 180.614 194.475 181.766ZM196.55 180.474C197.258 180.474 197.833 181.054 197.833 181.766C197.833 182.478 197.257 183.058 196.55 183.058C195.842 183.058 195.266 182.478 195.266 181.766C195.266 181.054 195.842 180.474 196.55 180.474Z" fill="#3366FF"/>
<path d="M92.3979 181.766C92.3979 182.918 93.3289 183.854 94.4729 183.854C95.6169 183.854 96.5479 182.917 96.5479 181.766C96.5479 180.615 95.6169 179.678 94.4729 179.678C93.3289 179.678 92.3979 180.614 92.3979 181.766ZM94.4729 180.474C95.1809 180.474 95.7569 181.054 95.7569 181.766C95.7569 182.478 95.1809 183.058 94.4729 183.058C93.7649 183.058 93.1889 182.478 93.1889 181.766C93.1889 181.054 93.7659 180.474 94.4729 180.474Z" fill="#3366FF"/>
<path d="M226.859 174.677C226.7 174.014 226.525 173.365 226.337 172.745C225.995 169.015 223.569 165.995 221.308 164.654C216.774 161.964 185.649 157.561 184.311 157.373C184.288 157.371 181.952 157.11 176.303 154.949C174.638 154.312 172.298 153.104 169.588 151.705C162.916 148.261 153.779 143.545 145.74 142.685C140.246 142.097 130.501 141.688 119.628 142.305C110.885 142.801 98.419 144.163 88.685 147.837C71.324 154.389 60.602 156.193 60.496 156.21C60.305 156.241 60.164 156.408 60.164 156.603V160.333V160.402C60.158 160.427 60.15 160.461 60.142 160.502C60.141 160.509 60.139 160.518 60.137 160.525C60.129 160.561 60.121 160.6 60.113 160.646C60.111 160.659 60.108 160.676 60.105 160.689C60.097 160.734 60.089 160.779 60.08 160.831C60.076 160.852 60.073 160.878 60.07 160.9C60.062 160.949 60.055 160.997 60.048 161.051C60.044 161.081 60.04 161.116 60.036 161.148C60.03 161.199 60.023 161.25 60.017 161.305C60.013 161.34 60.011 161.379 60.007 161.416C60.002 161.473 59.997 161.528 59.992 161.588C59.989 161.628 59.988 161.67 59.985 161.712C59.982 161.772 59.978 161.831 59.976 161.894C59.975 161.939 59.975 161.987 59.974 162.033C59.973 162.095 59.972 162.156 59.973 162.22C59.974 162.268 59.976 162.318 59.978 162.367C59.98 162.432 59.982 162.496 59.986 162.562C59.989 162.613 59.994 162.665 59.999 162.717C60.004 162.783 60.009 162.849 60.017 162.915C60.023 162.969 60.032 163.023 60.04 163.077C60.049 163.143 60.058 163.209 60.07 163.276C60.08 163.331 60.093 163.387 60.104 163.442C60.118 163.508 60.131 163.574 60.147 163.64C60.161 163.696 60.178 163.752 60.194 163.808C60.213 163.873 60.231 163.939 60.252 164.004C60.271 164.06 60.293 164.115 60.314 164.171C60.338 164.235 60.362 164.299 60.389 164.362C60.413 164.418 60.441 164.472 60.467 164.527C60.497 164.589 60.527 164.651 60.56 164.712C60.59 164.766 60.623 164.819 60.656 164.872C60.683 164.916 60.707 164.962 60.736 165.005C60.691 165.703 60.38 169.028 58.57 169.028C58.543 169.029 55.877 169.207 55.877 172.924V173.073C55.875 176.451 55.873 181.077 63.714 182.871C71.298 184.606 79.555 185.32 79.663 185.329L80.843 185.351C80.967 185.349 81.081 185.298 81.158 185.203C81.235 185.107 81.263 184.981 81.235 184.862C80.997 183.841 80.876 182.8 80.876 181.767C80.876 174.337 86.882 168.292 94.265 168.292C101.648 168.292 107.654 174.337 107.654 181.767C107.654 182.974 107.492 184.179 107.172 185.349C107.14 185.467 107.163 185.594 107.237 185.693C107.31 185.791 107.424 185.85 107.547 185.853L183.729 187.282C183.853 187.287 183.986 187.22 184.061 187.111C184.136 187.001 184.152 186.861 184.103 186.737C183.477 185.149 183.159 183.477 183.159 181.768C183.159 174.338 189.165 168.294 196.548 168.294C203.931 168.294 209.937 174.339 209.937 181.768C209.937 183.652 209.555 185.479 208.801 187.2C208.748 187.322 208.758 187.463 208.83 187.575C208.901 187.687 209.024 187.756 209.156 187.759L210.217 187.779H220.533C220.606 187.778 227.872 187.596 227.872 182.485C227.872 182.32 227.873 182.131 227.874 181.923C227.896 177.832 227.729 175.28 226.859 174.677ZM220.906 165.339C221.014 165.403 221.123 165.474 221.232 165.548L220.781 166.002L213.863 165.228L183.971 159.686L182.705 157.866C183.709 158.108 184.18 158.159 184.216 158.163C184.539 158.208 216.507 162.729 220.906 165.339ZM61.507 164.74C61.501 164.728 61.498 164.721 61.497 164.719C61.486 164.695 61.473 164.672 61.457 164.651C61.39 164.56 61.331 164.465 61.275 164.368C61.257 164.337 61.242 164.304 61.225 164.273C61.19 164.206 61.156 164.138 61.126 164.069C61.109 164.031 61.094 163.993 61.079 163.955C61.053 163.889 61.028 163.823 61.006 163.756C60.993 163.717 60.98 163.678 60.969 163.639C60.948 163.569 60.93 163.499 60.912 163.428C60.903 163.392 60.894 163.357 60.886 163.321C60.867 163.235 60.852 163.148 60.838 163.062C60.835 163.043 60.831 163.023 60.828 163.004C60.812 162.897 60.8 162.791 60.791 162.686C60.789 162.66 60.788 162.635 60.786 162.609C60.78 162.53 60.775 162.452 60.772 162.375C60.771 162.34 60.77 162.305 60.77 162.271C60.769 162.204 60.768 162.138 60.769 162.073C60.769 162.038 60.77 162.003 60.771 161.969C60.773 161.905 60.775 161.843 60.778 161.781C60.78 161.751 60.781 161.72 60.783 161.69C60.787 161.622 60.792 161.557 60.798 161.493C60.8 161.473 60.801 161.453 60.803 161.434C60.811 161.351 60.82 161.273 60.829 161.199C60.83 161.194 60.83 161.189 60.831 161.183C60.84 161.116 60.849 161.053 60.858 160.994C60.861 160.975 60.864 160.958 60.867 160.941C60.874 160.899 60.881 160.858 60.887 160.823C60.89 160.806 60.893 160.79 60.896 160.774C60.899 160.758 60.902 160.745 60.904 160.731H64.679C66.943 160.731 67.376 161.214 67.455 161.362C67.547 161.535 67.419 161.731 67.417 161.735C67.401 161.758 67.387 161.783 67.376 161.809C66.893 162.942 65.787 164.741 64.876 164.741L61.507 164.74ZM227.085 181.916C227.084 182.126 227.083 182.316 227.083 182.482C227.083 186.812 220.587 186.979 220.528 186.98H210.226L209.754 186.971C210.402 185.31 210.73 183.561 210.73 181.765C210.73 173.896 204.369 167.494 196.55 167.494C188.731 167.494 182.37 173.896 182.37 181.765C182.37 183.377 182.637 184.958 183.164 186.472L108.063 185.063C108.318 183.98 108.448 182.873 108.448 181.764C108.448 173.895 102.087 167.493 94.268 167.493C89.684 167.493 85.603 169.695 83.009 173.102C82.924 173.015 82.801 172.967 82.672 172.985C82.547 173.003 70.166 174.706 66.132 170.647C64.172 168.674 61.942 168.929 61.847 168.941C61.631 168.968 61.478 169.166 61.504 169.384C61.53 169.602 61.726 169.757 61.944 169.732C62.023 169.722 63.896 169.523 65.573 171.211C67.397 173.047 70.86 174.034 75.864 174.145C76.171 174.152 76.475 174.155 76.774 174.155C79.444 174.155 81.725 173.906 82.5 173.811C80.977 176.085 80.087 178.823 80.087 181.765C80.087 182.692 80.179 183.624 80.36 184.544L79.705 184.532C79.623 184.525 71.419 183.815 63.89 182.093C60.661 181.355 58.59 180.08 57.558 178.198C56.666 176.571 56.667 174.712 56.668 173.072V172.922C56.668 169.985 58.533 169.827 58.589 169.822C60.792 169.822 61.348 166.871 61.487 165.535H64.874C66.552 165.535 67.879 162.634 68.086 162.155C68.233 161.922 68.392 161.455 68.159 161C67.791 160.282 66.653 159.933 64.678 159.933H60.954V156.935C62.896 156.578 73.219 154.522 88.962 148.58C107.791 141.474 136.932 142.541 145.656 143.474C153.549 144.318 162.611 148.996 169.227 152.411C171.958 153.821 174.316 155.038 176.022 155.69C178.429 156.611 180.236 157.191 181.535 157.556C181.545 157.578 181.556 157.6 181.571 157.62L183.417 160.274C183.477 160.36 183.567 160.418 183.669 160.437L213.735 166.011C213.744 166.013 213.754 166.014 213.763 166.015L220.884 166.811C220.899 166.813 220.913 166.813 220.928 166.813C221.032 166.813 221.133 166.772 221.208 166.696L221.875 166.025C223.613 167.457 225.301 169.945 225.555 172.852C225.557 172.88 225.563 172.907 225.571 172.934C225.775 173.607 225.965 174.314 226.134 175.037C226.167 175.18 226.275 175.293 226.416 175.33C226.734 175.469 227.11 176.722 227.085 181.916Z" fill="#3366FF"/>
<path d="M224.408 173.146C224.522 173.146 224.632 173.096 224.707 173.008C224.79 172.911 224.822 172.779 224.792 172.654C224.757 172.509 223.921 169.091 222.278 168.201C220.714 167.354 214.67 166.947 214.414 166.93C214.277 166.923 214.148 166.983 214.068 167.094C213.988 167.205 213.97 167.349 214.021 167.476C214.1 167.676 216.059 172.374 224.372 173.145C224.384 173.146 224.396 173.146 224.408 173.146ZM215.095 167.779C217.137 167.943 220.871 168.343 221.903 168.902C222.827 169.403 223.537 171.194 223.871 172.291C218.243 171.614 215.89 168.979 215.095 167.779Z" fill="#3366FF"/>
<path d="M137.876 158.798C137.917 158.975 138.071 159.101 138.251 159.105C150.514 159.412 162.415 159.469 169.56 159.469C173.718 159.469 176.266 159.45 176.333 159.449C176.516 159.447 176.674 159.32 176.715 159.141C176.756 158.962 176.67 158.777 176.507 158.695C174.571 157.721 172.687 156.688 170.865 155.69C162.252 150.97 153.346 146.09 135.224 145.141C135.098 145.137 134.98 145.187 134.9 145.283C134.82 145.379 134.79 145.507 134.818 145.629L137.876 158.798ZM170.486 156.389C171.856 157.14 173.262 157.91 174.701 158.662C169.798 158.684 154.523 158.711 138.576 158.316L135.707 145.964C153.298 146.97 162.035 151.758 170.486 156.389Z" fill="#3366FF"/>
<path d="M226.225 178.545L216.799 177.671C216.678 177.659 216.561 177.704 216.478 177.791C216.395 177.878 216.355 177.999 216.371 178.119C216.385 178.229 216.729 180.842 217.172 182.092C217.676 183.512 219.351 183.864 219.422 183.878C219.44 183.882 219.459 183.884 219.478 183.885C219.737 183.9 221.297 183.983 222.645 183.983C223.406 183.983 224.099 183.956 224.453 183.875C225.604 183.611 226.028 182.884 226.31 181.872C226.582 180.895 226.585 179.019 226.585 178.94C226.584 178.735 226.429 178.564 226.225 178.545ZM225.548 181.658C225.289 182.588 224.98 182.939 224.278 183.099C223.547 183.267 220.652 183.152 219.554 183.091C219.376 183.049 218.246 182.748 217.918 181.823C217.614 180.964 217.348 179.329 217.226 178.509L225.789 179.303C225.774 179.885 225.724 181.025 225.548 181.658Z" fill="#3366FF"/>
<path d="M98.2961 150.28C98.2731 150.163 98.1981 150.063 98.0931 150.007C97.9881 149.951 97.8641 149.946 97.7541 149.992C93.7501 151.685 92.0501 153.151 91.9801 153.213C91.8791 153.301 91.8291 153.434 91.8471 153.567C91.9601 154.4 92.8751 155.488 98.9911 156.52C99.0131 156.524 99.0351 156.525 99.0561 156.525C99.1621 156.525 99.2651 156.482 99.3401 156.404C99.4311 156.31 99.4691 156.177 99.4441 156.049L98.2961 150.28ZM92.7101 153.645C93.2421 153.24 94.7981 152.15 97.6151 150.917L98.5551 155.636C94.0921 154.836 92.9781 154.044 92.7101 153.645Z" fill="#3366FF"/>
<path d="M135.059 159.02C135.063 159.02 135.066 159.02 135.07 159.02C135.183 159.02 135.292 158.971 135.367 158.885C135.445 158.796 135.479 158.677 135.461 158.56L133.405 145.383C133.376 145.194 133.217 145.053 133.027 145.047C131.555 144.998 130.048 144.972 128.545 144.972C113.899 144.972 104.486 147.392 99.1691 149.423C98.9751 149.497 98.8711 149.709 98.9301 149.909L100.91 156.582C100.954 156.732 101.082 156.841 101.235 156.863C108.425 157.858 119.805 158.584 135.059 159.02ZM99.7951 150.037C105.109 148.059 114.332 145.768 128.546 145.768C129.929 145.768 131.316 145.789 132.675 145.832L134.606 158.21C119.795 157.778 108.694 157.072 101.596 156.108L99.7951 150.037Z" fill="#3366FF"/>
<path d="M178.466 159.725C178.288 159.596 178.041 159.637 177.914 159.816C177.787 159.994 177.827 160.243 178.004 160.371C179.526 161.472 180.098 162.793 179.918 164.789C179.68 167.429 178.345 181.106 178.108 183.53L139.294 182.749C139.246 180.369 138.966 168.117 138.24 164.221C137.457 160.02 137.187 158.656 137.184 158.642C137.141 158.427 136.933 158.287 136.719 158.33C136.505 158.373 136.366 158.583 136.409 158.798C136.412 158.811 136.682 160.173 137.463 164.367C138.164 168.129 138.451 180.29 138.503 182.721L111.604 181.432C111.569 180.202 111.353 176.233 110.006 172.39C108.547 168.231 104.176 166.276 103.127 165.86L101.847 158.387C101.81 158.17 101.605 158.026 101.39 158.062C101.175 158.099 101.03 158.305 101.067 158.522L102.386 166.219C102.41 166.361 102.51 166.479 102.645 166.527C102.696 166.545 107.761 168.38 109.26 172.654C110.8 177.046 110.82 181.764 110.82 181.811C110.82 182.024 110.986 182.199 111.197 182.209L138.889 183.536C138.892 183.536 138.895 183.536 138.898 183.536H138.9L178.46 184.332C178.463 184.332 178.465 184.332 178.468 184.332C178.671 184.332 178.842 184.177 178.862 183.973C178.878 183.811 180.448 167.748 180.708 164.86C180.912 162.579 180.221 160.994 178.466 159.725Z" fill="#3366FF"/>
<path d="M196.55 169.536C189.849 169.536 184.397 175.023 184.397 181.766C184.397 188.51 189.849 193.997 196.55 193.997C203.251 193.997 208.703 188.51 208.703 181.766C208.702 175.022 203.251 169.536 196.55 169.536ZM196.55 191.128C191.412 191.128 187.247 186.936 187.247 181.766C187.247 176.595 191.412 172.403 196.55 172.403C201.688 172.403 205.853 176.595 205.853 181.766C205.853 186.937 201.687 191.128 196.55 191.128Z" fill="#3366FF"/>
<path d="M94.4841 169.536C87.7831 169.536 82.3311 175.023 82.3311 181.766C82.3311 188.51 87.7831 193.997 94.4841 193.997C101.185 193.997 106.637 188.51 106.637 181.766C106.637 175.022 101.185 169.536 94.4841 169.536ZM94.4731 191.128C89.3351 191.128 85.1701 186.936 85.1701 181.766C85.1701 176.595 89.3351 172.403 94.4731 172.403C99.6111 172.403 103.776 176.595 103.776 181.766C103.776 186.937 99.6111 191.128 94.4731 191.128Z" fill="#3366FF"/>
<path d="M177.114 114.533C179.532 108.671 179.672 97.4542 179.676 96.9722C179.671 96.4972 179.532 85.2822 177.114 79.4182L176.734 78.4932C174.654 73.4262 174.279 72.5132 170.538 72.5132C166.948 72.5132 160.597 73.9852 160.005 74.1252C159.618 74.1462 156.793 74.3612 155.174 76.2872C154.252 77.3852 153.907 78.8152 154.149 80.5382C154.968 86.3802 155.322 94.3852 155.322 97.1802C155.322 100.477 154.914 107.953 154.149 113.413C153.907 115.136 154.252 116.566 155.174 117.664C156.793 119.591 159.619 119.807 160.005 119.828C160.596 119.967 166.948 121.44 170.538 121.44C174.279 121.44 174.654 120.527 176.734 115.459L177.114 114.533ZM176.017 115.165C173.973 120.145 173.759 120.666 170.538 120.666C166.941 120.666 160.216 119.083 160.149 119.067C160.125 119.061 160.099 119.058 160.074 119.057C160.046 119.056 157.243 118.928 155.765 117.164C154.992 116.241 154.706 115.016 154.916 113.52C155.686 108.025 156.097 100.5 156.097 97.1802C156.097 94.2762 155.751 86.3822 154.916 80.4312C154.706 78.9362 154.992 77.7102 155.765 76.7872C157.244 75.0232 160.046 74.8962 160.074 74.8952C160.099 74.8942 160.125 74.8912 160.149 74.8852C160.217 74.8692 166.941 73.2862 170.539 73.2862C173.761 73.2862 173.975 73.8062 176.019 78.7862L176.4 79.7122C178.762 85.4372 178.903 96.8652 178.904 96.9712C178.903 97.0862 178.762 108.514 176.4 114.238L176.017 115.165Z" fill="#3366FF"/>
<path d="M226.319 94.195C226.317 94.151 226.307 94.108 226.29 94.068C226.213 92.126 225.923 89.56 225.616 86.844C225.548 86.239 225.478 85.622 225.409 84.996C225.4 84.915 225.365 84.838 225.31 84.778C224.965 84.4 223.769 83.182 222.921 83.365C222.747 83.402 222.433 83.533 222.283 83.987C221.983 84.896 222.064 89.249 222.211 95.299L222.251 96.966L222.211 98.652C222.064 104.702 221.983 109.054 222.283 109.963C222.433 110.418 222.747 110.548 222.921 110.585C222.979 110.598 223.04 110.603 223.101 110.603C223.932 110.603 224.988 109.524 225.31 109.172C225.365 109.111 225.4 109.035 225.409 108.954C225.478 108.331 225.547 107.718 225.615 107.116C225.923 104.397 226.214 101.826 226.29 99.882C226.307 99.842 226.316 99.798 226.319 99.755C226.321 99.714 226.369 98.742 226.356 96.977C226.369 95.208 226.321 94.236 226.319 94.195ZM225.549 99.63C225.531 99.673 225.521 99.718 225.519 99.765C225.449 101.691 225.155 104.285 224.845 107.032C224.781 107.593 224.717 108.164 224.652 108.744C224.103 109.319 223.346 109.887 223.082 109.831C223.051 109.824 223.021 109.734 223.017 109.723C222.736 108.87 222.873 103.216 222.984 98.672L223.025 96.967L222.984 95.281C222.874 90.737 222.736 85.082 223.017 84.23C223.021 84.22 223.051 84.129 223.082 84.122C223.094 84.119 223.107 84.118 223.121 84.118C223.412 84.118 224.126 84.66 224.651 85.209C224.716 85.792 224.781 86.367 224.845 86.931C225.155 89.674 225.448 92.265 225.518 94.187C225.52 94.233 225.53 94.279 225.548 94.322C225.559 94.599 225.591 95.524 225.581 96.979C225.592 98.429 225.56 99.353 225.549 99.63Z" fill="#3366FF"/>
<path d="M223.325 74.5401C218.887 67.1051 210.529 63.4911 197.773 63.4911H166.875C166.787 63.4911 166.707 63.5221 166.641 63.5711C166.117 62.0601 164.563 59.6141 161.952 60.0491C161.846 60.0671 161.752 60.1271 161.693 60.2171C161.634 60.3061 161.614 60.4161 161.639 60.5201L162.349 63.4911H87.5635C86.7375 63.4981 67.2515 63.7691 61.1625 72.7981C55.2225 81.6071 55.8805 96.3101 55.9145 96.9751C55.8805 97.6401 55.2225 112.344 61.1625 121.152C67.2515 130.181 86.7365 130.451 87.5665 130.458H162.359L161.638 133.476C161.613 133.58 161.633 133.69 161.692 133.779C161.751 133.868 161.845 133.929 161.951 133.947C162.159 133.981 162.36 133.998 162.554 133.998C164.779 133.998 166.129 131.86 166.627 130.459H197.771C210.527 130.459 218.886 126.845 223.323 119.41C228.161 111.306 227.883 97.5471 227.868 96.9841C227.884 96.4031 228.163 82.6451 223.325 74.5401ZM165.019 62.1761C165.666 63.0371 165.961 63.9801 165.961 63.9801L167.326 68.9971H165.595C165.319 68.5801 164.703 68.0771 164.145 67.6721L162.496 60.7731C163.446 60.7491 164.3 61.2191 165.019 62.1761ZM167.941 69.7691C163.978 70.7561 156.68 72.4621 150.129 73.3951C140.756 74.7311 108.49 74.2261 94.5075 72.2131C97.9855 71.3921 107.041 69.7691 124.274 69.7691H165.356H167.832H167.941ZM162.553 133.225C162.534 133.225 162.515 133.225 162.496 133.224L164.145 126.325C164.703 125.919 165.319 125.417 165.595 125H167.326L165.964 130.005C165.953 130.04 164.953 133.225 162.553 133.225ZM124.273 124.183C107.04 124.183 97.9835 122.559 94.5065 121.738C108.489 119.726 140.756 119.22 150.129 120.556C156.68 121.49 163.978 123.196 167.941 124.183H124.273ZM222.659 119.015C218.373 126.196 210.232 129.686 197.772 129.686H166.853L168.14 124.956H170.998C171.192 124.956 171.356 124.813 171.382 124.621C171.408 124.429 171.287 124.248 171.099 124.197C170.987 124.167 159.824 121.158 150.238 119.791C140.398 118.389 105.449 119.005 92.5965 121.258C92.4235 121.288 92.2925 121.432 92.2775 121.606C92.2625 121.781 92.3685 121.944 92.5345 122.003C92.8755 122.124 101.154 124.956 124.273 124.956H164.6C164.333 125.203 163.959 125.508 163.575 125.782C163.499 125.836 163.445 125.916 163.423 126.007L162.544 129.687H87.5695C87.3715 129.685 67.6655 129.414 61.8045 120.722C55.9025 111.972 56.6795 97.1471 56.6885 96.9991C56.6895 96.9841 56.6895 96.9691 56.6885 96.9551C56.6795 96.8061 55.9005 81.9871 61.8045 73.2321C67.6655 64.5401 87.3705 64.2681 87.5655 64.2661H162.532L163.422 67.9921C163.444 68.0831 163.498 68.1631 163.574 68.2171C163.935 68.4751 164.287 68.7591 164.551 68.9981H124.272C101.153 68.9981 92.8745 71.8301 92.5335 71.9501C92.3675 72.0091 92.2625 72.1711 92.2765 72.3461C92.2915 72.5211 92.4225 72.6641 92.5955 72.6951C100.827 74.1381 118.118 74.9101 132.075 74.9101C139.911 74.9101 146.699 74.6671 150.237 74.1621C159.823 72.7961 170.987 69.7871 171.098 69.7571C171.285 69.7061 171.406 69.5251 171.381 69.3331C171.355 69.1411 171.191 68.9981 170.997 68.9981H168.127L166.839 64.2631C166.851 64.2641 166.862 64.2671 166.874 64.2671H197.772C210.232 64.2671 218.372 67.7581 222.659 74.9381C227.382 82.8501 227.099 96.8281 227.096 96.9871C227.099 97.1251 227.384 111.101 222.659 119.015Z" fill="#3366FF"/>
<path d="M94.0975 80.567C92.7785 78.961 89.9555 78.091 85.4675 77.906C79.6845 77.669 77.9955 77.704 77.4725 77.891C77.1795 77.879 76.6235 77.906 75.9415 78.181L71.9985 73.303C71.5955 72.804 70.9955 72.509 70.3545 72.495C69.7165 72.483 69.1125 72.744 68.6915 73.219C66.0545 76.193 61.6305 83.234 61.6305 96.976C61.6305 110.718 66.0545 117.759 68.6915 120.733C69.1015 121.195 69.6865 121.457 70.3045 121.457C70.3215 121.457 70.3375 121.457 70.3545 121.456C70.9965 121.441 71.5955 121.147 71.9985 120.648L75.9415 115.77C76.6245 116.045 77.1805 116.073 77.4725 116.061C77.7405 116.156 78.3125 116.212 79.5825 116.212C80.7945 116.212 82.6435 116.161 85.4675 116.045C89.9555 115.861 92.7785 114.99 94.0975 113.384C94.8365 112.484 95.0875 111.361 94.8635 109.951C94.5105 107.719 94.2285 97.073 94.2255 96.986C94.2285 96.879 94.5095 86.232 94.8635 84.001C95.0865 82.59 94.8365 81.467 94.0975 80.567ZM71.3945 120.163C71.1345 120.485 70.7485 120.675 70.3355 120.684C69.9335 120.692 69.5395 120.525 69.2705 120.221C66.7065 117.329 62.4045 110.464 62.4045 96.976C62.4045 83.488 66.7065 76.623 69.2705 73.731C69.5395 73.427 69.9245 73.258 70.3355 73.268C70.7485 73.277 71.1345 73.467 71.3945 73.789L75.2345 78.539C72.8915 79.965 70.3095 84.059 70.0395 95.05C70.0335 95.275 70.0285 95.498 70.0255 95.72C70.0245 95.812 70.0235 95.906 70.0215 95.999C70.0175 96.328 70.0145 96.655 70.0145 96.976C70.0145 97.297 70.0175 97.623 70.0215 97.953C70.0225 98.045 70.0235 98.138 70.0245 98.23C70.0285 98.453 70.0335 98.677 70.0385 98.903C70.3085 109.893 72.8905 113.988 75.2335 115.414L71.3945 120.163ZM94.0985 110.072C94.2885 111.268 94.0975 112.165 93.4985 112.895C92.3445 114.301 89.6315 115.101 85.4355 115.273C79.8355 115.502 78.3095 115.435 77.8955 115.381C77.8085 115.297 77.6835 115.255 77.5565 115.278C77.5475 115.279 76.8985 115.388 75.9995 114.951L75.9955 114.948C75.8815 114.892 75.7625 114.827 75.6395 114.752C75.6305 114.747 75.6225 114.742 75.6135 114.737C75.5715 114.711 75.5285 114.681 75.4855 114.652C75.4535 114.63 75.4215 114.609 75.3885 114.586C75.3505 114.559 75.3115 114.53 75.2725 114.5C75.2335 114.471 75.1945 114.44 75.1555 114.409C75.1145 114.376 75.0735 114.342 75.0315 114.307C75.0135 114.291 74.9945 114.275 74.9755 114.259C74.9255 114.215 74.8745 114.168 74.8235 114.12C74.8065 114.104 74.7895 114.088 74.7725 114.071C74.7145 114.015 74.6565 113.957 74.5985 113.895C74.5885 113.885 74.5795 113.876 74.5695 113.865C73.0655 112.26 71.4285 108.849 70.9365 101.626C70.9325 101.562 70.9285 101.496 70.9245 101.431C70.9075 101.172 70.8925 100.907 70.8785 100.638C70.8735 100.538 70.8685 100.437 70.8635 100.336C70.8525 100.093 70.8425 99.845 70.8335 99.594C70.8295 99.478 70.8255 99.362 70.8215 99.244C70.8135 98.988 70.8085 98.726 70.8035 98.462C70.8015 98.35 70.7985 98.241 70.7965 98.128C70.7915 97.752 70.7875 97.369 70.7875 96.976C70.7875 96.584 70.7905 96.201 70.7965 95.825C70.7985 95.711 70.8005 95.602 70.8035 95.49C70.8085 95.228 70.8145 94.968 70.8215 94.713C70.8255 94.592 70.8295 94.473 70.8335 94.353C70.8425 94.107 70.8515 93.865 70.8625 93.627C70.8675 93.52 70.8725 93.413 70.8775 93.308C70.8905 93.046 70.9055 92.788 70.9225 92.535C70.9275 92.464 70.9315 92.392 70.9365 92.321C71.0055 91.307 71.0965 90.367 71.2075 89.498C71.2085 89.494 71.2085 89.49 71.2095 89.486C71.2465 89.196 71.2855 88.914 71.3265 88.64C71.3275 88.633 71.3285 88.627 71.3295 88.62C72.0005 84.155 73.1975 81.688 74.3525 80.328C74.3625 80.316 74.3725 80.305 74.3825 80.293C74.4405 80.226 74.4975 80.162 74.5555 80.1C74.5735 80.08 74.5915 80.062 74.6105 80.043C74.6605 79.991 74.7105 79.941 74.7595 79.892C74.7795 79.872 74.8005 79.852 74.8205 79.833C74.8695 79.786 74.9185 79.742 74.9675 79.699C74.9855 79.683 75.0035 79.666 75.0225 79.651C75.0585 79.62 75.0945 79.592 75.1305 79.562C75.1725 79.527 75.2155 79.493 75.2575 79.461C75.2945 79.433 75.3305 79.406 75.3665 79.38C75.4035 79.353 75.4405 79.328 75.4765 79.303C75.5155 79.277 75.5545 79.25 75.5925 79.226C75.6215 79.208 75.6505 79.191 75.6795 79.173C75.7875 79.108 75.8945 79.049 75.9965 79C75.9995 78.998 76.0025 78.996 76.0065 78.994C76.8855 78.568 77.5255 78.665 77.5605 78.671C77.6865 78.693 77.8105 78.651 77.8965 78.568C78.3105 78.514 79.8355 78.447 85.4365 78.676C89.6325 78.848 92.3445 79.648 93.4995 81.054C94.0985 81.784 94.2895 82.681 94.0995 83.877C93.7385 86.158 93.4635 96.523 93.4525 96.983C93.4625 97.426 93.7365 107.791 94.0985 110.072Z" fill="#3366FF"/>
<path d="M61.7245 81.4091C61.8255 81.4361 61.9325 81.4511 62.0405 81.4511C62.4685 81.4511 62.9145 81.2281 63.1115 80.7261C63.5745 79.5431 64.1095 78.2601 64.7005 76.9131C66.3745 73.0981 68.4355 71.4501 69.5145 70.8081C69.8135 70.6301 69.9965 70.3211 70.0065 69.9801C70.0155 69.6441 69.8525 69.3301 69.5695 69.1401L69.3095 68.9651C69.2645 68.9351 68.8445 68.6761 68.1085 68.8381C67.1255 69.0561 65.4965 70.0621 63.3225 73.6181C62.0815 75.6481 61.2655 77.8471 60.8965 80.1531C60.8045 80.7351 61.1445 81.2521 61.7245 81.4091ZM61.6625 80.2751C62.0155 78.0691 62.7975 75.9651 63.9855 74.0211C67.2045 68.7561 68.8775 69.6071 68.8805 69.6071L69.1385 69.7801C69.2245 69.8381 69.2355 69.9161 69.2345 69.9581C69.2335 69.9941 69.2205 70.0841 69.1205 70.1431C67.9615 70.8331 65.7535 72.5901 63.9935 76.6021C63.3975 77.9591 62.8595 79.2521 62.3925 80.4441C62.2765 80.7401 61.9875 80.6781 61.9305 80.6621C61.8545 80.6431 61.6175 80.5561 61.6625 80.2751Z" fill="#3366FF"/>
<path d="M69.5154 123.144C68.4354 122.501 66.3744 120.853 64.7004 117.038C64.1094 115.691 63.5744 114.408 63.1114 113.225C62.8654 112.596 62.2274 112.406 61.7244 112.542C61.1444 112.699 60.8044 113.216 60.8974 113.798C61.2664 116.104 62.0824 118.302 63.3234 120.333C65.4974 123.89 67.1264 124.896 68.1094 125.114C68.2824 125.152 68.4384 125.167 68.5764 125.167C69.0224 125.167 69.2764 125.01 69.3124 124.986L69.5704 124.812C69.8534 124.622 70.0164 124.308 70.0074 123.972C69.9974 123.631 69.8134 123.322 69.5154 123.144ZM69.1374 124.171L68.8934 124.336C68.8774 124.345 67.2034 125.195 63.9854 119.93C62.7974 117.986 62.0154 115.882 61.6624 113.676C61.6174 113.395 61.8544 113.308 61.9274 113.288C61.9464 113.283 61.9934 113.272 62.0514 113.272C62.1624 113.272 62.3134 113.312 62.3904 113.506C62.8574 114.699 63.3964 115.991 63.9914 117.348C65.7514 121.361 67.9594 123.118 69.1194 123.808C69.2194 123.868 69.2324 123.957 69.2334 123.993C69.2344 124.035 69.2234 124.114 69.1374 124.171Z" fill="#3366FF"/>
<path d="M211.31 68.3141C218.614 73.5291 221.517 79.9291 221.546 79.9931C221.561 80.0271 221.581 80.0591 221.605 80.0871C222.811 81.4971 223.397 81.7831 223.707 81.7831C223.844 81.7831 223.928 81.7271 223.987 81.6871C224.41 81.4011 224.55 80.8341 222.242 76.4391C217.825 68.0291 213.445 67.2991 213.261 67.2721C213.216 67.2661 213.171 67.2671 213.126 67.2761L211.456 67.6211C211.305 67.6521 211.187 67.7691 211.156 67.9191C211.125 68.0701 211.185 68.2251 211.31 68.3141ZM213.211 68.0491C214.689 68.3281 218.239 70.4821 221.556 76.7991C222.815 79.1971 223.25 80.2961 223.393 80.7971C223.084 80.5441 222.635 80.0981 222.229 79.6281C221.928 78.9721 219.166 73.2371 212.466 68.2031L213.211 68.0491Z" fill="#3366FF"/>
<path d="M223.987 112.263C223.795 112.133 223.344 111.83 221.605 113.863C221.581 113.891 221.561 113.923 221.546 113.957C221.518 114.021 218.614 120.422 211.311 125.637C211.186 125.726 211.126 125.881 211.157 126.031C211.189 126.181 211.307 126.298 211.457 126.329L213.126 126.674C213.152 126.679 213.178 126.682 213.205 126.682C213.224 126.682 213.243 126.681 213.261 126.678C213.445 126.651 217.826 125.921 222.242 117.51C224.55 113.116 224.41 112.549 223.987 112.263ZM221.556 117.152C218.237 123.472 214.685 125.625 213.211 125.903L212.466 125.749C219.167 120.715 221.929 114.979 222.229 114.323C222.635 113.853 223.084 113.407 223.393 113.154C223.251 113.655 222.816 114.754 221.556 117.152Z" fill="#3366FF"/>
<path d="M212.383 124.132C217.011 119.806 219.129 115.438 219.568 114.459C219.651 114.426 219.724 114.367 219.769 114.282C219.893 114.044 220.98 111.935 221.1 111.065C221.574 107.617 221.629 100.835 221.62 97.099C221.618 96.392 221.627 95.548 221.636 94.62C221.676 90.681 221.73 85.286 221.095 82.333C220.957 81.694 220.09 80.446 219.679 79.88C219.686 79.817 219.679 79.752 219.654 79.691C219.57 79.486 217.525 74.626 212.385 69.821C212.333 69.772 212.268 69.738 212.197 69.724C184.028 64.024 176.959 69.886 176.672 70.139C176.563 70.235 176.517 70.384 176.553 70.525C176.589 70.666 176.702 70.774 176.844 70.806L218.917 80.15C219.439 80.85 220.239 82.038 220.337 82.495C220.954 85.364 220.9 90.709 220.861 94.612C220.852 95.543 220.843 96.391 220.845 97.101C220.854 100.817 220.8 107.559 220.332 110.96C220.253 111.533 219.539 113.027 219.174 113.746L176.832 123.146C176.69 123.177 176.577 123.286 176.541 123.427C176.505 123.568 176.551 123.717 176.66 123.813C176.854 123.983 180.139 126.712 190.928 126.712C196.117 126.712 203.044 126.08 212.195 124.229C212.266 124.214 212.331 124.181 212.383 124.132ZM177.928 70.254C178.868 69.755 180.779 68.969 184.107 68.478C192.695 67.212 203.959 68.85 211.936 70.458C215.779 74.075 217.862 77.785 218.612 79.288L177.928 70.254ZM177.924 123.694L218.612 114.661C217.863 116.163 215.783 119.87 211.933 123.493C189.162 128.085 180.348 124.959 177.924 123.694Z" fill="#3366FF"/>
<path d="M150.798 78.6742C139.572 79.7222 98.9894 80.1402 98.5814 80.1442C98.3884 80.1462 98.2254 80.2902 98.2014 80.4822C98.1914 80.5612 97.1934 88.4782 97.1934 97.8192C97.1934 107.16 98.1914 115.077 98.2014 115.156C98.2254 115.347 98.3884 115.492 98.5814 115.494C98.9904 115.498 139.573 115.916 150.798 116.964C150.81 116.965 150.822 116.966 150.834 116.966C150.984 116.966 151.122 116.879 151.186 116.741C152.815 113.197 152.895 98.4482 152.897 97.8182C152.894 97.1922 152.814 82.4422 151.186 78.8992C151.118 78.7482 150.961 78.6582 150.798 78.6742ZM150.587 116.168C139.521 115.187 102.865 114.767 98.9294 114.724C98.7424 113.128 97.9684 106.027 97.9684 97.8182C97.9684 89.6092 98.7424 82.5082 98.9294 80.9122C102.864 80.8702 139.521 80.4502 150.587 79.4692C152.046 83.2902 152.123 97.6712 152.124 97.8172C152.123 97.9652 152.045 112.347 150.587 116.168Z" fill="#3366FF"/>
<path d="M227.511 10.991C227.247 9.664 226.456 8.602 225.401 7.806C224.346 7.01 220.918 6.479 220.918 6.479L209.314 6.74399C209.314 6.74399 210.633 10.46 210.369 13.114C209.922 17.612 206.673 26.4 196.655 26.12C187.161 25.855 184.787 18.157 183.468 15.769C182.149 13.381 183.995 7.276 183.995 7.276H178.457V10.196C178.457 10.196 180.831 30.633 180.303 31.695C179.776 32.757 178.457 33.553 178.457 33.553L178.451 37.727L182.149 36.738C182.149 36.738 183.246 34.258 183.995 34.084C187.424 33.288 192.629 32.276 195.599 31.695C198.824 31.065 205.283 29.859 208.522 29.306C209.837 29.082 212.475 28.687 213.797 28.51C215.629 28.265 221.139 27.65 221.139 27.65L221.709 28.51C221.709 28.51 221.973 28.245 223.028 27.448C224.083 26.651 225.665 23.732 225.665 23.732C225.665 23.732 226.027 21.724 226.192 21.078C226.317 20.589 226.719 19.22 226.719 19.22L227.246 18.158C227.248 18.157 227.775 12.318 227.511 10.991ZM218.808 22.669C219.839 22.093 223.095 21.637 224.083 21.342C225.364 20.96 223.25 25.208 221.973 25.589C220.985 25.884 216.099 26.34 215.116 26.651C213.841 27.053 216.435 23.996 218.808 22.669ZM226.456 14.707C226.456 15.33 221.287 15.514 220.918 15.503C219.982 15.475 217.085 16.542 216.962 15.503C216.896 14.943 217.655 11.886 218.017 11.522C218.281 11.257 219.424 10.251 219.599 10.46C219.615 10.461 222.22 10.46 222.236 10.46C222.489 10.457 224.346 10.46 225.137 10.725C226.553 11.2 226.456 14.195 226.456 14.707Z" fill="#FEE348"/>
<path d="M196.549 23.234C202.375 23.234 207.098 18.4806 207.098 12.617C207.098 6.7534 202.375 2 196.549 2C190.723 2 186 6.7534 186 12.617C186 18.4806 190.723 23.234 196.549 23.234Z" fill="#FEE348"/>
<path d="M204.085 16.7719C204.144 16.6739 204.159 16.555 204.125 16.446C204.091 16.337 204.012 16.2469 203.908 16.2009L199.151 14.0779C199.099 14.0549 199.045 14.0439 198.991 14.0439C198.885 14.0439 198.781 14.0869 198.705 14.1679C198.388 14.5029 198.007 14.7489 197.574 14.8979C197.414 14.9529 197.307 15.1039 197.307 15.2749V20.5009C197.307 20.6149 197.356 20.724 197.441 20.799C197.526 20.875 197.639 20.9089 197.751 20.8959C200.388 20.5669 202.697 19.0639 204.085 16.7719ZM203.163 16.7399C201.97 18.4829 200.16 19.6599 198.096 20.0369V15.5469C198.452 15.3909 198.783 15.1769 199.073 14.9149L203.163 16.7399Z" fill="#3366FF"/>
<path d="M199.691 12.9281L204.431 15.0401C204.535 15.0861 204.653 15.0851 204.755 15.0381C204.858 14.9911 204.936 14.9021 204.969 14.7931C205.222 13.9641 205.351 13.1021 205.351 12.2321C205.351 10.2691 204.715 8.41205 203.513 6.86005C203.443 6.77005 203.339 6.71406 203.225 6.70706C203.217 6.70606 203.209 6.70605 203.201 6.70605C203.096 6.70605 202.995 6.74806 202.921 6.82306L199.251 10.5201C199.131 10.6411 199.101 10.8251 199.177 10.9781C199.373 11.3781 199.473 11.7991 199.473 12.2321C199.473 12.3311 199.467 12.4301 199.458 12.5251C199.441 12.6961 199.535 12.8591 199.691 12.9281ZM200.264 12.2321C200.264 11.7711 200.176 11.3211 200.003 10.8891L203.155 7.71405C204.075 9.04705 204.559 10.6001 204.559 12.2321C204.559 12.8721 204.483 13.5071 204.331 14.1261L200.262 12.313C200.264 12.285 200.264 12.2581 200.264 12.2321Z" fill="#3366FF"/>
<path d="M194.084 10.541L190.407 6.84503C190.333 6.77003 190.232 6.72803 190.127 6.72803C190.119 6.72803 190.111 6.72803 190.102 6.72903C189.989 6.73603 189.884 6.79202 189.814 6.88202C188.623 8.42502 187.994 10.275 187.994 12.232C187.994 13.103 188.123 13.964 188.377 14.794C188.41 14.903 188.488 14.992 188.591 15.039C188.694 15.086 188.812 15.087 188.915 15.041L193.655 12.929C193.811 12.859 193.906 12.696 193.888 12.525C193.878 12.429 193.872 12.331 193.872 12.232C193.872 11.804 193.969 11.389 194.159 10.998C194.234 10.845 194.204 10.661 194.084 10.541ZM193.333 10.911C193.166 11.334 193.082 11.777 193.082 12.232C193.082 12.259 193.082 12.285 193.083 12.313L189.014 14.126C188.862 13.508 188.786 12.873 188.786 12.232C188.786 10.605 189.265 9.06002 190.174 7.73502L193.333 10.911Z" fill="#3366FF"/>
<path d="M189.218 16.447C189.184 16.556 189.199 16.675 189.258 16.773C190.65 19.065 192.96 20.567 195.597 20.895C195.708 20.908 195.823 20.874 195.907 20.798C195.992 20.722 196.041 20.614 196.041 20.5V15.274C196.041 15.104 195.934 14.953 195.774 14.897C195.343 14.748 194.953 14.496 194.645 14.168C194.569 14.087 194.464 14.043 194.357 14.043C194.303 14.043 194.248 14.054 194.197 14.077L189.436 16.2C189.331 16.248 189.252 16.337 189.218 16.447ZM190.181 16.74L194.273 14.915C194.561 15.176 194.892 15.39 195.25 15.546V20.036C193.187 19.661 191.377 18.484 190.181 16.74Z" fill="#3366FF"/>
<path d="M202.025 5.9281C202.105 5.8471 202.147 5.7361 202.14 5.6221C202.133 5.5081 202.078 5.40309 201.988 5.33209C200.457 4.13109 198.618 3.49609 196.671 3.49609C194.718 3.49609 192.874 4.13611 191.336 5.34711C191.247 5.41711 191.192 5.52308 191.185 5.63608C191.178 5.75008 191.22 5.86108 191.3 5.94208L194.97 9.6351C195.09 9.7561 195.272 9.78609 195.424 9.71109C196.218 9.31809 197.106 9.31608 197.899 9.70108C198.05 9.77508 198.232 9.74408 198.351 9.62408L202.025 5.9281ZM201.14 5.69308L197.983 8.87009C197.13 8.53109 196.191 8.53409 195.338 8.87909L192.185 5.70609C193.506 4.78009 195.047 4.29309 196.672 4.29309C198.29 4.29309 199.825 4.77508 201.14 5.69308Z" fill="#3366FF"/>
<path d="M102.022 16.7729C102.081 16.6749 102.096 16.5559 102.062 16.4469C102.028 16.3379 101.949 16.2479 101.845 16.2019L97.084 14.0789C97.032 14.0559 96.978 14.0449 96.924 14.0449C96.817 14.0449 96.713 14.0879 96.636 14.1699C96.329 14.4979 95.939 14.7499 95.507 14.8989C95.347 14.9539 95.24 15.1049 95.24 15.2759V20.5019C95.24 20.6159 95.289 20.7249 95.374 20.7999C95.459 20.8759 95.572 20.9099 95.684 20.8969C98.32 20.5669 100.631 19.0649 102.022 16.7729ZM101.1 16.7399C99.904 18.4829 98.093 19.6609 96.03 20.0369V15.5469C96.389 15.3899 96.72 15.1759 97.008 14.9159L101.1 16.7399Z" fill="#3366FF"/>
<path d="M97.625 12.928L102.365 15.04C102.469 15.086 102.587 15.085 102.689 15.038C102.792 14.991 102.87 14.902 102.903 14.793C103.156 13.963 103.285 13.101 103.285 12.232C103.285 10.269 102.649 8.41102 101.447 6.86002C101.377 6.77002 101.272 6.71504 101.159 6.70804C101.151 6.70704 101.143 6.70703 101.135 6.70703C101.03 6.70703 100.929 6.74904 100.855 6.82404L97.185 10.521C97.065 10.642 97.035 10.826 97.111 10.979C97.307 11.378 97.407 11.799 97.407 12.232C97.407 12.331 97.401 12.43 97.391 12.525C97.375 12.696 97.469 12.859 97.625 12.928ZM98.198 12.232C98.198 11.77 98.11 11.32 97.938 10.889L101.09 7.71402C102.01 9.04702 102.494 10.599 102.494 12.232C102.494 12.872 102.417 13.507 102.266 14.126L98.196 12.313C98.198 12.285 98.198 12.258 98.198 12.232Z" fill="#3366FF"/>
<path d="M87.1532 16.447C87.1192 16.556 87.1342 16.675 87.1932 16.773C88.5842 19.065 90.8942 20.567 93.5322 20.895C93.6432 20.908 93.7582 20.874 93.8422 20.798C93.9272 20.722 93.9762 20.614 93.9762 20.5V15.274C93.9762 15.104 93.8692 14.953 93.7092 14.897C93.2782 14.748 92.8872 14.496 92.5792 14.168C92.5022 14.087 92.3982 14.043 92.2912 14.043C92.2372 14.043 92.1822 14.054 92.1312 14.077L87.3711 16.2C87.2661 16.248 87.1872 16.337 87.1532 16.447ZM88.1152 16.74L92.2071 14.915C92.4951 15.176 92.8261 15.39 93.1851 15.546V20.036C91.1211 19.661 89.3112 18.484 88.1152 16.74Z" fill="#3366FF"/>
<path d="M99.9589 5.9281C100.039 5.8471 100.081 5.7361 100.074 5.6221C100.067 5.5081 100.012 5.40309 99.9219 5.33209C98.3909 4.13109 96.5519 3.49609 94.6049 3.49609C92.6519 3.49609 90.8079 4.13611 89.2699 5.34711C89.1809 5.41711 89.1259 5.52308 89.1189 5.63608C89.1119 5.75008 89.1539 5.86108 89.2339 5.94208L92.9039 9.6351C93.0239 9.7561 93.2059 9.78609 93.3579 9.71109C94.1519 9.31809 95.0389 9.31509 95.8329 9.70209C95.9839 9.77509 96.1649 9.74509 96.2849 9.62509L99.9589 5.9281ZM99.0739 5.69308L95.9169 8.87009C95.0629 8.53109 94.1249 8.53409 93.2709 8.87909L90.1179 5.70609C91.4389 4.78009 92.9799 4.29309 94.6049 4.29309C96.2229 4.29309 97.7589 4.77508 99.0739 5.69308Z" fill="#3366FF"/>
<path d="M92.018 10.541L88.341 6.84503C88.267 6.77003 88.166 6.72803 88.061 6.72803C88.053 6.72803 88.044 6.72803 88.036 6.72903C87.923 6.73603 87.818 6.79202 87.748 6.88202C86.557 8.42602 85.927 10.276 85.927 12.232C85.927 13.1 86.056 13.962 86.309 14.793C86.342 14.902 86.42 14.991 86.523 15.038C86.626 15.085 86.744 15.086 86.848 15.04L91.588 12.928C91.744 12.859 91.838 12.696 91.822 12.525C91.812 12.429 91.806 12.331 91.806 12.232C91.806 11.802 91.902 11.387 92.092 10.998C92.168 10.845 92.138 10.661 92.018 10.541ZM91.267 10.911C91.1 11.333 91.016 11.776 91.016 12.232C91.016 12.259 91.016 12.285 91.017 12.312L86.948 14.125C86.796 13.505 86.72 12.87 86.72 12.231C86.72 10.605 87.199 9.05904 88.109 7.73404L91.267 10.911Z" fill="#3366FF"/>
<path d="M109.651 32.8299C110.78 32.8299 111.698 31.9059 111.698 30.7709C111.698 29.6349 110.78 28.7109 109.651 28.7109H107.566C106.438 28.7109 105.52 29.6349 105.52 30.7709C105.52 31.9059 106.438 32.8299 107.566 32.8299H109.651ZM109.651 32.0339H107.566C106.874 32.0339 106.311 31.4669 106.311 30.7709C106.311 30.0739 106.874 29.5079 107.566 29.5079H109.651C110.343 29.5079 110.907 30.0749 110.907 30.7709C110.907 31.4669 110.343 32.0339 109.651 32.0339Z" fill="#3366FF"/>
<path d="M143.302 31.683C144.43 31.683 145.348 30.759 145.348 29.623C145.348 28.488 144.43 27.564 143.302 27.564H141.217C140.088 27.564 139.17 28.488 139.17 29.623C139.17 30.759 140.088 31.683 141.217 31.683H143.302ZM143.302 30.887H141.217C140.524 30.887 139.961 30.32 139.961 29.624C139.961 28.928 140.525 28.361 141.217 28.361H143.302C143.994 28.361 144.557 28.927 144.557 29.624C144.557 30.32 143.994 30.887 143.302 30.887Z" fill="#3366FF"/>
<path d="M196.673 14.3201C197.817 14.3201 198.748 13.383 198.748 12.231C198.748 11.08 197.817 10.1431 196.673 10.1431C195.529 10.1431 194.598 11.08 194.598 12.231C194.598 13.383 195.528 14.3201 196.673 14.3201ZM195.389 12.231C195.389 11.519 195.965 10.9391 196.673 10.9391C197.381 10.9391 197.956 11.519 197.956 12.231C197.956 12.944 197.38 13.5231 196.673 13.5231C195.965 13.5241 195.389 12.944 195.389 12.231Z" fill="#3366FF"/>
<path d="M94.597 14.3201C95.741 14.3201 96.672 13.383 96.672 12.231C96.672 11.08 95.741 10.1431 94.597 10.1431C93.453 10.1431 92.522 11.08 92.522 12.231C92.522 13.383 93.452 14.3201 94.597 14.3201ZM93.313 12.231C93.313 11.519 93.889 10.9391 94.597 10.9391C95.305 10.9391 95.881 11.519 95.881 12.231C95.881 12.944 95.305 13.5231 94.597 13.5231C93.889 13.5231 93.313 12.944 93.313 12.231Z" fill="#3366FF"/>
<path d="M99.5679 37.9479C99.5929 37.8199 99.5549 37.6869 99.4639 37.5929C99.3889 37.5149 99.2859 37.4719 99.1799 37.4719C99.1579 37.4719 99.1359 37.4739 99.1149 37.4769C92.9979 38.5089 92.0839 39.5969 91.9699 40.4299C91.9519 40.5629 92.0019 40.6959 92.1019 40.7849C92.1729 40.8469 93.8719 42.3129 97.8769 44.0059C97.9859 44.0519 98.1109 44.0469 98.2159 43.9909C98.3209 43.9349 98.3949 43.8349 98.4179 43.7179L99.5679 37.9479ZM98.6789 38.3609L97.7389 43.0799C94.9219 41.8469 93.3659 40.7569 92.8329 40.3519C93.1009 39.9529 94.2149 39.1619 98.6789 38.3609Z" fill="#3366FF"/>
<path d="M134.94 48.369C134.912 48.491 134.942 48.6191 135.022 48.7151C135.102 48.8111 135.217 48.8651 135.346 48.8571C153.469 47.9081 162.375 43.0271 170.988 38.3081C172.81 37.3101 174.694 36.2771 176.63 35.3031C176.794 35.2211 176.88 35.0361 176.838 34.8571C176.797 34.6781 176.639 34.5501 176.456 34.5491C176.388 34.5491 173.84 34.5291 169.683 34.5291C162.539 34.5291 150.638 34.5861 138.375 34.8931C138.195 34.8981 138.041 35.0241 138 35.2001L134.94 48.369ZM135.831 48.0331L138.7 35.6811C154.648 35.2871 169.924 35.3131 174.825 35.3351C173.386 36.0871 171.981 36.8571 170.61 37.6081C162.158 42.2391 153.422 47.0271 135.831 48.0331Z" fill="#3366FF"/>
<path d="M224.495 20.8531C216.182 21.6241 214.224 26.3231 214.144 26.5221C214.094 26.6491 214.111 26.7931 214.191 26.9041C214.271 27.0141 214.402 27.0771 214.537 27.0671C214.794 27.0501 220.838 26.6441 222.402 25.7961C224.045 24.9061 224.881 21.4871 224.916 21.3421C224.946 21.2171 224.914 21.0851 224.831 20.9881C224.756 20.9001 224.646 20.8501 224.532 20.8501C224.519 20.8511 224.507 20.8521 224.495 20.8531ZM223.995 21.7071C223.661 22.8031 222.951 24.5951 222.027 25.0961C220.995 25.6551 217.26 26.0551 215.219 26.2191C216.013 25.0181 218.366 22.3831 223.995 21.7071Z" fill="#3366FF"/>
<path d="M227.999 12.0769C227.998 11.8679 227.997 11.679 227.997 11.515C227.997 6.40295 220.731 6.22195 220.658 6.22095H210.342L209.281 6.24094C209.149 6.24294 209.026 6.31193 208.955 6.42493C208.884 6.53693 208.873 6.67793 208.926 6.79993C209.68 8.52093 210.062 10.3489 210.062 12.2319C210.062 19.6619 204.056 25.7059 196.673 25.7059C189.29 25.7059 183.284 19.6609 183.284 12.2319C183.284 10.5229 183.602 8.85094 184.228 7.26294C184.277 7.13894 184.261 6.99895 184.186 6.88895C184.11 6.77895 183.986 6.71593 183.853 6.71793L107.671 8.14694C107.549 8.14894 107.435 8.20795 107.362 8.30695C107.289 8.40495 107.265 8.53194 107.297 8.65094C107.617 9.82094 107.779 11.0259 107.779 12.2329C107.779 19.6629 101.773 25.7079 94.39 25.7079C87.007 25.7079 81.001 19.6629 81.001 12.2329C81.001 11.1999 81.122 10.1579 81.36 9.13794C81.388 9.01794 81.36 8.89194 81.283 8.79694C81.206 8.70094 81.088 8.65193 80.968 8.64893L79.787 8.67093C79.678 8.67893 71.421 9.39394 63.838 11.1289C55.996 12.9229 55.999 17.5489 56 20.9269V21.0759C56 24.7929 58.666 24.97 58.693 24.972C60.503 24.973 60.813 28.2979 60.858 28.9949C60.829 29.0379 60.806 29.083 60.779 29.127C60.746 29.181 60.712 29.2339 60.682 29.2889C60.649 29.3499 60.619 29.4119 60.589 29.4739C60.563 29.5289 60.535 29.5829 60.511 29.6379C60.483 29.7019 60.46 29.7669 60.435 29.8309C60.414 29.8859 60.393 29.9409 60.374 29.9959C60.352 30.0619 60.334 30.1289 60.315 30.1949C60.299 30.2499 60.283 30.3039 60.269 30.3589C60.252 30.4269 60.239 30.4939 60.225 30.562C60.214 30.616 60.201 30.6699 60.192 30.7229C60.18 30.7909 60.171 30.8579 60.161 30.9259C60.154 30.9789 60.145 31.032 60.139 31.084C60.131 31.152 60.126 31.2179 60.121 31.2849C60.117 31.3359 60.111 31.3869 60.108 31.4379C60.104 31.5039 60.102 31.5689 60.1 31.6339C60.098 31.6829 60.096 31.7319 60.095 31.7799C60.094 31.8439 60.095 31.9049 60.096 31.9669C60.097 32.014 60.096 32.0609 60.098 32.1069C60.1 32.1669 60.103 32.2239 60.106 32.2809C60.108 32.3249 60.11 32.3709 60.113 32.4129C60.117 32.4669 60.122 32.5179 60.126 32.5699C60.13 32.6119 60.133 32.656 60.137 32.696C60.142 32.743 60.147 32.7849 60.153 32.8289C60.158 32.8699 60.162 32.912 60.168 32.95C60.173 32.988 60.178 33.0199 60.184 33.0549C60.19 33.0939 60.196 33.1359 60.201 33.1719C60.205 33.1979 60.209 33.2179 60.213 33.2419C60.22 33.2819 60.227 33.3229 60.233 33.3569C60.234 33.3609 60.234 33.364 60.235 33.368C60.255 33.4699 60.272 33.55 60.283 33.597V33.666V37.3959C60.283 37.5909 60.424 37.7569 60.615 37.7889C60.721 37.8069 71.443 39.6099 88.804 46.1629C98.539 49.8369 111.004 51.1989 119.747 51.6949C130.621 52.3119 140.366 51.9029 145.859 51.3149C153.899 50.4549 163.036 45.739 169.707 42.295C172.417 40.896 174.758 39.6879 176.422 39.0509C182.071 36.8899 184.407 36.629 184.43 36.627C185.768 36.439 216.893 32.0359 221.427 29.3459C223.688 28.0039 226.114 24.9849 226.456 21.2549C226.644 20.6339 226.819 19.9849 226.978 19.3229C227.852 18.7169 228.019 16.1659 227.999 12.0769ZM184.34 35.8349C184.304 35.8379 183.834 35.8889 182.829 36.1319L184.095 34.312L213.987 28.7699L220.905 27.9959L221.356 28.45C221.247 28.523 221.138 28.5939 221.03 28.6579C216.63 31.2679 184.662 35.7899 184.34 35.8349ZM64.998 29.2569C66.02 29.2569 67.174 31.4279 67.498 32.1889C67.509 32.2149 67.523 32.2399 67.539 32.2629C67.541 32.2669 67.669 32.4629 67.577 32.6359C67.498 32.7839 67.066 33.2669 64.801 33.2669H61.026C61.024 33.2559 61.022 33.2449 61.019 33.2319C61.015 33.2119 61.011 33.1909 61.007 33.1689C61.001 33.1379 60.995 33.1019 60.99 33.0659C60.986 33.0439 60.983 33.0229 60.979 32.9989C60.971 32.9449 60.962 32.8869 60.954 32.8259C60.953 32.8159 60.951 32.8069 60.95 32.7969C60.941 32.7239 60.932 32.6459 60.924 32.5649C60.922 32.5439 60.92 32.5199 60.918 32.4979C60.913 32.4369 60.908 32.3739 60.903 32.3089C60.901 32.2779 60.9 32.2459 60.898 32.2139C60.895 32.1539 60.893 32.0929 60.891 32.0299C60.89 31.9949 60.89 31.959 60.889 31.924C60.888 31.86 60.889 31.7939 60.89 31.7279C60.891 31.6929 60.891 31.6579 60.892 31.6219C60.895 31.5449 60.9 31.4679 60.905 31.3889C60.907 31.3629 60.908 31.3369 60.91 31.3109C60.919 31.2059 60.931 31.1 60.947 30.993C60.95 30.9729 60.954 30.9529 60.957 30.9339C60.971 30.8479 60.986 30.7619 61.005 30.6759C61.013 30.6399 61.022 30.6049 61.031 30.5689C61.048 30.4979 61.067 30.4279 61.087 30.3579C61.099 30.3189 61.111 30.2799 61.124 30.2409C61.146 30.1739 61.171 30.1079 61.197 30.0419C61.212 30.0039 61.227 29.9659 61.244 29.9279C61.274 29.8589 61.308 29.7909 61.343 29.7239C61.36 29.6919 61.375 29.6589 61.393 29.6279C61.448 29.5309 61.508 29.4359 61.574 29.3449C61.59 29.3239 61.603 29.3009 61.614 29.2769C61.615 29.2749 61.618 29.268 61.624 29.256L64.998 29.2569ZM226.537 18.6639C226.396 18.7019 226.288 18.8139 226.255 18.9569C226.086 19.6789 225.896 20.3859 225.692 21.0589C225.684 21.0859 225.679 21.1129 225.676 21.1409C225.422 24.0489 223.734 26.5369 221.996 27.9689L221.329 27.2979C221.255 27.2229 221.154 27.1809 221.049 27.1809C221.035 27.1809 221.02 27.182 221.005 27.183L213.884 27.9789C213.875 27.9799 213.865 27.9809 213.856 27.9829L183.791 33.5569C183.689 33.5759 183.598 33.6339 183.539 33.7199L181.693 36.3739C181.679 36.3939 181.667 36.4159 181.657 36.4379C180.359 36.8029 178.551 37.3829 176.144 38.3039C174.438 38.9569 172.08 40.174 169.349 41.584C162.733 44.999 153.672 49.6769 145.778 50.5209C137.054 51.4549 107.914 52.5209 89.084 45.4149C73.342 39.4739 63.018 37.4169 61.076 37.0599V34.062H64.8C66.775 34.062 67.914 33.7129 68.281 32.9949C68.514 32.5399 68.356 32.0729 68.209 31.8399C68.002 31.3609 66.675 28.4599 64.997 28.4599H61.61C61.471 27.1239 60.915 24.1729 58.712 24.1729C58.656 24.1679 56.791 24.0099 56.791 21.0729V20.924C56.79 19.2839 56.789 17.4249 57.681 15.7979C58.712 13.9159 60.784 12.642 64.013 11.903C71.544 10.18 79.746 9.46995 79.827 9.46295L80.482 9.45093C80.301 10.3709 80.209 11.3039 80.209 12.2299C80.209 15.1729 81.099 17.9099 82.622 20.1849C81.847 20.0899 79.565 19.8409 76.896 19.8409C76.597 19.8409 76.294 19.844 75.986 19.851C70.982 19.962 67.52 20.9489 65.695 22.7849C64.019 24.4719 62.145 24.2729 62.066 24.2639C61.849 24.2399 61.652 24.3939 61.626 24.6109C61.6 24.8289 61.753 25.0269 61.969 25.0539C62.064 25.0649 64.293 25.3209 66.254 23.3479C70.288 19.2879 82.669 20.9919 82.794 21.0099C82.923 21.0279 83.046 20.9799 83.131 20.8929C85.725 24.2989 89.805 26.502 94.389 26.502C102.208 26.502 108.569 20.0999 108.569 12.2309C108.569 11.1229 108.44 10.0149 108.184 8.93195L183.285 7.52295C182.758 9.03695 182.491 10.6179 182.491 12.2299C182.491 20.0989 188.852 26.5009 196.671 26.5009C204.49 26.5009 210.851 20.0989 210.851 12.2299C210.851 10.4339 210.523 8.68493 209.875 7.02393L210.348 7.01495H220.65C220.709 7.01595 227.205 7.18294 227.205 11.5129C227.205 11.6789 227.206 11.8689 227.207 12.0789C227.233 17.2759 226.857 18.5279 226.537 18.6639Z" fill="#3366FF"/>
<path d="M226.708 15.0559C226.708 14.9769 226.705 13.1009 226.433 12.1239C226.151 11.1129 225.727 10.3849 224.576 10.1209C224.222 10.0399 223.529 10.0129 222.768 10.0129C221.42 10.0129 219.861 10.0969 219.601 10.1119C219.582 10.1129 219.564 10.1149 219.545 10.1189C219.474 10.1329 217.799 10.4859 217.295 11.9049C216.852 13.1549 216.508 15.7679 216.494 15.8779C216.478 15.9979 216.518 16.1189 216.601 16.2059C216.684 16.2929 216.803 16.3369 216.922 16.3259L226.348 15.4519C226.552 15.4339 226.708 15.2619 226.708 15.0559ZM225.911 14.6929L217.348 15.4869C217.47 14.6669 217.736 13.0309 218.04 12.1719C218.366 11.2549 219.498 10.9469 219.677 10.9039C220.775 10.8429 223.668 10.7289 224.4 10.8969C225.103 11.0579 225.411 11.408 225.671 12.338C225.847 12.973 225.897 14.1119 225.911 14.6929Z" fill="#3366FF"/>
<path d="M101.359 37.1351C101.205 37.1561 101.078 37.2661 101.034 37.4151L99.0541 44.0881C98.9951 44.2881 99.0991 44.5001 99.2931 44.5741C104.611 46.6041 114.023 49.0251 128.669 49.0251C130.169 49.0251 131.677 49.0001 133.151 48.9501C133.341 48.9441 133.499 48.8031 133.529 48.6141L135.585 35.4371C135.603 35.3201 135.569 35.2011 135.491 35.1121C135.416 35.0261 135.308 34.9771 135.194 34.9771C135.19 34.9771 135.187 34.9771 135.183 34.9771C119.929 35.4141 108.549 36.1401 101.359 37.1351ZM101.719 37.8891C108.818 36.9251 119.919 36.219 134.729 35.787L132.798 48.1651C131.437 48.2071 130.05 48.2291 128.669 48.2291C114.456 48.2291 105.232 45.9381 99.9181 43.9601L101.719 37.8891Z" fill="#3366FF"/>
<path d="M178.589 34.273C178.412 34.401 178.165 34.36 178.037 34.182C177.909 34.003 177.95 33.755 178.127 33.626C179.649 32.525 180.221 31.204 180.041 29.208C179.802 26.568 178.468 12.891 178.231 10.467L139.417 11.248C139.369 13.628 139.089 25.88 138.363 29.776C137.58 33.977 137.31 35.341 137.307 35.355C137.264 35.571 137.054 35.71 136.842 35.667C136.628 35.624 136.489 35.414 136.532 35.199C136.535 35.186 136.805 33.824 137.586 29.63C138.287 25.868 138.575 13.707 138.626 11.276L111.727 12.565C111.692 13.795 111.476 17.764 110.128 21.607C108.669 25.766 104.298 27.721 103.249 28.137L101.969 35.61C101.932 35.827 101.726 35.972 101.512 35.935C101.297 35.898 101.152 35.692 101.189 35.475L102.508 27.778C102.532 27.636 102.632 27.518 102.767 27.47C102.818 27.452 107.883 25.617 109.382 21.343C110.922 16.951 110.942 12.233 110.942 12.186C110.942 11.974 111.108 11.798 111.319 11.788L139.011 10.461C139.015 10.461 139.018 10.461 139.021 10.461L178.581 9.66504C178.584 9.66504 178.586 9.66504 178.589 9.66504C178.792 9.66504 178.962 9.82002 178.983 10.024C178.999 10.186 180.568 26.25 180.829 29.137C181.035 31.419 180.344 33.003 178.589 34.273Z" fill="#3366FF"/>
<path d="M208.825 12.231C208.825 5.48699 203.373 0 196.672 0C189.971 0 184.519 5.48699 184.519 12.231C184.519 18.975 189.971 24.461 196.672 24.461C203.374 24.462 208.825 18.975 208.825 12.231ZM205.976 12.231C205.976 17.402 201.811 21.594 196.673 21.594C191.535 21.594 187.37 17.402 187.37 12.231C187.37 7.05999 191.535 2.86899 196.673 2.86899C201.811 2.86899 205.976 7.06099 205.976 12.231Z" fill="#3366FF"/>
<path d="M106.76 12.231C106.76 5.48699 101.308 0 94.6071 0C87.9061 0 82.4541 5.48699 82.4541 12.231C82.4541 18.975 87.9061 24.461 94.6071 24.461C101.308 24.462 106.76 18.975 106.76 12.231ZM103.899 12.231C103.899 17.402 99.7341 21.594 94.5961 21.594C89.4581 21.594 85.2931 17.402 85.2931 12.231C85.2931 7.05999 89.4581 2.86899 94.5961 2.86899C99.7351 2.86899 103.899 7.06099 103.899 12.231Z" fill="#3366FF"/>
<path d="M280.081 69.0124C278.863 66.2824 277.158 64.5454 275.696 64.2974C274.234 64.0494 259.085 64.2654 259.085 64.2654C259.085 64.2654 259.13 71.4934 259.617 73.7274C260.104 75.9604 262.297 82.1654 262.297 82.1654C262.297 82.1654 261.384 84.6844 260.988 87.5194C260.722 89.4264 260.634 93.5304 260.606 96.0134H260.483C260.483 96.0134 260.483 103.706 260.879 106.541C261.275 109.376 262.188 111.895 262.188 111.895C262.188 111.895 259.995 118.099 259.508 120.333C259.021 122.566 258.976 129.795 258.976 129.795C258.976 129.795 274.126 130.012 275.587 129.763C277.049 129.515 278.754 127.778 279.972 125.048C281.19 122.318 280.703 114.625 280.703 114.625V101.72C280.703 101.72 280.703 100.258 280.703 98.0474H280.812C280.812 94.7384 280.812 92.3394 280.812 92.3394V79.4344C280.812 79.4344 281.3 71.7414 280.081 69.0124ZM262.178 78.0884C261.992 77.8154 261.866 77.4924 261.77 77.1764C261.582 76.5534 261.42 75.8974 261.3 75.2564C261.188 74.6584 261.121 74.0504 261.129 73.4414C261.099 73.3134 261.072 73.1844 261.037 73.0574C260.897 72.5474 260.733 72.0794 260.708 71.5434C260.685 71.0604 260.744 70.5784 260.727 70.0954C260.727 70.0924 260.728 70.0904 260.728 70.0884C260.126 69.6964 260.537 68.5344 261.385 68.7104C261.645 68.7644 261.872 68.8864 262.125 68.9604C262.316 69.0164 262.512 69.0204 262.706 69.0594C263.043 69.1284 263.352 69.2964 263.616 69.5194C263.963 69.5274 264.183 69.7304 264.275 69.9894C264.309 70.0294 264.339 70.0734 264.362 70.1234C264.692 70.8414 265.279 71.3724 265.467 72.1664C265.655 72.9564 265.589 73.7904 265.635 74.5954C265.681 75.4044 265.802 76.1994 265.992 76.9874C266.197 77.8394 266.46 78.6694 266.434 79.5574C266.419 80.0804 265.78 80.5944 265.298 80.2214C265.153 80.1094 265.014 79.9934 264.883 79.8674C264.875 79.8674 264.87 79.8714 264.862 79.8714C264.69 79.8714 264.56 79.8124 264.449 79.7334C264.379 79.7554 264.306 79.7674 264.231 79.7574C263.563 79.6764 263.096 79.2854 262.687 78.7624C262.589 78.6374 262.494 78.5104 262.399 78.3834C262.37 78.3454 262.295 78.2464 262.363 78.3354C262.301 78.2534 262.236 78.1734 262.178 78.0884ZM265.902 119.568C265.856 120.42 265.598 123.311 264.137 124.304C263.22 124.927 261.701 125.545 260.483 125.297C260.367 125.057 260.727 122.655 260.727 122.319C260.727 120.582 260.727 119.837 261.214 117.604C261.489 116.343 262.257 115.74 263.163 114.874C263.882 114.187 266.365 113.689 266.33 113.881C266.167 114.767 265.972 118.282 265.902 119.568ZM268.035 108.917C268 109.551 263.406 110.158 262.675 109.165C261.438 107.485 261.78 105.249 261.7 103.209C261.632 101.466 261.368 99.7634 261.346 98.0474H261.566C261.472 97.3714 261.447 96.7014 261.455 96.0324C261.456 96.0254 261.456 96.0194 261.457 96.0124H261.455C261.477 94.2964 261.741 92.5924 261.809 90.8504C261.889 88.8104 261.547 86.5744 262.784 84.8944C263.515 83.9014 268.109 84.5084 268.144 85.1424C268.313 88.2464 268.381 93.2344 268.405 96.0124H268.307C268.312 96.0774 268.278 104.45 268.035 108.917ZM273.534 67.6504C274.232 67.8004 274.846 68.2154 275.535 68.4134C276.181 68.5984 276.749 68.8604 277.047 69.5104C277.338 70.1454 277.266 70.8454 277.205 71.5214C277.134 72.3134 277.201 73.1144 277.21 73.9084C277.23 75.7204 277.223 77.5914 276.923 79.3824C276.845 79.8464 276.652 80.2694 276.374 80.6304C276.378 80.6914 276.377 80.7544 276.366 80.8204C276.159 82.1564 274.706 82.2304 273.684 82.4934C273.061 82.6534 272.469 81.8844 272.829 81.3564C272.775 81.2544 272.734 81.1384 272.728 80.9954C272.69 80.1594 272.829 79.3414 272.817 78.5104C272.808 77.9254 272.76 77.3424 272.848 76.7674C272.791 76.4524 272.739 76.1364 272.713 75.8144C272.626 74.7454 272.7 73.6734 272.687 72.6024C272.673 71.4504 272.641 70.2994 272.729 69.1504C272.735 69.0734 272.752 69.0054 272.774 68.9404C272.332 68.4834 272.742 67.4804 273.534 67.6504ZM276.074 100.976C276.074 104.45 275.587 105.939 274.693 106.753C273.812 107.556 272.907 107.428 272.907 107.428C272.907 107.428 273.05 101.836 273.02 98.0474H273.087C273.223 94.7434 273.016 86.6314 273.016 86.6314C273.016 86.6314 273.922 86.5034 274.802 87.3064C275.695 88.1204 276.183 89.6094 276.183 93.0834C276.183 93.9264 276.19 94.9854 276.192 96.0124H276.074C276.096 97.4744 276.074 99.5404 276.074 100.976ZM277.292 119.588C277.167 121.046 277.48 122.88 277.048 124.303C276.752 125.279 273.394 126.785 272.663 126.288C272.506 126.181 272.493 115.287 272.663 111.646C272.681 111.262 274.49 111.671 274.959 111.89C275.677 112.224 276.602 113.116 276.804 113.631C277.292 114.873 277.44 117.865 277.292 119.588Z" fill="#FEE348"/>
<path d="M266.368 80.6604C266.379 80.6614 266.39 80.6614 266.401 80.6614C266.496 80.6614 266.588 80.6234 266.656 80.5554C266.733 80.4794 266.773 80.3734 266.765 80.2644C266.762 80.2244 266.497 76.2244 265.937 72.1904C265.33 67.8144 260.505 68.3304 260.456 68.3354C260.267 68.3574 260.127 68.5234 260.133 68.7164C260.14 68.9494 260.319 74.4654 261.281 77.2724C262.303 80.2514 266.203 80.6454 266.368 80.6604ZM265.214 72.2954C265.659 75.5024 265.917 78.6894 266.004 79.8524C265.023 79.6674 262.655 79.0204 261.972 77.0274C261.184 74.7274 260.936 70.3364 260.879 69.0534C261.887 69.0244 264.788 69.2184 265.214 72.2954Z" fill="#3366FF"/>
<path d="M266.368 113.673C266.202 113.688 262.302 114.082 261.281 117.06C260.319 119.867 260.14 125.382 260.133 125.615C260.127 125.808 260.268 125.974 260.456 125.996C260.466 125.997 260.655 126.017 260.959 126.017C262.22 126.017 265.448 125.667 265.937 122.141C266.497 118.107 266.763 114.108 266.765 114.068C266.772 113.959 266.732 113.853 266.656 113.777C266.58 113.702 266.474 113.664 266.368 113.673ZM265.214 122.038C264.787 125.116 261.884 125.307 260.878 125.279C260.935 123.996 261.183 119.606 261.971 117.306C262.655 115.313 265.022 114.667 266.003 114.482C265.917 115.645 265.659 118.831 265.214 122.038Z" fill="#3366FF"/>
<path d="M268.341 84.4583C264.928 83.5943 262.965 83.6343 262.337 84.5793C260.957 86.6563 261.054 96.7433 261.059 97.1623C261.054 97.5903 260.957 107.677 262.337 109.754C262.665 110.247 263.357 110.494 264.429 110.494C265.41 110.494 266.71 110.288 268.341 109.875C268.504 109.834 268.618 109.685 268.618 109.514V84.8193C268.618 84.6483 268.504 84.4993 268.341 84.4583ZM267.887 109.222C263.994 110.173 263.132 109.624 262.942 109.338C261.903 107.773 261.758 100.025 261.79 97.1633C261.758 94.3103 261.903 86.5623 262.942 84.9973C263.052 84.8313 263.387 84.5783 264.405 84.5783C265.146 84.5783 266.248 84.7123 267.887 85.1133V109.222Z" fill="#3366FF"/>
<path d="M272.882 108.453C272.923 108.453 272.964 108.446 273.003 108.432C273.525 108.246 273.876 108.112 273.97 108.076C274.285 108.001 276.372 107.376 276.372 104.004V90.3283C276.372 86.9563 274.284 86.3313 273.97 86.2563C273.876 86.2203 273.524 86.0873 273.003 85.9003C272.892 85.8603 272.768 85.8783 272.671 85.9483C272.574 86.0183 272.517 86.1313 272.517 86.2523V108.08C272.517 108.201 272.574 108.314 272.671 108.384C272.734 108.43 272.808 108.453 272.882 108.453ZM273.248 86.7803C273.557 86.8943 273.735 86.9623 273.737 86.9633C273.755 86.9703 273.777 86.9763 273.796 86.9803C273.871 86.9963 275.642 87.4003 275.642 90.3293V104.005C275.642 106.933 273.871 107.338 273.799 107.353C273.778 107.357 273.757 107.363 273.737 107.371C273.735 107.371 273.557 107.44 273.248 107.554V86.7803Z" fill="#3366FF"/>
<path d="M277.559 70.3163C277.559 67.7113 272.859 67.1963 272.659 67.1753C272.555 67.1653 272.454 67.1993 272.377 67.2693C272.3 67.3403 272.257 67.4403 272.257 67.5453V82.5773C272.257 82.7833 272.421 82.9493 272.622 82.9493C274.349 82.9493 275.659 82.4503 276.516 81.4663C277.719 80.0853 277.583 78.2473 277.559 78.0033V70.3163ZM275.965 80.9773C275.311 81.7243 274.311 82.1333 272.988 82.1963V67.9683C274.344 68.1803 276.829 68.8683 276.829 70.3153V78.0233C276.829 78.0373 276.83 78.0523 276.831 78.0663C276.832 78.0843 277.011 79.7813 275.965 80.9773Z" fill="#3366FF"/>
<path d="M277.559 114.527C277.559 111.922 272.859 111.407 272.659 111.386C272.555 111.376 272.454 111.41 272.377 111.48C272.3 111.551 272.257 111.651 272.257 111.756V126.788C272.257 126.994 272.421 127.16 272.622 127.16C274.349 127.16 275.659 126.661 276.516 125.677C277.719 124.296 277.583 122.457 277.559 122.214V114.527ZM275.964 125.188C275.31 125.935 274.31 126.344 272.987 126.407V112.179C274.343 112.39 276.828 113.076 276.828 114.526V122.234C276.828 122.248 276.829 122.263 276.83 122.277C276.832 122.295 277.011 123.993 275.964 125.188Z" fill="#3366FF"/>
<path d="M281.176 97.1674V75.8174C283.671 75.0444 284.001 72.7294 284.001 70.7804V69.4204C284.001 66.7924 283.421 64.1054 279.121 64.1054H276.231C276.218 64.1054 276.205 64.1084 276.192 64.1094C274.63 63.4864 273.26 63.6344 273.029 63.6664H260.093C257.587 63.6664 255.549 64.3984 253.745 65.9594V62.9784C253.745 62.4244 253.557 61.9724 253.187 61.6334C252.38 60.8944 250.966 60.9974 250.77 61.0144C249.879 61.0184 249.184 61.3024 248.705 61.8594C247.906 62.7864 248.014 64.1424 248.037 64.3564V66.2204C248.037 68.0914 248.996 69.0364 249.768 69.4934C246.597 70.6604 239.72 73.4264 238.14 75.9844C236.14 79.2194 236.005 96.4344 236 97.1704C236.005 97.9014 236.139 115.116 238.14 118.352C239.841 121.104 247.671 124.096 250.423 125.08V126.129C249.725 126.378 248.037 127.235 248.037 129.708V131.573C248.014 131.787 247.906 133.142 248.705 134.07C249.18 134.622 249.867 134.906 250.747 134.914C250.864 134.94 251.183 135.001 251.573 135.001C252.048 135.001 252.627 134.91 253.072 134.555C253.519 134.198 253.745 133.659 253.745 132.951V128.377C255.548 129.938 257.586 130.67 260.093 130.67H273.029C273.254 130.701 274.564 130.843 276.078 130.272C276.091 130.273 276.103 130.276 276.116 130.276H279.121C283.421 130.276 284.001 127.589 284.001 124.961V123.602C284.001 121.653 283.67 119.337 281.176 118.565V97.2714V97.1674ZM273.112 129.928C273.093 129.925 273.074 129.923 273.055 129.923H260.093C256.683 129.923 254.775 128.405 253.636 127.263C253.531 127.158 253.373 127.127 253.238 127.185C253.102 127.243 253.014 127.378 253.014 127.528V132.948C253.014 133.421 252.886 133.754 252.622 133.965C252.119 134.368 251.19 134.256 250.875 134.178C250.846 134.171 250.817 134.167 250.788 134.167C250.11 134.167 249.594 133.969 249.257 133.579C248.624 132.848 248.764 131.651 248.765 131.64C248.767 131.624 248.768 131.608 248.768 131.592V129.706C248.768 127.23 250.774 126.788 250.858 126.77C251.03 126.736 251.154 126.583 251.154 126.405V124.814C251.154 124.656 251.055 124.514 250.908 124.462C245.883 122.688 240.052 120.047 238.759 117.954C236.869 114.896 236.733 97.3414 236.732 97.1694C236.733 96.9924 236.869 79.4374 238.759 76.3804C240.052 74.2884 245.882 71.6464 250.907 69.8724C251.063 69.8174 251.162 69.6624 251.15 69.4954C251.139 69.3284 251.018 69.1884 250.856 69.1554C250.771 69.1384 248.768 68.6984 248.768 66.2204V64.3344C248.768 64.3184 248.767 64.3024 248.765 64.2864C248.764 64.2744 248.624 63.0784 249.257 62.3464C249.595 61.9564 250.11 61.7584 250.788 61.7584C250.801 61.7584 250.814 61.7574 250.827 61.7564C250.903 61.7484 251.01 61.7424 251.137 61.7424C251.594 61.7424 252.303 61.8234 252.699 62.1864C252.911 62.3814 253.014 62.6394 253.014 62.9784V66.8054C253.014 66.9554 253.103 67.0904 253.238 67.1484C253.374 67.2054 253.53 67.1754 253.636 67.0704C254.775 65.9284 256.684 64.4104 260.093 64.4104H273.055C273.074 64.4104 273.093 64.4094 273.111 64.4064C273.135 64.4024 275.567 64.0494 277.591 65.8204C279.484 67.4774 280.444 70.4084 280.444 74.5314V97.1714V97.2674V119.802C280.444 123.925 279.484 126.856 277.591 128.513C275.568 130.285 273.136 129.931 273.112 129.928Z" fill="#3366FF"/>
<path d="M262.033 109.832C261.242 108.397 260.954 102.268 260.948 97.0115C260.954 91.7535 261.242 85.6234 262.033 84.1894C262.286 83.7314 262 82.5244 255.911 72.3464C255.142 71.0614 253.636 70.4624 252.249 70.8894C250.765 71.3474 249.726 71.6244 249.324 71.6694C249.257 71.6774 249.198 71.7034 249.147 71.7414C248.38 71.7274 247.754 71.9504 247.709 71.9674L243.499 73.5724C239.063 75.2634 238.778 77.6184 238.307 81.5214C237.842 85.3664 237.657 96.5894 237.649 97.0774C237.657 97.5534 237.842 108.775 238.307 112.62C238.779 116.523 239.064 118.878 243.5 120.569L247.71 122.174C247.71 122.174 247.712 122.175 247.714 122.175C247.755 122.19 248.343 122.402 249.077 122.402C249.213 122.402 249.354 122.395 249.497 122.377C249.87 122.444 250.644 122.635 252.25 123.13C252.55 123.222 252.855 123.267 253.156 123.267C254.252 123.267 255.309 122.681 255.912 121.674C262 111.497 262.286 110.29 262.033 109.832ZM243.756 119.872C239.735 118.34 239.5 116.398 239.033 112.529C238.573 108.723 238.383 97.1814 238.381 97.0774C238.383 96.9614 238.573 85.4185 239.033 81.6125C239.5 77.7445 239.735 75.8025 243.756 74.2705L247.961 72.6674C247.975 72.6624 249.387 72.1604 250.346 72.8484C250.984 73.3064 251.308 74.2075 251.308 75.5265V76.4754C251.308 76.4874 251.308 76.4984 251.31 76.5104C251.328 76.7074 251.337 76.8934 251.337 77.0794V117.063C251.337 117.249 251.328 117.435 251.31 117.632C251.309 117.643 251.308 117.655 251.308 117.667V118.617C251.308 119.936 250.984 120.837 250.346 121.295C250.083 121.484 249.786 121.581 249.493 121.625C249.464 121.621 249.43 121.615 249.404 121.612C249.328 121.604 249.255 121.62 249.192 121.655C248.551 121.679 247.997 121.488 247.963 121.476L243.756 119.872ZM255.288 121.286C254.692 122.282 253.529 122.746 252.462 122.418C251.788 122.21 251.22 122.044 250.748 121.915C250.753 121.911 250.758 121.909 250.764 121.905C251.611 121.3 252.04 120.194 252.04 118.615V117.682C252.059 117.468 252.069 117.265 252.069 117.061V77.0774C252.069 76.8734 252.06 76.6704 252.04 76.4564V75.5245C252.04 73.9465 251.611 72.8394 250.764 72.2344C250.715 72.1994 250.665 72.1715 250.615 72.1405C251.111 72.0075 251.724 71.8285 252.462 71.6015C253.53 71.2725 254.692 71.7375 255.288 72.7335C259.282 79.4105 261.327 83.1575 261.369 83.8755C260.341 85.8725 260.221 93.7104 260.218 97.0104C260.222 100.309 260.342 108.147 261.369 110.144C261.327 110.863 259.282 114.61 255.288 121.286Z" fill="#3366FF"/>
</svg>
