<svg width="18" height="14" viewBox="0 0 18 14" fill="none" xmlns="http://www.w3.org/2000/svg">
<path d="M4.55561 12.5556C5.53745 12.5556 6.33339 11.7596 6.33339 10.7778C6.33339 9.79594 5.53745 9 4.55561 9C3.57377 9 2.77783 9.79594 2.77783 10.7778C2.77783 11.7596 3.57377 12.5556 4.55561 12.5556Z" stroke="#3366FF" stroke-linecap="round" stroke-linejoin="round"/>
<path d="M13.4448 12.5556C14.4266 12.5556 15.2225 11.7596 15.2225 10.7778C15.2225 9.79594 14.4266 9 13.4448 9C12.4629 9 11.667 9.79594 11.667 10.7778C11.667 11.7596 12.4629 12.5556 13.4448 12.5556Z" stroke="#3366FF" stroke-linecap="round" stroke-linejoin="round"/>
<path d="M2.77778 10.7778H1V5.44444L2.77778 1H10.7778L14.3333 5.44444H15.2222C15.6937 5.44444 16.1459 5.63175 16.4793 5.96514C16.8127 6.29854 17 6.75073 17 7.22222V10.7778H15.2222M11.6667 10.7778H6.33333M1 5.44444H14.3333M9 5.44444V1" stroke="#3366FF" stroke-linecap="round" stroke-linejoin="round"/>
</svg>
