<svg width="16" height="13" viewBox="0 0 16 13" fill="none" xmlns="http://www.w3.org/2000/svg">
<path d="M2.55556 3.14583H3.33333C3.74589 3.14583 4.14155 2.99511 4.43328 2.72683C4.725 2.45855 4.88889 2.09468 4.88889 1.71528C4.88889 1.52557 4.97083 1.34364 5.11669 1.2095C5.26256 1.07536 5.46039 1 5.66667 1H10.3333C10.5396 1 10.7374 1.07536 10.8833 1.2095C11.0292 1.34364 11.1111 1.52557 11.1111 1.71528C11.1111 2.09468 11.275 2.45855 11.5667 2.72683C11.8584 2.99511 12.2541 3.14583 12.6667 3.14583H13.4444C13.857 3.14583 14.2527 3.29655 14.5444 3.56483C14.8361 3.83311 15 4.19698 15 4.57639V11.0139C15 11.3933 14.8361 11.7572 14.5444 12.0254C14.2527 12.2937 13.857 12.4444 13.4444 12.4444H2.55556C2.143 12.4444 1.74733 12.2937 1.45561 12.0254C1.16389 11.7572 1 11.3933 1 11.0139V4.57639C1 4.19698 1.16389 3.83311 1.45561 3.56483C1.74733 3.29655 2.143 3.14583 2.55556 3.14583" stroke="#3366FF" stroke-linecap="round" stroke-linejoin="round"/>
<path d="M7.41213 9.51469C7.75714 9.5972 8.11812 9.60591 8.46736 9.54015C8.81659 9.47439 9.14481 9.33592 9.4268 9.13536C9.70879 8.9348 9.93707 8.67749 10.0941 8.38317C10.2511 8.08886 10.3327 7.76536 10.3327 7.43753M8.58268 5.35964C8.23787 5.27777 7.87724 5.26956 7.52845 5.33566C7.17965 5.40175 6.85193 5.5404 6.5704 5.74096C6.28887 5.94153 6.06099 6.1987 5.90423 6.49278C5.74747 6.78685 5.66598 7.11002 5.66602 7.43753" stroke="#3366FF" stroke-linecap="round" stroke-linejoin="round"/>
<path d="M9.55469 7.4375H11.1102V8.86806" stroke="#3366FF" stroke-linecap="round" stroke-linejoin="round"/>
<path d="M6.44444 7.43745H4.88889V6.0069" stroke="#3366FF" stroke-linecap="round" stroke-linejoin="round"/>
</svg>
