<svg width="18" height="18" viewBox="0 0 18 18" fill="none" xmlns="http://www.w3.org/2000/svg">
<path d="M8 6V7C8.55228 7 9 6.55228 9 6H8ZM1 6V5C0.447715 5 0 5.44772 0 6H1ZM1 10H0C0 10.5523 0.447715 11 1 11L1 10ZM17 10V11C17.5523 11 18 10.5523 18 10H17ZM17 6H18C18 5.44772 17.5523 5 17 5V6ZM10 6H9C9 6.55228 9.44771 7 10 7V6ZM9 2V2V0C7.89543 0 7 0.89543 7 2H9ZM9 6V2H7V6H9ZM1 7H8V5H1V7ZM2 10V6H0V10H2ZM17 9H1V11H17V9ZM16 6V10H18V6H16ZM10 7H17V5H10V7ZM9 2V6H11V2H9ZM9 2H11C11 0.895431 10.1046 0 9 0V2Z" fill="#3366FF"/>
<path d="M2 10L1 17H17L16 10" stroke="#3366FF" stroke-width="2" stroke-linecap="round" stroke-linejoin="round"/>
<path d="M13 13L13 17" stroke="#3366FF" stroke-width="2" stroke-linecap="round"/>
<line x1="9" y1="13" x2="9" y2="16" stroke="#3366FF" stroke-width="2" stroke-linecap="round"/>
<path d="M6 15C6 14.4477 5.55228 14 5 14C4.44772 14 4 14.4477 4 15L6 15ZM4 15L4 17L6 17L6 15L4 15Z" fill="#3366FF"/>
</svg>
