<svg width="20" height="20" viewBox="0 0 20 20" fill="none" xmlns="http://www.w3.org/2000/svg">
<path d="M4.39539 18.3792L8.65675 15.0295L9.67577 18.9971L11.5285 15.0295L16.5642 18.3792L13.4739 13.9768H16.9015L15.1414 11.8716L17.55 10.4141L15.1414 9.28047L19 5.06994L13.5565 7.0886L14.3902 4.2546L11.446 5.54028L9.67577 0.99707L8.49161 5.8698L5.69233 4.58412L6.07295 7.25336L1 5.54028L4.39539 9.28047L1.89416 10.4141L4.85858 11.8716L2.91318 13.9768H6.15552L4.39539 18.3792Z" stroke="#3366FF" stroke-width="2" stroke-linecap="round" stroke-linejoin="round"/>
<path d="M9.4 9.42564L10.2 7.99707L11 9.78278L13 10.4971L10.6 11.2114L10.2 12.9971L9.4 11.2114L7 10.1399L9.4 9.42564Z" stroke="#3366FF" stroke-width="2" stroke-linecap="round" stroke-linejoin="round"/>
</svg>
