<svg width="16" height="18" viewBox="0 0 16 18" fill="none" xmlns="http://www.w3.org/2000/svg">
<path d="M1 4.55556H15.2222" stroke="#3366FF" stroke-linecap="round" stroke-linejoin="round"/>
<path d="M6.33398 8.11111V13.4444" stroke="#3366FF" stroke-linecap="round" stroke-linejoin="round"/>
<path d="M9.88892 8.11111V13.4444" stroke="#3366FF" stroke-linecap="round" stroke-linejoin="round"/>
<path d="M1.88892 4.55556L2.7778 15.2222C2.7778 15.6937 2.96511 16.1459 3.2985 16.4793C3.6319 16.8127 4.08409 17 4.55558 17H11.6667C12.1382 17 12.5904 16.8127 12.9238 16.4793C13.2572 16.1459 13.4445 15.6937 13.4445 15.2222L14.3334 4.55556" stroke="#3366FF" stroke-linecap="round" stroke-linejoin="round"/>
<path d="M5.44531 4.55556V1.88889C5.44531 1.65314 5.53896 1.42705 5.70566 1.26035C5.87236 1.09365 6.09845 1 6.3342 1H9.88976C10.1255 1 10.3516 1.09365 10.5183 1.26035C10.685 1.42705 10.7786 1.65314 10.7786 1.88889V4.55556" stroke="#3366FF" stroke-linecap="round" stroke-linejoin="round"/>
</svg>
