<svg width="18" height="18" viewBox="0 0 18 18" fill="none" xmlns="http://www.w3.org/2000/svg">
<path d="M10.3522 12.3418C10.2218 12.1701 10.0035 12.089 9.79299 12.1358C9.56977 12.1854 9.33797 12.2118 9.10002 12.2118C8.86207 12.2118 8.63021 12.1854 8.40705 12.1358C8.19655 12.089 7.97824 12.17 7.84785 12.3418L6.75878 13.7762C6.53396 14.0723 6.65773 14.5037 7.00697 14.6312C7.65977 14.8697 8.36469 14.9999 9.10008 14.9999C9.83547 14.9999 10.5404 14.8698 11.1932 14.6312C11.5424 14.5037 11.6662 14.0722 11.4414 13.7762L10.3522 12.3418Z" stroke="#3366FF" stroke-miterlimit="10"/>
<path d="M12.309 9.00323C12.309 9.5825 12.1542 10.1261 11.8845 10.5955C11.7791 10.7789 11.7929 11.0075 11.9135 11.1811L12.9646 12.6939C13.1743 12.9958 13.617 13.0158 13.8479 12.7299C14.6938 11.6829 15.2005 10.3507 15.2005 8.89988C15.2005 8.83492 15.1995 8.77013 15.1975 8.70565C15.1859 8.33322 14.8128 8.08077 14.4609 8.20341L12.3078 8.9536C12.308 8.97016 12.309 8.98661 12.309 9.00323Z" stroke="#3366FF" stroke-miterlimit="10"/>
<path d="M10.3961 6.06906C10.8046 6.25016 11.1685 6.51397 11.4663 6.8393C11.6079 6.99395 11.8281 7.04939 12.0288 6.9888L13.9166 6.41919C14.2702 6.31252 14.4226 5.89619 14.2217 5.58629C13.4203 4.35015 12.1838 3.42242 10.729 3.02018C10.3731 2.92179 10.0236 3.19832 10.0314 3.56749L10.0737 5.57559C10.0783 5.78804 10.2018 5.98286 10.3961 6.06906Z" stroke="#3366FF" stroke-miterlimit="10"/>
<path d="M5.89151 9.00327C5.89151 8.98659 5.89252 8.9702 5.89275 8.95358L3.73959 8.20339C3.38769 8.08081 3.01467 8.3332 3.00302 8.70563C3.00101 8.77011 3 8.8349 3 8.89986C3 10.3507 3.50673 11.683 4.35258 12.73C4.58355 13.0159 5.02626 12.9958 5.23593 12.694L6.28701 11.1812C6.40771 11.0075 6.42143 10.7789 6.31606 10.5955C6.04628 10.1261 5.89151 9.58259 5.89151 9.00327Z" stroke="#3366FF" stroke-miterlimit="10"/>
<path d="M6.73365 6.83926C7.03148 6.51392 7.39538 6.25012 7.80384 6.06902C7.99819 5.98288 8.12172 5.788 8.12622 5.57549L8.16858 3.56739C8.17639 3.19815 7.82686 2.92163 7.47094 3.02008C6.01607 3.42232 4.77957 4.35005 3.97821 5.58619C3.7773 5.89609 3.92976 6.31241 4.28331 6.41908L6.17113 6.98876C6.37181 7.04934 6.59208 6.99391 6.73365 6.83926Z" stroke="#3366FF" stroke-miterlimit="10"/>
<path d="M9 10C9.55228 10 10 9.55229 10 9C10 8.44772 9.55228 8 9 8C8.44772 8 8 8.44772 8 9C8 9.55229 8.44772 10 9 10Z" stroke="#3366FF" stroke-miterlimit="10"/>
<path d="M9 17C13.4183 17 17 13.4183 17 9C17 4.58172 13.4183 1 9 1C4.58172 1 1 4.58172 1 9C1 13.4183 4.58172 17 9 17Z" stroke="#3366FF" stroke-miterlimit="10"/>
</svg>
