<svg width="22" height="22" viewBox="0 0 22 22" fill="none" xmlns="http://www.w3.org/2000/svg">
<path d="M19.3383 11.7216L11.0093 21L2.68024 11.7216M2.68024 11.7216C2.13086 11.1203 1.69813 10.3976 1.40928 9.59892C1.12044 8.80027 0.981741 7.943 1.00193 7.08109C1.02211 6.21918 1.20074 5.37131 1.52656 4.59087C1.85239 3.81043 2.31835 3.11432 2.89511 2.54638C3.47187 1.97844 4.14693 1.55098 4.87778 1.2909C5.60863 1.03083 6.37944 0.943779 7.14167 1.03524C7.9039 1.12669 8.64104 1.39467 9.30666 1.82231C9.97229 2.24994 10.552 2.82796 11.0093 3.51996C11.4685 2.83298 12.0489 2.26001 12.714 1.83692C13.3792 1.41382 14.1149 1.14971 14.875 1.06112C15.635 0.972517 16.4032 1.06134 17.1314 1.32202C17.8596 1.5827 18.5321 2.00963 19.1068 2.57609C19.6815 3.14255 20.1461 3.83634 20.4715 4.61405C20.7969 5.39175 20.976 6.23663 20.9978 7.0958C21.0195 7.95497 20.8833 8.80993 20.5978 9.60719C20.3122 10.4044 19.8834 11.1268 19.3383 11.7291" stroke="#A8A8A8" stroke-width="2" stroke-linecap="round" stroke-linejoin="round"/>
</svg>
