<svg width="16" height="15" viewBox="0 0 16 15" fill="none" xmlns="http://www.w3.org/2000/svg">
<path d="M13.8368 7.96905L8.00648 14L2.17617 7.96905M2.17617 7.96905C1.7916 7.5782 1.48869 7.10843 1.2865 6.5893C1.08431 6.07018 0.987218 5.51295 1.00135 4.95271C1.01548 4.39247 1.14052 3.84135 1.3686 3.33407C1.59667 2.82678 1.92285 2.37431 2.32658 2.00515C2.73031 1.63599 3.20285 1.35814 3.71444 1.18909C4.22604 1.02004 4.76561 0.963456 5.29917 1.0229C5.83273 1.08235 6.34873 1.25654 6.81466 1.5345C7.2806 1.81246 7.68639 2.18817 8.00648 2.63798C8.32795 2.19144 8.73421 1.81901 9.19983 1.544C9.66545 1.26899 10.1804 1.09731 10.7125 1.03973C11.2445 0.982136 11.7823 1.03987 12.292 1.20931C12.8017 1.37876 13.2724 1.65626 13.6747 2.02446C14.0771 2.39266 14.4023 2.84362 14.63 3.34913C14.8578 3.85464 14.9832 4.40381 14.9984 4.96227C15.0136 5.52073 14.9183 6.07646 14.7184 6.59467C14.5186 7.11289 14.2184 7.58243 13.8368 7.97392" stroke="white" stroke-linecap="round" stroke-linejoin="round"/>
</svg>
