<svg width="22" height="28" viewBox="0 0 22 28" fill="none" xmlns="http://www.w3.org/2000/svg">
<path d="M13.8564 1V6.77778C13.8564 7.16087 14.007 7.52827 14.2749 7.79915C14.5428 8.07004 14.9061 8.22222 15.285 8.22222H20.9993" stroke="#3366FF" stroke-linecap="round" stroke-linejoin="round"/>
<path d="M18.1429 27H3.85714C3.09938 27 2.37266 26.6956 1.83684 26.1539C1.30102 25.6121 1 24.8773 1 24.1111V3.88889C1 3.12271 1.30102 2.38791 1.83684 1.84614C2.37266 1.30436 3.09938 1 3.85714 1H13.8571L21 8.22222V24.1111C21 24.8773 20.699 25.6121 20.1632 26.1539C19.6273 26.6956 18.9006 27 18.1429 27Z" stroke="#3366FF" stroke-linecap="round" stroke-linejoin="round"/>
</svg>
