<svg width="16" height="18" viewBox="0 0 16 18" fill="none" xmlns="http://www.w3.org/2000/svg">
<path d="M10 1V4.55556C10 4.7913 10.1054 5.0174 10.2929 5.18409C10.4804 5.35079 10.7348 5.44444 11 5.44444H15" stroke="#3366FF" stroke-width="2" stroke-linecap="round" stroke-linejoin="round"/>
<path d="M13 17H3C2.46957 17 1.96086 16.8127 1.58579 16.4793C1.21071 16.1459 1 15.6937 1 15.2222V2.77778C1 2.30628 1.21071 1.8541 1.58579 1.5207C1.96086 1.1873 2.46957 1 3 1H10L15 5.44444V15.2222C15 15.6937 14.7893 16.1459 14.4142 16.4793C14.0391 16.8127 13.5304 17 13 17Z" stroke="#3366FF" stroke-width="2" stroke-linecap="round" stroke-linejoin="round"/>
<path d="M8 7V10.5556" stroke="#3366FF" stroke-width="2" stroke-linecap="round" stroke-linejoin="round"/>
<path d="M8 14H8.01" stroke="#3366FF" stroke-width="2" stroke-linecap="round" stroke-linejoin="round"/>
</svg>
