<svg width="66" height="57" viewBox="0 0 66 57" fill="none" xmlns="http://www.w3.org/2000/svg">
<path fill-rule="evenodd" clip-rule="evenodd" d="M23.6129 20.8553L27.5553 11.7751C28.1108 10.4958 29.1495 9.49044 30.4431 8.98025C31.7367 8.47006 33.1791 8.4968 34.453 9.05459C34.7376 9.17922 35.0086 9.32808 35.2636 9.49861C35.4426 9.25169 35.6432 9.02031 35.8632 8.80734C36.3587 8.3278 36.9434 7.95097 37.5839 7.69835C38.2244 7.44573 38.9082 7.32227 39.5962 7.33503C40.2843 7.34779 40.963 7.49651 41.5938 7.7727C42.2246 8.04889 42.7951 8.44714 43.2726 8.94471C43.7501 9.44229 44.1253 10.0294 44.3769 10.6727C44.6285 11.3159 44.7514 12.0025 44.7387 12.6935C44.7331 13.0003 44.7007 13.3053 44.6424 13.6051C44.9396 13.6766 45.2319 13.7745 45.5158 13.8989C46.7897 14.4567 47.7908 15.4998 48.2989 16.7988C48.6663 17.7382 48.7541 18.7558 48.5645 19.731C48.8633 19.8026 49.1573 19.901 49.4428 20.026C50.7167 20.5838 51.7178 21.6269 52.2259 22.9259C52.7339 24.225 52.7073 25.6735 52.1519 26.9528L45.3171 42.6945C43.802 46.1841 40.9686 48.9263 37.4401 50.318C33.9116 51.7096 29.9771 51.6367 26.5022 50.1152L22.8138 48.5002C22.7289 48.4631 22.6476 48.4212 22.5698 48.3751C20.6606 47.4266 18.9838 46.06 17.6649 44.3727C16.2033 42.5028 15.227 40.2977 14.8237 37.9553L14.8233 37.9529C14.7821 37.7119 14.7415 37.4708 14.7015 37.2295L16.8933 36.8612L14.7012 37.2278L14.7015 37.2295C14.4958 35.9973 14.0026 31.4769 13.2282 23.8254C13.0902 22.462 13.4873 21.0983 14.3351 20.0244C15.1827 18.9506 16.4139 18.2512 17.767 18.0749C19.0883 17.9026 20.4299 18.1783 21.5773 18.8586C22.4105 19.3527 23.107 20.0394 23.6129 20.8553ZM39.5142 11.7976C39.6186 11.7995 39.7217 11.8221 39.8175 11.864C39.9132 11.906 39.9998 11.9664 40.0723 12.042C40.1448 12.1175 40.2018 12.2066 40.24 12.3043C40.2781 12.4019 40.2968 12.5062 40.2949 12.6111C40.293 12.716 40.2705 12.8194 40.2287 12.9156L38.6822 16.4775C38.6602 16.5244 38.6388 16.5717 38.6181 16.6193C38.6045 16.6508 38.5916 16.6823 38.5795 16.714L33.394 28.6574C32.9034 29.7871 33.4178 31.1024 34.5429 31.595C35.6679 32.0876 36.9776 31.571 37.4681 30.4412L42.7185 18.3486C42.8072 18.1804 42.9531 18.049 43.1307 17.9789C43.3271 17.9015 43.546 17.9055 43.7394 17.9902C43.9328 18.0749 44.0848 18.2332 44.1619 18.4305C44.2391 18.6277 44.235 18.8476 44.1507 19.0418L38.9241 31.0796C38.4336 32.2094 38.948 33.5246 40.073 34.0172C41.1981 34.5098 42.5078 33.9932 42.9983 32.8634L46.5728 24.6307C46.589 24.5978 46.6045 24.5643 46.6193 24.5303C46.7036 24.3361 46.8613 24.1835 47.0577 24.106C47.2541 24.0286 47.473 24.0326 47.6664 24.1173C47.8598 24.202 48.0118 24.3604 48.0889 24.5576C48.1661 24.7548 48.162 24.9747 48.0777 25.1689L41.243 40.9106C40.199 43.3151 38.2466 45.2047 35.8153 46.1636C33.384 47.1225 30.673 47.0722 28.2786 46.0238L24.9704 44.5754C23.4764 43.9209 22.1675 42.9044 21.1611 41.6168C20.1541 40.3286 19.4815 38.8095 19.2035 37.1959C19.1635 36.9622 19.1242 36.7285 19.0854 36.4947L19.085 36.4921C18.9101 35.4452 18.4346 31.1266 17.65 23.3741C17.6291 23.1671 17.6893 22.9601 17.818 22.797C17.9467 22.634 18.1345 22.5277 18.3399 22.501C18.679 22.4567 19.0231 22.5275 19.3175 22.702C19.6119 22.8765 19.8399 23.1452 19.9651 23.4645L21.4821 27.3435C21.5654 27.5655 21.6838 27.7743 21.8336 27.9606C22.0442 28.2225 22.3169 28.4401 22.6421 28.5884C22.6525 28.5932 22.663 28.5978 22.6735 28.6024C22.7203 28.6229 22.7674 28.6416 22.8147 28.6587C22.9994 28.7251 23.1878 28.7654 23.3758 28.7812C23.7052 28.8093 24.0459 28.7637 24.3744 28.6341C24.9581 28.4039 25.3904 27.9531 25.6138 27.4142L31.6295 13.5589C31.7138 13.3647 31.8715 13.2121 32.0679 13.1346C32.2642 13.0572 32.4832 13.0613 32.6766 13.1459C32.87 13.2306 33.022 13.389 33.0991 13.5862C33.1749 13.7798 33.1723 13.9954 33.0924 14.187L33.088 14.1971L33.0804 14.2148L27.8613 26.2353C27.3708 27.3651 27.8852 28.6803 29.0102 29.1729C30.1353 29.6655 31.4449 29.149 31.9355 28.0192L37.162 15.9814L37.1736 15.9544L38.7703 12.277C38.8121 12.1809 38.8723 12.0939 38.9475 12.0211C39.0227 11.9483 39.1115 11.8911 39.2087 11.8527C39.3059 11.8144 39.4097 11.7957 39.5142 11.7976Z" fill="#D6EFFF"/>
<path d="M4.48288 22.7913C4.40788 20.2318 4.41706 18.6607 4.79026 17.1607C5.15083 15.7113 5.89824 14.1671 7.60077 11.8696C10.0544 8.55855 13.4469 6.0332 17.3817 5.23446C18.5847 4.99026 19.3628 3.81296 19.1196 2.60488C18.8765 1.3968 17.7041 0.615419 16.5011 0.859618C11.2525 1.92504 6.981 5.2297 4.03514 9.20503C2.13802 11.7651 1.03303 13.8488 0.478218 16.0788C-0.063965 18.2581 -0.0331588 20.418 0.0402349 22.9226C0.076336 24.1546 1.10012 25.1239 2.32693 25.0877C3.55373 25.0514 4.51898 24.0233 4.48288 22.7913Z" fill="#D6EFFF"/>
<path d="M12.5098 16.5245C10.1335 19.7313 9.21681 22.5631 9.83646 26.5313C10.0266 27.749 9.19779 28.8909 7.98527 29.0818C6.77276 29.2727 5.63568 28.4404 5.44555 27.2228C4.61028 21.8738 5.98239 17.8568 8.94417 13.8599C12.0099 9.72285 15.9207 7.75045 20.4872 6.69341C21.6831 6.41658 22.8761 7.16577 23.1518 8.36679C23.4275 9.56781 22.6814 10.7658 21.4855 11.0427C17.6435 11.932 14.7822 13.458 12.5098 16.5245Z" fill="#D6EFFF"/>
<path d="M60.9955 33.2259C61.4411 35.7471 61.6601 37.3027 61.5086 38.8414C61.3622 40.3281 60.8468 41.9651 59.4959 44.4873C57.549 48.1221 54.5592 51.117 50.7823 52.483C49.6276 52.9007 49.0286 54.1793 49.4445 55.3389C49.8604 56.4985 51.1337 57.1 52.2884 56.6823C57.3263 54.8601 61.0726 50.9656 63.4101 46.6016C64.9155 43.7912 65.7063 41.5681 65.9315 39.2806C66.1517 37.0452 65.8078 34.9129 65.3717 32.4458C65.1572 31.2323 64.0036 30.4231 62.7952 30.6385C61.5868 30.854 60.781 32.0124 60.9955 33.2259Z" fill="#D6EFFF"/>
<path d="M54.2303 32.6189C54.7291 33.6234 54.9358 35.1491 54.7019 37.0209C54.4722 38.8597 53.8399 40.8311 52.9045 42.5775C51.537 45.1306 48.7834 48.1517 45.0112 49.2492C43.8324 49.5922 43.1536 50.8299 43.4951 52.0138C43.8367 53.1976 45.0692 53.8792 46.248 53.5363C51.4964 52.0093 55.0718 47.9533 56.8188 44.6918C58.0012 42.4841 58.8108 39.9866 59.1119 37.5764C59.4089 35.1993 59.2352 32.6961 58.2076 30.6269C57.6599 29.524 56.3254 29.0758 55.2271 29.6258C54.1288 30.1759 53.6825 31.516 54.2303 32.6189Z" fill="#D6EFFF"/>
</svg>
