<svg width="26" height="18" viewBox="0 0 26 18" fill="none" xmlns="http://www.w3.org/2000/svg">
<path d="M8.56641 18H0.773438V15.9375L2.85938 14.9766V3.89062L0.773438 2.92969V0.867188H8.56641V2.92969L6.48047 3.89062V14.9766L8.56641 15.9375V18ZM25.7227 9.26953C25.7227 12.0898 24.918 14.25 23.3086 15.75C21.707 17.25 19.3906 18 16.3594 18H11.5078V0.867188H16.8867C19.6836 0.867188 21.8555 1.60547 23.4023 3.08203C24.9492 4.55859 25.7227 6.62109 25.7227 9.26953ZM21.9492 9.36328C21.9492 5.68359 20.3242 3.84375 17.0742 3.84375H15.1406V15H16.6992C20.1992 15 21.9492 13.1211 21.9492 9.36328Z" fill="#3366FF"/>
</svg>
