<svg width="136" height="136" viewBox="0 0 136 136" fill="none" xmlns="http://www.w3.org/2000/svg">
<mask id="mask0_3104_1384" style="mask-type:alpha" maskUnits="userSpaceOnUse" x="0" y="0" width="136" height="136">
<rect width="136" height="136" transform="matrix(-1 0 0 1 136 0)" fill="#D9D9D9"/>
</mask>
<g mask="url(#mask0_3104_1384)">
<path d="M136 20L136 136L25.6167 136C23.9797 133.921 23 131.292 23 128.431C23 122.104 27.7816 116.903 33.9028 116.294C35.796 111.801 38.7994 107.901 42.5596 104.929C32.8983 100.347 26.2084 90.4544 26.2084 78.9837C26.2084 63.1526 38.9468 50.3187 54.6601 50.3187C55.0383 50.3187 55.4129 50.3326 55.7876 50.3474C59.4301 44.7482 65.7103 41.0466 72.8516 41.0466C77.3948 41.0466 81.5901 42.5447 84.9796 45.076C89.9379 40.8426 96.3503 38.285 103.358 38.285C104.8 38.285 106.215 38.395 107.599 38.6034C107.597 38.492 107.591 38.382 107.591 38.2702C107.591 29.7686 114.431 22.877 122.869 22.877C125.791 22.877 128.52 23.7043 130.841 25.1372C131.588 22.6659 133.537 20.7272 136 20Z" fill="#A4DCFF"/>
<path d="M117.044 17.2638L113.074 20.9096H117.522L117.044 17.2638Z" fill="#FF9292"/>
<path d="M131.569 84.2326C131.525 82.0446 131.975 79.5221 132.311 78.7651C132.646 78.0082 132.646 78.008 132.646 78.008C132.646 78.008 127.873 77.5033 127.573 77.5033C127.273 77.5033 127.273 77.5033 127.273 77.5033C127.273 77.5033 127.438 83.1389 127.273 84.2326C127.107 85.3261 127.107 85.3261 127.107 85.3261C127.107 85.3261 130.249 85.242 131.076 85.3261C131.903 85.4102 131.903 85.4102 131.903 85.4102C131.903 85.4102 131.577 84.6532 131.569 84.2326Z" fill="#F3DF73"/>
<path d="M82.1693 98.7906L78.0684 94.7114L84.6604 91.7562L82.1693 98.7906Z" fill="#02A5AB"/>
<path d="M75.3986 73.912C75.4391 71.9437 75.0273 69.6744 74.7197 68.9934C74.4121 68.3125 74.4121 68.3125 74.4121 68.3125C74.4121 68.3125 78.7813 67.8585 79.056 67.8585C79.3307 67.8585 79.3307 67.8585 79.3307 67.8585C79.3307 67.8585 79.1792 72.9286 79.3307 73.9122C79.4819 74.8961 79.4819 74.8961 79.4819 74.8961C79.4819 74.8961 76.6064 74.8204 75.8497 74.8961C75.0931 74.9719 75.0931 74.9719 75.0931 74.9719C75.0931 74.9719 75.3909 74.2907 75.3986 73.912Z" fill="#02A5AB"/>
<path d="M65.0164 111.457L61.9237 111.054C61.9237 111.054 61.224 114.707 61.9806 116.049C62.7371 117.391 62.7371 117.391 62.7371 117.391L65.9135 117.008C65.9135 117.008 64.5127 116.019 64.5583 114.605C64.6039 113.19 65.0164 111.457 65.0164 111.457Z" fill="#00D1D8"/>
<path d="M16.2632 106.693C15.975 107.573 14.9958 108.393 14.3044 108.862C13.6133 109.331 13.1523 109.331 13.1523 109.331C13.1523 109.331 14.8804 109.976 15.9176 111.91C16.9545 113.844 16.6087 114.899 16.6087 114.899C16.6087 114.899 17.9912 111.943 17.761 109.905C17.5306 107.866 16.2632 106.693 16.2632 106.693Z" fill="#FFB056"/>
<path d="M46.3178 78.1939L44.267 77.8386C44.267 77.8386 44.4852 78.549 44.267 79.1704C44.0488 79.7918 43.6836 80.0582 43.6836 80.0582L46.318 80.5096V78.1939H46.3178Z" fill="#FFB056"/>
<path d="M114.499 40.6635C112.529 41.3745 111.467 42.9227 111.467 42.9227L111.322 42.9903C111.322 42.9903 111.467 42.9227 111.7 42.8379C112.409 42.5806 113.94 42.1639 114.753 42.9903C115.833 44.0891 115.833 44.0891 115.833 44.0891L119.009 41.6976C119.009 41.6976 116.468 39.9524 114.499 40.6635Z" fill="#00D1D8"/>
<path d="M43.604 101.776L40.5495 100.354L38.7871 102.83L41.1954 104.967L43.604 101.776Z" fill="#00D1D8"/>
<path d="M90.5346 38.6468L89.5748 36.2056L84.9492 38.0254L86.5203 39.8012L90.5346 38.6468Z" fill="#FFB056"/>
<path d="M56.832 77.7617L60.6912 75.228C60.6912 75.228 61.7045 77.3719 62.952 78.0347C64.1995 78.6974 65.2908 78.9702 65.2908 78.9702L62.3283 81.6597C62.3283 81.6595 57.4558 79.0478 56.832 77.7617Z" fill="#FF9292"/>
<path d="M30.955 59.7196C30.847 58.5312 30.2529 57.8479 30.2529 57.8479C30.1179 58.3602 29.6591 58.8385 29.335 59.1121C29.011 59.3854 28.7949 59.3854 28.7949 59.3854C28.7949 59.3854 29.6049 59.7613 30.0908 60.8885C30.5767 62.016 30.4146 62.631 30.4146 62.631C30.4146 62.631 31.0629 60.9078 30.955 59.7196Z" fill="#FF9292"/>
<path d="M58.5109 54.7759L58.1839 53.2195L56.916 53.4782L57.7135 55.7038L58.5109 54.7759Z" fill="#FF9292"/>
<path d="M135.438 24.6474L136.884 23.6978C136.884 23.6978 137.264 24.5012 137.731 24.7497C138.199 24.998 138.607 25.1004 138.607 25.1004L137.497 26.1084C137.497 26.1084 135.671 25.1296 135.438 24.6474Z" fill="#F3DF73"/>
<path d="M70.9967 122.322C71.6432 121.829 72.2794 121.318 72.8404 120.727C73 120.559 73.1531 120.385 73.302 120.206C73.809 118.779 73.9679 117.266 74.0744 115.751C74.3683 111.572 73.9832 107.371 75.6895 103.444C76.1863 102.3 76.7843 101.194 77.4169 100.109C77.3858 100.213 77.3536 100.317 77.3237 100.421C77.1324 101.09 76.9631 101.795 76.8422 102.512C76.6722 103.178 76.5458 103.858 76.477 104.556C76.1159 108.226 76.5606 112.071 75.6696 115.677C75.3678 116.898 74.7968 118.009 74.177 119.093C74.1786 119.252 72.9078 121.469 72.8561 121.357C72.2018 122.46 71.5049 123.534 70.5884 124.445C68.1553 126.864 65.0641 128.464 61.6812 128.982C58.3285 129.496 54.9053 129.168 51.595 128.521C48.4173 127.901 44.9507 126.765 41.7248 127.835C41.1893 128.013 40.6712 128.266 40.2044 128.588C39.9355 130.203 40.26 131.739 40.5804 133.322C40.9155 134.978 41.1277 136.848 41.124 138.538C41.1203 140.192 40.509 141.595 39.7067 143.005C39.6866 143.04 39.6666 143.076 39.6465 143.112C39.7493 143.114 38.8236 144.724 38.5111 145.107C37.8371 146.249 37.1034 147.356 36.182 148.304C34.916 149.607 33.3028 150.389 31.517 150.692C29.6727 151.004 27.792 150.882 26.1572 149.915C25.2588 149.383 24.4139 148.718 23.6268 148.034C22.9276 147.426 22.0055 146.85 21.7262 145.93C21.6407 145.649 22.576 144.433 22.7305 144.168C22.9714 143.755 23.2125 143.342 23.4582 142.932C23.5041 142.855 23.7887 142.487 23.77 142.426C24.0194 143.247 24.6724 143.616 25.2727 144.173C25.9599 144.811 26.7071 145.402 27.4754 145.939C28.9857 146.996 30.5443 147.421 32.38 147.319C33.9502 147.231 35.5321 146.807 36.8597 145.947C37.4943 145.536 38.0435 145.014 38.5479 144.454C38.6186 144.375 38.6862 144.296 38.7531 144.215C39.287 142.551 39.019 140.842 38.8203 139.145C38.723 138.316 38.6774 137.479 38.4986 136.661C38.3031 135.768 38.1049 134.91 38.0692 133.991C38.0092 132.448 38.2862 131.026 39.0373 129.67C39.0737 129.604 39.1101 129.537 39.1464 129.47C38.9479 129.442 40.0546 127.554 40.4977 127.012C40.9299 126.33 41.4237 125.704 42.0319 125.242C44.6848 123.225 48.6311 123.887 51.6293 124.585C54.9157 125.349 58.298 125.884 61.6812 125.69C65.1679 125.489 68.2141 124.446 70.9967 122.322Z" fill="#F3DF73"/>
<path d="M39.1457 129.47C39.1093 129.537 39.073 129.605 39.0366 129.671C38.2855 131.026 38.0085 132.448 38.0685 133.991C38.1041 134.91 38.3024 135.768 38.4979 136.662C38.6767 137.479 38.7223 138.316 38.8196 139.146C39.0185 140.842 39.2865 142.551 38.7524 144.216L38.5099 145.107C38.8224 144.725 39.7481 143.114 39.6453 143.112C39.6654 143.077 39.6854 143.041 39.7055 143.005C40.5078 141.595 41.1191 140.192 41.1228 138.539C41.1265 136.848 40.9143 134.979 40.5792 133.322C40.2588 131.74 39.9346 130.203 40.2033 128.589L39.1457 129.47Z" fill="#C1A71B"/>
<path d="M74.1797 119.093C74.7998 118.009 75.3707 116.898 75.6723 115.678C76.5633 112.071 76.1186 108.226 76.4797 104.556C76.5484 103.858 76.6747 103.179 76.8449 102.512C76.9658 101.795 77.1351 101.09 77.3264 100.421C77.3563 100.317 77.3885 100.213 77.4196 100.109C76.787 101.194 76.189 102.3 75.6922 103.444C73.9861 107.371 74.371 111.572 74.0771 115.751C73.9708 117.266 73.8117 118.779 73.3047 120.207L74.1797 119.093Z" fill="#C1A71B"/>
<path d="M107.35 55.3945L111.311 50.4504L115.302 57.2824L107.35 55.3945Z" fill="#FF5959"/>
<path d="M61.334 91.7562L66.7563 93.2061L61.334 100.957V91.7562Z" fill="#FFB056"/>
<path d="M89.6072 89.212L86.8633 80.8357L94.1895 87.6764L89.6072 89.212Z" fill="#FF9292"/>
<path d="M109.338 71.9035L110.921 67.8027L116.502 72.6748L109.338 71.9035Z" fill="#FFB056"/>
<path d="M100.494 92.9131L103.049 96.3753L103.428 92.8455L100.494 92.9131Z" fill="#F3DF73"/>
<path d="M41.2148 63.0939L48.788 59.6771L43.1162 67.2331L41.2148 63.0939Z" fill="#F3DF73"/>
<path d="M30.1139 89.2241L27.127 91.9674H30.4731L30.1139 89.2241Z" fill="#02A5AB"/>
<path d="M32.2773 117.196L33.6983 113.516L38.7058 117.888L32.2773 117.196Z" fill="#F3DF73"/>
<path d="M20.584 133.134L17.4277 129.995L22.5013 127.72L20.584 133.134Z" fill="#FF5959"/>
<path d="M120.343 85.3179C121.302 85.3179 122.08 84.6271 122.08 83.7751C122.08 82.923 121.302 82.2323 120.343 82.2323C119.383 82.2323 118.605 82.923 118.605 83.7751C118.605 84.6271 119.383 85.3179 120.343 85.3179Z" fill="#02A5AB"/>
<path d="M85.1583 15.6253C86.1098 15.6253 86.8811 14.9404 86.8811 14.0955C86.8811 13.2506 86.1098 12.5657 85.1583 12.5657C84.2069 12.5657 83.4355 13.2506 83.4355 14.0955C83.4355 14.9404 84.2069 15.6253 85.1583 15.6253Z" fill="#FF5959"/>
<path d="M69.1017 61.7691C70.0531 61.7691 70.8244 61.0842 70.8244 60.2393C70.8244 59.3944 70.0531 58.7095 69.1017 58.7095C68.1502 58.7095 67.3789 59.3944 67.3789 60.2393C67.3789 61.0842 68.1502 61.7691 69.1017 61.7691Z" fill="#F3DF73"/>
<path d="M103.248 13.1224C102.902 13.43 102.34 13.43 101.994 13.1224C101.648 12.8151 101.648 12.3164 101.994 12.0088C102.34 11.7015 102.902 11.7015 103.248 12.0088C103.594 12.3164 103.594 12.8151 103.248 13.1224Z" fill="#F3DF73"/>
<path d="M42.8637 93.0585C43.5424 93.0585 44.0927 92.57 44.0927 91.9674C44.0927 91.3647 43.5424 90.8762 42.8637 90.8762C42.185 90.8762 41.6348 91.3647 41.6348 91.9674C41.6348 92.57 42.185 93.0585 42.8637 93.0585Z" fill="#F3DF73"/>
<path d="M108.489 33.4219C109.616 33.4219 110.529 32.6109 110.529 31.6104C110.529 30.61 109.616 29.799 108.489 29.799C107.362 29.799 106.449 30.61 106.449 31.6104C106.449 32.6109 107.362 33.4219 108.489 33.4219Z" fill="#02A5AB"/>
<path d="M64.0437 39.8147C65.1703 39.8147 66.0836 39.0037 66.0836 38.0032C66.0836 37.0028 65.1703 36.1918 64.0437 36.1918C62.9172 36.1918 62.0039 37.0028 62.0039 38.0032C62.0039 39.0037 62.9172 39.8147 64.0437 39.8147Z" fill="#FF5959"/>
<path d="M21.7176 82.3215C22.8441 82.3215 23.7574 81.5105 23.7574 80.5101C23.7574 79.5096 22.8441 78.6986 21.7176 78.6986C20.591 78.6986 19.6777 79.5096 19.6777 80.5101C19.6777 81.5105 20.591 82.3215 21.7176 82.3215Z" fill="#02A5AB"/>
<path d="M24.2083 67.6302C23.9614 67.8495 23.561 67.8495 23.3141 67.6302C23.0672 67.4109 23.0672 67.0553 23.3141 66.8358C23.561 66.6164 23.9614 66.6164 24.2083 66.8358C24.4552 67.0553 24.4552 67.4109 24.2083 67.6302Z" fill="#00D1D8"/>
<path d="M8.85506 136.009C8.60816 136.228 8.2077 136.228 7.96057 136.009C7.71367 135.79 7.71367 135.434 7.96057 135.215C8.20747 134.995 8.60793 134.995 8.85506 135.215C9.10173 135.434 9.10173 135.789 8.85506 136.009Z" fill="#F3DF73"/>
<path d="M62.1383 26.553C61.8914 26.7721 61.4909 26.7721 61.2438 26.553C60.9969 26.3337 60.9969 25.9782 61.2438 25.7586C61.4907 25.539 61.8911 25.5392 62.1383 25.7586C62.3854 25.9779 62.3852 26.3337 62.1383 26.553Z" fill="#F3DF73"/>
<path d="M83.5634 48.9749C83.5634 48.9749 85.6186 49.4585 85.8326 49.3024C86.0466 49.1462 85.3617 51.3297 85.49 52.0576C85.6183 52.7854 85.6183 52.7854 85.6183 52.7854C85.6183 52.7854 83.8201 52.4 83.5632 52.0146C83.3066 51.6294 83.5634 48.9749 83.5634 48.9749Z" fill="#FF9292"/>
<path d="M100.682 23.5931L104.126 21.4768L104.657 23.247L99.457 25.9194L100.682 23.5931Z" fill="#F3DF73"/>
<path d="M79.3012 31.6102L80.8729 31.7388L80.2767 34.4989L78.8164 34.1138L79.3012 31.6102Z" fill="#FF9292"/>
<path d="M128.147 10.9045L125.093 9.48242L123.33 11.9582L125.739 14.0955L128.147 10.9045Z" fill="#00D1D8"/>
<path d="M125.106 36.239L119.354 33.6438L123.662 39.383L125.106 36.239Z" fill="#FF9292"/>
<path d="M125.629 59.046L134.129 55.2112L127.763 63.692L125.629 59.046Z" fill="#F3DF73"/>
<path d="M100.049 82.079L104.579 76.4255L109.142 84.2379L100.049 82.079Z" fill="#00D1D8"/>
<path d="M43.375 39.1203L46.8057 37.5396C46.8057 37.5396 46.7047 39.7939 47.4111 40.7351C48.1175 41.6762 49.261 42.1304 49.261 42.1304L46.5368 43.8754C46.5365 43.8756 43.476 41.8448 43.375 39.1203Z" fill="#02A5AB"/>
<path d="M38.6621 57.5883C40.3925 56.2774 42.3927 55.3898 44.5609 55.0079C47.262 54.5319 50.235 54.774 52.9134 55.2939C55.9309 55.8797 58.6706 57.2999 61.3495 58.7561C63.7398 60.0552 66.1789 61.7703 68.8571 62.4071C70.8603 62.8833 73.3879 62.6544 75.3001 61.7419C75.9514 62.449 76.6639 63.1063 77.4419 63.715C78.5965 64.6183 79.7849 65.4665 81.0421 66.2211C82.1411 66.8809 83.213 67.6265 84.3979 68.127C85.6255 68.6449 86.9559 68.8844 88.2787 68.9884C89.3443 69.0722 90.5165 69.1762 91.5528 68.8568C92.9823 68.4163 94.0757 67.3854 95.014 66.2489C95.6204 66.5333 96.2495 66.7647 96.876 66.9442C98.1429 67.3069 99.4476 67.4834 100.764 67.5125C101.837 67.5364 103.085 67.664 104.066 67.1452C104.448 66.9435 104.785 66.1903 105.034 65.85C105.258 65.5429 105.646 64.7098 105.975 64.5358C105.2 64.9458 104.326 64.9029 103.475 64.9076C102.577 64.9124 101.68 64.8846 100.789 64.7591C99.4775 64.5743 98.1658 64.225 96.9596 63.6613C98.0287 62.1581 98.9519 60.6012 99.2211 58.6994C99.3552 57.7516 99.5967 56.6632 99.2141 55.7435C98.8086 54.7686 97.6723 54.1416 96.8197 53.6018C95.9004 53.0197 94.7525 52.8238 93.7997 53.4593C92.8512 54.0916 92.1862 55.3606 91.544 56.2628C91.5037 56.3195 91.468 56.3797 91.4302 56.4383C91.3781 56.5094 91.326 56.5806 91.2737 56.6517C91.2929 56.6294 91.3124 56.6118 91.3316 56.5903C90.2893 58.3455 90.3118 60.8305 91.1592 62.669C91.8106 64.0821 92.9705 65.1355 94.3111 65.8894C93.0622 66.5284 91.7205 66.4865 90.3419 66.3899C88.6926 66.2743 87.0634 65.9403 85.5864 65.1753C82.8119 63.7384 79.9632 61.9091 77.7008 59.6837C77.8676 59.466 78.0313 59.2425 78.1978 59.0162C78.8922 58.0729 79.686 57.1429 80.0542 56.0126C80.4116 54.9162 80.4582 53.7097 80.1193 52.6016C79.8013 51.5628 79.0967 50.981 78.1103 50.5866C77.2128 50.2276 76.2122 50.1127 75.3349 50.5933C74.599 50.9963 74.0922 51.75 73.6105 52.4388C72.895 53.3326 72.5439 53.8067 72.5596 53.8575C72.2062 54.3709 71.9253 54.9217 71.9185 55.5564C71.9095 56.4043 72.2569 57.242 72.6472 57.9779C73.015 58.6711 73.4189 59.3298 73.8597 59.9561C73.6614 59.976 73.4627 59.9936 73.2642 60.0036C71.0365 60.1145 69.0972 59.305 67.1551 58.2915C63.1642 56.2086 59.3127 53.5566 54.8221 52.6846C51.3094 52.0027 47.4528 51.8262 44.0446 53.0607C42.1025 54.3962 40.2545 55.8688 38.6621 57.5883ZM96.6914 63.5313C96.4306 63.4007 96.1746 63.2603 95.9257 63.1077C94.4493 62.2039 93.1914 60.8497 92.7458 59.1443C92.4896 58.1643 92.3518 56.9215 92.5279 55.7977C93.4842 55.5249 94.5147 55.9429 95.4733 56.5951C96.1343 57.0447 96.8994 57.501 97.2565 58.2493C97.5583 58.8814 97.5222 59.5955 97.4476 60.2737C97.3218 61.4148 97.1115 62.4969 96.6914 63.5313ZM74.4508 55.1647C74.1175 54.4965 73.8467 53.7544 73.8416 53.0227C74.1603 52.9146 74.4969 52.8664 74.8341 52.877C75.7423 52.9062 76.8121 53.3143 77.4766 53.9411C78.1914 54.6155 78.4146 55.7125 78.4387 56.6579C78.4512 57.142 78.3987 57.6235 78.2905 58.0955C78.2611 58.2241 78.2231 58.348 78.1828 58.4705C77.84 58.7059 77.5044 58.924 77.1424 59.1121C77.0662 59.0313 76.9886 58.9516 76.9142 58.8698C75.9384 57.7979 75.0979 56.462 74.4508 55.1647Z" fill="#FFB056"/>
<path d="M96.9641 63.6639C98.0333 62.1609 98.9565 60.6038 99.2256 58.7022C99.3597 57.7542 99.6013 56.6661 99.2187 55.7461C98.8131 54.7715 97.6768 54.1445 96.8242 53.6046C95.905 53.0226 94.7571 52.8266 93.8042 53.4622C93.8042 53.4622 93.4508 53.6896 93.1916 53.9812C92.9322 54.2726 92.6436 54.8753 92.5459 55.2118C92.4481 55.5481 92.5287 55.7978 92.5287 55.7978C92.5287 55.7978 93.038 55.4904 93.8693 55.8128C94.7006 56.1352 96.1611 56.885 96.6496 57.4594C97.1383 58.0335 97.2896 58.4088 97.3831 59.1953C97.4767 59.9821 97.23 61.6745 97.0973 62.2897C97.0533 62.4935 97.0621 62.4938 96.925 62.8887C96.7879 63.2836 96.692 63.5309 96.692 63.5309L96.9641 63.6639ZM77.7051 59.6864C77.8719 59.4689 78.0356 59.2451 78.2022 59.0188C78.8966 58.0755 79.6903 57.1455 80.0586 56.0153C80.4159 54.9186 80.4625 53.7121 80.1236 52.6043C79.8056 51.5655 79.1011 50.9837 78.1146 50.589C77.2171 50.2302 76.2165 50.1153 75.339 50.5957C75.339 50.5957 74.9813 50.7578 74.6605 51.1055C74.3398 51.4529 73.9641 51.8138 73.8601 52.0831C73.7561 52.3523 73.8418 53.0226 73.8418 53.0226C73.8418 53.0226 74.56 52.6775 75.4473 52.9494C76.3347 53.2213 77.2558 53.4902 77.6558 54.1315C78.0558 54.7731 78.3048 54.9223 78.3724 55.8883C78.44 56.8544 78.4011 57.6162 78.2904 58.0952C78.1799 58.5741 78.2304 58.6408 78.0509 59.0547C77.8714 59.4686 77.7051 59.6864 77.7051 59.6864Z" fill="#C69C30"/>
<path d="M125.029 97.2677L124.33 94.5977L121.625 95.0417L123.327 98.8596L125.029 97.2677Z" fill="#FFB056"/>
<path d="M137.031 132.948C137.96 132.948 138.713 132.279 138.713 131.454C138.713 130.63 137.96 129.961 137.031 129.961C136.102 129.961 135.35 130.63 135.35 131.454C135.35 132.279 136.102 132.948 137.031 132.948Z" fill="#FF9292"/>
<path d="M11.1482 91.6259C10.7966 91.4656 10.3652 91.6567 10.1845 92.0528C10.0039 92.4489 10.1426 92.8999 10.4942 93.0603C10.8458 93.2206 11.2773 93.0295 11.4579 92.6334C11.6385 92.2373 11.4999 91.7863 11.1482 91.6259Z" fill="#FF9292"/>
<path d="M36.498 11.6479L36.8207 9.7218L39.6158 10.4653C39.6158 10.4653 39.0245 11.2715 39.0245 11.9703C39.0245 12.6693 39.0245 12.6693 39.0245 12.6693L36.498 12.2422V11.6479Z" fill="#FF9292"/>
<path d="M69.4512 6L67.957 6.12415L68.5238 8.79328L69.9119 8.42084L69.4512 6Z" fill="#00D1D8"/>
<path d="M46.6868 21.1298H45.0488L45.3217 21.8237H47.3553L46.6868 21.1298Z" fill="#FFB056"/>
<path d="M15.0594 28.4588C13.8672 28.8891 13.224 29.8265 13.224 29.8265L13.1367 29.8672C13.1367 29.8672 13.224 29.8265 13.3656 29.7751C13.7947 29.6192 14.7217 29.3669 15.2134 29.8672C15.8672 30.5324 15.8672 30.5324 15.8672 30.5324L17.7901 29.0848C17.7899 29.0848 16.2515 28.0284 15.0594 28.4588Z" fill="#FFB056"/>
<path d="M6.69207 59.8368C6.72055 58.4557 6.4315 56.8636 6.21586 56.3858C6 55.9082 6 55.9082 6 55.9082C6 55.9082 9.06566 55.5897 9.25836 55.5897C9.45106 55.5897 9.45106 55.5897 9.45106 55.5897C9.45106 55.5897 9.34498 59.1469 9.45106 59.8371C9.55714 60.5271 9.55714 60.5271 9.55714 60.5271C9.55714 60.5271 7.53954 60.474 7.00868 60.5271C6.47782 60.5801 6.47782 60.5801 6.47782 60.5801C6.47782 60.5801 6.68674 60.1023 6.69207 59.8368Z" fill="#F3DF73"/>
<path d="M77.9094 79.5326C77.9094 79.5326 79.6169 81.1898 80.8222 81.7925C82.0275 82.3951 82.0275 82.3951 82.0275 82.3951C82.0275 82.3951 79.6674 82.8472 79.165 84.6047C78.6628 86.3622 79.4517 88.371 79.4517 88.371C79.4517 88.371 76.3539 86.1614 75.7005 84.705C75.0471 83.2489 77.9094 79.5326 77.9094 79.5326Z" fill="#F3DF73"/>
<path d="M81.4989 111.119C81.4989 111.119 80.7014 115.398 82.92 118.45C85.1387 121.501 85.9262 121.464 85.9262 121.464C85.9262 121.464 86.5522 120.912 87.267 120.189C87.9818 119.467 88.9661 118.955 88.9661 118.955C88.9661 118.955 87.1317 117.33 86.2354 114.919C85.3393 112.507 85.4664 111.175 85.4664 111.175L81.4989 111.119Z" fill="#FF5959"/>
<path d="M100.95 104.406C100.95 104.406 103.544 106.924 105.374 107.839C107.205 108.754 107.205 108.754 107.205 108.754C107.205 108.754 103.62 109.441 102.857 112.111C102.094 114.781 103.293 117.832 103.293 117.832C103.293 117.832 98.587 114.475 97.5946 112.263C96.6021 110.051 100.95 104.406 100.95 104.406Z" fill="#00D1D8"/>
<path d="M100.257 131.454L97.3945 131.692L98.4803 136.806L101.14 136.092L100.257 131.454Z" fill="#02A5AB"/>
<path d="M133.678 122.651L128.228 115.85L122.738 125.249L133.678 122.651Z" fill="#F3DF73"/>
<path d="M114.984 125.454C116.599 125.454 117.909 124.291 117.909 122.856C117.909 121.421 116.599 120.258 114.984 120.258C113.368 120.258 112.059 121.421 112.059 122.856C112.059 124.291 113.368 125.454 114.984 125.454Z" fill="#FFB056"/>
<path d="M115.133 101.876C115.133 101.876 113.455 103.533 112.27 104.136C111.086 104.739 111.086 104.739 111.086 104.739C111.086 104.739 113.406 105.19 113.899 106.948C114.392 108.706 113.617 110.714 113.617 110.714C113.617 110.714 116.662 108.505 117.304 107.048C117.947 105.592 115.133 101.876 115.133 101.876Z" fill="#FF9292"/>
<path d="M89.3659 128.071L85.4945 126.771L80.2324 130.174L84.9683 132.545L89.3659 128.071Z" fill="#F3DF73"/>
<path d="M138.06 110.869C138.06 110.869 133.757 110.827 131.263 108.08C128.77 105.332 128.969 104.571 128.969 104.571C128.969 104.571 129.633 104.066 130.479 103.508C131.325 102.949 132.024 102.087 132.024 102.087C132.024 102.087 133.217 104.187 135.364 105.523C137.511 106.858 138.826 106.989 138.826 106.989L138.06 110.869Z" fill="#FF5959"/>
</g>
</svg>
