<svg width="136" height="136" viewBox="0 0 136 136" fill="none" xmlns="http://www.w3.org/2000/svg">
<mask id="mask0_3360_931" style="mask-type:alpha" maskUnits="userSpaceOnUse" x="0" y="0" width="136" height="136">
<path d="M0 0H132C134.209 0 136 1.79086 136 4V132C136 134.209 134.209 136 132 136H0V0Z" fill="#D9D9D9"/>
</mask>
<g mask="url(#mask0_3360_931)">
<path d="M135.819 23.2248C132.499 22.1784 128.602 22.8182 125.522 24.7585C120.597 27.8611 117.272 33.3942 114.132 38.7307C103.697 32.2703 89.2179 36.4643 82.7237 47.828C75.7334 47.4937 69.3285 55.3096 70.0658 63.2739C63.3481 61.2181 55.6434 64.498 51.7307 71.0783C47.0554 69.7402 43.6162 72.7018 41.7656 75.2347C39.915 77.7677 39.2844 81.7982 41.145 84.321C37.1576 87.4076 31.9328 84.7808 28.4524 91.3928C27.062 94.0342 27.8753 101.467 29.6174 103.838C27.1861 104.341 24.7012 104.866 22.5562 106.27C20.4111 107.674 18.6352 110.151 18.561 112.978C18.4896 115.703 20.0232 118.235 22.0076 119.744C23.9919 121.252 26.3751 121.898 28.7235 122.355C35.1225 123.599 41.6987 123.641 48.1092 122.478C49.0512 128.052 54.9208 130.167 59.7952 131.213C62.0021 131.687 64.2095 132.161 66.4164 132.634C71.6435 133.756 76.8701 134.878 82.0972 136H135.819V23.2248Z" fill="#A4DCFF"/>
<path d="M84.9207 51.5059C83.8509 50.4672 82.2147 50.2909 80.9525 49.4968C78.9247 48.2205 78.2199 45.6385 76.754 43.7435C74.194 40.4348 69.5733 39.5372 65.3903 39.6059C65.3903 39.6059 61.222 34.6595 55.0153 35.7394C51.969 36.2692 49.2845 38.0658 47.1632 40.3157C46.1535 41.3869 45.2192 42.5487 44.034 43.4225C41.6444 45.1838 38.5505 45.5671 35.6384 46.1418C32.1094 46.8384 28.4553 48.0194 26.0964 50.7347C23.737 53.4499 23.296 58.088 26.0163 60.4415C27.511 61.7347 29.5769 62.091 31.5342 62.3672C44.0785 64.1353 56.8 64.6423 69.445 63.8784C75.1992 63.5308 81.7251 62.467 84.8708 57.6365C86.0807 55.7786 86.5116 53.0505 84.9207 51.5059Z" fill="#D6EFFF"/>
<path d="M65.5944 126.188C65.1383 124.2 64.5654 122.032 62.8985 120.857C61.5731 119.922 59.8421 119.835 58.2204 119.873C57.4016 119.892 56.5201 119.919 55.8391 119.463C55.3871 119.161 55.0876 118.685 54.7505 118.258C52.9256 115.943 49.6072 114.931 46.8009 115.835C44.8605 116.46 43.0131 117.915 41.0183 117.496C39.6293 117.204 38.603 116.066 37.3968 115.319C35.5141 114.152 33.1337 113.952 30.9813 114.473C28.8289 114.995 26.8858 116.184 25.196 117.616C23.7864 118.81 22.4684 120.3 22.1844 122.125C22.0617 122.914 22.1409 123.725 22.0155 124.514C21.928 125.064 21.7416 125.603 21.7462 126.16C21.7581 127.603 23.0889 128.762 24.4976 129.078C25.9058 129.394 27.3699 129.068 28.7762 128.743L31.1214 128.594C42.0304 127.286 53.106 129.196 64.0507 128.234C64.6085 128.185 65.2441 128.083 65.5431 127.609C65.8033 127.197 65.7034 126.663 65.5944 126.188Z" fill="#D6EFFF"/>
<path d="M7.87613 96.5339C8.75998 95.1426 10.3843 94.1974 12.0289 94.3096C13.498 94.4099 14.8618 95.2956 16.3318 95.2122C18.6688 95.0799 20.1507 92.6683 22.2445 91.6223C25.2743 90.1092 28.8674 91.686 31.8739 93.2453C33.6196 90.4445 36.0216 88.0553 38.832 86.3256C40.7261 85.1597 43.1071 84.2863 45.1358 85.1981C48.1189 86.5386 48.3877 90.5736 49.8907 93.4784C50.1747 94.0266 50.5928 94.5995 51.2055 94.6741C51.7194 94.7369 52.1965 94.4268 52.6966 94.2931C54.4249 93.831 55.9435 95.4568 56.9973 96.9025C58.4504 98.8965 59.908 100.898 61.0909 103.063C61.3918 103.613 61.6812 104.203 61.6702 104.83C61.6501 105.939 60.6605 106.838 59.5898 107.129C58.5195 107.42 57.3847 107.24 56.2902 107.06L53.8731 106.941C41.9521 107.062 30.0315 107.184 18.1105 107.305C15.714 107.329 13.2099 107.329 11.074 106.243C9.14512 105.262 7.68425 103.404 7.18599 101.298C6.80726 99.6942 6.99228 97.9251 7.87613 96.5339Z" fill="#D6EFFF"/>
<path d="M113.081 27.6767C112.46 24.7329 109.496 22.9593 106.73 21.7741C106.291 21.5854 105.802 21.3555 105.644 20.9035C105.564 20.6736 105.585 20.4227 105.579 20.1795C105.542 18.9059 104.683 17.7697 103.62 17.0668C102.557 16.3638 101.345 15.7735 100.073 15.6856C98.308 15.5633 94.453 16.4023 93.3406 17.8696C92.2282 19.3369 91.8454 21.2461 91.8596 23.087C91.8623 23.4704 91.8591 23.9072 91.5724 24.1614C91.2532 24.4444 90.7655 24.3473 90.3437 24.2846C88.8618 24.0643 87.2475 24.5516 86.2757 25.6914C85.3039 26.8317 85.1084 28.6288 85.9661 29.857C86.6851 30.8869 87.9834 31.3824 89.2378 31.4488C90.4917 31.5148 91.7323 31.2125 92.9591 30.9451C95.9019 30.3035 98.9327 29.8492 101.922 30.2192C105.051 30.6062 108.244 31.8816 111.256 30.9483C111.734 30.8004 112.208 30.5893 112.555 30.2279C113.181 29.5767 113.268 28.5614 113.081 27.6767Z" fill="#D6EFFF"/>
<path d="M135.819 52.3257C135.128 52.2369 134.666 52.2103 134.666 52.2103C132.191 49.4232 126.783 45.6996 124.558 48.6891C122.387 51.6063 121.715 55.8918 118.079 55.8112C116.248 55.7705 114.456 54.9452 112.641 55.1916C109.031 55.6821 107.266 59.9273 104.082 61.6987C101.63 63.0634 98.6287 62.807 95.8929 63.4334C93.157 64.0599 90.2792 66.4417 91.0014 69.1542C91.769 72.0352 95.6016 72.4922 98.5815 72.4135C107.114 72.1877 115.597 75.937 124.13 76.1412C128.009 76.2342 131.932 73.4402 135.818 72.9758V52.3257H135.819Z" fill="#D6EFFF"/>
<path d="M80.7626 133.055C83.3752 134.52 86.2283 135.432 89.1734 136H135.821V94.7088C135.625 94.647 135.428 94.5898 135.233 94.5412C133.412 94.0897 131.371 93.9559 129.766 94.9286C127.185 96.4935 126.873 100.033 125.531 102.737C123.875 106.076 120.226 108.324 116.5 108.303C113.518 108.286 110.693 106.951 107.724 106.672C101.999 106.133 96.1696 110.095 94.564 115.617C94.422 116.105 94.2819 116.644 93.867 116.938C93.5212 117.182 93.0669 117.193 92.6429 117.189C89.8003 117.161 86.6359 116.965 84.4739 118.811C82.7227 120.306 82.1305 122.763 80.6367 124.516C79.5069 125.841 77.7955 126.898 77.5707 128.625C77.3215 130.546 79.0737 132.109 80.7626 133.055Z" fill="#D6EFFF"/>
<path opacity="0.3" d="M84.2534 123.32C104.399 123.32 120.73 106.989 120.73 86.8438C120.73 66.6986 104.399 50.3677 84.2534 50.3677C64.1082 50.3677 47.7773 66.6986 47.7773 86.8438C47.7773 106.989 64.1082 123.32 84.2534 123.32Z" fill="#00AEEF"/>
<path d="M106.174 109.501C120.418 95.2561 120.418 72.1609 106.174 57.9162C91.929 43.6716 68.8338 43.6716 54.5891 57.9162C40.3445 72.1609 40.3445 95.2561 54.5891 109.501C68.8338 123.745 91.929 123.745 106.174 109.501Z" fill="#25ADDF"/>
<path d="M66.6738 88.525L70.5793 100.473C70.8568 101.323 71.9023 101.625 72.5911 101.057L84.2575 91.4257C84.2575 91.4257 71.8606 86.5906 71.8606 86.8544C71.8611 87.1177 66.6738 88.525 66.6738 88.525Z" fill="#A9D1DB"/>
<path d="M97.4527 65.5612C89.8341 68.5755 65.2433 78.6514 55.9359 82.4694C54.7072 82.9745 54.7814 84.7376 56.0462 85.1406L66.6735 88.5254L70.5671 100.436C70.7232 100.915 71.1189 101.223 71.5599 101.306C71.9185 101.373 72.4461 91.6605 72.4461 91.6605C72.4461 91.6605 83.6179 99.9449 88.916 103.858C90.222 104.822 92.0859 104.097 92.3955 102.504C93.9741 94.3689 97.9207 74.0279 99.2698 67.0729C99.4741 66.027 98.4437 65.1697 97.4527 65.5612Z" fill="white"/>
<path d="M71.5602 101.305C71.9188 101.372 72.4463 91.66 72.4463 91.66L90.7998 74.4217C90.9244 74.3044 90.776 74.1084 90.6299 74.1959L66.6738 88.5244L70.5674 100.435C70.7235 100.914 71.1187 101.223 71.5602 101.305Z" fill="#D1E2EA"/>
<path opacity="0.5" d="M80.3824 120.185C100.528 120.185 116.858 103.854 116.858 83.7085C116.858 63.5633 100.528 47.2324 80.3824 47.2324C60.2372 47.2324 43.9062 63.5633 43.9062 83.7085C43.9062 103.854 60.2372 120.185 80.3824 120.185Z" fill="url(#paint0_linear_3360_931)"/>
<path d="M36.8973 26.8531L37.7189 24L38.54 26.8531L40.4373 27.6746L38.54 28.4957L37.7189 31.3488L36.8973 28.4957L35 27.6746L36.8973 26.8531Z" fill="#F567F9"/>
<path d="M118.266 30.1011L119.088 27.2476L119.909 30.1011L121.806 30.9222L119.909 31.7433L119.088 34.5968L118.266 31.7433L116.369 30.9222L118.266 30.1011Z" fill="#F567F9"/>
<path d="M25.8939 71.6482L26.7154 68.7947L27.5365 71.6482L29.4338 72.4689L27.5365 73.29L26.7154 76.1435L25.8939 73.29L23.9961 72.4689L25.8939 71.6482Z" fill="#F567F9"/>
<path d="M94.5555 16.6858L95.3771 13.8328L96.1982 16.6858L98.0955 17.5069L96.1982 18.328L95.3771 21.1816L94.5555 18.328L92.6582 17.5069L94.5555 16.6858Z" fill="#F567F9"/>
<path d="M127.904 112.801C126.635 111.572 124.61 111.606 123.382 112.875C122.154 114.144 122.187 116.168 123.456 117.397C124.725 118.625 126.75 118.592 127.978 117.323C129.206 116.054 129.173 114.029 127.904 112.801Z" fill="#4DD987"/>
<path d="M18.6908 87.4249C17.4626 88.6939 17.496 90.7185 18.765 91.9468C20.034 93.175 22.0586 93.1416 23.2869 91.8726C24.5151 90.6036 24.4817 88.579 23.2127 87.3507C21.9437 86.1225 19.9191 86.1559 18.6908 87.4249Z" fill="#4DD987"/>
<path d="M93.732 47.4416C92.8289 48.3749 92.8532 49.8637 93.7865 50.7668C94.7198 51.6699 96.2087 51.6456 97.1117 50.7123C98.0148 49.779 97.9906 48.2901 97.0572 47.3871C96.1239 46.484 94.6356 46.5082 93.732 47.4416Z" fill="#4DD987"/>
<path d="M58.6305 130.419C57.7274 131.352 57.7517 132.841 58.685 133.744C59.6183 134.647 61.1071 134.623 62.0102 133.69C62.9133 132.756 62.889 131.267 61.9557 130.364C61.0224 129.461 59.534 129.486 58.6305 130.419Z" fill="#4DD987"/>
<path d="M121.727 49.9052C123.93 49.8815 125.697 48.0761 125.673 45.8729C125.649 43.6696 123.844 41.9028 121.641 41.9266C119.438 41.9504 117.672 43.7558 117.695 45.959C117.719 48.1623 119.524 49.929 121.727 49.9052Z" fill="#4DD987"/>
<path d="M54.1579 113.92C56.1247 112.927 56.914 110.527 55.9208 108.561C54.9276 106.594 52.528 105.805 50.5612 106.799C48.5944 107.792 47.8051 110.191 48.7984 112.158C49.7916 114.125 52.1911 114.914 54.1579 113.92Z" fill="#4DD987"/>
<path d="M27.2949 103.506L29.7473 111.008C29.9218 111.542 30.578 111.732 31.0103 111.375L38.3362 105.327C38.3362 105.327 30.5519 102.291 30.5519 102.457C30.5519 102.622 27.2949 103.506 27.2949 103.506Z" fill="#A9D1DB"/>
<path d="M46.6214 89.0857C41.8372 90.9784 26.3958 97.3055 20.5514 99.7029C19.7798 100.02 19.8265 101.127 20.6206 101.38L27.2939 103.506L29.7389 110.985C29.8369 111.286 30.0851 111.48 30.3627 111.531C30.588 111.574 30.9191 105.475 30.9191 105.475C30.9191 105.475 37.934 110.677 41.2611 113.134C42.0813 113.74 43.2518 113.284 43.446 112.284C44.4374 107.176 46.9154 94.403 47.7626 90.0355C47.8904 89.3783 47.2433 88.8402 46.6214 89.0857Z" fill="white"/>
<path d="M30.3632 111.531C30.5885 111.573 30.9196 105.474 30.9196 105.474L42.4445 94.6498C42.5228 94.5761 42.4294 94.4529 42.3378 94.5083L27.2949 103.506L29.7399 110.985C29.8379 111.285 30.0862 111.479 30.3632 111.531Z" fill="#D1E2EA"/>
<path d="M96.916 116.696L99.5873 124.867C99.7773 125.449 100.492 125.656 100.963 125.267L108.942 118.68C108.942 118.68 100.463 115.373 100.463 115.554C100.463 115.733 96.916 116.696 96.916 116.696Z" fill="#A9D1DB"/>
<path d="M117.966 100.99C112.756 103.051 95.9371 109.943 89.5715 112.554C88.7312 112.899 88.7816 114.105 89.6471 114.381L96.9153 116.696L99.5783 124.842C99.685 125.169 99.9557 125.38 100.257 125.437C100.502 125.483 100.864 118.84 100.864 118.84C100.864 118.84 108.504 124.506 112.128 127.182C113.021 127.842 114.296 127.346 114.508 126.257C115.588 120.692 118.287 106.781 119.21 102.024C119.349 101.308 118.644 100.722 117.966 100.99Z" fill="white"/>
<path d="M100.258 125.437C100.503 125.482 100.864 118.84 100.864 118.84L113.417 107.05C113.502 106.97 113.4 106.835 113.3 106.895L96.916 116.695L99.579 124.841C99.6857 125.169 99.9559 125.38 100.258 125.437Z" fill="#D1E2EA"/>
<path d="M77.2207 36.8256L79.1166 41.788C79.2513 42.1406 79.7587 42.2665 80.093 42.0307L85.7561 38.0304C85.7561 38.0304 79.7385 36.0223 79.7385 36.1318C79.7385 36.2412 77.2207 36.8256 77.2207 36.8256Z" fill="#A9D1DB"/>
<path d="M92.1606 27.2879C88.4621 28.54 76.5255 32.7248 72.0078 34.3107C71.4115 34.5204 71.4473 35.2527 72.0614 35.4203L77.2198 36.8262L79.1098 41.773C79.1858 41.9718 79.3777 42.1 79.592 42.1344C79.766 42.1623 80.022 38.1282 80.022 38.1282C80.022 38.1282 85.4451 41.5693 88.017 43.1945C88.6508 43.5948 89.5557 43.2939 89.7059 42.6322C90.4721 39.2534 92.3882 30.8046 93.043 27.9162C93.1415 27.4812 92.6414 27.1254 92.1606 27.2879Z" fill="white"/>
<path d="M79.5925 42.1337C79.7665 42.1616 80.0225 38.1275 80.0225 38.1275L88.9315 30.9679C88.992 30.9193 88.9201 30.8378 88.8491 30.874L77.2207 36.8256L79.1107 41.7724C79.1867 41.9711 79.3786 42.0994 79.5925 42.1337Z" fill="#D1E2EA"/>
</g>
<defs>
<linearGradient id="paint0_linear_3360_931" x1="80.3822" y1="47.2323" x2="80.3822" y2="120.184" gradientUnits="userSpaceOnUse">
<stop stop-color="white"/>
<stop offset="0.2606" stop-color="white" stop-opacity="0.7394"/>
<stop offset="1" stop-color="white" stop-opacity="0"/>
</linearGradient>
</defs>
</svg>
