<svg width="136" height="136" viewBox="0 0 136 136" fill="none" xmlns="http://www.w3.org/2000/svg">
<mask id="mask0_3272_11362" style="mask-type:alpha" maskUnits="userSpaceOnUse" x="0" y="0" width="136" height="136">
<path d="M0 0H132C134.209 0 136 1.79086 136 4V132C136 134.209 134.209 136 132 136H0V0Z" fill="#D9D9D9"/>
</mask>
<g mask="url(#mask0_3272_11362)">
<path d="M0.0556082 69.6924C1.02818 56.4036 9.51137 48.6306 31.4327 43.9027C53.3541 39.1748 45.1874 13.3851 65.8191 6.50808C86.4509 -0.368985 92.0383 18.113 103.214 24.9906C114.39 31.8677 141.979 17.8029 155.224 38.3152C168.469 58.8275 129.434 75.7099 140.179 97.6312C150.925 119.553 140.179 150.5 117.398 162.535C107.186 167.93 96.3367 165.543 81.2929 162.105C66.2492 158.666 53.7841 168.552 38.7398 161.245C23.6961 153.938 32.2928 117.833 26.2748 105.368C20.2578 92.9033 -1.23347 87.3153 0.0556082 69.6924Z" fill="#B59BFF"/>
<path d="M137.757 123.568C137.757 126.221 119.541 128.372 101.915 128.372C84.2885 128.372 70 126.221 70 123.568C70 120.914 84.2885 118.763 101.915 118.763C119.541 118.763 137.757 120.914 137.757 123.568Z" fill="#9B78FF"/>
<path d="M140.824 108.952L140.843 109.044L105.798 118.791C104.705 118.771 103.599 118.765 102.473 118.765C94.2319 118.765 86.7044 119.236 81.0424 120.008L74.0059 94.7154L79.0336 88.8178L78.398 86.5334L81.7893 85.5908L97.2632 67.4397L120.716 74.7643L122.032 74.3912L122.274 75.2487L132.498 78.4429L132.348 78.4822L132.367 78.5542L132.498 78.4429L141.001 108.999L140.824 108.952Z" fill="#9B78FF"/>
<path d="M128.436 76.0344L70.0996 92.2686L78.6033 122.826L136.94 106.592L128.436 76.0344Z" fill="#FFB056"/>
<path d="M70.0957 92.2744L93.3511 65L128.586 76.0006L70.0957 92.2744Z" fill="#FFB056"/>
<path d="M118.117 71.9603L74.4805 84.0991L80.0981 104.293L123.734 92.1543L118.117 71.9603Z" fill="#FFF1A6"/>
<path d="M103.549 97.7656L78.5978 122.832L70.0957 92.2744L103.549 97.7656Z" fill="#FFCA8F"/>
<path d="M102.775 97.9801L137.087 106.558L128.586 76.0005L102.775 97.9801Z" fill="#FFCA8F"/>
<path d="M13.7202 60.8755C13.7202 62.1928 12.6527 63.261 11.3347 63.261C10.0174 63.261 8.94922 62.1928 8.94922 60.8755C8.94922 59.5582 10.0181 58.49 11.3347 58.49C12.652 58.49 13.7202 59.5582 13.7202 60.8755Z" fill="#D7C8FF"/>
<path d="M62.3855 106.771C63.703 106.771 64.771 105.703 64.771 104.385C64.771 103.068 63.703 102 62.3855 102C61.068 102 60 103.068 60 104.385C60 105.703 61.068 106.771 62.3855 106.771Z" fill="#D7C8FF"/>
<path d="M78.5757 26.3047C78.5757 27.622 77.5082 28.6902 76.1902 28.6902C74.8729 28.6902 73.8047 27.622 73.8047 26.3047C73.8047 24.9874 74.8729 23.9192 76.1902 23.9192C77.5082 23.9192 78.5757 24.9874 78.5757 26.3047Z" fill="#D7C8FF"/>
<path d="M15 31.0005C15 33.7617 12.7615 36 10 36C7.2385 36 5 33.7617 5 31.0005C5 28.2393 7.2385 26 10 26C12.7615 26 15 28.2383 15 31.0005Z" fill="#B59BFF"/>
<path d="M23.7599 14.3806C23.7599 16.2474 22.2467 17.7606 20.3799 17.7606C18.5132 17.7606 17 16.2474 17 14.3806C17 12.5139 18.5132 11 20.3799 11C22.2474 11 23.7599 12.5139 23.7599 14.3806Z" fill="#D7C8FF"/>
<path d="M100.133 16.5669C100.133 19.0889 98.0882 21.1331 95.5669 21.1331C93.0449 21.1331 91 19.0889 91 16.5669C91 14.0449 93.0449 12 95.5669 12C98.0882 12 100.133 14.0449 100.133 16.5669Z" fill="#B59BFF"/>
<path d="M120.134 14.5669C120.134 17.0889 118.089 19.1331 115.567 19.1331C113.045 19.1331 111 17.0889 111 14.5669C111 12.0449 113.045 10 115.567 10C118.089 9.99932 120.134 12.0449 120.134 14.5669Z" fill="#9B78FF"/>
<path d="M30.7868 39.9483L32.0112 35.696L33.2344 39.9483L36.0628 41.1728L33.2344 42.3966L32.0112 46.6488L30.7868 42.3966L27.959 41.1728L30.7868 39.9483Z" fill="#3C00BC"/>
<path d="M70.8285 128.252L72.053 124L73.2768 128.252L76.1045 129.476L73.2768 130.7L72.053 134.953L70.8285 130.7L68 129.476L70.8285 128.252Z" fill="#3C00BC"/>
<path d="M7.82846 98.2522L9.05294 94L10.2767 98.2522L13.1045 99.476L10.2767 100.7L9.05294 104.953L7.82846 100.7L5 99.476L7.82846 98.2522Z" fill="#3C00BC"/>
<path d="M36.8278 15.2522L38.0522 11L39.2761 15.2522L42.1038 16.4767L39.2761 17.7005L38.0522 21.9528L36.8278 17.7005L34 16.4767L36.8278 15.2522Z" fill="#3C00BC"/>
<path d="M124.827 62.2522L126.052 58L127.276 62.2522L130.104 63.476L127.276 64.6998L126.052 68.9528L124.827 64.6998L122 63.476L124.827 62.2522Z" fill="#3C00BC"/>
<path d="M48.4962 97.7941L19 92.1094L22.4269 75L51.922 80.6847L48.4962 97.7941Z" fill="#FFB056"/>
<path d="M35.8688 85.578L19 92.1094L22.4269 75L35.8688 85.578Z" fill="#FFCA8F"/>
<path d="M35.4785 85.5029L48.5743 97.8096L52.0001 80.7002L35.4785 85.5029Z" fill="#FFCA8F"/>
<path d="M74.6547 42.7834L42.439 53.0003L36.6406 34.2437L68.8556 24.0276L74.6547 42.7834Z" fill="#FFB056"/>
<path d="M55.6098 37.4847L42.439 52.9997L36.6406 34.2432L55.6098 37.4847Z" fill="#FFCA8F"/>
<path d="M55.1855 37.6202L74.7417 42.7558L68.9411 24L55.1855 37.6202Z" fill="#FFCA8F"/>
<path d="M53.4811 116.938C54.2819 120.363 54.0983 123.559 52.9324 126.526C51.7664 129.493 49.3438 131.488 45.6613 132.512C44.45 132.848 43.3073 132.798 42.2321 132.361C41.1569 131.924 40.2632 131.143 39.5488 130.021C39.2196 131.484 38.6351 132.675 37.7941 133.594C36.9532 134.514 35.8484 135.163 34.4831 135.543C32.2936 136.152 30.3543 135.695 28.6692 134.173C26.983 132.651 25.872 130.324 25.337 127.194C24.629 123.142 24.8654 119.671 26.045 116.784C27.2247 113.896 29.1261 112.088 31.7513 111.358C33.5535 110.857 35.0581 110.656 36.2652 110.757C37.4723 110.856 38.8451 111.144 40.3824 111.62L40.337 111.733L40.4541 111.7L42.976 125.378C43.2767 126.884 43.666 127.863 44.143 128.316C44.6199 128.77 45.138 128.918 45.6983 128.762C47.4836 128.266 48.6801 127.022 49.29 125.028C49.8978 123.034 49.9051 120.725 49.3079 118.096C48.0333 112.545 45.7837 108.562 42.5602 106.144C39.3378 103.726 35.2491 103.207 30.2941 104.583C25.5881 105.891 22.2887 108.589 20.3978 112.678C18.506 116.767 18.2168 121.625 19.5284 127.249C20.7956 132.836 23.1381 136.87 26.5547 139.348C29.9702 141.829 34.0547 142.409 38.8081 141.088C40.1281 140.721 41.447 140.187 42.767 139.485C44.087 138.785 45.1865 138.061 46.0665 137.313L47.9035 140.492C47.0446 141.433 45.8618 142.31 44.3551 143.121C42.8493 143.934 41.3278 144.553 39.7894 144.98C33.64 146.69 28.3611 146.074 23.9558 143.132C19.5506 140.191 16.5444 135.321 14.9395 128.522C13.3758 121.814 13.8844 115.954 16.4674 110.946C19.0483 105.937 23.3523 102.595 29.3782 100.921C35.3894 99.2502 40.5164 99.8527 44.7634 102.73C49.0114 105.612 51.9163 110.346 53.4811 116.938ZM30.5748 125.718C30.9694 127.739 31.5297 129.2 32.2556 130.097C32.9826 130.994 33.8426 131.305 34.8365 131.028C35.706 130.787 36.4372 130.365 37.0323 129.763C37.6274 129.162 38.0516 128.237 38.3069 126.992C38.289 126.929 38.2753 126.879 38.2647 126.84C38.2531 126.801 38.2478 126.749 38.2457 126.682L36.05 114.807C35.6617 114.798 35.2808 114.812 34.9072 114.849C34.5327 114.885 34.1507 114.958 33.7624 115.066C32.0383 115.545 30.9335 116.661 30.4524 118.415C29.9691 120.168 30.0103 122.602 30.5748 125.718Z" fill="#DE0707"/>
<path d="M32.2849 130.175C31.5579 129.279 30.9987 127.818 30.604 125.798C30.0395 122.682 29.9984 120.248 30.4806 118.494C30.8678 117.087 31.6571 116.09 32.8452 115.505C32.4801 115.543 32.1097 115.613 31.732 115.718C30.0089 116.197 28.9042 117.313 28.422 119.067C27.9387 120.82 27.9799 123.255 28.5444 126.371C28.939 128.391 29.5004 129.852 30.2263 130.748C30.9523 131.646 31.8122 131.957 32.8061 131.68C33.2314 131.562 33.6228 131.401 33.9816 131.197C33.3527 131.137 32.7872 130.797 32.2849 130.175Z" fill="#DE0707"/>
<path opacity="0.5" d="M38.2983 112.478L38.3036 112.768L38.4197 112.736L40.8919 126.238C40.9668 126.612 41.0269 126.879 41.1124 127.189C41.3699 128.114 41.6632 128.695 42.0198 129.036C42.4978 129.487 43.0106 129.618 43.5699 129.462C44.0436 129.33 44.471 129.135 44.8624 128.899C44.5881 128.829 44.3243 128.67 44.0732 128.431C43.5952 127.979 43.2554 127.173 42.9526 125.668L40.4804 112.163L40.3633 112.196L40.359 111.905C38.8217 111.43 37.4247 111.053 36.2176 110.954C35.0094 110.853 33.4932 111.011 31.692 111.511C31.4261 111.585 31.1613 111.648 30.9102 111.745C31.672 111.583 32.3684 111.479 33.0046 111.446C33.4077 111.426 33.8065 111.5 34.1579 111.53C35.364 111.63 36.761 112.003 38.2983 112.478Z" fill="#DE0707"/>
<path d="M35.7678 134.246C35.1547 134.916 34.4014 135.443 33.5098 135.827C33.839 135.785 34.1745 135.718 34.5174 135.623C35.8839 135.243 36.9875 134.593 37.8285 133.674C38.2231 133.242 38.5608 132.748 38.8425 132.197C38.3508 131.79 37.9097 131.282 37.5236 130.672C37.1922 132.136 36.6077 133.327 35.7678 134.246Z" fill="#DE0707"/>
<path d="M18.2968 113.47C16.405 117.56 16.1148 122.417 17.4274 128.042C18.6946 133.629 21.0371 137.662 24.4537 140.141C27.8692 142.622 31.9537 143.201 36.7061 141.881C37.0342 141.791 37.3687 141.575 37.6968 141.463C33.3612 142.326 29.8402 141.798 26.6842 139.506C23.2677 137.026 20.8704 133.116 19.6021 127.529C18.2895 121.904 18.4646 116.988 20.3554 112.898C22.1123 109.1 25.0846 106.502 29.2715 105.104C28.9169 105.184 28.5561 105.275 28.1931 105.375C23.4871 106.683 20.1877 109.381 18.2968 113.47Z" fill="#DE0707"/>
<path opacity="0.5" d="M44.7971 102.815C40.5512 99.9372 35.4232 99.3337 29.413 101.004C29.0701 101.099 28.7346 101.2 28.4043 101.306C33.9628 99.9857 38.7406 100.679 42.7375 103.388C46.9834 106.265 49.8872 110.998 51.452 117.591C52.2528 121.016 52.0703 124.212 50.9043 127.179C49.8756 129.794 47.8708 131.653 44.89 132.76C45.1548 132.723 45.4218 132.668 45.6929 132.592C49.3744 131.57 51.798 129.575 52.9629 126.607C54.1289 123.64 54.3125 120.444 53.5106 117.019C51.9479 110.425 49.0441 105.692 44.7971 102.815Z" fill="#DE0707"/>
<path d="M51.4233 117.51C52.2241 120.935 52.0416 124.131 50.8756 127.097C49.7097 130.065 47.286 132.06 43.6056 133.083C42.3943 133.42 41.2516 133.37 40.1753 132.932C39.0991 132.495 38.2054 131.715 37.4921 130.592C37.1629 132.055 36.5783 133.247 35.7384 134.166C34.8985 135.086 33.7949 135.735 32.4274 136.115C30.2379 136.723 28.2996 136.265 26.6135 134.744C24.9274 133.222 23.8163 130.896 23.2813 127.765C22.5723 123.713 22.8097 120.242 23.9893 117.355C25.169 114.467 27.0714 112.659 29.6966 111.929C31.4967 111.428 33.0014 111.228 34.2085 111.328C35.4156 111.427 36.7883 111.715 38.3257 112.191L38.2813 112.304L38.3985 112.271L40.9192 125.949C41.221 127.456 41.6103 128.435 42.0862 128.888C42.5642 129.341 43.0812 129.489 43.6415 129.333C45.4268 128.837 46.6244 127.593 47.2333 125.599C47.8421 123.607 47.8484 121.296 47.2522 118.668C45.9766 113.116 43.728 109.133 40.5056 106.715C37.2821 104.297 33.1934 103.778 28.2395 105.154C23.5335 106.462 20.2351 109.161 18.3432 113.249C16.4513 117.339 16.1622 122.196 17.4738 127.82C18.7421 133.407 21.0845 137.441 24.5 139.919C27.9166 142.4 32.0011 142.98 36.7535 141.66C38.0735 141.293 39.3924 140.759 40.7124 140.058C42.0314 139.356 43.1308 138.633 44.0108 137.886L45.8478 141.065C44.9889 142.006 43.8061 142.883 42.3004 143.695C40.7937 144.506 39.2721 145.126 37.7348 145.553C31.5843 147.262 26.3075 146.645 21.9012 143.704C17.4949 140.763 14.4898 135.894 12.8849 129.096C11.3212 122.387 11.8298 116.528 14.4117 111.519C16.9937 106.51 21.2966 103.17 27.3225 101.494C33.3327 99.8236 38.4607 100.427 42.7066 103.305C46.9547 106.183 49.8585 110.918 51.4233 117.51ZM28.518 126.289C28.9127 128.311 29.4729 129.77 30.1999 130.668C30.9259 131.566 31.7858 131.876 32.7798 131.6C33.6492 131.358 34.3815 130.936 34.9756 130.334C35.5686 129.733 35.9938 128.81 36.2502 127.564C36.2322 127.5 36.2185 127.451 36.208 127.412C36.1974 127.373 36.19 127.32 36.189 127.253L33.9922 115.379C33.6049 115.369 33.224 115.383 32.8494 115.419C32.4738 115.456 32.0939 115.529 31.7056 115.636C29.9826 116.115 28.8778 117.232 28.3956 118.985C27.9124 120.74 27.9525 123.174 28.518 126.289Z" fill="#FD7777"/>
<path opacity="0.5" d="M105.401 60.5333C104.467 60.4355 103.576 60.2618 102.725 60.0159C102.974 60.1125 103.23 60.2043 103.49 60.2936C104.524 60.6447 105.621 60.8808 106.783 61.0043C107.947 61.1266 108.951 61.0875 109.799 60.8869L109.986 58.3853C109.548 58.4305 109.073 58.4452 108.565 58.4305L108.415 60.4159C107.57 60.6153 106.565 60.6557 105.401 60.5333Z" fill="url(#paint0_radial_3272_11362)"/>
<path d="M122.037 49.6805C121.169 51.9216 119.835 53.6562 118.033 54.8807C116.231 56.1064 114.095 56.2985 111.622 55.4581C110.808 55.1816 110.183 54.7131 109.744 54.0513C109.306 53.3907 109.102 52.6054 109.131 51.6965C108.382 52.3962 107.592 52.8427 106.764 53.0384C105.934 53.2329 105.061 53.1742 104.144 52.8623C102.673 52.362 101.754 51.3576 101.39 49.8481C101.024 48.3398 101.295 46.599 102.199 44.6246C103.361 42.0643 104.831 40.1963 106.61 39.022C108.388 37.8464 110.158 37.5589 111.921 38.1583C113.131 38.5694 114.058 39.0367 114.701 39.5578C115.344 40.0789 116.007 40.7701 116.692 41.6313L116.622 41.6777L116.702 41.7046L112.855 50.3961C112.444 51.3625 112.287 52.0659 112.381 52.5051C112.475 52.9442 112.712 53.228 113.087 53.3553C114.286 53.7626 115.442 53.5216 116.554 52.6323C117.665 51.7417 118.559 50.4402 119.234 48.7276C120.654 45.103 120.919 41.9884 120.032 39.3816C119.145 36.776 117.037 34.9068 113.71 33.7753C110.55 32.7 107.647 32.952 105.005 34.5313C102.361 36.1105 100.326 38.7394 98.8993 42.4203C97.462 46.062 97.2295 49.2413 98.2033 51.957C99.1758 54.674 101.258 56.575 104.449 57.6612C105.335 57.9622 106.286 58.1689 107.301 58.2827C108.316 58.394 109.217 58.4099 110.001 58.3279L109.812 60.8296C108.965 61.0302 107.959 61.0693 106.797 60.947C105.634 60.8247 104.536 60.5886 103.504 60.2363C99.3752 58.8319 96.6326 56.449 95.2784 53.0923C93.9254 49.7343 94.1052 45.8284 95.8191 41.3719C97.5219 36.984 100.066 33.8719 103.454 32.0407C106.841 30.2082 110.557 29.9794 114.604 31.3568C118.641 32.7294 121.301 35.0463 122.59 38.3076C123.879 41.5652 123.693 45.3574 122.037 49.6805ZM105.725 45.81C105.169 47.103 104.923 48.1428 104.986 48.9282C105.05 49.7148 105.416 50.2224 106.084 50.4487C106.668 50.6469 107.243 50.6909 107.811 50.5808C108.379 50.4708 108.974 50.1123 109.598 49.508C109.613 49.4652 109.624 49.4322 109.632 49.4065C109.641 49.3796 109.658 49.3478 109.683 49.3098L113.02 41.7609C112.804 41.6068 112.583 41.4673 112.358 41.3438C112.133 41.219 111.889 41.1138 111.628 41.0257C110.47 40.6318 109.416 40.8361 108.469 41.641C107.521 42.4435 106.606 43.8344 105.725 45.81Z" fill="#DE0707"/>
<path d="M104.977 48.9854C104.912 48.2 105.159 47.1602 105.716 45.8672C106.598 43.8904 107.512 42.5007 108.461 41.697C109.223 41.0524 110.051 40.7942 110.948 40.9202C110.728 40.8016 110.491 40.6988 110.237 40.612C109.08 40.2181 108.027 40.4224 107.079 41.2261C106.13 42.0298 105.216 43.4206 104.334 45.3963C103.777 46.6893 103.531 47.7291 103.596 48.5144C103.66 49.301 104.027 49.8074 104.693 50.0337C104.98 50.1316 105.262 50.1903 105.544 50.2136C105.21 49.9396 105.021 49.5298 104.977 48.9854Z" fill="#DE0707"/>
<path opacity="0.5" d="M115.114 41.5261L114.933 41.9053L115.011 41.9322L111.276 50.2922C111.175 50.5332 111.142 50.5992 111.071 50.8072C110.859 51.4274 110.819 51.8152 110.89 52.1455C110.985 52.5846 111.235 52.8293 111.609 52.9565C111.928 53.0654 112.249 53.107 112.559 53.1241C112.432 52.9785 112.347 52.7804 112.298 52.5492C112.202 52.11 112.249 51.7344 112.658 50.768L116.396 42.402L116.317 42.3763L116.498 41.9971C115.813 41.1359 115.207 40.2783 114.564 39.7572C113.921 39.2349 113.023 38.6856 111.813 38.2746C111.635 38.2134 111.471 38.1204 111.291 38.0789C111.784 38.2819 112.221 38.4777 112.592 38.7052C112.827 38.8483 112.99 39.1443 113.177 39.296C113.819 39.8171 114.43 40.6649 115.114 41.5261Z" fill="#DE0707"/>
<path d="M105.367 52.6237C104.763 52.7656 104.135 52.7729 103.484 52.6457C103.686 52.7485 103.9 52.8402 104.13 52.9185C105.049 53.2304 105.921 53.2892 106.751 53.0947C107.14 53.0029 107.521 52.8537 107.893 52.6518C107.772 52.2322 107.719 51.7759 107.735 51.2817C106.984 51.9815 106.196 52.4292 105.367 52.6237Z" fill="#DE0707"/>
<path d="M103.514 34.1654C100.871 35.7447 98.8363 38.3736 97.4088 42.0545C95.9714 45.6974 95.739 48.8767 96.7127 51.5924C97.6852 54.3081 99.7673 56.2091 102.958 57.2954C103.179 57.3701 103.449 57.3774 103.678 57.441C100.898 56.2568 99.114 54.603 98.2161 52.0928C97.2436 49.3758 97.3965 46.2454 98.8339 42.6037C100.26 38.9228 102.253 36.2145 104.897 34.6352C107.353 33.1685 110.031 32.848 112.932 33.6712C112.701 33.5795 112.463 33.4926 112.219 33.4082C109.061 32.3342 106.158 32.5862 103.514 34.1654Z" fill="#DE0707"/>
<path opacity="0.5" d="M122.581 38.3626C121.293 35.1025 118.631 32.7856 114.596 31.4118C114.366 31.3336 114.137 31.2614 113.909 31.1929C117.555 32.5899 119.985 34.8224 121.198 37.8916C122.486 41.1517 122.301 44.9427 120.643 49.2658C119.776 51.5081 118.442 53.2415 116.641 54.466C115.052 55.5461 113.203 55.8226 111.096 55.2978C111.26 55.3785 111.431 55.452 111.613 55.5131C114.085 56.3547 116.221 56.1627 118.023 54.9357C119.825 53.71 121.16 51.9766 122.027 49.7355C123.685 45.4136 123.869 41.6226 122.581 38.3626Z" fill="#DE0707"/>
<path d="M120.652 49.2093C119.785 51.4516 118.45 53.185 116.65 54.4107C114.848 55.6365 112.712 55.8285 110.24 54.9881C109.426 54.7116 108.8 54.2419 108.362 53.5813C107.923 52.9207 107.72 52.1354 107.749 51.2265C106.999 51.9262 106.21 52.3727 105.382 52.5684C104.554 52.7629 103.68 52.7042 102.763 52.3923C101.293 51.892 100.375 50.8876 100.009 49.3793C99.6448 47.871 99.9139 46.129 100.818 44.1559C101.979 41.5955 103.45 39.7276 105.229 38.552C107.008 37.3764 108.778 37.0889 110.541 37.6883C111.75 38.1006 112.677 38.5667 113.32 39.0878C113.962 39.6089 114.626 40.3001 115.312 41.1613L115.243 41.2077L115.321 41.2347L111.474 49.9261C111.064 50.8925 110.906 51.5947 111.001 52.0351C111.096 52.4742 111.331 52.758 111.706 52.8853C112.905 53.2938 114.06 53.0529 115.172 52.1623C116.284 51.2718 117.177 49.9702 117.853 48.2576C119.273 44.633 119.539 41.5185 118.651 38.9116C117.763 36.306 115.655 34.4368 112.329 33.3053C109.169 32.23 106.266 32.482 103.623 34.0613C100.979 35.6405 98.9451 38.2706 97.5175 41.9503C96.0814 45.5932 95.849 48.7713 96.8215 51.4871C97.794 54.204 99.876 56.105 103.068 57.1913C103.953 57.4934 104.904 57.6989 105.919 57.8127C106.934 57.924 107.834 57.9399 108.618 57.858L108.429 60.3596C107.582 60.559 106.576 60.5993 105.414 60.477C104.251 60.3547 103.153 60.1186 102.121 59.7663C97.9909 58.3619 95.2495 55.9802 93.8966 52.6223C92.5424 49.2643 92.7222 45.3571 94.4361 40.9019C96.1377 36.5128 98.6833 33.4019 102.069 31.5694C105.458 29.737 109.174 29.5094 113.221 30.8856C117.257 32.2594 119.918 34.5751 121.207 37.8364C122.495 41.094 122.31 44.8862 120.652 49.2093ZM104.341 45.34C103.784 46.633 103.539 47.6728 103.602 48.4594C103.667 49.246 104.032 49.7524 104.699 49.98C105.284 50.1794 105.859 50.2222 106.427 50.1121C106.993 50.002 107.589 49.6436 108.214 49.0392C108.229 48.9964 108.24 48.9634 108.248 48.9377C108.257 48.9108 108.274 48.879 108.3 48.8411L111.636 41.2922C111.42 41.138 111.2 40.9986 110.975 40.875C110.749 40.7502 110.506 40.645 110.246 40.557C109.089 40.1631 108.035 40.3673 107.087 41.171C106.137 41.9735 105.222 43.3632 104.341 45.34Z" fill="#FD7777"/>
<path d="M109.802 60.8695L108.418 60.4157L108.6 57.9128L109.995 58.352L109.802 60.8695Z" fill="#DE0808"/>
</g>
<defs>
<radialGradient id="paint0_radial_3272_11362" cx="0" cy="0" r="1" gradientUnits="userSpaceOnUse" gradientTransform="translate(106.652 59.309) rotate(18.7901) scale(2.82627 2.82627)">
<stop stop-color="white"/>
<stop offset="0.2316" stop-color="#FDFDFD"/>
<stop offset="0.368" stop-color="#F4F5F6"/>
<stop offset="0.4798" stop-color="#E6E7E9"/>
<stop offset="0.5783" stop-color="#D2D4D8"/>
<stop offset="0.6681" stop-color="#B8BBC1"/>
<stop offset="0.7514" stop-color="#989DA5"/>
<stop offset="0.8299" stop-color="#727983"/>
<stop offset="0.9045" stop-color="#454F5D"/>
<stop offset="0.9735" stop-color="#152132"/>
<stop offset="1" stop-color="#000D20"/>
</radialGradient>
</defs>
</svg>
