<svg width="136" height="136" viewBox="0 0 136 136" fill="none" xmlns="http://www.w3.org/2000/svg">
<mask id="mask0_3360_739" style="mask-type:alpha" maskUnits="userSpaceOnUse" x="0" y="0" width="136" height="136">
<path d="M0 0H132C134.209 0 136 1.79086 136 4V132C136 134.209 134.209 136 132 136H0V0Z" fill="#D9D9D9"/>
</mask>
<g mask="url(#mask0_3360_739)">
<path d="M30.8208 102.83C33.9174 99.7335 33.9174 94.7128 30.8208 91.6162C27.7242 88.5196 22.7036 88.5196 19.6069 91.6162C16.5103 94.7128 16.5103 99.7335 19.6069 102.83C22.7036 105.927 27.7242 105.927 30.8208 102.83Z" fill="#F7D275"/>
<path d="M104.734 30.9971C108.177 30.9971 110.967 28.2067 110.967 24.7645C110.967 21.3224 108.177 18.532 104.734 18.532C101.292 18.532 98.502 21.3224 98.502 24.7645C98.502 28.2067 101.292 30.9971 104.734 30.9971Z" fill="#F7D275"/>
<path d="M30.0282 73.8771C31.7491 73.8771 33.1442 72.482 33.1442 70.7611C33.1442 69.0401 31.7491 67.645 30.0282 67.645C28.3072 67.645 26.9121 69.0401 26.9121 70.7611C26.9121 72.482 28.3072 73.8771 30.0282 73.8771Z" fill="#F7D275"/>
<path d="M16.4922 136.308H136.002V21.7322C133.86 20.033 131.151 19.0161 128.204 19.0161C121.686 19.0161 116.327 23.9793 115.7 30.333C111.071 32.2981 107.052 35.4155 103.99 39.3186C99.2699 29.2904 89.0781 22.3464 77.2603 22.3464C60.9503 22.3464 47.7282 35.5685 47.7282 51.8786C47.7282 52.2711 47.7425 52.66 47.7577 53.0489C41.9891 56.8298 38.1755 63.3484 38.1755 70.761C38.1755 75.4767 39.719 79.8313 42.3268 83.3496C37.9654 88.4961 35.3304 95.1521 35.3304 102.426C35.3304 103.922 35.4437 105.392 35.6584 106.828C35.5437 106.826 35.4303 106.819 35.3152 106.819C26.5563 106.819 19.4562 113.919 19.4562 122.678C19.4562 125.71 20.3086 128.543 21.7848 130.952C19.2387 131.728 17.2414 133.751 16.4922 136.308Z" fill="#F7D275"/>
<path d="M85.6554 85.0232C86.0788 84.9753 86.5101 84.9753 86.9335 85.0232C87.0321 85.0343 87.1261 85.0735 87.2242 85.0891C90.2702 85.566 92.3505 87.2464 93.43 90.1293C93.6475 90.7093 93.7917 91.3314 93.8627 91.9524C93.9111 92.3759 93.9148 92.8076 93.8627 93.2306C93.8516 93.3186 93.8111 93.4015 93.7991 93.489C93.6848 94.3262 93.4559 95.1256 93.0919 95.8928C91.506 99.2378 87.5085 100.98 84.0064 99.7879C81.1188 98.8047 79.3791 96.7788 78.8372 93.7687C78.2018 90.2371 80.4148 86.5552 83.8313 85.4504C84.4233 85.2587 85.0347 85.0937 85.6554 85.0232ZM82.2758 90.6365C82.3297 90.8752 82.3532 91.1259 82.4426 91.3507C83.3595 93.6614 84.9661 95.3099 87.2565 96.2706C88.4844 96.7857 89.2137 96.6005 90.1191 95.6426C90.3214 95.4288 90.3269 95.2399 90.1186 95.0339C89.6888 94.6087 89.2594 94.1829 88.835 93.7521C88.6244 93.5383 88.4332 93.5508 88.2323 93.7627C88.0167 93.9903 87.7979 94.2152 87.5716 94.4327C87.2325 94.7589 86.9215 94.7851 86.5502 94.5138C85.7314 93.9157 85.0043 93.2223 84.4021 92.4035C84.1294 92.0322 84.1441 91.7165 84.4611 91.3807C84.692 91.1365 84.9348 90.9038 85.173 90.667C85.3536 90.4873 85.3817 90.2979 85.1951 90.1094C84.7463 89.6556 84.3017 89.1972 83.8331 88.7641C83.7456 88.683 83.4963 88.641 83.4226 88.7023C82.8185 89.2032 82.2813 89.7584 82.2758 90.6365Z" fill="#784FEC"/>
<path d="M35.7472 111.653C36.1706 111.605 36.6019 111.605 37.0253 111.653C37.1239 111.664 37.2179 111.703 37.316 111.719C40.362 112.196 42.4423 113.876 43.5218 116.759C43.7393 117.339 43.8835 117.961 43.9545 118.582C44.0029 119.006 44.0066 119.437 43.9545 119.86C43.9434 119.948 43.9029 120.031 43.8909 120.119C43.7766 120.956 43.5477 121.756 43.1837 122.523C41.5978 125.868 37.6003 127.61 34.0982 126.418C31.2106 125.435 29.4709 123.409 28.929 120.399C28.2936 116.867 30.5066 113.185 33.9231 112.08C34.5151 111.889 35.1265 111.723 35.7472 111.653ZM32.3676 117.266C32.4215 117.505 32.445 117.755 32.5344 117.98C33.4513 120.291 35.0579 121.939 37.3483 122.9C38.5762 123.415 39.3055 123.23 40.2109 122.272C40.4132 122.058 40.4187 121.869 40.2104 121.663C39.7806 121.238 39.3511 120.812 38.9268 120.382C38.7162 120.168 38.525 120.18 38.3241 120.392C38.1085 120.62 37.8897 120.845 37.6634 121.062C37.3243 121.388 37.0133 121.415 36.6419 121.143C35.8232 120.545 35.0961 119.852 34.4939 119.032C34.2212 118.661 34.2359 118.345 34.5529 118.01C34.7837 117.765 35.0266 117.533 35.2648 117.296C35.4454 117.116 35.4735 116.927 35.2869 116.738C34.8381 116.285 34.3935 115.826 33.9249 115.393C33.8374 115.312 33.5881 115.27 33.5144 115.331C32.9103 115.833 32.3731 116.388 32.3676 117.266Z" fill="#784FEC"/>
<path d="M50.2356 25.4259C50.7203 25.3711 51.2142 25.3711 51.699 25.4259C51.8118 25.4388 51.9196 25.4835 52.0321 25.501C55.5199 26.047 57.9016 27.9711 59.1377 31.2723C59.3865 31.9367 59.552 32.6486 59.633 33.3595C59.6883 33.8442 59.6929 34.3391 59.633 34.8229C59.6206 34.9238 59.5741 35.0187 59.5602 35.1191C59.4294 36.0779 59.1672 36.993 58.7507 37.8716C56.9344 41.7014 52.3574 43.6973 48.3475 42.3317C45.0411 41.2056 43.0489 38.8862 42.4291 35.4393C41.7016 31.3953 44.2357 27.18 48.1475 25.9147C48.8253 25.6954 49.5251 25.5065 50.2356 25.4259ZM46.3662 31.8529C46.428 32.1261 46.4547 32.4131 46.557 32.6707C47.6066 35.3163 49.4468 37.204 52.0694 38.3043C53.4751 38.894 54.3109 38.6816 55.3472 37.585C55.5789 37.3399 55.5854 37.1238 55.3467 36.8879C54.8542 36.4014 54.3625 35.9135 53.8769 35.4205C53.6359 35.1758 53.4171 35.1896 53.1867 35.4324C52.9397 35.6928 52.6891 35.9503 52.4302 36.1991C52.0417 36.5728 51.6856 36.6027 51.2603 36.2917C50.3227 35.6071 49.4906 34.8132 48.8008 33.8751C48.4885 33.4498 48.505 33.0881 48.8686 32.7039C49.1326 32.4242 49.4109 32.1579 49.6836 31.887C49.8905 31.681 49.9223 31.4645 49.709 31.2484C49.1952 30.7286 48.6857 30.2034 48.1498 29.7076C48.0494 29.615 47.7642 29.5666 47.6798 29.6367C46.9878 30.2121 46.3727 30.8475 46.3662 31.8529Z" fill="#784FEC"/>
<path d="M119.9 59.1994C120.446 59.1376 121.003 59.1376 121.549 59.1994C121.676 59.2137 121.798 59.2643 121.924 59.2842C125.853 59.8993 128.535 62.0662 129.928 65.7849C130.208 66.5331 130.394 67.3353 130.486 68.1361C130.548 68.6821 130.553 69.2391 130.486 69.7846C130.472 69.8984 130.419 70.0053 130.404 70.1182C130.257 71.1982 129.961 72.2289 129.492 73.2186C127.446 77.5326 122.291 79.7806 117.774 78.2421C114.049 76.9737 111.805 74.3612 111.107 70.479C110.288 65.924 113.142 61.1755 117.548 59.7504C118.312 59.503 119.1 59.2901 119.9 59.1994ZM115.542 66.4387C115.612 66.7464 115.642 67.0699 115.757 67.3597C116.939 70.3398 119.012 72.4662 121.966 73.7051C123.549 74.3695 124.49 74.1304 125.658 72.8951C125.919 72.6192 125.926 72.3754 125.657 72.11C125.103 71.5617 124.549 71.0125 124.001 70.4569C123.73 70.1813 123.484 70.197 123.224 70.4707C122.946 70.7642 122.663 71.054 122.372 71.3346C121.935 71.7552 121.534 71.7889 121.054 71.4392C119.998 70.6679 119.061 69.7736 118.284 68.7171C117.932 68.2384 117.951 67.8306 118.36 67.3975C118.658 67.0828 118.971 66.7828 119.279 66.4774C119.512 66.2456 119.548 66.0014 119.307 65.7581C118.729 65.173 118.155 64.5814 117.551 64.023C117.438 63.9184 117.116 63.864 117.022 63.9433C116.242 64.5901 115.549 65.3061 115.542 66.4387Z" fill="#784FEC"/>
<path d="M93.9141 136.307H107.99C107.98 136.304 107.972 136.3 107.962 136.297C103.714 134.514 100.733 131.457 99.033 127.171C98.8676 126.754 98.8243 126.289 98.7239 125.846C98.734 124.218 99.7306 123.188 100.851 122.258C100.988 122.144 101.45 122.222 101.612 122.372C102.481 123.175 103.306 124.026 104.138 124.868C104.484 125.218 104.433 125.569 104.097 125.902C103.655 126.341 103.205 126.773 102.777 127.225C102.188 127.848 102.161 128.434 102.667 129.123C103.784 130.642 105.132 131.928 106.651 133.037C107.34 133.54 107.916 133.492 108.546 132.887C108.964 132.484 109.371 132.067 109.771 131.645C110.144 131.251 110.498 131.229 110.889 131.625C111.676 132.424 112.472 133.214 113.27 134.002C113.656 134.384 113.645 134.734 113.27 135.131C112.788 135.641 112.332 136.03 111.874 136.307H118.417C118.545 136.074 118.669 135.838 118.784 135.595C119.459 134.172 119.884 132.69 120.096 131.137C120.118 130.975 120.193 130.821 120.213 130.658C120.31 129.873 120.303 129.072 120.213 128.287C120.082 127.135 119.814 125.982 119.411 124.906C117.409 119.558 113.551 116.441 107.901 115.557C107.72 115.528 107.545 115.456 107.362 115.435C106.577 115.346 105.777 115.346 104.991 115.435C103.84 115.566 102.707 115.872 101.609 116.227C95.2724 118.277 91.1676 125.106 92.3462 131.656C92.6567 133.382 93.181 134.933 93.9141 136.307Z" fill="#784FEC"/>
<path d="M60.4439 119.209L38.8868 91.8382C37.6133 90.2215 37.741 87.369 39.1568 85.4513L88.0759 19.2325C89.4669 17.349 91.8536 16.7735 93.4234 17.9567L119.963 37.9707C121.87 39.4087 122.178 42.3013 120.63 44.4161L66.1263 118.881C64.5464 121.04 61.9939 121.176 60.4439 119.209Z" fill="url(#paint0_linear_3360_739)"/>
<path d="M58.8911 117.236L37.5953 90.1963C36.3366 88.598 36.4697 85.7699 37.8782 83.8638L86.5301 18.0357C87.9137 16.1632 90.2801 15.5854 91.8315 16.7557L118.053 36.5302C119.935 37.9497 120.232 40.8165 118.693 42.9175L64.5206 116.889C62.9503 119.033 60.4208 119.179 58.8911 117.236Z" fill="url(#paint1_linear_3360_739)"/>
<path d="M114.14 47.4165L67.6742 110.851C65.7713 113.447 62.6926 113.657 60.8247 111.35L41.5608 87.5459C41.3549 87.2925 41.1793 87.0137 41.0337 86.7147C40.6384 85.9103 40.4527 84.9611 40.4721 83.9848C40.5011 82.556 40.9651 81.0646 41.8529 79.8638L83.7843 23.1171C84.3612 22.3375 85.0735 21.7459 85.8351 21.3612C87.3132 20.6166 88.9898 20.6479 90.2329 21.6128L113.428 39.6179C114.695 40.6007 115.355 42.1437 115.351 43.7646C115.351 44.0328 115.331 44.3028 115.294 44.5733C115.159 45.5611 114.778 46.5457 114.14 47.4165Z" fill="#0033B6"/>
<path d="M62.7617 111.5L43.4978 87.6961C43.2923 87.4422 43.1163 87.1644 42.9716 86.8654C42.5759 86.06 42.3906 85.1113 42.4095 84.1355C42.4385 82.7067 42.9034 81.2152 43.7908 80.0145L85.7222 23.2678C86.2986 22.4877 87.0109 21.8961 87.773 21.5119C88.2305 21.281 88.7079 21.1253 89.1861 21.0483C88.1306 20.6857 86.9289 20.8106 85.8351 21.3616C85.0735 21.7464 84.3616 22.3375 83.7843 23.1176L41.8529 79.8638C40.9651 81.0646 40.5006 82.556 40.4721 83.9848C40.4527 84.9606 40.6384 85.9098 41.0337 86.7147C41.1793 87.0137 41.3549 87.2925 41.5608 87.5459L60.8247 111.35C61.8656 112.636 63.2819 113.139 64.6623 112.884C63.9643 112.637 63.3109 112.179 62.7617 111.5Z" fill="#0033B6"/>
<path d="M100.594 26.3909C100.435 26.6056 100.159 26.6664 99.9769 26.5268C99.7945 26.3872 99.7751 26.1001 99.9327 25.8854C100.091 25.6716 100.367 25.6104 100.549 25.7491C100.733 25.8887 100.751 26.1762 100.594 26.3909Z" fill="url(#paint2_linear_3360_739)"/>
<path d="M105.62 30.5412L101.67 27.5164C101.578 27.4459 101.568 27.3026 101.647 27.1957C101.726 27.0884 101.864 27.058 101.956 27.128L105.909 30.1473C106.004 30.2192 106.015 30.3657 105.936 30.4744C105.854 30.5836 105.713 30.6136 105.62 30.5412Z" fill="url(#paint3_linear_3360_739)"/>
<path d="M49.628 102.842L47.8845 100.648C47.5887 100.276 47.6067 99.627 47.9237 99.1966C48.2398 98.7667 48.7365 98.717 49.0332 99.087L50.7854 101.27C51.0881 101.646 51.0738 102.304 50.7536 102.74C50.4329 103.175 49.9289 103.221 49.628 102.842Z" fill="url(#paint4_linear_3360_739)"/>
<path d="M62.9561 70.4421C61.8489 71.9432 60.0686 72.2086 58.9882 71.0429C57.9178 69.8873 57.9409 67.761 59.031 66.2838C60.1198 64.8076 61.8775 64.521 62.9644 65.6517C64.0619 66.7925 64.0619 68.941 62.9561 70.4421Z" fill="white"/>
<path d="M70.01 77.915C68.8734 79.4608 67.0175 79.7064 65.8753 78.4744C64.7432 77.252 64.7409 75.0376 65.8601 73.5181C66.9792 71.999 68.8093 71.7295 69.9589 72.9251C71.119 74.1313 71.1462 76.3701 70.01 77.915Z" fill="url(#paint5_linear_3360_739)"/>
<path d="M77.4771 85.8271C76.3082 87.4199 74.3716 87.6443 73.1617 86.339C71.9628 85.0452 71.9315 82.7355 73.0811 81.1703C74.2316 79.6061 76.1414 79.3559 77.3587 80.622C78.587 81.9001 78.6451 84.2352 77.4771 85.8271Z" fill="url(#paint6_linear_3360_739)"/>
<path d="M56.5976 79.07C55.4886 80.5748 53.7281 80.8102 52.6743 79.6053C51.6308 78.4106 51.6768 76.2497 52.7693 74.7698C53.8608 73.2899 55.5987 73.0318 56.6594 74.2017C57.7301 75.3821 57.7066 77.5656 56.5976 79.07Z" fill="url(#paint7_linear_3360_739)"/>
<path d="M63.4789 86.7987C62.3399 88.3486 60.5038 88.5629 59.3906 87.288C58.2876 86.0255 58.3088 83.7743 59.4307 82.2511C60.5522 80.7288 62.362 80.4887 63.4839 81.7258C64.616 82.974 64.6183 85.2496 63.4789 86.7987Z" fill="url(#paint8_linear_3360_739)"/>
<path d="M70.7636 94.9813C69.5914 96.5778 67.6775 96.7695 66.4966 95.4191C65.3276 94.082 65.3226 91.7335 66.4749 90.1647C67.6272 88.5968 69.5163 88.3788 70.7037 89.6883C71.903 91.0106 71.9348 93.3853 70.7636 94.9813Z" fill="url(#paint9_linear_3360_739)"/>
<path d="M86.3125 32.1322L82.9366 36.7074L82.5625 36.3877L85.6251 32.2363L84.7612 31.5208L85.0685 31.1042L86.3125 32.1322Z" fill="white"/>
<path d="M86.6532 39.1884L86.3413 39.6127L83.7422 37.3938L83.9896 37.0588L86.9112 36.487C87.2821 36.4137 87.5659 36.3193 87.7636 36.2036C87.9622 36.088 88.1258 35.9419 88.2561 35.7659C88.4566 35.4927 88.5377 35.2167 88.4976 34.9389C88.457 34.661 88.2962 34.4053 88.0143 34.1717C87.5765 33.8091 87.1116 33.699 86.62 33.84L86.5629 33.3276C86.8624 33.2378 87.166 33.2295 87.4752 33.3014C87.7848 33.3742 88.0815 33.5281 88.3667 33.7635C88.7491 34.0796 88.9708 34.4413 89.0316 34.849C89.0915 35.2577 88.9791 35.6558 88.6929 36.0442C88.5174 36.282 88.3059 36.4759 88.0571 36.6243C87.8083 36.7727 87.4595 36.8897 87.0094 36.9749L84.6107 37.4477L86.6532 39.1884Z" fill="white"/>
<path d="M89.0481 37.1988C89.0445 37.0808 89.0799 36.9716 89.155 36.8702C89.2301 36.7689 89.3209 36.7067 89.4273 36.6846C89.5338 36.6624 89.6264 36.6846 89.7056 36.7509C89.7858 36.8173 89.8291 36.9085 89.8365 37.026C89.8439 37.1425 89.8098 37.2517 89.7351 37.354C89.6596 37.4559 89.5669 37.5185 89.4578 37.5411C89.3472 37.5632 89.2523 37.5411 89.1725 37.4747C89.0942 37.4084 89.0523 37.3163 89.0481 37.1988ZM86.9651 40.0264C86.9614 39.9084 86.9978 39.7988 87.0725 39.6965C87.1476 39.5951 87.2379 39.5334 87.3438 39.5117C87.4498 39.4905 87.5429 39.5131 87.6212 39.5804C87.7005 39.6476 87.7433 39.7398 87.7507 39.8573C87.7571 39.9748 87.723 40.0849 87.6479 40.1867C87.5728 40.289 87.4802 40.3507 87.371 40.3729C87.2614 40.395 87.1664 40.3715 87.0877 40.3042C87.0089 40.2374 86.9679 40.1443 86.9651 40.0264Z" fill="white"/>
<path d="M92.4649 37.2155L89.0171 41.8981L88.625 41.5632L91.7539 37.3146L90.8509 36.5659L91.1642 36.1401L92.4649 37.2155Z" fill="white"/>
<path d="M92.8956 44.504L92.5763 44.9385L89.8574 42.6168L90.1095 42.2744L93.132 41.7178C93.5153 41.6469 93.8093 41.5524 94.0134 41.4354C94.217 41.3184 94.3861 41.1696 94.5184 40.9894C94.7248 40.7097 94.8045 40.4259 94.7598 40.1384C94.7151 39.8514 94.5446 39.585 94.2507 39.3413C93.7927 38.9616 93.3093 38.8428 92.8002 38.9824L92.7357 38.453C93.0444 38.3636 93.3596 38.3581 93.6807 38.4369C94.0028 38.5152 94.3124 38.6774 94.611 38.9239C95.0109 39.2542 95.245 39.6307 95.3118 40.0518C95.379 40.4743 95.2661 40.8848 94.975 41.282C94.7957 41.5262 94.5778 41.7229 94.3216 41.8736C94.0659 42.0238 93.7042 42.1404 93.2393 42.2233L90.7573 42.6827L92.8956 44.504Z" fill="white"/>
<path d="M82.3981 38.2707L81.5162 39.4654L81.4204 39.3816L82.1253 38.426L81.161 38.9074L81.1144 38.8669L81.3319 37.7496L80.6325 38.6969L80.5371 38.6139L81.4158 37.4238L81.4978 37.4948L81.2563 38.7328L82.3156 38.1993L82.3981 38.2707Z" fill="white"/>
<path d="M81.9482 39.7576C81.922 39.6701 81.9187 39.5784 81.9386 39.4812C81.9579 39.3844 82.0003 39.2923 82.0653 39.2047C82.1298 39.1167 82.2035 39.0522 82.2864 39.0098C82.3689 38.9674 82.4528 38.9513 82.5362 38.9601C82.6195 38.9688 82.696 39.0029 82.7651 39.0628C82.8338 39.1222 82.8826 39.1955 82.9094 39.2821C82.9356 39.3687 82.9398 39.4604 82.9195 39.5577C82.8997 39.654 82.8568 39.7466 82.7919 39.8341C82.7274 39.9221 82.6536 39.9871 82.5707 40.0295C82.4882 40.0723 82.4048 40.0889 82.3205 40.0806C82.2362 40.0719 82.1597 40.0373 82.0906 39.9779C82.022 39.918 81.974 39.8447 81.9482 39.7576ZM82.3385 39.9451C82.4002 39.9507 82.4624 39.9373 82.5246 39.9032C82.5868 39.8687 82.643 39.8175 82.6942 39.7493C82.7439 39.6807 82.778 39.6102 82.7951 39.5365C82.8117 39.4632 82.8103 39.3946 82.7919 39.331C82.7725 39.2665 82.7375 39.2126 82.6868 39.1688C82.6366 39.1255 82.5799 39.1001 82.5186 39.0946C82.4569 39.0882 82.3947 39.1024 82.3316 39.1361C82.2698 39.1697 82.2136 39.2208 82.1629 39.289C82.1123 39.3577 82.0786 39.4282 82.062 39.5019C82.045 39.5752 82.0468 39.6443 82.0653 39.7079C82.0842 39.7719 82.1192 39.8258 82.1699 39.87C82.2205 39.9143 82.2767 39.9392 82.3385 39.9451Z" fill="white"/>
<path d="M83.8362 40.1497C83.8422 40.2622 83.7971 40.3806 83.7049 40.5068L83.3179 41.0307L83.2211 40.9464L83.598 40.434C83.6671 40.34 83.7012 40.2525 83.6998 40.1709C83.6989 40.0894 83.6639 40.0189 83.5948 39.959C83.5169 39.8917 83.4345 39.8673 83.3469 39.8866C83.2594 39.9051 83.1783 39.9654 83.1027 40.0668L82.753 40.54L82.6562 40.4557L83.3211 39.5544L83.4142 39.6346L83.2916 39.8014C83.3584 39.7692 83.4266 39.7586 83.4957 39.7687C83.5658 39.7793 83.6303 39.8102 83.6929 39.8645C83.7837 39.9429 83.8312 40.0373 83.8362 40.1497Z" fill="white"/>
<path d="M85.1896 40.558L84.2459 41.8375L84.1524 41.7564L84.2847 41.5767C84.21 41.6122 84.1372 41.6246 84.0658 41.6154C83.993 41.6057 83.9262 41.5739 83.8663 41.5219C83.7981 41.4629 83.7511 41.3901 83.7253 41.3035C83.699 41.2164 83.6963 41.1247 83.7161 41.0275C83.7373 40.9307 83.7801 40.8377 83.846 40.7483C83.9124 40.6589 83.9861 40.5925 84.0695 40.5497C84.152 40.5068 84.2349 40.4898 84.3183 40.499C84.4021 40.5082 84.4777 40.5423 84.5454 40.6008C84.604 40.651 84.6463 40.7123 84.6712 40.7842C84.6961 40.8552 84.7021 40.934 84.6897 41.0187L85.091 40.4741L85.1896 40.558ZM84.1238 41.4951C84.1865 41.5016 84.2496 41.4882 84.3128 41.4541C84.3759 41.4205 84.433 41.3689 84.4837 41.2998C84.5344 41.2307 84.568 41.1593 84.5846 41.0851C84.6012 41.0109 84.5998 40.9413 84.58 40.8764C84.5606 40.8119 84.5256 40.7575 84.4754 40.7137C84.4233 40.669 84.3662 40.6441 84.3035 40.6377C84.2413 40.6322 84.1787 40.6455 84.1156 40.6792C84.0529 40.7132 83.9962 40.7644 83.9446 40.833C83.8935 40.9017 83.8603 40.9731 83.8446 41.0473C83.8276 41.1215 83.8294 41.191 83.8483 41.256C83.8677 41.3205 83.9032 41.3753 83.9538 41.4196C84.005 41.4643 84.0607 41.4892 84.1238 41.4951Z" fill="white"/>
<path d="M85.6041 41.6589C85.6119 41.7621 85.5723 41.8722 85.4866 41.9888L85.0706 42.5527L84.9766 42.4707L85.0807 42.3293C85.0245 42.3569 84.9637 42.3657 84.9019 42.3551C84.8388 42.344 84.7789 42.3131 84.7195 42.2615C84.6379 42.191 84.5914 42.1109 84.5794 42.021C84.567 41.9307 84.5905 41.8464 84.6485 41.7667C84.7052 41.6893 84.7743 41.6469 84.8531 41.6386C84.9333 41.6303 85.0217 41.6685 85.1189 41.7529L85.3512 41.9538L85.3917 41.898C85.4498 41.8197 85.476 41.745 85.4714 41.6736C85.4659 41.6022 85.4295 41.5372 85.3622 41.4787C85.3157 41.4391 85.265 41.4101 85.2083 41.3921C85.1517 41.3746 85.0964 41.3695 85.0411 41.376L85.0646 41.2465C85.13 41.2391 85.1968 41.2474 85.2641 41.2709C85.3318 41.294 85.394 41.3308 85.4516 41.3806C85.5465 41.4626 85.5972 41.5557 85.6041 41.6589ZM84.9844 42.2546C85.0471 42.2569 85.1102 42.2367 85.1742 42.1938L85.2834 42.045L85.0549 41.8469C84.9296 41.7386 84.8287 41.739 84.748 41.8473C84.7093 41.9003 84.6941 41.9561 84.7047 42.0146C84.7139 42.0731 84.7485 42.1275 84.8061 42.1781C84.8614 42.2261 84.9213 42.2519 84.9844 42.2546Z" fill="white"/>
<path d="M86.6131 42.3959L85.493 43.0995C85.3995 43.1585 85.3207 43.1898 85.2557 43.1916C85.1907 43.1935 85.1304 43.1709 85.0751 43.123C85.0401 43.0921 85.0124 43.0566 84.9922 43.0165C84.9719 42.9765 84.9608 42.9322 84.959 42.8857L85.0723 42.8336C85.0751 42.9119 85.1027 42.9742 85.1543 43.0188C85.188 43.0479 85.2244 43.0608 85.2649 43.0585C85.3059 43.0562 85.3575 43.0364 85.4183 42.9986L85.5156 42.9378L85.8574 41.7449L85.9611 41.8343L85.6662 42.847L86.514 42.3111L86.6131 42.3959Z" fill="white"/>
<g opacity="0.15">
<path d="M114.141 47.4163L106.817 57.4155L63.75 50.232L72.7074 38.1106L115.352 43.7649C115.352 44.0331 115.333 44.3031 115.296 44.5735C115.16 45.5609 114.779 46.5455 114.141 47.4163Z" fill="white"/>
<path d="M95.7635 72.5051L94.0366 74.8622L52.1582 65.9196L53.7238 63.8015L95.7635 72.5051Z" fill="white"/>
<path d="M79.6202 94.5445L77.8836 96.9137L41.0357 86.7146C40.6404 85.9101 40.4547 84.9609 40.474 83.9846L79.6202 94.5445Z" fill="white"/>
<path d="M104.58 60.4717L98.525 68.7385L58.2012 57.745L61.7222 52.9795L104.58 60.4717Z" fill="white"/>
</g>
<path d="M127.018 103.099C128.64 103.099 129.956 101.784 129.956 100.161C129.956 98.5389 128.64 97.2236 127.018 97.2236C125.395 97.2236 124.08 98.5389 124.08 100.161C124.08 101.784 125.395 103.099 127.018 103.099Z" fill="#FF9292"/>
<path d="M19.428 126.118C21.0504 126.118 22.3657 124.803 22.3657 123.181C22.3657 121.558 21.0504 120.243 19.428 120.243C17.8055 120.243 16.4902 121.558 16.4902 123.181C16.4902 124.803 17.8055 126.118 19.428 126.118Z" fill="#FF9292"/>
<path d="M127.018 21.9536C128.64 21.9536 129.956 20.6383 129.956 19.0159C129.956 17.3934 128.64 16.0781 127.018 16.0781C125.395 16.0781 124.08 17.3934 124.08 19.0159C124.08 20.6383 125.395 21.9536 127.018 21.9536Z" fill="#FF9292"/>
<path d="M103.801 95.5133C104.994 95.5133 105.962 94.546 105.962 93.3528C105.962 92.1597 104.994 91.1924 103.801 91.1924C102.608 91.1924 101.641 92.1597 101.641 93.3528C101.641 94.546 102.608 95.5133 103.801 95.5133Z" fill="#FF9292"/>
<path d="M55.5237 132.346C56.7169 132.346 57.6842 131.378 57.6842 130.185C57.6842 128.992 56.7169 128.025 55.5237 128.025C54.3305 128.025 53.3633 128.992 53.3633 130.185C53.3633 131.378 54.3305 132.346 55.5237 132.346Z" fill="#FF9292"/>
<path d="M30.0276 93.3534C31.2208 93.3534 32.1881 92.3861 32.1881 91.1929C32.1881 89.9997 31.2208 89.0325 30.0276 89.0325C28.8345 89.0325 27.8672 89.9997 27.8672 91.1929C27.8672 92.3861 28.8345 93.3534 30.0276 93.3534Z" fill="#FF9292"/>
<path d="M73.9632 18.3106C75.1564 18.3106 76.1236 17.3434 76.1236 16.1502C76.1236 14.957 75.1564 13.9897 73.9632 13.9897C72.77 13.9897 71.8027 14.957 71.8027 16.1502C71.8027 17.3434 72.77 18.3106 73.9632 18.3106Z" fill="#FF9292"/>
<path d="M67.2857 36.2748C68.1199 36.2748 68.7961 35.5986 68.7961 34.7645C68.7961 33.9304 68.1199 33.2542 67.2857 33.2542C66.4516 33.2542 65.7754 33.9304 65.7754 34.7645C65.7754 35.5986 66.4516 36.2748 67.2857 36.2748Z" fill="#FF9292"/>
<path d="M88.4797 115.888C90.504 115.888 92.145 114.247 92.145 112.222C92.145 110.198 90.504 108.557 88.4797 108.557C86.4554 108.557 84.8145 110.198 84.8145 112.222C84.8145 114.247 86.4554 115.888 88.4797 115.888Z" fill="#FF9292"/>
<path d="M40.4719 62.8181C42.4962 62.8181 44.1372 61.1771 44.1372 59.1528C44.1372 57.1285 42.4962 55.4875 40.4719 55.4875C38.4476 55.4875 36.8066 57.1285 36.8066 59.1528C36.8066 61.1771 38.4476 62.8181 40.4719 62.8181Z" fill="#FF9292"/>
<path d="M33.9084 42.8705L34.735 40L35.5611 42.8705L37.4705 43.6966L35.5611 44.5227L34.735 47.3936L33.9084 44.5227L32 43.6966L33.9084 42.8705Z" fill="#D6EFFF"/>
<path d="M112.876 104.327L113.702 101.456L114.528 104.327L116.437 105.153L114.528 105.979L113.702 108.85L112.876 105.979L110.967 105.153L112.876 104.327Z" fill="#D6EFFF"/>
<path d="M73.1359 125.292L73.962 122.422L74.7881 125.292L76.6975 126.118L74.7881 126.945L73.962 129.816L73.1359 126.945L71.2266 126.118L73.1359 125.292Z" fill="#D6EFFF"/>
<path d="M126.19 47.2438L127.016 44.3733L127.842 47.2438L129.752 48.0703L127.842 48.8965L127.016 51.7669L126.19 48.8965L124.281 48.0703L126.19 47.2438Z" fill="#D6EFFF"/>
</g>
<defs>
<linearGradient id="paint0_linear_3360_739" x1="53.6385" y1="-53.0953" x2="104.079" y2="174.984" gradientUnits="userSpaceOnUse">
<stop offset="2.7e-07" stop-color="#B8DDFF"/>
<stop offset="1" stop-color="#1C37B5"/>
</linearGradient>
<linearGradient id="paint1_linear_3360_739" x1="131.047" y1="55.1607" x2="-70.3614" y2="99.6148" gradientUnits="userSpaceOnUse">
<stop offset="2.7e-07" stop-color="#B8DDFF"/>
<stop offset="1" stop-color="#1C37B5"/>
</linearGradient>
<linearGradient id="paint2_linear_3360_739" x1="131.892" y1="-3.28667" x2="56.4447" y2="66.9129" gradientUnits="userSpaceOnUse">
<stop offset="2.7e-07" stop-color="#B8DDFF"/>
<stop offset="1" stop-color="#1C37B5"/>
</linearGradient>
<linearGradient id="paint3_linear_3360_739" x1="130.395" y1="4.08524" x2="65.5107" y2="64.4565" gradientUnits="userSpaceOnUse">
<stop offset="2.7e-07" stop-color="#B8DDFF"/>
<stop offset="1" stop-color="#1C37B5"/>
</linearGradient>
<linearGradient id="paint4_linear_3360_739" x1="54.6296" y1="48.0478" x2="46.52" y2="129.224" gradientUnits="userSpaceOnUse">
<stop offset="2.7e-07" stop-color="#B8DDFF"/>
<stop offset="1" stop-color="#1C37B5"/>
</linearGradient>
<linearGradient id="paint5_linear_3360_739" x1="57.9822" y1="117.176" x2="72.5664" y2="56.4493" gradientUnits="userSpaceOnUse">
<stop offset="2.7e-07" stop-color="#FF8110"/>
<stop offset="1" stop-color="#FFBE3B"/>
</linearGradient>
<linearGradient id="paint6_linear_3360_739" x1="79.6231" y1="66.9023" x2="73.8847" y2="88.7956" gradientUnits="userSpaceOnUse">
<stop offset="2.7e-07" stop-color="#FFFF9D"/>
<stop offset="1" stop-color="#1CC2B5"/>
</linearGradient>
<linearGradient id="paint7_linear_3360_739" x1="47.664" y1="109.744" x2="57.4996" y2="63.7772" gradientUnits="userSpaceOnUse">
<stop offset="2.7e-07" stop-color="#B8DDFF"/>
<stop offset="1" stop-color="#1C37B5"/>
</linearGradient>
<linearGradient id="paint8_linear_3360_739" x1="67.2093" y1="70.5961" x2="54.9446" y2="100.311" gradientUnits="userSpaceOnUse">
<stop offset="2.7e-07" stop-color="#FF48B4"/>
<stop offset="1" stop-color="#FF4276"/>
</linearGradient>
<linearGradient id="paint9_linear_3360_739" x1="61.487" y1="124.431" x2="81.5681" y2="34.7986" gradientUnits="userSpaceOnUse">
<stop offset="2.7e-07" stop-color="#B8DDFF"/>
<stop offset="1" stop-color="#1C37B5"/>
</linearGradient>
</defs>
</svg>
