<svg width="136" height="136" viewBox="0 0 136 136" fill="none" xmlns="http://www.w3.org/2000/svg">
<mask id="mask0_3273_11407" style="mask-type:alpha" maskUnits="userSpaceOnUse" x="0" y="0" width="136" height="136">
<path d="M136 4C136 1.79086 134.209 0 132 0H4C1.79086 0 0 1.79086 0 4V132C0 134.209 1.79086 136 4 136H132C134.209 136 136 134.209 136 132V4Z" fill="#D9D9D9"/>
</mask>
<g mask="url(#mask0_3273_11407)">
<path d="M94.1743 44.0001C68.1207 44.0001 47 65.036 47 90.9849C47 112.244 61.1773 130.202 80.6278 136H107.712C119.986 132.343 130.162 123.847 136 112.729V69.2406C128.122 54.2394 112.35 44.0001 94.1743 44.0001Z" fill="#68FFA7"/>
<path d="M64.7864 126.807C64.776 126.808 64.7653 126.808 64.7545 126.809L53.1705 127.582C51.5155 127.692 50.0634 126.658 49.7927 125.177L48.034 115.543C47.9306 114.977 48.065 114.4 48.4113 113.917C48.799 113.377 49.4203 113.01 50.1159 112.908C51.086 112.767 52.4504 112.545 53.895 112.311C56.9368 111.816 60.7225 111.201 62.8639 111.011C64.4189 110.884 65.8085 111.704 66.2785 113.031C67.0518 115.214 67.3209 119.439 67.5491 123.944C67.6235 125.406 66.3868 126.684 64.7864 126.807ZM50.2445 113.79C49.7873 113.857 49.3831 114.093 49.1359 114.437C48.9317 114.721 48.852 115.057 48.9115 115.382L50.6702 125.017C50.8591 126.052 51.909 126.772 53.1118 126.692L64.6958 125.92C64.7033 125.919 64.7111 125.918 64.719 125.918C65.8408 125.832 66.7092 124.971 66.6596 123.989C66.4347 119.552 66.1719 115.399 65.4386 113.328C65.11 112.4 64.0738 111.816 62.9437 111.899C60.8337 112.086 57.0661 112.698 54.0389 113.191C52.5897 113.426 51.2216 113.648 50.2445 113.79Z" fill="white"/>
<path d="M52.1748 116.183C52.9957 115.613 54.1245 115.83 54.6763 116.663L57.2721 120.581C57.532 120.974 58.1277 120.902 58.2872 120.46L62.988 107.42C63.2224 106.769 64.1751 106.91 64.2177 107.6C64.4541 111.461 63.9904 118.87 58.2967 125.476C58.2967 125.476 54.8003 124.415 51.6073 118.619C51.1465 117.782 51.3895 116.728 52.1748 116.183Z" fill="#18AB55"/>
<path d="M128.09 82.835C128.082 82.8358 128.073 82.8362 128.065 82.8371L118.784 83.4558C117.459 83.5439 116.295 82.7159 116.079 81.5297L114.67 73.8115C114.587 73.3585 114.695 72.8964 114.972 72.5095C115.283 72.0772 115.78 71.7825 116.338 71.701C117.115 71.5882 118.208 71.4105 119.365 71.2224C121.801 70.8264 124.834 70.3337 126.55 70.1808C127.796 70.0795 128.909 70.7363 129.285 71.799C129.905 73.5482 130.12 76.9322 130.303 80.541C130.363 81.7132 129.372 82.737 128.09 82.835ZM116.44 72.4078C116.074 72.4611 115.75 72.65 115.552 72.9261C115.388 73.1539 115.324 73.4226 115.372 73.683L116.781 81.4011C116.932 82.2303 117.773 82.8073 118.737 82.7428L128.017 82.1241C128.023 82.1236 128.029 82.1232 128.035 82.1228C128.934 82.0542 129.63 81.3643 129.59 80.577C129.41 77.0231 129.199 73.6958 128.612 72.0367C128.349 71.2935 127.519 70.8256 126.613 70.8917C124.923 71.0422 121.904 71.5328 119.479 71.9267C118.319 72.116 117.223 72.2937 116.44 72.4078Z" fill="white"/>
<path d="M117.986 74.3249C118.644 73.8682 119.548 74.0418 119.991 74.7093L122.07 77.8486C122.278 78.1627 122.755 78.1057 122.884 77.751L126.649 67.3049C126.837 66.7837 127.601 66.8969 127.634 67.4495C127.824 70.5425 127.453 76.4776 122.891 81.7695C122.891 81.7695 120.091 80.9197 117.533 76.2763C117.162 75.6054 117.357 74.7614 117.986 74.3249Z" fill="#3366FF"/>
<path d="M26.5 128.406C36.165 128.406 44 120.571 44 110.906C44 101.241 36.165 93.4064 26.5 93.4064C16.835 93.4064 9 101.241 9 110.906C9 120.571 16.835 128.406 26.5 128.406Z" fill="white"/>
<path d="M28.8477 118.906C28.1887 118.504 26.639 117.74 26.7728 116.786C26.8777 116.039 28.664 115.064 29.2086 114.607C30.925 113.166 32.4952 111.594 33.7852 109.756C36.2715 106.211 37.4522 101.491 35.7737 97.341C34.0598 93.1034 29.9855 91.2077 25.6795 90.6126C21.393 90.0205 15.6003 89.9392 12.1799 93.1124C10.2838 94.8712 10.9812 98.0539 11.3727 100.315C11.8834 103.263 12.9458 106.038 14.4325 108.629C15.6497 110.751 18.8648 108.719 17.6467 106.596C17.2473 105.9 16.75 103.85 16.6931 103.456C16.4555 101.807 16.1295 100.149 15.9927 98.4887C15.9652 98.1567 17.6961 96.9451 18.1684 96.8941C21.1194 96.5776 24.7749 96.4528 27.5606 97.6675C29.9311 98.7014 30.6659 101.497 30.2825 103.876C29.7913 106.922 23.0075 114.836 22.9671 116.644C22.9067 119.316 24.9771 120.99 27.0579 122.26C29.1497 123.538 30.931 120.178 28.8477 118.906Z" fill="#FF941B"/>
<path d="M37.1658 121.763C35.5547 121.486 33.6236 122.223 33.0016 123.631C32.6825 123.785 32.3975 124.053 32.1898 124.46C31.7245 125.369 31.4085 126.421 31.726 127.436C32.0989 128.628 33.2562 129.283 34.4559 129.279C36.6076 129.272 39.0609 128.388 39.8108 126.204C40.5062 124.178 39.2821 122.128 37.1658 121.763Z" fill="#FF941B"/>
<path d="M111.874 46.212C111.866 46.2128 111.857 46.2133 111.849 46.2141L67.179 51.6283C65.853 51.7164 64.6899 50.8885 64.4733 49.7022L63.0643 41.984C62.9816 41.531 63.0891 41.0689 63.3664 40.682C63.6773 40.2497 64.1749 39.955 64.7321 39.8735C65.5091 39.7607 66.6024 39.583 67.7593 39.3949C70.1959 38.9989 108.619 33.7107 110.334 33.5582C111.58 33.457 112.693 34.1137 113.07 35.1764C113.689 36.9257 113.905 40.3096 114.088 43.9184C114.147 45.0902 113.156 46.1141 111.874 46.212ZM64.8346 40.5803C64.4684 40.6337 64.1447 40.8226 63.9463 41.0987C63.7827 41.3264 63.719 41.5951 63.7665 41.8555L65.1756 49.5737C65.3269 50.4028 66.168 50.9798 67.1315 50.9153L111.801 45.5011C111.807 45.5007 111.814 45.5003 111.82 45.4998C112.718 45.4312 113.414 44.7414 113.374 43.954C113.194 40.4001 112.984 37.0728 112.396 35.4137C112.133 34.6705 111.303 34.2026 110.398 34.2687C108.707 34.4192 70.2993 39.7049 67.8738 40.0992C66.7136 40.2881 65.6178 40.4663 64.8346 40.5803Z" fill="white"/>
<path d="M108.303 73.9839C108.294 73.9831 108.286 73.9818 108.277 73.981L63.3815 70.9715C62.0625 70.8112 61.0738 69.7803 61.0821 68.5746L61.1371 60.7291C61.1404 60.2683 61.3321 59.8347 61.6769 59.5065C62.0629 59.1395 62.6069 58.9427 63.169 58.9667C63.9535 59.0006 65.0608 59.0299 66.2326 59.0609C68.7002 59.1262 107.435 61.0945 109.149 61.2644C110.392 61.3971 111.363 62.2498 111.535 63.3641C111.818 65.1981 111.398 68.563 110.905 72.1425C110.744 73.3056 109.58 74.1269 108.303 73.9839ZM63.138 59.6805C62.7681 59.6644 62.4151 59.7896 62.1687 60.024C61.9654 60.217 61.8529 60.4691 61.8509 60.7341L61.7959 68.5796C61.7901 69.4224 62.5085 70.1461 63.4674 70.2627L108.363 73.2722C108.369 73.273 108.376 73.2734 108.382 73.2742C109.278 73.3742 110.09 72.8262 110.197 72.0454C110.683 68.5201 111.096 65.2122 110.829 63.4728C110.709 62.6933 109.981 62.0791 109.079 61.9753C107.39 61.8079 68.6701 59.8401 66.2136 59.7752C65.0385 59.7437 63.9283 59.7144 63.138 59.6805Z" fill="white"/>
<path d="M106.646 95.6805C106.636 95.6818 106.627 95.6834 106.618 95.6847L59.0663 105.376C57.6486 105.586 56.3263 104.796 55.9907 103.54L53.8071 95.3647C53.6789 94.8849 53.7542 94.3785 54.0191 93.9387C54.3155 93.4469 54.8251 93.0869 55.417 92.9513C56.2429 92.7628 57.4023 92.4768 58.6303 92.1742C61.2153 91.5373 102.062 82.5229 103.894 82.21C105.224 81.993 106.478 82.6027 106.974 83.7125C107.792 85.539 108.317 89.1585 108.826 93.022C108.992 94.2777 108.015 95.4644 106.646 95.6805ZM55.589 93.7023C55.2 93.7912 54.8681 94.0226 54.6792 94.3364C54.523 94.5951 54.4779 94.8898 54.5515 95.1655L56.7351 103.341C56.9699 104.219 57.9239 104.766 58.9539 104.614L106.506 94.9229C106.512 94.9221 106.519 94.9208 106.526 94.9196C107.486 94.7679 108.174 93.966 108.063 93.1232C107.561 89.3181 107.046 85.7597 106.271 84.027C105.924 83.2508 104.991 82.8197 104.024 82.9693C102.22 83.2772 61.388 92.2883 58.815 92.9219C57.5837 93.2257 56.421 93.5122 55.589 93.7023Z" fill="white"/>
<path d="M136 136V125.964C134.101 123.012 130.576 118.04 130.392 117.725C127.976 113.582 124.524 110.857 119.809 109.99C117.341 109.537 114.826 109.344 112.333 109.028C110.876 108.843 109.428 108.603 108.118 107.88C106.986 107.256 105.979 106.441 105.656 105.13C105.277 103.593 105.054 102.017 104.783 100.455C104.753 100.276 104.796 100.034 104.899 99.8893C106.632 97.4423 107.695 94.7559 107.835 91.7237C107.843 91.5602 107.967 91.3388 108.104 91.2561C108.807 90.8283 109.218 90.1857 109.379 89.4105C109.53 88.6817 109.638 87.9288 109.64 87.1864C109.644 85.7162 109.344 84.3501 107.877 83.5186C108.528 80.7521 108.37 78.0569 107.62 75.3799C106.98 73.0943 106.125 70.9142 104.551 69.1028C103.063 67.3906 101.254 66.4275 98.9154 66.746C98.7291 66.7715 98.4622 66.6053 98.315 66.4488C96.7277 64.7621 94.7667 64.004 92.4901 64.0001C90.4272 63.9966 88.4908 64.5739 86.6148 65.3652C83.3445 66.7453 80.8477 69.0075 79.6303 72.4018C77.6977 77.7898 78.099 83.0458 80.9805 88.0423C81.1664 88.3646 81.2131 88.5804 80.995 88.9342C80.7534 89.3263 80.6013 89.8093 80.5359 90.2706C80.3638 91.4862 80.8602 92.5604 81.3787 93.607C81.9186 94.6972 82.5899 95.6565 83.9328 95.8293C84.0441 95.8436 84.1692 96.0249 84.2252 96.1562C85.3926 98.8818 87.3031 100.956 89.7003 102.621C89.9346 102.784 90.1503 103.095 90.2091 103.374C90.4981 104.741 90.7601 106.116 90.9689 107.498C91.0439 107.995 91.0276 108.541 90.9084 109.028C90.4217 111.016 89.0307 112.289 87.3559 113.237C85.3089 114.398 83.1958 115.438 81.1222 116.55C76.3616 119.105 73.3595 122.973 72.4394 128.409C72.3529 128.919 71.0339 134.292 71 136H136V136Z" fill="#3BBC71"/>
<path d="M108.906 56.5819L114.885 60.2046L126.764 40.6001L120.785 36.9773L108.906 56.5819Z" fill="#E1AE54"/>
<path d="M113.105 58.9285L115.111 60.1443L121.051 50.342L126.99 40.5398L124.984 39.324L113.105 58.9285Z" fill="#CD9430"/>
<path d="M109.132 56.5212L111.139 57.7369L123.018 38.1324L121.011 36.9167L109.132 56.5212Z" fill="#F9CD80"/>
<path d="M126.302 31.7083L129.149 33.4334C130.014 33.9574 130.29 35.0836 129.766 35.9484L127.872 39.0753L121.893 35.4523L123.787 32.3254C124.312 31.4602 125.437 31.1839 126.302 31.7083Z" fill="#F567F9"/>
<path d="M108.707 63.9599L115.109 60.1401L109.13 56.5171L108.707 63.9599Z" fill="#D88080"/>
<path d="M109.844 62.1622C109.504 61.9068 109.195 61.6441 108.923 61.3674L108.773 64L110.754 62.8187C110.448 62.6028 110.143 62.3865 109.844 62.1622Z" fill="#C95D5D"/>
<path d="M120.656 37.5065L126.635 41.1293L128.572 37.9324L122.593 34.3097L120.656 37.5065Z" fill="#D6D6D6"/>
<path d="M73.354 27.9612C73.144 27.6508 72.6138 27.0013 72.8652 26.6067C73.0619 26.2982 74.0473 26.2275 74.3796 26.1352C75.4279 25.8447 76.4375 25.4669 77.3775 24.9148C79.1895 23.8505 80.6617 22.0041 80.7563 19.8336C80.8533 17.6173 79.4358 15.9594 77.6544 14.8294C75.8811 13.7044 73.3395 12.5017 71.1901 13.2137C69.9983 13.6083 69.6655 15.1539 69.3828 16.2316C69.0145 17.6361 68.9246 19.0754 69.0591 20.519C69.169 21.7011 70.9977 21.4516 70.8879 20.2688C70.8519 19.8809 71.045 18.8752 71.0994 18.6899C71.3266 17.9141 71.5166 17.116 71.7907 16.3559C71.8455 16.2038 72.8539 16.0173 73.0725 16.09C74.439 16.5448 76.0786 17.2259 77.0635 18.3235C77.9019 19.2572 77.6634 20.6399 77.0147 21.6131C76.1841 22.8593 71.5944 24.9872 71.2124 25.777C70.6478 26.9446 71.2245 28.1008 71.8873 29.0811C72.5544 30.0672 74.0175 28.9427 73.354 27.9612Z" fill="#3366FF"/>
<path d="M76.451 30.8982C75.7957 30.4512 74.7943 30.3879 74.2359 30.8841C74.0639 30.8876 73.884 30.9486 73.7104 31.0862C73.3217 31.394 72.9702 31.7952 72.9061 32.307C72.8306 32.9088 73.2095 33.4312 73.7401 33.6709C74.6914 34.1014 75.9532 34.205 76.7239 33.3917C77.4395 32.6374 77.312 31.4851 76.451 30.8982Z" fill="#3366FF"/>
<path d="M50.8124 42.1922C50.4748 41.9139 49.6669 41.362 49.8181 40.8373C49.9365 40.4271 51.0161 40.0226 51.3577 39.8096C52.4352 39.1383 53.4406 38.3823 54.3106 37.454C55.9875 35.6644 57.026 33.1117 56.4154 30.6508C55.7924 28.138 53.6585 26.7501 51.2913 26.0732C48.9351 25.3993 45.693 24.8919 43.5221 26.3985C42.3182 27.2335 42.456 29.0736 42.4953 30.3732C42.5466 32.0669 42.921 33.7078 43.5481 35.2793C44.0613 36.5662 46.026 35.6833 45.5126 34.3955C45.3443 33.9732 45.2285 32.7837 45.2282 32.5583C45.2264 31.6149 45.1757 30.6589 45.2316 29.7175C45.2427 29.5292 46.3099 28.9875 46.5786 28.9968C48.2584 29.0547 50.3185 29.276 51.7834 30.1794C53.03 30.9479 53.2194 32.5743 52.8145 33.8779C52.2962 35.5469 47.861 39.4439 47.6941 40.4542C47.4475 41.9475 48.4748 43.0513 49.5402 43.9299C50.6125 44.8135 51.8791 43.0717 50.8124 42.1922Z" fill="#F986FC"/>
<path d="M55.2485 44.4575C54.3674 44.1736 53.2256 44.4332 52.7643 45.173C52.5729 45.2337 52.3917 45.3614 52.2428 45.5727C51.9093 46.0455 51.6483 46.6106 51.7454 47.2047C51.8596 47.9032 52.4562 48.3629 53.1292 48.4561C54.3362 48.6239 55.7829 48.3234 56.3771 47.1586C56.9291 46.0781 56.406 44.8303 55.2485 44.4575Z" fill="#F986FC"/>
<path d="M121.172 108.681C121.164 108.681 121.155 108.681 121.146 108.68L111.852 108.354C110.524 108.307 109.451 107.365 109.356 106.163L108.738 98.3417C108.701 97.8825 108.855 97.4336 109.17 97.0773C109.523 96.6784 110.048 96.4358 110.611 96.4114C111.395 96.3779 112.501 96.3122 113.671 96.2428C116.136 96.096 119.202 95.9138 120.925 95.9361C122.174 95.9617 123.215 96.728 123.482 97.8238C123.92 99.6267 123.791 103.015 123.607 106.624C123.547 107.796 122.457 108.714 121.172 108.681ZM110.641 97.1252C110.272 97.1409 109.931 97.2959 109.705 97.5506C109.519 97.7601 109.429 98.0213 109.449 98.285L110.067 106.107C110.134 106.947 110.912 107.606 111.877 107.64L121.172 107.967C121.178 107.967 121.184 107.967 121.19 107.967C122.091 107.99 122.853 107.374 122.894 106.587C123.075 103.033 123.204 99.7015 122.788 97.9916C122.601 97.2253 121.823 96.6755 120.916 96.6495C119.219 96.6276 116.166 96.809 113.714 96.9549C112.54 97.0256 111.432 97.0913 110.641 97.1252Z" fill="white"/>
<path d="M111.985 99.1894C112.685 98.8021 113.567 99.0662 113.939 99.7751L115.689 103.109C115.864 103.443 116.345 103.434 116.508 103.095L121.315 93.0849C121.555 92.5856 122.303 92.7757 122.281 93.3292C122.155 96.4254 121.183 102.292 116.108 107.094C116.108 107.094 113.407 105.964 111.335 101.085C111.035 100.38 111.314 99.5597 111.985 99.1894Z" fill="#3366FF"/>
<path d="M22.7202 64.8755C22.7202 66.1928 21.6527 67.261 20.3347 67.261C19.0174 67.261 17.9492 66.1928 17.9492 64.8755C17.9492 63.5582 19.0181 62.49 20.3347 62.49C21.652 62.49 22.7202 63.5582 22.7202 64.8755Z" fill="#D7C8FF"/>
<path d="M71.3855 110.771C72.703 110.771 73.771 109.703 73.771 108.385C73.771 107.068 72.703 106 71.3855 106C70.068 106 69 107.068 69 108.385C69 109.703 70.068 110.771 71.3855 110.771Z" fill="#D7C8FF"/>
<path d="M116.771 24.3855C116.771 25.7028 115.703 26.771 114.385 26.771C113.068 26.771 112 25.7028 112 24.3855C112 23.0682 113.068 22 114.385 22C115.703 22 116.771 23.0682 116.771 24.3855Z" fill="#D7C8FF"/>
<path d="M29 49.0005C29 51.7617 26.7615 54 24 54C21.2385 54 19 51.7617 19 49.0005C19 46.2393 21.2385 44 24 44C26.7615 44 29 46.2383 29 49.0005Z" fill="#B59BFF"/>
<path d="M32.7599 18.3806C32.7599 20.2474 31.2467 21.7606 29.3799 21.7606C27.5132 21.7606 26 20.2474 26 18.3806C26 16.5139 27.5132 15 29.3799 15C31.2474 15 32.7599 16.5139 32.7599 18.3806Z" fill="#D7C8FF"/>
<path d="M86.1331 50.5669C86.1331 53.0889 84.0882 55.1331 81.5669 55.1331C79.0449 55.1331 77 53.0889 77 50.5669C77 48.0449 79.0449 46 81.5669 46C84.0882 46 86.1331 48.0449 86.1331 50.5669Z" fill="#B59BFF"/>
<path d="M138.134 97.5669C138.134 100.089 136.089 102.133 133.567 102.133C131.045 102.133 129 100.089 129 97.5669C129 95.0449 131.045 93 133.567 93C136.089 92.9993 138.134 95.0449 138.134 97.5669Z" fill="#9B78FF"/>
<path d="M60.8278 91.2522L62.0523 87L63.2754 91.2522L66.1038 92.4767L63.2754 93.7005L62.0523 97.9528L60.8278 93.7005L58 92.4767L60.8278 91.2522Z" fill="#FFB056"/>
<path d="M107.828 124.252L109.053 120L110.277 124.252L113.105 125.476L110.277 126.7L109.053 130.953L107.828 126.7L105 125.476L107.828 124.252Z" fill="#FFB056"/>
<path d="M8.82846 96.2522L10.0529 92L11.2767 96.2522L14.1045 97.476L11.2767 98.6998L10.0529 102.953L8.82846 98.6998L6 97.476L8.82846 96.2522Z" fill="#FFB056"/>
<path d="M98.8278 33.2522L100.052 29L101.276 33.2522L104.104 34.4767L101.276 35.7005L100.052 39.9528L98.8278 35.7005L96 34.4767L98.8278 33.2522Z" fill="#FFB056"/>
<path d="M128.827 57.2522L130.052 53L131.276 57.2522L134.104 58.476L131.276 59.6998L130.052 63.9528L128.827 59.6998L126 58.476L128.827 57.2522Z" fill="#FFB056"/>
</g>
</svg>
