<svg width="16" height="16" viewBox="0 0 16 16" fill="none" xmlns="http://www.w3.org/2000/svg">
<path d="M13.25 1H2.75C1.7835 1 1 1.7835 1 2.75V4.5C1 5.4665 1.7835 6.25 2.75 6.25H13.25C14.2165 6.25 15 5.4665 15 4.5V2.75C15 1.7835 14.2165 1 13.25 1Z" stroke="#A8A8A8" stroke-linecap="round" stroke-linejoin="round"/>
<path d="M13.25 9.75H2.75C1.7835 9.75 1 10.5335 1 11.5V13.25C1 14.2165 1.7835 15 2.75 15H13.25C14.2165 15 15 14.2165 15 13.25V11.5C15 10.5335 14.2165 9.75 13.25 9.75Z" stroke="#A8A8A8" stroke-linecap="round" stroke-linejoin="round"/>
</svg>
