<svg width="16" height="18" viewBox="0 0 16 18" fill="none" xmlns="http://www.w3.org/2000/svg">
<path d="M5.32788 7.92437C5.32788 8.61306 5.60146 9.27355 6.08845 9.76053C6.57543 10.2475 7.23592 10.5211 7.92461 10.5211C8.61331 10.5211 9.2738 10.2475 9.76078 9.76053C10.2478 9.27355 10.5213 8.61306 10.5213 7.92437C10.5213 7.23567 10.2478 6.57518 9.76078 6.0882C9.2738 5.60122 8.61331 5.32764 7.92461 5.32764C7.23592 5.32764 6.57543 5.60122 6.08845 6.0882C5.60146 6.57518 5.32788 7.23567 5.32788 7.92437Z" stroke="#3366FF" stroke-linecap="round" stroke-linejoin="round"/>
<path d="M12.8212 12.8209L9.14854 16.4936C8.82394 16.8179 8.38388 17 7.92505 17C7.46622 17 7.02616 16.8179 6.70156 16.4936L3.02805 12.8209C2.05966 11.8525 1.40019 10.6186 1.13303 9.27541C0.865873 7.93218 1.00302 6.53988 1.52714 5.2746C2.05126 4.00931 2.93881 2.92785 4.07755 2.16698C5.21628 1.40611 6.55507 1 7.92462 1C9.29416 1 10.633 1.40611 11.7717 2.16698C12.9104 2.92785 13.798 4.00931 14.3221 5.2746C14.8462 6.53988 14.9834 7.93218 14.7162 9.27541C14.449 10.6186 13.7896 11.8525 12.8212 12.8209Z" stroke="#3366FF" stroke-linecap="round" stroke-linejoin="round"/>
</svg>
