<svg width="13" height="13" viewBox="0 0 13 13" fill="none" xmlns="http://www.w3.org/2000/svg">
<path d="M12 0.854736L8.09735 11.5697C8.071 11.6267 8.02871 11.675 7.9755 11.7089C7.92228 11.7427 7.86038 11.7607 7.79714 11.7607C7.73391 11.7607 7.67201 11.7427 7.61879 11.7089C7.56557 11.675 7.52328 11.6267 7.49694 11.5697L5.39551 7.40278L1.19265 5.31931C1.13517 5.29319 1.08646 5.25126 1.05231 5.1985C1.01815 5.14574 1 5.08436 1 5.02167C1 4.95898 1.01815 4.89761 1.05231 4.84484C1.08646 4.79208 1.13517 4.75015 1.19265 4.72403L12 0.854736Z" stroke="white" stroke-linecap="round" stroke-linejoin="round"/>
</svg>
