<svg width="13" height="13" viewBox="0 0 13 13" fill="none" xmlns="http://www.w3.org/2000/svg">
<path d="M12 1L8.09735 11.8073C8.071 11.8648 8.02871 11.9135 7.9755 11.9477C7.92228 11.9818 7.86038 12 7.79714 12C7.73391 12 7.67201 11.9818 7.61879 11.9477C7.56557 11.9135 7.52328 11.8648 7.49694 11.8073L5.39551 7.60449L1.19265 5.50306C1.13517 5.47672 1.08646 5.43443 1.05231 5.38121C1.01815 5.32799 1 5.26609 1 5.20286C1 5.13962 1.01815 5.07772 1.05231 5.0245C1.08646 4.97129 1.13517 4.929 1.19265 4.90265L12 1Z" stroke="#3366FF" stroke-linecap="round" stroke-linejoin="round"/>
</svg>
