<svg width="100" height="34" viewBox="0 0 100 34" fill="none" xmlns="http://www.w3.org/2000/svg">
<path d="M19.9997 0V26.4138H13.3331V19.8103H6.66665V26.4138H0V6.60328L6.66665 0H19.9997ZM13.3335 13.207V6.60352H6.5096L6.66665 13.207H13.3335Z" fill="#3366FF"/>
<path d="M43.4218 19.8103V26.4138H23.4219V0H30.0885V19.8103H43.4218Z" fill="#3366FF"/>
<path d="M53.4218 26.414H46.8438V0H53.4218V26.414Z" fill="#3366FF"/>
<path d="M63.4208 19.8101H70.0874V13.2068H76.7541V26.414H56.7539V0H76.7541V6.60374H63.4208V19.8101Z" fill="#3366FF"/>
<path d="M93.2446 26.414H80V0H99.9997L100 19.8103L93.2446 26.414ZM93.3333 6.60398H86.6666V19.8103H93.3235L93.3333 6.60398Z" fill="#F567F9"/>
<path d="M99.5571 28.395C99.5436 28.5612 99.5017 28.7009 99.4312 28.8139C99.3641 28.9269 99.2634 29.0117 99.1292 29.0682C98.9949 29.1247 98.8204 29.153 98.6056 29.153C98.3874 29.153 98.2112 29.1247 98.077 29.0682C97.9461 29.0117 97.8504 28.9286 97.79 28.8189C97.7296 28.7059 97.6927 28.5646 97.6792 28.395H98.0921C98.1088 28.5745 98.1558 28.6959 98.233 28.7591C98.3136 28.8189 98.4411 28.8488 98.6156 28.8488C98.77 28.8488 98.8909 28.8172 98.9781 28.7541C99.0687 28.6876 99.1224 28.5679 99.1392 28.395H99.5571ZM97.1104 29.5021H97.5332V31.4569C97.5332 31.54 97.5316 31.6314 97.5282 31.7311C97.5282 31.8275 97.5265 31.924 97.5232 32.0204C97.5198 32.1168 97.5148 32.2032 97.5081 32.2797C97.5047 32.3528 97.5014 32.4093 97.498 32.4492H97.5181L99.4967 29.5021H100V33.0626H99.5772V31.1277C99.5772 31.038 99.5789 30.9416 99.5822 30.8385C99.5856 30.7321 99.589 30.6307 99.5923 30.5343C99.599 30.4346 99.6041 30.3465 99.6074 30.27C99.6108 30.1936 99.6141 30.137 99.6175 30.1005H99.5974L97.6138 33.0626H97.1104V29.5021Z" fill="#003BCE"/>
<path d="M92.7422 29.5021H93.1651V31.4569C93.1651 31.54 93.1634 31.6314 93.16 31.7311C93.16 31.8276 93.1584 31.924 93.155 32.0204C93.1517 32.1168 93.1466 32.2032 93.1399 32.2797C93.1365 32.3528 93.1332 32.4093 93.1298 32.4492H93.15L95.1285 29.5021H95.6319V33.0626H95.209V31.1277C95.209 31.038 95.2107 30.9416 95.2141 30.8385C95.2174 30.7321 95.2208 30.6307 95.2242 30.5343C95.2309 30.4346 95.2359 30.3465 95.2393 30.27C95.2426 30.1936 95.246 30.1371 95.2493 30.1005H95.2292L93.2456 33.0626H92.7422V29.5021Z" fill="#003BCE"/>
<path d="M91.2517 33.0626H90.7986V31.402H88.956V33.0626H88.5029V29.5021H88.956V31.0081H90.7986V29.5021H91.2517V33.0626Z" fill="#003BCE"/>
<path d="M87.2109 33.0626H85.2021V29.5021H87.2109V29.896H85.6552V31.0081H87.1203V31.397H85.6552V32.6686H87.2109V33.0626Z" fill="#003BCE"/>
<path d="M83.7214 33.0626H83.2683V29.896H82.1305C82.107 30.0789 82.0818 30.2717 82.055 30.4745C82.0281 30.674 81.9996 30.8718 81.9694 31.0679C81.9426 31.2641 81.9157 31.4486 81.8889 31.6214C81.862 31.7943 81.8352 31.9456 81.8083 32.0752C81.7647 32.298 81.711 32.4875 81.6472 32.6437C81.5834 32.8 81.4979 32.918 81.3905 32.9978C81.2864 33.0776 81.1488 33.1175 80.9776 33.1175C80.9206 33.1175 80.8618 33.1108 80.8014 33.0975C80.7444 33.0875 80.694 33.0742 80.6504 33.0576V32.6836C80.6873 32.7002 80.7293 32.7152 80.7763 32.7285C80.8232 32.7385 80.8736 32.7434 80.9273 32.7434C81.028 32.7434 81.1068 32.7036 81.1639 32.6238C81.2243 32.5407 81.2713 32.4393 81.3049 32.3196C81.3384 32.1966 81.367 32.0752 81.3905 31.9555C81.4106 31.8591 81.4341 31.7311 81.4609 31.5716C81.4878 31.4087 81.5163 31.2192 81.5465 31.0031C81.5801 30.787 81.6136 30.5526 81.6472 30.3C81.6841 30.044 81.7194 29.778 81.7529 29.5021H83.7214V33.0626Z" fill="#003BCE"/>
<path d="M78.3835 29.5021C78.6822 29.5021 78.9322 29.5303 79.1336 29.5868C79.3383 29.6434 79.491 29.7365 79.5917 29.8661C79.6958 29.9958 79.7478 30.1686 79.7478 30.3847C79.7478 30.5244 79.7209 30.649 79.6672 30.7587C79.6169 30.8651 79.5397 30.9549 79.4357 31.028C79.335 31.0978 79.2108 31.146 79.0631 31.1726V31.1976C79.2141 31.2208 79.3501 31.2641 79.4709 31.3272C79.5951 31.3904 79.6924 31.4801 79.7629 31.5965C79.8334 31.7129 79.8686 31.8641 79.8686 32.0503C79.8686 32.2664 79.8183 32.4509 79.7176 32.6038C79.6169 32.7534 79.4726 32.8681 79.2846 32.9479C79.1 33.0244 78.8785 33.0626 78.6201 33.0626H77.3564V29.5021H78.3835ZM78.4741 31.018C78.7829 31.018 78.9943 30.9698 79.1084 30.8734C79.2225 30.7737 79.2796 30.6274 79.2796 30.4346C79.2796 30.2384 79.2091 30.0988 79.0681 30.0157C78.9305 29.9293 78.709 29.8861 78.4036 29.8861H77.8095V31.018H78.4741ZM77.8095 31.392V32.6836H78.5345C78.8533 32.6836 79.0749 32.6221 79.199 32.4991C79.3232 32.3761 79.3853 32.2149 79.3853 32.0154C79.3853 31.8891 79.3568 31.7793 79.2997 31.6863C79.246 31.5932 79.1537 31.5217 79.0228 31.4718C78.8953 31.4186 78.7208 31.392 78.4993 31.392H77.8095Z" fill="#003BCE"/>
<path d="M74.7197 31.5865L73.7884 33.0626H73.2598L74.2666 31.5067C74.1391 31.4635 74.0183 31.4037 73.9042 31.3272C73.7934 31.2508 73.7028 31.146 73.6323 31.0131C73.5618 30.8801 73.5266 30.7089 73.5266 30.4994C73.5266 30.1769 73.639 29.9309 73.8639 29.7614C74.0888 29.5885 74.4244 29.5021 74.8708 29.5021H75.8777V33.0626H75.4246V31.5865H74.7197ZM74.8808 29.8861C74.6895 29.8861 74.5284 29.9077 74.3975 29.9509C74.2666 29.9941 74.166 30.0623 74.0955 30.1553C74.0283 30.2484 73.9948 30.3698 73.9948 30.5194C73.9948 30.7388 74.0686 30.9083 74.2163 31.028C74.364 31.1477 74.5922 31.2075 74.901 31.2075H75.4246V29.8861H74.8808Z" fill="#003BCE"/>
<path d="M70.0359 33.0626V29.896H69.2002V29.5021H70.484V31.0081H71.0529C71.3885 31.0081 71.6536 31.0529 71.8483 31.1427C72.043 31.2325 72.1806 31.3538 72.2611 31.5067C72.345 31.6597 72.387 31.8309 72.387 32.0204C72.387 32.2298 72.3417 32.4127 72.251 32.5689C72.1604 32.7252 72.0211 32.8465 71.8332 32.9329C71.6486 33.0194 71.4086 33.0626 71.1133 33.0626H70.0359ZM71.068 32.6786C71.36 32.6786 71.5748 32.6254 71.7124 32.519C71.85 32.4093 71.9188 32.2431 71.9188 32.0204C71.9188 31.8674 71.8852 31.7461 71.8181 31.6563C71.751 31.5633 71.6486 31.4968 71.511 31.4569C71.3767 31.417 71.2056 31.397 70.9975 31.397H70.484V32.6786H71.068Z" fill="#003BCE"/>
<path d="M66.0469 33.0626V29.5021H68.1815V29.896H66.5V31.0081H67.0336C67.3927 31.0081 67.6713 31.0529 67.8693 31.1427C68.0673 31.2291 68.205 31.3488 68.2822 31.5018C68.3593 31.6514 68.3979 31.8242 68.3979 32.0204C68.3979 32.2365 68.3543 32.4226 68.267 32.5789C68.1831 32.7351 68.0455 32.8548 67.8542 32.9379C67.6629 33.021 67.4112 33.0626 67.0991 33.0626H66.0469ZM67.0538 32.6786C67.376 32.6786 67.6025 32.6254 67.7334 32.519C67.8643 32.4093 67.9297 32.2431 67.9297 32.0204C67.9297 31.8674 67.8979 31.7461 67.8341 31.6563C67.7737 31.5633 67.673 31.4968 67.532 31.4569C67.3944 31.417 67.2098 31.397 66.9782 31.397H66.5V32.6786H67.0538Z" fill="#003BCE"/>
<path d="M64.7474 31.2773C64.7474 31.5532 64.7121 31.8042 64.6416 32.0303C64.5712 32.253 64.4654 32.4458 64.3245 32.6087C64.1869 32.7716 64.014 32.8963 63.8059 32.9827C63.6012 33.0692 63.3629 33.1124 63.091 33.1124C62.8091 33.1124 62.5641 33.0692 62.356 32.9827C62.1479 32.893 61.9751 32.7683 61.8375 32.6087C61.6999 32.4458 61.5975 32.2513 61.5304 32.0253C61.4633 31.7992 61.4297 31.5482 61.4297 31.2723C61.4297 30.9066 61.4901 30.5874 61.6109 30.3148C61.7318 30.0422 61.9147 29.8295 62.1597 29.6765C62.408 29.5236 62.7202 29.4471 63.0961 29.4471C63.4552 29.4471 63.7573 29.5236 64.0023 29.6765C64.2473 29.8261 64.4319 30.0389 64.5561 30.3148C64.6836 30.5874 64.7474 30.9083 64.7474 31.2773ZM61.908 31.2773C61.908 31.5765 61.9499 31.8341 62.0338 32.0502C62.1177 32.2663 62.2469 32.4325 62.4215 32.5489C62.5993 32.6652 62.8225 32.7234 63.091 32.7234C63.3629 32.7234 63.5844 32.6652 63.7556 32.5489C63.9301 32.4325 64.0593 32.2663 64.1432 32.0502C64.2271 31.8341 64.2691 31.5765 64.2691 31.2773C64.2691 30.8285 64.1751 30.4777 63.9872 30.2251C63.7992 29.9691 63.5022 29.8411 63.0961 29.8411C62.8242 29.8411 62.5993 29.8993 62.4215 30.0156C62.2469 30.1287 62.1177 30.2932 62.0338 30.5093C61.9499 30.7221 61.908 30.9781 61.908 31.2773Z" fill="#003BCE"/>
<path d="M58.7878 33.0626H58.2743L57.3228 31.5167L56.3562 33.0626H55.8779L57.0711 31.2075L55.9534 29.5021H56.4569L57.3379 30.8984L58.224 29.5021H58.7022L57.5896 31.1976L58.7878 33.0626Z" fill="#003BCE"/>
<path d="M51.5215 33.0626V29.5021H51.9746V31.0081H52.5284C52.864 31.0081 53.1275 31.0529 53.3188 31.1427C53.5134 31.2325 53.651 31.3538 53.7316 31.5067C53.8155 31.6597 53.8574 31.8309 53.8574 32.0204C53.8574 32.2298 53.8121 32.4127 53.7215 32.5689C53.6343 32.7252 53.4967 32.8465 53.3087 32.9329C53.1207 33.0194 52.8791 33.0626 52.5837 33.0626H51.5215ZM52.5435 32.6836C52.8321 32.6836 53.0452 32.6288 53.1828 32.519C53.3204 32.4093 53.3892 32.2431 53.3892 32.0204C53.3892 31.8674 53.3557 31.7461 53.2886 31.6563C53.2248 31.5666 53.1258 31.5018 52.9915 31.4619C52.8573 31.422 52.6861 31.402 52.478 31.402H51.9746V32.6836H52.5435ZM54.4112 33.0626V29.5021H54.8643V33.0626H54.4112Z" fill="#003BCE"/>
<path d="M50.0349 33.0626H49.5818V31.402H47.7392V33.0626H47.2861V29.5021H47.7392V31.0081H49.5818V29.5021H50.0349V33.0626Z" fill="#003BCE"/>
<path d="M45.1236 33.0626H44.6705V29.896H43.5479V29.5021H46.2413V29.896H45.1236V33.0626Z" fill="#003BCE"/>
<path d="M42.8766 33.0625L42.4436 31.9605H41.0189L40.5909 33.0625H40.1328L41.5374 29.4871H41.9452L43.3448 33.0625H42.8766ZM41.9049 30.4844C41.8949 30.4578 41.8781 30.4096 41.8546 30.3398C41.8311 30.27 41.8076 30.1985 41.7841 30.1254C41.764 30.0489 41.7472 29.9907 41.7338 29.9508C41.717 30.0173 41.6985 30.0855 41.6784 30.1553C41.6616 30.2218 41.6431 30.2833 41.623 30.3398C41.6062 30.3963 41.5911 30.4445 41.5777 30.4844L41.1699 31.5615H42.3077L41.9049 30.4844Z" fill="#003BCE"/>
<path d="M39.1403 33.0626H38.6872V29.896H37.5495C37.526 30.0789 37.5008 30.2717 37.4739 30.4745C37.4471 30.674 37.4186 30.8718 37.3883 31.0679C37.3615 31.2641 37.3346 31.4486 37.3078 31.6214C37.2809 31.7943 37.2541 31.9456 37.2273 32.0752C37.1836 32.298 37.1299 32.4875 37.0661 32.6437C37.0024 32.8 36.9168 32.918 36.8094 32.9978C36.7053 33.0776 36.5677 33.1175 36.3966 33.1175C36.3395 33.1175 36.2808 33.1108 36.2204 33.0975C36.1633 33.0875 36.113 33.0742 36.0693 33.0576V32.6836C36.1063 32.7002 36.1482 32.7152 36.1952 32.7285C36.2422 32.7385 36.2925 32.7434 36.3462 32.7434C36.4469 32.7434 36.5258 32.7036 36.5828 32.6238C36.6433 32.5407 36.6902 32.4393 36.7238 32.3196C36.7574 32.1966 36.7859 32.0752 36.8094 31.9555C36.8295 31.8591 36.853 31.7311 36.8799 31.5716C36.9067 31.4087 36.9353 31.2192 36.9655 31.0031C36.999 30.787 37.0326 30.5526 37.0661 30.3C37.1031 30.044 37.1383 29.778 37.1719 29.5021H39.1403V33.0626Z" fill="#003BCE"/>
<path d="M32.3672 33.0626V29.5021H35.0656V33.0626H34.6176V29.896H32.8203V33.0626H32.3672Z" fill="#003BCE"/>
<path d="M30.2237 29.8462C30.0324 29.8462 29.8596 29.8795 29.7052 29.946C29.5508 30.0091 29.4199 30.1039 29.3125 30.2302C29.2051 30.3532 29.1229 30.5045 29.0658 30.684C29.0087 30.8602 28.9802 31.0597 28.9802 31.2824C28.9802 31.575 29.0255 31.8293 29.1161 32.0454C29.2101 32.2615 29.3477 32.4277 29.529 32.544C29.7136 32.6604 29.9435 32.7186 30.2187 32.7186C30.3764 32.7186 30.5258 32.7053 30.6667 32.6787C30.8077 32.6521 30.9453 32.6188 31.0796 32.5789V32.9679C30.9453 33.0178 30.806 33.0543 30.6617 33.0776C30.5207 33.1009 30.3513 33.1125 30.1532 33.1125C29.7874 33.1125 29.482 33.0377 29.237 32.8881C28.992 32.7385 28.8074 32.5258 28.6832 32.2498C28.5624 31.9739 28.502 31.6498 28.502 31.2774C28.502 31.0081 28.5389 30.7621 28.6127 30.5394C28.6899 30.3166 28.8007 30.1238 28.945 29.9609C29.0927 29.798 29.2739 29.6733 29.4887 29.5869C29.7035 29.4972 29.9502 29.4523 30.2288 29.4523C30.4133 29.4523 30.5912 29.4706 30.7624 29.5071C30.9336 29.5437 31.0863 29.5952 31.2205 29.6617L31.0393 30.0407C30.9285 29.9908 30.8044 29.946 30.6667 29.9061C30.5325 29.8662 30.3848 29.8462 30.2237 29.8462Z" fill="#003BCE"/>
<path d="M27.3906 33.0626H25.3818V29.5021H27.3906V29.896H25.8349V31.0081H27.2999V31.397H25.8349V32.6686H27.3906V33.0626Z" fill="#003BCE"/>
<path d="M21.7812 33.0626V29.5021H23.9158V29.896H22.2343V31.0081H22.768C23.1271 31.0081 23.4057 31.0529 23.6037 31.1427C23.8017 31.2291 23.9393 31.3488 24.0165 31.5018C24.0937 31.6514 24.1323 31.8242 24.1323 32.0204C24.1323 32.2365 24.0887 32.4226 24.0014 32.5789C23.9175 32.7351 23.7799 32.8548 23.5886 32.9379C23.3973 33.021 23.1456 33.0626 22.8334 33.0626H21.7812ZM22.7881 32.6786C23.1103 32.6786 23.3369 32.6254 23.4678 32.519C23.5987 32.4093 23.6641 32.2431 23.6641 32.0204C23.6641 31.8674 23.6322 31.7461 23.5685 31.6563C23.5081 31.5633 23.4074 31.4968 23.2664 31.4569C23.1288 31.417 22.9442 31.397 22.7126 31.397H22.2343V32.6786H22.7881Z" fill="#003BCE"/>
<path d="M18.5064 33.0625L18.0735 31.9605H16.6488L16.2208 33.0625H15.7627L17.1673 29.4871H17.5751L18.9746 33.0625H18.5064ZM17.5348 30.4844C17.5247 30.4578 17.508 30.4096 17.4845 30.3398C17.461 30.27 17.4375 30.1985 17.414 30.1254C17.3938 30.0489 17.3771 29.9907 17.3636 29.9508C17.3469 30.0173 17.3284 30.0855 17.3083 30.1553C17.2915 30.2218 17.273 30.2833 17.2529 30.3398C17.2361 30.3963 17.221 30.4445 17.2076 30.4844L16.7998 31.5615H17.9376L17.5348 30.4844Z" fill="#003BCE"/>
<path d="M15.2587 33.0626H14.715L13.0888 31.2574V33.0626H12.6357V29.5021H13.0888V31.2275L14.6747 29.5021H15.1882L13.6275 31.2325L15.2587 33.0626Z" fill="#003BCE"/>
<path d="M10.4913 29.8462C10.3 29.8462 10.1271 29.8795 9.97275 29.946C9.81837 30.0091 9.68747 30.1039 9.58007 30.2302C9.47267 30.3532 9.39044 30.5045 9.33338 30.684C9.27633 30.8602 9.2478 31.0597 9.2478 31.2824C9.2478 31.575 9.29311 31.8293 9.38373 32.0454C9.4777 32.2615 9.61531 32.4277 9.79655 32.544C9.98115 32.6604 10.211 32.7186 10.4863 32.7186C10.644 32.7186 10.7934 32.7053 10.9343 32.6787C11.0753 32.6521 11.2129 32.6188 11.3471 32.5789V32.9679C11.2129 33.0178 11.0736 33.0543 10.9293 33.0776C10.7883 33.1009 10.6188 33.1125 10.4208 33.1125C10.055 33.1125 9.74956 33.0377 9.50455 32.8881C9.25955 32.7385 9.07495 32.5258 8.95077 32.2498C8.82994 31.9739 8.76953 31.6498 8.76953 31.2774C8.76953 31.0081 8.80645 30.7621 8.88029 30.5394C8.95748 30.3166 9.06824 30.1238 9.21256 29.9609C9.36023 29.798 9.54147 29.6733 9.75627 29.5869C9.97108 29.4972 10.2178 29.4523 10.4963 29.4523C10.6809 29.4523 10.8588 29.4706 11.03 29.5071C11.2012 29.5437 11.3539 29.5952 11.4881 29.6617L11.3069 30.0407C11.1961 29.9908 11.0719 29.946 10.9343 29.9061C10.8001 29.8662 10.6524 29.8462 10.4913 29.8462Z" fill="#003BCE"/>
<path d="M7.65068 31.2774C7.65068 31.5533 7.61544 31.8043 7.54496 32.0304C7.47448 32.2531 7.36876 32.4459 7.22779 32.6088C7.09019 32.7717 6.91734 32.8964 6.70925 32.9829C6.50452 33.0693 6.26622 33.1125 5.99436 33.1125C5.71244 33.1125 5.46743 33.0693 5.25934 32.9829C5.05125 32.8931 4.8784 32.7684 4.74079 32.6088C4.60319 32.4459 4.50082 32.2515 4.4337 32.0254C4.36657 31.7993 4.33301 31.5483 4.33301 31.2724C4.33301 30.9067 4.39342 30.5876 4.51425 30.315C4.63507 30.0423 4.81799 29.8296 5.063 29.6767C5.31136 29.5237 5.62349 29.4473 5.9994 29.4473C6.35852 29.4473 6.66058 29.5237 6.90559 29.6767C7.1506 29.8263 7.33519 30.039 7.45938 30.315C7.58691 30.5876 7.65068 30.9084 7.65068 31.2774ZM4.81128 31.2774C4.81128 31.5766 4.85323 31.8342 4.93714 32.0503C5.02104 32.2664 5.15026 32.4327 5.32479 32.549C5.50267 32.6654 5.72586 32.7235 5.99436 32.7235C6.26622 32.7235 6.48773 32.6654 6.6589 32.549C6.83343 32.4327 6.96265 32.2664 7.04655 32.0503C7.13046 31.8342 7.17241 31.5766 7.17241 31.2774C7.17241 30.8286 7.07844 30.4779 6.89049 30.2252C6.70254 29.9692 6.40551 29.8412 5.9994 29.8412C5.72754 29.8412 5.50267 29.8994 5.32479 30.0158C5.15026 30.1288 5.02104 30.2933 4.93714 30.5094C4.85323 30.7222 4.81128 30.9782 4.81128 31.2774Z" fill="#003BCE"/>
<path d="M2.95195 29.5021V32.6637H3.41008V34.0001H2.97712V33.0626H0.505225V34.0001H0.0722656V32.6637H0.349158C0.469984 32.4575 0.584097 32.2265 0.691498 31.9705C0.802255 31.7145 0.899587 31.4469 0.983493 31.1676C1.0674 30.8851 1.1362 30.6025 1.1899 30.3199C1.2436 30.0373 1.27717 29.7647 1.29059 29.5021H2.95195ZM1.68831 29.906C1.67489 30.0988 1.64132 30.3166 1.58762 30.5593C1.53728 30.8019 1.47183 31.0513 1.39128 31.3073C1.31409 31.5599 1.22682 31.8043 1.12949 32.0403C1.03552 32.2764 0.934827 32.4841 0.827427 32.6637H2.50388V29.906H1.68831Z" fill="#003BCE"/>
</svg>
