<svg width="271" height="33" viewBox="0 0 271 33" fill="none" xmlns="http://www.w3.org/2000/svg">
<path d="M139.648 32L138.4 27.92H132.16L130.912 32H127L133.048 14.792H137.488L143.56 32H139.648ZM136.288 20.888C136.208 20.616 136.104 20.272 135.976 19.856C135.848 19.44 135.72 19.016 135.592 18.584C135.464 18.152 135.36 17.776 135.28 17.456C135.2 17.776 135.088 18.176 134.944 18.656C134.816 19.12 134.688 19.568 134.56 20C134.448 20.416 134.36 20.712 134.296 20.888L133.072 24.872H137.536L136.288 20.888ZM151.058 14.864C152.578 14.864 153.85 15.008 154.874 15.296C155.914 15.568 156.69 16.024 157.202 16.664C157.73 17.288 157.994 18.136 157.994 19.208C157.994 19.848 157.89 20.432 157.682 20.96C157.474 21.488 157.17 21.92 156.77 22.256C156.386 22.592 155.914 22.808 155.354 22.904V23.024C155.93 23.136 156.45 23.336 156.914 23.624C157.378 23.912 157.746 24.328 158.018 24.872C158.29 25.416 158.426 26.136 158.426 27.032C158.426 28.072 158.17 28.968 157.658 29.72C157.162 30.456 156.442 31.024 155.498 31.424C154.554 31.808 153.434 32 152.138 32H145.73V14.864H151.058ZM151.466 21.656C152.522 21.656 153.25 21.488 153.65 21.152C154.066 20.816 154.274 20.328 154.274 19.688C154.274 19.032 154.034 18.56 153.554 18.272C153.074 17.984 152.314 17.84 151.274 17.84H149.354V21.656H151.466ZM149.354 24.536V29H151.73C152.818 29 153.578 28.792 154.01 28.376C154.442 27.944 154.658 27.376 154.658 26.672C154.658 26.24 154.562 25.864 154.37 25.544C154.194 25.224 153.882 24.976 153.434 24.8C152.986 24.624 152.378 24.536 151.61 24.536H149.354ZM168.455 32H164.831V17.888H160.175V14.864H173.111V17.888H168.455V32ZM190.837 23.408C190.837 24.736 190.669 25.944 190.333 27.032C190.013 28.104 189.517 29.032 188.845 29.816C188.189 30.6 187.341 31.2 186.301 31.616C185.277 32.032 184.069 32.24 182.677 32.24C181.285 32.24 180.069 32.032 179.029 31.616C178.005 31.184 177.157 30.584 176.485 29.816C175.829 29.032 175.333 28.096 174.997 27.008C174.677 25.92 174.517 24.712 174.517 23.384C174.517 21.608 174.805 20.064 175.381 18.752C175.973 17.44 176.869 16.424 178.069 15.704C179.285 14.968 180.829 14.6 182.701 14.6C184.557 14.6 186.085 14.968 187.285 15.704C188.485 16.424 189.373 17.448 189.949 18.776C190.541 20.088 190.837 21.632 190.837 23.408ZM178.333 23.408C178.333 24.608 178.485 25.64 178.789 26.504C179.093 27.368 179.565 28.032 180.205 28.496C180.845 28.96 181.669 29.192 182.677 29.192C183.717 29.192 184.549 28.96 185.173 28.496C185.813 28.032 186.277 27.368 186.565 26.504C186.869 25.64 187.021 24.608 187.021 23.408C187.021 21.6 186.685 20.184 186.013 19.16C185.341 18.136 184.237 17.624 182.701 17.624C181.677 17.624 180.845 17.856 180.205 18.32C179.565 18.784 179.093 19.448 178.789 20.312C178.485 21.176 178.333 22.208 178.333 23.408ZM209.939 23.408C209.939 24.736 209.771 25.944 209.435 27.032C209.115 28.104 208.619 29.032 207.947 29.816C207.291 30.6 206.443 31.2 205.403 31.616C204.379 32.032 203.171 32.24 201.779 32.24C200.387 32.24 199.171 32.032 198.131 31.616C197.107 31.184 196.259 30.584 195.587 29.816C194.931 29.032 194.435 28.096 194.099 27.008C193.779 25.92 193.619 24.712 193.619 23.384C193.619 21.608 193.907 20.064 194.483 18.752C195.075 17.44 195.971 16.424 197.171 15.704C198.387 14.968 199.931 14.6 201.803 14.6C203.659 14.6 205.187 14.968 206.387 15.704C207.587 16.424 208.475 17.448 209.051 18.776C209.643 20.088 209.939 21.632 209.939 23.408ZM197.435 23.408C197.435 24.608 197.587 25.64 197.891 26.504C198.195 27.368 198.667 28.032 199.307 28.496C199.947 28.96 200.771 29.192 201.779 29.192C202.819 29.192 203.651 28.96 204.275 28.496C204.915 28.032 205.379 27.368 205.667 26.504C205.971 25.64 206.123 24.608 206.123 23.408C206.123 21.6 205.787 20.184 205.115 19.16C204.443 18.136 203.339 17.624 201.803 17.624C200.779 17.624 199.947 17.856 199.307 18.32C198.667 18.784 198.195 19.448 197.891 20.312C197.587 21.176 197.435 22.208 197.435 23.408ZM219.362 32H215.738V17.888H211.082V14.864H224.018V17.888H219.362V32ZM239.812 32H236.188V25.376C235.18 25.728 234.252 25.992 233.404 26.168C232.572 26.344 231.732 26.432 230.884 26.432C229.284 26.432 228.028 26.048 227.116 25.28C226.22 24.496 225.772 23.384 225.772 21.944V14.864H229.396V20.912C229.396 21.744 229.588 22.368 229.972 22.784C230.356 23.2 231.004 23.408 231.916 23.408C232.588 23.408 233.26 23.336 233.932 23.192C234.604 23.048 235.356 22.832 236.188 22.544V14.864H239.812V32ZM253.985 32H244.121V14.864H253.985V17.84H247.745V21.608H253.553V24.584H247.745V29H253.985V32ZM245.153 11.504C245.153 10.944 245.313 10.544 245.633 10.304C245.953 10.048 246.337 9.92 246.785 9.92C247.233 9.92 247.617 10.048 247.937 10.304C248.273 10.544 248.441 10.944 248.441 11.504C248.441 12.032 248.273 12.424 247.937 12.68C247.617 12.936 247.233 13.064 246.785 13.064C246.337 13.064 245.953 12.936 245.633 12.68C245.313 12.424 245.153 12.032 245.153 11.504ZM249.881 11.504C249.881 10.944 250.041 10.544 250.361 10.304C250.681 10.048 251.073 9.92 251.537 9.92C251.985 9.92 252.369 10.048 252.689 10.304C253.025 10.544 253.193 10.944 253.193 11.504C253.193 12.032 253.025 12.424 252.689 12.68C252.369 12.936 251.985 13.064 251.537 13.064C251.089 13.064 250.697 12.936 250.361 12.68C250.041 12.424 249.881 12.032 249.881 11.504ZM264.151 32H260.527V17.888H255.871V14.864H268.807V17.888H264.151V32Z" fill="#3366FF"/>
<path d="M23.9997 0V31.9997H15.9997V23.9997H8V31.9997H0V7.99972L8 0H23.9997ZM16.0003 16V8.00001H7.81153L8 16H16.0003Z" fill="#3366FF"/>
<path d="M52.1055 23.9997V31.9997H28.1055V0H36.1055V23.9997H52.1055Z" fill="#3366FF"/>
<path d="M64.1065 32H56.2129V0H64.1065V32Z" fill="#3366FF"/>
<path d="M76.1057 23.9994H84.1057V15.9997H92.1057V32H68.1055V0H92.1057V8.00028H76.1057V23.9994Z" fill="#3366FF"/>
<path d="M111.894 32H96V0H120L120 23.9997L111.894 32ZM112 8.00057H104V23.9997H111.988L112 8.00057Z" fill="#F567F9"/>
</svg>
