<svg width="63" height="57" viewBox="0 0 63 57" fill="none" xmlns="http://www.w3.org/2000/svg">
<path fill-rule="evenodd" clip-rule="evenodd" d="M15.0168 11.2515C19.8906 7.79566 26.0575 6.00246 32.3694 6.25824C38.6812 6.51402 44.6259 8.79759 49.1092 12.6195C53.5854 16.4354 56.2846 21.5045 56.8089 26.8548C57.3329 32.2006 55.662 37.5755 52.0257 41.9846C48.3811 46.4038 42.9997 49.5559 36.8417 50.7752C30.6831 51.9946 24.2442 51.1806 18.7396 48.5097C18.1973 48.2465 17.5827 48.1717 16.9931 48.2971L6.77922 50.4691L9.38726 42.6492C9.6539 41.8497 9.53336 40.9717 9.06112 40.2736C5.90562 35.6092 4.78879 30.134 5.85957 24.8467C6.93203 19.5512 10.1488 14.7032 15.0168 11.2515ZM3.31882 56.7454C3.07252 56.8024 2.81663 56.8253 2.55816 56.8106C2.22565 56.7921 1.90436 56.7123 1.60828 56.5802C1.24888 56.4207 0.938889 56.1899 0.689653 55.9105C0.43965 55.6313 0.244872 55.297 0.126642 54.9216C0.0286929 54.6127 -0.0145583 54.2847 0.00433456 53.9523C0.0187186 53.6939 0.0701705 53.4422 0.154423 53.2038L3.83688 42.1624C0.453489 36.5814 -0.732313 30.0935 0.548112 23.7711C1.91566 17.0185 5.98064 11.0154 11.8822 6.83074C17.7781 2.6502 25.1357 0.541375 32.5888 0.843404C40.042 1.14544 47.1658 3.84156 52.6249 8.49536C58.091 13.1551 61.5315 19.4809 62.2024 26.3262C62.8737 33.1758 60.7141 39.9671 56.2066 45.4327C51.7073 50.8883 45.1855 54.6476 37.8943 56.0913C30.9182 57.4725 23.6212 56.6599 17.2326 53.7866L3.31882 56.7454ZM24.3225 23.1452C24.3225 21.4082 22.9072 20 21.1612 20C19.4153 20 18 21.4082 18 23.1452V23.1773C18 24.9143 19.4153 26.3225 21.1612 26.3225C22.9072 26.3225 24.3225 24.9143 24.3225 23.1773V23.1452ZM29.6116 37.313C26.7465 36.8164 24.1753 35.0695 22.7225 33.5987C21.8502 32.7157 20.4341 32.7138 19.5595 33.5944C18.6849 34.4751 18.683 35.9049 19.5553 36.7879C21.4689 38.7251 24.8385 41.068 28.8547 41.7641C33.0426 42.4901 37.7387 41.3774 41.8284 36.6851C42.6444 35.7488 42.5541 34.322 41.6269 33.4981C40.6996 32.6742 39.2864 32.7653 38.4704 33.7015C35.4311 37.1886 32.3051 37.7799 29.6116 37.313ZM43.2893 23.1452C43.2893 21.4082 41.874 20 40.128 20C38.3821 20 36.9668 21.4082 36.9668 23.1452V23.1773C36.9668 24.9143 38.3821 26.3225 40.128 26.3225C41.874 26.3225 43.2893 24.9143 43.2893 23.1773V23.1452Z" fill="#D6EFFF"/>
</svg>
