<svg width="260" height="100" viewBox="0 0 260 100" fill="none" xmlns="http://www.w3.org/2000/svg">
<mask id="mask0_5473_29242" style="mask-type:alpha" maskUnits="userSpaceOnUse" x="0" y="0" width="260" height="100">
<path d="M0 0H254C257.314 0 260 2.68629 260 6V94C260 97.3137 257.314 100 254 100H0V0Z" fill="#D6EFFF"/>
</mask>
<g mask="url(#mask0_5473_29242)">
<mask id="mask1_5473_29242" style="mask-type:luminance" maskUnits="userSpaceOnUse" x="0" y="0" width="260" height="100">
<path d="M260 0H0V100H260V0Z" fill="white"/>
</mask>
<g mask="url(#mask1_5473_29242)">
<path d="M3.33325 100C3.33325 100 15.6643 68.278 22.7639 64.271C29.8636 60.264 41.0736 79.7977 41.0736 79.7977C41.0736 79.7977 53.4046 55.2554 54.5256 53.7527C55.6466 52.25 75.0772 39.7284 77.3189 39.2277C79.5609 38.7267 103.475 59.2624 103.475 59.2624L114.685 58.2607L125.522 42.734L147.941 26.7064C147.941 26.7064 174.098 19.6944 175.219 19.6944C176.34 19.6944 201.954 32.986 203.617 37.7254C205 41.6667 210.667 28.3334 210.667 28.3334C210.667 28.3334 215.353 16.7414 219 16C223.051 15.1767 231.642 24.202 233.884 23.2004C236.126 22.1987 242.449 4.67969 248.457 3.66669C251.927 3.08169 260 12.1814 260 12.1814V100H3.33325Z" fill="#A4DCFF"/>
<path d="M13.6665 100C13.6665 100 17.9998 87.427 21.6665 86.421C25.3332 85.415 27.9998 88.4327 28.6665 88.4327C29.3332 88.4327 33.3835 78.105 36.1915 77.8623C38.9995 77.6197 47.3332 87.1757 50.6665 85.4153C53.9998 83.655 57.2862 77.0317 57.2862 77.0317C57.2862 77.0317 62.9998 67.31 70.3332 72.3393C77.6665 77.3687 86.3028 83.952 94.6515 83.4263C103 82.9007 115.666 57.2517 122 54.9887C128.333 52.7257 133.512 62.1077 134 62.5323C138.333 66.3043 142 61.0237 143.666 59.7663C145.333 58.509 146.333 49.708 151.666 49.4563C157 49.2047 162.498 57.7203 167.323 58.425C170.377 58.871 174.666 55.4917 176.666 52.2227C178.666 48.9537 187 40.1527 191.333 41.41C195.666 42.6673 199 46.4393 202.333 45.4333C205.666 44.4273 207.333 35.6263 216.666 41.913C226 48.1997 227.666 50.714 233 49.4567C238.333 48.1993 246 41.6613 248.333 42.9187C250.666 44.176 259.666 49.2053 259.666 49.2053L260 100H13.6665Z" fill="#75CAFF"/>
<path d="M194.702 97.722H158.169V108.309H194.702V97.722Z" fill="#787878"/>
<path opacity="0.5" d="M194.702 97.722H158.169V100.279H194.702V97.722Z" fill="#787878"/>
<path d="M144.562 105.018L158.169 108.309V97.722L144.562 101.012V105.018Z" fill="#787878"/>
<path opacity="0.5" d="M144.562 101.98L158.169 100.279V97.722L144.562 101.012V101.98Z" fill="#787878"/>
<path d="M144.562 105.018L158.169 108.309V97.722L144.562 101.012V105.018Z" fill="#323232"/>
<path d="M196.559 105.018L194.702 108.309V97.722L196.559 101.012V105.018Z" fill="#787878"/>
<path opacity="0.5" d="M196.559 101.98L194.702 100.279V97.722L196.559 101.012V101.98Z" fill="#787878"/>
<path d="M196.559 105.018L194.702 108.309V97.722L196.559 101.012V105.018Z" fill="#787878"/>
<path d="M48.8918 66.0763C33.9091 66.0763 21.7634 78.2223 21.7634 93.2046C21.7634 108.187 33.9091 120.333 48.8918 120.333C63.8744 120.333 76.0201 108.188 76.0201 93.2046C76.0201 78.2223 63.8744 66.0763 48.8918 66.0763ZM48.8918 111.226C38.9394 111.226 30.8711 103.157 30.8711 93.205C30.8711 83.2523 38.9391 75.1846 48.8918 75.1846C58.8441 75.1846 66.9124 83.2526 66.9124 93.205C66.9121 103.157 58.8441 111.226 48.8918 111.226Z" fill="#323232"/>
<path d="M48.8919 74.4739C38.5472 74.4739 30.1609 82.8602 30.1609 93.2045C30.1609 103.549 38.5469 111.936 48.8919 111.936C59.2366 111.936 67.6226 103.549 67.6226 93.2045C67.6226 82.8599 59.2366 74.4739 48.8919 74.4739ZM48.8919 110.039C39.5942 110.039 32.0572 102.502 32.0572 93.2045C32.0572 83.9069 39.5942 76.3699 48.8919 76.3699C58.1896 76.3699 65.7266 83.9069 65.7266 93.2045C65.7262 102.502 58.1892 110.039 48.8919 110.039Z" fill="#808285"/>
<path d="M50.3196 68.4075C57.1166 68.4075 63.3006 71.0225 67.9323 75.2935C63.184 70.1502 56.389 66.9265 48.8386 66.9265C34.4903 66.9265 22.8596 78.5605 22.8596 92.9052C22.8596 100.458 26.0836 107.253 31.2273 112C26.9543 107.37 24.342 101.186 24.342 94.3892C24.3416 80.0422 35.9709 68.4075 50.3196 68.4075Z" fill="#808285"/>
<path d="M55.6582 99.972C59.3959 96.2343 59.3959 90.1744 55.6582 86.4367C51.9205 82.699 45.8606 82.699 42.1229 86.4367C38.3852 90.1744 38.3852 96.2343 42.1229 99.972C45.8606 103.71 51.9205 103.71 55.6582 99.972Z" fill="#808285"/>
<path d="M54.012 98.8867C57.1493 96.0566 57.3983 91.219 54.5682 88.0817C51.738 84.9444 46.9005 84.6953 43.7631 87.5255C40.6258 90.3556 40.3768 95.1932 43.2069 98.3305C46.0371 101.468 50.8747 101.717 54.012 98.8867Z" fill="#545454"/>
<path d="M53.6613 98.514C53.6613 96.2527 49.815 98.0867 48.877 98.0477C45.596 97.9204 44.4913 95.5104 44.516 92.5557C44.5233 91.611 44.691 90.4304 43.9313 89.7274C43.3863 89.2204 42.7143 89.5877 42.146 90.1557C43.288 87.5034 45.9243 85.649 48.994 85.649C53.113 85.649 56.4493 88.9891 56.4493 93.1051C56.4493 95.4861 55.3293 97.6017 53.5923 98.9677C53.6317 98.8251 53.6613 98.674 53.6613 98.514Z" fill="#A8A8A8"/>
<path d="M54.0511 93.0793C53.1787 91.488 51.1344 90.1713 49.4261 90.7357C48.3617 91.0853 47.5734 91.7733 46.6787 92.4047C44.633 93.863 43.657 91.7453 43.4424 89.9523C43.7904 88.858 44.4304 87.8667 45.3761 87.1247C48.0421 85.034 52.0461 85.6867 54.3221 88.5887C56.5954 91.487 56.2797 95.5373 53.6137 97.628L53.5224 97.68C54.5751 96.431 55.0487 94.8873 54.0511 93.0793Z" fill="#D6D6D6"/>
<path d="M150.636 93.2046C150.636 108.187 162.782 120.333 177.765 120.333C192.748 120.333 204.894 108.188 204.894 93.2046C204.894 78.2223 192.748 66.0763 177.765 66.0763C162.782 66.0763 150.636 78.2223 150.636 93.2046ZM159.744 93.2046C159.744 83.252 167.812 75.1843 177.765 75.1843C187.718 75.1843 195.786 83.2523 195.786 93.2046C195.786 103.157 187.718 111.225 177.765 111.225C167.812 111.226 159.744 103.157 159.744 93.2046Z" fill="#323232"/>
<path d="M177.765 74.4739C167.42 74.4739 159.034 82.8602 159.034 93.2045C159.034 103.549 167.42 111.936 177.765 111.936C188.11 111.936 196.496 103.549 196.496 93.2045C196.496 82.8599 188.11 74.4739 177.765 74.4739ZM177.765 110.039C168.467 110.039 160.93 102.502 160.93 93.2045C160.93 83.9069 168.467 76.3699 177.765 76.3699C187.063 76.3699 194.6 83.9069 194.6 93.2045C194.6 102.502 187.062 110.039 177.765 110.039Z" fill="#808285"/>
<path d="M180.009 102.508C185.147 101.266 188.305 96.0943 187.064 90.9563C185.822 85.8184 180.65 82.6599 175.512 83.9016C170.375 85.1432 167.216 90.3149 168.458 95.4528C169.699 100.591 174.871 103.749 180.009 102.508Z" fill="#808285"/>
<path d="M179.563 100.639C183.672 99.6504 186.201 95.5187 185.213 91.4104C184.224 87.3021 180.093 84.7729 175.984 85.7612C171.876 86.7495 169.347 90.8811 170.335 94.9894C171.323 99.0977 175.455 101.627 179.563 100.639Z" fill="#545454"/>
<path d="M99.5815 48.717H74.1821V52.2314H99.5815V48.717Z" fill="#323232"/>
<path d="M99.5815 48.717H74.1821V50.0747H99.5815V48.717Z" fill="#808285"/>
<path d="M139.278 106.467H91.5148C87.5932 106.467 84.4028 103.277 84.4028 99.3553V82.9317C84.4028 79.0097 87.5932 75.8193 91.5148 75.8193H101.2C102.128 75.8193 102.881 76.5717 102.881 77.5C102.881 78.4283 102.128 79.1803 101.2 79.1803H91.5148C89.4465 79.1803 87.7642 80.863 87.7642 82.9317V99.3553C87.7642 101.423 89.4468 103.106 91.5148 103.106H139.278C140.206 103.106 140.959 103.859 140.959 104.787C140.959 105.715 140.206 106.467 139.278 106.467Z" fill="#323232"/>
<path d="M144.155 69.5237H127.542C126.558 67.3434 124.369 65.8237 121.822 65.8237H92.4827C90.8163 65.8237 89.4653 67.1747 89.4653 68.8411V91.0224C89.4653 97.0461 94.3483 101.929 100.372 101.929H124.873C126.656 101.929 128.1 100.484 128.1 98.7014V83.4017H142.455C146.287 83.4017 151.094 80.2951 151.094 76.4627C151.093 72.6304 147.987 69.5237 144.155 69.5237Z" fill="#323232"/>
<path d="M155.548 73.5385C154.926 71.8715 153.627 70.5238 151.983 69.8415L79.5084 39.7395C78.6504 39.3811 77.6674 39.7888 77.3118 40.6468C76.9558 41.5041 77.3618 42.4878 78.2191 42.8435L126.688 62.9748L131.809 81.1221C132.682 84.2168 133.125 87.4171 133.125 90.6335V102.013C133.125 105.087 130.624 107.588 127.549 107.588H102.962C100.142 107.588 97.4831 106.353 95.6644 104.198L88.0504 95.1775C84.8784 91.4198 83.1318 86.6415 83.1318 81.7245V58.0588C83.1318 54.4258 80.1758 51.4701 76.5424 51.4701H72.0171C71.0888 51.4701 70.3364 52.2225 70.3364 53.1508C70.3364 54.0791 71.0888 54.8315 72.0171 54.8315H76.5424C78.3221 54.8315 79.7704 56.2791 79.7704 58.0588V81.7245C79.7704 87.4341 81.7984 92.9815 85.4814 97.3451L93.0954 106.366C95.5541 109.279 99.1501 110.95 102.962 110.95H127.549C132.477 110.95 136.486 106.94 136.486 102.013V90.6335C136.486 89.9241 136.461 89.2158 136.422 88.5085L144.017 87.1261C148.868 86.2435 153.079 83.0815 155.279 78.6671C156.072 77.0751 156.171 75.2055 155.548 73.5385ZM152.27 77.1681C150.54 80.6391 147.23 83.1251 143.414 83.8191L136.089 85.1521C135.848 83.4855 135.502 81.8341 135.043 80.2098L130.644 64.6181L150.694 72.9455C151.492 73.2771 152.098 73.9048 152.4 74.7141C152.701 75.5238 152.656 76.3948 152.27 77.1681Z" fill="#545454"/>
<path d="M155.549 73.5383C154.926 71.8713 153.627 70.5237 151.984 69.8413L79.5085 39.7393C78.6505 39.381 77.6675 39.7887 77.3118 40.6467C77.1288 41.087 77.1495 41.5593 77.3268 41.9643C77.6928 41.1267 78.6602 40.7307 79.5085 41.085L151.984 71.187C153.627 71.869 154.926 73.2167 155.549 74.8837C155.74 75.3953 155.855 75.9267 155.911 76.4627C156.013 75.4803 155.9 74.4773 155.549 73.5383ZM127.549 107.588H102.962C100.142 107.588 97.4829 106.353 95.6642 104.198L88.0502 95.1773C84.8782 91.4197 83.1315 86.6413 83.1315 81.7243V83.0697C83.1315 87.9867 84.8782 92.765 88.0502 96.5227L95.6642 105.544C97.4829 107.698 100.142 108.934 102.962 108.934H127.549C130.624 108.934 133.125 106.433 133.125 103.358V102.013C133.125 105.087 130.624 107.588 127.549 107.588ZM136.422 89.854C136.461 90.561 136.486 91.2693 136.486 91.9787V90.6333C136.486 90.3707 136.469 90.1087 136.462 89.8463L136.422 89.854ZM83.1315 58.0587C83.1315 54.4257 80.1755 51.47 76.5422 51.47H72.0168C71.0885 51.47 70.3362 52.2223 70.3362 53.1507C70.3362 53.3903 70.3882 53.617 70.4782 53.8233C70.7378 53.2303 71.3282 52.8153 72.0165 52.8153H76.5419C80.1749 52.8153 83.1312 55.771 83.1312 59.404V58.0587H83.1315ZM152.27 77.168C150.54 80.639 147.23 83.125 143.415 83.819L136.089 85.152C135.849 83.4853 135.502 81.834 135.044 80.2097L131.074 66.142L130.644 65.9633L135.043 81.5553C135.502 83.1797 135.849 84.831 136.089 86.4977L143.414 85.1647C147.23 84.4707 150.54 81.9847 152.27 78.5137C152.59 77.8727 152.662 77.166 152.51 76.4813C152.455 76.715 152.381 76.9463 152.27 77.168Z" fill="#808285"/>
<path d="M177.847 82.8407L128.124 86.5484C124.64 86.8081 121.945 89.7111 121.945 93.2047C121.945 96.6987 124.64 99.6017 128.124 99.8614L177.847 103.569C183.875 104.018 189.013 99.2494 189.013 93.2047C189.013 87.1607 183.875 82.3914 177.847 82.8407ZM178.228 99.8754L146.225 97.4894C143.982 97.3221 142.248 95.4537 142.248 93.2047C142.248 90.9561 143.982 89.0877 146.225 88.9204L178.228 86.5341C182.108 86.2447 185.415 89.3144 185.415 93.2047C185.415 97.0954 182.108 100.165 178.228 99.8754Z" fill="#323232"/>
<path d="M177.847 82.8407L128.124 86.5484C124.64 86.8081 121.945 89.7111 121.945 93.2047C121.945 93.4317 121.958 93.6561 121.98 93.8774C122.3 90.6904 124.867 88.1364 128.124 87.8934L177.847 84.1857C183.648 83.7534 188.611 88.1581 188.978 93.8771C188.992 93.6534 189.013 93.4317 189.013 93.2044C189.013 87.1607 183.875 82.3914 177.847 82.8407ZM178.228 99.8754L146.225 97.4894C144.211 97.3391 142.611 95.8154 142.305 93.8774C142.271 94.0974 142.248 94.3211 142.248 94.5501C142.248 96.7987 143.983 98.6671 146.225 98.8347L178.229 101.221C182.108 101.51 185.415 98.4404 185.415 94.5501C185.415 94.3224 185.402 94.0987 185.38 93.8774C185.024 97.4417 181.881 100.148 178.228 99.8754Z" fill="#808285"/>
<path d="M96.2523 60.5656L91.8856 62.155C91.0156 62.4716 90.3053 63.1176 89.9076 63.954L87.7813 68.4263C87.376 69.279 87.3293 70.2586 87.6523 71.1456L88.3946 73.185C88.5403 73.5853 88.7573 73.9556 89.0346 74.2783L97.3713 83.969C98.3273 85.0806 99.8716 85.4843 101.249 84.9826L103.753 84.0716C105.13 83.5703 106.054 82.2683 106.072 80.8026L106.229 68.0203C106.235 67.5946 106.163 67.1713 106.017 66.7713L105.275 64.732C104.952 63.845 104.286 63.1243 103.428 62.7316L98.9236 60.6723C98.0816 60.2873 97.1223 60.249 96.2523 60.5656Z" fill="#787878"/>
<path d="M104.512 67.5063L89.3797 73.0139L88.7454 71.2709C88.7437 71.2663 88.7427 71.2616 88.7411 71.2573L103.873 65.7496C104.252 65.6116 104.447 65.1926 104.31 64.8136C104.172 64.4346 103.753 64.2393 103.374 64.3769L88.5491 69.7726C88.5841 69.3533 88.6904 68.9393 88.8744 68.5516L91.0011 64.0793C91.3987 63.2433 92.1091 62.5969 92.9791 62.2806L97.3454 60.6913C97.6861 60.5673 98.0404 60.4996 98.3961 60.4839C97.6941 60.2903 96.9454 60.3133 96.2524 60.5656L91.8857 62.1549C91.0157 62.4716 90.3054 63.1176 89.9077 63.9539L87.7814 68.4263C87.3761 69.2789 87.3297 70.2583 87.6524 71.1456L88.3947 73.1849C88.5404 73.5853 88.7571 73.9556 89.0347 74.2783L97.3714 83.9689C98.0894 84.8039 99.1394 85.2389 100.202 85.1916C99.5411 85.0096 98.9317 84.6386 98.4644 84.0949L97.0221 82.4183L104.809 79.5843C105.188 79.4463 105.383 79.0273 105.245 78.6483C105.107 78.2693 104.688 78.0736 104.309 78.2119L96.0037 81.2349L94.7004 79.7199L104.735 76.0676C105.114 75.9296 105.31 75.5106 105.172 75.1316C105.034 74.7526 104.615 74.5573 104.236 74.6953L93.6824 78.5366L92.3794 77.0213L104.626 72.5636C105.005 72.4256 105.2 72.0069 105.062 71.6276C104.924 71.2489 104.506 71.0533 104.127 71.1913L91.3611 75.8376L90.1284 74.4046C90.1054 74.3776 90.0851 74.3486 90.0627 74.3209L105.013 68.8796C105.392 68.7419 105.587 68.3226 105.449 67.9436C105.31 67.5636 104.891 67.3683 104.512 67.5063Z" fill="#545454"/>
<path d="M122.371 62.1546L118.005 60.5653C117.135 60.2486 116.175 60.2869 115.333 60.6719L110.829 62.7313C109.971 63.1239 109.305 63.8443 108.983 64.7316L108.24 66.7709C108.095 67.1709 108.023 67.5943 108.028 68.0199L108.185 80.8023C108.203 82.2683 109.127 83.5703 110.504 84.0716L113.008 84.9826C114.385 85.4839 115.93 85.0803 116.886 83.9689L125.223 74.2783C125.5 73.9556 125.717 73.5849 125.863 73.1849L126.605 71.1456C126.928 70.2586 126.881 69.2786 126.476 68.4263L124.349 63.9536C123.952 63.1176 123.241 62.4713 122.371 62.1546Z" fill="#787878"/>
<path d="M124.238 72.7811L109.105 67.2734L109.739 65.5304C109.741 65.5258 109.743 65.5218 109.745 65.5171L124.877 71.0248C125.256 71.1628 125.675 70.9674 125.813 70.5884C125.951 70.2094 125.756 69.7901 125.376 69.6524L110.552 64.2568C110.848 63.9581 111.196 63.7091 111.586 63.5308L116.09 61.4714C116.931 61.0864 117.891 61.0481 118.761 61.3648L123.128 62.9541C123.468 63.0781 123.783 63.2541 124.066 63.4708C123.653 62.8711 123.064 62.4074 122.372 62.1554L118.005 60.5661C117.135 60.2494 116.175 60.2878 115.333 60.6728L110.83 62.7318C109.971 63.1244 109.306 63.8451 108.983 64.7321L108.241 66.7714C108.095 67.1714 108.023 67.5948 108.028 68.0201L108.185 80.8024C108.199 81.9034 108.724 82.9118 109.568 83.5581C109.178 82.9938 108.951 82.3181 108.942 81.6011L108.914 79.3894L116.701 82.2238C117.08 82.3618 117.5 82.1664 117.637 81.7874C117.775 81.4084 117.58 80.9891 117.201 80.8514L108.895 77.8284L108.871 75.8301L118.906 79.4824C119.285 79.6204 119.704 79.4251 119.842 79.0461C119.98 78.6671 119.785 78.2481 119.405 78.1101L108.852 74.2688L108.827 72.2704L121.074 76.7278C121.453 76.8658 121.872 76.6704 122.01 76.2914C122.148 75.9121 121.952 75.4934 121.573 75.3554L108.808 70.7091L108.785 68.8188C108.784 68.7834 108.788 68.7478 108.788 68.7124L123.738 74.1538C124.117 74.2918 124.536 74.0964 124.674 73.7174C124.812 73.3381 124.617 72.9188 124.238 72.7811Z" fill="#545454"/>
<path d="M101.5 106.294C108.17 106.127 113.443 100.585 113.276 93.9141C113.109 87.2436 107.566 81.9713 100.896 82.1381C94.2252 82.305 88.9529 87.8477 89.1197 94.5182C89.2865 101.189 94.8292 106.461 101.5 106.294Z" fill="#323232"/>
<path d="M101.2 84.1337C105.703 84.1337 109.711 86.2274 112.323 89.488C110.484 85.1627 106.197 82.129 101.2 82.129C96.2036 82.129 91.9163 85.1627 90.0776 89.4884C92.6893 86.2277 96.6973 84.1337 101.2 84.1337Z" fill="#808285"/>
<path d="M101.2 102.752C97.7106 102.752 94.6042 101.13 92.5806 98.6029C94.0056 101.955 97.3279 104.306 101.2 104.306C105.072 104.306 108.395 101.955 109.82 98.6029C107.796 101.13 104.69 102.752 101.2 102.752Z" fill="#808285"/>
<path d="M136.486 94.2107C136.486 100.883 131.077 106.292 124.404 106.292C117.732 106.292 112.323 100.883 112.323 94.2107C112.323 87.5384 117.732 82.129 124.404 82.129C131.077 82.129 136.486 87.5384 136.486 94.2107Z" fill="#323232"/>
<path d="M124.404 84.1338C128.907 84.1338 132.915 86.2275 135.527 89.4881C133.688 85.1628 129.401 82.1292 124.404 82.1292C119.408 82.1292 115.12 85.1628 113.281 89.4885C115.893 86.2278 119.901 84.1338 124.404 84.1338Z" fill="#808285"/>
<path d="M124.404 102.752C120.915 102.752 117.808 101.13 115.785 98.6031C117.21 101.955 120.532 104.306 124.404 104.306C128.276 104.306 131.599 101.955 133.024 98.6031C131 101.13 127.893 102.752 124.404 102.752Z" fill="#808285"/>
<path d="M85.488 18.0137H81.1513C80.577 18.0137 80.1113 17.5481 80.1113 16.9737C80.1113 16.3994 80.577 15.9337 81.1513 15.9337H85.488V18.0137Z" fill="#545454"/>
<path d="M83.4517 16.9737C83.4517 14.4684 84.3593 12.4354 85.4877 12.3804V21.5667C84.359 21.512 83.4517 19.479 83.4517 16.9737Z" fill="#323232"/>
<path d="M83.4707 17.561C83.4593 17.425 83.4517 17.2873 83.4517 17.1466C83.4517 15.379 84.3593 13.944 85.4877 13.9056V14.7343C84.449 14.77 83.5997 15.989 83.4707 17.561Z" fill="white"/>
<path d="M85.3495 21.9813H86.1519V11.966H85.3495V21.9813Z" fill="#008387"/>
<path d="M86.1519 13.0566H85.3496V14.4416H86.1519V13.0566Z" fill="white"/>
<path d="M82.2877 16.9736H81.6287V36.037H82.2877V16.9736Z" fill="#545454"/>
<path d="M80.975 37.1278C80.975 32.3125 75.8504 28.4042 69.478 28.2988V45.9568C75.85 45.8515 80.975 41.9432 80.975 37.1278Z" fill="#00D1D8"/>
<path d="M80.868 38.2566C80.9314 37.9953 80.9747 37.731 80.9747 37.46C80.9747 34.0623 75.8497 31.3043 69.478 31.23V32.823C75.3424 32.8916 80.1397 35.235 80.868 38.2566Z" fill="white"/>
<path d="M70.2564 27.5023H65.7261V46.7537H70.2564V27.5023Z" fill="#008387"/>
<path d="M70.2567 29.5986H65.7263V32.261H70.2567V29.5986Z" fill="white"/>
<path d="M177.765 68.2928C181.826 68.2928 185.666 69.2395 189.076 70.9238C194.263 73.4851 199.909 74.9818 205.693 74.9818H209.145C202.733 64.3565 191.08 57.2501 177.764 57.2501C165.714 57.2501 155.025 63.0705 148.35 72.0521C147.452 73.2608 148.33 74.9818 149.836 74.9818C155.621 74.9818 161.267 73.4851 166.453 70.9238C169.863 69.2398 173.703 68.2928 177.765 68.2928Z" fill="#00D1D8"/>
<path opacity="0.5" d="M201.042 65.6038C194.714 60.3865 186.607 57.2501 177.764 57.2501C174.74 57.2501 171.801 57.6178 168.99 58.3091C168.99 59.6705 170.264 60.6908 171.584 60.3605C174.424 59.6501 177.394 59.2685 180.455 59.2685C188.089 59.2685 195.175 61.6078 201.042 65.6038Z" fill="white"/>
<path d="M196.516 69.5308C196.516 68.1448 197.991 67.0198 199.825 66.9895V72.0722C197.991 72.0418 196.516 70.9168 196.516 69.5308Z" fill="#02A5AB"/>
<path d="M196.547 69.8558C196.528 69.7805 196.516 69.7045 196.516 69.6265C196.516 68.6485 197.991 67.8545 199.825 67.8331V68.2918C198.137 68.3115 196.756 68.9861 196.547 69.8558Z" fill="white"/>
<path d="M203.563 69.5308C203.563 68.1448 202.088 67.0198 200.253 66.9895V72.0722C202.088 72.0418 203.563 70.9168 203.563 69.5308Z" fill="#F7941D"/>
<path opacity="0.5" d="M203.532 69.8558C203.55 69.7805 203.563 69.7045 203.563 69.6265C203.563 68.6485 202.088 67.8545 200.253 67.8331V68.2918C201.941 68.3115 203.322 68.9861 203.532 69.8558Z" fill="white"/>
<path d="M199.601 72.3013H200.905V66.7599H199.601V72.3013Z" fill="#008387"/>
<path d="M200.905 67.3635H199.601V68.1299H200.905V67.3635Z" fill="white"/>
<path d="M188.81 56.5459C188.81 54.4036 190.169 52.6649 191.86 52.6179V60.4739C190.169 60.4269 188.81 58.6883 188.81 56.5459Z" fill="#02A5AB"/>
<path d="M188.838 57.0481C188.821 56.9318 188.81 56.8141 188.81 56.6938C188.81 55.1821 190.169 53.9551 191.86 53.9221V54.6308C190.304 54.6611 189.031 55.7038 188.838 57.0481Z" fill="white"/>
<path d="M196.495 56.5456C196.495 54.4032 194.724 52.6646 192.521 52.6176V60.4732C194.724 60.4266 196.495 58.6876 196.495 56.5456Z" fill="#ED1C24"/>
<path opacity="0.5" d="M196.458 57.0475C196.48 56.9312 196.495 56.8135 196.495 56.6932C196.495 55.1815 194.724 53.9545 192.522 53.9215V54.6302C194.548 54.6605 196.206 55.7032 196.458 57.0475Z" fill="white"/>
<path d="M191.514 62.4485H193.53V52.2632H191.514V62.4485Z" fill="#008387"/>
<path d="M193.53 53.1956H191.514V54.3799H193.53V53.1956Z" fill="white"/>
<path d="M48.8911 63.2871C44.3497 63.2871 40.0471 64.3041 36.1914 66.1148C36.1961 66.1628 36.2007 66.2111 36.2054 66.2591C36.5304 69.5481 39.7967 71.6368 42.9927 70.7958C44.8757 70.3004 46.8524 70.0361 48.8911 70.0361C59.4977 70.0361 68.4344 77.1648 71.1817 86.8918C72.0837 90.0851 75.6027 91.8101 78.6094 90.4068L78.6721 90.3774C77.2471 75.1808 64.4601 63.2871 48.8911 63.2871Z" fill="#00D1D8"/>
<path opacity="0.5" d="M49.3704 65.5924C63.3741 65.5924 75.1217 75.2168 78.3804 88.2098C76.0017 74.0661 63.7104 63.2871 48.8911 63.2871C44.3497 63.2871 40.0471 64.3041 36.1914 66.1148C36.1961 66.1631 36.2007 66.2108 36.2051 66.2591C36.2807 67.0228 36.5201 67.7181 36.8751 68.3308C40.6791 66.5788 44.9081 65.5924 49.3704 65.5924Z" fill="white"/>
<path d="M48.8901 94.2133C48.7191 94.2133 48.5458 94.17 48.3868 94.078C47.9045 93.7996 47.7395 93.1833 48.0178 92.7006L84.2398 29.9626C85.6341 27.548 87.8851 25.82 90.5785 25.0986C93.2718 24.3766 96.0851 24.7466 98.4998 26.142L112.235 34.072C112.718 34.3503 112.883 34.9666 112.604 35.4493C112.326 35.9316 111.71 36.098 111.227 35.8183L97.4915 27.8883C95.5428 26.7636 93.2731 26.4643 91.1005 27.0466C88.9275 27.629 87.1111 29.0226 85.9865 30.9713L49.7645 93.709C49.5775 94.0326 49.2388 94.2133 48.8901 94.2133Z" fill="#808285"/>
<path d="M48.8907 93.541C48.8337 93.541 48.776 93.5264 48.723 93.4957C48.562 93.403 48.5073 93.1977 48.6 93.0367L84.8217 30.2987C86.126 28.039 88.2323 26.4234 90.7523 25.7477C93.2723 25.073 95.9044 25.4187 98.1637 26.724L111.899 34.654C112.06 34.7467 112.115 34.952 112.022 35.113C111.929 35.2734 111.724 35.329 111.563 35.2357L97.8273 27.3057C95.7237 26.091 93.273 25.7707 90.9263 26.397C88.5797 27.026 86.6187 28.5307 85.404 30.6347L49.182 93.3727C49.1197 93.4807 49.0067 93.541 48.8907 93.541Z" fill="#D1D3D4"/>
<path d="M110.329 36.4893L102.375 31.8973C101.477 31.379 101.17 30.231 101.688 29.3333C102.206 28.4356 103.354 28.128 104.252 28.6463L112.206 33.2386C113.103 33.757 113.411 34.905 112.893 35.8026C112.374 36.7003 111.226 37.0076 110.329 36.4893Z" fill="#808285"/>
<path d="M101.7 29.3169C101.696 29.3229 101.691 29.3272 101.688 29.3332C101.17 30.2309 101.477 31.3789 102.375 31.8972L110.329 36.4892C111.226 37.0076 112.374 36.7002 112.893 35.8022C112.896 35.7962 112.898 35.7899 112.901 35.7839L101.7 29.3169Z" fill="#323232"/>
<path d="M112.893 35.8022C112.374 36.6999 111.226 37.0076 110.329 36.4892C109.431 35.9709 109.123 34.8229 109.642 33.9252C110.16 33.0276 111.308 32.7199 112.206 33.2382C113.103 33.7566 113.411 34.9046 112.893 35.8022Z" fill="#414042"/>
<path d="M112.283 35.4502C111.959 36.0112 111.242 36.2036 110.681 35.8796C110.12 35.5556 109.927 34.8382 110.251 34.2769C110.575 33.7159 111.293 33.5236 111.854 33.8476C112.415 34.1719 112.607 34.8892 112.283 35.4502Z" fill="#808285"/>
<path d="M48.8892 95.2225C48.5472 95.2225 48.2002 95.1352 47.8825 94.9515C46.9178 94.3949 46.5875 93.1612 47.1442 92.1968L82.6305 30.7325C83.1875 29.7682 84.4215 29.4365 85.3855 29.9945C86.3502 30.5512 86.6805 31.7848 86.1238 32.7492L50.6378 94.2135C50.2642 94.8605 49.5862 95.2225 48.8892 95.2225Z" fill="#939598"/>
<path d="M82.6306 30.7368L67.449 57.0315L70.9421 59.0483L86.1238 32.7537L82.6306 30.7368Z" fill="#323232"/>
<path opacity="0.5" d="M47.602 94.7496L85.07 29.8523C84.1666 29.5193 83.1287 29.8706 82.6306 30.7326L47.1446 92.197C46.647 93.0593 46.8623 94.133 47.602 94.7496Z" fill="white"/>
<path d="M179.511 92.1967L165.871 68.5704C165.327 67.6291 164.135 67.2877 163.176 67.7991C162.169 68.3354 161.807 69.5994 162.378 70.5874L176.018 94.2134C176.392 94.8607 177.069 95.2224 177.767 95.2224C178.109 95.2224 178.455 95.1351 178.773 94.9514C179.737 94.3947 180.068 93.1611 179.511 92.1967Z" fill="#939598"/>
<path d="M170.833 77.1639L166.439 69.5536L162.939 71.5589L167.339 79.1809L170.833 77.1639Z" fill="#02A5AB"/>
<path opacity="0.5" d="M179.161 94.6517C179.812 94.0237 179.984 93.0154 179.511 92.1967L165.871 68.5704C165.399 67.7537 164.44 67.3904 163.567 67.642L179.161 94.6517Z" fill="white"/>
<path d="M149.992 69.3968C149.992 69.3968 127.657 62.0922 127.657 58.2662C127.657 57.2158 128.631 56.4368 129.655 56.6668L145.736 60.2795C148.928 60.9968 152.271 60.5725 155.183 59.0805L164.227 54.4468C165.355 53.8688 166.694 54.6878 166.694 55.9552V57.8158C166.694 60.9305 152.976 70.7872 149.992 69.3968Z" fill="#323232"/>
<path opacity="0.5" d="M164.227 54.447L155.183 59.0804C152.271 60.5724 148.928 60.9967 145.736 60.2794L132.569 57.321L148.426 61.6247C151.619 62.342 154.962 61.9177 157.873 60.4257L165.323 56.609C166.614 55.9474 165.843 53.8837 164.468 54.345C164.387 54.3727 164.306 54.4064 164.227 54.447Z" fill="white"/>
<path d="M125.601 61.6323H97.294C90.543 61.6323 85.0703 55.894 85.0703 48.8153V45.2503C85.0703 35.099 108.917 36.8076 127.617 59.5183C127.617 60.686 126.714 61.6323 125.601 61.6323Z" fill="#008387"/>
<path d="M123.823 59.1336H97.4649C91.1789 59.1336 86.0833 54.0376 86.0833 47.7519V44.5863C86.0833 35.5716 108.288 37.0889 125.7 57.2569C125.7 58.2933 124.86 59.1336 123.823 59.1336Z" fill="#00D1D8"/>
<path opacity="0.5" d="M88.1014 50.4423V47.2766C88.1014 38.6149 108.599 39.6869 125.65 57.6733C125.681 57.5389 125.7 57.4003 125.7 57.2566C108.288 37.0889 86.0837 35.5713 86.0837 44.5859V47.7516C86.0837 50.9166 87.3774 53.7779 89.4624 55.8409C88.5951 54.2343 88.1014 52.3963 88.1014 50.4423Z" fill="white"/>
<path d="M251.552 60.572C251.547 60.572 251.543 60.5697 251.537 60.5697C249.665 62.3414 248.198 64.317 247.936 64.6777C247.579 65.168 247.697 65.8404 248.202 66.18C248.449 66.3457 248.742 66.4017 249.019 66.357C249.308 66.3107 249.578 66.1564 249.76 65.906C250.939 64.2864 253.099 61.8367 254.965 60.572H251.552Z" fill="#808686"/>
<path d="M168.718 41.8387L171.548 33.9527L160.199 29.1167L158.577 38.426L168.718 41.8387Z" fill="#784FEC"/>
<path d="M136.215 118.896C131.998 118.862 128.091 116.901 125.489 113.591C123.019 110.449 122.14 106.285 122.905 102.391C124.537 94.0539 133.767 89.2079 141.575 92.4356C147.603 94.9279 150.911 101.571 149.673 107.889C148.427 114.241 142.625 118.842 136.215 118.896C135.996 118.898 136.255 119.05 136.358 119.049C143.973 118.984 150.221 112.814 150.283 105.177C150.348 97.7703 144.251 91.6843 136.97 91.2549C129.448 90.8093 122.893 96.6946 122.325 104.156C121.763 111.558 127.426 118.026 134.669 118.95C135.23 119.018 135.795 119.045 136.358 119.049C136.58 119.05 136.319 118.896 136.215 118.896Z" fill="#121212"/>
<path d="M138.774 91.4502L134.158 99.4965L133.8 99.2875L138.417 91.2462L138.774 91.4502Z" fill="url(#paint0_radial_5473_29242)"/>
<path d="M133.789 91.2462L138.41 99.2875L138.051 99.4965L133.433 91.4502L133.789 91.2462Z" fill="url(#paint1_radial_5473_29242)"/>
<path d="M143.307 93.1259L136.215 99.1066L135.95 98.7919L143.042 92.8119L143.307 93.1259Z" fill="url(#paint2_radial_5473_29242)"/>
<path d="M138.693 91.2283L140.281 100.37L139.877 100.44L138.285 91.3016L138.693 91.2283Z" fill="url(#paint3_radial_5473_29242)"/>
<path d="M146.994 96.2516L138.283 99.4483L138.14 99.0606L146.853 95.8679L146.994 96.2516Z" fill="url(#paint4_radial_5473_29242)"/>
<path d="M143.307 92.8899L141.672 102.022L141.27 101.951L142.901 92.8206L143.307 92.8899Z" fill="url(#paint5_radial_5473_29242)"/>
<path d="M147.073 96.0263L142.414 104.052L142.058 103.846L146.716 95.8246L147.073 96.0263Z" fill="url(#paint6_radial_5473_29242)"/>
<path d="M149.54 100.267L142.418 106.213L142.152 105.898L149.274 99.9502L149.54 100.267Z" fill="url(#paint7_radial_5473_29242)"/>
<path d="M125.68 96.1439L130.336 104.163L129.976 104.375L125.321 96.3506L125.68 96.1439Z" fill="url(#paint8_radial_5473_29242)"/>
<path d="M129.392 93.0555L131.029 102.186L130.62 102.257L128.986 93.1259L129.392 93.0555Z" fill="url(#paint9_radial_5473_29242)"/>
<path d="M125.444 96.1023L134.151 99.293L134.007 99.6836L125.301 96.4886L125.444 96.1023Z" fill="url(#paint10_radial_5473_29242)"/>
<path d="M133.945 91.43L132.356 100.566L131.949 100.494L133.538 91.356L133.945 91.43Z" fill="url(#paint11_radial_5473_29242)"/>
<path d="M129.189 92.9379L136.279 98.9175L136.013 99.2322L128.921 93.2522L129.189 92.9379Z" fill="url(#paint12_radial_5473_29242)"/>
<path d="M136.288 118.211V117.385C139.67 117.385 142.728 116.017 144.948 113.801C147.165 111.581 148.533 108.525 148.533 105.14C148.533 101.757 147.165 98.7013 144.948 96.4826C142.728 94.2653 139.67 92.8932 136.288 92.8932C132.903 92.8932 129.849 94.2653 127.631 96.4826C125.412 98.7013 124.044 101.757 124.044 105.14C124.044 108.525 125.412 111.581 127.631 113.801C129.848 116.017 132.903 117.385 136.288 117.385V118.211V119.037C128.612 119.037 122.392 112.814 122.392 105.141C122.392 97.4659 128.612 91.2466 136.288 91.2466C143.96 91.2466 150.181 97.4659 150.181 105.141C150.181 112.815 143.96 119.037 136.288 119.037V118.211Z" fill="#AEB8B9"/>
<path d="M136.494 117.644V116.847C139.785 116.842 142.756 115.51 144.916 113.355C147.073 111.199 148.402 108.228 148.402 104.934C148.402 101.645 147.072 98.6709 144.916 96.5152C142.756 94.3575 139.785 93.0255 136.494 93.0255C133.206 93.0255 130.232 94.3575 128.074 96.5152C125.921 98.6712 124.586 101.646 124.586 104.934C124.586 108.228 125.921 111.199 128.074 113.355C130.232 115.51 133.206 116.842 136.494 116.847V117.644V118.448C129.03 118.448 122.984 112.398 122.984 104.934C122.984 97.4689 129.03 91.4219 136.494 91.4219C143.959 91.4219 150.007 97.4689 150.007 104.934C150.007 112.398 143.959 118.448 136.494 118.448V117.644Z" fill="#CCD4D5"/>
<path d="M136.237 117.526V116.749C139.351 116.749 142.163 115.455 144.205 113.365C146.249 111.274 147.508 108.389 147.508 105.197C147.508 102.004 146.249 99.1206 144.205 97.0272C142.163 94.9372 139.351 93.6409 136.237 93.6409C133.121 93.6409 130.309 94.9372 128.266 97.0272C126.222 99.1206 124.967 102.004 124.967 105.197C124.967 108.389 126.222 111.274 128.266 113.365C130.309 115.455 133.121 116.749 136.237 116.749V117.526V118.307C129.171 118.307 123.449 112.436 123.446 105.198C123.449 97.9536 129.171 92.0842 136.237 92.0842C143.302 92.0842 149.024 97.9536 149.024 105.198C149.024 112.436 143.302 118.307 136.237 118.307V117.526Z" fill="#E8EAEB"/>
<path d="M136.288 116.998V116.254C139.358 116.251 142.131 115.011 144.144 112.998C146.156 110.985 147.397 108.211 147.397 105.14C147.397 102.07 146.156 99.2953 144.144 97.2843C142.132 95.2726 139.358 94.0293 136.288 94.0293C133.218 94.0293 130.443 95.2726 128.431 97.2843C126.421 99.2953 125.176 102.071 125.176 105.14C125.176 108.211 126.421 110.985 128.431 112.998C130.443 115.011 133.218 116.251 136.288 116.254V116.998V117.75C129.324 117.75 123.68 112.104 123.68 105.14C123.68 98.1763 129.324 92.534 136.288 92.5293C143.252 92.5343 148.894 98.1763 148.896 105.14C148.894 112.104 143.252 117.75 136.288 117.75V116.998Z" fill="#8F9394"/>
<path d="M125.371 111.026C122.168 102.403 126.793 96.1252 131.487 94.3838C132.989 93.8228 136.889 93.3085 137.281 93.4092C134.133 93.4435 130.942 94.3252 128.526 96.4355C126.258 98.4215 125.391 101.412 125.056 104.33C124.523 108.936 127.008 113.699 131.19 115.476C131.158 115.668 129.822 115.368 130.029 115.492C133.35 117.403 138.155 117.695 141.419 115.756C143.986 114.225 146.725 112.044 147.804 109.148C148.854 106.333 148.549 102.783 147.177 100.1C145.61 97.0468 143.3 95.6128 140.36 94.2318L140.355 94.2248C141.639 94.6118 142.875 95.1072 143.955 95.9225C146.095 97.5392 147.441 99.6765 148.514 102.071C148.76 103.052 148.897 104.082 148.897 105.141C148.895 112.105 143.252 117.75 136.288 117.75C129.364 117.75 123.752 112.171 123.686 105.262C123.686 107.032 125.509 111.39 125.371 111.026Z" fill="#BBC1C2"/>
<path d="M147.397 105.14C147.397 102.575 146.524 100.23 145.068 98.3499C145.613 98.9672 146.091 99.6762 146.463 100.514C147.633 103.155 148.224 106.691 146.815 109.352C146.467 110.006 146.046 110.634 145.58 111.228C146.725 109.476 147.397 107.392 147.397 105.14Z" fill="#BBC1C2"/>
<path d="M129.473 105.316H130.298C130.298 106.973 130.968 108.46 132.05 109.552C133.14 110.637 134.633 111.306 136.288 111.306C137.944 111.306 139.437 110.637 140.523 109.552C141.611 108.46 142.276 106.973 142.276 105.316C142.276 103.657 141.611 102.165 140.523 101.08C139.437 99.9946 137.944 99.3263 136.288 99.3263C134.633 99.3263 133.139 99.9946 132.05 101.08C130.968 102.166 130.298 103.657 130.298 105.316H129.473H128.646C128.648 101.095 132.068 97.6763 136.288 97.6763C140.509 97.6763 143.926 101.095 143.926 105.316C143.926 109.536 140.509 112.956 136.288 112.956C132.067 112.956 128.648 109.536 128.646 105.316H129.473Z" fill="#8F9394"/>
<path d="M129.794 105.055H130.597C130.597 106.653 131.254 108.097 132.313 109.145C133.378 110.196 134.839 110.84 136.458 110.84C138.076 110.84 139.535 110.196 140.601 109.145C141.66 108.097 142.315 106.653 142.315 105.055C142.315 103.453 141.661 102.014 140.601 100.965C139.535 99.9136 138.077 99.2699 136.458 99.2699C134.839 99.2699 133.378 99.9136 132.313 100.965C131.254 102.014 130.597 103.453 130.597 105.055H129.794H128.983C128.983 100.978 132.332 97.6763 136.458 97.6763C140.587 97.6763 143.927 100.978 143.927 105.055C143.927 109.13 140.587 112.433 136.458 112.433C132.332 112.433 128.983 109.13 128.983 105.055H129.794Z" fill="#A3A6A8"/>
<path d="M130.002 105.215H130.776C130.776 106.772 131.403 108.174 132.421 109.195C133.441 110.217 134.841 110.847 136.394 110.848C137.947 110.846 139.347 110.217 140.366 109.195C141.387 108.174 142.008 106.772 142.008 105.215C142.008 103.659 141.386 102.256 140.366 101.236C139.347 100.215 137.947 99.5855 136.394 99.5855C134.841 99.5855 133.441 100.215 132.421 101.236C131.403 102.256 130.776 103.659 130.776 105.215H130.002H129.228C129.23 101.248 132.436 98.0388 136.394 98.0388C140.354 98.0388 143.56 101.249 143.56 105.215C143.56 109.182 140.354 112.398 136.394 112.398C132.436 112.398 129.23 109.182 129.228 105.215H130.002Z" fill="#E8EAEB"/>
<path d="M129.473 105.316C129.473 109.08 132.524 112.131 136.288 112.131C140.053 112.131 143.103 109.08 143.103 105.316C143.103 101.553 140.053 98.4999 136.288 98.4999C132.525 98.5002 129.473 101.553 129.473 105.316Z" fill="#AEB8B9"/>
<path d="M140.555 110.26C140.555 108.193 137.039 109.869 136.181 109.834C133.182 109.717 132.172 107.514 132.195 104.814C132.201 103.95 132.355 102.871 131.66 102.228C131.162 101.765 130.548 102.101 130.028 102.62C131.072 100.195 133.482 98.5002 136.288 98.5002C140.053 98.5002 143.103 101.553 143.103 105.316C143.103 107.493 142.079 109.426 140.491 110.675C140.527 110.544 140.555 110.406 140.555 110.26Z" fill="#CCD4D5"/>
<path d="M139.769 101.786C142.058 103.178 142.237 107.166 140.003 107.857C140.144 106.471 140.783 105.357 140.405 103.846C140.128 102.742 139.123 102.052 138.157 101.637C137.425 101.327 136.751 101.249 136.13 101.348C136.469 101.233 136.781 101.08 137.014 100.81C137.358 100.413 137.21 99.9055 136.92 99.5525C136.156 98.6309 133.484 99.8722 132.355 99.7645C133.465 98.9729 134.822 98.4999 136.289 98.4999C137.546 98.4999 138.718 98.8425 139.725 99.4359C139.174 100.238 138.666 101.11 139.769 101.786Z" fill="#E8EAEB"/>
<path d="M136.288 86.6556C126.068 86.6556 117.782 94.9416 117.782 105.161C117.782 115.382 126.068 123.666 136.288 123.666C146.509 123.666 154.794 115.382 154.794 105.161C154.794 94.942 146.509 86.6556 136.288 86.6556ZM136.288 119.088C128.597 119.088 122.363 112.852 122.363 105.162C122.363 97.4713 128.597 91.2353 136.288 91.2353C143.979 91.2353 150.214 97.4716 150.214 105.162C150.214 112.852 143.979 119.088 136.288 119.088Z" fill="#545454"/>
<path d="M153.093 104.636C153.093 100.029 151.32 95.8349 148.424 92.6956C151.912 95.9139 154.098 100.521 154.098 105.64C154.098 115.368 146.21 123.255 136.483 123.255C131.363 123.255 126.755 121.069 123.537 117.583C126.676 120.478 130.869 122.251 135.478 122.251C145.205 122.251 153.093 114.365 153.093 104.636Z" fill="#323232"/>
<path d="M137.448 88.3789C142.056 88.3789 146.249 90.1519 149.389 93.0475C146.17 89.5602 141.563 87.3749 136.443 87.3749C126.715 87.3749 118.83 95.2629 118.83 104.989C118.83 110.109 121.016 114.716 124.503 117.935C121.606 114.796 119.835 110.603 119.835 105.995C119.835 96.2672 127.719 88.3789 137.448 88.3789Z" fill="#808285"/>
<path d="M246.914 118.896C242.697 118.862 238.791 116.901 236.188 113.591C233.718 110.449 232.839 106.285 233.603 102.391C235.235 94.0539 244.466 89.2079 252.273 92.4356C258.301 94.9279 261.609 101.571 260.372 107.889C259.126 114.241 253.324 118.842 246.914 118.896C246.695 118.898 246.954 119.05 247.057 119.049C254.672 118.984 260.92 112.814 260.982 105.177C261.046 97.7703 254.95 91.6843 247.669 91.2549C240.147 90.8093 233.592 96.6946 233.024 104.156C232.462 111.558 238.125 118.026 245.368 118.95C245.929 119.018 246.493 119.045 247.057 119.049C247.279 119.05 247.019 118.896 246.914 118.896Z" fill="#121212"/>
<path d="M249.474 91.4503L244.857 99.4967L244.499 99.2877L249.116 91.2463L249.474 91.4503Z" fill="url(#paint13_radial_5473_29242)"/>
<path d="M244.488 91.2463L249.109 99.2877L248.75 99.4967L244.132 91.4503L244.488 91.2463Z" fill="url(#paint14_radial_5473_29242)"/>
<path d="M254.006 93.126L246.914 99.1067L246.649 98.792L253.742 92.812L254.006 93.126Z" fill="url(#paint15_radial_5473_29242)"/>
<path d="M249.393 91.2283L250.981 100.37L250.576 100.44L248.984 91.3016L249.393 91.2283Z" fill="url(#paint16_radial_5473_29242)"/>
<path d="M257.693 96.2516L248.982 99.4483L248.839 99.0606L257.552 95.8679L257.693 96.2516Z" fill="url(#paint17_radial_5473_29242)"/>
<path d="M254.006 92.8899L252.371 102.022L251.969 101.951L253.6 92.8206L254.006 92.8899Z" fill="url(#paint18_radial_5473_29242)"/>
<path d="M257.772 96.0264L253.113 104.052L252.757 103.846L257.415 95.8247L257.772 96.0264Z" fill="url(#paint19_radial_5473_29242)"/>
<path d="M260.238 100.267L253.116 106.213L252.851 105.898L259.972 99.9503L260.238 100.267Z" fill="url(#paint20_radial_5473_29242)"/>
<path d="M236.379 96.144L241.035 104.163L240.675 104.375L236.02 96.3507L236.379 96.144Z" fill="url(#paint21_radial_5473_29242)"/>
<path d="M240.092 93.0557L241.728 102.186L241.32 102.257L239.685 93.126L240.092 93.0557Z" fill="url(#paint22_radial_5473_29242)"/>
<path d="M236.143 96.1023L244.85 99.293L244.706 99.6836L236 96.4886L236.143 96.1023Z" fill="url(#paint23_radial_5473_29242)"/>
<path d="M244.644 91.43L243.055 100.566L242.648 100.494L244.237 91.356L244.644 91.43Z" fill="url(#paint24_radial_5473_29242)"/>
<path d="M239.888 92.938L246.978 98.9177L246.712 99.2323L239.621 93.2523L239.888 92.938Z" fill="url(#paint25_radial_5473_29242)"/>
<path d="M246.987 118.211V117.385C250.369 117.385 253.427 116.017 255.647 113.801C257.864 111.581 259.232 108.525 259.232 105.14C259.232 101.757 257.864 98.7013 255.647 96.4826C253.428 94.2653 250.369 92.8932 246.987 92.8932C243.602 92.8932 240.547 94.2653 238.33 96.4826C236.111 98.7013 234.743 101.757 234.743 105.14C234.743 108.525 236.111 111.581 238.33 113.801C240.547 116.017 243.602 117.385 246.987 117.385V118.211V119.037C239.311 119.037 233.091 112.814 233.091 105.141C233.091 97.4659 239.311 91.2466 246.987 91.2466C254.658 91.2466 260.88 97.4659 260.88 105.141C260.88 112.815 254.658 119.037 246.987 119.037V118.211Z" fill="#AEB8B9"/>
<path d="M247.193 117.644V116.847C250.484 116.842 253.455 115.51 255.615 113.355C257.772 111.199 259.102 108.228 259.102 104.934C259.102 101.645 257.772 98.671 255.615 96.5153C253.455 94.3577 250.485 93.0257 247.193 93.0257C243.905 93.0257 240.931 94.3577 238.774 96.5153C236.62 98.6713 235.286 101.646 235.286 104.934C235.286 108.228 236.62 111.199 238.774 113.355C240.931 115.51 243.905 116.842 247.193 116.847V117.644V118.448C239.729 118.448 233.684 112.398 233.684 104.934C233.684 97.469 239.729 91.422 247.193 91.422C254.658 91.422 260.707 97.469 260.707 104.934C260.707 112.398 254.658 118.448 247.193 118.448V117.644Z" fill="#CCD4D5"/>
<path d="M246.936 117.526V116.749C250.051 116.749 252.862 115.455 254.904 113.365C256.948 111.274 258.206 108.389 258.206 105.197C258.206 102.004 256.948 99.1206 254.904 97.0272C252.862 94.9372 250.051 93.6409 246.936 93.6409C243.82 93.6409 241.008 94.9372 238.966 97.0272C236.922 99.1206 235.666 102.004 235.666 105.197C235.666 108.389 236.922 111.274 238.966 113.365C241.008 115.455 243.82 116.749 246.936 116.749V117.526V118.307C239.87 118.307 234.149 112.436 234.145 105.198C234.148 97.9536 239.87 92.0842 246.936 92.0842C254.001 92.0842 259.724 97.9536 259.724 105.198C259.724 112.436 254.001 118.307 246.936 118.307V117.526Z" fill="#E8EAEB"/>
<path d="M246.987 116.998V116.254C250.057 116.251 252.831 115.011 254.843 112.998C256.854 110.985 258.096 108.211 258.096 105.14C258.096 102.07 256.854 99.2953 254.843 97.2843C252.831 95.2726 250.057 94.0293 246.987 94.0293C243.917 94.0293 241.143 95.2726 239.131 97.2843C237.12 99.2953 235.875 102.071 235.875 105.14C235.875 108.211 237.12 110.985 239.131 112.998C241.143 115.011 243.917 116.251 246.987 116.254V116.998V117.75C240.023 117.75 234.38 112.104 234.38 105.14C234.38 98.1763 240.023 92.534 246.987 92.5293C253.951 92.5343 259.593 98.1763 259.595 105.14C259.593 112.104 253.951 117.75 246.987 117.75V116.998Z" fill="#8F9394"/>
<path d="M236.07 111.026C232.867 102.403 237.492 96.1253 242.186 94.384C243.687 93.823 247.588 93.3086 247.98 93.4093C244.832 93.4436 241.641 94.3253 239.225 96.4356C236.957 98.4216 236.09 101.412 235.755 104.33C235.222 108.936 237.707 113.699 241.889 115.476C241.857 115.668 240.521 115.368 240.727 115.492C244.049 117.403 248.854 117.695 252.117 115.756C254.684 114.225 257.423 112.044 258.502 109.148C259.552 106.333 259.247 102.783 257.875 100.1C256.308 97.047 253.998 95.613 251.058 94.232L251.053 94.225C252.338 94.612 253.574 95.1073 254.653 95.9226C256.793 97.5393 258.139 99.6766 259.212 102.071C259.458 103.052 259.595 104.082 259.595 105.141C259.593 112.105 253.95 117.75 246.987 117.75C240.063 117.75 234.45 112.171 234.384 105.262C234.384 107.032 236.208 111.39 236.07 111.026Z" fill="#BBC1C2"/>
<path d="M258.096 105.14C258.096 102.575 257.223 100.23 255.767 98.35C256.312 98.9673 256.79 99.6763 257.162 100.514C258.332 103.155 258.923 106.691 257.515 109.352C257.167 110.006 256.745 110.634 256.279 111.228C257.424 109.476 258.096 107.392 258.096 105.14Z" fill="#BBC1C2"/>
<path d="M240.172 105.316H240.998C240.998 106.973 241.667 108.46 242.75 109.552C243.839 110.637 245.333 111.306 246.987 111.306C248.644 111.306 250.136 110.637 251.222 109.552C252.31 108.46 252.976 106.973 252.976 105.316C252.976 103.657 252.31 102.165 251.222 101.08C250.136 99.9946 248.644 99.3263 246.987 99.3263C245.333 99.3263 243.839 99.9946 242.75 101.08C241.668 102.166 240.998 103.657 240.998 105.316H240.172H239.346C239.348 101.095 242.767 97.6763 246.987 97.6763C251.209 97.6763 254.626 101.095 254.626 105.316C254.626 109.536 251.209 112.956 246.987 112.956C242.767 112.956 239.348 109.536 239.346 105.316H240.172Z" fill="#8F9394"/>
<path d="M240.493 105.055H241.296C241.296 106.653 241.953 108.097 243.013 109.145C244.077 110.196 245.538 110.84 247.157 110.84C248.776 110.84 250.234 110.196 251.3 109.145C252.359 108.097 253.014 106.653 253.014 105.055C253.014 103.453 252.359 102.014 251.3 100.965C250.234 99.9136 248.776 99.2699 247.157 99.2699C245.538 99.2699 244.077 99.9136 243.013 100.965C241.953 102.014 241.296 103.453 241.296 105.055H240.493H239.682C239.682 100.978 243.031 97.6763 247.157 97.6763C251.285 97.6763 254.625 100.978 254.625 105.055C254.625 109.13 251.285 112.433 247.157 112.433C243.031 112.433 239.682 109.13 239.682 105.055H240.493Z" fill="#A3A6A8"/>
<path d="M240.701 105.216H241.475C241.475 106.772 242.102 108.175 243.12 109.195C244.14 110.218 245.54 110.847 247.093 110.849C248.646 110.847 250.046 110.217 251.065 109.195C252.085 108.175 252.707 106.772 252.707 105.216C252.707 103.66 252.085 102.257 251.065 101.237C250.046 100.216 248.646 99.5856 247.093 99.5856C245.54 99.5856 244.14 100.216 243.12 101.237C242.102 102.257 241.475 103.66 241.475 105.216H240.701H239.927C239.929 101.249 243.135 98.0389 247.093 98.0389C251.053 98.0389 254.259 101.249 254.259 105.216C254.259 109.183 251.054 112.398 247.093 112.398C243.135 112.398 239.929 109.183 239.927 105.216H240.701Z" fill="#E8EAEB"/>
<path d="M240.172 105.316C240.172 109.08 243.224 112.131 246.987 112.131C250.752 112.131 253.802 109.08 253.802 105.316C253.802 101.553 250.752 98.5 246.987 98.5C243.224 98.5003 240.172 101.553 240.172 105.316Z" fill="#AEB8B9"/>
<path d="M251.254 110.26C251.254 108.193 247.738 109.869 246.881 109.834C243.881 109.717 242.871 107.514 242.894 104.814C242.9 103.95 243.054 102.871 242.36 102.228C241.861 101.765 241.247 102.101 240.727 102.62C241.771 100.195 244.181 98.5002 246.987 98.5002C250.752 98.5002 253.802 101.553 253.802 105.316C253.802 107.493 252.778 109.426 251.19 110.675C251.227 110.544 251.254 110.406 251.254 110.26Z" fill="#CCD4D5"/>
<path d="M250.468 101.786C252.757 103.178 252.935 107.166 250.701 107.857C250.843 106.471 251.481 105.357 251.104 103.846C250.827 102.742 249.822 102.052 248.856 101.637C248.123 101.327 247.45 101.249 246.829 101.348C247.168 101.233 247.48 101.08 247.713 100.81C248.057 100.413 247.909 99.9057 247.619 99.5527C246.855 98.631 244.183 99.8723 243.054 99.7647C244.164 98.973 245.521 98.5 246.987 98.5C248.245 98.5 249.416 98.8427 250.423 99.436C249.873 100.238 249.365 101.11 250.468 101.786Z" fill="#E8EAEB"/>
<path d="M246.987 86.6556C236.767 86.6556 228.482 94.9416 228.482 105.161C228.482 115.382 236.767 123.666 246.987 123.666C257.208 123.666 265.493 115.382 265.493 105.161C265.493 94.942 257.208 86.6556 246.987 86.6556ZM246.987 119.088C239.297 119.088 233.061 112.852 233.061 105.162C233.061 97.4713 239.297 91.2353 246.987 91.2353C254.678 91.2353 260.914 97.4716 260.914 105.162C260.914 112.852 254.678 119.088 246.987 119.088Z" fill="#545454"/>
<path d="M263.792 104.636C263.792 100.029 262.019 95.8349 259.122 92.6956C262.61 95.9139 264.797 100.521 264.797 105.64C264.797 115.368 256.908 123.255 247.182 123.255C242.062 123.255 237.454 121.069 234.236 117.583C237.375 120.478 241.568 122.251 246.177 122.251C255.904 122.251 263.792 114.365 263.792 104.636Z" fill="#1E242D"/>
<g opacity="0.6">
<path d="M248.147 88.379C252.755 88.379 256.948 90.152 260.088 93.0477C256.869 89.5603 252.262 87.375 247.142 87.375C237.414 87.375 229.529 95.263 229.529 104.989C229.529 110.109 231.715 114.716 235.202 117.935C232.305 114.796 230.534 110.603 230.534 105.995C230.534 96.2673 238.418 88.379 248.147 88.379Z" fill="url(#paint26_linear_5473_29242)"/>
</g>
<path d="M233.74 89.7357L246.807 100.355L240.261 110.45L224.109 104.198L233.74 89.7357Z" fill="#454A49"/>
<path d="M228.595 105.487L224.403 103.864L234.034 89.4004L236.598 91.4861C234.086 96.2387 231.328 100.856 228.595 105.487Z" fill="#525756"/>
<path d="M230.253 106.128L229.109 105.685C231.814 101.106 234.546 96.5411 237.038 91.8428L237.863 92.5134C235.123 96.9308 232.727 101.552 230.253 106.128Z" fill="#525756"/>
<path d="M231.414 106.579L230.759 106.325C233.206 101.797 235.579 97.2275 238.286 92.8568L239.219 93.6145C236.72 97.9945 234.005 102.252 231.414 106.579Z" fill="#525756"/>
<path d="M240.069 97.8108C238.697 99.6251 237.43 101.522 236.168 103.413C235.282 104.736 234.406 106.068 233.528 107.396L233.06 107.215C233.932 105.785 234.802 104.353 235.681 102.927C237.339 100.237 239.164 97.6261 240.851 94.9418L241.704 95.6331C241.172 96.3668 240.616 97.0861 240.069 97.8108Z" fill="#525756"/>
<path d="M235.606 108.2L234.039 107.594C235.143 105.92 236.246 104.245 237.373 102.587C238.87 100.382 240.647 98.2634 242.184 96.0258L243.013 96.6984C240.511 100.511 238.041 104.344 235.606 108.2Z" fill="#525756"/>
<path d="M237.059 108.763L236.119 108.399C238.525 104.591 240.963 100.807 243.433 97.0397L244.418 97.8407C242.216 101.636 239.536 105.135 237.059 108.763Z" fill="#525756"/>
<path d="M240.994 105.703C240.223 106.931 239.47 108.173 238.691 109.395L237.57 108.961C240.012 105.379 242.654 101.923 244.845 98.1871L245.692 98.8755C244.289 101.241 242.44 103.394 240.994 105.703Z" fill="#525756"/>
<path d="M241.245 106.321C242.743 103.931 244.658 101.68 246.126 99.228L247.101 100.02L240.554 110.115L239.201 109.592C239.89 108.507 240.561 107.41 241.245 106.321Z" fill="#525756"/>
<path d="M234.771 103.37C234.026 104.583 233.288 105.8 232.546 107.016L231.93 106.777C234.49 102.5 237.172 98.2904 239.648 93.9647L240.434 94.6021C238.598 97.5541 236.582 100.417 234.771 103.37Z" fill="#525756"/>
<path opacity="0.4" d="M235.827 94.2744C236.394 96.1037 237.353 97.4631 238.77 98.7487C240.274 100.111 242.003 101.253 243.574 102.539C243.97 102.864 244.364 103.188 244.758 103.514L240.26 110.45L224.109 104.198L233.74 89.7357L234.939 90.7114C235.279 91.8814 235.461 93.0954 235.827 94.2744Z" fill="#525756"/>
<path d="M253.308 101.774C253.442 96.7301 248.578 93.6451 248.064 93.3341L236.231 85.5031L234.72 87.7854L246.639 95.6724C246.682 95.6977 251.268 98.4854 250.474 102.567L253.162 103.09C253.25 102.638 253.297 102.199 253.308 101.774Z" fill="#424645"/>
<path d="M246.807 94.3683C248.731 95.7367 250.685 97.2533 251.475 99.5753C251.846 100.663 252.056 101.77 252.12 102.887L250.474 102.567C251.267 98.485 246.681 95.6976 246.638 95.672L234.72 87.785L235.164 87.1136C239.157 89.3123 243.119 91.744 246.807 94.3683Z" fill="#AEAEAE"/>
<path d="M250.013 99.3183C250.654 98.5836 251.292 97.8503 251.935 97.1183C252.749 98.39 253.356 99.9513 253.308 101.774C253.297 102.199 253.249 102.638 253.162 103.09L250.474 102.567C250.71 101.356 250.466 100.263 250.013 99.3183Z" fill="#323232"/>
<path d="M245.481 112.587C249.59 112.697 253.011 109.454 253.12 105.345C253.23 101.236 249.988 97.8153 245.879 97.7053C241.769 97.5957 238.349 100.837 238.238 104.947C238.129 109.056 241.371 112.477 245.481 112.587Z" fill="#444444"/>
<path d="M238.127 90.0397L234.72 87.785L236.232 85.5027L239.477 87.6497C239.02 88.4424 238.571 89.2397 238.127 90.0397Z" fill="#424645"/>
<path d="M246.579 110.99C249.603 111.071 252.118 108.686 252.199 105.662C252.28 102.64 249.895 100.124 246.872 100.043C243.85 99.962 241.333 102.348 241.252 105.37C241.171 108.394 243.557 110.909 246.579 110.99Z" fill="#444444"/>
<path d="M239.767 101.136L241.274 102.432C241.274 102.432 243.74 97.705 248.218 98.7947C248.218 98.7947 243.955 96.0567 239.767 101.136Z" fill="url(#paint27_linear_5473_29242)"/>
<path d="M239.651 88.4097L248.63 94.0707C248.63 94.0707 250.64 95.6637 251.064 96.874C251.064 96.874 249.18 94.7693 246.034 92.9747C242.887 91.1777 239.294 88.9703 239.294 88.9703L239.651 88.4097Z" fill="url(#paint28_linear_5473_29242)"/>
<path d="M156.531 85.5027C156.531 85.5027 149.697 75.3117 133.292 78.07C133.292 78.07 124.221 79.7734 118.83 87.7707C118.83 87.7707 117.691 90.1374 119.932 89.7357C122.173 89.3327 145.333 82.6644 151.337 98.985C151.337 98.985 155.44 106.58 158.459 106.576L156.531 85.5027Z" fill="#5716DF"/>
<path d="M156.531 85.5027C156.531 85.5027 149.697 75.3117 133.292 78.07C133.292 78.07 127.724 79.1164 122.72 83.415C126.228 81.447 129.998 79.749 134.006 79.9204C139.05 80.1357 142.861 82.7427 145.407 87.0037C145.556 87.2524 145.262 87.5427 145.014 87.397C140.989 85.0217 135.479 86.0517 131.124 86.8137C128.556 87.2634 126.037 87.8877 123.719 88.931C131.088 87.551 146.585 86.0674 151.337 98.985C151.337 98.985 155.44 106.58 158.459 106.576L156.531 85.5027Z" fill="#3C00BC"/>
<path d="M159.478 42.1943L161.654 38.6959L168.718 41.8386C168.718 41.8386 168.529 43.7779 166.535 47.7286C164.691 51.3823 157.079 63.6769 157.429 73.7906C157.78 83.9039 166.621 92.0859 166.621 92.0859C166.621 92.0859 173.105 97.6179 177.762 97.1183C182.419 96.6179 199.467 96.2876 199.864 85.5026C200.26 74.7179 194.986 68.6043 197.999 64.7173C201.013 60.8303 239.015 59.3983 246.025 61.8566C253.035 64.3146 272.682 80.8369 272.505 83.3763C272.329 85.9163 250.553 99.0216 217.048 103.95C217.048 103.95 196.23 106.405 176.527 105.195C156.824 103.986 157.664 98.3839 154.313 91.8759C150.962 85.3673 144.518 72.0939 145.068 66.7496C145.618 61.4053 159.478 42.1943 159.478 42.1943Z" fill="#784FEC"/>
<path d="M154.979 77.2316C155.09 80.3433 156.632 83.525 157.862 86.346C158.849 88.61 160.036 91.103 162.023 92.667C164.047 94.2603 166.311 94.291 168.52 93.533C167.361 92.7176 166.621 92.0856 166.621 92.0856C166.621 92.0856 157.78 83.9036 157.43 73.7903C157.417 73.4373 157.417 73.0823 157.423 72.725C156 73.9113 154.915 75.434 154.979 77.2316Z" fill="#3C00BC"/>
<path d="M199.864 85.5027C199.601 92.6347 192.056 95.1947 185.629 96.2551C187.073 96.3311 188.5 96.2787 189.777 96.1791C193.842 95.8631 198.138 94.6841 200.535 91.0817C203.451 86.7027 203.138 80.4464 202.413 75.4557C201.833 71.4597 200.836 67.5554 199.796 63.6617C198.911 63.9897 198.291 64.3417 197.999 64.7174C194.986 68.6044 200.26 74.7181 199.864 85.5027Z" fill="#3C00BC"/>
<path d="M197.7 71.5616C197.7 71.5616 193.198 72.4386 191.819 68.818C190.44 65.1983 192.835 56.7393 195.842 55.659C200.554 53.9656 244.02 53.1303 249.123 54.51C254.225 55.889 251.938 62.438 248.254 62.8696C244.571 63.3016 210.69 65.213 197.7 71.5616Z" fill="#8E6B4B"/>
<path d="M197.7 71.5616C197.7 71.5616 193.198 72.4386 191.819 68.818C190.44 65.1983 192.835 56.7393 195.842 55.659C200.554 53.9656 244.02 53.1303 249.123 54.51C254.225 55.889 251.938 62.438 248.254 62.8696C244.571 63.3016 210.69 65.213 197.7 71.5616Z" fill="#5B4202"/>
<path d="M198.152 69.1697C198.152 69.1697 194.671 69.8473 193.604 67.0473C192.537 64.2473 194.389 57.705 196.715 56.8697C200.359 55.5593 233.979 54.914 237.925 55.9803C241.872 57.0473 240.102 62.1123 237.254 62.4463C234.405 62.7803 208.199 64.2593 198.152 69.1697Z" fill="#A78120"/>
<path d="M226.037 67.7263C225.756 67.7263 225.475 67.6253 225.258 67.4219C224.814 67.0069 224.803 66.3236 225.234 65.8966C225.785 65.3496 230.714 60.5466 234.34 60.2973C237.608 60.0723 254.154 58.9886 254.321 58.9783C254.932 58.9356 255.471 59.3866 255.513 59.9813C255.555 60.5763 255.089 61.0903 254.472 61.1309C254.306 61.1416 237.763 62.2249 234.499 62.4489C232.402 62.5936 228.688 65.5616 226.84 67.3986C226.621 67.6166 226.329 67.7263 226.037 67.7263Z" fill="#808686"/>
<path d="M267.442 82.6563C267.442 82.6563 249.743 68.274 225.838 72.1373C201.933 76.0007 201.129 96.1467 203.197 97.8927C205.266 99.639 219.049 98.2304 229.529 97.1184C240.008 96.0067 267.442 82.6563 267.442 82.6563Z" fill="#5716DF"/>
<path d="M263.304 82.6307C263.304 82.6307 250.442 72.3973 233.069 75.146C215.696 77.8947 214.942 90.1997 215.437 92.086C218.093 102.223 263.304 82.6307 263.304 82.6307Z" fill="#784FEC"/>
<path opacity="0.4" d="M216.287 92.7517C215.793 90.865 216.546 78.561 233.919 75.8117C248.609 73.4877 260.072 80.444 263.263 82.6487C263.289 82.6377 263.304 82.6307 263.304 82.6307C263.304 82.6307 250.442 72.3973 233.069 75.146C215.696 77.8947 214.942 90.1997 215.437 92.086C215.665 92.9553 216.212 93.601 217.01 94.0647C216.669 93.6977 216.421 93.2647 216.287 92.7517Z" fill="white"/>
<path d="M149.879 23.7213L149.229 23.006C149.229 23.006 147.015 31.5946 149.488 39.7956L149.879 23.7213Z" fill="#F3DF73"/>
<path d="M149.229 23.006C149.229 23.006 159.902 21.443 162.634 28.2116C165.368 34.9793 160.552 40.4463 149.488 39.7956L149.229 23.006Z" fill="#784FEC"/>
<path d="M161.761 36.2029C163.538 34.1132 163.882 31.3039 162.634 28.2115C161.522 25.4575 159.094 24.0819 156.604 23.4205C158.445 27.6372 160.359 31.8372 161.761 36.2029Z" fill="#C4C4C4"/>
<path d="M157.152 33.5636C157.025 34.5413 156.934 35.5193 156.899 36.5043C156.867 37.3763 156.861 38.2476 156.865 39.1193C158.646 38.6026 160.086 37.8346 161.145 36.8589C160.735 35.5593 160.276 34.2756 159.787 33.0009C159.725 33.0129 159.661 33.0129 159.601 32.9789C158.366 32.2989 157.356 31.9943 157.152 33.5636Z" fill="#C4C4C4"/>
<path d="M153.676 22.9269C151.206 22.7186 149.229 23.0062 149.229 23.0062L149.488 39.7959C151.108 39.8916 152.576 39.8402 153.924 39.6886C153.91 34.0986 153.88 28.5126 153.676 22.9269Z" fill="#919191"/>
<path d="M156.528 35.7512C154.195 36.1022 151.801 36.3589 149.434 36.3092L149.488 39.7955C157.273 40.2532 161.947 37.6779 163.092 33.7559C160.914 34.8385 158.408 35.4675 156.528 35.7512Z" fill="#C4C4C4"/>
<path opacity="0.5" d="M150.746 27.0543C152.368 27.0106 153.998 26.969 155.567 27.2166C156.491 27.3323 157.402 27.519 158.287 27.8166C159.569 28.25 160.85 28.7996 161.912 29.6586C162.471 30.113 162.911 30.659 163.355 31.2033C163.355 31.1876 163.355 31.1723 163.355 31.1573C160.808 26.519 154.628 24.8906 149.262 25.0806L149.292 27.0686C149.776 27.0663 150.259 27.0613 150.746 27.0543Z" fill="white"/>
<path d="M172.904 33.842L163.372 37.4667L157.075 20.8983L164.046 18.2823L172.904 33.842Z" fill="#434746"/>
<path opacity="0.4" d="M167.288 26.8893C165.029 27.8823 162.787 28.9663 160.49 29.88L163.373 37.467L172.904 33.8423L168.624 26.3217C168.178 26.5087 167.73 26.6963 167.288 26.8893Z" fill="#292C2B"/>
<path d="M168.249 25.6639C168.089 26.4033 167.93 27.1429 167.745 27.8759C167.363 29.3969 167.168 31.3419 166.277 32.6659C165.436 33.9156 163.298 33.2026 161.458 32.4273L163.373 37.4666L171.141 34.5123C171.295 33.5006 171.411 32.4736 171.548 31.4596L168.249 25.6639Z" fill="#434746"/>
<path d="M170.632 32.2595C168.956 32.6428 167.664 35.5858 166.697 38.8301C166.707 39.0771 166.743 39.3185 166.833 39.5415C167.177 40.3931 168.304 40.2841 168.97 39.8361C169.379 38.3721 169.787 37.0995 170.109 36.4865C171.154 34.5031 173.607 34.9215 173.607 34.9215L182.899 35.4435L183.263 32.4161C183.263 32.4161 174.286 31.4238 170.632 32.2595Z" fill="#808686"/>
<path d="M172.452 33.8839C168.959 34.3592 168.626 36.8389 167.969 40.1749C168.323 40.1546 168.687 40.0262 168.97 39.8359C169.379 38.3719 169.787 37.0992 170.109 36.4862C171.153 34.5029 173.606 34.9212 173.606 34.9212L182.898 35.4432L183.078 33.9562C179.552 33.8242 175.921 33.4136 172.452 33.8839Z" fill="#696E6E"/>
<path d="M178.548 33.4939C178.548 35.1859 177.458 36.5569 176.112 36.5569C174.766 36.5569 173.677 35.1859 173.677 33.4939C173.677 31.8035 174.766 30.4329 176.112 30.4329C177.458 30.4325 178.548 31.8035 178.548 33.4939Z" fill="#272A28"/>
<path d="M178.548 33.4939C178.548 35.0765 177.529 36.3592 176.269 36.3592C175.01 36.3592 173.99 35.0762 173.99 33.4939C173.99 31.9129 175.01 30.6295 176.269 30.6295C177.529 30.6295 178.548 31.9129 178.548 33.4939Z" fill="#0E110D"/>
<path d="M178.548 33.6732C178.548 34.8672 177.715 35.8352 176.687 35.8352C175.659 35.8352 174.825 34.8672 174.825 33.6732C174.825 32.4782 175.659 31.5118 176.687 31.5118C177.715 31.5118 178.548 32.4782 178.548 33.6732Z" fill="#1D1D1B"/>
<path d="M183.001 32.0178L176.808 31.8258C175.866 31.8258 175.102 32.6548 175.102 33.6778C175.102 34.7008 175.866 35.5295 176.808 35.5295L183.141 35.6985L183.001 32.0178Z" fill="#414543"/>
<path d="M180.56 32.5612C178.848 32.5142 177.137 32.6352 175.427 32.6166C175.346 32.7436 175.269 32.8752 175.218 33.0229C177.83 33.0116 180.438 33.2036 183.049 33.2672L183.024 32.6176C182.205 32.6089 181.384 32.5842 180.56 32.5612Z" fill="#414543"/>
<path d="M175.328 34.5815C175.62 35.1459 176.17 35.5299 176.808 35.5299L183.141 35.6989L183.107 34.8085C182.022 34.7575 176.869 34.6159 175.328 34.5815Z" fill="#414543"/>
<path d="M184.515 33.8705C184.515 34.8935 183.751 35.7222 182.809 35.7222C181.867 35.7222 181.104 34.8935 181.104 33.8705C181.104 32.8478 181.868 32.0178 182.809 32.0178C183.751 32.0178 184.515 32.8475 184.515 33.8705Z" fill="#272A28"/>
<path d="M171.31 32.4851C171.31 32.4851 169.569 32.6601 168.421 35.1305C167.85 36.3595 167.297 37.9158 166.821 39.5035C166.826 39.5158 166.828 39.5291 166.833 39.5415C166.88 39.6578 166.942 39.7558 167.015 39.8378C167.924 37.1531 169.108 34.0841 169.953 33.4595C170.922 32.7428 171.941 32.4485 172.595 32.3271L171.31 32.4851Z" fill="#696E6E"/>
<path d="M174.64 101.169C174.64 101.169 161.749 102.702 158.166 94.5233C154.583 86.3446 147.842 75.5413 150.408 67.2663C152.974 58.9916 169.93 39.7329 161.654 38.6959C161.654 38.6959 156.607 37.2089 154.18 40.8526C151.752 44.4959 134.641 63.9459 131.108 77.5966C131.108 77.5966 144.591 74.6263 148.093 81.9793C151.595 89.332 151.281 105.891 161.558 108.406C161.558 108.406 165.083 109.528 169.946 109.078C171.742 108.911 177.685 108.868 184.464 108.879C187.991 109.178 196.261 110.156 200.267 112.955C205.439 116.57 224.946 109.384 227.001 101.168H174.64V101.169Z" fill="#5716DF"/>
<path d="M142.045 64.8256C145.535 60.6219 149.315 56.6576 152.673 52.3433C154.295 50.2606 155.927 48.0543 157.082 45.6719C158.164 43.4403 159.026 41.0889 159.985 38.7953C158.304 38.7319 155.959 39.0946 154.526 41.2453C152.104 44.8799 135.072 64.2436 131.481 77.8893C135.349 73.8139 138.463 69.1383 142.045 64.8256Z" fill="#784FEC"/>
<path d="M172.127 101.982C168.035 101.982 160.297 101.104 157.534 94.7997C156.86 93.2603 156.078 91.639 155.251 89.922C151.66 82.471 147.59 74.0267 149.749 67.062C150.679 64.0627 153.339 59.8313 156.156 55.3503C159.914 49.3713 164.174 42.5933 163.05 40.2217C162.969 40.0487 162.72 39.5243 161.568 39.3803C161.19 39.333 160.922 38.9887 160.969 38.6107C161.017 38.233 161.362 37.9647 161.739 38.012C163.002 38.1707 163.862 38.715 164.296 39.631C165.744 42.687 161.654 49.195 157.323 56.0847C154.677 60.2927 151.943 64.6443 151.066 67.471C149.067 73.9173 153.012 82.102 156.492 89.323C157.326 91.0517 158.113 92.684 158.797 94.2463C162.132 101.858 174.436 100.5 174.559 100.484C174.586 100.482 174.613 100.479 174.64 100.479H212.505C212.886 100.479 213.195 100.788 213.195 101.169C213.195 101.55 212.886 101.858 212.505 101.858H174.68C174.438 101.885 173.482 101.982 172.127 101.982Z" fill="white"/>
<path d="M158.577 33.3593L158.29 33.0433C158.29 33.0433 157.315 36.8313 158.406 40.4497L158.577 33.3593Z" fill="#F3DF73"/>
<path d="M158.29 33.0433C158.29 33.0433 162.998 32.3543 164.202 35.3397C165.408 38.3267 163.286 40.7367 158.406 40.4497L158.29 33.0433Z" fill="#784FEC"/>
<path d="M160.252 33.0096C159.164 32.9159 158.29 33.0433 158.29 33.0433L158.406 40.4496C159.12 40.4916 159.767 40.4676 160.362 40.4023C160.355 37.9373 160.343 35.4723 160.252 33.0096Z" fill="#ACACAC"/>
<path d="M161.51 38.664C160.481 38.8213 159.425 38.934 158.382 38.9117L158.407 40.4497C161.838 40.6513 163.901 39.5143 164.406 37.786C163.447 38.2617 162.34 38.5407 161.51 38.664Z" fill="#C4C4C4"/>
<path d="M158.96 34.8301C159.676 34.8097 160.395 34.7924 161.086 34.9014C161.494 34.9521 161.897 35.0344 162.287 35.1661C162.851 35.3571 163.417 35.5991 163.885 35.9784C164.131 36.1791 164.327 36.4187 164.522 36.6591C164.522 36.6527 164.522 36.6464 164.522 36.6391C163.398 34.5937 160.673 33.8761 158.305 33.9597L158.319 34.8361C158.532 34.8341 158.745 34.8317 158.96 34.8301Z" fill="#15373F"/>
<path d="M258.075 67.4231C258.075 67.4231 252.162 66.8354 252.935 68.7321C253.708 70.6287 267.442 78.9031 267.442 78.9031C267.442 78.9031 269.827 80.6271 269.654 78.9031C269.481 77.1791 262.467 68.1294 258.075 67.4231Z" fill="#808686"/>
<path d="M259.43 67.966C259.43 67.966 255.321 66.801 255.907 68.5674C256.495 70.333 266.928 78.039 266.928 78.039C266.928 78.039 268.738 79.645 268.608 78.039C268.477 76.4337 262.766 68.6237 259.43 67.966Z" fill="#F4D082"/>
<path d="M226.942 101.377C226.942 101.377 227.418 99.8556 225.349 99.939C223.28 100.021 210.609 99.939 210.609 99.939V102.113L226.942 101.377Z" fill="#323232"/>
<path d="M166.586 22.7426L165.962 21.647C163.391 22.4206 160.82 23.197 158.272 24.044L158.76 25.331C161.368 24.4646 163.977 23.6053 166.586 22.7426Z" fill="#696E6E"/>
<path d="M160.917 29.6276L157.609 20.9626L163.803 18.5963L158.132 21.101L160.917 29.6276Z" fill="#434746"/>
<path d="M159.196 47.041C159.196 48.4733 158.036 49.6333 156.604 49.6333C155.174 49.6333 154.013 48.4733 154.013 47.041C154.013 45.61 155.174 44.4493 156.604 44.4493C158.036 44.4493 159.196 45.61 159.196 47.041Z" fill="#3C00BC"/>
<path d="M158.736 47.0658C158.736 48.2558 157.771 49.2228 156.58 49.2228C155.389 49.2228 154.425 48.2558 154.425 47.0658C154.425 45.8751 155.389 44.9094 156.58 44.9094C157.771 44.9091 158.736 45.8751 158.736 47.0658Z" fill="#F3DF73"/>
<path d="M167.323 11.9053C167.323 15.1673 166.539 17.8113 165.572 17.8113C164.605 17.8113 163.821 15.167 163.821 11.9053C163.821 8.64433 164.605 6 165.572 6C166.539 6 167.323 8.64433 167.323 11.9053Z" fill="#808686"/>
<path d="M165.572 39.7002C165.408 39.7002 165.269 39.5756 165.253 39.4089C165.234 39.2089 163.357 19.3326 162.873 15.8523C162.344 12.0566 164.97 11.5933 164.996 11.5889C165.169 11.5619 165.336 11.6803 165.364 11.8553C165.391 12.0293 165.273 12.1933 165.099 12.2226C165.013 12.2369 163.069 12.6136 163.508 15.7636C163.995 19.2576 165.873 39.1489 165.892 39.3496C165.908 39.5253 165.779 39.6819 165.603 39.6982C165.592 39.6993 165.582 39.7002 165.572 39.7002Z" fill="#808686"/>
<path d="M244.312 81.009C244.284 81.146 243.613 81.9097 244.393 84.146C245.175 86.3814 246.093 88.1744 246.093 88.1744C246.093 88.1744 246.339 88.601 247.366 88.665L244.312 81.009Z" fill="#3C00BC"/>
<path d="M246.541 80.979C246.516 81.1017 245.911 81.7897 246.614 83.8053C247.319 85.8193 248.145 87.434 248.145 87.434C248.145 87.434 248.367 87.819 249.292 87.876L246.541 80.979Z" fill="#3C00BC"/>
<path d="M248.677 81.0087C248.654 81.1227 248.095 81.757 248.745 83.618C249.395 85.4783 250.158 86.9687 250.158 86.9687C250.158 86.9687 250.363 87.3243 251.217 87.377L248.677 81.0087Z" fill="#3C00BC"/>
<path d="M250.768 81.5204C250.75 81.6147 250.288 82.1387 250.824 83.6747C251.361 85.2101 251.991 86.4407 251.991 86.4407C251.991 86.4407 252.161 86.7344 252.865 86.7777L250.768 81.5204Z" fill="#3C00BC"/>
<path d="M252.756 81.8804C252.741 81.9564 252.366 82.3827 252.801 83.6307C253.238 84.878 253.749 85.8774 253.749 85.8774C253.749 85.8774 253.887 86.1164 254.459 86.1514L252.756 81.8804Z" fill="#3C00BC"/>
<path d="M254.594 82.0206C254.581 82.0826 254.276 82.4303 254.631 83.4486C254.987 84.4666 255.404 85.2823 255.404 85.2823C255.404 85.2823 255.517 85.4766 255.984 85.5056L254.594 82.0206Z" fill="#3C00BC"/>
</g>
</g>
<defs>
<radialGradient id="paint0_radial_5473_29242" cx="0" cy="0" r="1" gradientUnits="userSpaceOnUse" gradientTransform="translate(137.208 103.995) rotate(152.65) scale(13.4789 13.4789)">
<stop stop-color="#5E6769"/>
<stop offset="0.9515" stop-color="#8F9394"/>
<stop offset="1" stop-color="#8F9394"/>
</radialGradient>
<radialGradient id="paint1_radial_5473_29242" cx="0" cy="0" r="1" gradientUnits="userSpaceOnUse" gradientTransform="translate(137.272 103.927) rotate(152.65) scale(13.4916 13.4916)">
<stop stop-color="#5E6769"/>
<stop offset="0.9515" stop-color="#8F9394"/>
<stop offset="1" stop-color="#8F9394"/>
</radialGradient>
<radialGradient id="paint2_radial_5473_29242" cx="0" cy="0" r="1" gradientUnits="userSpaceOnUse" gradientTransform="translate(137.367 103.69) rotate(152.65) scale(13.4265 13.4265)">
<stop stop-color="#5E6769"/>
<stop offset="0.9515" stop-color="#8F9394"/>
<stop offset="1" stop-color="#8F9394"/>
</radialGradient>
<radialGradient id="paint3_radial_5473_29242" cx="0" cy="0" r="1" gradientUnits="userSpaceOnUse" gradientTransform="translate(137.025 104.04) rotate(152.65) scale(13.4617 13.4617)">
<stop stop-color="#5E6769"/>
<stop offset="0.9515" stop-color="#8F9394"/>
<stop offset="1" stop-color="#8F9394"/>
</radialGradient>
<radialGradient id="paint4_radial_5473_29242" cx="0" cy="0" r="1" gradientUnits="userSpaceOnUse" gradientTransform="translate(137.031 104.459) rotate(152.65) scale(13.4369 13.4369)">
<stop stop-color="#5E6769"/>
<stop offset="0.9515" stop-color="#8F9394"/>
<stop offset="1" stop-color="#8F9394"/>
</radialGradient>
<radialGradient id="paint5_radial_5473_29242" cx="0" cy="0" r="1" gradientUnits="userSpaceOnUse" gradientTransform="translate(137.529 103.958) rotate(152.65) scale(13.4759 13.4759)">
<stop stop-color="#5E6769"/>
<stop offset="0.9515" stop-color="#8F9394"/>
<stop offset="1" stop-color="#8F9394"/>
</radialGradient>
<radialGradient id="paint6_radial_5473_29242" cx="0" cy="0" r="1" gradientUnits="userSpaceOnUse" gradientTransform="translate(137.264 103.981) rotate(152.65) scale(13.5257 13.5257)">
<stop stop-color="#5E6769"/>
<stop offset="0.9515" stop-color="#8F9394"/>
<stop offset="1" stop-color="#8F9394"/>
</radialGradient>
<radialGradient id="paint7_radial_5473_29242" cx="0" cy="0" r="1" gradientUnits="userSpaceOnUse" gradientTransform="translate(137.235 104.151) rotate(152.65) scale(13.4876)">
<stop stop-color="#5E6769"/>
<stop offset="0.9515" stop-color="#8F9394"/>
<stop offset="1" stop-color="#8F9394"/>
</radialGradient>
<radialGradient id="paint8_radial_5473_29242" cx="0" cy="0" r="1" gradientUnits="userSpaceOnUse" gradientTransform="translate(137.017 104.515) rotate(152.65) scale(13.5191 13.5191)">
<stop stop-color="#5E6769"/>
<stop offset="0.9515" stop-color="#8F9394"/>
<stop offset="1" stop-color="#8F9394"/>
</radialGradient>
<radialGradient id="paint9_radial_5473_29242" cx="0" cy="0" r="1" gradientUnits="userSpaceOnUse" gradientTransform="translate(137.26 104.008) rotate(152.65) scale(13.473 13.4729)">
<stop stop-color="#5E6769"/>
<stop offset="0.9515" stop-color="#8F9394"/>
<stop offset="1" stop-color="#8F9394"/>
</radialGradient>
<radialGradient id="paint10_radial_5473_29242" cx="0" cy="0" r="1" gradientUnits="userSpaceOnUse" gradientTransform="translate(137.21 103.795) rotate(152.65) scale(13.4622 13.4621)">
<stop stop-color="#5E6769"/>
<stop offset="0.9515" stop-color="#8F9394"/>
<stop offset="1" stop-color="#8F9394"/>
</radialGradient>
<radialGradient id="paint11_radial_5473_29242" cx="0" cy="0" r="1" gradientUnits="userSpaceOnUse" gradientTransform="translate(136.942 104.346) rotate(152.65) scale(13.4885 13.4885)">
<stop stop-color="#5E6769"/>
<stop offset="0.9515" stop-color="#8F9394"/>
<stop offset="1" stop-color="#8F9394"/>
</radialGradient>
<radialGradient id="paint12_radial_5473_29242" cx="0" cy="0" r="1" gradientUnits="userSpaceOnUse" gradientTransform="translate(137.198 104.36) rotate(152.65) scale(13.4588 13.4588)">
<stop stop-color="#5E6769"/>
<stop offset="0.9515" stop-color="#8F9394"/>
<stop offset="1" stop-color="#8F9394"/>
</radialGradient>
<radialGradient id="paint13_radial_5473_29242" cx="0" cy="0" r="1" gradientUnits="userSpaceOnUse" gradientTransform="translate(247.907 103.995) rotate(152.65) scale(13.4789 13.4789)">
<stop stop-color="#5E6769"/>
<stop offset="0.9515" stop-color="#8F9394"/>
<stop offset="1" stop-color="#8F9394"/>
</radialGradient>
<radialGradient id="paint14_radial_5473_29242" cx="0" cy="0" r="1" gradientUnits="userSpaceOnUse" gradientTransform="translate(247.97 103.927) rotate(152.65) scale(13.4916 13.4916)">
<stop stop-color="#5E6769"/>
<stop offset="0.9515" stop-color="#8F9394"/>
<stop offset="1" stop-color="#8F9394"/>
</radialGradient>
<radialGradient id="paint15_radial_5473_29242" cx="0" cy="0" r="1" gradientUnits="userSpaceOnUse" gradientTransform="translate(248.067 103.69) rotate(152.65) scale(13.4252 13.4252)">
<stop stop-color="#5E6769"/>
<stop offset="0.9515" stop-color="#8F9394"/>
<stop offset="1" stop-color="#8F9394"/>
</radialGradient>
<radialGradient id="paint16_radial_5473_29242" cx="0" cy="0" r="1" gradientUnits="userSpaceOnUse" gradientTransform="translate(247.723 104.04) rotate(152.65) scale(13.463 13.463)">
<stop stop-color="#5E6769"/>
<stop offset="0.9515" stop-color="#8F9394"/>
<stop offset="1" stop-color="#8F9394"/>
</radialGradient>
<radialGradient id="paint17_radial_5473_29242" cx="0" cy="0" r="1" gradientUnits="userSpaceOnUse" gradientTransform="translate(247.731 104.459) rotate(152.65) scale(13.4369 13.4369)">
<stop stop-color="#5E6769"/>
<stop offset="0.9515" stop-color="#8F9394"/>
<stop offset="1" stop-color="#8F9394"/>
</radialGradient>
<radialGradient id="paint18_radial_5473_29242" cx="0" cy="0" r="1" gradientUnits="userSpaceOnUse" gradientTransform="translate(248.229 103.957) rotate(152.65) scale(13.4759 13.4759)">
<stop stop-color="#5E6769"/>
<stop offset="0.9515" stop-color="#8F9394"/>
<stop offset="1" stop-color="#8F9394"/>
</radialGradient>
<radialGradient id="paint19_radial_5473_29242" cx="0" cy="0" r="1" gradientUnits="userSpaceOnUse" gradientTransform="translate(247.963 103.982) rotate(152.65) scale(13.5258 13.5257)">
<stop stop-color="#5E6769"/>
<stop offset="0.9515" stop-color="#8F9394"/>
<stop offset="1" stop-color="#8F9394"/>
</radialGradient>
<radialGradient id="paint20_radial_5473_29242" cx="0" cy="0" r="1" gradientUnits="userSpaceOnUse" gradientTransform="translate(247.933 104.152) rotate(152.65) scale(13.4876 13.4876)">
<stop stop-color="#5E6769"/>
<stop offset="0.9515" stop-color="#8F9394"/>
<stop offset="1" stop-color="#8F9394"/>
</radialGradient>
<radialGradient id="paint21_radial_5473_29242" cx="0" cy="0" r="1" gradientUnits="userSpaceOnUse" gradientTransform="translate(247.719 104.514) rotate(152.65) scale(13.5231 13.5231)">
<stop stop-color="#5E6769"/>
<stop offset="0.9515" stop-color="#8F9394"/>
<stop offset="1" stop-color="#8F9394"/>
</radialGradient>
<radialGradient id="paint22_radial_5473_29242" cx="0" cy="0" r="1" gradientUnits="userSpaceOnUse" gradientTransform="translate(247.959 104.007) rotate(152.65) scale(13.4729 13.4729)">
<stop stop-color="#5E6769"/>
<stop offset="0.9515" stop-color="#8F9394"/>
<stop offset="1" stop-color="#8F9394"/>
</radialGradient>
<radialGradient id="paint23_radial_5473_29242" cx="0" cy="0" r="1" gradientUnits="userSpaceOnUse" gradientTransform="translate(247.908 103.794) rotate(152.65) scale(13.4622 13.4622)">
<stop stop-color="#5E6769"/>
<stop offset="0.9515" stop-color="#8F9394"/>
<stop offset="1" stop-color="#8F9394"/>
</radialGradient>
<radialGradient id="paint24_radial_5473_29242" cx="0" cy="0" r="1" gradientUnits="userSpaceOnUse" gradientTransform="translate(247.642 104.346) rotate(152.65) scale(13.4899 13.4899)">
<stop stop-color="#5E6769"/>
<stop offset="0.9515" stop-color="#8F9394"/>
<stop offset="1" stop-color="#8F9394"/>
</radialGradient>
<radialGradient id="paint25_radial_5473_29242" cx="0" cy="0" r="1" gradientUnits="userSpaceOnUse" gradientTransform="translate(247.897 104.359) rotate(152.65) scale(13.4588 13.4588)">
<stop stop-color="#5E6769"/>
<stop offset="0.9515" stop-color="#8F9394"/>
<stop offset="1" stop-color="#8F9394"/>
</radialGradient>
<linearGradient id="paint26_linear_5473_29242" x1="228.184" y1="90.0781" x2="240.427" y2="99.6837" gradientUnits="userSpaceOnUse">
<stop stop-color="white"/>
<stop offset="0.4861" stop-color="#99999A"/>
<stop offset="1"/>
</linearGradient>
<linearGradient id="paint27_linear_5473_29242" x1="240.552" y1="94.8781" x2="244.286" y2="100.399" gradientUnits="userSpaceOnUse">
<stop stop-color="white"/>
<stop offset="0.4861" stop-color="#99999A"/>
<stop offset="1"/>
</linearGradient>
<linearGradient id="paint28_linear_5473_29242" x1="231.389" y1="72.4589" x2="246.863" y2="95.3402" gradientUnits="userSpaceOnUse">
<stop stop-color="white"/>
<stop offset="0.4861" stop-color="#99999A"/>
<stop offset="1"/>
</linearGradient>
</defs>
</svg>
