<svg width="18" height="12" viewBox="0 0 18 12" fill="none" xmlns="http://www.w3.org/2000/svg">
<path d="M1 8.99998C1 9.6365 1.25286 10.2469 1.70294 10.697C2.15303 11.1471 2.76348 11.4 3.4 11.4C4.03652 11.4 4.64697 11.1471 5.09706 10.697C5.54714 10.2469 5.8 9.6365 5.8 8.99998C5.8 8.36346 5.54714 7.75301 5.09706 7.30292C4.64697 6.85283 4.03652 6.59998 3.4 6.59998C2.76348 6.59998 2.15303 6.85283 1.70294 7.30292C1.25286 7.75301 1 8.36346 1 8.99998Z" stroke="#3366FF" stroke-linecap="round" stroke-linejoin="round"/>
<path d="M12.2002 8.99998C12.2002 9.6365 12.4531 10.2469 12.9031 10.697C13.3532 11.1471 13.9637 11.4 14.6002 11.4C15.2367 11.4 15.8472 11.1471 16.2973 10.697C16.7473 10.2469 17.0002 9.6365 17.0002 8.99998C17.0002 8.36346 16.7473 7.75301 16.2973 7.30292C15.8472 6.85283 15.2367 6.59998 14.6002 6.59998C13.9637 6.59998 13.3532 6.85283 12.9031 7.30292C12.4531 7.75301 12.2002 8.36346 12.2002 8.99998Z" stroke="#3366FF" stroke-linecap="round" stroke-linejoin="round"/>
<path d="M4.2002 4.19995H12.6002L9.4002 7.39995H5.4002L8.6002 4.19995" stroke="#3366FF" stroke-linecap="round" stroke-linejoin="round"/>
<path d="M9.7998 1H11.3998L12.5998 3.4L14.1998 6.6" stroke="#3366FF" stroke-linecap="round" stroke-linejoin="round"/>
</svg>
