<svg width="20" height="20" viewBox="0 0 20 20" fill="none" xmlns="http://www.w3.org/2000/svg">
<path d="M10 1.00012C17.2 1.00012 19 2.80012 19 10.0001C19 17.2001 17.2 19.0001 10 19.0001C2.8 19.0001 1 17.2001 1 10.0001C1 2.80012 2.8 1.00012 10 1.00012Z" stroke="#3366FF" stroke-width="2" stroke-linecap="round" stroke-linejoin="round"/>
<path d="M10 10.3335C11.4728 10.3335 12.6667 9.13955 12.6667 7.66679C12.6667 6.19403 11.4728 5.00012 10 5.00012C8.52728 5.00012 7.33337 6.19403 7.33337 7.66679C7.33337 9.13955 8.52728 10.3335 10 10.3335Z" stroke="#3366FF" stroke-width="2" stroke-linecap="round" stroke-linejoin="round"/>
<path d="M6 15.0001V13.6668C6 12.9595 6.28095 12.2813 6.78105 11.7812C7.28115 11.2811 7.95942 11.0001 8.66667 11.0001H11.3333C12.0406 11.0001 12.7189 11.2811 13.219 11.7812C13.719 12.2813 14 12.9595 14 13.6668V15.0001" stroke="#3366FF" stroke-width="2" stroke-linecap="round" stroke-linejoin="round"/>
</svg>
