<svg width="24" height="42" viewBox="0 0 24 42" fill="none" xmlns="http://www.w3.org/2000/svg">
<path d="M1 3.64808C1 2.18559 2.18559 1 3.64808 1L20.3519 1C21.8144 1 23 2.18559 23 3.64808V38.3519C23 39.8144 21.8144 41 20.3519 41H3.64808C2.18559 41 1 39.8144 1 38.3519V3.64808Z" stroke="#3366FF" stroke-width="2"/>
<path d="M6 1V2C6 3.36447 7.0335 4 8 4H16C16.9665 4 18 3.36447 18 2V1" stroke="#3366FF" stroke-width="2"/>
<path d="M6 38H18" stroke="#3366FF" stroke-width="2" stroke-linecap="round"/>
<path d="M7.41122 29.6153L13.4042 24.0662" stroke="#3366FF" stroke-width="2" stroke-linecap="round"/>
<path d="M6.71436 25.2948L15.2123 17.446" stroke="#3366FF" stroke-width="2" stroke-linecap="round"/>
<path d="M10.4736 16.0522L15.2123 11.3136" stroke="#3366FF" stroke-width="2" stroke-linecap="round"/>
</svg>
