<svg width="62" height="56" viewBox="0 0 62 56" fill="none" xmlns="http://www.w3.org/2000/svg">
<path d="M9.22222 12.375H12.3333C13.9836 12.375 15.5662 11.7165 16.7331 10.5444C17.9 9.37232 18.5556 7.7826 18.5556 6.125C18.5556 5.2962 18.8833 4.50134 19.4668 3.91529C20.0502 3.32924 20.8415 3 21.6667 3H40.3333C41.1585 3 41.9498 3.32924 42.5332 3.91529C43.1167 4.50134 43.4444 5.2962 43.4444 6.125C43.4444 7.7826 44.1 9.37232 45.2669 10.5444C46.4338 11.7165 48.0164 12.375 49.6667 12.375H52.7778C54.428 12.375 56.0107 13.0335 57.1776 14.2056C58.3444 15.3777 59 16.9674 59 18.625V46.75C59 48.4076 58.3444 49.9973 57.1776 51.1694C56.0107 52.3415 54.428 53 52.7778 53H9.22222C7.57199 53 5.98934 52.3415 4.82245 51.1694C3.65555 49.9973 3 48.4076 3 46.75V18.625C3 16.9674 3.65555 15.3777 4.82245 14.2056C5.98934 13.0335 7.57199 12.375 9.22222 12.375" stroke="#A4DCFF" stroke-width="6" stroke-linecap="round" stroke-linejoin="round"/>
<path d="M30.9954 40.5002C36.1501 40.5002 40.3288 36.3029 40.3288 31.1252C40.3288 25.9476 36.1501 21.7502 30.9954 21.7502C25.8408 21.7502 21.6621 25.9476 21.6621 31.1252C21.6621 36.3029 25.8408 40.5002 30.9954 40.5002Z" stroke="#A4DCFF" stroke-width="6" stroke-linecap="round" stroke-linejoin="round"/>
</svg>
