<svg width="33" height="28" viewBox="0 0 33 28" fill="none" xmlns="http://www.w3.org/2000/svg">
<path d="M4.44444 5.83333H6.16667C7.08019 5.83333 7.9563 5.49385 8.60226 4.88957C9.24822 4.28528 9.61111 3.4657 9.61111 2.61111C9.61111 2.18382 9.79256 1.77403 10.1155 1.47188C10.4385 1.16974 10.8766 1 11.3333 1H21.6667C22.1234 1 22.5615 1.16974 22.8845 1.47188C23.2074 1.77403 23.3889 2.18382 23.3889 2.61111C23.3889 3.4657 23.7518 4.28528 24.3977 4.88957C25.0437 5.49385 25.9198 5.83333 26.8333 5.83333H28.5556C29.4691 5.83333 30.3452 6.17282 30.9911 6.7771C31.6371 7.38138 32 8.20097 32 9.05556V23.5556C32 24.4101 31.6371 25.2297 30.9911 25.834C30.3452 26.4383 29.4691 26.7778 28.5556 26.7778H4.44444C3.53092 26.7778 2.65481 26.4383 2.00885 25.834C1.3629 25.2297 1 24.4101 1 23.5556V9.05556C1 8.20097 1.3629 7.38138 2.00885 6.7771C2.65481 6.17282 3.53092 5.83333 4.44444 5.83333" stroke="#3366FF" stroke-width="2" stroke-linecap="round" stroke-linejoin="round"/>
<path d="M17 9V21" stroke="#3366FF" stroke-width="2" stroke-linecap="round" stroke-linejoin="round"/>
<path d="M11 15H23" stroke="#3366FF" stroke-width="2" stroke-linecap="round" stroke-linejoin="round"/>
</svg>
