<svg width="18" height="16" viewBox="0 0 18 16" fill="none" xmlns="http://www.w3.org/2000/svg">
<path d="M2.75 3.625H3.625C4.08913 3.625 4.53425 3.44063 4.86244 3.11244C5.19063 2.78425 5.375 2.33913 5.375 1.875C5.375 1.64294 5.46719 1.42038 5.63128 1.25628C5.79538 1.09219 6.01794 1 6.25 1H11.5C11.7321 1 11.9546 1.09219 12.1187 1.25628C12.2828 1.42038 12.375 1.64294 12.375 1.875C12.375 2.33913 12.5594 2.78425 12.8876 3.11244C13.2158 3.44063 13.6609 3.625 14.125 3.625H15C15.4641 3.625 15.9092 3.80937 16.2374 4.13756C16.5656 4.46575 16.75 4.91087 16.75 5.375V13.25C16.75 13.7141 16.5656 14.1592 16.2374 14.4874C15.9092 14.8156 15.4641 15 15 15H2.75C2.28587 15 1.84075 14.8156 1.51256 14.4874C1.18437 14.1592 1 13.7141 1 13.25V5.375C1 4.91087 1.18437 4.46575 1.51256 4.13756C1.84075 3.80937 2.28587 3.625 2.75 3.625" stroke="#3366FF" stroke-linecap="round" stroke-linejoin="round"/>
<path d="M8.875 11.5C10.3247 11.5 11.5 10.3247 11.5 8.875C11.5 7.42525 10.3247 6.25 8.875 6.25C7.42525 6.25 6.25 7.42525 6.25 8.875C6.25 10.3247 7.42525 11.5 8.875 11.5Z" stroke="#3366FF" stroke-linecap="round" stroke-linejoin="round"/>
</svg>
