<svg width="18" height="17" viewBox="0 0 18 17" fill="none" xmlns="http://www.w3.org/2000/svg">
<path d="M2.77778 3.66667H3.66667C4.13816 3.66667 4.59035 3.47937 4.92375 3.14597C5.25714 2.81257 5.44444 2.36038 5.44444 1.88889C5.44444 1.65314 5.5381 1.42705 5.70479 1.26035C5.87149 1.09365 6.09759 1 6.33333 1H11.6667C11.9024 1 12.1285 1.09365 12.2952 1.26035C12.4619 1.42705 12.5556 1.65314 12.5556 1.88889C12.5556 2.36038 12.7429 2.81257 13.0763 3.14597C13.4097 3.47937 13.8618 3.66667 14.3333 3.66667H15.2222C15.6937 3.66667 16.1459 3.85397 16.4793 4.18737C16.8127 4.52076 17 4.97295 17 5.44444V13.4444C17 13.9159 16.8127 14.3681 16.4793 14.7015C16.1459 15.0349 15.6937 15.2222 15.2222 15.2222H2.77778C2.30628 15.2222 1.8541 15.0349 1.5207 14.7015C1.1873 14.3681 1 13.9159 1 13.4444V5.44444C1 4.97295 1.1873 4.52076 1.5207 4.18737C1.8541 3.85397 2.30628 3.66667 2.77778 3.66667" stroke="#3366FF" stroke-width="2" stroke-linecap="round" stroke-linejoin="round"/>
</svg>
