<svg width="56" height="56" viewBox="0 0 56 56" fill="none" xmlns="http://www.w3.org/2000/svg">
<path fill-rule="evenodd" clip-rule="evenodd" d="M7.95431 7.95431C9.13578 6.77283 10.7382 6.10908 12.4091 6.10908H43.5908C45.2617 6.10908 46.8641 6.77283 48.0456 7.95431C49.2271 9.13578 49.8908 10.7382 49.8908 12.4091V31.1181C49.8908 32.789 49.2271 34.3914 48.0456 35.5729C46.8641 36.7544 45.2617 37.4181 43.5908 37.4181H15.5272C14.7171 37.4181 13.9402 37.7399 13.3674 38.3128L6.10908 45.5711V12.4091C6.10908 10.7382 6.77283 9.13578 7.95431 7.95431ZM12.4091 0C9.11798 0 5.96169 1.30738 3.63453 3.63453C1.30738 5.96169 0 9.11798 0 12.4091V52.9454C0 54.1808 0.744215 55.2946 1.88562 55.7674C3.02702 56.2402 4.34083 55.9789 5.21443 55.1053L16.7925 43.5272H43.5908C46.8819 43.5272 50.0382 42.2198 52.3654 39.8927C54.6925 37.5655 55.9999 34.4092 55.9999 31.1181V12.4091C55.9999 9.11798 54.6925 5.96169 52.3654 3.63453C50.0382 1.30738 46.8819 0 43.5908 0H12.4091ZM22.6545 17.6909C22.6545 16.0039 21.2869 14.6363 19.6 14.6363C17.913 14.6363 16.5454 16.0039 16.5454 17.6909V17.7221C16.5454 19.409 17.913 20.7766 19.6 20.7766C21.2869 20.7766 22.6545 19.409 22.6545 17.7221V17.6909ZM27.0599 27.6158C24.4512 28.0637 22.1101 29.639 20.7873 30.9654C19.9931 31.7617 18.7037 31.7634 17.9074 30.9692C17.1111 30.1751 17.1094 28.8857 17.9036 28.0894C19.6459 26.3424 22.7139 24.2297 26.3707 23.6018C30.1838 22.9472 34.4595 23.9506 38.1832 28.1821C38.9262 29.0264 38.844 30.3131 37.9998 31.0561C37.1555 31.7991 35.8687 31.717 35.1258 30.8727C32.3585 27.7281 29.5123 27.1948 27.0599 27.6158ZM39.4545 17.6909C39.4545 16.0039 38.0869 14.6363 36.3999 14.6363C34.713 14.6363 33.3454 16.0039 33.3454 17.6909V17.7221C33.3454 19.409 34.713 20.7766 36.3999 20.7766C38.0869 20.7766 39.4545 19.409 39.4545 17.7221V17.6909Z" fill="#D6D6D6"/>
</svg>
