<svg width="19" height="19" viewBox="0 0 19 19" fill="none" xmlns="http://www.w3.org/2000/svg">
<path d="M1.05444 10.5318C2.9429 10.7562 4.70094 11.6095 6.04568 12.9542C7.39042 14.299 8.24365 16.057 8.46808 17.9455C9.40423 17.4058 10.1873 16.6362 10.7432 15.7096C11.2992 14.7831 11.6097 13.73 11.6454 12.65C13.4237 12.0244 14.9766 10.8855 16.1077 9.37742C17.2388 7.86929 17.8973 6.05964 17.9999 4.17727C17.9999 3.33461 17.6652 2.52646 17.0693 1.9306C16.4734 1.33475 15.6653 1 14.8226 1C12.9403 1.10263 11.1306 1.76113 9.62248 2.89223C8.11435 4.02332 6.97549 5.57622 6.3499 7.35455C5.2699 7.39021 4.21684 7.7007 3.29025 8.25665C2.36366 8.81261 1.59415 9.59567 1.05444 10.5318" stroke="#3366FF" stroke-linecap="round" stroke-linejoin="round"/>
<path d="M4.23053 11.5908C3.12826 12.2131 2.23695 13.1504 1.67087 14.2826C1.10479 15.4147 0.889728 16.6902 1.05326 17.9454C2.30845 18.1089 3.58388 17.8938 4.71604 17.3278C5.8482 16.7617 6.78551 15.8704 7.4078 14.7681" stroke="#3366FF" stroke-linecap="round" stroke-linejoin="round"/>
<path d="M12.7047 7.35454C13.2896 7.35454 13.7638 6.88037 13.7638 6.29545C13.7638 5.71053 13.2896 5.23636 12.7047 5.23636C12.1197 5.23636 11.6456 5.71053 11.6456 6.29545C11.6456 6.88037 12.1197 7.35454 12.7047 7.35454Z" stroke="#3366FF" stroke-linecap="round" stroke-linejoin="round"/>
</svg>
