<svg width="215" height="214" viewBox="0 0 215 214" fill="none" xmlns="http://www.w3.org/2000/svg">
<path d="M105.217 210.019C159.43 210.019 203.379 166.071 203.379 111.858C203.379 57.6451 159.43 13.6968 105.217 13.6968C51.0044 13.6968 7.05615 57.6451 7.05615 111.858C7.05615 166.071 51.0044 210.019 105.217 210.019Z" fill="#D1F5FF"/>
<path d="M53.8666 140.511C58.3044 149.532 54.5894 160.442 45.5689 164.881L27.8151 173.615C18.7945 178.054 7.88393 174.338 3.44664 165.318L1.87353 162.123C-2.56401 153.1 1.15071 142.191 10.1715 137.753L27.9239 129.018C36.9456 124.58 47.856 128.295 52.294 137.316L53.8666 140.511Z" fill="#3366FF"/>
<path d="M24.9077 126.601L9.57324 134.44L30.8376 176.035L46.1721 168.195L24.9077 126.601Z" fill="#E032C4"/>
<path d="M48.269 165.408L66.2203 200.185C68.9774 200.779 71.7798 201.253 74.6228 201.594L83.0657 197.237L62.7723 157.923L48.269 165.408Z" fill="#E032C4"/>
<path d="M103.432 46.9492C103.432 46.9492 85.7137 87.443 49.2349 112.422L72.5465 153.208C72.5465 153.208 131.101 129.377 156.513 142.381C156.513 142.381 142.778 76.5068 103.432 46.9492Z" fill="#EFEFEF"/>
<path opacity="0.7" d="M103.343 52.3062C103.343 52.3062 78.3222 105.128 25.0771 136.008L25.8433 138.73C25.8433 138.73 78.682 113.076 108.368 56.8293L103.343 52.3062Z" fill="white"/>
<path opacity="0.2" d="M70.2043 151.522C70.2043 151.522 122.002 126.892 154.631 138.256C154.631 138.256 145.561 105.262 129.44 82.0728C129.44 82.0728 144.299 111.389 137.541 115.416C130.783 119.443 115.381 134.439 63.5176 142.634L70.2043 151.522Z" fill="black"/>
<path d="M50.4473 107.616L14.9849 125.745L40.2168 175.101L75.6793 156.971L50.4473 107.616Z" fill="#EAE6E5"/>
<path opacity="0.8" d="M53.1569 115.905C44.9226 123.112 35.5824 130.055 25.1084 136.117L25.8435 138.73C25.8435 138.73 38.6423 132.525 55.0108 119.525L53.1569 115.905Z" fill="white"/>
<path opacity="0.2" d="M66.506 142.646L70.7867 151.038L37.1123 169.041C37.1123 169.041 62.4497 155.516 66.506 142.646Z" fill="black"/>
<path d="M1.82553 162.018L8.66359 158.543L8.17531 157.583L1.38574 161.033C1.52233 161.363 1.66729 161.692 1.82553 162.018Z" fill="#003BCE"/>
<path d="M2.65688 163.712L9.51905 160.225L9.03127 159.265L2.18115 162.745L2.65688 163.712Z" fill="#003BCE"/>
<path d="M9.8852 160.946L3.01416 164.438L3.44755 165.318C3.46158 165.346 3.47782 165.374 3.49259 165.405L10.3737 161.907L9.8852 160.946Z" fill="#003BCE"/>
<path d="M4.39843 167.016L11.2101 163.554L10.7221 162.594L3.84912 166.086C4.0241 166.402 4.2072 166.712 4.39843 167.016Z" fill="#003BCE"/>
<path d="M5.57339 168.663L12.1156 165.338L11.6271 164.378L4.91357 167.789C5.12473 168.089 5.34623 168.379 5.57339 168.663Z" fill="#003BCE"/>
<path d="M136.544 0.344543C138.049 1.12421 138.638 2.9764 137.858 4.48183L119.66 39.6196C118.881 41.1248 117.028 41.713 115.523 40.9336C114.018 40.1542 113.429 38.302 114.209 36.7965L132.407 1.6585C133.187 0.153073 135.039 -0.435121 136.544 0.344543Z" fill="#3366FF"/>
<path d="M215 133.009C214.993 134.704 213.613 136.072 211.918 136.065L167.142 135.894C165.447 135.886 164.079 134.506 164.086 132.811C164.094 131.116 165.474 129.748 167.169 129.755L211.944 129.926C213.639 129.934 215.007 131.313 215 133.009Z" fill="#3366FF"/>
<path d="M196.089 53.5943C197.163 54.9056 196.972 56.8395 195.66 57.9137L155.208 84.7166C153.897 85.7909 151.963 85.5989 150.889 84.2879C149.814 82.9767 150.006 81.0428 151.318 79.9688L191.77 53.1656C193.081 52.0911 195.014 52.2831 196.089 53.5943Z" fill="#3366FF"/>
<path d="M168.031 21.8922C168.766 22.789 168.635 24.1111 167.738 24.8457L135.592 58.4771C134.696 59.2115 133.373 59.0806 132.638 58.1838C131.904 57.2872 132.035 55.9651 132.931 55.2302L165.077 21.5994C165.974 20.8645 167.296 20.9959 168.031 21.8922Z" fill="#3366FF"/>
<path d="M208.522 89.2621C209.013 90.312 208.56 91.5617 207.51 92.0525L165.255 107.514C164.205 108.005 162.955 107.552 162.464 106.502C161.973 105.452 162.426 104.203 163.477 103.712L205.731 88.2501C206.781 87.7589 208.031 88.2127 208.522 89.2621Z" fill="#3366FF"/>
<path d="M75.6756 50.3206L77.6506 54.323L82.0674 54.9646L78.8715 58.08L79.6261 62.4789L75.6756 60.4023L71.7248 62.4789L72.4794 58.08L69.2832 54.9646L73.7001 54.323L75.6756 50.3206Z" fill="#F567F9"/>
<path d="M113.865 201.595L115.84 205.597L120.257 206.239L117.061 209.354L117.816 213.753L113.865 211.676L109.915 213.753L110.669 209.354L107.473 206.239L111.89 205.597L113.865 201.595Z" fill="#F567F9"/>
<path d="M99.148 11.5183L101.123 15.5205L105.54 16.1623L102.344 19.2775L103.098 23.6767L99.148 21.5996L95.1972 23.6767L95.9518 19.2775L92.7559 16.1623L97.1727 15.5205L99.148 11.5183Z" fill="#F567F9"/>
<path d="M168.657 157.096L170.632 161.099L175.049 161.74L171.853 164.855L172.608 169.255L168.657 167.178L164.707 169.255L165.461 164.855L162.265 161.74L166.682 161.099L168.657 157.096Z" fill="#F567F9"/>
<path d="M37.1135 80.7598L39.0888 84.7622L43.5054 85.4038L40.3097 88.5192L41.064 92.9184L37.1135 90.8413L33.163 92.9184L33.9174 88.5192L30.7217 85.4038L35.1383 84.7622L37.1135 80.7598Z" fill="#F567F9"/>
<path d="M37.1135 35.1987L39.0888 39.2012L43.5054 39.8428L40.3097 42.9582L41.064 47.3571L37.1135 45.2802L33.163 47.3571L33.9174 42.9582L30.7217 39.8428L35.1383 39.2012L37.1135 35.1987Z" fill="#F567F9"/>
<path d="M95.0738 160.521L96.4658 163.341L99.578 163.793L97.3262 165.989L97.8578 169.089L95.0738 167.625L92.2901 169.089L92.8217 165.989L90.5698 163.793L93.6818 163.341L95.0738 160.521Z" fill="#F567F9"/>
<path d="M132.165 169.955L134.14 173.957L138.556 174.599L135.361 177.714L136.115 182.113L132.165 180.036L128.214 182.113L128.968 177.714L125.772 174.599L130.189 173.957L132.165 169.955Z" fill="#F567F9"/>
</svg>
