<svg width="16" height="16" viewBox="0 0 16 16" fill="none" xmlns="http://www.w3.org/2000/svg">
<path d="M3.33333 15L15 3.33333L12.6667 1L1 12.6667L3.33333 15Z" stroke="#3366FF" stroke-linecap="round" stroke-linejoin="round"/>
<path d="M10.333 3.33325L12.6663 5.66659" stroke="#3366FF" stroke-linecap="round" stroke-linejoin="round"/>
<path d="M5.66688 1C5.66688 1.41256 5.83077 1.80822 6.1225 2.09994C6.41422 2.39167 6.80988 2.55556 7.22244 2.55556C6.80988 2.55556 6.41422 2.71944 6.1225 3.01117C5.83077 3.30289 5.66688 3.69855 5.66688 4.11111C5.66688 3.69855 5.50299 3.30289 5.21127 3.01117C4.91955 2.71944 4.52389 2.55556 4.11133 2.55556C4.52389 2.55556 4.91955 2.39167 5.21127 2.09994C5.50299 1.80822 5.66688 1.41256 5.66688 1Z" stroke="#3366FF" stroke-linecap="round" stroke-linejoin="round"/>
<path d="M13.4442 8.77783C13.4442 9.19039 13.6081 9.58605 13.8998 9.87778C14.1916 10.1695 14.5872 10.3334 14.9998 10.3334C14.5872 10.3334 14.1916 10.4973 13.8998 10.789C13.6081 11.0807 13.4442 11.4764 13.4442 11.8889C13.4442 11.4764 13.2803 11.0807 12.9886 10.789C12.6969 10.4973 12.3012 10.3334 11.8887 10.3334C12.3012 10.3334 12.6969 10.1695 12.9886 9.87778C13.2803 9.58605 13.4442 9.19039 13.4442 8.77783Z" stroke="#3366FF" stroke-linecap="round" stroke-linejoin="round"/>
</svg>
