<svg width="15" height="18" viewBox="0 0 15 18" fill="none" xmlns="http://www.w3.org/2000/svg">
<path d="M4.58203 9.80001V3.80001C4.58203 3.48175 4.70846 3.17652 4.9335 2.95148C5.15855 2.72643 5.46377 2.60001 5.78203 2.60001C6.10029 2.60001 6.40552 2.72643 6.63056 2.95148C6.8556 3.17652 6.98203 3.48175 6.98203 3.80001V9.00001" stroke="#3366FF" stroke-linecap="round" stroke-linejoin="round"/>
<path d="M6.98242 3.8V2.2C6.98242 2.04241 7.01346 1.88637 7.07377 1.74078C7.13407 1.59519 7.22246 1.4629 7.33389 1.35147C7.44532 1.24004 7.57761 1.15165 7.7232 1.09134C7.86879 1.03104 8.02484 1 8.18242 1C8.34001 1 8.49605 1.03104 8.64164 1.09134C8.78723 1.15165 8.91952 1.24004 9.03095 1.35147C9.14238 1.4629 9.23077 1.59519 9.29108 1.74078C9.35138 1.88637 9.38242 2.04241 9.38242 2.2V9" stroke="#3366FF" stroke-linecap="round" stroke-linejoin="round"/>
<path d="M9.38297 3.80001C9.38297 3.48175 9.50939 3.17652 9.73444 2.95148C9.95948 2.72643 10.2647 2.60001 10.583 2.60001C10.9012 2.60001 11.2064 2.72643 11.4315 2.95148C11.6565 3.17652 11.783 3.48175 11.783 3.80001V9.00001" stroke="#3366FF" stroke-linecap="round" stroke-linejoin="round"/>
<path d="M11.783 5.4C11.783 5.08174 11.9094 4.77651 12.1344 4.55147C12.3595 4.32643 12.6647 4.2 12.983 4.2C13.3012 4.2 13.6064 4.32643 13.8315 4.55147C14.0565 4.77651 14.183 5.08174 14.183 5.4V12.2C14.183 13.473 13.6772 14.6939 12.7771 15.5941C11.8769 16.4943 10.656 17 9.38296 17H7.78296H7.94936C7.15443 17.0001 6.37191 16.8028 5.67207 16.4258C4.97222 16.0488 4.37697 15.5039 3.93976 14.84C3.88729 14.7601 3.83502 14.6801 3.78296 14.6C3.53336 14.2168 2.65736 12.6896 1.15416 10.0176C1.00092 9.74522 0.959986 9.42381 1.04006 9.12172C1.12014 8.81963 1.31492 8.5607 1.58296 8.4C1.86846 8.22869 2.20302 8.15769 2.53349 8.19827C2.86396 8.23886 3.17139 8.3887 3.40696 8.624L4.58296 9.8" stroke="#3366FF" stroke-linecap="round" stroke-linejoin="round"/>
</svg>
