<svg width="56" height="56" viewBox="0 0 56 56" fill="none" xmlns="http://www.w3.org/2000/svg">
<path d="M28 56C43.464 56 56 43.464 56 28C56 12.536 43.464 0 28 0C12.536 0 0 12.536 0 28C0 43.464 12.536 56 28 56Z" fill="#3366FF"/>
<path d="M27.9046 50.1965C27.5927 50.1965 27.3278 49.954 27.3043 49.637C27.2807 49.305 27.5305 49.0166 27.8626 48.9919L37.6391 48.2818C44.4856 48.2807 49.0547 41.2471 49.0547 34.6778C49.0547 34.3446 49.324 34.0752 49.6572 34.0752C49.9904 34.0752 50.2604 34.3446 50.2604 34.6778C50.2604 41.7998 45.4522 49.4864 37.6828 49.4864L27.9494 50.1954C27.9343 50.1965 27.9197 50.1965 27.9046 50.1965Z" fill="#91ACFF"/>
<path d="M31.0346 51.6627H25.7622C25.3092 51.6627 24.9424 51.2959 24.9424 50.8428V48.3452C24.9424 47.8927 25.3092 47.5254 25.7622 47.5254H31.0352C31.4877 47.5254 31.855 47.8922 31.855 48.3452V50.8428C31.8545 51.2959 31.4877 51.6627 31.0346 51.6627Z" fill="#0033B6"/>
<path d="M27.5966 7.99783C37.7141 7.99783 44.848 13.7154 45.7781 22.4492C46.7968 22.597 47.5914 22.807 47.5914 22.2566C47.5914 12.7567 38.3369 3.76367 27.5966 3.76367C16.8564 3.76367 7.0127 13.1151 7.0127 22.615C7.0127 23.166 7.9199 22.7449 8.9195 22.7734C9.84966 14.0397 17.4791 7.99783 27.5966 7.99783Z" fill="#003BCE"/>
<path d="M11.8917 12.6902C12.5593 12.9265 13.6765 11.6212 14.68 10.9189C19.6298 6.53748 27.6613 5.88508 29.8089 5.8358C30.5549 5.75964 30.9004 5.33348 30.071 5.0742C28.9818 4.85972 27.8629 4.74268 26.7245 4.74268C20.8148 4.74268 15.2125 7.92908 11.7999 12.3587C11.7372 12.4399 11.7988 12.6616 11.8917 12.6902Z" fill="#5580FF"/>
<path d="M11.0912 37.9806H5.56628C4.4446 37.9806 3.53516 37.0712 3.53516 35.9495V20.7606C3.53516 19.6389 4.4446 18.7295 5.56628 18.7295H11.0912C11.1192 18.7295 11.1422 18.7525 11.1422 18.7805V37.9291C11.1416 37.9577 11.1192 37.9806 11.0912 37.9806Z" fill="#003BCE"/>
<path d="M12.0859 18.7305H11.0264C11.0908 18.7305 11.1423 18.7825 11.1423 18.8464V37.8651C11.1423 37.9289 11.0902 37.981 11.0264 37.981H12.0859C12.1497 37.981 12.2018 37.9289 12.2018 37.8651V18.8464C12.2012 18.7825 12.1497 18.7305 12.0859 18.7305Z" fill="#0033B6"/>
<path d="M3.53517 32.531H2.28413C1.94141 32.531 1.66309 32.2532 1.66309 31.9105V24.8007C1.66309 24.458 1.94085 24.1797 2.28413 24.1797H3.53517V32.531Z" fill="#91ACFF"/>
<path d="M44.9099 37.9806H50.4349C51.5566 37.9806 52.4654 37.0712 52.4654 35.9501V20.7606C52.4654 19.6389 51.556 18.7295 50.4343 18.7295H44.9094C44.8814 18.7295 44.8584 18.7525 44.8584 18.7805V37.9291C44.8595 37.9577 44.8819 37.9806 44.9099 37.9806Z" fill="#003BCE"/>
<path d="M43.9157 18.7305H44.9752C44.9114 18.7305 44.8593 18.7825 44.8593 18.8464V37.8651C44.8593 37.9289 44.9108 37.981 44.9752 37.981H43.9157C43.8519 37.981 43.7998 37.9289 43.7998 37.8651V18.8464C43.7998 18.7825 43.8519 18.7305 43.9157 18.7305Z" fill="#0033B6"/>
<path d="M52.4658 32.531H53.7169C54.0596 32.531 54.3379 32.2532 54.3379 31.9099V24.8007C54.3379 24.458 54.0601 24.1797 53.7169 24.1797H52.4658V32.531Z" fill="#91ACFF"/>
<path d="M14.7373 22.6383V34.4274H11.7901V31.4801H8.84279V34.4274H5.89551V25.585L8.84279 22.6377H14.7373V22.6383ZM11.7901 28.5328V25.5855H8.77335L8.84279 28.5328H11.7901Z" fill="white"/>
<path d="M25.0918 31.48V34.4273H16.25V22.6382H19.1973V31.48H25.0918Z" fill="white"/>
<path d="M29.5126 34.4273H26.6045V22.6382H29.5126V34.4273Z" fill="white"/>
<path d="M33.9336 31.48H36.8809V28.5327H39.8282V34.4273H30.9863V22.6382H39.8287V25.5855H33.9336V31.48Z" fill="white"/>
<path d="M47.119 34.4273H41.2637V22.6382H50.1055V31.48L47.119 34.4273ZM47.1582 25.5855H44.211V31.48H47.1543L47.1582 25.5855Z" fill="#F567F9"/>
</svg>
