<svg width="24" height="24" viewBox="0 0 24 24" fill="none" xmlns="http://www.w3.org/2000/svg">
<path fill-rule="evenodd" clip-rule="evenodd" d="M24 12C24 18.6274 18.6274 24 12 24C5.37259 24 0 18.6274 0 12C0 5.37258 5.37259 0 12 0C18.6274 0 24 5.37258 24 12ZM15.9234 16.0088C16.0456 15.4327 16.1679 14.8565 16.2914 14.2808C16.5 13.3087 17.2532 9.74723 17.601 8.10285C17.7071 7.60126 17.7755 7.27805 17.7792 7.26109C17.844 6.95971 17.8071 6.68002 17.5566 6.48063C17.3192 6.2918 17.0538 6.35209 16.7925 6.45322C16.4585 6.58307 16.1236 6.71056 15.7887 6.83804C15.5298 6.9366 15.2709 7.03517 15.0125 7.13482C14.4021 7.3702 13.7919 7.60621 13.1816 7.84223C12.4268 8.13413 11.672 8.42605 10.9169 8.71683C10.3223 8.94559 9.72732 9.17337 9.1324 9.40114C8.36853 9.69359 7.60467 9.98604 6.84154 10.2806C6.16308 10.5425 5.48576 10.8082 4.81301 11.0841C4.58562 11.1773 4.33367 11.3095 4.35195 11.5912C4.36813 11.8462 4.60188 11.9183 4.81636 11.9845C4.83282 11.9896 4.84917 11.9946 4.86529 11.9997C5.14678 12.0883 5.42816 12.1773 5.70958 12.2663C6.38404 12.4796 7.05864 12.693 7.7351 12.9004C7.82194 12.927 7.94964 12.909 8.02791 12.8616C8.36845 12.6549 8.70453 12.4404 9.04064 12.2259C9.17878 12.1378 9.31693 12.0496 9.45539 11.962C9.63302 11.8496 9.81065 11.7372 9.98828 11.6248C11.514 10.6594 13.0396 9.69404 14.5674 8.73169C14.7642 8.60771 14.9722 8.49801 15.1839 8.40145C15.2261 8.38218 15.283 8.39501 15.3398 8.40785C15.3664 8.41385 15.393 8.41986 15.4181 8.42259C15.4084 8.44464 15.4003 8.46841 15.3923 8.49216C15.3748 8.54378 15.3573 8.59537 15.3227 8.62941C15.0945 8.85337 14.8576 9.06877 14.6202 9.28388C14.2761 9.59579 13.9318 9.90761 13.5875 10.2194C12.3153 11.3718 11.043 12.5241 9.77562 13.682C9.68421 13.7657 9.62364 13.9197 9.61107 14.0471C9.55629 14.5995 9.51609 15.1532 9.4759 15.707C9.47041 15.7826 9.46492 15.8583 9.45939 15.9339C9.44272 16.1607 9.42986 16.3877 9.41708 16.6136C9.41102 16.7206 9.40497 16.8274 9.39854 16.9338C9.69751 16.9525 9.87616 16.7803 10.0549 16.608C10.0643 16.5989 10.0738 16.5898 10.0833 16.5807C10.4545 16.224 10.8263 15.8677 11.2027 15.5069C11.3063 15.4076 11.4101 15.3081 11.5145 15.208C11.5402 15.2258 11.5649 15.2424 11.5888 15.2584C11.631 15.2867 11.6707 15.3133 11.709 15.3415C12.0044 15.5587 12.2993 15.7765 12.5942 15.9944C13.2324 16.4658 13.8705 16.9372 14.5131 17.4025C15.1033 17.8299 15.5021 17.6834 15.7095 16.9843C15.7107 16.9808 15.7128 16.9775 15.7149 16.9742C15.7174 16.9702 15.72 16.9661 15.7209 16.9618C15.7885 16.6441 15.856 16.3265 15.9234 16.0088Z" fill="#339AF0"/>
</svg>
