<svg width="16" height="16" viewBox="0 0 16 16" fill="none" xmlns="http://www.w3.org/2000/svg">
<path d="M8 16C12.4183 16 16 12.4183 16 8C16 3.58172 12.4183 0 8 0C3.58172 0 0 3.58172 0 8C0 12.4183 3.58172 16 8 16Z" fill="url(#paint0_linear_5896_8933)"/>
<path d="M5.41602 8.58485L6.36515 11.2119C6.36515 11.2119 6.48382 11.4577 6.61088 11.4577C6.73795 11.4577 8.62788 9.49158 8.62788 9.49158L10.7295 5.43225L5.44988 7.90672L5.41602 8.58485Z" fill="#C8DAEA"/>
<path d="M6.67367 9.25854L6.49147 11.1949C6.49147 11.1949 6.41521 11.7883 7.00841 11.1949C7.60161 10.6016 8.16941 10.1441 8.16941 10.1441" fill="#A9C6D8"/>
<path d="M5.43215 8.67857L3.47975 8.04243C3.47975 8.04243 3.24641 7.94777 3.32155 7.7331C3.33701 7.68884 3.36821 7.65117 3.46155 7.58643C3.89415 7.2849 11.4686 4.56243 11.4686 4.56243C11.4686 4.56243 11.6825 4.49037 11.8086 4.5383C11.8398 4.54796 11.8679 4.56574 11.89 4.58981C11.9121 4.61388 11.9273 4.64338 11.9343 4.6753C11.9479 4.73168 11.9536 4.78968 11.9512 4.84763C11.9506 4.89777 11.9445 4.94423 11.9399 5.0171C11.8938 5.76143 10.5133 11.3166 10.5133 11.3166C10.5133 11.3166 10.4307 11.6417 10.1347 11.6528C10.062 11.6552 9.98957 11.6429 9.9217 11.6166C9.85384 11.5904 9.79196 11.5507 9.73975 11.5C9.15901 11.0005 7.15181 9.65157 6.70828 9.3549C6.69828 9.34808 6.68985 9.3392 6.68357 9.32885C6.67729 9.3185 6.6733 9.30692 6.67188 9.2949C6.66568 9.26364 6.69968 9.2249 6.69968 9.2249C6.69968 9.2249 10.1947 6.11823 10.2877 5.7921C10.2949 5.76683 10.2677 5.75437 10.2312 5.76544C9.99908 5.85084 5.97495 8.3921 5.53081 8.67257C5.49884 8.68224 5.46505 8.6843 5.43215 8.67857Z" fill="white"/>
<defs>
<linearGradient id="paint0_linear_5896_8933" x1="8" y1="16" x2="8" y2="0" gradientUnits="userSpaceOnUse">
<stop stop-color="#1D93D2"/>
<stop offset="1" stop-color="#38B0E3"/>
</linearGradient>
</defs>
</svg>
