<svg width="24" height="24" viewBox="0 0 24 24" fill="none" xmlns="http://www.w3.org/2000/svg">
<path fill-rule="evenodd" clip-rule="evenodd" d="M12 9.53674e-07C5.3724 9.53674e-07 0 5.3727 0 12C0 18.6273 5.3724 24 12 24C18.6276 24 24 18.6273 24 12C24 5.3727 18.6276 9.53674e-07 12 9.53674e-07ZM17.0731 13.3923C17.2261 13.5786 17.3977 13.749 17.5642 13.9236C18.0913 14.4762 18.6271 15.0204 19.1422 15.5841C19.2979 15.7545 19.4137 15.9687 19.5184 16.1778C19.6966 16.533 19.579 16.806 19.201 16.9311C19.0549 16.98 18.8953 17.0052 18.7408 17.0094C18.0292 17.028 17.3167 17.04 16.6045 17.0454C16.1425 17.0493 15.7516 16.8528 15.4204 16.5501C15.1654 16.3176 14.9395 16.0533 14.7004 15.8031C14.4751 15.5676 14.2648 15.3138 14.0194 15.1005C13.6069 14.7414 13.225 14.8326 13.0507 15.3519C12.9403 15.6813 12.9022 16.0386 12.8665 16.3872C12.8263 16.7808 12.6817 16.9851 12.2956 17.0031C11.3452 17.046 10.4032 17.0208 9.4969 16.6596C8.3515 16.2036 7.4509 15.4437 6.7 14.4852C5.5768 13.0518 4.70771 11.466 3.91511 9.83579C3.75791 9.51239 3.607 9.18626 3.4648 8.85596C3.3001 8.47226 3.42882 8.24967 3.84462 8.23827C4.62192 8.21637 5.40011 8.21069 6.17711 8.21549C6.51251 8.21729 6.7231 8.41109 6.85 8.72339C7.2814 9.78749 7.82561 10.7913 8.50601 11.7174C8.62901 11.8845 8.77152 12.0435 8.92902 12.1773C9.25032 12.4503 9.53081 12.3744 9.63311 11.9688C9.71501 11.6421 9.76451 11.2998 9.76931 10.9632C9.77621 10.4223 9.7507 9.87988 9.7069 9.34078C9.6685 8.87098 9.3958 8.57907 8.9257 8.48337C8.8822 8.47437 8.8405 8.45547 8.7655 8.43027C8.8603 8.18337 9.03431 8.04118 9.24881 7.98148C9.52331 7.90468 9.81011 7.83478 10.0924 7.83148C10.7701 7.82398 11.4523 7.81796 12.1252 7.88546C12.7111 7.94396 12.886 8.18429 12.8866 8.77799C12.8866 9.50969 12.8557 10.2414 12.8455 10.9728C12.8419 11.2206 12.853 11.469 12.8695 11.7165C12.8761 11.8125 12.9067 11.91 12.943 12C13.0783 12.3405 13.3087 12.4137 13.5787 12.1716C13.8001 11.973 14.0029 11.745 14.1799 11.5047C14.818 10.6362 15.313 9.68819 15.7111 8.68739C15.8623 8.30489 15.9643 8.23827 16.3687 8.23647C17.2117 8.23317 18.0547 8.22926 18.8977 8.22146C19.5757 8.21516 19.7665 8.46297 19.471 9.07587C19.222 9.59097 18.9148 10.0821 18.5896 10.5537C18.1858 11.1393 17.7334 11.6916 17.3095 12.264C17.194 12.4203 17.0947 12.5922 17.0062 12.7659C16.8958 12.9834 16.9195 13.2045 17.0731 13.3923Z" fill="#3366FF"/>
</svg>
