<svg width="24" height="24" viewBox="0 0 24 24" fill="none" xmlns="http://www.w3.org/2000/svg">
<path fill-rule="evenodd" clip-rule="evenodd" d="M13.1093 0.0858184C12.9375 0.0572129 12.7372 0.0286055 12.5654 0C12.2506 0 11.9071 0 11.5923 0C10.7336 0.143027 9.87488 0.228844 9.0162 0.486293C1.77462 2.48868 -1.74599 10.4696 1.66013 17.1347C1.91773 17.6496 1.97498 18.0787 1.77462 18.6222C1.23079 20.1383 0.744199 21.6544 0.228988 23.1991C0.143119 23.4279 0.114491 23.6567 0 24C0.343474 23.9428 0.601082 23.8856 0.830065 23.8284C2.43294 23.3135 4.03582 22.8272 5.6387 22.2837C6.18253 22.112 6.61187 22.1406 7.15571 22.3695C14.1397 25.4589 21.9537 21.7116 23.6711 14.4172C25.3598 7.43742 20.3508 0.657928 13.1093 0.0858184ZM18.2041 15.7044C17.9465 16.7914 16.773 17.5638 15.027 17.5924C14.6835 17.478 13.9966 17.3063 13.3382 17.0489C10.1611 15.9046 8.12889 13.5876 6.69775 10.6985C6.03943 9.3826 6.06805 8.03814 6.98398 6.83671C7.15571 6.60787 7.38469 6.37902 7.64229 6.236C8.38648 5.77831 9.18793 6.06436 9.50278 6.83671C9.70314 7.35161 9.87488 7.89512 10.1325 8.41001C10.4473 9.03933 10.2756 9.55423 9.84626 10.0691C9.18794 10.8129 9.21656 10.8415 9.7604 11.671C10.5905 12.9297 11.6781 13.9023 13.0234 14.5888C13.51 14.8462 13.8821 14.789 14.2542 14.3886C15.3705 13.2157 15.3705 13.2443 16.773 13.9881C17.0306 14.1311 17.3168 14.2741 17.5744 14.4172C18.3472 14.7318 18.4045 14.9035 18.2041 15.7044Z" fill="#27C741"/>
</svg>
