<svg width="89" height="24" viewBox="0 0 89 24" fill="none" xmlns="http://www.w3.org/2000/svg">
<path d="M17.7389 0V23.9998H11.8259V17.9998H5.91303V23.9998H0V5.99979L5.91303 0H17.7389ZM11.8263 12V6.00001H5.77373L5.91303 12H11.8263Z" fill="white"/>
<path d="M38.5135 17.9998V23.9998H20.7744V0H26.6874V17.9998H38.5135Z" fill="white"/>
<path d="M47.3823 24H41.5479V0H47.3823V24Z" fill="white"/>
<path d="M56.2521 17.9996H62.1651V11.9998H68.0782V24H50.3389V0H68.0782V6.00021H56.2521V17.9996Z" fill="white"/>
<path d="M82.7035 24H70.9561V0H88.6949L88.6954 17.9998L82.7035 24ZM82.7821 6.00043H76.8691V17.9998H82.7735L82.7821 6.00043Z" fill="#F567F9"/>
</svg>
